<svg xmlns="http://www.w3.org/2000/svg" xmlns:xlink="http://www.w3.org/1999/xlink" width="343" height="253" viewBox="0 0 343 253"><defs><style>.cls-1{fill:#eff0f6;}.cls-2{fill:#89b5ce;opacity:0.2;}.cls-3{fill:#232f50;}.cls-10,.cls-4,.cls-5,.cls-6,.cls-7,.cls-8,.cls-9{fill:none;}.cls-4,.cls-6,.cls-7{stroke:#232f50;}.cls-4{stroke-linecap:square;}.cls-4,.cls-6{stroke-width:12px;}.cls-5,.cls-7{stroke-width:10px;}.cls-5{stroke:url(#Unbenannter_Verlauf_2);}.cls-6{stroke-linecap:round;}.cls-8{stroke:#8ab5cf;stroke-width:10px;}.cls-9{stroke:#4173b1;}.cls-10,.cls-9{stroke-width:10px;}.cls-10{stroke:#3d69a3;}</style><linearGradient id="Unbenannter_Verlauf_2" x1="96.4" y1="139.57" x2="50.63" y2="92.14" gradientTransform="matrix(1, 0, 0, -1, 0, 253)" gradientUnits="userSpaceOnUse"><stop offset="0" stop-color="#232f50"/><stop offset="0.54" stop-color="#4175b4"/><stop offset="1" stop-color="#8ab5cf"/></linearGradient></defs><g id="Background"><rect class="cls-1" x="-5.02" y="-4.05" width="348.02" height="257.05"/></g><g id="Overlay"><rect class="cls-2" x="55.22" y="-48.91" width="450.69" height="244.56" transform="translate(233.04 -212.71) rotate(65.91)"/></g><g id="Logo"><path class="cls-3" d="M142.29,129.23h-14l-.08-5.87h12.69a13.23,13.23,0,0,0,5.5-1.06,8.15,8.15,0,0,0,5-7.8,9.18,9.18,0,0,0-1.18-4.93,6.45,6.45,0,0,0-3.52-2.8,16.64,16.64,0,0,0-6-.91H129.94V155h-7.32V99.87H140.7a30.06,30.06,0,0,1,7.57.87,14.73,14.73,0,0,1,5.65,2.66,11.31,11.31,0,0,1,3.56,4.54,16.46,16.46,0,0,1,1.21,6.63,11.37,11.37,0,0,1-1.74,6.18,13.36,13.36,0,0,1-4.85,4.47,18.92,18.92,0,0,1-7.2,2.23ZM142,155H125.43l4.13-5.95H142a13.11,13.11,0,0,0,5.91-1.22,8.58,8.58,0,0,0,3.75-3.41,10.3,10.3,0,0,0,1.28-5.26,12,12,0,0,0-1.09-5.31,7.66,7.66,0,0,0-3.45-3.44,13.19,13.19,0,0,0-6.06-1.22H131.87l.07-5.87h14.25l1.55,2.12a13.64,13.64,0,0,1,6.75,2.28,12.35,12.35,0,0,1,4.2,4.85,14.29,14.29,0,0,1,1.48,6.51,15.94,15.94,0,0,1-2.27,8.72,14.26,14.26,0,0,1-6.33,5.38A23.59,23.59,0,0,1,142,155Zm36.33-55.17V155H171V99.87Zm33.3,0L188.66,125.6,175.78,139l-1.21-7.8,9.7-10.69,18.52-20.61ZM204.53,155l-20.42-26.9,4.36-5.8L213.25,155ZM222,99.87h7.09l18.07,45,18-45h7.13L249.89,155h-5.54Zm-2.31,0h6.25l1,33.65V155h-7.27Zm48.65,0h6.25V155h-7.28V133.52Z"/><path class="cls-4" d="M108.94,119.47V151.8"/><path class="cls-5" d="M93.32,110.31l-9.7,36.37-1.31-.18A4.54,4.54,0,0,0,78.23,148h0l-14.82-16.7h0a5.27,5.27,0,0,1-5.11,1.34h0l-10,25.87"/><path class="cls-6" d="M99.08,70.58l-.38,1.25L97,77.59"/><path class="cls-6" d="M111,74.84l-.38,1.26-1.75,5.76"/><path class="cls-7" d="M116.13,85.87,88.62,76.54c-3.29,7.82-6.9,18.18-4,24.8a14.48,14.48,0,0,0,8.65,7.78,15.09,15.09,0,0,0,12.47-.85C112.61,104.21,113.92,94,116.13,85.87Z"/><circle class="cls-8" cx="46.22" cy="163.52" r="4.85"/><circle class="cls-9" cx="59.88" cy="127.92" r="4.85"/><circle class="cls-10" cx="81.84" cy="151.27" r="4.85"/></g></svg>