<svg width="916" height="396" viewBox="0 0 458 198" fill="none" xmlns="http://www.w3.org/2000/svg">
    <path d="M200.375 115.118H174.43L174.289 104.219H197.844C201.734 104.219 205.133 103.563 208.039 102.25C210.945 100.938 213.195 99.063 214.789 96.6255C216.43 94.1411 217.25 91.188 217.25 87.7661C217.25 84.0161 216.523 80.9692 215.07 78.6255C213.664 76.2349 211.484 74.5005 208.531 73.4224C205.625 72.2974 201.922 71.7349 197.422 71.7349H177.453V163H163.883V60.6255H197.422C202.672 60.6255 207.359 61.1646 211.484 62.2427C215.609 63.2739 219.102 64.9146 221.961 67.1646C224.867 69.3677 227.07 72.1802 228.57 75.6021C230.07 79.0239 230.82 83.1255 230.82 87.9067C230.82 92.1255 229.742 95.9458 227.586 99.3677C225.43 102.743 222.43 105.508 218.586 107.665C214.789 109.821 210.336 111.204 205.227 111.813L200.375 115.118ZM199.742 163H169.086L176.75 151.961H199.742C204.055 151.961 207.711 151.211 210.711 149.711C213.758 148.211 216.078 146.102 217.672 143.383C219.266 140.618 220.062 137.36 220.062 133.61C220.062 129.813 219.383 126.532 218.023 123.766C216.664 121 214.531 118.868 211.625 117.368C208.719 115.868 204.969 115.118 200.375 115.118H181.039L181.18 104.219H207.617L210.5 108.157C215.422 108.579 219.594 109.985 223.016 112.375C226.438 114.719 229.039 117.719 230.82 121.375C232.648 125.032 233.562 129.063 233.562 133.469C233.562 139.844 232.156 145.235 229.344 149.641C226.578 154 222.664 157.329 217.602 159.625C212.539 161.875 206.586 163 199.742 163ZM267.172 60.6255V163H253.602V60.6255H267.172ZM328.977 60.6255L286.438 108.368L262.531 133.188L260.281 118.704L278.281 98.8755L312.664 60.6255H328.977ZM315.898 163L278 113.079L286.086 102.321L332.07 163H315.898ZM348.312 60.6255H361.461L395 144.086L428.469 60.6255H441.688L400.062 163H389.797L348.312 60.6255ZM344.023 60.6255H355.625L357.523 123.063V163H344.023V60.6255ZM434.305 60.6255H445.906V163H432.406V123.063L434.305 60.6255Z" fill="#212E50"/>
    <path d="M138.488 97.0005V157" stroke="#212E50" stroke-width="12" stroke-linecap="square"/>
    <path d="M109.5 80L91.5 147.5L89.0634 147.152C86.2212 146.746 83.3685 147.82 81.5 150V150L54 119V119C51.5265 121.473 47.8748 122.42 44.5 121.5V121.5L26 169.5" stroke="url(#paint0_linear_1225_105957)" stroke-width="10"/>
    <path d="M120.19 6.25458L119.481 8.59041L116.236 19.2685" stroke="#212E50" stroke-width="12" stroke-linecap="round"/>
    <path d="M142.218 14.1779L141.508 16.5138L138.263 27.1918" stroke="#212E50" stroke-width="12" stroke-linecap="round"/>
    <path d="M151.834 34.6454L100.773 17.3236C94.6731 31.845 87.9682 51.0664 93.2827 63.35C96.3066 70.3395 102.325 75.3185 109.334 77.7941C116.623 80.3688 125.485 80.3286 132.479 76.2132C145.302 68.6684 147.734 49.6598 151.834 34.6454Z" stroke="#212E50" stroke-width="10"/>
    <circle cx="22.0941" cy="178.744" r="9" transform="rotate(-0.964886 22.0941 178.744)" stroke="#88B4CD" stroke-width="10"/>
    <circle cx="47.4359" cy="112.671" r="9" transform="rotate(-0.964878 47.4359 112.671)" stroke="#3F72AF" stroke-width="10"/>
    <circle cx="88.1996" cy="156.005" r="9" transform="rotate(-0.964878 88.1996 156.005)" stroke="#3B68A1" stroke-width="10"/>
    <defs>
        <linearGradient id="paint0_linear_1225_105957" x1="108.5" y1="82" x2="26" y2="167.5" gradientUnits="userSpaceOnUse">
            <stop stop-color="#212E50"/>
            <stop offset="0.539583" stop-color="#4074B2"/>
            <stop offset="1" stop-color="#88B4CD"/>
        </linearGradient>
    </defs>
</svg>