<svg width="1697" height="897" viewBox="0 0 1697 897" fill="none" xmlns="http://www.w3.org/2000/svg">
<g clip-path="url(#clip0)">
<rect width="1697" height="897" fill="url(#paint0_radial)"/>
<g filter="url(#filter0_d)">
<rect width="411" height="731" transform="translate(192 83)" fill="white"/>
<rect x="223" y="588" width="348" height="47" rx="4" fill="#6200EE"/>
<path d="M358.314 617H356.585L352.148 609.938V617H350.419V607.047H352.148L356.599 614.136V607.047H358.314V617ZM367.426 612.557H363.338V615.619H368.116V617H361.608V607.047H368.068V608.441H363.338V611.189H367.426V612.557ZM378.055 607.047V613.698C378.055 614.756 377.715 615.594 377.036 616.214C376.362 616.829 375.462 617.137 374.336 617.137C373.197 617.137 372.292 616.834 371.622 616.228C370.952 615.617 370.617 614.771 370.617 613.691V607.047H372.34V613.705C372.34 614.37 372.508 614.879 372.846 615.229C373.183 615.58 373.68 615.756 374.336 615.756C375.667 615.756 376.332 615.054 376.332 613.65V607.047H378.055ZM386.975 612.557H382.887V615.619H387.665V617H381.157V607.047H387.617V608.441H382.887V611.189H386.975V612.557ZM395.525 614.437C395.525 613.999 395.37 613.662 395.061 613.425C394.755 613.188 394.201 612.949 393.399 612.707C392.597 612.465 391.959 612.197 391.485 611.9C390.578 611.331 390.125 610.588 390.125 609.672C390.125 608.87 390.451 608.209 391.103 607.689C391.759 607.17 392.609 606.91 393.652 606.91C394.345 606.91 394.963 607.038 395.505 607.293C396.047 607.548 396.473 607.913 396.783 608.387C397.093 608.856 397.248 609.378 397.248 609.952H395.525C395.525 609.433 395.361 609.027 395.033 608.735C394.71 608.439 394.245 608.291 393.639 608.291C393.074 608.291 392.634 608.412 392.319 608.653C392.009 608.895 391.854 609.232 391.854 609.665C391.854 610.03 392.023 610.335 392.36 610.581C392.698 610.823 393.254 611.06 394.028 611.292C394.803 611.52 395.425 611.782 395.895 612.078C396.364 612.37 396.708 612.707 396.927 613.09C397.146 613.468 397.255 613.912 397.255 614.423C397.255 615.252 396.936 615.913 396.298 616.405C395.664 616.893 394.803 617.137 393.714 617.137C392.994 617.137 392.331 617.005 391.725 616.74C391.123 616.471 390.654 616.102 390.316 615.633C389.984 615.163 389.817 614.617 389.817 613.992H391.547C391.547 614.557 391.734 614.995 392.107 615.305C392.481 615.615 393.017 615.77 393.714 615.77C394.315 615.77 394.767 615.649 395.067 615.407C395.373 615.161 395.525 614.838 395.525 614.437ZM409.961 614.437C409.961 613.999 409.806 613.662 409.496 613.425C409.191 613.188 408.637 612.949 407.835 612.707C407.033 612.465 406.395 612.197 405.921 611.9C405.014 611.331 404.561 610.588 404.561 609.672C404.561 608.87 404.886 608.209 405.538 607.689C406.194 607.17 407.044 606.91 408.088 606.91C408.781 606.91 409.398 607.038 409.94 607.293C410.483 607.548 410.909 607.913 411.219 608.387C411.529 608.856 411.684 609.378 411.684 609.952H409.961C409.961 609.433 409.797 609.027 409.469 608.735C409.145 608.439 408.68 608.291 408.074 608.291C407.509 608.291 407.069 608.412 406.755 608.653C406.445 608.895 406.29 609.232 406.29 609.665C406.29 610.03 406.459 610.335 406.796 610.581C407.133 610.823 407.689 611.06 408.464 611.292C409.239 611.52 409.861 611.782 410.33 612.078C410.799 612.37 411.144 612.707 411.362 613.09C411.581 613.468 411.69 613.912 411.69 614.423C411.69 615.252 411.371 615.913 410.733 616.405C410.1 616.893 409.239 617.137 408.149 617.137C407.429 617.137 406.766 617.005 406.16 616.74C405.559 616.471 405.089 616.102 404.752 615.633C404.419 615.163 404.253 614.617 404.253 613.992H405.982C405.982 614.557 406.169 614.995 406.543 615.305C406.917 615.615 407.452 615.77 408.149 615.77C408.751 615.77 409.202 615.649 409.503 615.407C409.808 615.161 409.961 614.838 409.961 614.437ZM416.188 613.302V617H414.458V607.047H418.266C419.378 607.047 420.259 607.336 420.911 607.915C421.567 608.494 421.896 609.259 421.896 610.212C421.896 611.187 421.574 611.946 420.932 612.488C420.294 613.031 419.398 613.302 418.245 613.302H416.188ZM416.188 611.914H418.266C418.881 611.914 419.35 611.771 419.674 611.483C419.997 611.192 420.159 610.772 420.159 610.226C420.159 609.688 419.995 609.259 419.667 608.94C419.339 608.617 418.888 608.451 418.313 608.441H416.188V611.914ZM426.488 617H424.766V607.047H426.488V617ZM435.682 612.557H431.594V615.619H436.372V617H429.864V607.047H436.324V608.441H431.594V611.189H435.682V612.557ZM440.76 615.619H445.278V617H439.03V607.047H440.76V615.619Z" fill="white"/>
<rect x="223" y="651" width="348" height="47" rx="4" fill="#6200EE"/>
<path d="M338.725 677.437C338.725 676.999 338.57 676.662 338.26 676.425C337.954 676.188 337.401 675.949 336.599 675.707C335.797 675.465 335.159 675.197 334.685 674.9C333.778 674.331 333.324 673.588 333.324 672.672C333.324 671.87 333.65 671.209 334.302 670.689C334.958 670.17 335.808 669.91 336.852 669.91C337.544 669.91 338.162 670.038 338.704 670.293C339.246 670.548 339.673 670.913 339.982 671.387C340.292 671.856 340.447 672.378 340.447 672.952H338.725C338.725 672.433 338.561 672.027 338.232 671.735C337.909 671.439 337.444 671.291 336.838 671.291C336.273 671.291 335.833 671.412 335.519 671.653C335.209 671.895 335.054 672.232 335.054 672.665C335.054 673.03 335.222 673.335 335.56 673.581C335.897 673.823 336.453 674.06 337.228 674.292C338.002 674.52 338.624 674.782 339.094 675.078C339.563 675.37 339.907 675.707 340.126 676.09C340.345 676.468 340.454 676.912 340.454 677.423C340.454 678.252 340.135 678.913 339.497 679.405C338.864 679.893 338.002 680.137 336.913 680.137C336.193 680.137 335.53 680.005 334.924 679.74C334.322 679.471 333.853 679.102 333.516 678.633C333.183 678.163 333.017 677.617 333.017 676.992H334.746C334.746 677.557 334.933 677.995 335.307 678.305C335.68 678.615 336.216 678.77 336.913 678.77C337.515 678.77 337.966 678.649 338.267 678.407C338.572 678.161 338.725 677.838 338.725 677.437ZM344.951 676.302V680H343.222V670.047H347.029C348.141 670.047 349.023 670.336 349.675 670.915C350.331 671.494 350.659 672.259 350.659 673.212C350.659 674.187 350.338 674.946 349.695 675.488C349.057 676.031 348.162 676.302 347.009 676.302H344.951ZM344.951 674.914H347.029C347.645 674.914 348.114 674.771 348.438 674.483C348.761 674.192 348.923 673.772 348.923 673.226C348.923 672.688 348.759 672.259 348.431 671.94C348.103 671.617 347.651 671.451 347.077 671.441H344.951V674.914ZM355.252 680H353.529V670.047H355.252V680ZM364.445 675.557H360.357V678.619H365.136V680H358.628V670.047H365.088V671.441H360.357V674.189H364.445V675.557ZM369.523 678.619H374.042V680H367.794V670.047H369.523V678.619ZM381.354 680V670.047H384.766C385.891 670.047 386.748 670.272 387.336 670.724C387.924 671.175 388.218 671.847 388.218 672.74C388.218 673.196 388.095 673.606 387.849 673.971C387.603 674.335 387.243 674.618 386.769 674.818C387.306 674.964 387.721 675.24 388.013 675.646C388.309 676.047 388.457 676.53 388.457 677.095C388.457 678.029 388.156 678.747 387.555 679.248C386.958 679.749 386.101 680 384.984 680H381.354ZM383.084 675.509V678.619H385.005C385.547 678.619 385.971 678.485 386.276 678.216C386.582 677.947 386.734 677.573 386.734 677.095C386.734 676.06 386.206 675.532 385.148 675.509H383.084ZM383.084 674.237H384.779C385.317 674.237 385.736 674.117 386.037 673.875C386.342 673.629 386.495 673.283 386.495 672.836C386.495 672.344 386.354 671.988 386.071 671.77C385.793 671.551 385.358 671.441 384.766 671.441H383.084V674.237ZM397.254 675.557H393.166V678.619H397.944V680H391.437V670.047H397.896V671.441H393.166V674.189H397.254V675.557ZM402.428 680H400.705V670.047H402.428V680ZM412.79 671.441H409.687V680H407.971V671.441H404.895V670.047H412.79V671.441ZM419.01 676.165H417.082V680H415.353V670.047H418.853C420.001 670.047 420.887 670.304 421.512 670.819C422.136 671.334 422.448 672.079 422.448 673.055C422.448 673.72 422.286 674.278 421.963 674.729C421.644 675.176 421.197 675.52 420.623 675.762L422.858 679.911V680H421.006L419.01 676.165ZM417.082 674.777H418.859C419.443 674.777 419.898 674.632 420.227 674.34C420.555 674.044 420.719 673.64 420.719 673.13C420.719 672.597 420.566 672.184 420.261 671.893C419.96 671.601 419.509 671.451 418.907 671.441H417.082V674.777ZM431.156 675.557H427.068V678.619H431.847V680H425.339V670.047H431.799V671.441H427.068V674.189H431.156V675.557ZM441.833 671.441H438.729V680H437.014V671.441H433.938V670.047H441.833V671.441ZM450.213 675.557H446.125V678.619H450.903V680H444.396V670.047H450.855V671.441H446.125V674.189H450.213V675.557ZM461.457 680H459.728L455.291 672.938V680H453.562V670.047H455.291L459.741 677.136V670.047H461.457V680Z" fill="white"/>
<path d="M493.534 316.132L313.367 374.433C300.566 378.575 286.917 370.855 286.113 357.424C283.505 313.865 296.843 251.156 364.801 228.103C432.921 204.994 481.45 248.617 505.61 286.139C512.95 297.539 506.433 311.957 493.534 316.132Z" fill="#6200EE"/>
<path fill-rule="evenodd" clip-rule="evenodd" d="M318.43 372.838L397.025 221.727C415.771 220.75 432.628 224.853 447.462 231.98L478.364 321.085L446.901 331.266L424.041 261.988C421.252 253.537 409.644 252.664 405.623 260.603L359.62 351.431C358.2 354.233 358.227 357.154 359.23 359.636L318.43 372.838Z" fill="black" fill-opacity="0.23"/>
<path fill-rule="evenodd" clip-rule="evenodd" d="M428.851 184.235C431.685 178.786 439.662 179.368 441.675 185.172L500.52 354.853C501.824 358.613 499.734 362.703 495.922 363.85L321.551 416.285C315.622 418.068 310.468 411.844 313.325 406.352L428.851 184.235ZM432.976 257.299C431.024 251.384 422.898 250.773 420.084 256.33L367.623 359.907C364.831 365.419 370.029 371.582 375.933 369.759L454.56 345.48C458.305 344.324 460.37 340.319 459.142 336.598L432.976 257.299Z" fill="#4ED785"/>
<path d="M310.66 485.012L310.643 474.922H301.484V478.613H305.721L305.703 483.254C305.574 483.406 305.381 483.553 305.123 483.693C304.877 483.822 304.59 483.939 304.262 484.045C303.934 484.15 303.582 484.232 303.207 484.291C302.832 484.35 302.451 484.379 302.064 484.379C301.432 484.367 300.863 484.268 300.359 484.08C299.867 483.881 299.434 483.594 299.059 483.219C298.836 482.996 298.631 482.744 298.443 482.463C298.268 482.17 298.109 481.854 297.969 481.514C297.746 480.928 297.57 480.254 297.441 479.492C297.324 478.73 297.266 477.887 297.266 476.961V473.445C297.266 472.707 297.307 472.021 297.389 471.389C297.482 470.756 297.611 470.182 297.775 469.666C297.986 468.998 298.25 468.418 298.566 467.926C298.895 467.434 299.258 467.035 299.656 466.73C299.961 466.508 300.289 466.338 300.641 466.221C300.992 466.104 301.355 466.045 301.73 466.045C302.422 466.045 303.014 466.139 303.506 466.326C304.01 466.502 304.426 466.771 304.754 467.135C305.047 467.463 305.275 467.867 305.439 468.348C305.615 468.828 305.744 469.379 305.826 470H310.643C310.514 468.77 310.238 467.662 309.816 466.678C309.406 465.693 308.832 464.855 308.094 464.164C307.355 463.484 306.447 462.963 305.369 462.6C304.303 462.236 303.049 462.055 301.607 462.055C300.67 462.055 299.779 462.184 298.936 462.441C298.092 462.699 297.312 463.08 296.598 463.584C295.988 464.029 295.426 464.557 294.91 465.166C294.406 465.775 293.961 466.461 293.574 467.223C293.164 468.078 292.848 469.033 292.625 470.088C292.402 471.131 292.291 472.262 292.291 473.48V476.961C292.291 478.238 292.402 479.422 292.625 480.512C292.859 481.602 293.199 482.58 293.645 483.447C294.031 484.232 294.5 484.93 295.051 485.539C295.613 486.148 296.234 486.664 296.914 487.086C297.605 487.496 298.361 487.807 299.182 488.018C300.014 488.24 300.898 488.352 301.836 488.352C302.914 488.352 303.922 488.252 304.859 488.053C305.797 487.854 306.646 487.59 307.408 487.262C308.158 486.945 308.809 486.588 309.359 486.189C309.91 485.791 310.344 485.398 310.66 485.012ZM347.186 476.785V472.883H336.674V466.432H348.908V462.406H331.717V488H348.961V484.01H336.674V476.785H347.186ZM375.08 484.01L387.473 465.342L387.455 462.406H369.104V466.432H381.479L369.068 484.977V488H387.771V484.01H375.08ZM425.229 462.406H420.324L420.307 479.369C420.295 480.201 420.207 480.934 420.043 481.566C419.879 482.199 419.633 482.727 419.305 483.148C419 483.559 418.613 483.869 418.145 484.08C417.688 484.279 417.16 484.379 416.562 484.379C416.012 484.379 415.525 484.285 415.104 484.098C414.682 483.898 414.324 483.605 414.031 483.219C413.715 482.797 413.475 482.264 413.311 481.619C413.158 480.975 413.076 480.225 413.064 479.369L413.047 462.406H408.107L408.09 479.369C408.09 480.799 408.289 482.076 408.688 483.201C409.098 484.314 409.672 485.252 410.41 486.014C411.148 486.775 412.033 487.355 413.064 487.754C414.107 488.152 415.273 488.352 416.562 488.352C417.934 488.352 419.152 488.152 420.219 487.754C421.297 487.355 422.211 486.77 422.961 485.996C423.699 485.234 424.262 484.297 424.648 483.184C425.047 482.07 425.246 480.799 425.246 479.369L425.229 462.406ZM452.613 462.406H446.479V488H451.014V480.424L450.803 468.928L453.809 479.562H456.252L459.609 468.453L459.398 480.424V488H463.934V462.406H457.799L455.039 472.021L452.613 462.406ZM486.01 462.406V466.396H490.879V484.027H486.01V488H500.811V484.027H495.818V466.396H500.811V462.406H486.01Z" fill="#1C1C1C"/>
<rect width="411" height="731" transform="translate(643 83)" fill="white"/>
<g filter="url(#filter1_d)">
<path d="M716 326.5L846 616.5" stroke="#4ED785" stroke-width="17"/>
</g>
<g filter="url(#filter2_d)">
<path d="M716 327L972 430.5" stroke="#4ED785" stroke-width="17"/>
</g>
<g filter="url(#filter3_d)">
<path d="M849 618L972 430.5" stroke="#ECECEC" stroke-width="17"/>
</g>
<g filter="url(#filter4_d)">
<circle cx="717" cy="326" r="35" fill="white"/>
<circle cx="717" cy="326" r="32" stroke="#ECECEC" stroke-width="6"/>
</g>
<g filter="url(#filter5_d)">
<circle cx="849" cy="615" r="35" fill="white"/>
<circle cx="849" cy="615" r="32" stroke="#6200EE" stroke-width="6"/>
</g>
<g filter="url(#filter6_d)">
<circle cx="975" cy="428" r="35" fill="white"/>
<circle cx="975" cy="428" r="32" stroke="#ECECEC" stroke-width="6"/>
</g>
<path d="M752.812 141.785C752.195 142.59 751.34 143.199 750.246 143.613C749.152 144.027 747.91 144.234 746.52 144.234C745.09 144.234 743.824 143.91 742.723 143.262C741.621 142.613 740.77 141.688 740.168 140.484C739.574 139.273 739.266 137.863 739.242 136.254V134.918C739.242 132.34 739.859 130.328 741.094 128.883C742.328 127.43 744.051 126.703 746.262 126.703C748.16 126.703 749.668 127.172 750.785 128.109C751.902 129.047 752.574 130.398 752.801 132.164H749.895C749.566 130.109 748.375 129.082 746.32 129.082C744.992 129.082 743.98 129.562 743.285 130.523C742.598 131.477 742.242 132.879 742.219 134.73V136.043C742.219 137.887 742.605 139.32 743.379 140.344C744.16 141.359 745.242 141.867 746.625 141.867C748.141 141.867 749.219 141.523 749.859 140.836V137.496H746.344V135.246H752.812V141.785ZM758.824 144H755.977V126H758.824V144ZM767.52 144.234C765.715 144.234 764.25 143.668 763.125 142.535C762.008 141.395 761.449 139.879 761.449 137.988V137.637C761.449 136.371 761.691 135.242 762.176 134.25C762.668 133.25 763.355 132.473 764.238 131.918C765.121 131.363 766.105 131.086 767.191 131.086C768.918 131.086 770.25 131.637 771.188 132.738C772.133 133.84 772.605 135.398 772.605 137.414V138.562H764.32C764.406 139.609 764.754 140.438 765.363 141.047C765.98 141.656 766.754 141.961 767.684 141.961C768.988 141.961 770.051 141.434 770.871 140.379L772.406 141.844C771.898 142.602 771.219 143.191 770.367 143.613C769.523 144.027 768.574 144.234 767.52 144.234ZM767.18 133.371C766.398 133.371 765.766 133.645 765.281 134.191C764.805 134.738 764.5 135.5 764.367 136.477H769.793V136.266C769.73 135.312 769.477 134.594 769.031 134.109C768.586 133.617 767.969 133.371 767.18 133.371ZM777.855 144H775.008V131.32H777.855V144ZM774.832 128.027C774.832 127.59 774.969 127.227 775.242 126.938C775.523 126.648 775.922 126.504 776.438 126.504C776.953 126.504 777.352 126.648 777.633 126.938C777.914 127.227 778.055 127.59 778.055 128.027C778.055 128.457 777.914 128.816 777.633 129.105C777.352 129.387 776.953 129.527 776.438 129.527C775.922 129.527 775.523 129.387 775.242 129.105C774.969 128.816 774.832 128.457 774.832 128.027ZM786.176 141.961C786.887 141.961 787.477 141.754 787.945 141.34C788.414 140.926 788.664 140.414 788.695 139.805H791.379C791.348 140.594 791.102 141.332 790.641 142.02C790.18 142.699 789.555 143.238 788.766 143.637C787.977 144.035 787.125 144.234 786.211 144.234C784.438 144.234 783.031 143.66 781.992 142.512C780.953 141.363 780.434 139.777 780.434 137.754V137.461C780.434 135.531 780.949 133.988 781.98 132.832C783.012 131.668 784.418 131.086 786.199 131.086C787.707 131.086 788.934 131.527 789.879 132.41C790.832 133.285 791.332 134.438 791.379 135.867H788.695C788.664 135.141 788.414 134.543 787.945 134.074C787.484 133.605 786.895 133.371 786.176 133.371C785.254 133.371 784.543 133.707 784.043 134.379C783.543 135.043 783.289 136.055 783.281 137.414V137.871C783.281 139.246 783.527 140.273 784.02 140.953C784.52 141.625 785.238 141.961 786.176 141.961ZM796.336 132.703C797.266 131.625 798.441 131.086 799.863 131.086C802.566 131.086 803.938 132.629 803.977 135.715V144H801.129V135.82C801.129 134.945 800.938 134.328 800.555 133.969C800.18 133.602 799.625 133.418 798.891 133.418C797.75 133.418 796.898 133.926 796.336 134.941V144H793.488V126H796.336V132.703ZM813.973 140.555C813.973 140.047 813.762 139.66 813.34 139.395C812.926 139.129 812.234 138.895 811.266 138.691C810.297 138.488 809.488 138.23 808.84 137.918C807.418 137.23 806.707 136.234 806.707 134.93C806.707 133.836 807.168 132.922 808.09 132.188C809.012 131.453 810.184 131.086 811.605 131.086C813.121 131.086 814.344 131.461 815.273 132.211C816.211 132.961 816.68 133.934 816.68 135.129H813.832C813.832 134.582 813.629 134.129 813.223 133.77C812.816 133.402 812.277 133.219 811.605 133.219C810.98 133.219 810.469 133.363 810.07 133.652C809.68 133.941 809.484 134.328 809.484 134.812C809.484 135.25 809.668 135.59 810.035 135.832C810.402 136.074 811.145 136.32 812.262 136.57C813.379 136.812 814.254 137.105 814.887 137.449C815.527 137.785 816 138.191 816.305 138.668C816.617 139.145 816.773 139.723 816.773 140.402C816.773 141.543 816.301 142.469 815.355 143.18C814.41 143.883 813.172 144.234 811.641 144.234C810.602 144.234 809.676 144.047 808.863 143.672C808.051 143.297 807.418 142.781 806.965 142.125C806.512 141.469 806.285 140.762 806.285 140.004H809.051C809.09 140.676 809.344 141.195 809.812 141.562C810.281 141.922 810.902 142.102 811.676 142.102C812.426 142.102 812.996 141.961 813.387 141.68C813.777 141.391 813.973 141.016 813.973 140.555ZM824.848 144.234C823.043 144.234 821.578 143.668 820.453 142.535C819.336 141.395 818.777 139.879 818.777 137.988V137.637C818.777 136.371 819.02 135.242 819.504 134.25C819.996 133.25 820.684 132.473 821.566 131.918C822.449 131.363 823.434 131.086 824.52 131.086C826.246 131.086 827.578 131.637 828.516 132.738C829.461 133.84 829.934 135.398 829.934 137.414V138.562H821.648C821.734 139.609 822.082 140.438 822.691 141.047C823.309 141.656 824.082 141.961 825.012 141.961C826.316 141.961 827.379 141.434 828.199 140.379L829.734 141.844C829.227 142.602 828.547 143.191 827.695 143.613C826.852 144.027 825.902 144.234 824.848 144.234ZM824.508 133.371C823.727 133.371 823.094 133.645 822.609 134.191C822.133 134.738 821.828 135.5 821.695 136.477H827.121V136.266C827.059 135.312 826.805 134.594 826.359 134.109C825.914 133.617 825.297 133.371 824.508 133.371ZM835.184 144H832.336V131.32H835.184V144ZM832.16 128.027C832.16 127.59 832.297 127.227 832.57 126.938C832.852 126.648 833.25 126.504 833.766 126.504C834.281 126.504 834.68 126.648 834.961 126.938C835.242 127.227 835.383 127.59 835.383 128.027C835.383 128.457 835.242 128.816 834.961 129.105C834.68 129.387 834.281 129.527 833.766 129.527C833.25 129.527 832.852 129.387 832.57 129.105C832.297 128.816 832.16 128.457 832.16 128.027ZM841.863 128.238V131.32H844.102V133.43H841.863V140.508C841.863 140.992 841.957 141.344 842.145 141.562C842.34 141.773 842.684 141.879 843.176 141.879C843.504 141.879 843.836 141.84 844.172 141.762V143.965C843.523 144.145 842.898 144.234 842.297 144.234C840.109 144.234 839.016 143.027 839.016 140.613V133.43H836.93V131.32H839.016V128.238H841.863ZM845.789 137.566C845.789 135.598 846.25 134.027 847.172 132.855C848.102 131.676 849.332 131.086 850.863 131.086C852.309 131.086 853.445 131.59 854.273 132.598L854.402 131.32H856.969V143.613C856.969 145.277 856.449 146.59 855.41 147.551C854.379 148.512 852.984 148.992 851.227 148.992C850.297 148.992 849.387 148.797 848.496 148.406C847.613 148.023 846.941 147.52 846.48 146.895L847.828 145.184C848.703 146.223 849.781 146.742 851.062 146.742C852.008 146.742 852.754 146.484 853.301 145.969C853.848 145.461 854.121 144.711 854.121 143.719V142.863C853.301 143.777 852.207 144.234 850.84 144.234C849.355 144.234 848.141 143.645 847.195 142.465C846.258 141.285 845.789 139.652 845.789 137.566ZM848.625 137.812C848.625 139.086 848.883 140.09 849.398 140.824C849.922 141.551 850.645 141.914 851.566 141.914C852.715 141.914 853.566 141.422 854.121 140.438V134.859C853.582 133.898 852.738 133.418 851.59 133.418C850.652 133.418 849.922 133.789 849.398 134.531C848.883 135.273 848.625 136.367 848.625 137.812ZM865.488 144.234C863.684 144.234 862.219 143.668 861.094 142.535C859.977 141.395 859.418 139.879 859.418 137.988V137.637C859.418 136.371 859.66 135.242 860.145 134.25C860.637 133.25 861.324 132.473 862.207 131.918C863.09 131.363 864.074 131.086 865.16 131.086C866.887 131.086 868.219 131.637 869.156 132.738C870.102 133.84 870.574 135.398 870.574 137.414V138.562H862.289C862.375 139.609 862.723 140.438 863.332 141.047C863.949 141.656 864.723 141.961 865.652 141.961C866.957 141.961 868.02 141.434 868.84 140.379L870.375 141.844C869.867 142.602 869.188 143.191 868.336 143.613C867.492 144.027 866.543 144.234 865.488 144.234ZM865.148 133.371C864.367 133.371 863.734 133.645 863.25 134.191C862.773 134.738 862.469 135.5 862.336 136.477H867.762V136.266C867.699 135.312 867.445 134.594 867 134.109C866.555 133.617 865.938 133.371 865.148 133.371ZM879.902 140.555C879.902 140.047 879.691 139.66 879.27 139.395C878.855 139.129 878.164 138.895 877.195 138.691C876.227 138.488 875.418 138.23 874.77 137.918C873.348 137.23 872.637 136.234 872.637 134.93C872.637 133.836 873.098 132.922 874.02 132.188C874.941 131.453 876.113 131.086 877.535 131.086C879.051 131.086 880.273 131.461 881.203 132.211C882.141 132.961 882.609 133.934 882.609 135.129H879.762C879.762 134.582 879.559 134.129 879.152 133.77C878.746 133.402 878.207 133.219 877.535 133.219C876.91 133.219 876.398 133.363 876 133.652C875.609 133.941 875.414 134.328 875.414 134.812C875.414 135.25 875.598 135.59 875.965 135.832C876.332 136.074 877.074 136.32 878.191 136.57C879.309 136.812 880.184 137.105 880.816 137.449C881.457 137.785 881.93 138.191 882.234 138.668C882.547 139.145 882.703 139.723 882.703 140.402C882.703 141.543 882.23 142.469 881.285 143.18C880.34 143.883 879.102 144.234 877.57 144.234C876.531 144.234 875.605 144.047 874.793 143.672C873.98 143.297 873.348 142.781 872.895 142.125C872.441 141.469 872.215 140.762 872.215 140.004H874.98C875.02 140.676 875.273 141.195 875.742 141.562C876.211 141.922 876.832 142.102 877.605 142.102C878.355 142.102 878.926 141.961 879.316 141.68C879.707 141.391 879.902 141.016 879.902 140.555ZM891.445 144V126.938H896.484C897.992 126.938 899.328 127.273 900.492 127.945C901.664 128.617 902.57 129.57 903.211 130.805C903.852 132.039 904.172 133.453 904.172 135.047V135.902C904.172 137.52 903.848 138.941 903.199 140.168C902.559 141.395 901.641 142.34 900.445 143.004C899.258 143.668 897.895 144 896.355 144H891.445ZM894.41 129.328V141.633H896.344C897.898 141.633 899.09 141.148 899.918 140.18C900.754 139.203 901.18 137.805 901.195 135.984V135.035C901.195 133.184 900.793 131.77 899.988 130.793C899.184 129.816 898.016 129.328 896.484 129.328H894.41ZM913.488 133.922C913.113 133.859 912.727 133.828 912.328 133.828C911.023 133.828 910.145 134.328 909.691 135.328V144H906.844V131.32H909.562L909.633 132.738C910.32 131.637 911.273 131.086 912.492 131.086C912.898 131.086 913.234 131.141 913.5 131.25L913.488 133.922ZM920.637 144.234C918.832 144.234 917.367 143.668 916.242 142.535C915.125 141.395 914.566 139.879 914.566 137.988V137.637C914.566 136.371 914.809 135.242 915.293 134.25C915.785 133.25 916.473 132.473 917.355 131.918C918.238 131.363 919.223 131.086 920.309 131.086C922.035 131.086 923.367 131.637 924.305 132.738C925.25 133.84 925.723 135.398 925.723 137.414V138.562H917.438C917.523 139.609 917.871 140.438 918.48 141.047C919.098 141.656 919.871 141.961 920.801 141.961C922.105 141.961 923.168 141.434 923.988 140.379L925.523 141.844C925.016 142.602 924.336 143.191 923.484 143.613C922.641 144.027 921.691 144.234 920.637 144.234ZM920.297 133.371C919.516 133.371 918.883 133.645 918.398 134.191C917.922 134.738 917.617 135.5 917.484 136.477H922.91V136.266C922.848 135.312 922.594 134.594 922.148 134.109C921.703 133.617 921.086 133.371 920.297 133.371ZM930.973 144H928.125V131.32H930.973V144ZM927.949 128.027C927.949 127.59 928.086 127.227 928.359 126.938C928.641 126.648 929.039 126.504 929.555 126.504C930.07 126.504 930.469 126.648 930.75 126.938C931.031 127.227 931.172 127.59 931.172 128.027C931.172 128.457 931.031 128.816 930.75 129.105C930.469 129.387 930.07 129.527 929.555 129.527C929.039 129.527 928.641 129.387 928.359 129.105C928.086 128.816 927.949 128.457 927.949 128.027ZM939.293 141.961C940.004 141.961 940.594 141.754 941.062 141.34C941.531 140.926 941.781 140.414 941.812 139.805H944.496C944.465 140.594 944.219 141.332 943.758 142.02C943.297 142.699 942.672 143.238 941.883 143.637C941.094 144.035 940.242 144.234 939.328 144.234C937.555 144.234 936.148 143.66 935.109 142.512C934.07 141.363 933.551 139.777 933.551 137.754V137.461C933.551 135.531 934.066 133.988 935.098 132.832C936.129 131.668 937.535 131.086 939.316 131.086C940.824 131.086 942.051 131.527 942.996 132.41C943.949 133.285 944.449 134.438 944.496 135.867H941.812C941.781 135.141 941.531 134.543 941.062 134.074C940.602 133.605 940.012 133.371 939.293 133.371C938.371 133.371 937.66 133.707 937.16 134.379C936.66 135.043 936.406 136.055 936.398 137.414V137.871C936.398 139.246 936.645 140.273 937.137 140.953C937.637 141.625 938.355 141.961 939.293 141.961ZM950.766 138.562L949.5 139.863V144H946.652V126H949.5V136.383L950.391 135.27L953.895 131.32H957.316L952.605 136.605L957.82 144H954.527L950.766 138.562Z" fill="#444444"/>
<g filter="url(#filter7_d)">
<rect x="789" y="180" width="119" height="52" rx="25" fill="#6200EE"/>
</g>
<path d="M828.398 206.816C828.398 209.27 827.938 211.121 827.016 212.371C826.102 213.613 824.707 214.234 822.832 214.234C820.988 214.234 819.598 213.629 818.66 212.418C817.73 211.199 817.254 209.398 817.23 207.016V204.062C817.23 201.609 817.688 199.77 818.602 198.543C819.523 197.316 820.926 196.703 822.809 196.703C824.676 196.703 826.066 197.301 826.98 198.496C827.902 199.691 828.375 201.48 828.398 203.863V206.816ZM825.551 203.629C825.551 202.027 825.332 200.855 824.895 200.113C824.457 199.363 823.762 198.988 822.809 198.988C821.879 198.988 821.195 199.344 820.758 200.055C820.32 200.758 820.09 201.859 820.066 203.359V207.227C820.066 208.82 820.289 210.008 820.734 210.789C821.18 211.57 821.879 211.961 822.832 211.961C823.746 211.961 824.422 211.602 824.859 210.883C825.297 210.156 825.527 209.023 825.551 207.484V203.629ZM843.289 206.816C843.289 209.27 842.828 211.121 841.906 212.371C840.992 213.613 839.598 214.234 837.723 214.234C835.879 214.234 834.488 213.629 833.551 212.418C832.621 211.199 832.145 209.398 832.121 207.016V204.062C832.121 201.609 832.578 199.77 833.492 198.543C834.414 197.316 835.816 196.703 837.699 196.703C839.566 196.703 840.957 197.301 841.871 198.496C842.793 199.691 843.266 201.48 843.289 203.863V206.816ZM840.441 203.629C840.441 202.027 840.223 200.855 839.785 200.113C839.348 199.363 838.652 198.988 837.699 198.988C836.77 198.988 836.086 199.344 835.648 200.055C835.211 200.758 834.98 201.859 834.957 203.359V207.227C834.957 208.82 835.18 210.008 835.625 210.789C836.07 211.57 836.77 211.961 837.723 211.961C838.637 211.961 839.312 211.602 839.75 210.883C840.188 210.156 840.418 209.023 840.441 207.484V203.629ZM848.957 211C849.488 211 849.898 211.152 850.188 211.457C850.477 211.754 850.621 212.129 850.621 212.582C850.621 213.027 850.477 213.398 850.188 213.695C849.898 213.984 849.488 214.129 848.957 214.129C848.449 214.129 848.047 213.984 847.75 213.695C847.453 213.406 847.305 213.035 847.305 212.582C847.305 212.129 847.449 211.754 847.738 211.457C848.027 211.152 848.434 211 848.957 211ZM848.957 201.051C849.488 201.051 849.898 201.203 850.188 201.508C850.477 201.805 850.621 202.18 850.621 202.633C850.621 203.078 850.477 203.449 850.188 203.746C849.898 204.035 849.488 204.18 848.957 204.18C848.449 204.18 848.047 204.035 847.75 203.746C847.453 203.457 847.305 203.086 847.305 202.633C847.305 202.18 847.449 201.805 847.738 201.508C848.027 201.203 848.434 201.051 848.957 201.051ZM862.395 214H859.559V200.301L855.375 201.73V199.328L862.031 196.879H862.395V214ZM879.207 207.918H881.328V210.203H879.207V214H876.359V210.203H868.988L868.906 208.469L876.266 196.938H879.207V207.918ZM871.895 207.918H876.359V200.793L876.148 201.168L871.895 207.918Z" fill="white"/>
<g filter="url(#filter8_d)">
<circle cx="1000" cy="756" r="25" fill="white"/>
</g>
<g filter="url(#filter9_d)">
<circle cx="927" cy="756" r="25" fill="white"/>
</g>
<path d="M1004.12 767.375H1006.54V764.958H1004.12V767.375ZM1008.96 752.875H1011.38V750.458H1008.96V752.875ZM989.625 748.042V764.958C989.625 766.288 990.712 767.375 992.042 767.375H996.875V764.958H992.042V748.042H996.875V745.625H992.042C990.712 745.625 989.625 746.713 989.625 748.042ZM1008.96 745.625V748.042H1011.38C1011.38 746.713 1010.29 745.625 1008.96 745.625ZM999.292 769.792H1001.71V743.208H999.292V769.792ZM1008.96 762.542H1011.38V760.125H1008.96V762.542ZM1004.12 748.042H1006.54V745.625H1004.12V748.042ZM1008.96 757.708H1011.38V755.292H1008.96V757.708ZM1008.96 767.375C1010.29 767.375 1011.38 766.288 1011.38 764.958H1008.96V767.375Z" fill="#444444"/>
<path d="M916.625 760.125V762.542H919.042V760.125H916.625ZM931.125 764.958V767.375H933.542V764.958H931.125ZM935.958 745.625H919.042C917.713 745.625 916.625 746.712 916.625 748.042V752.875H919.042V748.042H935.958V752.875H938.375V748.042C938.375 746.712 937.288 745.625 935.958 745.625ZM938.375 764.958H935.958V767.375C937.288 767.375 938.375 766.288 938.375 764.958ZM914.208 755.292V757.708H940.792V755.292H914.208ZM921.458 764.958V767.375H923.875V764.958H921.458ZM935.958 760.125V762.542H938.375V760.125H935.958ZM926.292 764.958V767.375H928.708V764.958H926.292ZM916.625 764.958C916.625 766.288 917.713 767.375 919.042 767.375V764.958H916.625Z" fill="#444444"/>
<rect width="411" height="731" transform="translate(1094 83)" fill="white"/>
<g filter="url(#filter10_d)">
<path d="M1170 384.5L1221.5 591" stroke="#4ED785" stroke-width="17"/>
</g>
<g filter="url(#filter11_d)">
<path d="M1170 385L1426 488.5" stroke="#4ED785" stroke-width="17"/>
</g>
<g filter="url(#filter12_d)">
<path d="M1223 589.5L1426 488.5" stroke="#4ED785" stroke-width="17"/>
</g>
<g filter="url(#filter13_d)">
<circle cx="1171" cy="384" r="35" fill="white"/>
<circle cx="1171" cy="384" r="32" stroke="#ECECEC" stroke-width="6"/>
</g>
<g filter="url(#filter14_d)">
<circle cx="1224" cy="589" r="35" fill="white"/>
<circle cx="1224" cy="589" r="32" stroke="#6200EE" stroke-width="6"/>
</g>
<g filter="url(#filter15_d)">
<circle cx="1429" cy="486" r="35" fill="white"/>
<circle cx="1429" cy="486" r="32" stroke="#ECECEC" stroke-width="6"/>
</g>
<path d="M1203.81 141.785C1203.2 142.59 1202.34 143.199 1201.25 143.613C1200.15 144.027 1198.91 144.234 1197.52 144.234C1196.09 144.234 1194.82 143.91 1193.72 143.262C1192.62 142.613 1191.77 141.688 1191.17 140.484C1190.57 139.273 1190.27 137.863 1190.24 136.254V134.918C1190.24 132.34 1190.86 130.328 1192.09 128.883C1193.33 127.43 1195.05 126.703 1197.26 126.703C1199.16 126.703 1200.67 127.172 1201.79 128.109C1202.9 129.047 1203.57 130.398 1203.8 132.164H1200.89C1200.57 130.109 1199.38 129.082 1197.32 129.082C1195.99 129.082 1194.98 129.562 1194.29 130.523C1193.6 131.477 1193.24 132.879 1193.22 134.73V136.043C1193.22 137.887 1193.61 139.32 1194.38 140.344C1195.16 141.359 1196.24 141.867 1197.62 141.867C1199.14 141.867 1200.22 141.523 1200.86 140.836V137.496H1197.34V135.246H1203.81V141.785ZM1209.82 144H1206.98V126H1209.82V144ZM1218.52 144.234C1216.71 144.234 1215.25 143.668 1214.12 142.535C1213.01 141.395 1212.45 139.879 1212.45 137.988V137.637C1212.45 136.371 1212.69 135.242 1213.18 134.25C1213.67 133.25 1214.36 132.473 1215.24 131.918C1216.12 131.363 1217.11 131.086 1218.19 131.086C1219.92 131.086 1221.25 131.637 1222.19 132.738C1223.13 133.84 1223.61 135.398 1223.61 137.414V138.562H1215.32C1215.41 139.609 1215.75 140.438 1216.36 141.047C1216.98 141.656 1217.75 141.961 1218.68 141.961C1219.99 141.961 1221.05 141.434 1221.87 140.379L1223.41 141.844C1222.9 142.602 1222.22 143.191 1221.37 143.613C1220.52 144.027 1219.57 144.234 1218.52 144.234ZM1218.18 133.371C1217.4 133.371 1216.77 133.645 1216.28 134.191C1215.8 134.738 1215.5 135.5 1215.37 136.477H1220.79V136.266C1220.73 135.312 1220.48 134.594 1220.03 134.109C1219.59 133.617 1218.97 133.371 1218.18 133.371ZM1228.86 144H1226.01V131.32H1228.86V144ZM1225.83 128.027C1225.83 127.59 1225.97 127.227 1226.24 126.938C1226.52 126.648 1226.92 126.504 1227.44 126.504C1227.95 126.504 1228.35 126.648 1228.63 126.938C1228.91 127.227 1229.05 127.59 1229.05 128.027C1229.05 128.457 1228.91 128.816 1228.63 129.105C1228.35 129.387 1227.95 129.527 1227.44 129.527C1226.92 129.527 1226.52 129.387 1226.24 129.105C1225.97 128.816 1225.83 128.457 1225.83 128.027ZM1237.18 141.961C1237.89 141.961 1238.48 141.754 1238.95 141.34C1239.41 140.926 1239.66 140.414 1239.7 139.805H1242.38C1242.35 140.594 1242.1 141.332 1241.64 142.02C1241.18 142.699 1240.55 143.238 1239.77 143.637C1238.98 144.035 1238.12 144.234 1237.21 144.234C1235.44 144.234 1234.03 143.66 1232.99 142.512C1231.95 141.363 1231.43 139.777 1231.43 137.754V137.461C1231.43 135.531 1231.95 133.988 1232.98 132.832C1234.01 131.668 1235.42 131.086 1237.2 131.086C1238.71 131.086 1239.93 131.527 1240.88 132.41C1241.83 133.285 1242.33 134.438 1242.38 135.867H1239.7C1239.66 135.141 1239.41 134.543 1238.95 134.074C1238.48 133.605 1237.89 133.371 1237.18 133.371C1236.25 133.371 1235.54 133.707 1235.04 134.379C1234.54 135.043 1234.29 136.055 1234.28 137.414V137.871C1234.28 139.246 1234.53 140.273 1235.02 140.953C1235.52 141.625 1236.24 141.961 1237.18 141.961ZM1247.34 132.703C1248.27 131.625 1249.44 131.086 1250.86 131.086C1253.57 131.086 1254.94 132.629 1254.98 135.715V144H1252.13V135.82C1252.13 134.945 1251.94 134.328 1251.55 133.969C1251.18 133.602 1250.62 133.418 1249.89 133.418C1248.75 133.418 1247.9 133.926 1247.34 134.941V144H1244.49V126H1247.34V132.703ZM1264.97 140.555C1264.97 140.047 1264.76 139.66 1264.34 139.395C1263.93 139.129 1263.23 138.895 1262.27 138.691C1261.3 138.488 1260.49 138.23 1259.84 137.918C1258.42 137.23 1257.71 136.234 1257.71 134.93C1257.71 133.836 1258.17 132.922 1259.09 132.188C1260.01 131.453 1261.18 131.086 1262.61 131.086C1264.12 131.086 1265.34 131.461 1266.27 132.211C1267.21 132.961 1267.68 133.934 1267.68 135.129H1264.83C1264.83 134.582 1264.63 134.129 1264.22 133.77C1263.82 133.402 1263.28 133.219 1262.61 133.219C1261.98 133.219 1261.47 133.363 1261.07 133.652C1260.68 133.941 1260.48 134.328 1260.48 134.812C1260.48 135.25 1260.67 135.59 1261.04 135.832C1261.4 136.074 1262.14 136.32 1263.26 136.57C1264.38 136.812 1265.25 137.105 1265.89 137.449C1266.53 137.785 1267 138.191 1267.3 138.668C1267.62 139.145 1267.77 139.723 1267.77 140.402C1267.77 141.543 1267.3 142.469 1266.36 143.18C1265.41 143.883 1264.17 144.234 1262.64 144.234C1261.6 144.234 1260.68 144.047 1259.86 143.672C1259.05 143.297 1258.42 142.781 1257.96 142.125C1257.51 141.469 1257.29 140.762 1257.29 140.004H1260.05C1260.09 140.676 1260.34 141.195 1260.81 141.562C1261.28 141.922 1261.9 142.102 1262.68 142.102C1263.43 142.102 1264 141.961 1264.39 141.68C1264.78 141.391 1264.97 141.016 1264.97 140.555ZM1275.85 144.234C1274.04 144.234 1272.58 143.668 1271.45 142.535C1270.34 141.395 1269.78 139.879 1269.78 137.988V137.637C1269.78 136.371 1270.02 135.242 1270.5 134.25C1271 133.25 1271.68 132.473 1272.57 131.918C1273.45 131.363 1274.43 131.086 1275.52 131.086C1277.25 131.086 1278.58 131.637 1279.52 132.738C1280.46 133.84 1280.93 135.398 1280.93 137.414V138.562H1272.65C1272.73 139.609 1273.08 140.438 1273.69 141.047C1274.31 141.656 1275.08 141.961 1276.01 141.961C1277.32 141.961 1278.38 141.434 1279.2 140.379L1280.73 141.844C1280.23 142.602 1279.55 143.191 1278.7 143.613C1277.85 144.027 1276.9 144.234 1275.85 144.234ZM1275.51 133.371C1274.73 133.371 1274.09 133.645 1273.61 134.191C1273.13 134.738 1272.83 135.5 1272.7 136.477H1278.12V136.266C1278.06 135.312 1277.8 134.594 1277.36 134.109C1276.91 133.617 1276.3 133.371 1275.51 133.371ZM1286.18 144H1283.34V131.32H1286.18V144ZM1283.16 128.027C1283.16 127.59 1283.3 127.227 1283.57 126.938C1283.85 126.648 1284.25 126.504 1284.77 126.504C1285.28 126.504 1285.68 126.648 1285.96 126.938C1286.24 127.227 1286.38 127.59 1286.38 128.027C1286.38 128.457 1286.24 128.816 1285.96 129.105C1285.68 129.387 1285.28 129.527 1284.77 129.527C1284.25 129.527 1283.85 129.387 1283.57 129.105C1283.3 128.816 1283.16 128.457 1283.16 128.027ZM1292.86 128.238V131.32H1295.1V133.43H1292.86V140.508C1292.86 140.992 1292.96 141.344 1293.14 141.562C1293.34 141.773 1293.68 141.879 1294.18 141.879C1294.5 141.879 1294.84 141.84 1295.17 141.762V143.965C1294.52 144.145 1293.9 144.234 1293.3 144.234C1291.11 144.234 1290.02 143.027 1290.02 140.613V133.43H1287.93V131.32H1290.02V128.238H1292.86ZM1296.79 137.566C1296.79 135.598 1297.25 134.027 1298.17 132.855C1299.1 131.676 1300.33 131.086 1301.86 131.086C1303.31 131.086 1304.45 131.59 1305.27 132.598L1305.4 131.32H1307.97V143.613C1307.97 145.277 1307.45 146.59 1306.41 147.551C1305.38 148.512 1303.98 148.992 1302.23 148.992C1301.3 148.992 1300.39 148.797 1299.5 148.406C1298.61 148.023 1297.94 147.52 1297.48 146.895L1298.83 145.184C1299.7 146.223 1300.78 146.742 1302.06 146.742C1303.01 146.742 1303.75 146.484 1304.3 145.969C1304.85 145.461 1305.12 144.711 1305.12 143.719V142.863C1304.3 143.777 1303.21 144.234 1301.84 144.234C1300.36 144.234 1299.14 143.645 1298.2 142.465C1297.26 141.285 1296.79 139.652 1296.79 137.566ZM1299.62 137.812C1299.62 139.086 1299.88 140.09 1300.4 140.824C1300.92 141.551 1301.64 141.914 1302.57 141.914C1303.71 141.914 1304.57 141.422 1305.12 140.438V134.859C1304.58 133.898 1303.74 133.418 1302.59 133.418C1301.65 133.418 1300.92 133.789 1300.4 134.531C1299.88 135.273 1299.62 136.367 1299.62 137.812ZM1316.49 144.234C1314.68 144.234 1313.22 143.668 1312.09 142.535C1310.98 141.395 1310.42 139.879 1310.42 137.988V137.637C1310.42 136.371 1310.66 135.242 1311.14 134.25C1311.64 133.25 1312.32 132.473 1313.21 131.918C1314.09 131.363 1315.07 131.086 1316.16 131.086C1317.89 131.086 1319.22 131.637 1320.16 132.738C1321.1 133.84 1321.57 135.398 1321.57 137.414V138.562H1313.29C1313.38 139.609 1313.72 140.438 1314.33 141.047C1314.95 141.656 1315.72 141.961 1316.65 141.961C1317.96 141.961 1319.02 141.434 1319.84 140.379L1321.38 141.844C1320.87 142.602 1320.19 143.191 1319.34 143.613C1318.49 144.027 1317.54 144.234 1316.49 144.234ZM1316.15 133.371C1315.37 133.371 1314.73 133.645 1314.25 134.191C1313.77 134.738 1313.47 135.5 1313.34 136.477H1318.76V136.266C1318.7 135.312 1318.45 134.594 1318 134.109C1317.55 133.617 1316.94 133.371 1316.15 133.371ZM1330.9 140.555C1330.9 140.047 1330.69 139.66 1330.27 139.395C1329.86 139.129 1329.16 138.895 1328.2 138.691C1327.23 138.488 1326.42 138.23 1325.77 137.918C1324.35 137.23 1323.64 136.234 1323.64 134.93C1323.64 133.836 1324.1 132.922 1325.02 132.188C1325.94 131.453 1327.11 131.086 1328.54 131.086C1330.05 131.086 1331.27 131.461 1332.2 132.211C1333.14 132.961 1333.61 133.934 1333.61 135.129H1330.76C1330.76 134.582 1330.56 134.129 1330.15 133.77C1329.75 133.402 1329.21 133.219 1328.54 133.219C1327.91 133.219 1327.4 133.363 1327 133.652C1326.61 133.941 1326.41 134.328 1326.41 134.812C1326.41 135.25 1326.6 135.59 1326.96 135.832C1327.33 136.074 1328.07 136.32 1329.19 136.57C1330.31 136.812 1331.18 137.105 1331.82 137.449C1332.46 137.785 1332.93 138.191 1333.23 138.668C1333.55 139.145 1333.7 139.723 1333.7 140.402C1333.7 141.543 1333.23 142.469 1332.29 143.18C1331.34 143.883 1330.1 144.234 1328.57 144.234C1327.53 144.234 1326.61 144.047 1325.79 143.672C1324.98 143.297 1324.35 142.781 1323.89 142.125C1323.44 141.469 1323.21 140.762 1323.21 140.004H1325.98C1326.02 140.676 1326.27 141.195 1326.74 141.562C1327.21 141.922 1327.83 142.102 1328.61 142.102C1329.36 142.102 1329.93 141.961 1330.32 141.68C1330.71 141.391 1330.9 141.016 1330.9 140.555ZM1342.45 144V126.938H1347.48C1348.99 126.938 1350.33 127.273 1351.49 127.945C1352.66 128.617 1353.57 129.57 1354.21 130.805C1354.85 132.039 1355.17 133.453 1355.17 135.047V135.902C1355.17 137.52 1354.85 138.941 1354.2 140.168C1353.56 141.395 1352.64 142.34 1351.45 143.004C1350.26 143.668 1348.89 144 1347.36 144H1342.45ZM1345.41 129.328V141.633H1347.34C1348.9 141.633 1350.09 141.148 1350.92 140.18C1351.75 139.203 1352.18 137.805 1352.2 135.984V135.035C1352.2 133.184 1351.79 131.77 1350.99 130.793C1350.18 129.816 1349.02 129.328 1347.48 129.328H1345.41ZM1364.49 133.922C1364.11 133.859 1363.73 133.828 1363.33 133.828C1362.02 133.828 1361.14 134.328 1360.69 135.328V144H1357.84V131.32H1360.56L1360.63 132.738C1361.32 131.637 1362.27 131.086 1363.49 131.086C1363.9 131.086 1364.23 131.141 1364.5 131.25L1364.49 133.922ZM1371.64 144.234C1369.83 144.234 1368.37 143.668 1367.24 142.535C1366.12 141.395 1365.57 139.879 1365.57 137.988V137.637C1365.57 136.371 1365.81 135.242 1366.29 134.25C1366.79 133.25 1367.47 132.473 1368.36 131.918C1369.24 131.363 1370.22 131.086 1371.31 131.086C1373.04 131.086 1374.37 131.637 1375.3 132.738C1376.25 133.84 1376.72 135.398 1376.72 137.414V138.562H1368.44C1368.52 139.609 1368.87 140.438 1369.48 141.047C1370.1 141.656 1370.87 141.961 1371.8 141.961C1373.11 141.961 1374.17 141.434 1374.99 140.379L1376.52 141.844C1376.02 142.602 1375.34 143.191 1374.48 143.613C1373.64 144.027 1372.69 144.234 1371.64 144.234ZM1371.3 133.371C1370.52 133.371 1369.88 133.645 1369.4 134.191C1368.92 134.738 1368.62 135.5 1368.48 136.477H1373.91V136.266C1373.85 135.312 1373.59 134.594 1373.15 134.109C1372.7 133.617 1372.09 133.371 1371.3 133.371ZM1381.97 144H1379.12V131.32H1381.97V144ZM1378.95 128.027C1378.95 127.59 1379.09 127.227 1379.36 126.938C1379.64 126.648 1380.04 126.504 1380.55 126.504C1381.07 126.504 1381.47 126.648 1381.75 126.938C1382.03 127.227 1382.17 127.59 1382.17 128.027C1382.17 128.457 1382.03 128.816 1381.75 129.105C1381.47 129.387 1381.07 129.527 1380.55 129.527C1380.04 129.527 1379.64 129.387 1379.36 129.105C1379.09 128.816 1378.95 128.457 1378.95 128.027ZM1390.29 141.961C1391 141.961 1391.59 141.754 1392.06 141.34C1392.53 140.926 1392.78 140.414 1392.81 139.805H1395.5C1395.46 140.594 1395.22 141.332 1394.76 142.02C1394.3 142.699 1393.67 143.238 1392.88 143.637C1392.09 144.035 1391.24 144.234 1390.33 144.234C1388.55 144.234 1387.15 143.66 1386.11 142.512C1385.07 141.363 1384.55 139.777 1384.55 137.754V137.461C1384.55 135.531 1385.07 133.988 1386.1 132.832C1387.13 131.668 1388.54 131.086 1390.32 131.086C1391.82 131.086 1393.05 131.527 1394 132.41C1394.95 133.285 1395.45 134.438 1395.5 135.867H1392.81C1392.78 135.141 1392.53 134.543 1392.06 134.074C1391.6 133.605 1391.01 133.371 1390.29 133.371C1389.37 133.371 1388.66 133.707 1388.16 134.379C1387.66 135.043 1387.41 136.055 1387.4 137.414V137.871C1387.4 139.246 1387.64 140.273 1388.14 140.953C1388.64 141.625 1389.36 141.961 1390.29 141.961ZM1401.77 138.562L1400.5 139.863V144H1397.65V126H1400.5V136.383L1401.39 135.27L1404.89 131.32H1408.32L1403.61 136.605L1408.82 144H1405.53L1401.77 138.562Z" fill="#444444"/>
<g filter="url(#filter16_d)">
<rect x="1240" y="180" width="119" height="52" rx="25" fill="#6200EE"/>
</g>
<path d="M1279.4 206.816C1279.4 209.27 1278.94 211.121 1278.02 212.371C1277.1 213.613 1275.71 214.234 1273.83 214.234C1271.99 214.234 1270.6 213.629 1269.66 212.418C1268.73 211.199 1268.25 209.398 1268.23 207.016V204.062C1268.23 201.609 1268.69 199.77 1269.6 198.543C1270.52 197.316 1271.93 196.703 1273.81 196.703C1275.68 196.703 1277.07 197.301 1277.98 198.496C1278.9 199.691 1279.38 201.48 1279.4 203.863V206.816ZM1276.55 203.629C1276.55 202.027 1276.33 200.855 1275.89 200.113C1275.46 199.363 1274.76 198.988 1273.81 198.988C1272.88 198.988 1272.2 199.344 1271.76 200.055C1271.32 200.758 1271.09 201.859 1271.07 203.359V207.227C1271.07 208.82 1271.29 210.008 1271.73 210.789C1272.18 211.57 1272.88 211.961 1273.83 211.961C1274.75 211.961 1275.42 211.602 1275.86 210.883C1276.3 210.156 1276.53 209.023 1276.55 207.484V203.629ZM1294.29 206.816C1294.29 209.27 1293.83 211.121 1292.91 212.371C1291.99 213.613 1290.6 214.234 1288.72 214.234C1286.88 214.234 1285.49 213.629 1284.55 212.418C1283.62 211.199 1283.14 209.398 1283.12 207.016V204.062C1283.12 201.609 1283.58 199.77 1284.49 198.543C1285.41 197.316 1286.82 196.703 1288.7 196.703C1290.57 196.703 1291.96 197.301 1292.87 198.496C1293.79 199.691 1294.27 201.48 1294.29 203.863V206.816ZM1291.44 203.629C1291.44 202.027 1291.22 200.855 1290.79 200.113C1290.35 199.363 1289.65 198.988 1288.7 198.988C1287.77 198.988 1287.09 199.344 1286.65 200.055C1286.21 200.758 1285.98 201.859 1285.96 203.359V207.227C1285.96 208.82 1286.18 210.008 1286.62 210.789C1287.07 211.57 1287.77 211.961 1288.72 211.961C1289.64 211.961 1290.31 211.602 1290.75 210.883C1291.19 210.156 1291.42 209.023 1291.44 207.484V203.629ZM1299.96 211C1300.49 211 1300.9 211.152 1301.19 211.457C1301.48 211.754 1301.62 212.129 1301.62 212.582C1301.62 213.027 1301.48 213.398 1301.19 213.695C1300.9 213.984 1300.49 214.129 1299.96 214.129C1299.45 214.129 1299.05 213.984 1298.75 213.695C1298.45 213.406 1298.3 213.035 1298.3 212.582C1298.3 212.129 1298.45 211.754 1298.74 211.457C1299.03 211.152 1299.43 211 1299.96 211ZM1299.96 201.051C1300.49 201.051 1300.9 201.203 1301.19 201.508C1301.48 201.805 1301.62 202.18 1301.62 202.633C1301.62 203.078 1301.48 203.449 1301.19 203.746C1300.9 204.035 1300.49 204.18 1299.96 204.18C1299.45 204.18 1299.05 204.035 1298.75 203.746C1298.45 203.457 1298.3 203.086 1298.3 202.633C1298.3 202.18 1298.45 201.805 1298.74 201.508C1299.03 201.203 1299.43 201.051 1299.96 201.051ZM1313.39 214H1310.56V200.301L1306.38 201.73V199.328L1313.03 196.879H1313.39V214ZM1323.87 204.168H1325.6C1326.48 204.16 1327.17 203.934 1327.68 203.488C1328.19 203.043 1328.45 202.398 1328.45 201.555C1328.45 200.742 1328.23 200.113 1327.8 199.668C1327.38 199.215 1326.73 198.988 1325.86 198.988C1325.09 198.988 1324.46 199.211 1323.97 199.656C1323.48 200.094 1323.23 200.668 1323.23 201.379H1320.39C1320.39 200.504 1320.62 199.707 1321.08 198.988C1321.55 198.27 1322.2 197.711 1323.02 197.312C1323.86 196.906 1324.79 196.703 1325.82 196.703C1327.53 196.703 1328.86 197.133 1329.83 197.992C1330.81 198.844 1331.3 200.031 1331.3 201.555C1331.3 202.32 1331.05 203.043 1330.56 203.723C1330.07 204.395 1329.45 204.902 1328.67 205.246C1329.61 205.566 1330.32 206.07 1330.8 206.758C1331.3 207.445 1331.54 208.266 1331.54 209.219C1331.54 210.75 1331.02 211.969 1329.96 212.875C1328.91 213.781 1327.54 214.234 1325.82 214.234C1324.18 214.234 1322.84 213.797 1321.79 212.922C1320.75 212.047 1320.22 210.883 1320.22 209.43H1323.07C1323.07 210.18 1323.32 210.789 1323.82 211.258C1324.33 211.727 1325.01 211.961 1325.86 211.961C1326.74 211.961 1327.44 211.727 1327.95 211.258C1328.45 210.789 1328.71 210.109 1328.71 209.219C1328.71 208.32 1328.44 207.629 1327.91 207.145C1327.38 206.66 1326.59 206.418 1325.54 206.418H1323.87V204.168Z" fill="white"/>
<g filter="url(#filter17_d)">
<circle cx="1451" cy="756" r="25" fill="white"/>
</g>
<g filter="url(#filter18_d)">
<circle cx="1378" cy="756" r="25" fill="white"/>
</g>
<path d="M1455.12 767.375H1457.54V764.958H1455.12V767.375ZM1459.96 752.875H1462.38V750.458H1459.96V752.875ZM1440.62 748.042V764.958C1440.62 766.288 1441.71 767.375 1443.04 767.375H1447.88V764.958H1443.04V748.042H1447.88V745.625H1443.04C1441.71 745.625 1440.62 746.713 1440.62 748.042ZM1459.96 745.625V748.042H1462.38C1462.38 746.713 1461.29 745.625 1459.96 745.625ZM1450.29 769.792H1452.71V743.208H1450.29V769.792ZM1459.96 762.542H1462.38V760.125H1459.96V762.542ZM1455.12 748.042H1457.54V745.625H1455.12V748.042ZM1459.96 757.708H1462.38V755.292H1459.96V757.708ZM1459.96 767.375C1461.29 767.375 1462.38 766.288 1462.38 764.958H1459.96V767.375Z" fill="#444444"/>
<path d="M1367.63 760.125V762.542H1370.04V760.125H1367.63ZM1382.13 764.958V767.375H1384.54V764.958H1382.13ZM1386.96 745.625H1370.04C1368.71 745.625 1367.63 746.712 1367.63 748.042V752.875H1370.04V748.042H1386.96V752.875H1389.38V748.042C1389.38 746.712 1388.29 745.625 1386.96 745.625ZM1389.38 764.958H1386.96V767.375C1388.29 767.375 1389.38 766.288 1389.38 764.958ZM1365.21 755.292V757.708H1391.79V755.292H1365.21ZM1372.46 764.958V767.375H1374.88V764.958H1372.46ZM1386.96 760.125V762.542H1389.38V760.125H1386.96ZM1377.29 764.958V767.375H1379.71V764.958H1377.29ZM1367.63 764.958C1367.63 766.288 1368.71 767.375 1370.04 767.375V764.958H1367.63Z" fill="#444444"/>
</g>
</g>
<defs>
<filter id="filter0_d" x="49" y="-56" width="1599" height="1017" filterUnits="userSpaceOnUse" color-interpolation-filters="sRGB">
<feFlood flood-opacity="0" result="BackgroundImageFix"/>
<feColorMatrix in="SourceAlpha" type="matrix" values="0 0 0 0 0 0 0 0 0 0 0 0 0 0 0 0 0 0 127 0"/>
<feOffset dy="4"/>
<feGaussianBlur stdDeviation="71.5"/>
<feColorMatrix type="matrix" values="0 0 0 0 0 0 0 0 0 0 0 0 0 0 0 0 0 0 0.2 0"/>
<feBlend mode="normal" in2="BackgroundImageFix" result="effect1_dropShadow"/>
<feBlend mode="normal" in="SourceGraphic" in2="effect1_dropShadow" result="shape"/>
</filter>
<filter id="filter1_d" x="704.244" y="319.023" width="153.513" height="304.954" filterUnits="userSpaceOnUse" color-interpolation-filters="sRGB">
<feFlood flood-opacity="0" result="BackgroundImageFix"/>
<feColorMatrix in="SourceAlpha" type="matrix" values="0 0 0 0 0 0 0 0 0 0 0 0 0 0 0 0 0 0 127 0"/>
<feOffset/>
<feGaussianBlur stdDeviation="2"/>
<feColorMatrix type="matrix" values="0 0 0 0 0.00416667 0 0 0 0 0.00416667 0 0 0 0 0.00416667 0 0 0 0.25 0"/>
<feBlend mode="normal" in2="BackgroundImageFix" result="effect1_dropShadow"/>
<feBlend mode="normal" in="SourceGraphic" in2="effect1_dropShadow" result="shape"/>
</filter>
<filter id="filter2_d" x="708.814" y="315.12" width="270.372" height="127.261" filterUnits="userSpaceOnUse" color-interpolation-filters="sRGB">
<feFlood flood-opacity="0" result="BackgroundImageFix"/>
<feColorMatrix in="SourceAlpha" type="matrix" values="0 0 0 0 0 0 0 0 0 0 0 0 0 0 0 0 0 0 127 0"/>
<feOffset/>
<feGaussianBlur stdDeviation="2"/>
<feColorMatrix type="matrix" values="0 0 0 0 0.00416667 0 0 0 0 0.00416667 0 0 0 0 0.00416667 0 0 0 0.25 0"/>
<feBlend mode="normal" in2="BackgroundImageFix" result="effect1_dropShadow"/>
<feBlend mode="normal" in="SourceGraphic" in2="effect1_dropShadow" result="shape"/>
</filter>
<filter id="filter3_d" x="837.893" y="421.838" width="145.214" height="204.825" filterUnits="userSpaceOnUse" color-interpolation-filters="sRGB">
<feFlood flood-opacity="0" result="BackgroundImageFix"/>
<feColorMatrix in="SourceAlpha" type="matrix" values="0 0 0 0 0 0 0 0 0 0 0 0 0 0 0 0 0 0 127 0"/>
<feOffset/>
<feGaussianBlur stdDeviation="2"/>
<feColorMatrix type="matrix" values="0 0 0 0 0 0 0 0 0 0 0 0 0 0 0 0 0 0 0.25 0"/>
<feBlend mode="normal" in2="BackgroundImageFix" result="effect1_dropShadow"/>
<feBlend mode="normal" in="SourceGraphic" in2="effect1_dropShadow" result="shape"/>
</filter>
<filter id="filter4_d" x="672" y="281" width="90" height="90" filterUnits="userSpaceOnUse" color-interpolation-filters="sRGB">
<feFlood flood-opacity="0" result="BackgroundImageFix"/>
<feColorMatrix in="SourceAlpha" type="matrix" values="0 0 0 0 0 0 0 0 0 0 0 0 0 0 0 0 0 0 127 0"/>
<feOffset/>
<feGaussianBlur stdDeviation="5"/>
<feColorMatrix type="matrix" values="0 0 0 0 0 0 0 0 0 0 0 0 0 0 0 0 0 0 0.5 0"/>
<feBlend mode="normal" in2="BackgroundImageFix" result="effect1_dropShadow"/>
<feBlend mode="normal" in="SourceGraphic" in2="effect1_dropShadow" result="shape"/>
</filter>
<filter id="filter5_d" x="804" y="570" width="90" height="90" filterUnits="userSpaceOnUse" color-interpolation-filters="sRGB">
<feFlood flood-opacity="0" result="BackgroundImageFix"/>
<feColorMatrix in="SourceAlpha" type="matrix" values="0 0 0 0 0 0 0 0 0 0 0 0 0 0 0 0 0 0 127 0"/>
<feOffset/>
<feGaussianBlur stdDeviation="5"/>
<feColorMatrix type="matrix" values="0 0 0 0 0 0 0 0 0 0 0 0 0 0 0 0 0 0 0.5 0"/>
<feBlend mode="normal" in2="BackgroundImageFix" result="effect1_dropShadow"/>
<feBlend mode="normal" in="SourceGraphic" in2="effect1_dropShadow" result="shape"/>
</filter>
<filter id="filter6_d" x="930" y="383" width="90" height="90" filterUnits="userSpaceOnUse" color-interpolation-filters="sRGB">
<feFlood flood-opacity="0" result="BackgroundImageFix"/>
<feColorMatrix in="SourceAlpha" type="matrix" values="0 0 0 0 0 0 0 0 0 0 0 0 0 0 0 0 0 0 127 0"/>
<feOffset/>
<feGaussianBlur stdDeviation="5"/>
<feColorMatrix type="matrix" values="0 0 0 0 0 0 0 0 0 0 0 0 0 0 0 0 0 0 0.5 0"/>
<feBlend mode="normal" in2="BackgroundImageFix" result="effect1_dropShadow"/>
<feBlend mode="normal" in="SourceGraphic" in2="effect1_dropShadow" result="shape"/>
</filter>
<filter id="filter7_d" x="785" y="176" width="127" height="60" filterUnits="userSpaceOnUse" color-interpolation-filters="sRGB">
<feFlood flood-opacity="0" result="BackgroundImageFix"/>
<feColorMatrix in="SourceAlpha" type="matrix" values="0 0 0 0 0 0 0 0 0 0 0 0 0 0 0 0 0 0 127 0"/>
<feOffset/>
<feGaussianBlur stdDeviation="2"/>
<feColorMatrix type="matrix" values="0 0 0 0 0 0 0 0 0 0 0 0 0 0 0 0 0 0 0.25 0"/>
<feBlend mode="normal" in2="BackgroundImageFix" result="effect1_dropShadow"/>
<feBlend mode="normal" in="SourceGraphic" in2="effect1_dropShadow" result="shape"/>
</filter>
<filter id="filter8_d" x="969" y="726" width="62" height="62" filterUnits="userSpaceOnUse" color-interpolation-filters="sRGB">
<feFlood flood-opacity="0" result="BackgroundImageFix"/>
<feColorMatrix in="SourceAlpha" type="matrix" values="0 0 0 0 0 0 0 0 0 0 0 0 0 0 0 0 0 0 127 0"/>
<feOffset dy="1"/>
<feGaussianBlur stdDeviation="3"/>
<feColorMatrix type="matrix" values="0 0 0 0 0 0 0 0 0 0 0 0 0 0 0 0 0 0 0.25 0"/>
<feBlend mode="normal" in2="BackgroundImageFix" result="effect1_dropShadow"/>
<feBlend mode="normal" in="SourceGraphic" in2="effect1_dropShadow" result="shape"/>
</filter>
<filter id="filter9_d" x="896" y="726" width="62" height="62" filterUnits="userSpaceOnUse" color-interpolation-filters="sRGB">
<feFlood flood-opacity="0" result="BackgroundImageFix"/>
<feColorMatrix in="SourceAlpha" type="matrix" values="0 0 0 0 0 0 0 0 0 0 0 0 0 0 0 0 0 0 127 0"/>
<feOffset dy="1"/>
<feGaussianBlur stdDeviation="3"/>
<feColorMatrix type="matrix" values="0 0 0 0 0 0 0 0 0 0 0 0 0 0 0 0 0 0 0.25 0"/>
<feBlend mode="normal" in2="BackgroundImageFix" result="effect1_dropShadow"/>
<feBlend mode="normal" in="SourceGraphic" in2="effect1_dropShadow" result="shape"/>
</filter>
<filter id="filter10_d" x="1157.75" y="378.443" width="75.9948" height="218.614" filterUnits="userSpaceOnUse" color-interpolation-filters="sRGB">
<feFlood flood-opacity="0" result="BackgroundImageFix"/>
<feColorMatrix in="SourceAlpha" type="matrix" values="0 0 0 0 0 0 0 0 0 0 0 0 0 0 0 0 0 0 127 0"/>
<feOffset/>
<feGaussianBlur stdDeviation="2"/>
<feColorMatrix type="matrix" values="0 0 0 0 0.00416667 0 0 0 0 0.00416667 0 0 0 0 0.00416667 0 0 0 0.25 0"/>
<feBlend mode="normal" in2="BackgroundImageFix" result="effect1_dropShadow"/>
<feBlend mode="normal" in="SourceGraphic" in2="effect1_dropShadow" result="shape"/>
</filter>
<filter id="filter11_d" x="1162.81" y="373.12" width="270.372" height="127.261" filterUnits="userSpaceOnUse" color-interpolation-filters="sRGB">
<feFlood flood-opacity="0" result="BackgroundImageFix"/>
<feColorMatrix in="SourceAlpha" type="matrix" values="0 0 0 0 0 0 0 0 0 0 0 0 0 0 0 0 0 0 127 0"/>
<feOffset/>
<feGaussianBlur stdDeviation="2"/>
<feColorMatrix type="matrix" values="0 0 0 0 0.00416667 0 0 0 0 0.00416667 0 0 0 0 0.00416667 0 0 0 0.25 0"/>
<feBlend mode="normal" in2="BackgroundImageFix" result="effect1_dropShadow"/>
<feBlend mode="normal" in="SourceGraphic" in2="effect1_dropShadow" result="shape"/>
</filter>
<filter id="filter12_d" x="1215.21" y="476.89" width="218.573" height="124.22" filterUnits="userSpaceOnUse" color-interpolation-filters="sRGB">
<feFlood flood-opacity="0" result="BackgroundImageFix"/>
<feColorMatrix in="SourceAlpha" type="matrix" values="0 0 0 0 0 0 0 0 0 0 0 0 0 0 0 0 0 0 127 0"/>
<feOffset/>
<feGaussianBlur stdDeviation="2"/>
<feColorMatrix type="matrix" values="0 0 0 0 0 0 0 0 0 0 0 0 0 0 0 0 0 0 0.25 0"/>
<feBlend mode="normal" in2="BackgroundImageFix" result="effect1_dropShadow"/>
<feBlend mode="normal" in="SourceGraphic" in2="effect1_dropShadow" result="shape"/>
</filter>
<filter id="filter13_d" x="1126" y="339" width="90" height="90" filterUnits="userSpaceOnUse" color-interpolation-filters="sRGB">
<feFlood flood-opacity="0" result="BackgroundImageFix"/>
<feColorMatrix in="SourceAlpha" type="matrix" values="0 0 0 0 0 0 0 0 0 0 0 0 0 0 0 0 0 0 127 0"/>
<feOffset/>
<feGaussianBlur stdDeviation="5"/>
<feColorMatrix type="matrix" values="0 0 0 0 0 0 0 0 0 0 0 0 0 0 0 0 0 0 0.5 0"/>
<feBlend mode="normal" in2="BackgroundImageFix" result="effect1_dropShadow"/>
<feBlend mode="normal" in="SourceGraphic" in2="effect1_dropShadow" result="shape"/>
</filter>
<filter id="filter14_d" x="1179" y="544" width="90" height="90" filterUnits="userSpaceOnUse" color-interpolation-filters="sRGB">
<feFlood flood-opacity="0" result="BackgroundImageFix"/>
<feColorMatrix in="SourceAlpha" type="matrix" values="0 0 0 0 0 0 0 0 0 0 0 0 0 0 0 0 0 0 127 0"/>
<feOffset/>
<feGaussianBlur stdDeviation="5"/>
<feColorMatrix type="matrix" values="0 0 0 0 0 0 0 0 0 0 0 0 0 0 0 0 0 0 0.5 0"/>
<feBlend mode="normal" in2="BackgroundImageFix" result="effect1_dropShadow"/>
<feBlend mode="normal" in="SourceGraphic" in2="effect1_dropShadow" result="shape"/>
</filter>
<filter id="filter15_d" x="1384" y="441" width="90" height="90" filterUnits="userSpaceOnUse" color-interpolation-filters="sRGB">
<feFlood flood-opacity="0" result="BackgroundImageFix"/>
<feColorMatrix in="SourceAlpha" type="matrix" values="0 0 0 0 0 0 0 0 0 0 0 0 0 0 0 0 0 0 127 0"/>
<feOffset/>
<feGaussianBlur stdDeviation="5"/>
<feColorMatrix type="matrix" values="0 0 0 0 0 0 0 0 0 0 0 0 0 0 0 0 0 0 0.5 0"/>
<feBlend mode="normal" in2="BackgroundImageFix" result="effect1_dropShadow"/>
<feBlend mode="normal" in="SourceGraphic" in2="effect1_dropShadow" result="shape"/>
</filter>
<filter id="filter16_d" x="1236" y="176" width="127" height="60" filterUnits="userSpaceOnUse" color-interpolation-filters="sRGB">
<feFlood flood-opacity="0" result="BackgroundImageFix"/>
<feColorMatrix in="SourceAlpha" type="matrix" values="0 0 0 0 0 0 0 0 0 0 0 0 0 0 0 0 0 0 127 0"/>
<feOffset/>
<feGaussianBlur stdDeviation="2"/>
<feColorMatrix type="matrix" values="0 0 0 0 0 0 0 0 0 0 0 0 0 0 0 0 0 0 0.25 0"/>
<feBlend mode="normal" in2="BackgroundImageFix" result="effect1_dropShadow"/>
<feBlend mode="normal" in="SourceGraphic" in2="effect1_dropShadow" result="shape"/>
</filter>
<filter id="filter17_d" x="1420" y="726" width="62" height="62" filterUnits="userSpaceOnUse" color-interpolation-filters="sRGB">
<feFlood flood-opacity="0" result="BackgroundImageFix"/>
<feColorMatrix in="SourceAlpha" type="matrix" values="0 0 0 0 0 0 0 0 0 0 0 0 0 0 0 0 0 0 127 0"/>
<feOffset dy="1"/>
<feGaussianBlur stdDeviation="3"/>
<feColorMatrix type="matrix" values="0 0 0 0 0 0 0 0 0 0 0 0 0 0 0 0 0 0 0.25 0"/>
<feBlend mode="normal" in2="BackgroundImageFix" result="effect1_dropShadow"/>
<feBlend mode="normal" in="SourceGraphic" in2="effect1_dropShadow" result="shape"/>
</filter>
<filter id="filter18_d" x="1347" y="726" width="62" height="62" filterUnits="userSpaceOnUse" color-interpolation-filters="sRGB">
<feFlood flood-opacity="0" result="BackgroundImageFix"/>
<feColorMatrix in="SourceAlpha" type="matrix" values="0 0 0 0 0 0 0 0 0 0 0 0 0 0 0 0 0 0 127 0"/>
<feOffset dy="1"/>
<feGaussianBlur stdDeviation="3"/>
<feColorMatrix type="matrix" values="0 0 0 0 0 0 0 0 0 0 0 0 0 0 0 0 0 0 0.25 0"/>
<feBlend mode="normal" in2="BackgroundImageFix" result="effect1_dropShadow"/>
<feBlend mode="normal" in="SourceGraphic" in2="effect1_dropShadow" result="shape"/>
</filter>
<radialGradient id="paint0_radial" cx="0" cy="0" r="1" gradientUnits="userSpaceOnUse" gradientTransform="translate(1915 1143) rotate(-153.319) scale(1881.88 3560.25)">
<stop stop-color="#FAFAFA"/>
<stop offset="1" stop-color="#F3F3F3"/>
</radialGradient>
<clipPath id="clip0">
<rect width="1697" height="897" fill="white"/>
</clipPath>
</defs>
</svg>
