<svg width="1188" height="350" viewBox="0 0 1188 350" fill="none" xmlns="http://www.w3.org/2000/svg">
<path d="M242.143 140.244V134.18C242.143 132.539 241.949 131.092 241.562 129.838C241.176 128.572 240.631 127.506 239.928 126.639C239.201 125.783 238.322 125.139 237.291 124.705C236.271 124.26 235.111 124.037 233.811 124.037C232.521 124.037 231.361 124.26 230.33 124.705C229.311 125.139 228.443 125.783 227.729 126.639C227.014 127.506 226.463 128.572 226.076 129.838C225.701 131.092 225.514 132.539 225.514 134.18V140.244C225.514 141.885 225.701 143.338 226.076 144.604C226.463 145.857 227.02 146.912 227.746 147.768C228.461 148.623 229.334 149.273 230.365 149.719C231.396 150.152 232.557 150.369 233.846 150.369C235.146 150.369 236.307 150.152 237.326 149.719C238.357 149.273 239.225 148.623 239.928 147.768C240.643 146.912 241.188 145.857 241.562 144.604C241.949 143.338 242.143 141.885 242.143 140.244ZM229.732 138.75C229.732 138.41 229.732 138.123 229.732 137.889C229.732 137.654 229.732 137.314 229.732 136.869V133.424C229.732 132.369 229.826 131.455 230.014 130.682C230.201 129.896 230.488 129.258 230.875 128.766C231.203 128.332 231.613 128.004 232.105 127.781C232.598 127.559 233.166 127.447 233.811 127.447C234.42 127.447 234.959 127.541 235.428 127.729C235.896 127.916 236.295 128.197 236.623 128.572C236.998 128.994 237.285 129.539 237.484 130.207C237.695 130.875 237.824 131.666 237.871 132.58L229.732 138.75ZM237.906 140.947C237.906 142.025 237.812 142.963 237.625 143.76C237.438 144.557 237.145 145.201 236.746 145.693C236.406 146.115 235.996 146.438 235.516 146.66C235.035 146.871 234.479 146.977 233.846 146.977C233.201 146.977 232.633 146.865 232.141 146.643C231.66 146.42 231.256 146.086 230.928 145.641C230.6 145.23 230.336 144.715 230.137 144.094C229.949 143.473 229.826 142.758 229.768 141.949L237.906 135.814C237.906 136.154 237.906 136.482 237.906 136.799C237.906 137.104 237.906 137.408 237.906 137.713V140.947Z" fill="#3E2D4A"/>
<path d="M348.02 150V146.607H336.102L341.797 140.525C342.547 139.729 343.238 138.955 343.871 138.205C344.516 137.455 345.072 136.711 345.541 135.973C345.998 135.234 346.355 134.49 346.613 133.74C346.883 132.979 347.018 132.193 347.018 131.385C347.018 130.307 346.842 129.322 346.49 128.432C346.139 127.529 345.629 126.756 344.961 126.111C344.281 125.467 343.443 124.963 342.447 124.6C341.463 124.236 340.344 124.055 339.09 124.055C337.754 124.055 336.541 124.271 335.451 124.705C334.373 125.139 333.459 125.725 332.709 126.463C331.947 127.201 331.361 128.068 330.951 129.064C330.541 130.049 330.336 131.098 330.336 132.211H334.555C334.555 131.473 334.648 130.816 334.836 130.242C335.023 129.656 335.305 129.164 335.68 128.766C336.043 128.367 336.5 128.062 337.051 127.852C337.602 127.641 338.252 127.535 339.002 127.535C339.588 127.535 340.115 127.635 340.584 127.834C341.064 128.033 341.475 128.309 341.814 128.66C342.154 129.012 342.412 129.434 342.588 129.926C342.764 130.418 342.852 130.963 342.852 131.561C342.852 132.006 342.787 132.451 342.658 132.896C342.541 133.33 342.342 133.799 342.061 134.303C341.768 134.807 341.387 135.363 340.918 135.973C340.449 136.57 339.869 137.25 339.178 138.012L330.846 147.082V150H348.02Z" fill="#3E2D4A"/>
<path d="M430.098 150V124.406H429.834L419.305 128.309V132.018L425.861 129.609V150H430.098ZM445.584 147.469C445.584 148.277 445.848 148.963 446.375 149.525C446.914 150.076 447.664 150.352 448.625 150.352C449.574 150.352 450.318 150.076 450.857 149.525C451.408 148.975 451.684 148.289 451.684 147.469C451.684 146.648 451.414 145.957 450.875 145.395C450.336 144.82 449.586 144.533 448.625 144.533C447.652 144.533 446.902 144.82 446.375 145.395C445.848 145.969 445.584 146.66 445.584 147.469ZM462.6 137.309L465.957 138.135C466.18 137.924 466.408 137.73 466.643 137.555C466.889 137.367 467.158 137.203 467.451 137.062C467.732 136.934 468.055 136.828 468.418 136.746C468.793 136.664 469.232 136.623 469.736 136.623C470.498 136.623 471.166 136.752 471.74 137.01C472.314 137.256 472.795 137.607 473.182 138.064C473.568 138.521 473.855 139.061 474.043 139.682C474.242 140.291 474.342 140.965 474.342 141.703C474.342 142.465 474.26 143.174 474.096 143.83C473.932 144.475 473.68 145.025 473.34 145.482C473 145.951 472.572 146.314 472.057 146.572C471.541 146.83 470.932 146.959 470.229 146.959C469.033 146.959 468.049 146.625 467.275 145.957C466.514 145.289 466.057 144.328 465.904 143.074H461.809C461.879 144.258 462.154 145.307 462.635 146.221C463.127 147.123 463.754 147.879 464.516 148.488C465.277 149.109 466.15 149.578 467.135 149.895C468.119 150.199 469.15 150.352 470.229 150.352C471.646 150.352 472.877 150.129 473.92 149.684C474.963 149.238 475.824 148.629 476.504 147.855C477.195 147.082 477.705 146.18 478.033 145.148C478.373 144.105 478.543 142.998 478.543 141.826C478.543 140.502 478.367 139.312 478.016 138.258C477.664 137.191 477.154 136.289 476.486 135.551C475.83 134.801 475.021 134.227 474.061 133.828C473.111 133.43 472.033 133.23 470.826 133.23C469.936 133.23 469.145 133.342 468.453 133.564C467.773 133.787 467.223 134.021 466.801 134.268L467.469 128.133H477.734V124.406H463.988L462.6 137.309Z" fill="#3E2D4A"/>
<path d="M322.098 290V264.406H321.834L311.305 268.309V272.018L317.861 269.609V290H322.098ZM337.584 287.469C337.584 288.277 337.848 288.963 338.375 289.525C338.914 290.076 339.664 290.352 340.625 290.352C341.574 290.352 342.318 290.076 342.857 289.525C343.408 288.975 343.684 288.289 343.684 287.469C343.684 286.648 343.414 285.957 342.875 285.395C342.336 284.82 341.586 284.533 340.625 284.533C339.652 284.533 338.902 284.82 338.375 285.395C337.848 285.969 337.584 286.66 337.584 287.469ZM354.6 277.309L357.957 278.135C358.18 277.924 358.408 277.73 358.643 277.555C358.889 277.367 359.158 277.203 359.451 277.062C359.732 276.934 360.055 276.828 360.418 276.746C360.793 276.664 361.232 276.623 361.736 276.623C362.498 276.623 363.166 276.752 363.74 277.01C364.314 277.256 364.795 277.607 365.182 278.064C365.568 278.521 365.855 279.061 366.043 279.682C366.242 280.291 366.342 280.965 366.342 281.703C366.342 282.465 366.26 283.174 366.096 283.83C365.932 284.475 365.68 285.025 365.34 285.482C365 285.951 364.572 286.314 364.057 286.572C363.541 286.83 362.932 286.959 362.229 286.959C361.033 286.959 360.049 286.625 359.275 285.957C358.514 285.289 358.057 284.328 357.904 283.074H353.809C353.879 284.258 354.154 285.307 354.635 286.221C355.127 287.123 355.754 287.879 356.516 288.488C357.277 289.109 358.15 289.578 359.135 289.895C360.119 290.199 361.15 290.352 362.229 290.352C363.646 290.352 364.877 290.129 365.92 289.684C366.963 289.238 367.824 288.629 368.504 287.855C369.195 287.082 369.705 286.18 370.033 285.148C370.373 284.105 370.543 282.998 370.543 281.826C370.543 280.502 370.367 279.312 370.016 278.258C369.664 277.191 369.154 276.289 368.486 275.551C367.83 274.801 367.021 274.227 366.061 273.828C365.111 273.43 364.033 273.23 362.826 273.23C361.936 273.23 361.145 273.342 360.453 273.564C359.773 273.787 359.223 274.021 358.801 274.268L359.469 268.133H369.734V264.406H355.988L354.6 277.309Z" fill="#3E2D4A"/>
<path d="M216.098 290V264.406H215.834L205.305 268.309V272.018L211.861 269.609V290H216.098ZM231.584 287.469C231.584 288.277 231.848 288.963 232.375 289.525C232.914 290.076 233.664 290.352 234.625 290.352C235.574 290.352 236.318 290.076 236.857 289.525C237.408 288.975 237.684 288.289 237.684 287.469C237.684 286.648 237.414 285.957 236.875 285.395C236.336 284.82 235.586 284.533 234.625 284.533C233.652 284.533 232.902 284.82 232.375 285.395C231.848 285.969 231.584 286.66 231.584 287.469ZM248.6 277.309L251.957 278.135C252.18 277.924 252.408 277.73 252.643 277.555C252.889 277.367 253.158 277.203 253.451 277.062C253.732 276.934 254.055 276.828 254.418 276.746C254.793 276.664 255.232 276.623 255.736 276.623C256.498 276.623 257.166 276.752 257.74 277.01C258.314 277.256 258.795 277.607 259.182 278.064C259.568 278.521 259.855 279.061 260.043 279.682C260.242 280.291 260.342 280.965 260.342 281.703C260.342 282.465 260.26 283.174 260.096 283.83C259.932 284.475 259.68 285.025 259.34 285.482C259 285.951 258.572 286.314 258.057 286.572C257.541 286.83 256.932 286.959 256.229 286.959C255.033 286.959 254.049 286.625 253.275 285.957C252.514 285.289 252.057 284.328 251.904 283.074H247.809C247.879 284.258 248.154 285.307 248.635 286.221C249.127 287.123 249.754 287.879 250.516 288.488C251.277 289.109 252.15 289.578 253.135 289.895C254.119 290.199 255.15 290.352 256.229 290.352C257.646 290.352 258.877 290.129 259.92 289.684C260.963 289.238 261.824 288.629 262.504 287.855C263.195 287.082 263.705 286.18 264.033 285.148C264.373 284.105 264.543 282.998 264.543 281.826C264.543 280.502 264.367 279.312 264.016 278.258C263.664 277.191 263.154 276.289 262.486 275.551C261.83 274.801 261.021 274.227 260.061 273.828C259.111 273.43 258.033 273.23 256.826 273.23C255.936 273.23 255.145 273.342 254.453 273.564C253.773 273.787 253.223 274.021 252.801 274.268L253.469 268.133H263.734V264.406H249.988L248.6 277.309Z" fill="#3E2D4A"/>
<path d="M242.02 220V216.607H230.102L235.797 210.525C236.547 209.729 237.238 208.955 237.871 208.205C238.516 207.455 239.072 206.711 239.541 205.973C239.998 205.234 240.355 204.49 240.613 203.74C240.883 202.979 241.018 202.193 241.018 201.385C241.018 200.307 240.842 199.322 240.49 198.432C240.139 197.529 239.629 196.756 238.961 196.111C238.281 195.467 237.443 194.963 236.447 194.6C235.463 194.236 234.344 194.055 233.09 194.055C231.754 194.055 230.541 194.271 229.451 194.705C228.373 195.139 227.459 195.725 226.709 196.463C225.947 197.201 225.361 198.068 224.951 199.064C224.541 200.049 224.336 201.098 224.336 202.211H228.555C228.555 201.473 228.648 200.816 228.836 200.242C229.023 199.656 229.305 199.164 229.68 198.766C230.043 198.367 230.5 198.062 231.051 197.852C231.602 197.641 232.252 197.535 233.002 197.535C233.588 197.535 234.115 197.635 234.584 197.834C235.064 198.033 235.475 198.309 235.814 198.66C236.154 199.012 236.412 199.434 236.588 199.926C236.764 200.418 236.852 200.963 236.852 201.561C236.852 202.006 236.787 202.451 236.658 202.896C236.541 203.33 236.342 203.799 236.061 204.303C235.768 204.807 235.387 205.363 234.918 205.973C234.449 206.57 233.869 207.25 233.178 208.012L224.846 217.082V220H242.02Z" fill="#3E2D4A"/>
<path d="M348.143 210.244V204.18C348.143 202.539 347.949 201.092 347.562 199.838C347.176 198.572 346.631 197.506 345.928 196.639C345.201 195.783 344.322 195.139 343.291 194.705C342.271 194.26 341.111 194.037 339.811 194.037C338.521 194.037 337.361 194.26 336.33 194.705C335.311 195.139 334.443 195.783 333.729 196.639C333.014 197.506 332.463 198.572 332.076 199.838C331.701 201.092 331.514 202.539 331.514 204.18V210.244C331.514 211.885 331.701 213.338 332.076 214.604C332.463 215.857 333.02 216.912 333.746 217.768C334.461 218.623 335.334 219.273 336.365 219.719C337.396 220.152 338.557 220.369 339.846 220.369C341.146 220.369 342.307 220.152 343.326 219.719C344.357 219.273 345.225 218.623 345.928 217.768C346.643 216.912 347.188 215.857 347.562 214.604C347.949 213.338 348.143 211.885 348.143 210.244ZM335.732 208.75C335.732 208.41 335.732 208.123 335.732 207.889C335.732 207.654 335.732 207.314 335.732 206.869V203.424C335.732 202.369 335.826 201.455 336.014 200.682C336.201 199.896 336.488 199.258 336.875 198.766C337.203 198.332 337.613 198.004 338.105 197.781C338.598 197.559 339.166 197.447 339.811 197.447C340.42 197.447 340.959 197.541 341.428 197.729C341.896 197.916 342.295 198.197 342.623 198.572C342.998 198.994 343.285 199.539 343.484 200.207C343.695 200.875 343.824 201.666 343.871 202.58L335.732 208.75ZM343.906 210.947C343.906 212.025 343.812 212.963 343.625 213.76C343.438 214.557 343.145 215.201 342.746 215.693C342.406 216.115 341.996 216.438 341.516 216.66C341.035 216.871 340.479 216.977 339.846 216.977C339.201 216.977 338.633 216.865 338.141 216.643C337.66 216.42 337.256 216.086 336.928 215.641C336.6 215.23 336.336 214.715 336.137 214.094C335.949 213.473 335.826 212.758 335.768 211.949L343.906 205.814C343.906 206.154 343.906 206.482 343.906 206.799C343.906 207.104 343.906 207.408 343.906 207.713V210.947Z" fill="#3E2D4A"/>
<path d="M456.143 280.244V274.18C456.143 272.539 455.949 271.092 455.562 269.838C455.176 268.572 454.631 267.506 453.928 266.639C453.201 265.783 452.322 265.139 451.291 264.705C450.271 264.26 449.111 264.037 447.811 264.037C446.521 264.037 445.361 264.26 444.33 264.705C443.311 265.139 442.443 265.783 441.729 266.639C441.014 267.506 440.463 268.572 440.076 269.838C439.701 271.092 439.514 272.539 439.514 274.18V280.244C439.514 281.885 439.701 283.338 440.076 284.604C440.463 285.857 441.02 286.912 441.746 287.768C442.461 288.623 443.334 289.273 444.365 289.719C445.396 290.152 446.557 290.369 447.846 290.369C449.146 290.369 450.307 290.152 451.326 289.719C452.357 289.273 453.225 288.623 453.928 287.768C454.643 286.912 455.188 285.857 455.562 284.604C455.949 283.338 456.143 281.885 456.143 280.244ZM443.732 278.75C443.732 278.41 443.732 278.123 443.732 277.889C443.732 277.654 443.732 277.314 443.732 276.869V273.424C443.732 272.369 443.826 271.455 444.014 270.682C444.201 269.896 444.488 269.258 444.875 268.766C445.203 268.332 445.613 268.004 446.105 267.781C446.598 267.559 447.166 267.447 447.811 267.447C448.42 267.447 448.959 267.541 449.428 267.729C449.896 267.916 450.295 268.197 450.623 268.572C450.998 268.994 451.285 269.539 451.484 270.207C451.695 270.875 451.824 271.666 451.871 272.58L443.732 278.75ZM451.906 280.947C451.906 282.025 451.812 282.963 451.625 283.76C451.438 284.557 451.145 285.201 450.746 285.693C450.406 286.115 449.996 286.438 449.516 286.66C449.035 286.871 448.479 286.977 447.846 286.977C447.201 286.977 446.633 286.865 446.141 286.643C445.66 286.42 445.256 286.086 444.928 285.641C444.6 285.23 444.336 284.715 444.137 284.094C443.949 283.473 443.826 282.758 443.768 281.949L451.906 275.814C451.906 276.154 451.906 276.482 451.906 276.799C451.906 277.104 451.906 277.408 451.906 277.713V280.947Z" fill="#3E2D4A"/>
<path d="M430.098 220V194.406H429.834L419.305 198.309V202.018L425.861 199.609V220H430.098ZM445.584 217.469C445.584 218.277 445.848 218.963 446.375 219.525C446.914 220.076 447.664 220.352 448.625 220.352C449.574 220.352 450.318 220.076 450.857 219.525C451.408 218.975 451.684 218.289 451.684 217.469C451.684 216.648 451.414 215.957 450.875 215.395C450.336 214.82 449.586 214.533 448.625 214.533C447.652 214.533 446.902 214.82 446.375 215.395C445.848 215.969 445.584 216.66 445.584 217.469ZM462.6 207.309L465.957 208.135C466.18 207.924 466.408 207.73 466.643 207.555C466.889 207.367 467.158 207.203 467.451 207.062C467.732 206.934 468.055 206.828 468.418 206.746C468.793 206.664 469.232 206.623 469.736 206.623C470.498 206.623 471.166 206.752 471.74 207.01C472.314 207.256 472.795 207.607 473.182 208.064C473.568 208.521 473.855 209.061 474.043 209.682C474.242 210.291 474.342 210.965 474.342 211.703C474.342 212.465 474.26 213.174 474.096 213.83C473.932 214.475 473.68 215.025 473.34 215.482C473 215.951 472.572 216.314 472.057 216.572C471.541 216.83 470.932 216.959 470.229 216.959C469.033 216.959 468.049 216.625 467.275 215.957C466.514 215.289 466.057 214.328 465.904 213.074H461.809C461.879 214.258 462.154 215.307 462.635 216.221C463.127 217.123 463.754 217.879 464.516 218.488C465.277 219.109 466.15 219.578 467.135 219.895C468.119 220.199 469.15 220.352 470.229 220.352C471.646 220.352 472.877 220.129 473.92 219.684C474.963 219.238 475.824 218.629 476.504 217.855C477.195 217.082 477.705 216.18 478.033 215.148C478.373 214.105 478.543 212.998 478.543 211.826C478.543 210.502 478.367 209.312 478.016 208.258C477.664 207.191 477.154 206.289 476.486 205.551C475.83 204.801 475.021 204.227 474.061 203.828C473.111 203.43 472.033 203.23 470.826 203.23C469.936 203.23 469.145 203.342 468.453 203.564C467.773 203.787 467.223 204.021 466.801 204.268L467.469 198.133H477.734V194.406H463.988L462.6 207.309Z" fill="#3E2D4A"/>
<path d="M236.047 81.1113L237.77 87H242.146L233.955 61.4062H230.211L221.879 87H226.273L228.014 81.1113H236.047ZM229.086 77.4902L232.074 67.3652L235.01 77.4902H229.086Z" fill="#FF7D7C"/>
<path d="M161.047 144.111L162.77 150H167.146L158.955 124.406H155.211L146.879 150H151.273L153.014 144.111H161.047ZM154.086 140.49L157.074 130.365L160.01 140.49H154.086Z" fill="#FF7D7C"/>
<path d="M331.584 87H340.443C341.709 87 342.881 86.8418 343.959 86.5254C345.049 86.1973 345.986 85.7168 346.771 85.084C347.557 84.4629 348.172 83.6895 348.617 82.7637C349.062 81.8379 349.279 80.7656 349.268 79.5469C349.268 78.8555 349.168 78.1992 348.969 77.5781C348.781 76.9453 348.5 76.3711 348.125 75.8555C347.762 75.375 347.311 74.9473 346.771 74.5723C346.232 74.1855 345.582 73.8926 344.82 73.6934V73.6582C345.336 73.4473 345.787 73.2129 346.174 72.9551C346.572 72.6855 346.93 72.375 347.246 72.0234C347.691 71.543 348.031 70.9922 348.266 70.3711C348.512 69.7383 348.641 69.0586 348.652 68.332C348.652 67.1367 348.424 66.1055 347.967 65.2383C347.521 64.3594 346.9 63.6387 346.104 63.0762C345.307 62.5137 344.363 62.0977 343.273 61.8281C342.184 61.5469 341.018 61.4062 339.775 61.4062H331.584V87ZM335.838 75.4336H340.689C341.381 75.4453 341.996 75.5508 342.535 75.75C343.074 75.9375 343.531 76.207 343.906 76.5586C344.281 76.9102 344.562 77.3379 344.75 77.8418C344.938 78.334 345.031 78.9023 345.031 79.5469C345.031 80.1562 344.914 80.7129 344.68 81.2168C344.457 81.709 344.135 82.125 343.713 82.4648C343.326 82.793 342.857 83.0508 342.307 83.2383C341.756 83.4258 341.146 83.5195 340.479 83.5195H335.838V75.4336ZM335.838 72.2168V64.9043H339.828C340.555 64.916 341.217 65.0039 341.814 65.168C342.412 65.3203 342.91 65.5723 343.309 65.9238C343.66 66.2051 343.93 66.5684 344.117 67.0137C344.316 67.4473 344.416 67.9629 344.416 68.5605C344.416 69.123 344.311 69.6211 344.1 70.0547C343.889 70.4883 343.602 70.8574 343.238 71.1621C342.84 71.502 342.348 71.7598 341.762 71.9355C341.188 72.1113 340.555 72.2051 339.863 72.2168H335.838Z" fill="#FF7D7C"/>
<path d="M148.584 220H157.443C158.709 220 159.881 219.842 160.959 219.525C162.049 219.197 162.986 218.717 163.771 218.084C164.557 217.463 165.172 216.689 165.617 215.764C166.062 214.838 166.279 213.766 166.268 212.547C166.268 211.855 166.168 211.199 165.969 210.578C165.781 209.945 165.5 209.371 165.125 208.855C164.762 208.375 164.311 207.947 163.771 207.572C163.232 207.186 162.582 206.893 161.82 206.693V206.658C162.336 206.447 162.787 206.213 163.174 205.955C163.572 205.686 163.93 205.375 164.246 205.023C164.691 204.543 165.031 203.992 165.266 203.371C165.512 202.738 165.641 202.059 165.652 201.332C165.652 200.137 165.424 199.105 164.967 198.238C164.521 197.359 163.9 196.639 163.104 196.076C162.307 195.514 161.363 195.098 160.273 194.828C159.184 194.547 158.018 194.406 156.775 194.406H148.584V220ZM152.838 208.434H157.689C158.381 208.445 158.996 208.551 159.535 208.75C160.074 208.938 160.531 209.207 160.906 209.559C161.281 209.91 161.562 210.338 161.75 210.842C161.938 211.334 162.031 211.902 162.031 212.547C162.031 213.156 161.914 213.713 161.68 214.217C161.457 214.709 161.135 215.125 160.713 215.465C160.326 215.793 159.857 216.051 159.307 216.238C158.756 216.426 158.146 216.52 157.479 216.52H152.838V208.434ZM152.838 205.217V197.904H156.828C157.555 197.916 158.217 198.004 158.814 198.168C159.412 198.32 159.91 198.572 160.309 198.924C160.66 199.205 160.93 199.568 161.117 200.014C161.316 200.447 161.416 200.963 161.416 201.561C161.416 202.123 161.311 202.621 161.1 203.055C160.889 203.488 160.602 203.857 160.238 204.162C159.84 204.502 159.348 204.76 158.762 204.936C158.188 205.111 157.555 205.205 156.863 205.217H152.838Z" fill="#FF7D7C"/>
<path d="M454.898 79.125H450.662C450.592 79.8984 450.439 80.584 450.205 81.1816C449.971 81.7793 449.66 82.2773 449.273 82.6758C448.875 83.0859 448.395 83.3965 447.832 83.6074C447.27 83.8184 446.625 83.9238 445.898 83.9238C445.289 83.9238 444.744 83.8418 444.264 83.6777C443.795 83.502 443.379 83.25 443.016 82.9219C442.664 82.6172 442.359 82.2539 442.102 81.832C441.855 81.4102 441.65 80.9414 441.486 80.4258C441.275 79.8047 441.117 79.1191 441.012 78.3691C440.918 77.6191 440.871 76.8164 440.871 75.9609V72.4277C440.871 71.7363 440.906 71.0625 440.977 70.4062C441.059 69.7383 441.176 69.1113 441.328 68.5254C441.527 67.8574 441.779 67.2539 442.084 66.7148C442.4 66.1641 442.787 65.7129 443.244 65.3613C443.596 65.0918 443.988 64.8809 444.422 64.7285C444.867 64.5762 445.365 64.5 445.916 64.5C446.701 64.5 447.375 64.6172 447.938 64.8516C448.5 65.0742 448.975 65.4023 449.361 65.8359C449.736 66.2695 450.029 66.7969 450.24 67.418C450.463 68.0273 450.609 68.7129 450.68 69.4746H454.898C454.77 68.1973 454.482 67.0371 454.037 65.9941C453.604 64.9512 453.006 64.0605 452.244 63.3223C451.494 62.5957 450.586 62.0332 449.52 61.6348C448.465 61.2363 447.264 61.0371 445.916 61.0371C444.92 61.0371 444 61.1719 443.156 61.4414C442.324 61.7109 441.562 62.0859 440.871 62.5664C440.145 63.0938 439.5 63.7324 438.938 64.4824C438.387 65.2207 437.936 66.0469 437.584 66.9609C437.256 67.7812 437.01 68.6543 436.846 69.5801C436.682 70.5059 436.6 71.4668 436.6 72.4629V75.9609C436.6 77.0039 436.688 78.0059 436.863 78.9668C437.039 79.9277 437.291 80.8184 437.619 81.6387C437.959 82.4707 438.375 83.2383 438.867 83.9414C439.371 84.6328 439.957 85.2246 440.625 85.7168C441.316 86.2441 442.102 86.6543 442.98 86.9473C443.871 87.2285 444.844 87.3691 445.898 87.3691C447.188 87.3691 448.359 87.1758 449.414 86.7891C450.48 86.3906 451.4 85.8281 452.174 85.1016C452.936 84.3867 453.551 83.5254 454.02 82.5176C454.488 81.498 454.781 80.3672 454.898 79.125Z" fill="#FF7D7C"/>
<path d="M165.898 282.125H161.662C161.592 282.898 161.439 283.584 161.205 284.182C160.971 284.779 160.66 285.277 160.273 285.676C159.875 286.086 159.395 286.396 158.832 286.607C158.27 286.818 157.625 286.924 156.898 286.924C156.289 286.924 155.744 286.842 155.264 286.678C154.795 286.502 154.379 286.25 154.016 285.922C153.664 285.617 153.359 285.254 153.102 284.832C152.855 284.41 152.65 283.941 152.486 283.426C152.275 282.805 152.117 282.119 152.012 281.369C151.918 280.619 151.871 279.816 151.871 278.961V275.428C151.871 274.736 151.906 274.062 151.977 273.406C152.059 272.738 152.176 272.111 152.328 271.525C152.527 270.857 152.779 270.254 153.084 269.715C153.4 269.164 153.787 268.713 154.244 268.361C154.596 268.092 154.988 267.881 155.422 267.729C155.867 267.576 156.365 267.5 156.916 267.5C157.701 267.5 158.375 267.617 158.938 267.852C159.5 268.074 159.975 268.402 160.361 268.836C160.736 269.27 161.029 269.797 161.24 270.418C161.463 271.027 161.609 271.713 161.68 272.475H165.898C165.77 271.197 165.482 270.037 165.037 268.994C164.604 267.951 164.006 267.061 163.244 266.322C162.494 265.596 161.586 265.033 160.52 264.635C159.465 264.236 158.264 264.037 156.916 264.037C155.92 264.037 155 264.172 154.156 264.441C153.324 264.711 152.562 265.086 151.871 265.566C151.145 266.094 150.5 266.732 149.938 267.482C149.387 268.221 148.936 269.047 148.584 269.961C148.256 270.781 148.01 271.654 147.846 272.58C147.682 273.506 147.6 274.467 147.6 275.463V278.961C147.6 280.004 147.688 281.006 147.863 281.967C148.039 282.928 148.291 283.818 148.619 284.639C148.959 285.471 149.375 286.238 149.867 286.941C150.371 287.633 150.957 288.225 151.625 288.717C152.316 289.244 153.102 289.654 153.98 289.947C154.871 290.229 155.844 290.369 156.898 290.369C158.188 290.369 159.359 290.176 160.414 289.789C161.48 289.391 162.4 288.828 163.174 288.102C163.936 287.387 164.551 286.525 165.02 285.518C165.488 284.498 165.781 283.367 165.898 282.125Z" fill="#FF7D7C"/>
<path d="M886.898 59.125H882.662C882.592 59.8984 882.439 60.584 882.205 61.1816C881.971 61.7793 881.66 62.2773 881.273 62.6758C880.875 63.0859 880.395 63.3965 879.832 63.6074C879.27 63.8184 878.625 63.9238 877.898 63.9238C877.289 63.9238 876.744 63.8418 876.264 63.6777C875.795 63.502 875.379 63.25 875.016 62.9219C874.664 62.6172 874.359 62.2539 874.102 61.832C873.855 61.4102 873.65 60.9414 873.486 60.4258C873.275 59.8047 873.117 59.1191 873.012 58.3691C872.918 57.6191 872.871 56.8164 872.871 55.9609V52.4277C872.871 51.7363 872.906 51.0625 872.977 50.4062C873.059 49.7383 873.176 49.1113 873.328 48.5254C873.527 47.8574 873.779 47.2539 874.084 46.7148C874.4 46.1641 874.787 45.7129 875.244 45.3613C875.596 45.0918 875.988 44.8809 876.422 44.7285C876.867 44.5762 877.365 44.5 877.916 44.5C878.701 44.5 879.375 44.6172 879.938 44.8516C880.5 45.0742 880.975 45.4023 881.361 45.8359C881.736 46.2695 882.029 46.7969 882.24 47.418C882.463 48.0273 882.609 48.7129 882.68 49.4746H886.898C886.77 48.1973 886.482 47.0371 886.037 45.9941C885.604 44.9512 885.006 44.0605 884.244 43.3223C883.494 42.5957 882.586 42.0332 881.52 41.6348C880.465 41.2363 879.264 41.0371 877.916 41.0371C876.92 41.0371 876 41.1719 875.156 41.4414C874.324 41.7109 873.562 42.0859 872.871 42.5664C872.145 43.0938 871.5 43.7324 870.938 44.4824C870.387 45.2207 869.936 46.0469 869.584 46.9609C869.256 47.7812 869.01 48.6543 868.846 49.5801C868.682 50.5059 868.6 51.4668 868.6 52.4629V55.9609C868.6 57.0039 868.688 58.0059 868.863 58.9668C869.039 59.9277 869.291 60.8184 869.619 61.6387C869.959 62.4707 870.375 63.2383 870.867 63.9414C871.371 64.6328 871.957 65.2246 872.625 65.7168C873.316 66.2441 874.102 66.6543 874.98 66.9473C875.871 67.2285 876.844 67.3691 877.898 67.3691C879.188 67.3691 880.359 67.1758 881.414 66.7891C882.48 66.3906 883.4 65.8281 884.174 65.1016C884.936 64.3867 885.551 63.5254 886.02 62.5176C886.488 61.498 886.781 60.3672 886.898 59.125Z" fill="#FF7D7C"/>
<path d="M738.047 307.111L739.77 313H744.146L735.955 287.406H732.211L723.879 313H728.273L730.014 307.111H738.047ZM731.086 303.49L734.074 293.365L737.01 303.49H731.086Z" fill="#FF7D7C"/>
<path d="M866.393 308H869.967V307.751C869.771 307.341 869.62 306.853 869.513 306.286C869.415 305.71 869.366 305.065 869.366 304.353V297.307C869.366 296.408 869.2 295.617 868.868 294.934C868.536 294.24 868.077 293.669 867.491 293.22C866.905 292.771 866.207 292.434 865.396 292.209C864.596 291.975 863.731 291.857 862.804 291.857C861.769 291.857 860.846 291.994 860.035 292.268C859.234 292.531 858.556 292.893 857.999 293.352C857.442 293.801 857.018 294.318 856.725 294.904C856.432 295.49 856.28 296.101 856.271 296.735H859.786C859.786 296.433 859.84 296.149 859.947 295.886C860.064 295.612 860.24 295.383 860.475 295.197C860.709 294.992 861.002 294.831 861.354 294.714C861.715 294.597 862.135 294.538 862.613 294.538C863.141 294.538 863.604 294.606 864.005 294.743C864.415 294.87 864.762 295.056 865.045 295.3C865.309 295.544 865.509 295.832 865.646 296.164C865.792 296.496 865.865 296.867 865.865 297.277V298.347H863.316C862.174 298.347 861.148 298.454 860.24 298.669C859.342 298.884 858.585 299.196 857.97 299.606C857.306 300.046 856.798 300.603 856.446 301.276C856.104 301.94 855.934 302.707 855.934 303.576C855.934 304.25 856.065 304.88 856.329 305.466C856.603 306.042 856.979 306.535 857.457 306.945C857.945 307.365 858.526 307.697 859.2 307.941C859.884 308.176 860.636 308.293 861.456 308.293C861.964 308.293 862.438 308.244 862.877 308.146C863.316 308.049 863.727 307.912 864.107 307.736C864.488 307.57 864.83 307.375 865.133 307.15C865.445 306.916 865.724 306.672 865.968 306.418C866.017 306.721 866.07 307.014 866.129 307.297C866.197 307.57 866.285 307.805 866.393 308ZM862.13 305.48C861.681 305.48 861.29 305.427 860.958 305.319C860.626 305.202 860.348 305.046 860.123 304.851C859.898 304.655 859.728 304.421 859.61 304.147C859.493 303.864 859.435 303.562 859.435 303.239C859.435 302.849 859.503 302.497 859.64 302.185C859.786 301.872 860.006 301.604 860.299 301.379C860.631 301.115 861.075 300.915 861.632 300.778C862.188 300.632 862.848 300.559 863.609 300.559H865.865V303.488C865.738 303.742 865.558 303.986 865.323 304.221C865.089 304.455 864.811 304.665 864.488 304.851C864.166 305.036 863.805 305.188 863.404 305.305C863.014 305.422 862.589 305.48 862.13 305.48ZM887.955 297.116V294.187H874.42V297.116H887.955ZM887.955 303.327V300.412H874.42V303.327H887.955ZM905.885 308V305.173H895.953L900.699 300.104C901.324 299.44 901.9 298.796 902.428 298.171C902.965 297.546 903.429 296.926 903.819 296.311C904.2 295.695 904.498 295.075 904.713 294.45C904.938 293.815 905.05 293.161 905.05 292.487C905.05 291.589 904.903 290.769 904.61 290.026C904.317 289.274 903.893 288.63 903.336 288.093C902.77 287.556 902.071 287.136 901.241 286.833C900.421 286.53 899.488 286.379 898.443 286.379C897.33 286.379 896.319 286.56 895.411 286.921C894.513 287.282 893.751 287.771 893.126 288.386C892.491 289.001 892.003 289.724 891.661 290.554C891.319 291.374 891.148 292.248 891.148 293.176H894.664C894.664 292.561 894.742 292.014 894.898 291.535C895.055 291.047 895.289 290.637 895.602 290.305C895.904 289.973 896.285 289.719 896.744 289.543C897.203 289.367 897.745 289.279 898.37 289.279C898.858 289.279 899.298 289.362 899.688 289.528C900.089 289.694 900.431 289.924 900.714 290.217C900.997 290.51 901.212 290.861 901.358 291.271C901.505 291.682 901.578 292.136 901.578 292.634C901.578 293.005 901.524 293.376 901.417 293.747C901.319 294.108 901.153 294.499 900.919 294.919C900.675 295.339 900.357 295.803 899.967 296.311C899.576 296.809 899.093 297.375 898.517 298.01L891.573 305.568V308H905.885Z" fill="#3E2D4A"/>
<path d="M982.201 173.236V172.929C982.201 172.03 982.118 171.181 981.952 170.38C981.796 169.579 981.562 168.852 981.249 168.197C981.015 167.729 980.741 167.299 980.429 166.908C980.126 166.508 979.779 166.171 979.389 165.897C978.93 165.565 978.412 165.312 977.836 165.136C977.27 164.95 976.645 164.857 975.961 164.857C975.443 164.857 974.96 164.911 974.511 165.019C974.071 165.116 973.666 165.268 973.295 165.473C973.012 165.629 972.748 165.81 972.504 166.015C972.26 166.22 972.035 166.449 971.83 166.703V158.5H968.329V181H971.493L971.654 179.271C971.83 179.486 972.011 179.687 972.196 179.872C972.392 180.048 972.597 180.214 972.812 180.37C973.231 180.673 973.705 180.902 974.232 181.059C974.76 181.215 975.346 181.293 975.99 181.293C976.625 181.293 977.211 181.21 977.748 181.044C978.295 180.888 978.788 180.663 979.228 180.37C979.774 180.009 980.243 179.555 980.634 179.008C981.024 178.461 981.337 177.851 981.571 177.177C981.776 176.61 981.933 175.995 982.04 175.331C982.147 174.667 982.201 173.969 982.201 173.236ZM978.7 172.929V173.236C978.7 173.676 978.676 174.101 978.627 174.511C978.578 174.921 978.505 175.302 978.407 175.653C978.29 176.122 978.119 176.547 977.895 176.928C977.68 177.299 977.401 177.606 977.06 177.851C976.806 178.026 976.518 178.168 976.195 178.275C975.873 178.373 975.512 178.422 975.111 178.422C974.672 178.422 974.271 178.368 973.91 178.261C973.559 178.144 973.246 177.987 972.973 177.792C972.729 177.606 972.509 177.396 972.313 177.162C972.128 176.918 971.967 176.649 971.83 176.356V169.794C971.947 169.54 972.084 169.306 972.24 169.091C972.406 168.866 972.592 168.671 972.797 168.505C973.08 168.261 973.412 168.075 973.793 167.948C974.174 167.812 974.604 167.743 975.082 167.743C975.473 167.743 975.824 167.787 976.137 167.875C976.449 167.963 976.728 168.095 976.972 168.271C977.343 168.524 977.636 168.837 977.851 169.208C978.075 169.569 978.256 169.975 978.393 170.424C978.49 170.795 978.563 171.195 978.612 171.625C978.671 172.045 978.7 172.479 978.7 172.929ZM999.955 170.116V167.187H986.42V170.116H999.955ZM999.955 176.327V173.412H986.42V176.327H999.955ZM1013.78 181V159.672H1013.56L1004.79 162.924V166.015L1010.25 164.008V181H1013.78ZM1026.69 178.891C1026.69 179.564 1026.91 180.136 1027.35 180.604C1027.8 181.063 1028.42 181.293 1029.22 181.293C1030.01 181.293 1030.63 181.063 1031.08 180.604C1031.54 180.146 1031.77 179.574 1031.77 178.891C1031.77 178.207 1031.55 177.631 1031.1 177.162C1030.65 176.684 1030.02 176.444 1029.22 176.444C1028.41 176.444 1027.79 176.684 1027.35 177.162C1026.91 177.641 1026.69 178.217 1026.69 178.891ZM1040.87 170.424L1043.67 171.112C1043.85 170.937 1044.04 170.775 1044.24 170.629C1044.44 170.473 1044.67 170.336 1044.91 170.219C1045.15 170.111 1045.41 170.023 1045.72 169.955C1046.03 169.887 1046.4 169.853 1046.82 169.853C1047.45 169.853 1048.01 169.96 1048.49 170.175C1048.96 170.38 1049.36 170.673 1049.69 171.054C1050.01 171.435 1050.25 171.884 1050.4 172.401C1050.57 172.909 1050.65 173.471 1050.65 174.086C1050.65 174.721 1050.58 175.312 1050.45 175.858C1050.31 176.396 1050.1 176.854 1049.82 177.235C1049.54 177.626 1049.18 177.929 1048.75 178.144C1048.32 178.358 1047.81 178.466 1047.23 178.466C1046.23 178.466 1045.41 178.188 1044.76 177.631C1044.13 177.074 1043.75 176.273 1043.62 175.229H1040.21C1040.27 176.215 1040.5 177.089 1040.9 177.851C1041.31 178.603 1041.83 179.232 1042.46 179.74C1043.1 180.258 1043.83 180.648 1044.65 180.912C1045.47 181.166 1046.33 181.293 1047.23 181.293C1048.41 181.293 1049.43 181.107 1050.3 180.736C1051.17 180.365 1051.89 179.857 1052.46 179.213C1053.03 178.568 1053.46 177.816 1053.73 176.957C1054.01 176.088 1054.15 175.165 1054.15 174.188C1054.15 173.085 1054.01 172.094 1053.71 171.215C1053.42 170.326 1053 169.574 1052.44 168.959C1051.89 168.334 1051.22 167.855 1050.42 167.523C1049.63 167.191 1048.73 167.025 1047.72 167.025C1046.98 167.025 1046.32 167.118 1045.75 167.304C1045.18 167.489 1044.72 167.685 1044.37 167.89L1044.93 162.777H1053.48V159.672H1042.03L1040.87 170.424Z" fill="#3E2D4A"/>
<path d="M711.17 178.48C710.438 178.48 709.827 178.334 709.339 178.041C708.851 177.748 708.465 177.362 708.182 176.884C707.889 176.405 707.679 175.858 707.552 175.243C707.435 174.618 707.376 173.983 707.376 173.339V172.826C707.376 172.191 707.435 171.566 707.552 170.951C707.679 170.336 707.889 169.789 708.182 169.311C708.475 168.832 708.86 168.446 709.339 168.153C709.827 167.851 710.438 167.699 711.17 167.699C711.648 167.699 712.093 167.782 712.503 167.948C712.923 168.114 713.284 168.339 713.587 168.622C713.88 168.905 714.104 169.237 714.261 169.618C714.427 169.999 714.51 170.404 714.51 170.834H717.806C717.815 169.955 717.654 169.149 717.322 168.417C717 167.685 716.546 167.055 715.96 166.527C715.374 166 714.671 165.59 713.851 165.297C713.04 165.004 712.156 164.857 711.199 164.857C709.988 164.857 708.924 165.072 708.006 165.502C707.098 165.922 706.336 166.493 705.721 167.216C705.105 167.938 704.642 168.783 704.329 169.75C704.026 170.717 703.875 171.742 703.875 172.826V173.339C703.875 174.433 704.031 175.463 704.344 176.43C704.656 177.387 705.115 178.227 705.721 178.949C706.336 179.672 707.098 180.248 708.006 180.678C708.924 181.098 709.993 181.308 711.214 181.308C712.093 181.308 712.928 181.166 713.719 180.883C714.52 180.59 715.228 180.194 715.843 179.696C716.448 179.198 716.927 178.612 717.278 177.938C717.64 177.255 717.815 176.527 717.806 175.756H714.51C714.51 176.156 714.417 176.522 714.231 176.854C714.056 177.187 713.816 177.475 713.514 177.719C713.201 177.963 712.84 178.153 712.43 178.29C712.029 178.417 711.609 178.48 711.17 178.48ZM735.955 170.116V167.187H722.42V170.116H735.955ZM735.955 176.327V173.412H722.42V176.327H735.955ZM749.783 181V159.672H749.563L740.789 162.924V166.015L746.253 164.008V181H749.783ZM762.688 178.891C762.688 179.564 762.908 180.136 763.348 180.604C763.797 181.063 764.422 181.293 765.223 181.293C766.014 181.293 766.634 181.063 767.083 180.604C767.542 180.146 767.771 179.574 767.771 178.891C767.771 178.207 767.547 177.631 767.098 177.162C766.648 176.684 766.023 176.444 765.223 176.444C764.412 176.444 763.787 176.684 763.348 177.162C762.908 177.641 762.688 178.217 762.688 178.891ZM776.868 170.424L779.666 171.112C779.852 170.937 780.042 170.775 780.237 170.629C780.442 170.473 780.667 170.336 780.911 170.219C781.146 170.111 781.414 170.023 781.717 169.955C782.029 169.887 782.396 169.853 782.815 169.853C783.45 169.853 784.007 169.96 784.485 170.175C784.964 170.38 785.364 170.673 785.687 171.054C786.009 171.435 786.248 171.884 786.404 172.401C786.57 172.909 786.653 173.471 786.653 174.086C786.653 174.721 786.585 175.312 786.448 175.858C786.312 176.396 786.102 176.854 785.818 177.235C785.535 177.626 785.179 177.929 784.749 178.144C784.319 178.358 783.812 178.466 783.226 178.466C782.229 178.466 781.409 178.188 780.765 177.631C780.13 177.074 779.749 176.273 779.622 175.229H776.209C776.268 176.215 776.497 177.089 776.897 177.851C777.308 178.603 777.83 179.232 778.465 179.74C779.1 180.258 779.827 180.648 780.647 180.912C781.468 181.166 782.327 181.293 783.226 181.293C784.407 181.293 785.433 181.107 786.302 180.736C787.171 180.365 787.889 179.857 788.455 179.213C789.031 178.568 789.456 177.816 789.729 176.957C790.013 176.088 790.154 175.165 790.154 174.188C790.154 173.085 790.008 172.094 789.715 171.215C789.422 170.326 788.997 169.574 788.44 168.959C787.894 168.334 787.22 167.855 786.419 167.523C785.628 167.191 784.729 167.025 783.724 167.025C782.981 167.025 782.322 167.118 781.746 167.304C781.18 167.489 780.721 167.685 780.369 167.89L780.926 162.777H789.48V159.672H778.025L776.868 170.424Z" fill="#3E2D4A"/>
<path d="M1016.58 313H1025.44C1026.71 313 1027.88 312.842 1028.96 312.525C1030.05 312.197 1030.99 311.717 1031.77 311.084C1032.56 310.463 1033.17 309.689 1033.62 308.764C1034.06 307.838 1034.28 306.766 1034.27 305.547C1034.27 304.855 1034.17 304.199 1033.97 303.578C1033.78 302.945 1033.5 302.371 1033.12 301.855C1032.76 301.375 1032.31 300.947 1031.77 300.572C1031.23 300.186 1030.58 299.893 1029.82 299.693V299.658C1030.34 299.447 1030.79 299.213 1031.17 298.955C1031.57 298.686 1031.93 298.375 1032.25 298.023C1032.69 297.543 1033.03 296.992 1033.27 296.371C1033.51 295.738 1033.64 295.059 1033.65 294.332C1033.65 293.137 1033.42 292.105 1032.97 291.238C1032.52 290.359 1031.9 289.639 1031.1 289.076C1030.31 288.514 1029.36 288.098 1028.27 287.828C1027.18 287.547 1026.02 287.406 1024.78 287.406H1016.58V313ZM1020.84 301.434H1025.69C1026.38 301.445 1027 301.551 1027.54 301.75C1028.07 301.938 1028.53 302.207 1028.91 302.559C1029.28 302.91 1029.56 303.338 1029.75 303.842C1029.94 304.334 1030.03 304.902 1030.03 305.547C1030.03 306.156 1029.91 306.713 1029.68 307.217C1029.46 307.709 1029.13 308.125 1028.71 308.465C1028.33 308.793 1027.86 309.051 1027.31 309.238C1026.76 309.426 1026.15 309.52 1025.48 309.52H1020.84V301.434ZM1020.84 298.217V290.904H1024.83C1025.55 290.916 1026.22 291.004 1026.81 291.168C1027.41 291.32 1027.91 291.572 1028.31 291.924C1028.66 292.205 1028.93 292.568 1029.12 293.014C1029.32 293.447 1029.42 293.963 1029.42 294.561C1029.42 295.123 1029.31 295.621 1029.1 296.055C1028.89 296.488 1028.6 296.857 1028.24 297.162C1027.84 297.502 1027.35 297.76 1026.76 297.936C1026.19 298.111 1025.55 298.205 1024.86 298.217H1020.84Z" fill="#FF7D7C"/>
<path d="M760.752 255.75L880 103.672L999.248 255.75H760.752Z" stroke="#3E2D4A" stroke-width="7"/>
</svg>
