<svg width="1188" height="395" viewBox="0 0 1188 395" fill="none" xmlns="http://www.w3.org/2000/svg">
<g clip-path="url(#clip0)">
<path d="M250.417 343.376L361.268 151.376L472.119 343.376H250.417Z" stroke="#3E2D4A" stroke-width="11"/>
<path d="M385.521 140.111L387.244 146H391.621L383.429 120.406H379.685L371.353 146H375.748L377.488 140.111H385.521ZM378.56 136.49L381.548 126.365L384.484 136.49H378.56Z" fill="#FF7D7C"/>
<path d="M362.572 130V104.406H362.308L351.779 108.309V112.018L358.335 109.609V130H362.572Z" fill="#3E2D4A"/>
<path d="M231.494 386V382.607H219.576L225.271 376.525C226.021 375.729 226.712 374.955 227.345 374.205C227.99 373.455 228.546 372.711 229.015 371.973C229.472 371.234 229.83 370.49 230.087 369.74C230.357 368.979 230.492 368.193 230.492 367.385C230.492 366.307 230.316 365.322 229.964 364.432C229.613 363.529 229.103 362.756 228.435 362.111C227.755 361.467 226.917 360.963 225.921 360.6C224.937 360.236 223.818 360.055 222.564 360.055C221.228 360.055 220.015 360.271 218.925 360.705C217.847 361.139 216.933 361.725 216.183 362.463C215.421 363.201 214.835 364.068 214.425 365.064C214.015 366.049 213.81 367.098 213.81 368.211H218.029C218.029 367.473 218.123 366.816 218.31 366.242C218.498 365.656 218.779 365.164 219.154 364.766C219.517 364.367 219.974 364.062 220.525 363.852C221.076 363.641 221.726 363.535 222.476 363.535C223.062 363.535 223.589 363.635 224.058 363.834C224.539 364.033 224.949 364.309 225.289 364.66C225.628 365.012 225.886 365.434 226.062 365.926C226.238 366.418 226.326 366.963 226.326 367.561C226.326 368.006 226.261 368.451 226.132 368.896C226.015 369.33 225.816 369.799 225.535 370.303C225.242 370.807 224.861 371.363 224.392 371.973C223.923 372.57 223.343 373.25 222.652 374.012L214.32 383.082V386H231.494Z" fill="#3E2D4A"/>
<path d="M494.646 371.305V374.609H497.16C497.886 374.609 498.542 374.697 499.128 374.873C499.726 375.037 500.236 375.289 500.658 375.629C501.08 375.98 501.402 376.42 501.625 376.947C501.847 377.475 501.958 378.107 501.958 378.846C501.958 379.502 501.859 380.088 501.66 380.604C501.472 381.107 501.197 381.529 500.833 381.869C500.458 382.232 499.996 382.508 499.445 382.695C498.906 382.871 498.296 382.959 497.617 382.959C496.984 382.959 496.404 382.865 495.876 382.678C495.361 382.49 494.916 382.227 494.541 381.887C494.154 381.559 493.855 381.16 493.644 380.691C493.445 380.211 493.345 379.689 493.345 379.127H489.144C489.144 380.322 489.373 381.371 489.83 382.273C490.298 383.164 490.919 383.914 491.693 384.523C492.466 385.133 493.363 385.59 494.382 385.895C495.402 386.199 496.462 386.352 497.564 386.352C498.783 386.352 499.914 386.188 500.957 385.859C502.011 385.52 502.925 385.027 503.699 384.383C504.46 383.75 505.058 382.971 505.492 382.045C505.937 381.107 506.16 380.041 506.16 378.846C506.16 378.201 506.083 377.58 505.931 376.982C505.779 376.373 505.533 375.805 505.193 375.277C504.853 374.762 504.414 374.299 503.875 373.889C503.347 373.467 502.703 373.127 501.941 372.869C502.585 372.576 503.148 372.219 503.628 371.797C504.109 371.375 504.507 370.924 504.824 370.443C505.14 369.951 505.375 369.441 505.527 368.914C505.691 368.387 505.773 367.859 505.773 367.332C505.773 366.137 505.574 365.088 505.175 364.186C504.777 363.283 504.214 362.521 503.488 361.9C502.773 361.291 501.906 360.834 500.886 360.529C499.878 360.213 498.771 360.055 497.564 360.055C496.38 360.055 495.291 360.23 494.294 360.582C493.31 360.934 492.455 361.42 491.728 362.041C491.001 362.674 490.433 363.418 490.023 364.273C489.613 365.129 489.408 366.066 489.408 367.086H493.609C493.609 366.535 493.708 366.037 493.908 365.592C494.119 365.146 494.406 364.766 494.769 364.449C495.121 364.133 495.537 363.893 496.017 363.729C496.509 363.553 497.042 363.465 497.617 363.465C498.261 363.465 498.83 363.553 499.322 363.729C499.826 363.904 500.242 364.15 500.57 364.467C500.898 364.807 501.144 365.217 501.308 365.697C501.484 366.178 501.572 366.723 501.572 367.332C501.572 367.895 501.478 368.422 501.291 368.914C501.115 369.395 500.857 369.799 500.517 370.127C500.154 370.502 499.691 370.795 499.128 371.006C498.566 371.205 497.91 371.305 497.16 371.305H494.646Z" fill="#3E2D4A"/>
<path d="M355.373 385.125H351.136C351.066 385.898 350.914 386.584 350.679 387.182C350.445 387.779 350.134 388.277 349.748 388.676C349.349 389.086 348.869 389.396 348.306 389.607C347.744 389.818 347.099 389.924 346.373 389.924C345.763 389.924 345.218 389.842 344.738 389.678C344.269 389.502 343.853 389.25 343.49 388.922C343.138 388.617 342.833 388.254 342.576 387.832C342.33 387.41 342.125 386.941 341.96 386.426C341.75 385.805 341.591 385.119 341.486 384.369C341.392 383.619 341.345 382.816 341.345 381.961V378.428C341.345 377.736 341.38 377.062 341.451 376.406C341.533 375.738 341.65 375.111 341.802 374.525C342.001 373.857 342.253 373.254 342.558 372.715C342.875 372.164 343.261 371.713 343.718 371.361C344.07 371.092 344.462 370.881 344.896 370.729C345.341 370.576 345.839 370.5 346.39 370.5C347.175 370.5 347.849 370.617 348.412 370.852C348.974 371.074 349.449 371.402 349.835 371.836C350.21 372.27 350.503 372.797 350.714 373.418C350.937 374.027 351.083 374.713 351.154 375.475H355.373C355.244 374.197 354.957 373.037 354.511 371.994C354.078 370.951 353.48 370.061 352.718 369.322C351.968 368.596 351.06 368.033 349.994 367.635C348.939 367.236 347.738 367.037 346.39 367.037C345.394 367.037 344.474 367.172 343.63 367.441C342.798 367.711 342.037 368.086 341.345 368.566C340.619 369.094 339.974 369.732 339.412 370.482C338.861 371.221 338.41 372.047 338.058 372.961C337.73 373.781 337.484 374.654 337.32 375.58C337.156 376.506 337.074 377.467 337.074 378.463V381.961C337.074 383.004 337.162 384.006 337.337 384.967C337.513 385.928 337.765 386.818 338.093 387.639C338.433 388.471 338.849 389.238 339.341 389.941C339.845 390.633 340.431 391.225 341.099 391.717C341.791 392.244 342.576 392.654 343.455 392.947C344.345 393.229 345.318 393.369 346.373 393.369C347.662 393.369 348.833 393.176 349.888 392.789C350.955 392.391 351.875 391.828 352.648 391.102C353.41 390.387 354.025 389.525 354.494 388.518C354.962 387.498 355.255 386.367 355.373 385.125Z" fill="#FF7D7C"/>
<path d="M128.058 120H136.917C138.183 120 139.355 119.842 140.433 119.525C141.523 119.197 142.46 118.717 143.246 118.084C144.031 117.463 144.646 116.689 145.091 115.764C145.537 114.838 145.753 113.766 145.742 112.547C145.742 111.855 145.642 111.199 145.443 110.578C145.255 109.945 144.974 109.371 144.599 108.855C144.236 108.375 143.785 107.947 143.246 107.572C142.707 107.186 142.056 106.893 141.294 106.693V106.658C141.81 106.447 142.261 106.213 142.648 105.955C143.046 105.686 143.404 105.375 143.72 105.023C144.166 104.543 144.505 103.992 144.74 103.371C144.986 102.738 145.115 102.059 145.126 101.332C145.126 100.137 144.898 99.1055 144.441 98.2383C143.996 97.3594 143.375 96.6387 142.578 96.0762C141.781 95.5137 140.837 95.0977 139.748 94.8281C138.658 94.5469 137.492 94.4062 136.25 94.4062H128.058V120ZM132.312 108.434H137.164C137.855 108.445 138.47 108.551 139.009 108.75C139.548 108.938 140.005 109.207 140.38 109.559C140.755 109.91 141.037 110.338 141.224 110.842C141.412 111.334 141.505 111.902 141.505 112.547C141.505 113.156 141.388 113.713 141.154 114.217C140.931 114.709 140.609 115.125 140.187 115.465C139.8 115.793 139.332 116.051 138.781 116.238C138.23 116.426 137.621 116.52 136.953 116.52H132.312V108.434ZM132.312 105.217V97.9043H136.302C137.029 97.916 137.691 98.0039 138.289 98.168C138.886 98.3203 139.384 98.5723 139.783 98.9238C140.134 99.2051 140.404 99.5684 140.591 100.014C140.791 100.447 140.89 100.963 140.89 101.561C140.89 102.123 140.785 102.621 140.574 103.055C140.363 103.488 140.076 103.857 139.712 104.162C139.314 104.502 138.822 104.76 138.236 104.936C137.662 105.111 137.029 105.205 136.337 105.217H132.312Z" fill="#FF7D7C"/>
<path d="M331.164 18.918C331.164 19.1973 331.106 19.4551 330.992 19.6914C330.877 19.9206 330.713 20.1175 330.498 20.2822C330.283 20.4469 330.018 20.5758 329.703 20.6689C329.395 20.762 329.04 20.8086 328.639 20.8086C328.188 20.8086 327.773 20.7585 327.393 20.6582C327.021 20.5579 326.702 20.4004 326.437 20.1855C326.165 19.9707 325.954 19.695 325.803 19.3584C325.653 19.0218 325.571 18.6172 325.556 18.1445H322.592C322.592 18.9538 322.745 19.6592 323.053 20.2607C323.369 20.8623 323.795 21.3851 324.332 21.8291C324.897 22.2803 325.56 22.624 326.319 22.8604C327.085 23.0895 327.859 23.2041 328.639 23.2041C329.434 23.2041 330.168 23.111 330.842 22.9248C331.515 22.7314 332.095 22.4486 332.582 22.0762C333.069 21.7109 333.448 21.2633 333.72 20.7334C334 20.1963 334.139 19.584 334.139 18.8965C334.139 18.1016 333.957 17.3997 333.592 16.791C333.226 16.1823 332.736 15.6488 332.12 15.1904C331.712 14.9111 331.264 14.6641 330.777 14.4492C330.29 14.2344 329.778 14.0518 329.241 13.9014C328.74 13.7653 328.288 13.6185 327.887 13.4609C327.494 13.3034 327.157 13.1279 326.878 12.9346C326.598 12.7484 326.383 12.5371 326.233 12.3008C326.09 12.0645 326.018 11.7995 326.018 11.5059C326.018 11.2266 326.072 10.9688 326.179 10.7324C326.294 10.4889 326.459 10.2777 326.674 10.0986C326.888 9.92676 327.15 9.79427 327.458 9.70117C327.773 9.60091 328.131 9.55078 328.532 9.55078C328.969 9.55078 329.348 9.61165 329.671 9.7334C330 9.84798 330.276 10.0091 330.498 10.2168C330.713 10.4316 330.874 10.6859 330.981 10.9795C331.096 11.2731 331.16 11.5954 331.175 11.9463H334.118C334.118 11.2445 333.982 10.5999 333.71 10.0127C333.438 9.42546 333.058 8.91699 332.571 8.4873C332.084 8.06478 331.5 7.73535 330.82 7.49902C330.147 7.2627 329.402 7.14453 328.586 7.14453C327.798 7.14453 327.067 7.24837 326.394 7.45605C325.721 7.65658 325.137 7.94661 324.643 8.32617C324.149 8.70573 323.762 9.16406 323.483 9.70117C323.204 10.2383 323.064 10.8363 323.064 11.4951C323.064 12.068 323.168 12.598 323.376 13.085C323.591 13.5719 323.906 14.016 324.321 14.417C324.736 14.818 325.27 15.1868 325.922 15.5234C326.58 15.86 327.343 16.1465 328.21 16.3828C328.768 16.5332 329.234 16.6979 329.606 16.877C329.986 17.0488 330.294 17.2386 330.53 17.4463C330.759 17.6611 330.92 17.8903 331.013 18.1338C331.114 18.3773 331.164 18.6387 331.164 18.918ZM342.722 8.53027H339.735V11.377H337.082V13.5791H339.735V18.8643C339.735 19.6305 339.835 20.2894 340.036 20.8408C340.236 21.3851 340.523 21.8327 340.895 22.1836C341.261 22.5417 341.701 22.8066 342.217 22.9785C342.739 23.1432 343.319 23.2256 343.957 23.2256C344.286 23.2256 344.619 23.2077 344.956 23.1719C345.3 23.1432 345.629 23.1003 345.944 23.043C346.259 22.9857 346.556 22.9141 346.836 22.8281C347.115 22.735 347.359 22.6276 347.566 22.5059L347.276 20.4541C347.14 20.4899 346.975 20.5257 346.782 20.5615C346.596 20.5973 346.395 20.6296 346.18 20.6582C345.958 20.694 345.726 20.7227 345.482 20.7441C345.246 20.7656 345.013 20.7764 344.784 20.7764C344.469 20.7764 344.182 20.7406 343.925 20.6689C343.674 20.5973 343.459 20.4756 343.28 20.3037C343.101 20.139 342.961 19.917 342.861 19.6377C342.768 19.3512 342.722 18.9967 342.722 18.5742V13.5791H347.061V11.377H342.722V8.53027ZM356.976 23.2148C358.1 23.2148 359.074 22.9964 359.897 22.5596C360.721 22.1227 361.323 21.6357 361.702 21.0986L360.209 19.4873C359.865 19.9313 359.418 20.2643 358.866 20.4863C358.315 20.7083 357.745 20.8193 357.158 20.8193C356.743 20.8193 356.36 20.7549 356.009 20.626C355.658 20.4971 355.346 20.3145 355.074 20.0781C354.809 19.849 354.598 19.5947 354.44 19.3154C354.283 19.029 354.154 18.653 354.054 18.1875V18.1553H361.938V16.8877C361.938 16.0355 361.82 15.2585 361.584 14.5566C361.348 13.8477 361.004 13.2425 360.553 12.7412C360.094 12.2399 359.536 11.8532 358.877 11.5811C358.225 11.3018 357.48 11.1621 356.643 11.1621C355.833 11.1621 355.085 11.3089 354.397 11.6025C353.71 11.8962 353.116 12.3079 352.614 12.8379C352.113 13.3678 351.723 14.0016 351.443 14.7393C351.164 15.4697 351.024 16.279 351.024 17.167V17.5967C351.024 18.3773 351.164 19.1113 351.443 19.7988C351.73 20.4792 352.134 21.07 352.657 21.5713C353.18 22.0798 353.807 22.4808 354.537 22.7744C355.268 23.068 356.08 23.2148 356.976 23.2148ZM356.621 13.5791C357.001 13.5791 357.334 13.64 357.62 13.7617C357.914 13.8763 358.161 14.0339 358.361 14.2344C358.562 14.4421 358.719 14.6855 358.834 14.9648C358.949 15.2441 359.006 15.5413 359.006 15.8564V16.0928H354.107C354.179 15.7132 354.286 15.3695 354.43 15.0615C354.573 14.7536 354.752 14.4886 354.967 14.2666C355.174 14.0446 355.418 13.8763 355.697 13.7617C355.977 13.64 356.284 13.5791 356.621 13.5791ZM365.472 27.4688H368.458V21.9902C368.594 22.1406 368.737 22.2767 368.888 22.3984C369.038 22.5202 369.196 22.6312 369.36 22.7314C369.64 22.889 369.94 23.0072 370.263 23.0859C370.592 23.1719 370.95 23.2148 371.337 23.2148C372.067 23.2148 372.716 23.0645 373.281 22.7637C373.847 22.4629 374.323 22.0475 374.71 21.5176C375.09 20.9948 375.376 20.3717 375.569 19.6484C375.77 18.9251 375.87 18.141 375.87 17.2959V17.0703C375.87 16.1895 375.77 15.3874 375.569 14.6641C375.376 13.9336 375.086 13.307 374.699 12.7842C374.313 12.2686 373.836 11.8711 373.271 11.5918C372.705 11.3053 372.053 11.1621 371.315 11.1621C370.957 11.1621 370.621 11.2015 370.306 11.2803C369.998 11.3519 369.715 11.4557 369.457 11.5918C369.242 11.7064 369.042 11.8424 368.856 12C368.669 12.1504 368.497 12.3223 368.34 12.5156L368.232 11.377H365.472V27.4688ZM372.884 17.0703V17.2959C372.884 17.7757 372.841 18.2305 372.755 18.6602C372.669 19.0827 372.533 19.4551 372.347 19.7773C372.161 20.0996 371.917 20.3538 371.616 20.54C371.323 20.7262 370.965 20.8193 370.542 20.8193C370.277 20.8193 370.037 20.7943 369.822 20.7441C369.607 20.6868 369.418 20.6081 369.253 20.5078C369.081 20.4004 368.927 20.2715 368.791 20.1211C368.662 19.9707 368.551 19.8024 368.458 19.6162V14.7607C368.558 14.5602 368.676 14.3848 368.813 14.2344C368.956 14.084 369.12 13.9587 369.307 13.8584C369.471 13.7725 369.654 13.708 369.855 13.665C370.055 13.6149 370.277 13.5898 370.521 13.5898C370.943 13.5898 371.301 13.6794 371.595 13.8584C371.896 14.0374 372.143 14.2809 372.336 14.5889C372.522 14.904 372.658 15.2764 372.744 15.7061C372.837 16.1286 372.884 16.5833 372.884 17.0703ZM403.841 23V20.6045H396.977L399.92 17.4893C400.429 16.9665 400.891 16.4688 401.306 15.9961C401.721 15.5163 402.079 15.0472 402.38 14.5889C402.674 14.1305 402.899 13.6686 403.057 13.2031C403.222 12.7305 403.304 12.2363 403.304 11.7207C403.304 11.0404 403.197 10.4209 402.982 9.8623C402.767 9.29655 402.455 8.81315 402.047 8.41211C401.632 8.01107 401.116 7.69954 400.5 7.47754C399.892 7.25553 399.19 7.14453 398.395 7.14453C397.564 7.14453 396.805 7.2806 396.117 7.55273C395.437 7.81771 394.857 8.18294 394.377 8.64844C393.89 9.11393 393.514 9.6582 393.249 10.2812C392.984 10.8971 392.852 11.5524 392.852 12.2471H395.849C395.849 11.8245 395.903 11.4486 396.01 11.1191C396.117 10.7897 396.275 10.514 396.483 10.292C396.683 10.0771 396.934 9.91602 397.235 9.80859C397.543 9.69401 397.897 9.63672 398.298 9.63672C398.606 9.63672 398.885 9.68685 399.136 9.78711C399.394 9.88737 399.616 10.0306 399.802 10.2168C399.981 10.4102 400.121 10.6429 400.221 10.915C400.321 11.1872 400.371 11.4987 400.371 11.8496C400.371 12.0859 400.332 12.3294 400.253 12.5801C400.182 12.8307 400.063 13.0993 399.899 13.3857C399.727 13.6794 399.505 14.0016 399.233 14.3525C398.961 14.7035 398.628 15.0938 398.234 15.5234L393.174 20.959V23H403.841Z" fill="#3E2D4A"/>
<path d="M826.164 18.918C826.164 19.1973 826.106 19.4551 825.992 19.6914C825.877 19.9206 825.713 20.1175 825.498 20.2822C825.283 20.4469 825.018 20.5758 824.703 20.6689C824.395 20.762 824.04 20.8086 823.639 20.8086C823.188 20.8086 822.773 20.7585 822.393 20.6582C822.021 20.5579 821.702 20.4004 821.437 20.1855C821.165 19.9707 820.954 19.695 820.803 19.3584C820.653 19.0218 820.571 18.6172 820.556 18.1445H817.592C817.592 18.9538 817.745 19.6592 818.053 20.2607C818.369 20.8623 818.795 21.3851 819.332 21.8291C819.897 22.2803 820.56 22.624 821.319 22.8604C822.085 23.0895 822.859 23.2041 823.639 23.2041C824.434 23.2041 825.168 23.111 825.842 22.9248C826.515 22.7314 827.095 22.4486 827.582 22.0762C828.069 21.7109 828.448 21.2633 828.72 20.7334C829 20.1963 829.139 19.584 829.139 18.8965C829.139 18.1016 828.957 17.3997 828.592 16.791C828.226 16.1823 827.736 15.6488 827.12 15.1904C826.712 14.9111 826.264 14.6641 825.777 14.4492C825.29 14.2344 824.778 14.0518 824.241 13.9014C823.74 13.7653 823.288 13.6185 822.887 13.4609C822.494 13.3034 822.157 13.1279 821.878 12.9346C821.598 12.7484 821.383 12.5371 821.233 12.3008C821.09 12.0645 821.018 11.7995 821.018 11.5059C821.018 11.2266 821.072 10.9688 821.179 10.7324C821.294 10.4889 821.459 10.2777 821.674 10.0986C821.888 9.92676 822.15 9.79427 822.458 9.70117C822.773 9.60091 823.131 9.55078 823.532 9.55078C823.969 9.55078 824.348 9.61165 824.671 9.7334C825 9.84798 825.276 10.0091 825.498 10.2168C825.713 10.4316 825.874 10.6859 825.981 10.9795C826.096 11.2731 826.16 11.5954 826.175 11.9463H829.118C829.118 11.2445 828.982 10.5999 828.71 10.0127C828.438 9.42546 828.058 8.91699 827.571 8.4873C827.084 8.06478 826.5 7.73535 825.82 7.49902C825.147 7.2627 824.402 7.14453 823.586 7.14453C822.798 7.14453 822.067 7.24837 821.394 7.45605C820.721 7.65658 820.137 7.94661 819.643 8.32617C819.149 8.70573 818.762 9.16406 818.483 9.70117C818.204 10.2383 818.064 10.8363 818.064 11.4951C818.064 12.068 818.168 12.598 818.376 13.085C818.591 13.5719 818.906 14.016 819.321 14.417C819.736 14.818 820.27 15.1868 820.922 15.5234C821.58 15.86 822.343 16.1465 823.21 16.3828C823.768 16.5332 824.234 16.6979 824.606 16.877C824.986 17.0488 825.294 17.2386 825.53 17.4463C825.759 17.6611 825.92 17.8903 826.013 18.1338C826.114 18.3773 826.164 18.6387 826.164 18.918ZM837.722 8.53027H834.735V11.377H832.082V13.5791H834.735V18.8643C834.735 19.6305 834.835 20.2894 835.036 20.8408C835.236 21.3851 835.523 21.8327 835.895 22.1836C836.261 22.5417 836.701 22.8066 837.217 22.9785C837.739 23.1432 838.319 23.2256 838.957 23.2256C839.286 23.2256 839.619 23.2077 839.956 23.1719C840.3 23.1432 840.629 23.1003 840.944 23.043C841.259 22.9857 841.556 22.9141 841.836 22.8281C842.115 22.735 842.359 22.6276 842.566 22.5059L842.276 20.4541C842.14 20.4899 841.975 20.5257 841.782 20.5615C841.596 20.5973 841.395 20.6296 841.18 20.6582C840.958 20.694 840.726 20.7227 840.482 20.7441C840.246 20.7656 840.013 20.7764 839.784 20.7764C839.469 20.7764 839.182 20.7406 838.925 20.6689C838.674 20.5973 838.459 20.4756 838.28 20.3037C838.101 20.139 837.961 19.917 837.861 19.6377C837.768 19.3512 837.722 18.9967 837.722 18.5742V13.5791H842.061V11.377H837.722V8.53027ZM851.976 23.2148C853.1 23.2148 854.074 22.9964 854.897 22.5596C855.721 22.1227 856.323 21.6357 856.702 21.0986L855.209 19.4873C854.865 19.9313 854.418 20.2643 853.866 20.4863C853.315 20.7083 852.745 20.8193 852.158 20.8193C851.743 20.8193 851.36 20.7549 851.009 20.626C850.658 20.4971 850.346 20.3145 850.074 20.0781C849.809 19.849 849.598 19.5947 849.44 19.3154C849.283 19.029 849.154 18.653 849.054 18.1875V18.1553H856.938V16.8877C856.938 16.0355 856.82 15.2585 856.584 14.5566C856.348 13.8477 856.004 13.2425 855.553 12.7412C855.094 12.2399 854.536 11.8532 853.877 11.5811C853.225 11.3018 852.48 11.1621 851.643 11.1621C850.833 11.1621 850.085 11.3089 849.397 11.6025C848.71 11.8962 848.116 12.3079 847.614 12.8379C847.113 13.3678 846.723 14.0016 846.443 14.7393C846.164 15.4697 846.024 16.279 846.024 17.167V17.5967C846.024 18.3773 846.164 19.1113 846.443 19.7988C846.73 20.4792 847.134 21.07 847.657 21.5713C848.18 22.0798 848.807 22.4808 849.537 22.7744C850.268 23.068 851.08 23.2148 851.976 23.2148ZM851.621 13.5791C852.001 13.5791 852.334 13.64 852.62 13.7617C852.914 13.8763 853.161 14.0339 853.361 14.2344C853.562 14.4421 853.719 14.6855 853.834 14.9648C853.949 15.2441 854.006 15.5413 854.006 15.8564V16.0928H849.107C849.179 15.7132 849.286 15.3695 849.43 15.0615C849.573 14.7536 849.752 14.4886 849.967 14.2666C850.174 14.0446 850.418 13.8763 850.697 13.7617C850.977 13.64 851.284 13.5791 851.621 13.5791ZM860.472 27.4688H863.458V21.9902C863.594 22.1406 863.737 22.2767 863.888 22.3984C864.038 22.5202 864.196 22.6312 864.36 22.7314C864.64 22.889 864.94 23.0072 865.263 23.0859C865.592 23.1719 865.95 23.2148 866.337 23.2148C867.067 23.2148 867.716 23.0645 868.281 22.7637C868.847 22.4629 869.323 22.0475 869.71 21.5176C870.09 20.9948 870.376 20.3717 870.569 19.6484C870.77 18.9251 870.87 18.141 870.87 17.2959V17.0703C870.87 16.1895 870.77 15.3874 870.569 14.6641C870.376 13.9336 870.086 13.307 869.699 12.7842C869.313 12.2686 868.836 11.8711 868.271 11.5918C867.705 11.3053 867.053 11.1621 866.315 11.1621C865.957 11.1621 865.621 11.2015 865.306 11.2803C864.998 11.3519 864.715 11.4557 864.457 11.5918C864.242 11.7064 864.042 11.8424 863.856 12C863.669 12.1504 863.497 12.3223 863.34 12.5156L863.232 11.377H860.472V27.4688ZM867.884 17.0703V17.2959C867.884 17.7757 867.841 18.2305 867.755 18.6602C867.669 19.0827 867.533 19.4551 867.347 19.7773C867.161 20.0996 866.917 20.3538 866.616 20.54C866.323 20.7262 865.965 20.8193 865.542 20.8193C865.277 20.8193 865.037 20.7943 864.822 20.7441C864.607 20.6868 864.418 20.6081 864.253 20.5078C864.081 20.4004 863.927 20.2715 863.791 20.1211C863.662 19.9707 863.551 19.8024 863.458 19.6162V14.7607C863.558 14.5602 863.676 14.3848 863.813 14.2344C863.956 14.084 864.12 13.9587 864.307 13.8584C864.471 13.7725 864.654 13.708 864.855 13.665C865.055 13.6149 865.277 13.5898 865.521 13.5898C865.943 13.5898 866.301 13.6794 866.595 13.8584C866.896 14.0374 867.143 14.2809 867.336 14.5889C867.522 14.904 867.658 15.2764 867.744 15.7061C867.837 16.1286 867.884 16.5833 867.884 17.0703ZM891.622 13.8691V16.1895H893.244C893.653 16.1895 894.018 16.236 894.34 16.3291C894.67 16.4222 894.952 16.5654 895.189 16.7588C895.418 16.9521 895.593 17.1992 895.715 17.5C895.837 17.8008 895.898 18.1624 895.898 18.585C895.898 18.9215 895.844 19.2259 895.737 19.498C895.636 19.7702 895.486 19.9993 895.285 20.1855C895.078 20.3932 894.82 20.5508 894.512 20.6582C894.204 20.7656 893.857 20.8193 893.47 20.8193C893.126 20.8193 892.811 20.7692 892.525 20.6689C892.238 20.5615 891.991 20.4147 891.783 20.2285C891.569 20.0495 891.404 19.8346 891.289 19.584C891.175 19.3262 891.117 19.0469 891.117 18.7461H888.131C888.131 19.5052 888.278 20.1641 888.572 20.7227C888.872 21.2812 889.27 21.7432 889.764 22.1084C890.258 22.4808 890.82 22.7601 891.45 22.9463C892.088 23.1253 892.74 23.2148 893.406 23.2148C894.179 23.2148 894.899 23.1146 895.565 22.9141C896.238 22.7064 896.818 22.4056 897.305 22.0117C897.792 21.625 898.175 21.1452 898.454 20.5723C898.734 19.9993 898.873 19.3477 898.873 18.6172C898.873 18.2018 898.823 17.8079 898.723 17.4355C898.623 17.0632 898.469 16.7194 898.261 16.4043C898.053 16.0964 897.788 15.8206 897.466 15.5771C897.151 15.3337 896.775 15.1331 896.338 14.9756C896.711 14.7965 897.04 14.5853 897.326 14.3418C897.613 14.0911 897.853 13.819 898.046 13.5254C898.24 13.2318 898.386 12.9238 898.487 12.6016C898.587 12.2721 898.637 11.9391 898.637 11.6025C898.637 10.8721 898.508 10.2311 898.25 9.67969C898 9.12109 897.645 8.65202 897.187 8.27246C896.728 7.90007 896.177 7.62077 895.533 7.43457C894.888 7.24121 894.179 7.14453 893.406 7.14453C892.689 7.14453 892.02 7.24837 891.397 7.45605C890.781 7.66374 890.244 7.95378 889.785 8.32617C889.327 8.70573 888.965 9.1569 888.7 9.67969C888.443 10.2025 888.314 10.7826 888.314 11.4199H891.3C891.3 11.1335 891.357 10.8757 891.472 10.6465C891.587 10.4173 891.744 10.2204 891.945 10.0557C892.138 9.89811 892.364 9.77637 892.621 9.69043C892.886 9.60449 893.169 9.56152 893.47 9.56152C893.835 9.56152 894.154 9.61165 894.426 9.71191C894.705 9.81217 894.935 9.95182 895.114 10.1309C895.293 10.3171 895.425 10.5391 895.511 10.7969C895.604 11.0475 895.651 11.3268 895.651 11.6348C895.651 11.9499 895.604 12.2435 895.511 12.5156C895.425 12.7806 895.293 13.0062 895.114 13.1924C894.92 13.4072 894.666 13.5755 894.351 13.6973C894.043 13.8118 893.674 13.8691 893.244 13.8691H891.622Z" fill="#3E2D4A"/>
<path d="M162.457 222.341L360.693 149.165L465.514 332.645L162.457 222.341Z" stroke="#FF7D7C" stroke-opacity="0.2" stroke-width="8"/>
<path d="M336.054 306.096C335.051 305.633 333.862 306.07 333.399 307.073C332.936 308.076 333.373 309.264 334.376 309.728L336.054 306.096ZM432.468 286.162C432.557 285.061 431.737 284.096 430.636 284.007L412.695 282.552C411.594 282.462 410.629 283.283 410.54 284.384C410.45 285.485 411.27 286.449 412.371 286.539L428.319 287.832L427.026 303.779C426.937 304.88 427.757 305.845 428.858 305.935C429.959 306.024 430.924 305.204 431.013 304.103L432.468 286.162ZM334.376 309.728C356.052 319.741 374.249 319.528 390.184 314.041C406.009 308.592 419.465 297.982 431.769 287.524L429.179 284.476C416.881 294.93 403.926 305.079 388.882 310.259C373.948 315.401 356.817 315.688 336.054 306.096L334.376 309.728Z" fill="#4F4F4F"/>
<path d="M162.371 80.292L357.402 146.454L324.258 349.718L162.371 80.292Z" stroke="#FF7D7C" stroke-width="11"/>
<path d="M764.891 343.376L875.742 151.376L986.593 343.376H764.891Z" stroke="#3E2D4A" stroke-width="11"/>
<path d="M928.521 151.111L930.244 157H934.621L926.429 131.406H922.685L914.353 157H918.748L920.488 151.111H928.521ZM921.56 147.49L924.548 137.365L927.484 147.49H921.56Z" fill="#FF7D7C"/>
<path d="M877.046 130V104.406H876.782L866.253 108.309V112.018L872.81 109.609V130H877.046Z" fill="#3E2D4A"/>
<path d="M745.968 386V382.607H734.05L739.745 376.525C740.495 375.729 741.187 374.955 741.819 374.205C742.464 373.455 743.021 372.711 743.489 371.973C743.946 371.234 744.304 370.49 744.562 369.74C744.831 368.979 744.966 368.193 744.966 367.385C744.966 366.307 744.79 365.322 744.438 364.432C744.087 363.529 743.577 362.756 742.909 362.111C742.229 361.467 741.392 360.963 740.396 360.6C739.411 360.236 738.292 360.055 737.038 360.055C735.702 360.055 734.489 360.271 733.399 360.705C732.321 361.139 731.407 361.725 730.657 362.463C729.896 363.201 729.31 364.068 728.899 365.064C728.489 366.049 728.284 367.098 728.284 368.211H732.503C732.503 367.473 732.597 366.816 732.784 366.242C732.972 365.656 733.253 365.164 733.628 364.766C733.991 364.367 734.448 364.062 734.999 363.852C735.55 363.641 736.2 363.535 736.95 363.535C737.536 363.535 738.063 363.635 738.532 363.834C739.013 364.033 739.423 364.309 739.763 364.66C740.103 365.012 740.36 365.434 740.536 365.926C740.712 366.418 740.8 366.963 740.8 367.561C740.8 368.006 740.735 368.451 740.606 368.896C740.489 369.33 740.29 369.799 740.009 370.303C739.716 370.807 739.335 371.363 738.866 371.973C738.397 372.57 737.817 373.25 737.126 374.012L728.794 383.082V386H745.968Z" fill="#3E2D4A"/>
<path d="M988.646 378.305V381.609H991.16C991.886 381.609 992.542 381.697 993.128 381.873C993.726 382.037 994.236 382.289 994.658 382.629C995.08 382.98 995.402 383.42 995.625 383.947C995.847 384.475 995.958 385.107 995.958 385.846C995.958 386.502 995.859 387.088 995.66 387.604C995.472 388.107 995.197 388.529 994.833 388.869C994.458 389.232 993.996 389.508 993.445 389.695C992.906 389.871 992.296 389.959 991.617 389.959C990.984 389.959 990.404 389.865 989.876 389.678C989.361 389.49 988.916 389.227 988.541 388.887C988.154 388.559 987.855 388.16 987.644 387.691C987.445 387.211 987.345 386.689 987.345 386.127H983.144C983.144 387.322 983.373 388.371 983.83 389.273C984.298 390.164 984.919 390.914 985.693 391.523C986.466 392.133 987.363 392.59 988.382 392.895C989.402 393.199 990.462 393.352 991.564 393.352C992.783 393.352 993.914 393.188 994.957 392.859C996.011 392.52 996.925 392.027 997.699 391.383C998.46 390.75 999.058 389.971 999.492 389.045C999.937 388.107 1000.16 387.041 1000.16 385.846C1000.16 385.201 1000.08 384.58 999.931 383.982C999.779 383.373 999.533 382.805 999.193 382.277C998.853 381.762 998.414 381.299 997.875 380.889C997.347 380.467 996.703 380.127 995.941 379.869C996.585 379.576 997.148 379.219 997.628 378.797C998.109 378.375 998.507 377.924 998.824 377.443C999.14 376.951 999.375 376.441 999.527 375.914C999.691 375.387 999.773 374.859 999.773 374.332C999.773 373.137 999.574 372.088 999.175 371.186C998.777 370.283 998.214 369.521 997.488 368.9C996.773 368.291 995.906 367.834 994.886 367.529C993.878 367.213 992.771 367.055 991.564 367.055C990.38 367.055 989.291 367.23 988.294 367.582C987.31 367.934 986.455 368.42 985.728 369.041C985.001 369.674 984.433 370.418 984.023 371.273C983.613 372.129 983.408 373.066 983.408 374.086H987.609C987.609 373.535 987.708 373.037 987.908 372.592C988.119 372.146 988.406 371.766 988.769 371.449C989.121 371.133 989.537 370.893 990.017 370.729C990.509 370.553 991.042 370.465 991.617 370.465C992.261 370.465 992.83 370.553 993.322 370.729C993.826 370.904 994.242 371.15 994.57 371.467C994.898 371.807 995.144 372.217 995.308 372.697C995.484 373.178 995.572 373.723 995.572 374.332C995.572 374.895 995.478 375.422 995.291 375.914C995.115 376.395 994.857 376.799 994.517 377.127C994.154 377.502 993.691 377.795 993.128 378.006C992.566 378.205 991.91 378.305 991.16 378.305H988.646Z" fill="#3E2D4A"/>
<path d="M1056.37 378.125H1052.14C1052.07 378.898 1051.91 379.584 1051.68 380.182C1051.44 380.779 1051.13 381.277 1050.75 381.676C1050.35 382.086 1049.87 382.396 1049.31 382.607C1048.74 382.818 1048.1 382.924 1047.37 382.924C1046.76 382.924 1046.22 382.842 1045.74 382.678C1045.27 382.502 1044.85 382.25 1044.49 381.922C1044.14 381.617 1043.83 381.254 1043.58 380.832C1043.33 380.41 1043.12 379.941 1042.96 379.426C1042.75 378.805 1042.59 378.119 1042.49 377.369C1042.39 376.619 1042.35 375.816 1042.35 374.961V371.428C1042.35 370.736 1042.38 370.062 1042.45 369.406C1042.53 368.738 1042.65 368.111 1042.8 367.525C1043 366.857 1043.25 366.254 1043.56 365.715C1043.87 365.164 1044.26 364.713 1044.72 364.361C1045.07 364.092 1045.46 363.881 1045.9 363.729C1046.34 363.576 1046.84 363.5 1047.39 363.5C1048.18 363.5 1048.85 363.617 1049.41 363.852C1049.97 364.074 1050.45 364.402 1050.84 364.836C1051.21 365.27 1051.5 365.797 1051.71 366.418C1051.94 367.027 1052.08 367.713 1052.15 368.475H1056.37C1056.24 367.197 1055.96 366.037 1055.51 364.994C1055.08 363.951 1054.48 363.061 1053.72 362.322C1052.97 361.596 1052.06 361.033 1050.99 360.635C1049.94 360.236 1048.74 360.037 1047.39 360.037C1046.39 360.037 1045.47 360.172 1044.63 360.441C1043.8 360.711 1043.04 361.086 1042.35 361.566C1041.62 362.094 1040.97 362.732 1040.41 363.482C1039.86 364.221 1039.41 365.047 1039.06 365.961C1038.73 366.781 1038.48 367.654 1038.32 368.58C1038.16 369.506 1038.07 370.467 1038.07 371.463V374.961C1038.07 376.004 1038.16 377.006 1038.34 377.967C1038.51 378.928 1038.77 379.818 1039.09 380.639C1039.43 381.471 1039.85 382.238 1040.34 382.941C1040.85 383.633 1041.43 384.225 1042.1 384.717C1042.79 385.244 1043.58 385.654 1044.45 385.947C1045.35 386.229 1046.32 386.369 1047.37 386.369C1048.66 386.369 1049.83 386.176 1050.89 385.789C1051.95 385.391 1052.87 384.828 1053.65 384.102C1054.41 383.387 1055.02 382.525 1055.49 381.518C1055.96 380.498 1056.26 379.367 1056.37 378.125Z" fill="#FF7D7C"/>
<path d="M689.058 232H697.917C699.183 232 700.355 231.842 701.433 231.525C702.523 231.197 703.46 230.717 704.246 230.084C705.031 229.463 705.646 228.689 706.091 227.764C706.537 226.838 706.753 225.766 706.742 224.547C706.742 223.855 706.642 223.199 706.443 222.578C706.255 221.945 705.974 221.371 705.599 220.855C705.236 220.375 704.785 219.947 704.246 219.572C703.707 219.186 703.056 218.893 702.294 218.693V218.658C702.81 218.447 703.261 218.213 703.648 217.955C704.046 217.686 704.404 217.375 704.72 217.023C705.166 216.543 705.505 215.992 705.74 215.371C705.986 214.738 706.115 214.059 706.126 213.332C706.126 212.137 705.898 211.105 705.441 210.238C704.996 209.359 704.375 208.639 703.578 208.076C702.781 207.514 701.837 207.098 700.748 206.828C699.658 206.547 698.492 206.406 697.25 206.406H689.058V232ZM693.312 220.434H698.164C698.855 220.445 699.47 220.551 700.009 220.75C700.548 220.938 701.005 221.207 701.38 221.559C701.755 221.91 702.037 222.338 702.224 222.842C702.412 223.334 702.505 223.902 702.505 224.547C702.505 225.156 702.388 225.713 702.154 226.217C701.931 226.709 701.609 227.125 701.187 227.465C700.8 227.793 700.332 228.051 699.781 228.238C699.23 228.426 698.621 228.52 697.953 228.52H693.312V220.434ZM693.312 217.217V209.904H697.302C698.029 209.916 698.691 210.004 699.289 210.168C699.886 210.32 700.384 210.572 700.783 210.924C701.134 211.205 701.404 211.568 701.591 212.014C701.791 212.447 701.89 212.963 701.89 213.561C701.89 214.123 701.785 214.621 701.574 215.055C701.363 215.488 701.076 215.857 700.712 216.162C700.314 216.502 699.822 216.76 699.236 216.936C698.662 217.111 698.029 217.205 697.337 217.217H693.312Z" fill="#FF7D7C"/>
<path d="M722.106 245.085L915.311 173.766L1017.47 352.59L722.106 245.085Z" stroke="#FF7D7C" stroke-width="11"/>
</g>
<defs>
<clipPath id="clip0">
<rect width="1188" height="395" fill="white"/>
</clipPath>
</defs>
</svg>
