<svg width="700" height="500" viewBox="0 0 350 250" fill="none" xmlns="http://www.w3.org/2000/svg">
    <g id="Logo">
        <rect width="350" height="250" fill="#EFF0F6"/>
        <g id="Logo_2">
            <path id="Vector" d="M158.187 135.187H142.496L142.411 128.637H156.657C159.009 128.637 161.065 128.242 162.823 127.453C164.58 126.665 165.941 125.538 166.905 124.073C167.898 122.58 168.394 120.805 168.394 118.748C168.394 116.495 167.954 114.663 167.075 113.255C166.225 111.818 164.906 110.776 163.12 110.128C161.363 109.451 159.123 109.113 156.402 109.113H144.324V163.965H136.117V102.437H156.402C159.577 102.437 162.411 102.761 164.906 103.408C167.401 104.028 169.514 105.014 171.243 106.367C173 107.691 174.333 109.381 175.24 111.438C176.147 113.494 176.601 115.959 176.601 118.833C176.601 121.368 175.949 123.664 174.645 125.721C173.341 127.75 171.526 129.411 169.202 130.708C166.905 132.004 164.212 132.835 161.122 133.201L158.187 135.187ZM157.805 163.965H139.264L143.899 157.33H157.805C160.413 157.33 162.624 156.879 164.439 155.978C166.282 155.076 167.685 153.809 168.649 152.175C169.613 150.513 170.094 148.555 170.094 146.301C170.094 144.019 169.684 142.047 168.861 140.385C168.039 138.722 166.749 137.441 164.992 136.539C163.234 135.638 160.966 135.187 158.187 135.187H146.493L146.578 128.637H162.567L164.311 131.003C167.288 131.257 169.811 132.102 171.881 133.538C173.95 134.947 175.524 136.75 176.601 138.948C177.706 141.145 178.259 143.568 178.259 146.216C178.259 150.048 177.409 153.288 175.708 155.936C174.035 158.556 171.668 160.556 168.606 161.936C165.544 163.288 161.944 163.965 157.805 163.965ZM198.587 102.437V163.965H190.379V102.437H198.587ZM235.966 102.437L210.239 131.13L195.78 146.047L194.419 137.342L205.305 125.425L226.1 102.437H235.966ZM228.056 163.965L205.135 133.962L210.026 127.496L237.837 163.965H228.056ZM247.66 102.437H255.613L275.897 152.597L296.14 102.437H304.134L278.959 163.965H272.751L247.66 102.437ZM245.066 102.437H252.083L253.231 139.962V163.965H245.066V102.437ZM299.669 102.437H306.686V163.965H298.521V139.962L299.669 102.437Z" fill="#212E50"/>
            <path id="Vector_2" d="M120.758 124.298V160.359" stroke="#212E50" stroke-width="12" stroke-linecap="square"/>
            <path id="Vector_3" d="M103.226 114.081L92.3395 154.649L90.8659 154.44C89.1469 154.196 87.4216 154.841 86.2915 156.152L69.6594 137.52C68.1634 139.007 65.9549 139.576 63.9138 139.023L52.7249 167.871" stroke="url(#paint0_linear_8_169)" stroke-width="10"/>
            <path id="Vector_4" d="M109.691 69.759L109.263 71.1629L107.3 77.5805" stroke="#212E50" stroke-width="12" stroke-linecap="round"/>
            <path id="Vector_5" d="M123.014 74.521L122.585 75.9249L120.622 82.3425" stroke="#212E50" stroke-width="12" stroke-linecap="round"/>
            <path id="Vector_6" d="M128.83 86.8222L97.9479 76.4116C94.2586 85.1391 90.2035 96.6914 93.4177 104.074C95.2466 108.275 98.8865 111.267 103.126 112.755C107.534 114.302 112.894 114.278 117.124 111.805C124.879 107.27 126.35 95.846 128.83 86.8222Z" stroke="#212E50" stroke-width="10"/>
            <path id="Vector_7" d="M50.4543 178.835C53.4601 178.785 55.8557 176.323 55.8051 173.336C55.7544 170.349 53.2767 167.968 50.271 168.019C47.2652 168.069 44.8695 170.531 44.9202 173.518C44.9708 176.505 47.4485 178.885 50.4543 178.835Z" stroke="#88B4CD" stroke-width="10"/>
            <path id="Vector_8" d="M65.7811 139.125C68.7868 139.074 71.1825 136.612 71.1319 133.625C71.0812 130.638 68.6035 128.258 65.5977 128.308C62.5919 128.358 60.1963 130.821 60.2469 133.807C60.2976 136.794 62.7753 139.175 65.7811 139.125Z" stroke="#3F72AF" stroke-width="10"/>
            <path id="Vector_9" d="M90.4351 165.169C93.4409 165.119 95.8365 162.656 95.7859 159.67C95.7353 156.683 93.2576 154.302 90.2518 154.352C87.246 154.403 84.8504 156.865 84.901 159.852C84.9516 162.839 87.4293 165.219 90.4351 165.169Z" stroke="#3B68A1" stroke-width="10"/>
        </g>
    </g>
    <defs>
        <linearGradient id="paint0_linear_8_169" x1="102.621" y1="115.283" x2="53.05" y2="166.981" gradientUnits="userSpaceOnUse">
            <stop stop-color="#212E50"/>
            <stop offset="0.539583" stop-color="#4074B2"/>
            <stop offset="1" stop-color="#88B4CD"/>
        </linearGradient>
    </defs>
</svg>
