<svg width="1188" height="266" viewBox="0 0 1188 266" fill="none" xmlns="http://www.w3.org/2000/svg">
<path d="M533.061 207.061C533.646 206.475 533.646 205.525 533.061 204.939L523.515 195.393C522.929 194.808 521.979 194.808 521.393 195.393C520.808 195.979 520.808 196.929 521.393 197.515L529.879 206L521.393 214.485C520.808 215.071 520.808 216.021 521.393 216.607C521.979 217.192 522.929 217.192 523.515 216.607L533.061 207.061ZM177 207.5H532V204.5H177V207.5Z" fill="#3E2D4A" fill-opacity="0.28"/>
<path d="M178.061 4.93933C177.475 4.35355 176.525 4.35355 175.939 4.93933L166.393 14.4853C165.808 15.0711 165.808 16.0208 166.393 16.6066C166.979 17.1924 167.929 17.1924 168.515 16.6066L177 8.12131L185.485 16.6066C186.071 17.1924 187.021 17.1924 187.607 16.6066C188.192 16.0208 188.192 15.0711 187.607 14.4853L178.061 4.93933ZM178.5 206L178.5 5.99999L175.5 5.99999L175.5 206L178.5 206Z" fill="#3E2D4A" fill-opacity="0.28"/>
<path d="M176.916 204.029L171.889 196.98H168.127L175.211 206.385L167.934 216H171.73L176.986 208.758L182.242 216H186.004L178.727 206.385L185.811 196.98H181.996L176.916 204.029Z" fill="#FF7D7C"/>
<path d="M135.539 253.093L136.975 258H140.622L133.796 236.672H130.676L123.732 258H127.395L128.845 253.093H135.539ZM129.738 250.075L132.229 241.638L134.675 250.075H129.738ZM146.145 249.328V249.577C146.145 250.974 146.252 252.282 146.467 253.503C146.682 254.714 146.97 255.837 147.331 256.872C147.692 257.917 148.112 258.864 148.591 259.714C149.079 260.573 149.592 261.335 150.129 261.999C150.666 262.663 151.213 263.225 151.77 263.684C152.326 264.152 152.863 264.514 153.381 264.768L154.084 262.805C153.693 262.502 153.303 262.126 152.912 261.677C152.521 261.228 152.146 260.71 151.784 260.124C151.433 259.548 151.105 258.884 150.803 258.132C150.5 257.38 150.231 256.564 149.997 255.686C149.812 254.953 149.65 254.064 149.514 253.02C149.377 251.965 149.309 250.827 149.309 249.606V249.299C149.309 248.049 149.377 246.887 149.514 245.812C149.66 244.738 149.855 243.757 150.1 242.868C150.363 241.921 150.676 241.047 151.037 240.246C151.408 239.445 151.804 238.747 152.224 238.151C152.526 237.731 152.834 237.355 153.146 237.023C153.459 236.691 153.771 236.408 154.084 236.174L153.381 234.138C152.863 234.392 152.326 234.753 151.77 235.222C151.213 235.681 150.671 236.242 150.144 236.906C149.606 237.57 149.094 238.332 148.605 239.191C148.127 240.051 147.702 240.993 147.331 242.019C146.97 243.063 146.682 244.201 146.467 245.432C146.252 246.652 146.145 247.951 146.145 249.328ZM174.987 249.87V244.816C174.987 243.449 174.826 242.243 174.504 241.198C174.182 240.144 173.728 239.255 173.142 238.532C172.536 237.819 171.804 237.282 170.944 236.921C170.095 236.55 169.128 236.364 168.044 236.364C166.97 236.364 166.003 236.55 165.144 236.921C164.294 237.282 163.571 237.819 162.976 238.532C162.38 239.255 161.921 240.144 161.599 241.198C161.286 242.243 161.13 243.449 161.13 244.816V249.87C161.13 251.237 161.286 252.448 161.599 253.503C161.921 254.548 162.385 255.427 162.99 256.14C163.586 256.853 164.313 257.395 165.173 257.766C166.032 258.127 166.999 258.308 168.073 258.308C169.157 258.308 170.124 258.127 170.974 257.766C171.833 257.395 172.556 256.853 173.142 256.14C173.737 255.427 174.191 254.548 174.504 253.503C174.826 252.448 174.987 251.237 174.987 249.87ZM164.646 248.625C164.646 248.342 164.646 248.103 164.646 247.907C164.646 247.712 164.646 247.429 164.646 247.058V244.187C164.646 243.308 164.724 242.546 164.88 241.901C165.036 241.247 165.275 240.715 165.598 240.305C165.871 239.943 166.213 239.67 166.623 239.484C167.033 239.299 167.507 239.206 168.044 239.206C168.552 239.206 169.001 239.284 169.392 239.44C169.782 239.597 170.114 239.831 170.388 240.144C170.7 240.495 170.939 240.949 171.105 241.506C171.281 242.062 171.389 242.722 171.428 243.483L164.646 248.625ZM171.457 250.456C171.457 251.354 171.379 252.136 171.223 252.8C171.066 253.464 170.822 254.001 170.49 254.411C170.207 254.763 169.865 255.031 169.465 255.217C169.064 255.393 168.601 255.48 168.073 255.48C167.536 255.48 167.062 255.388 166.652 255.202C166.252 255.017 165.915 254.738 165.642 254.367C165.368 254.025 165.148 253.596 164.982 253.078C164.826 252.561 164.724 251.965 164.675 251.291L171.457 246.179C171.457 246.462 171.457 246.735 171.457 246.999C171.457 247.253 171.457 247.507 171.457 247.761V250.456ZM187.043 257.546V254.587H183.601V257.678C183.601 258.645 183.483 259.514 183.249 260.285C183.024 261.057 182.702 261.789 182.282 262.482L184.245 263.522C185.085 262.771 185.759 261.848 186.267 260.754C186.784 259.67 187.043 258.601 187.043 257.546ZM211.022 249.87V244.816C211.022 243.449 210.861 242.243 210.539 241.198C210.217 240.144 209.763 239.255 209.177 238.532C208.571 237.819 207.839 237.282 206.979 236.921C206.13 236.55 205.163 236.364 204.079 236.364C203.005 236.364 202.038 236.55 201.179 236.921C200.329 237.282 199.606 237.819 199.011 238.532C198.415 239.255 197.956 240.144 197.634 241.198C197.321 242.243 197.165 243.449 197.165 244.816V249.87C197.165 251.237 197.321 252.448 197.634 253.503C197.956 254.548 198.42 255.427 199.025 256.14C199.621 256.853 200.349 257.395 201.208 257.766C202.067 258.127 203.034 258.308 204.108 258.308C205.192 258.308 206.159 258.127 207.009 257.766C207.868 257.395 208.591 256.853 209.177 256.14C209.772 255.427 210.227 254.548 210.539 253.503C210.861 252.448 211.022 251.237 211.022 249.87ZM200.681 248.625C200.681 248.342 200.681 248.103 200.681 247.907C200.681 247.712 200.681 247.429 200.681 247.058V244.187C200.681 243.308 200.759 242.546 200.915 241.901C201.071 241.247 201.311 240.715 201.633 240.305C201.906 239.943 202.248 239.67 202.658 239.484C203.068 239.299 203.542 239.206 204.079 239.206C204.587 239.206 205.036 239.284 205.427 239.44C205.817 239.597 206.149 239.831 206.423 240.144C206.735 240.495 206.975 240.949 207.141 241.506C207.316 242.062 207.424 242.722 207.463 243.483L200.681 248.625ZM207.492 250.456C207.492 251.354 207.414 252.136 207.258 252.8C207.102 253.464 206.857 254.001 206.525 254.411C206.242 254.763 205.9 255.031 205.5 255.217C205.1 255.393 204.636 255.48 204.108 255.48C203.571 255.48 203.098 255.388 202.688 255.202C202.287 255.017 201.95 254.738 201.677 254.367C201.403 254.025 201.184 253.596 201.018 253.078C200.861 252.561 200.759 251.965 200.71 251.291L207.492 246.179C207.492 246.462 207.492 246.735 207.492 246.999C207.492 247.253 207.492 247.507 207.492 247.761V250.456ZM225.803 249.577V249.328C225.803 247.932 225.69 246.638 225.466 245.446C225.241 244.245 224.948 243.127 224.587 242.092C224.226 241.047 223.801 240.1 223.312 239.25C222.824 238.391 222.302 237.619 221.745 236.936C221.208 236.271 220.651 235.705 220.075 235.236C219.509 234.758 218.962 234.392 218.435 234.138L217.746 236.101C218.049 236.335 218.356 236.628 218.669 236.979C218.991 237.321 219.299 237.712 219.592 238.151C220.012 238.767 220.412 239.494 220.793 240.334C221.184 241.174 221.516 242.121 221.789 243.176C221.994 243.986 222.165 244.904 222.302 245.93C222.438 246.955 222.507 248.078 222.507 249.299V249.606C222.507 250.788 222.443 251.887 222.316 252.902C222.199 253.918 222.033 254.855 221.818 255.715C221.594 256.643 221.315 257.487 220.983 258.249C220.661 259.021 220.314 259.709 219.943 260.314C219.592 260.861 219.23 261.345 218.859 261.765C218.488 262.185 218.117 262.531 217.746 262.805L218.435 264.768C218.962 264.514 219.509 264.152 220.075 263.684C220.642 263.215 221.198 262.639 221.745 261.955C222.292 261.291 222.81 260.529 223.298 259.67C223.786 258.811 224.216 257.858 224.587 256.813C224.958 255.778 225.251 254.655 225.466 253.444C225.69 252.233 225.803 250.944 225.803 249.577Z" fill="#FF7D7C"/>
<path d="M1066.06 207.061C1066.65 206.475 1066.65 205.525 1066.06 204.939L1056.51 195.393C1055.93 194.808 1054.98 194.808 1054.39 195.393C1053.81 195.979 1053.81 196.929 1054.39 197.515L1062.88 206L1054.39 214.485C1053.81 215.071 1053.81 216.021 1054.39 216.607C1054.98 217.192 1055.93 217.192 1056.51 216.607L1066.06 207.061ZM710 207.5H1065V204.5H710V207.5Z" fill="#3E2D4A" fill-opacity="0.28"/>
<path d="M711.061 4.93933C710.475 4.35355 709.525 4.35355 708.939 4.93933L699.393 14.4853C698.808 15.0711 698.808 16.0208 699.393 16.6066C699.979 17.1924 700.929 17.1924 701.515 16.6066L710 8.12131L718.485 16.6066C719.071 17.1924 720.021 17.1924 720.607 16.6066C721.192 16.0208 721.192 15.0711 720.607 14.4853L711.061 4.93933ZM711.5 206L711.5 5.99999L708.5 5.99999L708.5 206L711.5 206Z" fill="#3E2D4A" fill-opacity="0.28"/>
<path d="M709.916 204.029L704.889 196.98H701.127L708.211 206.385L700.934 216H704.73L709.986 208.758L715.242 216H719.004L711.727 206.385L718.811 196.98H714.996L709.916 204.029Z" fill="#FF7D7C"/>
<path d="M1007.92 204.029L1002.89 196.98H999.127L1006.21 206.385L998.934 216H1002.73L1007.99 208.758L1013.24 216H1017L1009.73 206.385L1016.81 196.98H1013L1007.92 204.029Z" fill="#FF7D7C"/>
<path d="M668.539 253.093L669.975 258H673.622L666.796 236.672H663.676L656.732 258H660.395L661.845 253.093H668.539ZM662.738 250.075L665.229 241.638L667.675 250.075H662.738ZM679.145 249.328V249.577C679.145 250.974 679.252 252.282 679.467 253.503C679.682 254.714 679.97 255.837 680.331 256.872C680.692 257.917 681.112 258.864 681.591 259.714C682.079 260.573 682.592 261.335 683.129 261.999C683.666 262.663 684.213 263.225 684.77 263.684C685.326 264.152 685.863 264.514 686.381 264.768L687.084 262.805C686.693 262.502 686.303 262.126 685.912 261.677C685.521 261.228 685.146 260.71 684.784 260.124C684.433 259.548 684.105 258.884 683.803 258.132C683.5 257.38 683.231 256.564 682.997 255.686C682.812 254.953 682.65 254.064 682.514 253.02C682.377 251.965 682.309 250.827 682.309 249.606V249.299C682.309 248.049 682.377 246.887 682.514 245.812C682.66 244.738 682.855 243.757 683.1 242.868C683.363 241.921 683.676 241.047 684.037 240.246C684.408 239.445 684.804 238.747 685.224 238.151C685.526 237.731 685.834 237.355 686.146 237.023C686.459 236.691 686.771 236.408 687.084 236.174L686.381 234.138C685.863 234.392 685.326 234.753 684.77 235.222C684.213 235.681 683.671 236.242 683.144 236.906C682.606 237.57 682.094 238.332 681.605 239.191C681.127 240.051 680.702 240.993 680.331 242.019C679.97 243.063 679.682 244.201 679.467 245.432C679.252 246.652 679.145 247.951 679.145 249.328ZM707.987 249.87V244.816C707.987 243.449 707.826 242.243 707.504 241.198C707.182 240.144 706.728 239.255 706.142 238.532C705.536 237.819 704.804 237.282 703.944 236.921C703.095 236.55 702.128 236.364 701.044 236.364C699.97 236.364 699.003 236.55 698.144 236.921C697.294 237.282 696.571 237.819 695.976 238.532C695.38 239.255 694.921 240.144 694.599 241.198C694.286 242.243 694.13 243.449 694.13 244.816V249.87C694.13 251.237 694.286 252.448 694.599 253.503C694.921 254.548 695.385 255.427 695.99 256.14C696.586 256.853 697.313 257.395 698.173 257.766C699.032 258.127 699.999 258.308 701.073 258.308C702.157 258.308 703.124 258.127 703.974 257.766C704.833 257.395 705.556 256.853 706.142 256.14C706.737 255.427 707.191 254.548 707.504 253.503C707.826 252.448 707.987 251.237 707.987 249.87ZM697.646 248.625C697.646 248.342 697.646 248.103 697.646 247.907C697.646 247.712 697.646 247.429 697.646 247.058V244.187C697.646 243.308 697.724 242.546 697.88 241.901C698.036 241.247 698.275 240.715 698.598 240.305C698.871 239.943 699.213 239.67 699.623 239.484C700.033 239.299 700.507 239.206 701.044 239.206C701.552 239.206 702.001 239.284 702.392 239.44C702.782 239.597 703.114 239.831 703.388 240.144C703.7 240.495 703.939 240.949 704.105 241.506C704.281 242.062 704.389 242.722 704.428 243.483L697.646 248.625ZM704.457 250.456C704.457 251.354 704.379 252.136 704.223 252.8C704.066 253.464 703.822 254.001 703.49 254.411C703.207 254.763 702.865 255.031 702.465 255.217C702.064 255.393 701.601 255.48 701.073 255.48C700.536 255.48 700.062 255.388 699.652 255.202C699.252 255.017 698.915 254.738 698.642 254.367C698.368 254.025 698.148 253.596 697.982 253.078C697.826 252.561 697.724 251.965 697.675 251.291L704.457 246.179C704.457 246.462 704.457 246.735 704.457 246.999C704.457 247.253 704.457 247.507 704.457 247.761V250.456ZM720.043 257.546V254.587H716.601V257.678C716.601 258.645 716.483 259.514 716.249 260.285C716.024 261.057 715.702 261.789 715.282 262.482L717.245 263.522C718.085 262.771 718.759 261.848 719.267 260.754C719.784 259.67 720.043 258.601 720.043 257.546ZM744.022 249.87V244.816C744.022 243.449 743.861 242.243 743.539 241.198C743.217 240.144 742.763 239.255 742.177 238.532C741.571 237.819 740.839 237.282 739.979 236.921C739.13 236.55 738.163 236.364 737.079 236.364C736.005 236.364 735.038 236.55 734.179 236.921C733.329 237.282 732.606 237.819 732.011 238.532C731.415 239.255 730.956 240.144 730.634 241.198C730.321 242.243 730.165 243.449 730.165 244.816V249.87C730.165 251.237 730.321 252.448 730.634 253.503C730.956 254.548 731.42 255.427 732.025 256.14C732.621 256.853 733.349 257.395 734.208 257.766C735.067 258.127 736.034 258.308 737.108 258.308C738.192 258.308 739.159 258.127 740.009 257.766C740.868 257.395 741.591 256.853 742.177 256.14C742.772 255.427 743.227 254.548 743.539 253.503C743.861 252.448 744.022 251.237 744.022 249.87ZM733.681 248.625C733.681 248.342 733.681 248.103 733.681 247.907C733.681 247.712 733.681 247.429 733.681 247.058V244.187C733.681 243.308 733.759 242.546 733.915 241.901C734.071 241.247 734.311 240.715 734.633 240.305C734.906 239.943 735.248 239.67 735.658 239.484C736.068 239.299 736.542 239.206 737.079 239.206C737.587 239.206 738.036 239.284 738.427 239.44C738.817 239.597 739.149 239.831 739.423 240.144C739.735 240.495 739.975 240.949 740.141 241.506C740.316 242.062 740.424 242.722 740.463 243.483L733.681 248.625ZM740.492 250.456C740.492 251.354 740.414 252.136 740.258 252.8C740.102 253.464 739.857 254.001 739.525 254.411C739.242 254.763 738.9 255.031 738.5 255.217C738.1 255.393 737.636 255.48 737.108 255.48C736.571 255.48 736.098 255.388 735.688 255.202C735.287 255.017 734.95 254.738 734.677 254.367C734.403 254.025 734.184 253.596 734.018 253.078C733.861 252.561 733.759 251.965 733.71 251.291L740.492 246.179C740.492 246.462 740.492 246.735 740.492 246.999C740.492 247.253 740.492 247.507 740.492 247.761V250.456ZM758.803 249.577V249.328C758.803 247.932 758.69 246.638 758.466 245.446C758.241 244.245 757.948 243.127 757.587 242.092C757.226 241.047 756.801 240.1 756.312 239.25C755.824 238.391 755.302 237.619 754.745 236.936C754.208 236.271 753.651 235.705 753.075 235.236C752.509 234.758 751.962 234.392 751.435 234.138L750.746 236.101C751.049 236.335 751.356 236.628 751.669 236.979C751.991 237.321 752.299 237.712 752.592 238.151C753.012 238.767 753.412 239.494 753.793 240.334C754.184 241.174 754.516 242.121 754.789 243.176C754.994 243.986 755.165 244.904 755.302 245.93C755.438 246.955 755.507 248.078 755.507 249.299V249.606C755.507 250.788 755.443 251.887 755.316 252.902C755.199 253.918 755.033 254.855 754.818 255.715C754.594 256.643 754.315 257.487 753.983 258.249C753.661 259.021 753.314 259.709 752.943 260.314C752.592 260.861 752.23 261.345 751.859 261.765C751.488 262.185 751.117 262.531 750.746 262.805L751.435 264.768C751.962 264.514 752.509 264.152 753.075 263.684C753.642 263.215 754.198 262.639 754.745 261.955C755.292 261.291 755.81 260.529 756.298 259.67C756.786 258.811 757.216 257.858 757.587 256.813C757.958 255.778 758.251 254.655 758.466 253.444C758.69 252.233 758.803 250.944 758.803 249.577Z" fill="#FF7D7C"/>
<path d="M956.153 258H963.536C964.591 258 965.567 257.868 966.466 257.604C967.374 257.331 968.155 256.931 968.81 256.403C969.464 255.886 969.977 255.241 970.348 254.47C970.719 253.698 970.899 252.805 970.89 251.789C970.89 251.213 970.807 250.666 970.641 250.148C970.484 249.621 970.25 249.143 969.938 248.713C969.635 248.312 969.259 247.956 968.81 247.644C968.36 247.321 967.818 247.077 967.184 246.911V246.882C967.613 246.706 967.989 246.511 968.312 246.296C968.644 246.071 968.941 245.812 969.205 245.52C969.576 245.119 969.859 244.66 970.055 244.143C970.26 243.615 970.367 243.049 970.377 242.443C970.377 241.447 970.187 240.588 969.806 239.865C969.435 239.133 968.917 238.532 968.253 238.063C967.589 237.595 966.803 237.248 965.895 237.023C964.986 236.789 964.015 236.672 962.979 236.672H956.153V258ZM959.698 248.361H963.741C964.317 248.371 964.83 248.459 965.279 248.625C965.729 248.781 966.109 249.006 966.422 249.299C966.734 249.592 966.969 249.948 967.125 250.368C967.281 250.778 967.359 251.252 967.359 251.789C967.359 252.297 967.262 252.761 967.066 253.181C966.881 253.591 966.612 253.938 966.261 254.221C965.938 254.494 965.548 254.709 965.089 254.865C964.63 255.021 964.122 255.1 963.565 255.1H959.698V248.361ZM959.698 245.681V239.587H963.023C963.629 239.597 964.181 239.67 964.679 239.807C965.177 239.934 965.592 240.144 965.924 240.437C966.217 240.671 966.441 240.974 966.598 241.345C966.764 241.706 966.847 242.136 966.847 242.634C966.847 243.103 966.759 243.518 966.583 243.879C966.407 244.24 966.168 244.548 965.865 244.802C965.533 245.085 965.123 245.3 964.635 245.446C964.156 245.593 963.629 245.671 963.053 245.681H959.698ZM977.145 249.328V249.577C977.145 250.974 977.252 252.282 977.467 253.503C977.682 254.714 977.97 255.837 978.331 256.872C978.692 257.917 979.112 258.864 979.591 259.714C980.079 260.573 980.592 261.335 981.129 261.999C981.666 262.663 982.213 263.225 982.77 263.684C983.326 264.152 983.863 264.514 984.381 264.768L985.084 262.805C984.693 262.502 984.303 262.126 983.912 261.677C983.521 261.228 983.146 260.71 982.784 260.124C982.433 259.548 982.105 258.884 981.803 258.132C981.5 257.38 981.231 256.564 980.997 255.686C980.812 254.953 980.65 254.064 980.514 253.02C980.377 251.965 980.309 250.827 980.309 249.606V249.299C980.309 248.049 980.377 246.887 980.514 245.812C980.66 244.738 980.855 243.757 981.1 242.868C981.363 241.921 981.676 241.047 982.037 240.246C982.408 239.445 982.804 238.747 983.224 238.151C983.526 237.731 983.834 237.355 984.146 237.023C984.459 236.691 984.771 236.408 985.084 236.174L984.381 234.138C983.863 234.392 983.326 234.753 982.77 235.222C982.213 235.681 981.671 236.242 981.144 236.906C980.606 237.57 980.094 238.332 979.605 239.191C979.127 240.051 978.702 240.993 978.331 242.019C977.97 243.063 977.682 244.201 977.467 245.432C977.252 246.652 977.145 247.951 977.145 249.328ZM1005.88 258V255.173H995.953L1000.7 250.104C1001.32 249.44 1001.9 248.796 1002.43 248.171C1002.96 247.546 1003.43 246.926 1003.82 246.311C1004.2 245.695 1004.5 245.075 1004.71 244.45C1004.94 243.815 1005.05 243.161 1005.05 242.487C1005.05 241.589 1004.9 240.769 1004.61 240.026C1004.32 239.274 1003.89 238.63 1003.34 238.093C1002.77 237.556 1002.07 237.136 1001.24 236.833C1000.42 236.53 999.488 236.379 998.443 236.379C997.33 236.379 996.319 236.56 995.411 236.921C994.513 237.282 993.751 237.771 993.126 238.386C992.491 239.001 992.003 239.724 991.661 240.554C991.319 241.374 991.148 242.248 991.148 243.176H994.664C994.664 242.561 994.742 242.014 994.898 241.535C995.055 241.047 995.289 240.637 995.602 240.305C995.904 239.973 996.285 239.719 996.744 239.543C997.203 239.367 997.745 239.279 998.37 239.279C998.858 239.279 999.298 239.362 999.688 239.528C1000.09 239.694 1000.43 239.924 1000.71 240.217C1001 240.51 1001.21 240.861 1001.36 241.271C1001.5 241.682 1001.58 242.136 1001.58 242.634C1001.58 243.005 1001.52 243.376 1001.42 243.747C1001.32 244.108 1001.15 244.499 1000.92 244.919C1000.67 245.339 1000.36 245.803 999.967 246.311C999.576 246.809 999.093 247.375 998.517 248.01L991.573 255.568V258H1005.88ZM1018.04 257.546V254.587H1014.6V257.678C1014.6 258.645 1014.48 259.514 1014.25 260.285C1014.02 261.057 1013.7 261.789 1013.28 262.482L1015.25 263.522C1016.08 262.771 1016.76 261.848 1017.27 260.754C1017.78 259.67 1018.04 258.601 1018.04 257.546ZM1042.02 249.87V244.816C1042.02 243.449 1041.86 242.243 1041.54 241.198C1041.22 240.144 1040.76 239.255 1040.18 238.532C1039.57 237.819 1038.84 237.282 1037.98 236.921C1037.13 236.55 1036.16 236.364 1035.08 236.364C1034 236.364 1033.04 236.55 1032.18 236.921C1031.33 237.282 1030.61 237.819 1030.01 238.532C1029.42 239.255 1028.96 240.144 1028.63 241.198C1028.32 242.243 1028.17 243.449 1028.17 244.816V249.87C1028.17 251.237 1028.32 252.448 1028.63 253.503C1028.96 254.548 1029.42 255.427 1030.03 256.14C1030.62 256.853 1031.35 257.395 1032.21 257.766C1033.07 258.127 1034.03 258.308 1035.11 258.308C1036.19 258.308 1037.16 258.127 1038.01 257.766C1038.87 257.395 1039.59 256.853 1040.18 256.14C1040.77 255.427 1041.23 254.548 1041.54 253.503C1041.86 252.448 1042.02 251.237 1042.02 249.87ZM1031.68 248.625C1031.68 248.342 1031.68 248.103 1031.68 247.907C1031.68 247.712 1031.68 247.429 1031.68 247.058V244.187C1031.68 243.308 1031.76 242.546 1031.92 241.901C1032.07 241.247 1032.31 240.715 1032.63 240.305C1032.91 239.943 1033.25 239.67 1033.66 239.484C1034.07 239.299 1034.54 239.206 1035.08 239.206C1035.59 239.206 1036.04 239.284 1036.43 239.44C1036.82 239.597 1037.15 239.831 1037.42 240.144C1037.74 240.495 1037.97 240.949 1038.14 241.506C1038.32 242.062 1038.42 242.722 1038.46 243.483L1031.68 248.625ZM1038.49 250.456C1038.49 251.354 1038.41 252.136 1038.26 252.8C1038.1 253.464 1037.86 254.001 1037.53 254.411C1037.24 254.763 1036.9 255.031 1036.5 255.217C1036.1 255.393 1035.64 255.48 1035.11 255.48C1034.57 255.48 1034.1 255.388 1033.69 255.202C1033.29 255.017 1032.95 254.738 1032.68 254.367C1032.4 254.025 1032.18 253.596 1032.02 253.078C1031.86 252.561 1031.76 251.965 1031.71 251.291L1038.49 246.179C1038.49 246.462 1038.49 246.735 1038.49 246.999C1038.49 247.253 1038.49 247.507 1038.49 247.761V250.456ZM1056.8 249.577V249.328C1056.8 247.932 1056.69 246.638 1056.47 245.446C1056.24 244.245 1055.95 243.127 1055.59 242.092C1055.23 241.047 1054.8 240.1 1054.31 239.25C1053.82 238.391 1053.3 237.619 1052.75 236.936C1052.21 236.271 1051.65 235.705 1051.08 235.236C1050.51 234.758 1049.96 234.392 1049.43 234.138L1048.75 236.101C1049.05 236.335 1049.36 236.628 1049.67 236.979C1049.99 237.321 1050.3 237.712 1050.59 238.151C1051.01 238.767 1051.41 239.494 1051.79 240.334C1052.18 241.174 1052.52 242.121 1052.79 243.176C1052.99 243.986 1053.17 244.904 1053.3 245.93C1053.44 246.955 1053.51 248.078 1053.51 249.299V249.606C1053.51 250.788 1053.44 251.887 1053.32 252.902C1053.2 253.918 1053.03 254.855 1052.82 255.715C1052.59 256.643 1052.32 257.487 1051.98 258.249C1051.66 259.021 1051.31 259.709 1050.94 260.314C1050.59 260.861 1050.23 261.345 1049.86 261.765C1049.49 262.185 1049.12 262.531 1048.75 262.805L1049.43 264.768C1049.96 264.514 1050.51 264.152 1051.08 263.684C1051.64 263.215 1052.2 262.639 1052.75 261.955C1053.29 261.291 1053.81 260.529 1054.3 259.67C1054.79 258.811 1055.22 257.858 1055.59 256.813C1055.96 255.778 1056.25 254.655 1056.47 253.444C1056.69 252.233 1056.8 250.944 1056.8 249.577Z" fill="#FF7D7C"/>
<line x1="325" y1="199" x2="325" y2="214" stroke="#C9BEC6" stroke-width="2"/>
<line x1="169" y1="55" x2="183" y2="55" stroke="#C9BEC6" stroke-width="2"/>
<path d="M326.07 239V221.938H325.895L319.438 224.422V226.402L323.902 224.703V239H326.07Z" fill="#C9BEC6"/>
<path d="M160.07 64V46.9375H159.895L153.438 49.4219V51.4023L157.902 49.7031V64H160.07Z" fill="#C9BEC6"/>
<line x1="703" y1="55" x2="717" y2="55" stroke="#C9BEC6" stroke-width="2"/>
<path d="M694.07 64V46.9375H693.895L687.438 49.4219V51.4023L691.902 49.7031V64H694.07Z" fill="#C9BEC6"/>
<line x1="860" y1="199" x2="860" y2="214" stroke="#C9BEC6" stroke-width="2"/>
<path d="M861.07 239V221.938H860.895L854.438 224.422V226.402L858.902 224.703V239H861.07Z" fill="#C9BEC6"/>
<line x1="475" y1="199" x2="475" y2="214" stroke="#C9BEC6" stroke-width="2"/>
<path d="M479.504 239V237.23H470.938L475.52 232.262C475.949 231.793 476.355 231.324 476.738 230.855C477.129 230.379 477.473 229.898 477.77 229.414C478.059 228.93 478.289 228.441 478.461 227.949C478.633 227.449 478.719 226.945 478.719 226.438C478.719 225.758 478.598 225.129 478.355 224.551C478.121 223.973 477.781 223.473 477.336 223.051C476.891 222.629 476.344 222.301 475.695 222.066C475.055 221.824 474.332 221.703 473.527 221.703C472.652 221.703 471.871 221.844 471.184 222.125C470.504 222.406 469.93 222.785 469.461 223.262C468.984 223.738 468.621 224.297 468.371 224.938C468.121 225.57 467.996 226.246 467.996 226.965H470.176C470.176 226.434 470.242 225.953 470.375 225.523C470.516 225.094 470.727 224.727 471.008 224.422C471.281 224.125 471.625 223.895 472.039 223.73C472.461 223.566 472.957 223.484 473.527 223.484C473.996 223.484 474.414 223.566 474.781 223.73C475.156 223.887 475.477 224.102 475.742 224.375C476 224.648 476.195 224.973 476.328 225.348C476.469 225.715 476.539 226.109 476.539 226.531C476.539 226.875 476.496 227.211 476.41 227.539C476.324 227.859 476.18 228.199 475.977 228.559C475.773 228.926 475.504 229.324 475.168 229.754C474.832 230.184 474.414 230.676 473.914 231.23L468.324 237.441V239H479.504Z" fill="#C9BEC6"/>
</svg>
