<svg id="logosandtypes_com" xmlns="http://www.w3.org/2000/svg" viewBox="0 0 150 150.2"><path d="M0 .2h150v150H0V.2z" fill="none"/><g><path d="M130.1 47.5l.5 1.2c3.7 8.1 5.5 16.6 5.5 25.4 0 33.7-27.5 61.2-61.2 61.2s-61.2-27.5-61.2-61.2 27.5-61.2 61.2-61.2c9.9 0 19.3 2.3 28 6.7l1.2.6-1 .8c-2.5 2-4.4 4.5-5.7 7.4l-.3.8-.7-.3c-6.8-3.2-14-4.9-21.5-4.9-27.6 0-50 22.4-50 50s22.4 50 50 50 50-22.5 50-50c0-6.6-1.2-13.1-3.8-19.1l-.3-.8.8-.3c2.9-1.1 5.6-2.9 7.7-5.2l.8-1.1zM115 48.6c7 0 12.7-5.7 12.7-12.7 0-7-5.7-12.7-12.7-12.7-7 0-12.7 5.7-12.7 12.7-.1 7 5.6 12.7 12.7 12.7zm-40.1-2.5C59.5 46.1 47 58.6 47 74c0 15.4 12.5 27.9 27.9 27.9s27.9-12.5 27.9-27.9c0-15.4-12.5-27.9-27.9-27.9z" fill-rule="evenodd" clip-rule="evenodd" fill="#4e8ef7"/></g></svg>