<?xml version="1.0" encoding="UTF-8" standalone="no"?>
<svg
   xmlns:dc="http://purl.org/dc/elements/1.1/"
   xmlns:cc="http://creativecommons.org/ns#"
   xmlns:rdf="http://www.w3.org/1999/02/22-rdf-syntax-ns#"
   xmlns:svg="http://www.w3.org/2000/svg"
   xmlns="http://www.w3.org/2000/svg"
   xmlns:sodipodi="http://sodipodi.sourceforge.net/DTD/sodipodi-0.dtd"
   xmlns:inkscape="http://www.inkscape.org/namespaces/inkscape"
   version="1.1"
   id="svg2"
   xml:space="preserve"
   width="880.24316"
   height="612.6059"
   viewBox="0 0 880.24316 612.6059"
   sodipodi:docname="showtime_logo.svg"
   inkscape:version="1.0 (4035a4fb49, 2020-05-01)"><metadata
     id="metadata8"><rdf:RDF><cc:Work
         rdf:about=""><dc:format>image/svg+xml</dc:format><dc:type
           rdf:resource="http://purl.org/dc/dcmitype/StillImage" /><dc:title></dc:title></cc:Work></rdf:RDF></metadata><defs
     id="defs6"><rect
       id="rect1129"
       height="356.64737"
       width="381.42685"
       y="361.07227"
       x="384.96677" /><rect
       id="rect1119"
       height="130.9772"
       width="123.01237"
       y="481.42969"
       x="518.59894" /><rect
       id="rect1113"
       height="318.5932"
       width="327.44299"
       y="349.5675"
       x="355.76239" /><rect
       id="rect42"
       height="25.031046"
       width="85.731323"
       y="175.84309"
       x="278.47037" /></defs><sodipodi:namedview
     fit-margin-bottom="0"
     fit-margin-right="0"
     fit-margin-left="0"
     lock-margins="false"
     fit-margin-top="0"
     inkscape:document-rotation="0"
     pagecolor="#ffffff"
     bordercolor="#666666"
     borderopacity="1"
     objecttolerance="10"
     gridtolerance="10"
     guidetolerance="10"
     inkscape:pageopacity="0"
     inkscape:pageshadow="2"
     inkscape:window-width="2560"
     inkscape:window-height="1377"
     id="namedview4"
     showgrid="false"
     inkscape:zoom="0.79900782"
     inkscape:cx="241.94574"
     inkscape:cy="402.52587"
     inkscape:window-x="-8"
     inkscape:window-y="-8"
     inkscape:window-maximized="1"
     inkscape:current-layer="layer1" /><g
     transform="translate(-59.878405,-193.69703)"
     inkscape:groupmode="layer"
     id="layer1"
     inkscape:label="background"><path
       sodipodi:type="star"
       style="fill:none;fill-opacity:1;stroke:#73c82c;stroke-width:10;stroke-miterlimit:4;stroke-dasharray:none;stroke-opacity:1"
       id="path29"
       sodipodi:sides="10"
       sodipodi:cx="498.1178"
       sodipodi:cy="499.36935"
       sodipodi:r1="264.83566"
       sodipodi:r2="251.87369"
       sodipodi:arg1="0"
       sodipodi:arg2="0.31415927"
       inkscape:flatsided="true"
       inkscape:rounded="0"
       inkscape:randomized="0"
       d="m 762.95346,499.36935 -50.57911,155.6665 -132.41783,96.20719 H 416.27908 l -132.41783,-96.20719 -50.57911,-155.6665 50.57911,-155.66649 132.41783,-96.20719 163.67744,0 132.41783,96.20719 z" /><g
       style="font-size:18.6667px;line-height:1.25;font-family:'HTWBerlin Office';-inkscape-font-specification:'HTWBerlin Office';white-space:pre;shape-inside:url(#rect42)"
       id="text40"
       transform="translate(73.841582,39.795681)"
       aria-label="Hexarcade"><path
         id="path80"
         style="shape-inside:url(#rect42)"
         d="m 280.02004,179.50242 h 1.49334 v 5.37601 h 5.07734 v -5.37601 h 1.49333 v 12.18936 h -1.49333 v -5.45068 h -5.07734 v 5.45068 h -1.49334 z" /><path
         id="path82"
         style="shape-inside:url(#rect42)"
         d="m 292.20298,185.30777 q -0.0373,0.224 -0.056,0.52266 -0.0187,0.28001 -0.0187,0.59734 h 4.06934 v -0.392 q 0,-0.24267 -0.0187,-0.42934 -0.0187,-0.20533 -0.056,-0.46666 -0.13066,-0.69067 -0.616,-1.15734 -0.46666,-0.46667 -1.30667,-0.46667 -0.85866,0 -1.36266,0.48534 -0.48534,0.46667 -0.63467,1.30667 z m 5.26401,5.02134 q -0.48534,0.728 -1.30667,1.13867 -0.82134,0.41067 -1.82934,0.41067 -1.41867,0 -2.31467,-0.72801 -0.87733,-0.728 -1.176,-1.904 -0.112,-0.46667 -0.14933,-0.93333 -0.0187,-0.48534 -0.0187,-1.26934 0,-0.76533 0.0187,-1.25067 0.0373,-0.48533 0.14933,-0.952 0.28,-1.176 1.15733,-1.904 0.87734,-0.72801 2.24001,-0.72801 1.36267,0 2.184,0.70934 0.82134,0.70933 1.10134,1.94134 0.0747,0.29866 0.0933,0.728 0.0373,0.42933 0.0373,0.97067 0,0.26133 -0.0187,0.56 0,0.28 -0.0187,0.59733 h -5.48801 q 0.0187,0.29867 0.0373,0.56 0.0187,0.26134 0.056,0.48534 0.14934,0.82133 0.69067,1.32533 0.56,0.48534 1.45601,0.48534 0.70933,0 1.26933,-0.336 0.56,-0.336 0.87734,-0.87734 z" /><path
         id="path84"
         style="shape-inside:url(#rect42)"
         d="m 300.94687,191.69178 h -1.41867 v -0.82134 q 0,-0.336 0.056,-0.65333 0.056,-0.336 0.20533,-0.672 0.168,-0.35467 0.42934,-0.70934 0.26133,-0.37333 0.672,-0.784 l 1.08267,-1.10133 -0.82134,-0.84 q -0.82133,-0.82134 -1.12,-1.49334 -0.28,-0.69067 -0.28,-1.4 v -0.80267 h 1.41867 v 0.80267 q 0,0.57866 0.31733,1.13867 0.31734,0.54133 1.00801,1.25066 l 0.41066,0.42934 0.42934,-0.42934 q 0.69066,-0.69066 0.98933,-1.25066 0.31734,-0.56001 0.31734,-1.13867 v -0.80267 h 1.41867 v 0.80267 q 0,0.70933 -0.31734,1.36267 -0.29867,0.63466 -1.10133,1.47467 l -0.84001,0.85866 1.13867,1.15734 q 0.784,0.80267 1.04534,1.456 0.28,0.65334 0.28,1.344 v 0.82134 h -1.41867 v -0.82134 q 0,-0.28 -0.056,-0.52266 -0.056,-0.26134 -0.20533,-0.54134 -0.14934,-0.28 -0.392,-0.57867 -0.24267,-0.31733 -0.61601,-0.69066 l -0.70933,-0.70934 -0.70934,0.70934 q -0.37333,0.37333 -0.616,0.69066 -0.224,0.29867 -0.37333,0.57867 -0.13067,0.28 -0.18667,0.54134 -0.0373,0.24266 -0.0373,0.52266 z" /><path
         id="path86"
         style="shape-inside:url(#rect42)"
         d="m 311.30747,190.45978 q 0.26133,0 0.52267,0 0.26133,-0.0187 0.448,-0.056 0.392,-0.0933 0.616,-0.42934 0.24267,-0.336 0.24267,-0.82133 0,-0.504 -0.24267,-0.82134 -0.224,-0.336 -0.616,-0.42933 -0.112,-0.0373 -0.37333,-0.0373 -0.24267,0 -0.59734,0 -0.336,0 -0.59733,0 -0.26134,0 -0.392,0.0373 -0.85867,0.20533 -0.85867,1.25067 0,0.48533 0.20533,0.82133 0.224,0.336 0.65334,0.42934 0.14933,0.0373 0.42933,0.056 0.29867,0 0.56,0 z m 1.08267,1.15733 q -0.29867,0.0933 -0.59733,0.13067 -0.29867,0.0373 -0.78401,0.0373 -0.46666,0 -0.76533,-0.0373 -0.28,-0.0187 -0.57867,-0.112 -0.70933,-0.20534 -1.19467,-0.85867 -0.46666,-0.65333 -0.46666,-1.64267 0,-0.952 0.46666,-1.568 0.48534,-0.616 1.19467,-0.82134 0.31734,-0.0933 0.672,-0.13066 0.37334,-0.0373 0.85867,-0.0373 0.48534,0 0.74667,0.0373 0.28,0.0373 0.59733,0.14933 0.18667,0.0747 0.31734,0.14933 0.14933,0.0747 0.26133,0.20534 v -1.79201 q 0,-0.85866 -0.504,-1.32533 -0.48533,-0.46667 -1.32534,-0.46667 -0.70933,0 -1.19466,0.35467 -0.48534,0.336 -0.72801,0.87733 l -1.10133,-0.76533 q 0.42933,-0.82134 1.13867,-1.30667 0.70933,-0.48534 1.99733,-0.48534 0.74667,0 1.32534,0.24267 0.59733,0.224 0.98934,0.63467 0.41066,0.41067 0.616,0.952 0.20533,0.54134 0.20533,1.15734 v 6.49601 h -1.19467 l -0.0933,-0.76534 q -0.29867,0.504 -0.85867,0.69067 z" /><path
         id="path88"
         style="shape-inside:url(#rect42)"
         d="m 318.76948,191.69178 h -1.41867 v -9.27735 h 1.19467 l 0.13067,1.13867 q 0.91467,-1.30667 2.44534,-1.30667 0.14933,0 0.26133,0 0.112,0 0.224,0.0187 v 1.51201 q -0.20533,-0.056 -0.42933,-0.0747 -0.224,-0.0187 -0.46667,-0.0187 -0.82133,0 -1.38133,0.54134 -0.56001,0.52267 -0.56001,1.60533 z" /><path
         id="path90"
         style="shape-inside:url(#rect42)"
         d="m 326.59491,191.87845 q -1.4,0 -2.27733,-0.72801 -0.85867,-0.728 -1.13867,-1.904 -0.112,-0.46667 -0.14934,-0.93333 -0.0187,-0.48534 -0.0187,-1.26934 0,-0.76533 0.0187,-1.25067 0.0373,-0.48533 0.14934,-0.952 0.26133,-1.15734 1.12,-1.88534 0.87733,-0.74667 2.22134,-0.74667 2.65067,0 3.192,2.31468 0.13067,0.52266 0.13067,1.232 h -1.4 q 0,-0.20534 -0.0187,-0.392 0,-0.20534 -0.0373,-0.392 -0.168,-0.70934 -0.63467,-1.08267 -0.46667,-0.37334 -1.26934,-0.37334 -0.84,0 -1.32533,0.48534 -0.46667,0.46667 -0.616,1.30667 -0.056,0.336 -0.0747,0.80267 0,0.448 0,0.93333 0,0.504 0,0.952 0.0187,0.42934 0.0747,0.74667 0.14933,0.84 0.672,1.344 0.54133,0.48534 1.41867,0.48534 0.70933,0 1.25067,-0.31734 0.54133,-0.336 0.84,-0.896 l 0.952,0.97067 q -0.48533,0.728 -1.288,1.13867 -0.784,0.41067 -1.79201,0.41067 z" /><path
         id="path92"
         style="shape-inside:url(#rect42)"
         d="m 334.75022,190.45978 q 0.26133,0 0.52267,0 0.26133,-0.0187 0.448,-0.056 0.392,-0.0933 0.616,-0.42934 0.24267,-0.336 0.24267,-0.82133 0,-0.504 -0.24267,-0.82134 -0.224,-0.336 -0.616,-0.42933 -0.112,-0.0373 -0.37334,-0.0373 -0.24266,0 -0.59733,0 -0.336,0 -0.59733,0 -0.26134,0 -0.39201,0.0373 -0.85866,0.20533 -0.85866,1.25067 0,0.48533 0.20533,0.82133 0.224,0.336 0.65333,0.42934 0.14934,0.0373 0.42934,0.056 0.29867,0 0.56,0 z m 1.08267,1.15733 q -0.29867,0.0933 -0.59734,0.13067 -0.29866,0.0373 -0.784,0.0373 -0.46666,0 -0.76533,-0.0373 -0.28,-0.0187 -0.57867,-0.112 -0.70933,-0.20534 -1.19467,-0.85867 -0.46667,-0.65333 -0.46667,-1.64267 0,-0.952 0.46667,-1.568 0.48534,-0.616 1.19467,-0.82134 0.31733,-0.0933 0.672,-0.13066 0.37334,-0.0373 0.85867,-0.0373 0.48533,0 0.74667,0.0373 0.28,0.0373 0.59733,0.14933 0.18667,0.0747 0.31734,0.14933 0.14933,0.0747 0.26133,0.20534 v -1.79201 q 0,-0.85866 -0.504,-1.32533 -0.48534,-0.46667 -1.32534,-0.46667 -0.70933,0 -1.19467,0.35467 -0.48533,0.336 -0.728,0.87733 l -1.10133,-0.76533 q 0.42933,-0.82134 1.13867,-1.30667 0.70933,-0.48534 1.99733,-0.48534 0.74667,0 1.32534,0.24267 0.59733,0.224 0.98933,0.63467 0.41067,0.41067 0.61601,0.952 0.20533,0.54134 0.20533,1.15734 v 6.49601 h -1.19467 l -0.0933,-0.76534 q -0.29867,0.504 -0.85867,0.69067 z" /><path
         id="path94"
         style="shape-inside:url(#rect42)"
         d="m 344.07891,190.53444 q 0.84,0 1.38133,-0.46666 0.54134,-0.48534 0.70934,-1.32534 0.0747,-0.31733 0.0933,-0.74667 0.0187,-0.448 0.0187,-0.952 0,-0.48533 -0.0187,-0.93333 -0.0187,-0.46667 -0.0933,-0.80267 -0.168,-0.84 -0.70934,-1.28801 -0.54133,-0.46666 -1.38133,-0.46666 -0.85867,0 -1.41867,0.448 -0.56,0.448 -0.70934,1.288 -0.056,0.35467 -0.0933,0.82134 -0.0187,0.448 -0.0187,0.93333 0,0.504 0.0187,0.952 0.0373,0.448 0.0933,0.76534 0.14934,0.84 0.70934,1.30667 0.56,0.46666 1.41867,0.46666 z m 2.24,0.0933 q -0.35467,0.57866 -0.93333,0.91467 -0.56001,0.336 -1.49334,0.336 -1.344,0 -2.20267,-0.72801 -0.84,-0.728 -1.12,-1.88533 -0.112,-0.48534 -0.14934,-0.952 -0.0187,-0.48534 -0.0187,-1.26934 0,-0.76533 0.0373,-1.25067 0.0373,-0.48533 0.13067,-0.952 0.13066,-0.56 0.42933,-1.04534 0.31734,-0.48533 0.74667,-0.84 0.448,-0.35466 0.98933,-0.54133 0.54134,-0.20534 1.15734,-0.20534 0.91467,0 1.47467,0.29867 0.56,0.28 0.91467,0.784 v -4.368 h 1.43733 v 12.76802 h -1.26933 z" /><path
         id="path96"
         style="shape-inside:url(#rect42)"
         d="m 351.73954,185.30777 q -0.0373,0.224 -0.056,0.52266 -0.0187,0.28001 -0.0187,0.59734 h 4.06934 v -0.392 q 0,-0.24267 -0.0187,-0.42934 -0.0187,-0.20533 -0.056,-0.46666 -0.13067,-0.69067 -0.616,-1.15734 -0.46667,-0.46667 -1.30667,-0.46667 -0.85867,0 -1.36267,0.48534 -0.48534,0.46667 -0.63467,1.30667 z m 5.26401,5.02134 q -0.48533,0.728 -1.30667,1.13867 -0.82133,0.41067 -1.82934,0.41067 -1.41866,0 -2.31467,-0.72801 -0.87733,-0.728 -1.176,-1.904 -0.112,-0.46667 -0.14933,-0.93333 -0.0187,-0.48534 -0.0187,-1.26934 0,-0.76533 0.0187,-1.25067 0.0373,-0.48533 0.14933,-0.952 0.28,-1.176 1.15734,-1.904 0.87733,-0.72801 2.24,-0.72801 1.36267,0 2.18401,0.70934 0.82133,0.70933 1.10133,1.94134 0.0747,0.29866 0.0933,0.728 0.0373,0.42933 0.0373,0.97067 0,0.26133 -0.0187,0.56 0,0.28 -0.0187,0.59733 h -5.48801 q 0.0187,0.29867 0.0373,0.56 0.0187,0.26134 0.056,0.48534 0.14933,0.82133 0.69067,1.32533 0.56,0.48534 1.456,0.48534 0.70933,0 1.26933,-0.336 0.56,-0.336 0.87734,-0.87734 z" /></g><text
       id="text52"
       y="321.02316"
       x="165.83067"
       style="font-size:40px;line-height:1.25;font-family:'HTWBerlin Office';-inkscape-font-specification:'HTWBerlin Office'"
       xml:space="preserve"><tspan
         y="321.02316"
         x="165.83067"
         id="tspan50"
         sodipodi:role="line" /></text><g
       style="font-size:18.4943px;line-height:1.25;font-family:'HTWBerlin Office';-inkscape-font-specification:'HTWBerlin Office';stroke-width:0.990765"
       id="text56"
       transform="scale(0.99076498,1.0093211)"
       aria-label="VR for Future"><path
         id="path99"
         style="stroke-width:0.990765"
         d="m 177.82629,343.24585 -2.88511,-7.82309 q -0.27741,-0.75827 -0.44386,-1.64599 -0.14796,-0.90622 -0.14796,-1.60901 v -0.99869 h 1.47955 v 0.99869 q 0,0.55483 0.12946,1.36858 0.14795,0.79526 0.38838,1.49804 l 1.83093,5.21539 q 0.18495,0.53634 0.3329,0.9987 0.14795,0.46235 0.16645,0.68428 h 0.0925 q 0,-0.22193 0.14795,-0.68428 0.14796,-0.46236 0.3329,-0.9987 l 1.84943,-5.21539 q 0.11097,-0.3329 0.20344,-0.72128 0.0925,-0.38838 0.14795,-0.77676 0.074,-0.38838 0.11097,-0.73977 0.037,-0.35139 0.037,-0.62881 v -0.99869 h 1.47954 v 0.99869 q 0,0.70279 -0.16645,1.60901 -0.14795,0.88772 -0.42537,1.64599 l -2.88511,7.82309 z" /><path
         id="path101"
         style="stroke-width:0.990765"
         d="m 188.80439,337.30918 q 1.22063,0 1.88642,-0.62881 0.68429,-0.6473 0.68429,-1.75696 0,-1.10965 -0.68429,-1.73846 -0.66579,-0.62881 -1.88642,-0.62881 h -1.90491 v 4.75304 z m -3.38445,5.93667 v -12.07678 h 3.43994 q 1.90491,0 2.94059,0.99869 1.05417,0.9987 1.05417,2.75565 0,1.22063 -0.61031,2.14534 -0.61031,0.92472 -1.97889,1.33159 l 1.18364,1.59051 q 0.3329,0.44387 0.55483,0.79526 0.22193,0.3329 0.33289,0.6288 0.12946,0.27742 0.18495,0.53634 0.0555,0.25892 0.0555,0.55483 v 0.73977 h -1.47954 v -0.42537 q 0,-0.27741 -0.037,-0.49935 -0.0185,-0.22193 -0.11097,-0.42536 -0.074,-0.20344 -0.22193,-0.44387 -0.14795,-0.25892 -0.40687,-0.59182 l -1.6275,-2.20082 h -1.79395 v 4.58659 z" /><path
         id="path103"
         style="stroke-width:0.990765"
         d="m 201.00803,335.33029 v 7.91556 h -1.40557 v -7.91556 h -1.05417 v -1.27611 h 1.05417 v -0.94321 q 0,-1.2761 0.64731,-1.96039 0.6473,-0.68429 1.70147,-0.68429 0.68429,0 1.05418,0.16645 0.38838,0.14795 0.6473,0.36988 l -0.53634,1.09117 q -0.20344,-0.14796 -0.44386,-0.22194 -0.24043,-0.0925 -0.61031,-0.0925 -0.48086,0 -0.77676,0.3329 -0.27742,0.3144 -0.27742,0.9617 v 0.9802 h 1.92341 v 1.27611 z" /><path
         id="path105"
         style="stroke-width:0.990765"
         d="m 207.99743,342.13619 q 0.83225,0 1.36858,-0.46236 0.55483,-0.46235 0.72128,-1.31309 0.074,-0.3144 0.0925,-0.75827 0.0185,-0.46236 0.0185,-0.9617 0,-0.48085 -0.037,-0.94321 -0.0185,-0.48085 -0.074,-0.81375 -0.14796,-0.83224 -0.70278,-1.27611 -0.55483,-0.46235 -1.38708,-0.46235 -0.85074,0 -1.42406,0.46235 -0.55483,0.46236 -0.70278,1.2946 -0.0555,0.31441 -0.074,0.79526 -0.0185,0.46236 -0.0185,0.94321 0,0.49934 0.0185,0.94321 0.0185,0.44386 0.074,0.75826 0.14795,0.83225 0.70278,1.3131 0.57332,0.48085 1.42406,0.48085 z m -0.037,1.2946 q -1.35008,0 -2.2563,-0.72128 -0.90622,-0.72127 -1.18364,-1.88641 -0.11096,-0.46236 -0.14795,-0.92472 -0.0185,-0.48085 -0.0185,-1.25761 0,-0.75827 0.037,-1.25761 0.037,-0.49935 0.12946,-0.92472 0.27742,-1.16514 1.20213,-1.88642 0.94321,-0.72128 2.2933,-0.72128 1.35008,0 2.23781,0.72128 0.90622,0.70279 1.18363,1.88642 0.11097,0.46236 0.14796,0.94321 0.037,0.48085 0.037,1.23912 0,0.77676 -0.037,1.25761 -0.037,0.46236 -0.14796,0.92472 -0.27741,1.16514 -1.22062,1.88641 -0.92472,0.72128 -2.25631,0.72128 z" /><path
         id="path107"
         style="stroke-width:0.990765"
         d="m 215.50352,343.24585 h -1.40557 v -9.19167 h 1.18364 l 0.12946,1.12815 q 0.90622,-1.2946 2.42275,-1.2946 0.14795,0 0.25892,0 0.11097,0 0.22193,0.0185 v 1.49804 q -0.20344,-0.0555 -0.42537,-0.074 -0.22193,-0.0185 -0.46236,-0.0185 -0.81374,0 -1.36857,0.53634 -0.55483,0.51784 -0.55483,1.59051 z" /><path
         id="path109"
         style="stroke-width:0.990765"
         d="m 224.14238,331.16907 h 5.97366 v 1.38707 h -4.49412 v 4.34616 h 4.29068 v 1.35009 h -4.29068 v 4.99346 h -1.47954 z" /><path
         id="path111"
         style="stroke-width:0.990765"
         d="m 237.73973,342.17318 q -0.36988,0.57332 -0.99869,0.92472 -0.6288,0.33289 -1.51653,0.33289 -0.6658,0 -1.22063,-0.22193 -0.53633,-0.22193 -0.92471,-0.61031 -0.38838,-0.40688 -0.61031,-0.9617 -0.20344,-0.57333 -0.20344,-1.27611 v -6.30656 h 1.40557 v 5.99216 q 0,0.9617 0.49934,1.47954 0.49935,0.51784 1.47955,0.51784 0.83224,0 1.40556,-0.51784 0.57333,-0.51784 0.57333,-1.46105 v -6.01065 h 1.42406 v 9.19167 h -1.18364 z" /><path
         id="path113"
         style="stroke-width:0.990765"
         d="m 246.18383,342.91295 q -0.25892,0.18495 -0.6473,0.3329 -0.38838,0.14795 -1.07267,0.14795 -1.05417,0 -1.66449,-0.68429 -0.61031,-0.70278 -0.61031,-1.9234 v -5.45582 h -1.05417 v -1.27611 h 1.05417 v -2.49673 h 1.40557 v 2.49673 h 2.29329 v 1.27611 h -2.29329 v 5.47431 q 0,0.6473 0.27741,0.94321 0.29591,0.29591 0.77676,0.29591 0.38838,0 0.61032,-0.074 0.24042,-0.0925 0.46235,-0.24042 l 0.46236,1.18363 z" /><path
         id="path115"
         style="stroke-width:0.990765"
         d="m 253.38042,342.17318 q -0.36989,0.57332 -0.99869,0.92472 -0.62881,0.33289 -1.51654,0.33289 -0.66579,0 -1.22062,-0.22193 -0.53633,-0.22193 -0.92471,-0.61031 -0.38838,-0.40688 -0.61032,-0.9617 -0.20343,-0.57333 -0.20343,-1.27611 v -6.30656 h 1.40556 v 5.99216 q 0,0.9617 0.49935,1.47954 0.49935,0.51784 1.47954,0.51784 0.83225,0 1.40557,-0.51784 0.57332,-0.51784 0.57332,-1.46105 v -6.01065 h 1.42407 v 9.19167 h -1.18364 z" /><path
         id="path117"
         style="stroke-width:0.990765"
         d="m 258.9579,343.24585 h -1.40557 v -9.19167 h 1.18364 l 0.12946,1.12815 q 0.90622,-1.2946 2.42275,-1.2946 0.14796,0 0.25892,0 0.11097,0 0.22193,0.0185 v 1.49804 q -0.20343,-0.0555 -0.42536,-0.074 -0.22194,-0.0185 -0.46236,-0.0185 -0.81375,0 -1.36858,0.53634 -0.55483,0.51784 -0.55483,1.59051 z" /><path
         id="path119"
         style="stroke-width:0.990765"
         d="m 264.67669,336.9208 q -0.037,0.22193 -0.0555,0.51784 -0.0185,0.27741 -0.0185,0.59182 h 4.03176 v -0.38838 q 0,-0.24043 -0.0185,-0.42537 -0.0185,-0.20344 -0.0555,-0.46236 -0.12946,-0.68429 -0.61031,-1.14665 -0.46236,-0.46235 -1.2946,-0.46235 -0.85074,0 -1.35009,0.48085 -0.48085,0.46236 -0.6288,1.2946 z m 5.21539,4.97497 q -0.48085,0.72127 -1.2946,1.12815 -0.81375,0.40687 -1.81244,0.40687 -1.40557,0 -2.2933,-0.72128 -0.86923,-0.72127 -1.16514,-1.88641 -0.11096,-0.46236 -0.14795,-0.92472 -0.0185,-0.48085 -0.0185,-1.25761 0,-0.75827 0.0185,-1.23912 0.037,-0.48085 0.14795,-0.94321 0.27742,-1.16514 1.14665,-1.88642 0.86923,-0.72128 2.21932,-0.72128 1.35008,0 2.16383,0.70279 0.81375,0.70278 1.09116,1.92341 0.074,0.2959 0.0925,0.72127 0.037,0.42537 0.037,0.96171 0,0.25892 -0.0185,0.55483 0,0.27741 -0.0185,0.59181 h -5.43732 q 0.0185,0.29591 0.037,0.55483 0.0185,0.25892 0.0555,0.48085 0.14796,0.81375 0.68429,1.3131 0.55483,0.48085 1.44256,0.48085 0.70278,0 1.25761,-0.3329 0.55483,-0.33289 0.86923,-0.86923 z" /></g><text
       id="text64"
       y="481.8476"
       x="123.2779"
       style="font-size:40px;line-height:1.25;font-family:'HTWBerlin Office';-inkscape-font-specification:'HTWBerlin Office'"
       xml:space="preserve"><tspan
         y="481.8476"
         x="123.2779"
         id="tspan62"
         sodipodi:role="line" /></text><g
       style="font-size:18.6667px;line-height:1.25;font-family:'HTWBerlin Office';-inkscape-font-specification:'HTWBerlin Office'"
       id="text68"
       aria-label="Private Investors"><path
         id="path122"
         d="m 92.837965,498.92487 q 1.344002,0 2.09067,-0.672 0.765335,-0.69067 0.765335,-1.92267 0,-1.19467 -0.765335,-1.88534 -0.746668,-0.69066 -2.09067,-0.69066 h -1.605336 v 5.17067 z m -3.098672,-6.57068 h 3.136005 q 2.072004,0 3.192006,1.06401 1.120002,1.04533 1.120002,2.912 0,1.86667 -1.157335,2.91201 -1.138669,1.04533 -3.192006,1.04533 h -1.605336 v 4.25601 h -1.493336 z" /><path
         id="path124"
         d="m 100.7439,504.54355 h -1.418673 v -9.27735 h 1.194673 l 0.13066,1.13867 q 0.91467,-1.30667 2.44534,-1.30667 0.14933,0 0.26133,0 0.112,0 0.224,0.0187 v 1.51201 q -0.20533,-0.056 -0.42933,-0.0747 -0.224,-0.0187 -0.46667,-0.0187 -0.82133,0 -1.38133,0.54134 -0.56,0.52267 -0.56,1.60533 z" /><path
         id="path126"
         d="m 105.52316,504.54355 v -9.27735 h 1.43733 v 9.27735 z m 0.728,-10.65869 q -0.42934,0 -0.728,-0.29866 -0.29867,-0.31734 -0.29867,-0.72801 0,-0.42933 0.29867,-0.728 0.29866,-0.29866 0.728,-0.29866 0.42933,0 0.728,0.29866 0.29867,0.29867 0.29867,0.728 0,0.41067 -0.29867,0.72801 -0.29867,0.29866 -0.728,0.29866 z" /><path
         id="path128"
         d="m 112.12125,504.54355 q -0.24267,-0.48534 -0.54134,-1.13867 -0.29866,-0.65333 -0.59733,-1.36267 -0.29867,-0.70933 -0.59733,-1.4 -0.28,-0.70934 -0.50401,-1.30667 -0.29866,-0.76534 -0.448,-1.58667 -0.13066,-0.82134 -0.13066,-1.49334 v -0.98933 h 1.41867 v 0.98933 q 0,0.54134 0.112,1.26934 0.13066,0.728 0.37333,1.4 0.336,0.98934 0.87734,2.18401 0.54133,1.176 0.896,2.50133 h 0.0747 q 0.35467,-1.32533 0.89601,-2.50133 0.54133,-1.19467 0.87733,-2.18401 0.24267,-0.672 0.35467,-1.4 0.13066,-0.728 0.13066,-1.26934 v -0.98933 h 1.43734 v 0.98933 q 0,0.672 -0.168,1.51201 -0.14933,0.82133 -0.42933,1.568 -0.224,0.59733 -0.52267,1.30667 -0.28,0.69067 -0.59734,1.4 -0.29866,0.70934 -0.59733,1.36267 -0.29867,0.65333 -0.54133,1.13867 z" /><path
         id="path130"
         d="m 121.64652,503.31155 q 0.26133,0 0.52267,0 0.26133,-0.0187 0.448,-0.056 0.392,-0.0933 0.616,-0.42934 0.24266,-0.336 0.24266,-0.82133 0,-0.504 -0.24266,-0.82134 -0.224,-0.336 -0.616,-0.42933 -0.112,-0.0373 -0.37334,-0.0373 -0.24267,0 -0.59733,0 -0.336,0 -0.59734,0 -0.26133,0 -0.392,0.0373 -0.85867,0.20533 -0.85867,1.25067 0,0.48533 0.20534,0.82133 0.224,0.336 0.65333,0.42934 0.14934,0.0373 0.42934,0.056 0.29866,0 0.56,0 z m 1.08267,1.15733 q -0.29867,0.0933 -0.59734,0.13067 -0.29867,0.0373 -0.784,0.0373 -0.46667,0 -0.76533,-0.0373 -0.28,-0.0187 -0.57867,-0.112 -0.70934,-0.20534 -1.19467,-0.85867 -0.46667,-0.65333 -0.46667,-1.64267 0,-0.952 0.46667,-1.568 0.48533,-0.616 1.19467,-0.82134 0.31733,-0.0933 0.672,-0.13066 0.37333,-0.0373 0.85867,-0.0373 0.48533,0 0.74667,0.0373 0.28,0.0373 0.59733,0.14933 0.18667,0.0747 0.31733,0.14933 0.14934,0.0747 0.26134,0.20534 v -1.79201 q 0,-0.85866 -0.504,-1.32533 -0.48534,-0.46667 -1.32534,-0.46667 -0.70933,0 -1.19467,0.35467 -0.48533,0.336 -0.728,0.87733 l -1.10133,-0.76533 q 0.42933,-0.82134 1.13866,-1.30667 0.70934,-0.48534 1.99734,-0.48534 0.74667,0 1.32534,0.24267 0.59733,0.224 0.98933,0.63467 0.41067,0.41067 0.616,0.952 0.20534,0.54134 0.20534,1.15734 v 6.49601 h -1.19467 l -0.0933,-0.76534 q -0.29866,0.504 -0.85866,0.69067 z" /><path
         id="path132"
         d="m 132.00187,504.20755 q -0.26133,0.18666 -0.65334,0.336 -0.392,0.14933 -1.08266,0.14933 -1.06401,0 -1.68001,-0.69067 -0.616,-0.70933 -0.616,-1.94133 v -5.50668 h -1.064 v -1.288 h 1.064 v -2.52001 h 1.41867 v 2.52001 h 2.31467 v 1.288 h -2.31467 v 5.52534 q 0,0.65334 0.28,0.95201 0.29867,0.29866 0.784,0.29866 0.392,0 0.616,-0.0747 0.24267,-0.0933 0.46667,-0.24267 l 0.46667,1.19467 z" /><path
         id="path134"
         d="m 134.95354,498.15954 q -0.0373,0.224 -0.056,0.52266 -0.0187,0.28001 -0.0187,0.59734 h 4.06935 v -0.392 q 0,-0.24267 -0.0187,-0.42934 -0.0187,-0.20533 -0.056,-0.46666 -0.13067,-0.69067 -0.616,-1.15734 -0.46667,-0.46667 -1.30667,-0.46667 -0.85867,0 -1.36267,0.48534 -0.48533,0.46667 -0.63467,1.30667 z m 5.26401,5.02134 q -0.48533,0.728 -1.30667,1.13867 -0.82133,0.41067 -1.82933,0.41067 -1.41867,0 -2.31468,-0.72801 -0.87733,-0.728 -1.176,-1.904 -0.112,-0.46667 -0.14933,-0.93333 -0.0187,-0.48534 -0.0187,-1.26934 0,-0.76533 0.0187,-1.25067 0.0373,-0.48533 0.14933,-0.952 0.28,-1.176 1.15734,-1.904 0.87733,-0.72801 2.24,-0.72801 1.36267,0 2.18401,0.70934 0.82133,0.70933 1.10133,1.94134 0.0747,0.29866 0.0933,0.728 0.0373,0.42933 0.0373,0.97067 0,0.26133 -0.0187,0.56 0,0.28 -0.0187,0.59733 h -5.48801 q 0.0187,0.29867 0.0373,0.56 0.0187,0.26134 0.056,0.48534 0.14933,0.82133 0.69067,1.32533 0.56,0.48534 1.456,0.48534 0.70933,0 1.26933,-0.336 0.56001,-0.336 0.87734,-0.87734 z" /><path
         id="path136"
         d="m 146.30436,504.54355 v -1.43734 h 2.24 v -9.35201 h -2.184 v -1.40001 h 5.84267 v 1.40001 h -2.16533 v 9.35201 h 2.25867 v 1.43734 z" /><path
         id="path138"
         d="m 155.90545,504.54355 h -1.41867 v -9.27735 h 1.19467 l 0.112,1.08267 q 0.37334,-0.57867 1.008,-0.93334 0.63467,-0.35467 1.51201,-0.35467 0.672,0 1.232,0.22401 0.56,0.224 0.952,0.63466 0.392,0.41067 0.616,0.98934 0.224,0.57867 0.224,1.26933 v 6.36535 h -1.43733 v -6.08535 q 0,-0.97066 -0.50401,-1.49333 -0.504,-0.54134 -1.47467,-0.54134 -0.84,0 -1.43733,0.54134 -0.57867,0.52267 -0.57867,1.49333 z" /><path
         id="path140"
         d="m 166.44426,504.54355 q -0.24266,-0.48534 -0.54133,-1.13867 -0.29867,-0.65333 -0.59734,-1.36267 -0.29866,-0.70933 -0.59733,-1.4 -0.28,-0.70934 -0.504,-1.30667 -0.29867,-0.76534 -0.448,-1.58667 -0.13067,-0.82134 -0.13067,-1.49334 v -0.98933 h 1.41867 v 0.98933 q 0,0.54134 0.112,1.26934 0.13067,0.728 0.37333,1.4 0.336,0.98934 0.87734,2.18401 0.54133,1.176 0.896,2.50133 h 0.0747 q 0.35466,-1.32533 0.896,-2.50133 0.54133,-1.19467 0.87733,-2.18401 0.24267,-0.672 0.35467,-1.4 0.13067,-0.728 0.13067,-1.26934 v -0.98933 h 1.43733 v 0.98933 q 0,0.672 -0.168,1.51201 -0.14933,0.82133 -0.42933,1.568 -0.224,0.59733 -0.52267,1.30667 -0.28,0.69067 -0.59733,1.4 -0.29867,0.70934 -0.59734,1.36267 -0.29866,0.65333 -0.54133,1.13867 z" /><path
         id="path142"
         d="m 174.40153,498.15954 q -0.0373,0.224 -0.056,0.52266 -0.0187,0.28001 -0.0187,0.59734 h 4.06934 v -0.392 q 0,-0.24267 -0.0187,-0.42934 -0.0187,-0.20533 -0.056,-0.46666 -0.13067,-0.69067 -0.61601,-1.15734 -0.46666,-0.46667 -1.30667,-0.46667 -0.85866,0 -1.36266,0.48534 -0.48534,0.46667 -0.63467,1.30667 z m 5.26401,5.02134 q -0.48534,0.728 -1.30667,1.13867 -0.82134,0.41067 -1.82934,0.41067 -1.41867,0 -2.31467,-0.72801 -0.87733,-0.728 -1.176,-1.904 -0.112,-0.46667 -0.14933,-0.93333 -0.0187,-0.48534 -0.0187,-1.26934 0,-0.76533 0.0187,-1.25067 0.0373,-0.48533 0.14933,-0.952 0.28,-1.176 1.15733,-1.904 0.87734,-0.72801 2.24001,-0.72801 1.36267,0 2.184,0.70934 0.82134,0.70933 1.10134,1.94134 0.0747,0.29866 0.0933,0.728 0.0373,0.42933 0.0373,0.97067 0,0.26133 -0.0187,0.56 0,0.28 -0.0187,0.59733 h -5.48801 q 0.0187,0.29867 0.0373,0.56 0.0187,0.26134 0.056,0.48534 0.14934,0.82133 0.69067,1.32533 0.56,0.48534 1.45601,0.48534 0.70933,0 1.26933,-0.336 0.56,-0.336 0.87734,-0.87734 z" /><path
         id="path144"
         d="m 185.16142,499.35421 q 0.67201,0.24266 1.17601,0.48533 0.504,0.24267 0.82133,0.56 0.336,0.31734 0.48534,0.74667 0.168,0.42933 0.168,1.04533 0,0.56001 -0.224,1.02667 -0.20534,0.46667 -0.59734,0.80267 -0.37333,0.336 -0.93333,0.52267 -0.54134,0.18667 -1.21334,0.18667 -0.69067,0 -1.232,-0.14934 -0.54134,-0.14933 -0.93334,-0.37333 -0.392,-0.24267 -0.65333,-0.52267 -0.26134,-0.29867 -0.392,-0.59733 l 1.064,-0.89601 q 0.224,0.46667 0.74667,0.85867 0.54133,0.37334 1.43733,0.37334 0.69067,0 1.08267,-0.31734 0.41067,-0.336 0.41067,-0.87733 0,-0.336 -0.112,-0.56 -0.112,-0.224 -0.37333,-0.392 -0.24267,-0.168 -0.65334,-0.31734 -0.392,-0.168 -0.97067,-0.392 l -0.20533,-0.0747 q -1.21334,-0.46666 -1.69867,-1.10133 -0.46667,-0.65334 -0.46667,-1.64267 0,-0.57867 0.224,-1.064 0.224,-0.504 0.616,-0.85867 0.392,-0.35467 0.93334,-0.56 0.54133,-0.20534 1.19467,-0.20534 0.784,0 1.344,0.20534 0.56,0.20533 0.91467,0.56 0.35466,0.336 0.52267,0.82133 0.168,0.46667 0.168,1.00801 v 0.24266 h -1.41867 v -0.0747 q 0,-0.784 -0.46667,-1.12001 -0.448,-0.336 -1.10134,-0.336 -0.392,0 -0.672,0.13067 -0.28,0.112 -0.46667,0.29867 -0.168,0.18666 -0.26133,0.42933 -0.0933,0.224 -0.0933,0.46667 0,0.56 0.31733,0.896 0.31734,0.336 1.25067,0.672 z" /><path
         id="path146"
         d="m 194.56448,504.20755 q -0.26133,0.18666 -0.65333,0.336 -0.392,0.14933 -1.08267,0.14933 -1.064,0 -1.68,-0.69067 -0.616,-0.70933 -0.616,-1.94133 v -5.50668 h -1.06401 v -1.288 h 1.06401 v -2.52001 h 1.41867 v 2.52001 h 2.31467 v 1.288 h -2.31467 v 5.52534 q 0,0.65334 0.28,0.95201 0.29866,0.29866 0.784,0.29866 0.392,0 0.616,-0.0747 0.24267,-0.0933 0.46667,-0.24267 l 0.46666,1.19467 z" /><path
         id="path148"
         d="m 199.66282,503.42355 q 0.84,0 1.38134,-0.46667 0.56,-0.46667 0.728,-1.32534 0.0747,-0.31733 0.0933,-0.76533 0.0187,-0.46667 0.0187,-0.97067 0,-0.48533 -0.0373,-0.952 -0.0187,-0.48534 -0.0747,-0.82134 -0.14933,-0.84 -0.70933,-1.288 -0.56001,-0.46667 -1.40001,-0.46667 -0.85867,0 -1.43733,0.46667 -0.56,0.46667 -0.70934,1.30667 -0.056,0.31733 -0.0747,0.80267 -0.0187,0.46667 -0.0187,0.952 0,0.504 0.0187,0.952 0.0187,0.448 0.0747,0.76534 0.14934,0.84 0.70934,1.32533 0.57866,0.48534 1.43733,0.48534 z m -0.0373,1.30667 q -1.36267,0 -2.27734,-0.72801 -0.91467,-0.728 -1.19467,-1.904 -0.112,-0.46667 -0.14933,-0.93333 -0.0187,-0.48534 -0.0187,-1.26934 0,-0.76533 0.0373,-1.26934 0.0373,-0.504 0.13066,-0.93333 0.28,-1.176 1.21334,-1.904 0.952,-0.72801 2.31467,-0.72801 1.36267,0 2.25867,0.72801 0.91467,0.70933 1.19467,1.904 0.112,0.46667 0.14933,0.952 0.0373,0.48534 0.0373,1.25067 0,0.784 -0.0373,1.26934 -0.0373,0.46666 -0.14933,0.93333 -0.28,1.176 -1.232,1.904 -0.93334,0.72801 -2.27734,0.72801 z" /><path
         id="path150"
         d="m 207.23888,504.54355 h -1.41867 v -9.27735 h 1.19467 l 0.13067,1.13867 q 0.91466,-1.30667 2.44533,-1.30667 0.14934,0 0.26134,0 0.112,0 0.224,0.0187 v 1.51201 q -0.20534,-0.056 -0.42934,-0.0747 -0.224,-0.0187 -0.46666,-0.0187 -0.82134,0 -1.38134,0.54134 -0.56,0.52267 -0.56,1.60533 z" /><path
         id="path152"
         d="m 214.8021,499.35421 q 0.672,0.24266 1.176,0.48533 0.50401,0.24267 0.82134,0.56 0.336,0.31734 0.48533,0.74667 0.168,0.42933 0.168,1.04533 0,0.56001 -0.224,1.02667 -0.20533,0.46667 -0.59733,0.80267 -0.37333,0.336 -0.93334,0.52267 -0.54133,0.18667 -1.21333,0.18667 -0.69067,0 -1.232,-0.14934 -0.54134,-0.14933 -0.93334,-0.37333 -0.392,-0.24267 -0.65333,-0.52267 -0.26134,-0.29867 -0.392,-0.59733 l 1.064,-0.89601 q 0.224,0.46667 0.74667,0.85867 0.54133,0.37334 1.43733,0.37334 0.69067,0 1.08267,-0.31734 0.41067,-0.336 0.41067,-0.87733 0,-0.336 -0.112,-0.56 -0.112,-0.224 -0.37334,-0.392 -0.24266,-0.168 -0.65333,-0.31734 -0.392,-0.168 -0.97067,-0.392 l -0.20533,-0.0747 q -1.21334,-0.46666 -1.69867,-1.10133 -0.46667,-0.65334 -0.46667,-1.64267 0,-0.57867 0.224,-1.064 0.224,-0.504 0.616,-0.85867 0.392,-0.35467 0.93334,-0.56 0.54133,-0.20534 1.19467,-0.20534 0.784,0 1.344,0.20534 0.56,0.20533 0.91467,0.56 0.35466,0.336 0.52266,0.82133 0.168,0.46667 0.168,1.00801 v 0.24266 h -1.41867 v -0.0747 q 0,-0.784 -0.46666,-1.12001 -0.448,-0.336 -1.10134,-0.336 -0.392,0 -0.672,0.13067 -0.28,0.112 -0.46667,0.29867 -0.168,0.18666 -0.26133,0.42933 -0.0933,0.224 -0.0933,0.46667 0,0.56 0.31733,0.896 0.31733,0.336 1.25067,0.672 z" /></g><g
       style="font-size:18.6667px;line-height:1.25;font-family:'HTWBerlin Office';-inkscape-font-specification:'HTWBerlin Office'"
       id="text76"
       aria-label="Energy Matters"><path
         id="path155"
         d="m 155.91971,653.2302 h 6.30935 v 1.4 h -4.81601 v 3.97601 h 4.42401 v 1.36267 h -4.42401 v 4.01334 h 5.00267 v 1.43734 h -6.49601 z" /><path
         id="path157"
         d="m 166.12223,665.41956 h -1.41867 v -9.27735 h 1.19467 l 0.112,1.08266 q 0.37333,-0.57866 1.008,-0.93333 0.63467,-0.35467 1.51201,-0.35467 0.672,0 1.232,0.224 0.56,0.224 0.952,0.63467 0.392,0.41067 0.616,0.98934 0.224,0.57866 0.224,1.26933 v 6.36535 h -1.43734 v -6.08535 q 0,-0.97067 -0.504,-1.49333 -0.504,-0.54134 -1.47467,-0.54134 -0.84,0 -1.43733,0.54134 -0.57867,0.52266 -0.57867,1.49333 z" /><path
         id="path159"
         d="m 175.50371,659.03554 q -0.0373,0.224 -0.056,0.52267 -0.0187,0.28 -0.0187,0.59734 h 4.06934 v -0.392 q 0,-0.24267 -0.0187,-0.42934 -0.0187,-0.20533 -0.056,-0.46667 -0.13066,-0.69066 -0.616,-1.15733 -0.46666,-0.46667 -1.30667,-0.46667 -0.85866,0 -1.36267,0.48534 -0.48533,0.46666 -0.63466,1.30666 z m 5.26401,5.02135 q -0.48534,0.728 -1.30667,1.13867 -0.82134,0.41066 -1.82934,0.41066 -1.41867,0 -2.31467,-0.728 -0.87734,-0.728 -1.176,-1.904 -0.112,-0.46667 -0.14934,-0.93334 -0.0187,-0.48533 -0.0187,-1.26933 0,-0.76534 0.0187,-1.25067 0.0373,-0.48534 0.14934,-0.952 0.28,-1.17601 1.15733,-1.90401 0.87734,-0.728 2.24001,-0.728 1.36267,0 2.184,0.70934 0.82134,0.70933 1.10134,1.94133 0.0747,0.29867 0.0933,0.728 0.0373,0.42934 0.0373,0.97067 0,0.26134 -0.0187,0.56 0,0.28 -0.0187,0.59734 h -5.48801 q 0.0187,0.29867 0.0373,0.56 0.0187,0.26133 0.056,0.48533 0.14934,0.82134 0.69067,1.32534 0.56,0.48533 1.456,0.48533 0.70934,0 1.26934,-0.336 0.56,-0.336 0.87733,-0.87733 z" /><path
         id="path161"
         d="m 184.78893,665.41956 h -1.41867 v -9.27735 h 1.19467 l 0.13067,1.13866 q 0.91467,-1.30666 2.44534,-1.30666 0.14933,0 0.26133,0 0.112,0 0.224,0.0187 v 1.512 q -0.20533,-0.056 -0.42933,-0.0747 -0.224,-0.0187 -0.46667,-0.0187 -0.82134,0 -1.38134,0.54134 -0.56,0.52266 -0.56,1.60533 z" /><path
         id="path163"
         d="m 192.67036,661.35021 q 0.63467,0 1.064,-0.112 0.54134,-0.14933 0.84,-0.65333 0.31734,-0.52267 0.31734,-1.26934 0,-0.80266 -0.31734,-1.30666 -0.31733,-0.50401 -0.85866,-0.65334 -0.392,-0.112 -1.04534,-0.112 -0.35467,0 -0.616,0.0187 -0.24267,0.0187 -0.46667,0.0933 -0.54133,0.18667 -0.85867,0.69067 -0.29866,0.48533 -0.29866,1.26933 0,0.74667 0.29866,1.25067 0.31734,0.504 0.85867,0.65334 0.224,0.056 0.46667,0.0933 0.26133,0.0373 0.616,0.0373 z m 1.36267,7.44802 q -0.31733,0.0933 -0.63467,0.112 -0.31733,0.0373 -0.91467,0.0373 -0.57866,0 -0.91466,-0.0373 -0.31734,-0.0187 -0.63467,-0.112 -0.728,-0.20534 -1.21334,-0.82134 -0.46666,-0.616 -0.46666,-1.47467 0,-0.616 0.26133,-1.08266 0.26133,-0.48534 0.69067,-0.78401 -0.24267,-0.224 -0.392,-0.54133 -0.13067,-0.31733 -0.13067,-0.728 0,-0.42934 0.168,-0.76534 0.168,-0.336 0.448,-0.54133 -0.57867,-0.42933 -0.93333,-1.12 -0.35467,-0.70934 -0.35467,-1.66134 0,-1.232 0.57867,-2.016 0.57866,-0.80267 1.41867,-1.08267 0.224,-0.0747 0.392,-0.112 0.168,-0.056 0.336,-0.0747 0.18666,-0.0373 0.392,-0.0373 0.224,-0.0187 0.54133,-0.0187 0.59734,0 0.87734,0.056 0.29866,0.0373 0.63466,0.14934 h 3.06134 v 1.288 h -1.41867 q 0.224,0.392 0.35467,0.87733 0.13067,0.46667 0.13067,1.008 0,1.23201 -0.59734,2.05334 -0.59733,0.82134 -1.47467,1.08267 -0.37333,0.112 -0.672,0.168 -0.29866,0.0373 -0.896,0.0373 -0.37333,0 -0.63467,0 -0.26133,0 -0.41066,0.0373 -0.54134,0.112 -0.54134,0.69067 0,0.26133 0.13067,0.46666 0.13067,0.18667 0.41067,0.24267 0.13066,0.0373 0.37333,0.056 0.26133,0 0.48533,0 0.59734,0 0.91467,0.0373 0.31734,0.0187 0.63467,0.112 0.76534,0.20534 1.21334,0.80267 0.46666,0.57867 0.46666,1.43734 0,0.85867 -0.46666,1.456 -0.46667,0.59733 -1.21334,0.80267 z m -1.54934,-1.13867 q 0.31734,0 0.57867,-0.0187 0.28,0 0.448,-0.0373 0.41067,-0.0933 0.616,-0.392 0.20534,-0.28 0.20534,-0.69067 0,-0.85867 -0.82134,-1.064 -0.168,-0.0373 -0.448,-0.056 -0.26133,-0.0187 -0.57867,-0.0187 -0.29866,0 -0.57866,0.0187 -0.26134,0.0187 -0.42934,0.056 -0.84,0.20533 -0.84,1.064 0,0.41067 0.20533,0.69067 0.22401,0.29867 0.63467,0.392 0.168,0.0373 0.42934,0.0373 0.28,0.0187 0.57866,0.0187 z" /><path
         id="path165"
         d="m 199.60562,668.96623 q -0.14933,0 -0.28,0 -0.13066,0 -0.37333,-0.0373 v -1.34401 q 0.14933,0.0187 0.224,0.0187 0.0933,0 0.26133,0 0.26134,0 0.48534,-0.056 0.24266,-0.0373 0.448,-0.18667 0.224,-0.14933 0.42933,-0.42933 0.20534,-0.26134 0.41067,-0.69067 l 0.37333,-0.784 q -0.31733,-0.672 -0.672,-1.4 -0.35467,-0.728 -0.69067,-1.43734 -0.31733,-0.728 -0.616,-1.38134 -0.29866,-0.65333 -0.504,-1.176 -0.31733,-0.80267 -0.42933,-1.53067 -0.112,-0.728 -0.112,-1.4 v -0.98933 h 1.43733 v 0.98933 q 0,0.54134 0.0933,1.19467 0.0933,0.63467 0.35466,1.288 0.168,0.46667 0.41067,1.008 0.24267,0.52267 0.48534,1.08267 0.26133,0.56 0.48533,1.15734 0.24267,0.59733 0.41067,1.21333 h 0.0747 q 0.168,-0.616 0.39201,-1.232 0.24266,-0.63467 0.48533,-1.21333 0.26133,-0.59734 0.48533,-1.12001 0.224,-0.52266 0.37334,-0.896 0.26133,-0.672 0.35467,-1.30667 0.112,-0.63466 0.112,-1.176 v -0.98933 h 1.41866 v 0.98933 q 0,0.672 -0.112,1.41867 -0.112,0.74667 -0.42933,1.512 -0.224,0.57867 -0.59733,1.43734 -0.35467,0.84 -0.76534,1.77334 -0.392,0.91466 -0.82133,1.848 -0.41067,0.91467 -0.76534,1.64267 -0.24267,0.48533 -0.504,0.87733 -0.26133,0.41067 -0.59733,0.70934 -0.31734,0.29866 -0.74667,0.448 -0.42934,0.168 -0.98934,0.168 z" /><path
         id="path167"
         d="m 212.09773,664.43022 q 0,-0.336 0,-0.74667 0,-0.42933 0,-0.87733 0.0187,-0.448 0.0373,-0.87734 0.0187,-0.448 0.0373,-0.84 l 0.448,-7.85868 h 1.82934 l 2.48267,7.63468 q 0.29866,0.896 0.52266,1.66134 0.224,0.76533 0.224,1.232 h 0.0933 q 0,-0.42933 0.224,-1.21334 0.24267,-0.784 0.54133,-1.66133 l 2.57601,-7.65335 h 1.81067 l 0.31733,7.85868 q 0.0187,0.392 0.0187,0.84 0.0187,0.42934 0.0187,0.87734 0.0187,0.448 0.0187,0.87733 0.0187,0.41067 0.0187,0.74667 v 0.98934 h -1.49334 v -3.71468 l -0.0747,-2.61334 q -0.0187,-0.54133 -0.0373,-1.08266 0,-0.54134 0,-1.04534 0,-0.37333 0,-0.728 0,-0.35467 0.0373,-0.672 h -0.0747 q -0.0747,0.42933 -0.31734,1.19467 -0.24266,0.76533 -0.54133,1.66133 l -2.31467,7.00002 h -1.568 l -2.27734,-7.01868 q -0.29867,-0.89601 -0.52267,-1.66134 -0.224,-0.76533 -0.29867,-1.232 l -0.0747,0.0187 q 0.0187,0.224 0.0187,0.44801 0,0.224 0,0.48533 0,0.59733 -0.0187,1.25067 -0.0187,0.65333 -0.056,1.32533 l -0.112,2.66934 v 3.71468 h -1.49334 z" /><path
         id="path169"
         d="m 228.84264,664.18755 q 0.26133,0 0.52267,0 0.26133,-0.0187 0.448,-0.056 0.392,-0.0933 0.616,-0.42933 0.24267,-0.336 0.24267,-0.82134 0,-0.504 -0.24267,-0.82133 -0.224,-0.336 -0.616,-0.42933 -0.112,-0.0373 -0.37334,-0.0373 -0.24266,0 -0.59733,0 -0.336,0 -0.59734,0 -0.26133,0 -0.392,0.0373 -0.85866,0.20533 -0.85866,1.25066 0,0.48534 0.20533,0.82134 0.224,0.336 0.65333,0.42933 0.14934,0.0373 0.42934,0.056 0.29866,0 0.56,0 z m 1.08267,1.15734 q -0.29867,0.0933 -0.59734,0.13067 -0.29866,0.0373 -0.784,0.0373 -0.46667,0 -0.76533,-0.0373 -0.28,-0.0187 -0.57867,-0.112 -0.70934,-0.20534 -1.19467,-0.85867 -0.46667,-0.65334 -0.46667,-1.64267 0,-0.952 0.46667,-1.56801 0.48533,-0.616 1.19467,-0.82133 0.31733,-0.0933 0.672,-0.13067 0.37333,-0.0373 0.85867,-0.0373 0.48533,0 0.74667,0.0373 0.28,0.0373 0.59733,0.14934 0.18667,0.0747 0.31733,0.14933 0.14934,0.0747 0.26134,0.20533 v -1.792 q 0,-0.85867 -0.504,-1.32533 -0.48534,-0.46667 -1.32534,-0.46667 -0.70933,0 -1.19467,0.35466 -0.48533,0.33601 -0.728,0.87734 l -1.10133,-0.76533 q 0.42933,-0.82134 1.13867,-1.30667 0.70933,-0.48534 1.99733,-0.48534 0.74667,0 1.32534,0.24267 0.59733,0.224 0.98933,0.63467 0.41067,0.41066 0.616,0.952 0.20534,0.54133 0.20534,1.15733 v 6.49602 h -1.19467 l -0.0933,-0.76534 q -0.29867,0.504 -0.85867,0.69067 z" /><path
         id="path171"
         d="m 239.19799,665.08356 q -0.26133,0.18666 -0.65333,0.336 -0.392,0.14933 -1.08267,0.14933 -1.064,0 -1.68001,-0.69067 -0.616,-0.70933 -0.616,-1.94134 v -5.50667 h -1.064 v -1.288 h 1.064 v -2.52001 h 1.41867 v 2.52001 h 2.31467 v 1.288 h -2.31467 v 5.52534 q 0,0.65334 0.28,0.952 0.29867,0.29867 0.784,0.29867 0.392,0 0.61601,-0.0747 0.24266,-0.0933 0.46666,-0.24266 l 0.46667,1.19467 z" /><path
         id="path173"
         d="m 245.323,665.08356 q -0.26134,0.18666 -0.65334,0.336 -0.392,0.14933 -1.08267,0.14933 -1.064,0 -1.68,-0.69067 -0.616,-0.70933 -0.616,-1.94134 v -5.50667 h -1.064 v -1.288 h 1.064 v -2.52001 h 1.41867 v 2.52001 h 2.31467 v 1.288 h -2.31467 v 5.52534 q 0,0.65334 0.28,0.952 0.29867,0.29867 0.784,0.29867 0.392,0 0.616,-0.0747 0.24267,-0.0933 0.46667,-0.24266 l 0.46667,1.19467 z" /><path
         id="path175"
         d="m 248.27467,659.03554 q -0.0373,0.224 -0.056,0.52267 -0.0187,0.28 -0.0187,0.59734 h 4.06934 v -0.392 q 0,-0.24267 -0.0187,-0.42934 -0.0187,-0.20533 -0.056,-0.46667 -0.13067,-0.69066 -0.616,-1.15733 -0.46667,-0.46667 -1.30667,-0.46667 -0.85867,0 -1.36267,0.48534 -0.48533,0.46666 -0.63467,1.30666 z m 5.26401,5.02135 q -0.48533,0.728 -1.30667,1.13867 -0.82133,0.41066 -1.82933,0.41066 -1.41867,0 -2.31467,-0.728 -0.87734,-0.728 -1.17601,-1.904 -0.112,-0.46667 -0.14933,-0.93334 -0.0187,-0.48533 -0.0187,-1.26933 0,-0.76534 0.0187,-1.25067 0.0373,-0.48534 0.14933,-0.952 0.28001,-1.17601 1.15734,-1.90401 0.87734,-0.728 2.24,-0.728 1.36267,0 2.18401,0.70934 0.82133,0.70933 1.10133,1.94133 0.0747,0.29867 0.0933,0.728 0.0373,0.42934 0.0373,0.97067 0,0.26134 -0.0187,0.56 0,0.28 -0.0187,0.59734 h -5.48801 q 0.0187,0.29867 0.0373,0.56 0.0187,0.26133 0.056,0.48533 0.14933,0.82134 0.69067,1.32534 0.56,0.48533 1.456,0.48533 0.70934,0 1.26934,-0.336 0.56,-0.336 0.87733,-0.87733 z" /><path
         id="path177"
         d="m 257.55989,665.41956 h -1.41867 v -9.27735 h 1.19467 l 0.13067,1.13866 q 0.91467,-1.30666 2.44534,-1.30666 0.14933,0 0.26133,0 0.112,0 0.224,0.0187 v 1.512 q -0.20533,-0.056 -0.42933,-0.0747 -0.224,-0.0187 -0.46667,-0.0187 -0.82133,0 -1.38134,0.54134 -0.56,0.52266 -0.56,1.60533 z" /><path
         id="path179"
         d="m 265.12312,660.23021 q 0.672,0.24267 1.176,0.48534 0.504,0.24266 0.82133,0.56 0.336,0.31733 0.48534,0.74667 0.168,0.42933 0.168,1.04533 0,0.56 -0.224,1.02667 -0.20534,0.46667 -0.59734,0.80267 -0.37333,0.336 -0.93333,0.52267 -0.54134,0.18666 -1.21334,0.18666 -0.69067,0 -1.232,-0.14933 -0.54133,-0.14933 -0.93333,-0.37333 -0.39201,-0.24267 -0.65334,-0.52267 -0.26133,-0.29867 -0.392,-0.59734 l 1.064,-0.896 q 0.224,0.46667 0.74667,0.85867 0.54133,0.37333 1.43734,0.37333 0.69066,0 1.08266,-0.31733 0.41067,-0.336 0.41067,-0.87734 0,-0.336 -0.112,-0.56 -0.112,-0.224 -0.37333,-0.392 -0.24267,-0.168 -0.65334,-0.31733 -0.392,-0.168 -0.97066,-0.392 l -0.20534,-0.0747 q -1.21333,-0.46667 -1.69867,-1.10133 -0.46667,-0.65334 -0.46667,-1.64267 0,-0.57867 0.224,-1.06401 0.22401,-0.504 0.61601,-0.85866 0.392,-0.35467 0.93333,-0.56 0.54134,-0.20534 1.19467,-0.20534 0.784,0 1.344,0.20534 0.56,0.20533 0.91467,0.56 0.35467,0.336 0.52267,0.82133 0.168,0.46667 0.168,1.008 v 0.24267 h -1.41867 v -0.0747 q 0,-0.784 -0.46667,-1.12 -0.448,-0.336 -1.10133,-0.336 -0.392,0 -0.67201,0.13067 -0.28,0.112 -0.46666,0.29867 -0.168,0.18666 -0.26134,0.42933 -0.0933,0.224 -0.0933,0.46667 0,0.56 0.31733,0.896 0.31734,0.336 1.25067,0.672 z" /></g><g
       style="font-size:18.6667px;line-height:1.25;font-family:'HTWBerlin Office';-inkscape-font-specification:'HTWBerlin Office'"
       id="text84"
       aria-label="The Missing Tool"><path
         id="path182"
         d="m 299.7441,768.79469 h -3.21067 v -1.4 h 7.89601 v 1.4 h -3.192 v 10.78936 h -1.49334 z" /><path
         id="path184"
         d="m 307.81687,779.58405 h -1.41867 v -12.76803 h 1.41867 v 4.44268 q 0.37333,-0.54134 0.97067,-0.84 0.616,-0.31734 1.43733,-0.31734 0.672,0 1.232,0.224 0.56,0.224 0.95201,0.63467 0.392,0.41067 0.616,0.98933 0.224,0.57867 0.224,1.26934 v 6.36535 h -1.43734 v -6.08535 q 0,-0.97067 -0.504,-1.49333 -0.504,-0.54134 -1.47467,-0.54134 -0.84,0 -1.43733,0.54134 -0.57867,0.52266 -0.57867,1.49333 z" /><path
         id="path186"
         d="m 317.19834,773.20003 q -0.0373,0.224 -0.056,0.52267 -0.0187,0.28 -0.0187,0.59734 h 4.06934 v -0.392 q 0,-0.24267 -0.0187,-0.42934 -0.0187,-0.20533 -0.056,-0.46667 -0.13067,-0.69066 -0.616,-1.15733 -0.46667,-0.46667 -1.30667,-0.46667 -0.85867,0 -1.36267,0.48533 -0.48533,0.46667 -0.63467,1.30667 z m 5.26401,5.02135 q -0.48533,0.728 -1.30667,1.13867 -0.82133,0.41066 -1.82933,0.41066 -1.41867,0 -2.31468,-0.728 -0.87733,-0.728 -1.176,-1.904 -0.112,-0.46667 -0.14933,-0.93334 -0.0187,-0.48533 -0.0187,-1.26933 0,-0.76534 0.0187,-1.25067 0.0373,-0.48534 0.14933,-0.952 0.28,-1.17601 1.15734,-1.90401 0.87733,-0.728 2.24,-0.728 1.36267,0 2.18401,0.70934 0.82133,0.70933 1.10133,1.94133 0.0747,0.29867 0.0933,0.728 0.0373,0.42934 0.0373,0.97067 0,0.26134 -0.0187,0.56 0,0.28 -0.0187,0.59734 h -5.48801 q 0.0187,0.29867 0.0373,0.56 0.0187,0.26133 0.056,0.48533 0.14933,0.82134 0.69067,1.32534 0.56,0.48533 1.456,0.48533 0.70933,0 1.26933,-0.336 0.56001,-0.336 0.87734,-0.87733 z" /><path
         id="path188"
         d="m 329.14649,778.59471 q 0,-0.336 0,-0.74667 0,-0.42933 0,-0.87733 0.0187,-0.448 0.0373,-0.87734 0.0187,-0.448 0.0373,-0.84 l 0.448,-7.85868 h 1.82933 l 2.48268,7.63468 q 0.29866,0.896 0.52266,1.66134 0.224,0.76533 0.224,1.232 h 0.0933 q 0,-0.42934 0.224,-1.21334 0.24266,-0.784 0.54133,-1.66133 l 2.57601,-7.65335 h 1.81067 l 0.31733,7.85868 q 0.0187,0.392 0.0187,0.84 0.0187,0.42934 0.0187,0.87734 0.0187,0.448 0.0187,0.87733 0.0187,0.41067 0.0187,0.74667 v 0.98934 h -1.49334 v -3.71468 l -0.0747,-2.61334 q -0.0187,-0.54133 -0.0373,-1.08266 0,-0.54134 0,-1.04534 0,-0.37333 0,-0.728 0,-0.35467 0.0373,-0.672 h -0.0747 q -0.0747,0.42933 -0.31734,1.19467 -0.24266,0.76533 -0.54133,1.66133 l -2.31467,7.00002 h -1.568 l -2.27734,-7.01868 q -0.29867,-0.89601 -0.52267,-1.66134 -0.224,-0.76533 -0.29867,-1.232 l -0.0747,0.0187 q 0.0187,0.224 0.0187,0.44801 0,0.224 0,0.48533 0,0.59733 -0.0187,1.25067 -0.0187,0.65333 -0.056,1.32533 l -0.112,2.66934 v 3.71468 h -1.49334 z" /><path
         id="path190"
         d="m 343.18472,779.58405 v -9.27735 h 1.43734 v 9.27735 z m 0.728,-10.65869 q -0.42933,0 -0.728,-0.29867 -0.29866,-0.31733 -0.29866,-0.728 0,-0.42933 0.29866,-0.728 0.29867,-0.29867 0.728,-0.29867 0.42934,0 0.72801,0.29867 0.29866,0.29867 0.29866,0.728 0,0.41067 -0.29866,0.728 -0.29867,0.29867 -0.72801,0.29867 z" /><path
         id="path192"
         d="m 350.38015,774.3947 q 0.672,0.24267 1.176,0.48534 0.504,0.24266 0.82134,0.56 0.336,0.31733 0.48533,0.74667 0.168,0.42933 0.168,1.04533 0,0.56 -0.224,1.02667 -0.20533,0.46667 -0.59733,0.80267 -0.37334,0.336 -0.93334,0.52267 -0.54133,0.18666 -1.21333,0.18666 -0.69067,0 -1.23201,-0.14933 -0.54133,-0.14933 -0.93333,-0.37334 -0.392,-0.24266 -0.65333,-0.52266 -0.26134,-0.29867 -0.39201,-0.59734 l 1.06401,-0.896 q 0.224,0.46667 0.74666,0.85867 0.54134,0.37333 1.43734,0.37333 0.69067,0 1.08267,-0.31733 0.41067,-0.336 0.41067,-0.87734 0,-0.336 -0.112,-0.56 -0.112,-0.224 -0.37334,-0.392 -0.24266,-0.168 -0.65333,-0.31733 -0.392,-0.168 -0.97067,-0.392 l -0.20533,-0.0747 q -1.21334,-0.46667 -1.69867,-1.10133 -0.46667,-0.65334 -0.46667,-1.64267 0,-0.57867 0.224,-1.06401 0.224,-0.504 0.616,-0.85866 0.392,-0.35467 0.93334,-0.56 0.54133,-0.20534 1.19466,-0.20534 0.78401,0 1.34401,0.20534 0.56,0.20533 0.91466,0.56 0.35467,0.336 0.52267,0.82133 0.168,0.46667 0.168,1.008 v 0.24267 h -1.41867 v -0.0747 q 0,-0.784 -0.46666,-1.12 -0.448,-0.336 -1.10134,-0.336 -0.392,0 -0.672,0.13067 -0.28,0.112 -0.46667,0.29866 -0.168,0.18667 -0.26133,0.42934 -0.0933,0.224 -0.0933,0.46667 0,0.56 0.31734,0.896 0.31733,0.336 1.25067,0.672 z" /><path
         id="path194"
         d="m 358.36454,774.3947 q 0.672,0.24267 1.176,0.48534 0.504,0.24266 0.82134,0.56 0.336,0.31733 0.48533,0.74667 0.168,0.42933 0.168,1.04533 0,0.56 -0.224,1.02667 -0.20533,0.46667 -0.59733,0.80267 -0.37334,0.336 -0.93334,0.52267 -0.54133,0.18666 -1.21333,0.18666 -0.69067,0 -1.232,-0.14933 -0.54134,-0.14933 -0.93334,-0.37334 -0.392,-0.24266 -0.65333,-0.52266 -0.26134,-0.29867 -0.39201,-0.59734 l 1.06401,-0.896 q 0.224,0.46667 0.74666,0.85867 0.54134,0.37333 1.43734,0.37333 0.69067,0 1.08267,-0.31733 0.41067,-0.336 0.41067,-0.87734 0,-0.336 -0.112,-0.56 -0.112,-0.224 -0.37334,-0.392 -0.24266,-0.168 -0.65333,-0.31733 -0.392,-0.168 -0.97067,-0.392 l -0.20533,-0.0747 q -1.21334,-0.46667 -1.69867,-1.10133 -0.46667,-0.65334 -0.46667,-1.64267 0,-0.57867 0.224,-1.06401 0.224,-0.504 0.616,-0.85866 0.392,-0.35467 0.93334,-0.56 0.54133,-0.20534 1.19466,-0.20534 0.78401,0 1.34401,0.20534 0.56,0.20533 0.91466,0.56 0.35467,0.336 0.52267,0.82133 0.168,0.46667 0.168,1.008 v 0.24267 h -1.41867 v -0.0747 q 0,-0.784 -0.46666,-1.12 -0.448,-0.336 -1.10134,-0.336 -0.392,0 -0.672,0.13067 -0.28,0.112 -0.46667,0.29866 -0.168,0.18667 -0.26133,0.42934 -0.0933,0.224 -0.0933,0.46667 0,0.56 0.31734,0.896 0.31733,0.336 1.25067,0.672 z" /><path
         id="path196"
         d="m 363.45559,779.58405 v -9.27735 h 1.43734 v 9.27735 z m 0.728,-10.65869 q -0.42933,0 -0.728,-0.29867 -0.29866,-0.31733 -0.29866,-0.728 0,-0.42933 0.29866,-0.728 0.29867,-0.29867 0.728,-0.29867 0.42934,0 0.72801,0.29867 0.29866,0.29867 0.29866,0.728 0,0.41067 -0.29866,0.728 -0.29867,0.29867 -0.72801,0.29867 z" /><path
         id="path198"
         d="m 369.17636,779.58405 h -1.41867 v -9.27735 h 1.19467 l 0.112,1.08266 q 0.37333,-0.57866 1.008,-0.93333 0.63467,-0.35467 1.512,-0.35467 0.672,0 1.232,0.224 0.56,0.224 0.952,0.63467 0.392,0.41067 0.61601,0.98933 0.224,0.57867 0.224,1.26934 v 6.36535 h -1.43734 v -6.08535 q 0,-0.97067 -0.504,-1.49333 -0.504,-0.54134 -1.47467,-0.54134 -0.84,0 -1.43734,0.54134 -0.57866,0.52266 -0.57866,1.49333 z" /><path
         id="path200"
         d="m 380.66717,775.5147 q 0.63467,0 1.064,-0.112 0.54133,-0.14933 0.84,-0.65333 0.31734,-0.52267 0.31734,-1.26934 0,-0.80266 -0.31734,-1.30666 -0.31733,-0.50401 -0.85867,-0.65334 -0.392,-0.112 -1.04533,-0.112 -0.35467,0 -0.616,0.0187 -0.24267,0.0187 -0.46667,0.0933 -0.54133,0.18667 -0.85867,0.69067 -0.29867,0.48533 -0.29867,1.26933 0,0.74667 0.29867,1.25067 0.31734,0.504 0.85867,0.65334 0.224,0.056 0.46667,0.0933 0.26133,0.0373 0.616,0.0373 z m 1.36267,7.44802 q -0.31734,0.0933 -0.63467,0.112 -0.31733,0.0373 -0.91467,0.0373 -0.57867,0 -0.91467,-0.0373 -0.31733,-0.0187 -0.63466,-0.112 -0.72801,-0.20534 -1.21334,-0.82134 -0.46667,-0.616 -0.46667,-1.47467 0,-0.616 0.26134,-1.08266 0.26133,-0.48534 0.69066,-0.78401 -0.24266,-0.224 -0.392,-0.54133 -0.13066,-0.31733 -0.13066,-0.728 0,-0.42934 0.168,-0.76534 0.168,-0.336 0.448,-0.54133 -0.57867,-0.42933 -0.93334,-1.12 -0.35466,-0.70934 -0.35466,-1.66134 0,-1.232 0.57866,-2.016 0.57867,-0.80267 1.41867,-1.08267 0.224,-0.0747 0.392,-0.112 0.168,-0.056 0.336,-0.0747 0.18667,-0.0373 0.392,-0.0373 0.224,-0.0187 0.54134,-0.0187 0.59733,0 0.87733,0.056 0.29867,0.0373 0.63467,0.14934 h 3.06134 v 1.288 h -1.41867 q 0.224,0.392 0.35467,0.87733 0.13067,0.46667 0.13067,1.008 0,1.23201 -0.59734,2.05334 -0.59733,0.82134 -1.47467,1.08267 -0.37333,0.112 -0.672,0.168 -0.29867,0.0373 -0.896,0.0373 -0.37334,0 -0.63467,0 -0.26133,0 -0.41067,0.0373 -0.54133,0.112 -0.54133,0.69067 0,0.26133 0.13067,0.46666 0.13066,0.18667 0.41066,0.24267 0.13067,0.0373 0.37334,0.056 0.26133,0 0.48533,0 0.59734,0 0.91467,0.0373 0.31733,0.0187 0.63467,0.112 0.76533,0.20534 1.21333,0.80267 0.46667,0.57867 0.46667,1.43734 0,0.85867 -0.46667,1.456 -0.46666,0.59733 -1.21333,0.80267 z m -1.54934,-1.13867 q 0.31734,0 0.57867,-0.0187 0.28,0 0.448,-0.0373 0.41067,-0.0933 0.616,-0.392 0.20533,-0.28 0.20533,-0.69067 0,-0.85867 -0.82133,-1.064 -0.168,-0.0373 -0.448,-0.056 -0.26133,-0.0187 -0.57867,-0.0187 -0.29867,0 -0.57867,0.0187 -0.26133,0.0187 -0.42933,0.056 -0.84,0.20533 -0.84,1.064 0,0.41067 0.20533,0.69067 0.224,0.29867 0.63467,0.392 0.168,0.0373 0.42933,0.0373 0.28,0.0187 0.57867,0.0187 z" /><path
         id="path202"
         d="m 392.8224,768.79469 h -3.21068 v -1.4 h 7.89602 v 1.4 h -3.19201 v 10.78936 h -1.49333 z" /><path
         id="path204"
         d="m 401.5587,778.46404 q 0.84001,0 1.38134,-0.46666 0.56,-0.46667 0.728,-1.32534 0.0747,-0.31733 0.0933,-0.76533 0.0187,-0.46667 0.0187,-0.97067 0,-0.48534 -0.0373,-0.952 -0.0187,-0.48534 -0.0747,-0.82134 -0.14933,-0.84 -0.70933,-1.288 -0.56,-0.46667 -1.40001,-0.46667 -0.85866,0 -1.43733,0.46667 -0.56,0.46667 -0.70934,1.30667 -0.056,0.31733 -0.0747,0.80267 -0.0187,0.46666 -0.0187,0.952 0,0.504 0.0187,0.952 0.0187,0.448 0.0747,0.76533 0.14934,0.84 0.70934,1.32534 0.57867,0.48533 1.43733,0.48533 z m -0.0373,1.30667 q -1.36267,0 -2.27734,-0.728 -0.91466,-0.728 -1.19467,-1.904 -0.112,-0.46667 -0.14933,-0.93334 -0.0187,-0.48533 -0.0187,-1.26933 0,-0.76534 0.0373,-1.26934 0.0373,-0.504 0.13066,-0.93333 0.28001,-1.17601 1.21334,-1.90401 0.952,-0.728 2.31467,-0.728 1.36267,0 2.25867,0.728 0.91467,0.70934 1.19467,1.90401 0.112,0.46666 0.14933,0.952 0.0373,0.48533 0.0373,1.25067 0,0.784 -0.0373,1.26933 -0.0373,0.46667 -0.14933,0.93334 -0.28,1.176 -1.232,1.904 -0.93334,0.728 -2.27734,0.728 z" /><path
         id="path206"
         d="m 411.00143,778.46404 q 0.84,0 1.38134,-0.46666 0.56,-0.46667 0.728,-1.32534 0.0747,-0.31733 0.0933,-0.76533 0.0187,-0.46667 0.0187,-0.97067 0,-0.48534 -0.0373,-0.952 -0.0187,-0.48534 -0.0747,-0.82134 -0.14934,-0.84 -0.70934,-1.288 -0.56,-0.46667 -1.4,-0.46667 -0.85867,0 -1.43734,0.46667 -0.56,0.46667 -0.70933,1.30667 -0.056,0.31733 -0.0747,0.80267 -0.0187,0.46666 -0.0187,0.952 0,0.504 0.0187,0.952 0.0187,0.448 0.0747,0.76533 0.14933,0.84 0.70933,1.32534 0.57867,0.48533 1.43734,0.48533 z m -0.0373,1.30667 q -1.36267,0 -2.27734,-0.728 -0.91467,-0.728 -1.19467,-1.904 -0.112,-0.46667 -0.14933,-0.93334 -0.0187,-0.48533 -0.0187,-1.26933 0,-0.76534 0.0373,-1.26934 0.0373,-0.504 0.13067,-0.93333 0.28,-1.17601 1.21334,-1.90401 0.952,-0.728 2.31467,-0.728 1.36267,0 2.25867,0.728 0.91467,0.70934 1.19467,1.90401 0.112,0.46666 0.14933,0.952 0.0373,0.48533 0.0373,1.25067 0,0.784 -0.0373,1.26933 -0.0373,0.46667 -0.14933,0.93334 -0.28,1.176 -1.23201,1.904 -0.93333,0.728 -2.27733,0.728 z" /><path
         id="path208"
         d="m 418.57749,777.34404 q 0,0.14933 0.0187,0.29867 0.0187,0.14933 0.0933,0.28 0.0933,0.168 0.336,0.28 0.26133,0.112 0.63467,0.112 0.224,0 0.35466,-0.0187 0.13067,-0.0187 0.224,-0.056 v 1.34401 q -0.14933,0.0373 -0.35466,0.056 -0.18667,0.0373 -0.46667,0.0373 -0.91467,0 -1.41867,-0.336 -0.48534,-0.35467 -0.70934,-0.93334 -0.0747,-0.224 -0.112,-0.54133 -0.0373,-0.31733 -0.0373,-0.52267 v -10.52802 h 1.43734 v 10.52802 z" /></g><g
       style="font-size:18.6667px;line-height:1.25;font-family:'HTWBerlin Office';-inkscape-font-specification:'HTWBerlin Office'"
       id="text88"
       aria-label="Unhooked"><path
         id="path63"
         d="m 574.8768,219.29812 h 1.49334 v 6.47734 q 0,0.76534 -0.0187,1.30667 -0.0187,0.52267 -0.0747,0.91467 -0.0373,0.392 -0.112,0.69067 -0.0747,0.28 -0.18666,0.56 -0.41067,1.064 -1.4,1.75467 -0.97067,0.672 -2.52001,0.672 -1.53067,0 -2.52,-0.69067 -0.98934,-0.69067 -1.40001,-1.77333 -0.112,-0.28001 -0.18666,-0.56001 -0.056,-0.28 -0.112,-0.65333 -0.0373,-0.392 -0.056,-0.91467 -0.0187,-0.54133 -0.0187,-1.30667 v -6.47734 h 1.49334 v 6.47734 q 0,0.63467 0,1.04534 0.0187,0.41066 0.0373,0.69067 0.0187,0.28 0.056,0.46666 0.0373,0.168 0.0747,0.35467 0.0933,0.37333 0.28,0.728 0.20533,0.336 0.52266,0.59734 0.31734,0.26133 0.76534,0.42933 0.448,0.14933 1.064,0.14933 0.616,0 1.08267,-0.14933 0.46667,-0.168 0.784,-0.42933 0.336,-0.28 0.52267,-0.61601 0.18667,-0.35466 0.26133,-0.728 0.0373,-0.168 0.056,-0.35466 0.0373,-0.20534 0.056,-0.48534 0.0373,-0.29867 0.0373,-0.69067 0.0187,-0.41066 0.0187,-1.008 z" /><path
         id="path65"
         d="m 580.66785,231.48747 h -1.41866 v -9.27735 h 1.19466 l 0.112,1.08267 q 0.37334,-0.57867 1.00801,-0.93333 0.63466,-0.35467 1.512,-0.35467 0.672,0 1.232,0.224 0.56,0.224 0.952,0.63467 0.392,0.41066 0.616,0.98933 0.224,0.57867 0.224,1.26934 v 6.36534 h -1.43733 v -6.08534 q 0,-0.97067 -0.504,-1.49334 -0.504,-0.54133 -1.47467,-0.54133 -0.84,0 -1.43734,0.54133 -0.57867,0.52267 -0.57867,1.49334 z" /><path
         id="path67"
         d="m 590.32933,231.48747 h -1.41867 v -12.76802 h 1.41867 v 4.44267 q 0.37333,-0.54133 0.97067,-0.84 0.616,-0.31733 1.43734,-0.31733 0.672,0 1.232,0.224 0.56,0.224 0.952,0.63467 0.392,0.41066 0.616,0.98933 0.224,0.57867 0.224,1.26934 v 6.36534 H 594.324 v -6.08534 q 0,-0.97067 -0.504,-1.49334 -0.504,-0.54133 -1.47467,-0.54133 -0.84,0 -1.43733,0.54133 -0.57867,0.52267 -0.57867,1.49334 z" /><path
         id="path69"
         d="m 601.85748,230.36747 q 0.84,0 1.38133,-0.46667 0.56,-0.46666 0.728,-1.32533 0.0747,-0.31734 0.0933,-0.76534 0.0187,-0.46666 0.0187,-0.97067 0,-0.48533 -0.0373,-0.952 -0.0187,-0.48533 -0.0747,-0.82133 -0.14933,-0.84 -0.70933,-1.288 -0.56,-0.46667 -1.4,-0.46667 -0.85867,0 -1.43734,0.46667 -0.56,0.46666 -0.70933,1.30666 -0.056,0.31734 -0.0747,0.80267 -0.0187,0.46667 -0.0187,0.952 0,0.50401 0.0187,0.95201 0.0187,0.448 0.0747,0.76533 0.14933,0.84 0.70933,1.32534 0.57867,0.48533 1.43734,0.48533 z m -0.0373,1.30667 q -1.36267,0 -2.27733,-0.728 -0.91467,-0.728 -1.19467,-1.90401 -0.112,-0.46666 -0.14934,-0.93333 -0.0187,-0.48533 -0.0187,-1.26934 0,-0.76533 0.0373,-1.26933 0.0373,-0.504 0.13067,-0.93334 0.28,-1.176 1.21333,-1.904 0.952,-0.728 2.31467,-0.728 1.36267,0 2.25867,0.728 0.91467,0.70933 1.19467,1.904 0.112,0.46667 0.14934,0.95201 0.0373,0.48533 0.0373,1.25066 0,0.78401 -0.0373,1.26934 -0.0373,0.46667 -0.14934,0.93333 -0.28,1.17601 -1.232,1.90401 -0.93333,0.728 -2.27734,0.728 z" /><path
         id="path71"
         d="m 611.3002,230.36747 q 0.84,0 1.38134,-0.46667 0.56,-0.46666 0.728,-1.32533 0.0747,-0.31734 0.0933,-0.76534 0.0187,-0.46666 0.0187,-0.97067 0,-0.48533 -0.0373,-0.952 -0.0187,-0.48533 -0.0747,-0.82133 -0.14934,-0.84 -0.70934,-1.288 -0.56,-0.46667 -1.4,-0.46667 -0.85867,0 -1.43733,0.46667 -0.56001,0.46666 -0.70934,1.30666 -0.056,0.31734 -0.0747,0.80267 -0.0187,0.46667 -0.0187,0.952 0,0.50401 0.0187,0.95201 0.0187,0.448 0.0747,0.76533 0.14933,0.84 0.70934,1.32534 0.57866,0.48533 1.43733,0.48533 z m -0.0373,1.30667 q -1.36267,0 -2.27734,-0.728 -0.91467,-0.728 -1.19467,-1.90401 -0.112,-0.46666 -0.14933,-0.93333 -0.0187,-0.48533 -0.0187,-1.26934 0,-0.76533 0.0373,-1.26933 0.0373,-0.504 0.13067,-0.93334 0.28,-1.176 1.21334,-1.904 0.952,-0.728 2.31467,-0.728 1.36267,0 2.25867,0.728 0.91467,0.70933 1.19467,1.904 0.112,0.46667 0.14933,0.95201 0.0373,0.48533 0.0373,1.25066 0,0.78401 -0.0373,1.26934 -0.0373,0.46667 -0.14933,0.93333 -0.28,1.17601 -1.232,1.90401 -0.93334,0.728 -2.27734,0.728 z" /><path
         id="path73"
         d="m 618.87626,227.56747 v 3.92 h -1.41867 v -12.76802 h 1.41867 v 7.46668 h 0.41066 q 0.84001,0 1.43734,-0.29867 0.59734,-0.31733 0.97067,-0.82133 0.392,-0.52267 0.57867,-1.176 0.18666,-0.67201 0.18666,-1.36267 v -0.31734 h 1.43734 q 0.0187,0.112 0.0187,0.20534 0,0.0747 0,0.168 0,0.69066 -0.14934,1.36267 -0.14933,0.65333 -0.448,1.25066 -0.28,0.57867 -0.728,1.06401 -0.448,0.46666 -1.02667,0.784 l 2.78134,4.44267 h -1.75467 l -2.408,-3.99467 q -0.20534,0.0373 -0.42934,0.056 -0.20533,0.0187 -0.42933,0.0187 z" /><path
         id="path75"
         d="m 627.27335,225.10346 q -0.0373,0.224 -0.056,0.52267 -0.0187,0.28 -0.0187,0.59733 h 4.06934 v -0.392 q 0,-0.24266 -0.0187,-0.42933 -0.0187,-0.20534 -0.056,-0.46667 -0.13067,-0.69067 -0.616,-1.15733 -0.46667,-0.46667 -1.30667,-0.46667 -0.85867,0 -1.36267,0.48533 -0.48533,0.46667 -0.63467,1.30667 z m 5.26401,5.02134 q -0.48533,0.728 -1.30667,1.13867 -0.82133,0.41067 -1.82933,0.41067 -1.41867,0 -2.31467,-0.728 -0.87734,-0.728 -1.176,-1.90401 -0.11201,-0.46666 -0.14934,-0.93333 -0.0187,-0.48533 -0.0187,-1.26934 0,-0.76533 0.0187,-1.25066 0.0373,-0.48534 0.14934,-0.95201 0.28,-1.176 1.15733,-1.904 0.87734,-0.728 2.24,-0.728 1.36267,0 2.18401,0.70933 0.82133,0.70934 1.10133,1.94134 0.0747,0.29867 0.0933,0.728 0.0373,0.42934 0.0373,0.97067 0,0.26133 -0.0187,0.56 0,0.28 -0.0187,0.59734 h -5.48801 q 0.0187,0.29866 0.0373,0.56 0.0187,0.26133 0.056,0.48533 0.14933,0.82134 0.69067,1.32534 0.56,0.48533 1.456,0.48533 0.70934,0 1.26934,-0.336 0.56,-0.336 0.87733,-0.87734 z" /><path
         id="path77"
         d="m 638.42525,230.33014 q 0.84,0 1.38134,-0.46667 0.54133,-0.48533 0.70933,-1.32534 0.0747,-0.31733 0.0933,-0.74666 0.0187,-0.448 0.0187,-0.95201 0,-0.48533 -0.0187,-0.93333 -0.0187,-0.46667 -0.0933,-0.80267 -0.168,-0.84 -0.70933,-1.288 -0.54134,-0.46667 -1.38134,-0.46667 -0.85867,0 -1.41867,0.448 -0.56,0.448 -0.70933,1.288 -0.056,0.35467 -0.0933,0.82134 -0.0187,0.448 -0.0187,0.93333 0,0.50401 0.0187,0.95201 0.0373,0.448 0.0933,0.76533 0.14933,0.84 0.70933,1.30667 0.56,0.46667 1.41867,0.46667 z m 2.24,0.0933 q -0.35466,0.57867 -0.93333,0.91467 -0.56,0.336 -1.49334,0.336 -1.344,0 -2.20267,-0.728 -0.84,-0.728 -1.12,-1.88534 -0.112,-0.48533 -0.14933,-0.952 -0.0187,-0.48533 -0.0187,-1.26934 0,-0.76533 0.0373,-1.25066 0.0373,-0.48534 0.13067,-0.95201 0.13067,-0.56 0.42934,-1.04533 0.31733,-0.48534 0.74666,-0.84 0.448,-0.35467 0.98934,-0.54134 0.54133,-0.20533 1.15733,-0.20533 0.91467,0 1.47467,0.29867 0.56,0.28 0.91467,0.784 v -4.36801 h 1.43734 v 12.76802 h -1.26934 z" /></g><g
       style="font-size:18.4943px;line-height:1.25;font-family:'HTWBerlin Office';-inkscape-font-specification:'HTWBerlin Office';stroke-width:0.990765"
       id="text96"
       transform="scale(0.99076498,1.0093211)"
       aria-label="phoion"><path
         id="path252"
         style="stroke-width:0.990765"
         d="m 741.32134,333.4901 q -0.83224,0 -1.38707,0.46236 -0.55483,0.44386 -0.72128,1.2946 -0.074,0.31441 -0.0925,0.77676 0,0.44387 0,0.92472 0,0.49934 0.0185,0.94321 0.0185,0.42537 0.074,0.73977 0.16645,0.83224 0.72128,1.3131 0.55483,0.46235 1.38707,0.46235 0.83225,0 1.38708,-0.46235 0.55482,-0.46236 0.72127,-1.29461 0.074,-0.3144 0.0925,-0.75826 0.0185,-0.44387 0.0185,-0.94321 0,-0.48085 -0.0185,-0.92472 -0.0185,-0.46235 -0.0925,-0.81375 -0.16645,-0.81375 -0.72127,-1.25761 -0.55483,-0.46236 -1.38708,-0.46236 z m 0.16645,8.24846 q -0.90622,0 -1.47954,-0.27741 -0.55483,-0.29591 -0.88773,-0.81375 v 4.34616 h -1.40557 v -12.63161 h 1.25762 l 0.12946,1.12815 q 0.36988,-0.59181 0.9802,-0.9617 0.61031,-0.36989 1.57201,-0.36989 1.27611,0 2.05287,0.72128 0.79525,0.72128 1.07267,1.86793 0.11096,0.48085 0.12946,0.9617 0.037,0.48085 0.037,1.23912 0,0.77676 -0.037,1.25761 -0.0185,0.46236 -0.12946,0.94321 -0.27742,1.14665 -1.12815,1.86792 -0.83225,0.72128 -2.16384,0.72128 z" /><path
         id="path254"
         style="stroke-width:0.990765"
         d="m 748.80113,341.55362 h -1.40556 v -12.6501 h 1.40556 v 4.40164 q 0.36989,-0.53633 0.96171,-0.83224 0.61031,-0.31441 1.42406,-0.31441 0.66579,0 1.22062,0.22194 0.55483,0.22193 0.94321,0.6288 0.38838,0.40688 0.61031,0.9802 0.22193,0.57332 0.22193,1.25761 v 6.30656 h -1.42406 v -6.02914 q 0,-0.96171 -0.49934,-1.47955 -0.49935,-0.53633 -1.46105,-0.53633 -0.83225,0 -1.42406,0.53633 -0.57333,0.51784 -0.57333,1.47955 z" /><path
         id="path256"
         style="stroke-width:0.990765"
         d="m 760.22281,340.44396 q 0.83224,0 1.36858,-0.46236 0.55483,-0.46235 0.72127,-1.31309 0.074,-0.3144 0.0925,-0.75827 0.0185,-0.46236 0.0185,-0.9617 0,-0.48085 -0.037,-0.94321 -0.0185,-0.48085 -0.074,-0.81375 -0.14795,-0.83224 -0.70278,-1.27611 -0.55483,-0.46235 -1.38707,-0.46235 -0.85074,0 -1.42406,0.46235 -0.55483,0.46236 -0.70279,1.2946 -0.0555,0.31441 -0.074,0.79526 -0.0185,0.46236 -0.0185,0.94321 0,0.49934 0.0185,0.94321 0.0185,0.44386 0.074,0.75826 0.14796,0.83225 0.70279,1.3131 0.57332,0.48085 1.42406,0.48085 z m -0.037,1.2946 q -1.35008,0 -2.2563,-0.72128 -0.90623,-0.72127 -1.18364,-1.88641 -0.11097,-0.46236 -0.14795,-0.92472 -0.0185,-0.48085 -0.0185,-1.25761 0,-0.75827 0.037,-1.25761 0.037,-0.49935 0.12946,-0.92472 0.27741,-1.16514 1.20213,-1.88642 0.94321,-0.72128 2.29329,-0.72128 1.35009,0 2.23781,0.72128 0.90622,0.70279 1.18364,1.88642 0.11096,0.46236 0.14795,0.94321 0.037,0.48085 0.037,1.23912 0,0.77676 -0.037,1.25761 -0.037,0.46236 -0.14795,0.92472 -0.27742,1.16514 -1.22063,1.88641 -0.92471,0.72128 -2.2563,0.72128 z" /><path
         id="path258"
         style="stroke-width:0.990765"
         d="m 766.32333,341.55362 v -9.19167 h 1.42406 v 9.19167 z m 0.72127,-10.56025 q -0.42536,0 -0.72127,-0.29591 -0.29591,-0.3144 -0.29591,-0.72127 0,-0.42537 0.29591,-0.72128 0.29591,-0.29591 0.72127,-0.29591 0.42537,0 0.72128,0.29591 0.29591,0.29591 0.29591,0.72128 0,0.40687 -0.29591,0.72127 -0.29591,0.29591 -0.72128,0.29591 z" /><path
         id="path260"
         style="stroke-width:0.990765"
         d="m 773.84068,340.44396 q 0.83225,0 1.36858,-0.46236 0.55483,-0.46235 0.72128,-1.31309 0.074,-0.3144 0.0925,-0.75827 0.0185,-0.46236 0.0185,-0.9617 0,-0.48085 -0.037,-0.94321 -0.0185,-0.48085 -0.074,-0.81375 -0.14796,-0.83224 -0.70278,-1.27611 -0.55483,-0.46235 -1.38708,-0.46235 -0.85073,0 -1.42406,0.46235 -0.55483,0.46236 -0.70278,1.2946 -0.0555,0.31441 -0.074,0.79526 -0.0185,0.46236 -0.0185,0.94321 0,0.49934 0.0185,0.94321 0.0185,0.44386 0.074,0.75826 0.14795,0.83225 0.70278,1.3131 0.57333,0.48085 1.42406,0.48085 z m -0.037,1.2946 q -1.35008,0 -2.2563,-0.72128 -0.90622,-0.72127 -1.18364,-1.88641 -0.11096,-0.46236 -0.14795,-0.92472 -0.0185,-0.48085 -0.0185,-1.25761 0,-0.75827 0.037,-1.25761 0.037,-0.49935 0.12946,-0.92472 0.27742,-1.16514 1.20213,-1.88642 0.94321,-0.72128 2.2933,-0.72128 1.35008,0 2.23781,0.72128 0.90622,0.70279 1.18363,1.88642 0.11097,0.46236 0.14796,0.94321 0.037,0.48085 0.037,1.23912 0,0.77676 -0.037,1.25761 -0.037,0.46236 -0.14796,0.92472 -0.27741,1.16514 -1.22062,1.88641 -0.92472,0.72128 -2.25631,0.72128 z" /><path
         id="path262"
         style="stroke-width:0.990765"
         d="m 781.34677,341.55362 h -1.40557 v -9.19167 h 1.18364 l 0.11096,1.07267 q 0.36989,-0.57332 0.99869,-0.92471 0.62881,-0.3514 1.49804,-0.3514 0.6658,0 1.22063,0.22194 0.55483,0.22193 0.94321,0.6288 0.38838,0.40688 0.61031,0.9802 0.22193,0.57332 0.22193,1.25761 v 6.30656 h -1.42406 v -6.02914 q 0,-0.96171 -0.49935,-1.47955 -0.49934,-0.53633 -1.46105,-0.53633 -0.83224,0 -1.42406,0.53633 -0.57332,0.51784 -0.57332,1.47955 z" /></g><g
       style="font-size:18.6667px;line-height:1.25;font-family:'HTWBerlin Office';-inkscape-font-specification:'HTWBerlin Office'"
       id="text100"
       aria-label="VACS"><path
         id="path243"
         d="m 784.02905,504.37555 -2.91201,-7.89601 q -0.28,-0.76534 -0.448,-1.66134 -0.14933,-0.91467 -0.14933,-1.624 v -1.00801 h 1.49334 v 1.00801 q 0,0.56 0.13066,1.38133 0.14934,0.80267 0.392,1.512 l 1.84801,5.26401 q 0.18666,0.54134 0.336,1.00801 0.14933,0.46666 0.168,0.69066 h 0.0933 q 0,-0.224 0.14933,-0.69066 0.14934,-0.46667 0.336,-1.00801 l 1.86667,-5.26401 q 0.112,-0.336 0.20534,-0.728 0.0933,-0.392 0.14933,-0.784 0.0747,-0.392 0.112,-0.74667 0.0373,-0.35466 0.0373,-0.63466 v -1.00801 h 1.49333 v 1.00801 q 0,0.70933 -0.168,1.624 -0.14933,0.896 -0.42933,1.66134 l -2.91201,7.89601 z" /><path
         id="path245"
         d="m 794.91378,493.56753 -2.31467,6.66401 h 4.62934 z m -2.91201,10.80802 h -1.47467 v -1.02667 q 0,-0.69067 0.168,-1.58667 0.168,-0.91467 0.448,-1.68 l 2.89334,-7.89602 h 1.79201 l 2.89333,7.89602 q 0.28,0.76533 0.42934,1.68 0.168,0.896 0.168,1.58667 v 1.02667 h -1.49334 v -1.02667 q 0,-0.336 -0.056,-0.80267 -0.056,-0.46666 -0.14933,-0.952 h -5.39468 q -0.112,0.48534 -0.168,0.952 -0.056,0.46667 -0.056,0.80267 z" /><path
         id="path247"
         d="m 805.55146,504.56222 q -0.85866,0 -1.53067,-0.224 -0.672,-0.224 -1.19466,-0.59734 -0.504,-0.392 -0.85867,-0.896 -0.35467,-0.504 -0.56,-1.04534 -0.112,-0.29866 -0.18667,-0.57866 -0.0747,-0.29867 -0.13067,-0.69067 -0.056,-0.392 -0.0747,-0.91467 -0.0187,-0.54133 -0.0187,-1.32534 0,-0.82133 0.0187,-1.36266 0.0187,-0.54134 0.0747,-0.93334 0.056,-0.392 0.13067,-0.69067 0.0933,-0.31733 0.24267,-0.69066 0.18666,-0.48534 0.52266,-0.95201 0.35467,-0.46666 0.85867,-0.84 0.52267,-0.37333 1.176,-0.59733 0.67201,-0.224 1.51201,-0.224 1.49333,0 2.408,0.59733 0.91467,0.59734 1.288,1.47467 0.26134,0.616 0.336,1.08267 0.0933,0.46667 0.0933,0.98933 v 0.29867 h -1.49334 v -0.26133 q 0,-0.20534 -0.0187,-0.42934 -0.0187,-0.224 -0.0747,-0.448 -0.0933,-0.392 -0.29867,-0.728 -0.18667,-0.35467 -0.504,-0.616 -0.29867,-0.26133 -0.74667,-0.41067 -0.42933,-0.14933 -1.008,-0.14933 -0.672,0 -1.15733,0.18667 -0.48534,0.18666 -0.82134,0.48533 -0.336,0.29867 -0.54133,0.70934 -0.20534,0.392 -0.31734,0.80266 -0.0373,0.168 -0.0747,0.37334 -0.0373,0.18666 -0.0747,0.48533 -0.0187,0.29867 -0.0373,0.74667 0,0.448 0,1.10133 0,0.65334 0,1.10134 0.0187,0.42933 0.0373,0.728 0.0373,0.28 0.0747,0.48534 0.0373,0.18666 0.0747,0.35466 0.112,0.41067 0.31734,0.80267 0.224,0.392 0.56,0.69067 0.35466,0.29867 0.85867,0.48533 0.504,0.18667 1.176,0.18667 0.63467,0 1.12,-0.14933 0.48533,-0.168 0.82133,-0.392 0.35467,-0.224 0.57867,-0.48534 0.24267,-0.28 0.392,-0.504 l 1.008,1.02667 q -0.224,0.31733 -0.57866,0.672 -0.336,0.336 -0.82134,0.616 -0.48533,0.28 -1.12,0.46667 -0.63467,0.18667 -1.43734,0.18667 z" /><path
         id="path249"
         d="m 814.7279,504.56222 q -0.672,0 -1.25067,-0.168 -0.57867,-0.168 -1.04534,-0.448 -0.448,-0.29867 -0.784,-0.67201 -0.336,-0.37333 -0.56,-0.784 l 1.12,-0.97067 q 0.31734,0.70934 1.02667,1.17601 0.728,0.448 1.68,0.448 0.97067,0 1.49334,-0.48534 0.54133,-0.48533 0.54133,-1.32533 0,-0.70934 -0.46666,-1.176 -0.448,-0.46667 -1.12001,-0.78401 l -1.38133,-0.63466 q -1.232,-0.57867 -1.82934,-1.36267 -0.59733,-0.784 -0.59733,-1.96001 0,-0.74666 0.24266,-1.38133 0.26134,-0.63467 0.70934,-1.08267 0.46667,-0.448 1.10133,-0.69067 0.63467,-0.26133 1.40001,-0.26133 0.74667,0 1.36267,0.224 0.63466,0.224 1.08266,0.69067 0.46667,0.448 0.72801,1.13866 0.26133,0.69067 0.26133,1.60534 v 0.18667 h -1.47467 v -0.24267 q 0,-0.448 -0.112,-0.84 -0.112,-0.41067 -0.35467,-0.70934 -0.224,-0.29866 -0.616,-0.46666 -0.37333,-0.18667 -0.93333,-0.18667 -0.952,0 -1.43734,0.504 -0.46667,0.48533 -0.46667,1.38134 0,0.28 0.056,0.56 0.056,0.26133 0.20534,0.52266 0.168,0.24267 0.448,0.48534 0.29867,0.24267 0.76533,0.46667 l 1.62401,0.76533 q 1.232,0.57867 1.75467,1.344 0.54133,0.76534 0.54133,1.75467 0,1.60534 -0.98934,2.50134 -0.98933,0.87734 -2.72533,0.87734 z" /></g><g
       style="font-size:18.6667px;line-height:1.25;font-family:'HTWBerlin Office';-inkscape-font-specification:'HTWBerlin Office'"
       id="text104"
       aria-label="YouCan!"><path
         id="path228"
         d="m 733.62153,667.19293 v -4.29334 l -2.70668,-4.21867 q -0.42933,-0.69067 -0.616,-1.34401 -0.168,-0.65333 -0.168,-1.344 v -0.98933 h 1.49334 v 0.98933 q 0,0.56 0.168,1.12 0.168,0.56 0.56,1.21334 l 2.016,3.30401 2.01601,-3.30401 q 0.392,-0.65334 0.56,-1.21334 0.168,-0.56 0.168,-1.12 v -0.98933 h 1.49334 v 0.98933 q 0,0.69067 -0.14934,1.32534 -0.14933,0.616 -0.63467,1.36267 l -2.70667,4.21867 v 4.29334 z" /><path
         id="path230"
         d="m 743.35038,666.07293 q 0.84,0 1.38133,-0.46667 0.56,-0.46666 0.728,-1.32533 0.0747,-0.31734 0.0933,-0.76534 0.0187,-0.46667 0.0187,-0.97067 0,-0.48533 -0.0373,-0.952 -0.0187,-0.48533 -0.0747,-0.82133 -0.14933,-0.84 -0.70933,-1.28801 -0.56,-0.46666 -1.4,-0.46666 -0.85867,0 -1.43734,0.46666 -0.56,0.46667 -0.70933,1.30667 -0.056,0.31734 -0.0747,0.80267 -0.0187,0.46667 -0.0187,0.952 0,0.504 0.0187,0.95201 0.0187,0.448 0.0747,0.76533 0.14933,0.84 0.70933,1.32534 0.57867,0.48533 1.43734,0.48533 z m -0.0373,1.30667 q -1.36267,0 -2.27733,-0.728 -0.91467,-0.728 -1.19467,-1.90401 -0.112,-0.46666 -0.14934,-0.93333 -0.0187,-0.48533 -0.0187,-1.26934 0,-0.76533 0.0373,-1.26933 0.0373,-0.504 0.13067,-0.93334 0.28,-1.176 1.21333,-1.904 0.952,-0.728 2.31467,-0.728 1.36267,0 2.25867,0.728 0.91467,0.70933 1.19467,1.904 0.112,0.46667 0.14934,0.952 0.0373,0.48534 0.0373,1.25067 0,0.78401 -0.0373,1.26934 -0.0373,0.46667 -0.14934,0.93333 -0.28,1.17601 -1.232,1.90401 -0.93333,0.728 -2.27734,0.728 z" /><path
         id="path232"
         d="m 754.95844,666.11026 q -0.37333,0.57867 -1.008,0.93334 -0.63467,0.336 -1.53067,0.336 -0.672,0 -1.232,-0.224 -0.54134,-0.224 -0.93334,-0.616 -0.392,-0.41067 -0.616,-0.97067 -0.20533,-0.57867 -0.20533,-1.288 v -6.36535 h 1.41867 v 6.04801 q 0,0.97067 0.504,1.49334 0.504,0.52267 1.49333,0.52267 0.84,0 1.41867,-0.52267 0.57867,-0.52267 0.57867,-1.47467 v -6.06668 h 1.43734 v 9.27735 h -1.19467 z" /><path
         id="path234"
         d="m 763.33191,667.3796 q -0.85867,0 -1.53067,-0.224 -0.672,-0.224 -1.19467,-0.59734 -0.504,-0.392 -0.85866,-0.896 -0.35467,-0.504 -0.56,-1.04533 -0.112,-0.29867 -0.18667,-0.57867 -0.0747,-0.29867 -0.13067,-0.69067 -0.056,-0.392 -0.0747,-0.91467 -0.0187,-0.54133 -0.0187,-1.32533 0,-0.82134 0.0187,-1.36267 0.0187,-0.54134 0.0747,-0.93334 0.056,-0.392 0.13067,-0.69066 0.0933,-0.31734 0.24267,-0.69067 0.18666,-0.48534 0.52266,-0.952 0.35467,-0.46667 0.85867,-0.84001 0.52267,-0.37333 1.176,-0.59733 0.672,-0.224 1.51201,-0.224 1.49333,0 2.408,0.59733 0.91467,0.59734 1.288,1.47467 0.26134,0.616 0.336,1.08267 0.0933,0.46667 0.0933,0.98934 v 0.29866 h -1.49334 v -0.26133 q 0,-0.20533 -0.0187,-0.42933 -0.0187,-0.224 -0.0747,-0.448 -0.0933,-0.392 -0.29867,-0.72801 -0.18667,-0.35466 -0.504,-0.616 -0.29867,-0.26133 -0.74667,-0.41066 -0.42933,-0.14934 -1.008,-0.14934 -0.672,0 -1.15734,0.18667 -0.48533,0.18667 -0.82133,0.48533 -0.336,0.29867 -0.54133,0.70934 -0.20534,0.392 -0.31734,0.80267 -0.0373,0.168 -0.0747,0.37333 -0.0373,0.18667 -0.0747,0.48533 -0.0187,0.29867 -0.0373,0.74667 0,0.448 0,1.10134 0,0.65333 0,1.10133 0.0187,0.42934 0.0373,0.728 0.0373,0.28 0.0747,0.48534 0.0373,0.18667 0.0747,0.35467 0.112,0.41066 0.31734,0.80266 0.224,0.392 0.56,0.69067 0.35466,0.29867 0.85866,0.48534 0.50401,0.18666 1.17601,0.18666 0.63466,0 1.12,-0.14933 0.48533,-0.168 0.82133,-0.392 0.35467,-0.224 0.57867,-0.48534 0.24267,-0.28 0.392,-0.504 l 1.008,1.02667 q -0.224,0.31734 -0.57866,0.672 -0.336,0.336 -0.82134,0.616 -0.48533,0.28001 -1.12,0.46667 -0.63467,0.18667 -1.43734,0.18667 z" /><path
         id="path236"
         d="m 772.30301,665.96093 q 0.26134,0 0.52267,0 0.26133,-0.0187 0.448,-0.056 0.392,-0.0933 0.616,-0.42933 0.24267,-0.336 0.24267,-0.82134 0,-0.504 -0.24267,-0.82133 -0.224,-0.336 -0.616,-0.42934 -0.112,-0.0373 -0.37333,-0.0373 -0.24267,0 -0.59734,0 -0.336,0 -0.59733,0 -0.26134,0 -0.392,0.0373 -0.85867,0.20534 -0.85867,1.25067 0,0.48534 0.20533,0.82134 0.224,0.336 0.65334,0.42933 0.14933,0.0373 0.42933,0.056 0.29867,0 0.56,0 z m 1.08267,1.15734 q -0.29867,0.0933 -0.59733,0.13066 -0.29867,0.0373 -0.78401,0.0373 -0.46666,0 -0.76533,-0.0373 -0.28,-0.0187 -0.57867,-0.112 -0.70933,-0.20533 -1.19467,-0.85867 -0.46666,-0.65333 -0.46666,-1.64267 0,-0.952 0.46666,-1.568 0.48534,-0.616 1.19467,-0.82133 0.31734,-0.0933 0.672,-0.13067 0.37334,-0.0373 0.85867,-0.0373 0.48534,0 0.74667,0.0373 0.28,0.0373 0.59733,0.14933 0.18667,0.0747 0.31734,0.14934 0.14933,0.0747 0.26133,0.20533 v -1.792 q 0,-0.85867 -0.504,-1.32534 -0.48533,-0.46667 -1.32534,-0.46667 -0.70933,0 -1.19466,0.35467 -0.48534,0.336 -0.72801,0.87734 l -1.10133,-0.76534 q 0.42933,-0.82133 1.13867,-1.30667 0.70933,-0.48533 1.99734,-0.48533 0.74666,0 1.32533,0.24267 0.59734,0.224 0.98934,0.63466 0.41066,0.41067 0.616,0.952 0.20533,0.54134 0.20533,1.15734 v 6.49601 h -1.19467 l -0.0933,-0.76533 q -0.29867,0.504 -0.85867,0.69067 z" /><path
         id="path238"
         d="m 779.76502,667.19293 h -1.41866 v -9.27735 h 1.19466 l 0.112,1.08267 q 0.37334,-0.57867 1.00801,-0.93333 0.63466,-0.35467 1.512,-0.35467 0.672,0 1.232,0.224 0.56,0.224 0.952,0.63467 0.392,0.41066 0.616,0.98933 0.224,0.57867 0.224,1.26934 v 6.36534 h -1.43733 v -6.08534 q 0,-0.97067 -0.504,-1.49334 -0.504,-0.54133 -1.47467,-0.54133 -0.84,0 -1.43734,0.54133 -0.57867,0.52267 -0.57867,1.49334 z" /><path
         id="path240"
         d="m 788.1945,655.00358 h 1.49333 v 8.41868 h -1.49333 z m 0.76533,12.32002 q -0.448,0 -0.74666,-0.29867 -0.28001,-0.31733 -0.28001,-0.74667 0,-0.42933 0.28001,-0.728 0.29866,-0.29866 0.74666,-0.29866 0.42934,0 0.728,0.29866 0.29867,0.29867 0.29867,0.728 0,0.42934 -0.29867,0.74667 -0.29866,0.29867 -0.728,0.29867 z" /></g><g
       style="font-size:18.6667px;line-height:1.25;font-family:'HTWBerlin Office';-inkscape-font-specification:'HTWBerlin Office'"
       id="text108"
       aria-label="Vi-Sense"><path
         id="path211"
         d="m 580.65185,781.22668 -2.912,-7.89601 q -0.28,-0.76533 -0.448,-1.66134 -0.14934,-0.91466 -0.14934,-1.624 v -1.008 h 1.49334 v 1.008 q 0,0.56 0.13066,1.38134 0.14934,0.80266 0.39201,1.512 l 1.848,5.26401 q 0.18667,0.54133 0.336,1.008 0.14933,0.46667 0.168,0.69067 h 0.0933 q 0,-0.224 0.14934,-0.69067 0.14933,-0.46667 0.336,-1.008 l 1.86667,-5.26401 q 0.112,-0.336 0.20533,-0.728 0.0933,-0.392 0.14933,-0.784 0.0747,-0.392 0.11201,-0.74667 0.0373,-0.35467 0.0373,-0.63467 v -1.008 h 1.49333 v 1.008 q 0,0.70934 -0.168,1.624 -0.14933,0.89601 -0.42933,1.66134 l -2.91201,7.89601 z" /><path
         id="path213"
         d="m 588.20428,781.22668 v -9.27735 h 1.43734 v 9.27735 z m 0.728,-10.65868 q -0.42933,0 -0.728,-0.29867 -0.29867,-0.31733 -0.29867,-0.728 0,-0.42933 0.29867,-0.728 0.29867,-0.29867 0.728,-0.29867 0.42934,0 0.728,0.29867 0.29867,0.29867 0.29867,0.728 0,0.41067 -0.29867,0.728 -0.29866,0.29867 -0.728,0.29867 z" /><path
         id="path215"
         d="m 592.41304,774.41334 h 5.37601 v 1.36267 h -5.37601 z" /><path
         id="path217"
         d="m 603.07464,781.41335 q -0.672,0 -1.25067,-0.168 -0.57867,-0.168 -1.04533,-0.448 -0.448,-0.29867 -0.784,-0.672 -0.33601,-0.37333 -0.56001,-0.784 l 1.12001,-0.97067 q 0.31733,0.70933 1.02666,1.176 0.72801,0.448 1.68001,0.448 0.97067,0 1.49333,-0.48533 0.54134,-0.48534 0.54134,-1.32534 0,-0.70933 -0.46667,-1.176 -0.448,-0.46667 -1.12,-0.784 l -1.38134,-0.63467 q -1.232,-0.57867 -1.82933,-1.36267 -0.59734,-0.784 -0.59734,-1.96 0,-0.74667 0.24267,-1.38134 0.26133,-0.63467 0.70933,-1.08267 0.46667,-0.448 1.10134,-0.69066 0.63467,-0.26134 1.4,-0.26134 0.74667,0 1.36267,0.224 0.63467,0.224 1.08267,0.69067 0.46667,0.448 0.728,1.13867 0.26133,0.69067 0.26133,1.60534 v 0.18666 h -1.47466 v -0.24266 q 0,-0.44801 -0.11201,-0.84001 -0.112,-0.41066 -0.35466,-0.70933 -0.224,-0.29867 -0.616,-0.46667 -0.37334,-0.18667 -0.93334,-0.18667 -0.952,0 -1.43733,0.50401 -0.46667,0.48533 -0.46667,1.38133 0,0.28 0.056,0.56 0.056,0.26134 0.20533,0.52267 0.168,0.24267 0.448,0.48533 0.29867,0.24267 0.76534,0.46667 l 1.624,0.76534 q 1.232,0.57866 1.75467,1.344 0.54133,0.76533 0.54133,1.75467 0,1.60534 -0.98933,2.50134 -0.98934,0.87733 -2.72534,0.87733 z" /><path
         id="path219"
         d="m 610.41591,774.84267 q -0.0373,0.224 -0.056,0.52267 -0.0187,0.28 -0.0187,0.59734 h 4.06934 v -0.39201 q 0,-0.24266 -0.0187,-0.42933 -0.0187,-0.20533 -0.056,-0.46667 -0.13066,-0.69067 -0.616,-1.15733 -0.46667,-0.46667 -1.30667,-0.46667 -0.85867,0 -1.36267,0.48533 -0.48533,0.46667 -0.63466,1.30667 z m 5.26401,5.02135 q -0.48534,0.728 -1.30667,1.13866 -0.82134,0.41067 -1.82934,0.41067 -1.41867,0 -2.31467,-0.728 -0.87734,-0.728 -1.176,-1.904 -0.112,-0.46667 -0.14934,-0.93334 -0.0187,-0.48533 -0.0187,-1.26933 0,-0.76534 0.0187,-1.25067 0.0373,-0.48534 0.14934,-0.952 0.28,-1.17601 1.15733,-1.90401 0.87734,-0.728 2.24001,-0.728 1.36267,0 2.184,0.70934 0.82133,0.70933 1.10134,1.94133 0.0747,0.29867 0.0933,0.728 0.0373,0.42934 0.0373,0.97067 0,0.26134 -0.0187,0.56 0,0.28 -0.0187,0.59734 h -5.48801 q 0.0187,0.29866 0.0373,0.56 0.0187,0.26133 0.056,0.48533 0.14934,0.82134 0.69067,1.32534 0.56,0.48533 1.456,0.48533 0.70934,0 1.26934,-0.336 0.56,-0.336 0.87733,-0.87733 z" /><path
         id="path221"
         d="m 619.70113,781.22668 h -1.41867 v -9.27735 h 1.19467 l 0.112,1.08267 q 0.37333,-0.57866 1.008,-0.93333 0.63467,-0.35467 1.512,-0.35467 0.672,0 1.23201,0.224 0.56,0.224 0.952,0.63467 0.392,0.41067 0.616,0.98933 0.224,0.57867 0.224,1.26934 v 6.36534 h -1.43734 v -6.08534 q 0,-0.97067 -0.504,-1.49334 -0.504,-0.54133 -1.47467,-0.54133 -0.84,0 -1.43733,0.54133 -0.57867,0.52267 -0.57867,1.49334 z" /><path
         id="path223"
         d="m 630.83727,776.03734 q 0.67201,0.24267 1.17601,0.48534 0.504,0.24266 0.82133,0.56 0.336,0.31733 0.48534,0.74667 0.168,0.42933 0.168,1.04533 0,0.56 -0.22401,1.02667 -0.20533,0.46667 -0.59733,0.80267 -0.37333,0.336 -0.93333,0.52266 -0.54134,0.18667 -1.21334,0.18667 -0.69067,0 -1.232,-0.14933 -0.54134,-0.14934 -0.93334,-0.37334 -0.392,-0.24266 -0.65333,-0.52266 -0.26134,-0.29867 -0.392,-0.59734 l 1.064,-0.896 q 0.224,0.46667 0.74667,0.85867 0.54133,0.37333 1.43733,0.37333 0.69067,0 1.08267,-0.31733 0.41067,-0.336 0.41067,-0.87734 0,-0.336 -0.112,-0.56 -0.112,-0.224 -0.37333,-0.392 -0.24267,-0.168 -0.65334,-0.31733 -0.392,-0.168 -0.97067,-0.392 l -0.20533,-0.0747 q -1.21334,-0.46667 -1.69867,-1.10133 -0.46667,-0.65334 -0.46667,-1.64267 0,-0.57867 0.224,-1.06401 0.224,-0.504 0.616,-0.85866 0.392,-0.35467 0.93334,-0.56001 0.54133,-0.20533 1.19467,-0.20533 0.784,0 1.344,0.20533 0.56,0.20534 0.91467,0.56001 0.35466,0.336 0.52267,0.82133 0.168,0.46667 0.168,1.008 v 0.24267 h -1.41867 v -0.0747 q 0,-0.784 -0.46667,-1.12 -0.448,-0.336 -1.10134,-0.336 -0.392,0 -0.672,0.13067 -0.28,0.112 -0.46667,0.29866 -0.168,0.18667 -0.26133,0.42934 -0.0933,0.224 -0.0933,0.46667 0,0.56 0.31733,0.896 0.31734,0.336 1.25067,0.672 z" /><path
         id="path225"
         d="m 637.06699,774.84267 q -0.0373,0.224 -0.056,0.52267 -0.0187,0.28 -0.0187,0.59734 h 4.06934 v -0.39201 q 0,-0.24266 -0.0187,-0.42933 -0.0187,-0.20533 -0.056,-0.46667 -0.13067,-0.69067 -0.616,-1.15733 -0.46667,-0.46667 -1.30667,-0.46667 -0.85867,0 -1.36267,0.48533 -0.48533,0.46667 -0.63467,1.30667 z m 5.26401,5.02135 q -0.48533,0.728 -1.30667,1.13866 -0.82133,0.41067 -1.82933,0.41067 -1.41867,0 -2.31467,-0.728 -0.87734,-0.728 -1.176,-1.904 -0.112,-0.46667 -0.14934,-0.93334 -0.0187,-0.48533 -0.0187,-1.26933 0,-0.76534 0.0187,-1.25067 0.0373,-0.48534 0.14934,-0.952 0.28,-1.17601 1.15733,-1.90401 0.87734,-0.728 2.24,-0.728 1.36267,0 2.18401,0.70934 0.82133,0.70933 1.10133,1.94133 0.0747,0.29867 0.0933,0.728 0.0373,0.42934 0.0373,0.97067 0,0.26134 -0.0187,0.56 0,0.28 -0.0187,0.59734 h -5.48801 q 0.0187,0.29866 0.0373,0.56 0.0187,0.26133 0.056,0.48533 0.14933,0.82134 0.69067,1.32534 0.56,0.48533 1.456,0.48533 0.70934,0 1.26934,-0.336 0.56,-0.336 0.87733,-0.87733 z" /></g></g><g
     transform="translate(-59.878405,-193.69703)"
     inkscape:label="showtime"
     id="layer3"
     inkscape:groupmode="layer"><text
       style="font-size:85.3333px;line-height:1.25;font-family:'HTWBerlin Office';-inkscape-font-specification:'HTWBerlin Office';text-align:center;white-space:pre;shape-inside:url(#rect1113);"
       id="text1111"
       xml:space="preserve" /><text
       style="font-size:85.3333px;line-height:1.25;font-family:'HTWBerlin Office';-inkscape-font-specification:'HTWBerlin Office';text-align:center;white-space:pre;shape-inside:url(#rect1119);"
       id="text1117"
       xml:space="preserve" /><text
       id="text1125"
       y="418.59604"
       x="449.5704"
       style="font-size:85.3333px;line-height:1.25;font-family:'HTWBerlin Office';-inkscape-font-specification:'HTWBerlin Office';text-align:center;text-anchor:middle"
       xml:space="preserve"><tspan
         y="418.59604"
         x="449.5704"
         id="tspan1123"
         sodipodi:role="line" /></text><g
       id="g1169"><g
         transform="translate(0,0.23590712)"
         id="g1176"><g
           id="g75"
           transform="translate(0,-1.3274664)"><g
             style="font-size:133.333px;line-height:0.9;font-family:'HTWBerlin Office';-inkscape-font-specification:'HTWBerlin Office';text-align:center;white-space:pre;shape-inside:url(#rect1129)"
             id="text1127"
             transform="translate(-74.57338,-18.678091)"
             aria-label="SHOW"><path
               id="path265"
               style="font-style:normal;font-variant:normal;font-weight:bold;font-stretch:normal;font-family:'HTWBerlin Office';-inkscape-font-specification:'HTWBerlin Office Bold'"
               d="m 447.11537,452.27203 q -10.26664,0 -17.46662,-4.79999 -7.06665,-4.93332 -11.06664,-12.66663 l 13.19996,-10.79997 q 3.06666,6.53331 7.33332,9.46664 4.26665,2.93332 9.33331,2.93332 4.66665,0 7.33331,-2.26666 2.66666,-2.26666 2.66666,-6.53331 0,-3.59999 -2.53332,-6.13332 -2.4,-2.53333 -5.86666,-3.99999 l -9.19997,-4.13332 q -9.46665,-4.26666 -13.86663,-10.13331 -4.39999,-5.86665 -4.39999,-14.66663 0,-5.73332 1.86666,-10.53331 1.99999,-4.79998 5.46665,-8.13331 3.46666,-3.46666 8.39998,-5.33332 4.93332,-1.99999 10.79997,-1.99999 5.33332,0 10.13331,1.59999 4.93332,1.46667 8.66664,4.79999 3.73333,3.33333 5.86666,8.66665 2.13332,5.33331 2.13332,12.79996 0,0.93333 0,1.86666 0,0.8 -0.13333,1.86667 h -17.06662 q 0.13333,-1.86667 0.13333,-3.59999 0,-5.73332 -2.26666,-9.06665 -2.26666,-3.33332 -7.73331,-3.33332 -4.53333,0 -6.93332,2.53332 -2.39999,2.4 -2.39999,6.66665 0,3.06666 1.46666,5.73332 1.6,2.66666 6.26665,4.93332 l 11.06664,5.19999 q 9.46664,4.39999 13.46663,10.13331 3.99999,5.73332 3.99999,13.19996 0,12.13331 -7.73331,18.93329 -7.59998,6.79998 -20.93328,6.79998 z" /><path
               id="path267"
               style="font-style:normal;font-variant:normal;font-weight:bold;font-stretch:normal;font-family:'HTWBerlin Office';-inkscape-font-specification:'HTWBerlin Office Bold'"
               d="m 489.81318,363.87226 h 17.06662 v 35.73324 h 26.39993 v -35.73324 h 17.06663 V 450.9387 H 533.27973 V 414.80546 H 506.8798 v 36.13324 h -17.06662 z" /><path
               id="path269"
               style="font-style:normal;font-variant:normal;font-weight:bold;font-stretch:normal;font-family:'HTWBerlin Office';-inkscape-font-specification:'HTWBerlin Office Bold'"
               d="m 599.15039,452.27203 q -6.13331,0 -11.19997,-1.59999 -5.06665,-1.73333 -9.19997,-4.39999 -3.99999,-2.8 -6.93332,-6.39999 -2.79999,-3.73332 -4.53332,-7.73331 -0.8,-2 -1.46666,-3.99999 -0.53334,-2.13333 -0.93333,-4.93332 -0.4,-2.79999 -0.53334,-6.53332 -0.13333,-3.73332 -0.13333,-9.19997 0,-5.59999 0.13333,-9.33331 0.26667,-3.86666 0.66667,-6.53332 0.4,-2.79999 0.93333,-4.79999 0.66666,-2.13333 1.6,-4.13332 1.73332,-3.99999 4.66665,-7.59998 2.93333,-3.73333 6.93332,-6.39999 4.13332,-2.79999 9.19997,-4.39998 5.19999,-1.73333 11.33331,-1.73333 5.99998,0 11.06664,1.59999 5.06665,1.6 9.06664,4.39999 3.99999,2.66666 6.93331,6.39999 2.93333,3.59999 4.66666,7.73331 0.8,1.99999 1.33333,4.13332 0.66666,2 1.06666,4.79999 0.4,2.79999 0.53333,6.66665 0.26667,3.73332 0.26667,9.19998 0,5.59998 -0.26667,9.46664 -0.13333,3.73332 -0.53333,6.53331 -0.4,2.66666 -1.06666,4.79999 -0.66667,2 -1.6,3.99999 -1.73333,3.99999 -4.66665,7.59998 -2.93333,3.59999 -7.06665,6.39999 -3.99999,2.66666 -9.19998,4.39999 -5.06665,1.59999 -11.06664,1.59999 z m 0.26667,-15.86663 q 3.73332,0 6.53332,-1.06666 2.93332,-1.06666 4.93332,-2.79999 2.13333,-1.86666 3.33332,-4.13332 1.33333,-2.26667 2,-4.53333 0.26666,-1.19999 0.53333,-2.26666 0.26667,-1.19999 0.4,-2.93332 0.26666,-1.86667 0.26666,-4.53332 0.13334,-2.66666 0.13334,-6.66665 0,-4.13333 -0.13334,-6.79999 0,-2.66666 -0.26666,-4.53332 -0.13333,-1.86666 -0.4,-3.06666 -0.26667,-1.19999 -0.53333,-2.39999 -0.66667,-2.26666 -2,-4.53332 -1.19999,-2.26666 -3.33332,-3.99999 -2,-1.86667 -4.93332,-2.93333 -2.8,-1.06666 -6.53332,-1.06666 -3.86666,0 -6.79998,1.19999 -2.79999,1.06667 -4.93332,2.93333 -2,1.73333 -3.33333,3.99999 -1.33333,2.26666 -1.99999,4.66665 -0.26667,1.06667 -0.53333,2.4 -0.26667,1.2 -0.4,2.93332 -0.13334,1.73333 -0.26667,4.39999 0,2.66666 0,6.79999 0,3.99999 0,6.66665 0.13333,2.66665 0.26667,4.39998 0.26666,1.6 0.4,2.66666 0.13333,1.06667 0.39999,1.86667 0.66667,2.66666 2,5.06665 1.33333,2.39999 3.46666,4.26666 2.13333,1.73332 4.93332,2.93332 2.93332,1.06666 6.79998,1.06666 z" /><path
               id="path271"
               style="font-style:normal;font-variant:normal;font-weight:bold;font-stretch:normal;font-family:'HTWBerlin Office';-inkscape-font-specification:'HTWBerlin Office Bold'"
               d="M 658.56484,450.9387 645.8982,396.27217 q -1.19999,-5.19998 -1.86666,-11.59997 -0.66666,-6.39998 -0.66666,-11.19997 v -9.59997 h 17.06662 v 9.59997 q 0,1.73333 0,4.13333 0.13333,2.26666 0.26667,4.79998 0.26666,2.53333 0.53333,5.06666 0.4,2.53332 0.8,4.79998 l 2.26666,12.26664 q 1.46666,7.46665 2.66666,13.86663 1.33333,6.39998 1.46666,9.99998 h 0.53333 q 0.4,-4.26666 1.6,-9.33331 1.19999,-5.06666 2.26666,-9.19998 l 6.79998,-26.53327 h 14.26663 l 6.93332,24.53327 q 1.59999,5.59999 2.93332,11.59997 1.46666,5.86666 1.86666,9.86665 h 0.53334 q 0.13333,-3.86666 1.33333,-10.13331 1.19999,-6.39998 2.39999,-13.59997 l 2.13333,-13.3333 q 0.4,-2.26666 0.66666,-4.79998 0.26667,-2.53333 0.4,-5.06666 0.26667,-2.53332 0.26667,-4.79998 0.13333,-2.4 0.13333,-4.13333 v -9.59997 h 17.06662 v 9.59997 q 0,4.79999 -0.66666,11.19997 -0.66667,6.26665 -1.73333,11.59997 L 716.29802,450.9387 H 697.6314 l -7.73331,-27.4666 q -1.73333,-6.13331 -2.39999,-9.99997 -0.53334,-3.99999 -0.8,-6.66665 h -0.53333 q -0.26667,2.66666 -0.93333,6.66665 -0.53334,3.86666 -2.26666,10.13331 l -7.33332,27.33326 z" /></g><g
             style="font-size:133.333px;line-height:1.25;font-family:'HTWBerlin Office';-inkscape-font-specification:'HTWBerlin Office';letter-spacing:12.7px"
             id="text1150"
             aria-label="2020"><path
               id="path274"
               style="font-size:133.333px;text-align:center;text-anchor:middle"
               d="m 353.99721,656.98895 v -9.33331 q 0,-3.59999 0.66666,-6.79998 0.66667,-3.33332 2.13333,-6.39998 1.46666,-3.06666 3.99999,-6.13332 2.53333,-3.19999 6.39998,-6.53332 l 13.59997,-12.1333 q 9.99997,-8.93331 9.99997,-17.73329 0,-6.26665 -3.46666,-9.73331 -3.33332,-3.59999 -9.33331,-3.59999 -3.99999,0 -6.66665,1.33333 -2.53332,1.2 -4.13332,3.46666 -1.59999,2.13333 -2.26666,5.06665 -0.53333,2.93333 -0.53333,6.26666 v 1.19999 h -10.53331 v -0.4 q 0,-13.3333 6.53332,-20.13328 6.66665,-6.79998 17.99995,-6.79998 5.19999,0 9.46665,1.73333 4.26665,1.59999 7.19998,4.66665 3.06666,2.93333 4.66665,7.19998 1.73333,4.13333 1.73333,9.33331 0,4.39999 -1.2,7.99998 -1.19999,3.59999 -3.19999,6.66665 -1.86666,2.93333 -4.13332,5.46666 -2.26666,2.39999 -4.39999,4.39998 l -15.46663,14.66663 q -2.66666,2.53333 -4.26665,4.66666 -1.6,1.99999 -2.53333,3.99999 -0.8,1.86666 -1.06666,3.73332 -0.26667,1.73333 -0.26667,3.73333 h 35.46658 v 10.1333 z" /><path
               id="path276"
               style="font-size:133.333px;text-align:center;text-anchor:middle"
               d="m 457.99905,578.58915 q -6.26665,0 -10.39997,3.59999 -4.13333,3.46666 -5.06666,9.33331 -0.26666,1.2 -0.4,3.59999 0,2.4 -0.13333,5.46666 -0.13333,3.06666 -0.13333,6.53331 0,3.33333 0,6.39999 0,1.99999 0,5.19998 0,3.2 0.13333,6.39999 0.13333,3.19999 0.13333,5.99998 0.13334,2.79999 0.4,3.99999 0.93333,5.99999 5.06666,9.46664 4.13332,3.46666 10.39997,3.46666 6.39998,0 10.26664,-3.33332 3.99999,-3.46666 5.19999,-9.59998 0.26666,-1.2 0.4,-3.99999 0.13333,-2.79999 0.13333,-5.99998 0.13333,-3.19999 0.13333,-6.39999 0,-3.19999 0,-5.19998 0,-2.13333 0,-5.33332 0,-3.19999 -0.13333,-6.53332 0,-3.33332 -0.13333,-6.13332 -0.13334,-2.79999 -0.4,-3.99999 -1.2,-5.99998 -5.19999,-9.46664 -3.86666,-3.46666 -10.26664,-3.46666 z m 0.26667,-9.99997 q 4.93332,0 9.06664,1.46666 4.13332,1.33333 7.33331,3.86666 3.33333,2.53333 5.46666,6.13332 2.26666,3.46665 3.19999,7.59998 0.4,1.73333 0.66666,4.53332 0.26667,2.66666 0.4,6.13332 0.26667,3.33332 0.26667,7.19998 0.13333,3.86665 0.13333,7.99998 0,3.46665 -0.13333,7.19998 0,3.59999 -0.13333,7.06665 -0.13334,3.46666 -0.53334,6.53331 -0.26666,2.93333 -0.66666,4.93332 -0.93333,4.13333 -3.19999,7.73332 -2.26666,3.46666 -5.59999,5.99998 -3.33332,2.53333 -7.59998,3.99999 -4.26665,1.33333 -9.19998,1.33333 -9.99997,0 -16.66662,-5.33332 -6.66665,-5.33332 -8.66664,-13.7333 -0.4,-1.73332 -0.66667,-4.79998 -0.26666,-3.19999 -0.4,-6.79999 0,-3.59999 -0.13333,-7.33331 0,-3.73332 0,-6.79998 0,-3.06666 0,-6.79999 0.13333,-3.73332 0.26667,-7.33331 0.13333,-3.73332 0.39999,-6.79998 0.26667,-3.19999 0.66667,-4.93332 0.93333,-4.13333 3.19999,-7.59998 2.26666,-3.59999 5.59999,-6.13332 3.33332,-2.53333 7.59998,-3.86666 4.26665,-1.46666 9.33331,-1.46666 z" /><path
               id="path278"
               style="font-size:133.333px;text-align:center;text-anchor:middle"
               d="m 515.33435,656.98895 v -9.33331 q 0,-3.59999 0.66666,-6.79998 0.66667,-3.33332 2.13333,-6.39998 1.46666,-3.06666 3.99999,-6.13332 2.53333,-3.19999 6.39998,-6.53332 l 13.59997,-12.1333 q 9.99997,-8.93331 9.99997,-17.73329 0,-6.26665 -3.46665,-9.73331 -3.33333,-3.59999 -9.33331,-3.59999 -3.99999,0 -6.66665,1.33333 -2.53333,1.2 -4.13333,3.46666 -1.59999,2.13333 -2.26666,5.06665 -0.53333,2.93333 -0.53333,6.26666 v 1.19999 h -10.5333 v -0.4 q 0,-13.3333 6.53331,-20.13328 6.66665,-6.79998 17.99996,-6.79998 5.19998,0 9.46664,1.73333 4.26665,1.59999 7.19998,4.66665 3.06666,2.93333 4.66666,7.19998 1.73332,4.13333 1.73332,9.33331 0,4.39999 -1.19999,7.99998 -1.2,3.59999 -3.19999,6.66665 -1.86667,2.93333 -4.13333,5.46666 -2.26666,2.39999 -4.39999,4.39998 l -15.46662,14.66663 q -2.66666,2.53333 -4.26666,4.66666 -1.6,1.99999 -2.53333,3.99999 -0.79999,1.86666 -1.06666,3.73332 -0.26667,1.73333 -0.26667,3.73333 h 35.46658 v 10.1333 z" /><path
               id="path280"
               style="font-size:133.333px;text-align:center;text-anchor:middle"
               d="m 619.3362,578.58915 q -6.26665,0 -10.39997,3.59999 -4.13332,3.46666 -5.06666,9.33331 -0.26666,1.2 -0.39999,3.59999 0,2.4 -0.13334,5.46666 -0.13333,3.06666 -0.13333,6.53331 0,3.33333 0,6.39999 0,1.99999 0,5.19998 0,3.2 0.13333,6.39999 0.13334,3.19999 0.13334,5.99998 0.13333,2.79999 0.39999,3.99999 0.93334,5.99999 5.06666,9.46664 4.13332,3.46666 10.39997,3.46666 6.39999,0 10.26664,-3.33332 3.99999,-3.46666 5.19999,-9.59998 0.26666,-1.2 0.4,-3.99999 0.13333,-2.79999 0.13333,-5.99998 0.13333,-3.19999 0.13333,-6.39999 0,-3.19999 0,-5.19998 0,-2.13333 0,-5.33332 0,-3.19999 -0.13333,-6.53332 0,-3.33332 -0.13333,-6.13332 -0.13334,-2.79999 -0.4,-3.99999 -1.2,-5.99998 -5.19999,-9.46664 -3.86665,-3.46666 -10.26664,-3.46666 z m 0.26667,-9.99997 q 4.93332,0 9.06664,1.46666 4.13332,1.33333 7.33332,3.86666 3.33332,2.53333 5.46665,6.13332 2.26666,3.46665 3.19999,7.59998 0.4,1.73333 0.66666,4.53332 0.26667,2.66666 0.4,6.13332 0.26667,3.33332 0.26667,7.19998 0.13333,3.86665 0.13333,7.99998 0,3.46665 -0.13333,7.19998 0,3.59999 -0.13333,7.06665 -0.13334,3.46666 -0.53334,6.53331 -0.26666,2.93333 -0.66666,4.93332 -0.93333,4.13333 -3.19999,7.73332 -2.26666,3.46666 -5.59999,5.99998 -3.33332,2.53333 -7.59998,3.99999 -4.26665,1.33333 -9.19997,1.33333 -9.99998,0 -16.66663,-5.33332 -6.66665,-5.33332 -8.66664,-13.7333 -0.4,-1.73332 -0.66667,-4.79998 -0.26666,-3.19999 -0.4,-6.79999 0,-3.59999 -0.13333,-7.33331 0,-3.73332 0,-6.79998 0,-3.06666 0,-6.79999 0.13333,-3.73332 0.26667,-7.33331 0.13333,-3.73332 0.39999,-6.79998 0.26667,-3.19999 0.66667,-4.93332 0.93333,-4.13333 3.19999,-7.59998 2.26666,-3.59999 5.59999,-6.13332 3.33332,-2.53333 7.59998,-3.86666 4.26665,-1.46666 9.33331,-1.46666 z" /></g><g
             style="font-size:133.333px;line-height:1.25;font-family:'HTWBerlin Office';-inkscape-font-specification:'HTWBerlin Office';letter-spacing:12px"
             id="text67"
             aria-label="TIME"><path
               id="path283"
               style="font-style:normal;font-variant:normal;font-weight:bold;font-stretch:normal;font-size:133.333px;font-family:'HTWBerlin Office';-inkscape-font-specification:'HTWBerlin Office Bold';text-align:center;text-anchor:middle"
               d="m 364.72008,467.38438 h -21.46661 v -15.73329 h 59.86651 v 15.73329 H 381.7867 v 71.33315 h -17.06662 z" /><path
               id="path285"
               style="font-style:normal;font-variant:normal;font-weight:bold;font-stretch:normal;font-size:133.333px;font-family:'HTWBerlin Office';-inkscape-font-specification:'HTWBerlin Office Bold';text-align:center;text-anchor:middle"
               d="M 422.0908,538.71753 V 522.8509 h 16.26663 v -55.46652 h -15.59996 v -15.73329 h 48.26654 v 15.73329 h -15.73329 v 55.46652 h 16.39996 v 15.86663 z" /><path
               id="path287"
               style="font-style:normal;font-variant:normal;font-weight:bold;font-stretch:normal;font-size:133.333px;font-family:'HTWBerlin Office';-inkscape-font-specification:'HTWBerlin Office Bold';text-align:center;text-anchor:middle"
               d="m 495.35732,529.11755 q 0,-2.26666 0,-5.06665 0,-2.79999 0,-5.73332 0.13333,-3.06666 0.13333,-5.99998 0.13334,-2.93333 0.26667,-5.46666 l 3.19999,-55.19985 h 18.53329 l 13.19996,42.26655 q 2.13333,6.79999 3.86666,12.79997 1.86666,5.99999 1.86666,9.46664 h 0.66667 q 0.13333,-3.33332 1.86666,-9.33331 1.86666,-6.13331 4.13332,-12.79996 l 13.86663,-42.39989 h 18.53329 l 2.13333,55.19985 q 0.13333,2.53333 0.13333,5.46666 0.13333,2.93332 0.13333,5.99998 0.13333,2.93333 0.13333,5.73332 0,2.79999 0,5.06665 v 9.59998 h -16.93329 v -23.59994 l -0.26666,-10.13331 q -0.13333,-2.66666 -0.13333,-4.26665 0,-1.73333 0,-3.59999 0,-3.6 0.13333,-6.66665 0.13333,-3.2 0.4,-5.46666 l -0.53333,-0.13333 q -0.66667,3.73332 -2.4,9.19998 -1.59999,5.46665 -3.73332,12.26663 l -9.99998,32.39992 H 528.8239 l -9.99997,-32.79992 q -2,-6.79998 -3.59999,-12.26663 -1.6,-5.59999 -2,-9.46664 l -0.53333,0.26666 q 0.13333,1.33333 0.13333,3.06666 0,1.73333 0,3.86666 0,2.93332 0,6.26665 0,3.33332 -0.13333,7.19998 l -0.26667,10.26664 v 23.59994 h -17.06662 z" /><path
               id="path289"
               style="font-style:normal;font-variant:normal;font-weight:bold;font-stretch:normal;font-size:133.333px;font-family:'HTWBerlin Office';-inkscape-font-specification:'HTWBerlin Office Bold';text-align:center;text-anchor:middle"
               d="m 606.21332,451.65109 h 49.19988 v 15.73329 h -32.26659 v 19.99995 h 29.46659 v 15.19996 h -29.46659 v 20.26661 h 33.59992 v 15.86663 h -50.53321 z" /></g></g></g></g></g></svg>
