<svg width="366" height="114" viewBox="0 0 183 57" fill="none" xmlns="http://www.w3.org/2000/svg">
<rect y="2" width="55" height="55" fill="#007784"/>
<g filter="url(#filter0_d_14_612)">
<path d="M26.8149 9.35919C24.6083 9.35919 22.5078 9.8061 20.871 11.1021C19.6252 12.0909 18.7593 13.5602 18.413 15.3925C17.4633 15.8618 16.8041 16.817 16.8041 17.9399V21.6493C15.1058 22.6269 13.9438 24.4145 13.9438 26.5206V36.5315C13.9438 37.28 14.2064 38.0454 14.7483 38.5873C15.2902 39.1291 16.0555 39.3917 16.8041 39.3917H18.2342V45.1122C18.2342 45.8999 18.8766 46.5423 19.6643 46.5423H33.9655C34.7532 46.5423 35.3956 45.8999 35.3956 45.1122V39.3917H36.8258C37.5743 39.3917 38.3397 39.1291 38.8816 38.5873C39.4234 38.0454 39.686 37.28 39.686 36.5315V26.5206C39.686 24.4145 38.524 22.6269 36.8258 21.6493V17.9399C36.8258 16.817 36.1666 15.8618 35.2169 15.3925C34.8705 13.5322 34.0158 12.0351 32.7589 11.0575C31.1109 9.77259 29.0048 9.35919 26.8149 9.35919ZM26.8149 12.2194C28.6305 12.2194 30.0941 12.5714 31.0159 13.292C31.9377 14.0127 32.5354 15.102 32.5354 17.2248C32.5354 19.3477 31.9377 20.437 31.0159 21.1577C30.0941 21.8783 28.6305 22.2303 26.8149 22.2303C25.0161 22.2303 23.5469 21.856 22.6139 21.113C21.681 20.37 21.0944 19.2695 21.0944 17.2248C21.0944 15.1802 21.681 14.0797 22.6139 13.3367C23.5469 12.5937 25.0161 12.2194 26.8149 12.2194ZM26.8149 13.6495C24.9546 13.6495 22.5246 14.6495 22.5246 16.5098V17.9399C22.5246 18.8002 23.0944 19.37 23.9547 19.37H29.6752C30.5355 19.37 31.1053 18.8002 31.1053 17.9399V16.5098C31.1053 14.7948 28.6752 13.6495 26.8149 13.6495ZM19.6643 23.6604H21.2285C21.2564 23.6604 21.29 23.6604 21.3179 23.6604C22.8821 24.7106 24.8038 25.0905 26.8149 25.0905C28.8428 25.0905 30.8092 24.7386 32.4013 23.6604H33.9655C35.6694 23.6604 36.8258 24.8168 36.8258 26.5206V30.811H35.3956V27.9507C35.4012 27.4368 35.1331 26.9564 34.6862 26.6938C34.2392 26.4368 33.6918 26.4368 33.2449 26.6938C32.798 26.9564 32.5298 27.4368 32.5354 27.9507V37.6934C32.5354 37.7381 32.5354 37.7828 32.5354 37.8275V37.9616C32.5242 38.0677 32.5242 38.1683 32.5354 38.2744V41.2687C31.9097 41.0062 31.1835 40.8218 30.3902 40.8218C29.5969 40.8218 28.8707 41.0062 28.245 41.2687V36.5315C28.2618 36.1181 28.0942 35.7214 27.7981 35.4421C27.4965 35.1572 27.0887 35.0175 26.6808 35.0566C26.6194 35.0678 26.5579 35.0846 26.5021 35.1013C25.8373 35.2522 25.368 35.8499 25.3848 36.5315V41.2687C24.7591 41.0062 24.0329 40.8218 23.2396 40.8218C22.4464 40.8218 21.7201 41.0062 21.0944 41.2687V38.2297C21.1335 38.0398 21.1335 37.8387 21.0944 37.6487V27.9507C21.1056 27.5094 20.9101 27.0904 20.5693 26.8111C20.2341 26.5318 19.7816 26.4257 19.3515 26.5206C18.6867 26.6715 18.2174 27.2692 18.2342 27.9507V30.811H16.8041V26.5206C16.8041 24.8168 17.9605 23.6604 19.6643 23.6604ZM25.3848 27.9507C24.5245 27.9507 23.9547 28.5206 23.9547 29.3809V30.811C23.9547 31.6713 24.5245 32.2411 25.3848 32.2411H28.245C29.1053 32.2411 29.6752 31.6713 29.6752 30.811V29.3809C29.6752 28.5206 29.1053 27.9507 28.245 27.9507H25.3848ZM16.8041 32.2411H18.2342V33.6712H16.8041V32.2411ZM35.3956 32.2411H36.8258V33.6712H35.3956V32.2411ZM16.8041 35.1013H18.2342V36.5315H16.8041V35.1013ZM35.3956 35.1013H36.8258V36.5315H35.3956V35.1013ZM23.2396 42.2519C23.9882 42.2519 24.7871 42.5648 25.3848 42.8776V43.6821H21.0944V42.8776C21.6922 42.5648 22.491 42.2519 23.2396 42.2519ZM30.3902 42.2519C31.1388 42.2519 31.9377 42.5648 32.5354 42.8776V43.6821H28.245V42.8776C28.8428 42.5648 29.6416 42.2519 30.3902 42.2519Z" fill="#0AD0A1"/>
</g>
<path d="M72.4 40.5V18.6H86.02V22.08H76.09V27.93H85.24V31.41H76.15V40.5H72.4ZM91.1683 40.5V37.08H96.9283V27.39H91.9183V24H100.528V37.08H105.628V40.5H91.1683ZM98.4283 21.24C97.6683 21.24 97.0683 21.05 96.6283 20.67C96.1883 20.27 95.9683 19.74 95.9683 19.08C95.9683 18.42 96.1883 17.9 96.6283 17.52C97.0683 17.12 97.6683 16.92 98.4283 16.92C99.1883 16.92 99.7883 17.12 100.228 17.52C100.668 17.9 100.888 18.42 100.888 19.08C100.888 19.74 100.668 20.27 100.228 20.67C99.7883 21.05 99.1883 21.24 98.4283 21.24ZM108.857 40.5L114.617 31.98L109.247 24H113.477L116.027 28.05C116.187 28.29 116.327 28.56 116.447 28.86C116.587 29.16 116.697 29.4 116.777 29.58C116.857 29.4 116.967 29.16 117.107 28.86C117.247 28.56 117.387 28.29 117.527 28.05L120.107 24H124.337L118.967 31.98L124.697 40.5H120.437L117.587 35.97C117.427 35.71 117.277 35.43 117.137 35.13C116.997 34.83 116.877 34.59 116.777 34.41C116.697 34.59 116.587 34.83 116.447 35.13C116.307 35.43 116.157 35.71 115.997 35.97L113.087 40.5H108.857ZM129.365 40.5V37.2H133.775V21.9H129.365V18.6H141.965V21.9H137.555V37.2H141.965V40.5H129.365ZM152.663 40.5V22.08H146.933V18.6H162.173V22.08H156.443V40.5H152.663ZM172.061 33.51L171.401 22.74V18.6H175.481V22.74L174.821 33.51H172.061ZM172.991 40.65C172.371 40.65 171.871 40.47 171.491 40.11C171.111 39.73 170.921 39.25 170.921 38.67C170.921 38.09 171.111 37.62 171.491 37.26C171.871 36.88 172.371 36.69 172.991 36.69H173.891C174.531 36.69 175.031 36.87 175.391 37.23C175.771 37.59 175.961 38.07 175.961 38.67C175.961 39.25 175.771 39.73 175.391 40.11C175.011 40.47 174.501 40.65 173.861 40.65H172.991Z" fill="black"/>
<defs>
<filter id="filter0_d_14_612" x="4.94385" y="0.359192" width="43.7422" height="55.1831" filterUnits="userSpaceOnUse" color-interpolation-filters="sRGB">
<feFlood flood-opacity="0" result="BackgroundImageFix"/>
<feColorMatrix in="SourceAlpha" type="matrix" values="0 0 0 0 0 0 0 0 0 0 0 0 0 0 0 0 0 0 127 0" result="hardAlpha"/>
<feOffset/>
<feGaussianBlur stdDeviation="4.5"/>
<feComposite in2="hardAlpha" operator="out"/>
<feColorMatrix type="matrix" values="0 0 0 0 0.431373 0 0 0 0 0.772549 0 0 0 0 0.501961 0 0 0 0.52 0"/>
<feBlend mode="normal" in2="BackgroundImageFix" result="effect1_dropShadow_14_612"/>
<feBlend mode="normal" in="SourceGraphic" in2="effect1_dropShadow_14_612" result="shape"/>
</filter>
</defs>
</svg>
