<svg id="Ebene_1" data-name="Ebene 1" xmlns="http://www.w3.org/2000/svg" xmlns:xlink="http://www.w3.org/1999/xlink" viewBox="0 0 439.6 442.71"><defs><style>.cls-1,.cls-2{fill:none;}.cls-2{stroke:#a00800;stroke-miterlimit:10;stroke-width:26.76px;}.cls-3{clip-path:url(#clip-path);}</style><clipPath id="clip-path" transform="translate(-35.73 -37.27)"><circle class="cls-1" cx="213.11" cy="214.65" r="164"/></clipPath></defs><g id="Layer_2" data-name="Layer 2"><g id="content"><circle class="cls-2" cx="177.38" cy="177.38" r="164"/><g class="cls-3"><path class="cls-2" d="M220.28,305.81c44.53-12.82,78-39.86,96-86.72" transform="translate(-35.73 -37.27)"/><path class="cls-2" d="M297.44,229.22q9.1-5.4,18.84-10.13l143.61,159c-18,46.86-51.47,73.9-96,86.72l-143.61-159a205.06,205.06,0,0,1,11.28-17.17" transform="translate(-35.73 -37.27)"/><path class="cls-2" d="M234.87,292.65l-72.15-79.87c-20.82-23-22.43-63.42-22.43-63.42s53-34,93.33,9.13,71.49,79.08,71.49,79.08" transform="translate(-35.73 -37.27)"/><path class="cls-2" d="M140.29,149.34s15.76,36,47.08,39.76,48.81-19.45,34.74-40.71" transform="translate(-35.73 -37.27)"/></g></g></g></svg>