<svg width="501" height="500" viewBox="0 0 501 500" fill="none" xmlns="http://www.w3.org/2000/svg">
<path d="M345.534 435.203C347.634 430.554 349.209 425.829 350.859 420.854C351.309 419.479 351.784 418.079 352.234 416.704C352.634 415.479 353.059 414.204 353.509 412.929C355.234 407.83 356.859 403.03 357.959 398.08L358.059 397.705C364.784 374.481 368.859 348.958 370.534 319.634L371.009 308.16C371.134 305.385 371.259 302.76 371.109 300.21L370.509 279.861C370.284 275.886 369.859 271.812 369.384 267.487C369.134 265.062 368.859 262.612 368.634 260.187C368.509 259.137 368.384 257.862 368.259 256.612C368.084 254.562 367.909 252.638 367.534 250.838L365.759 240.788C365.109 236.213 364.209 231.514 362.934 225.964C361.434 226.239 359.909 226.514 358.409 226.814C356.434 227.189 354.459 227.564 352.459 227.914C350.459 228.389 348.459 228.814 346.459 229.264C342.284 230.189 338.284 231.064 334.384 232.164C339.234 244.763 342.184 258.087 343.134 271.862C344.684 298.26 338.334 326.659 324.309 356.307C311.284 383.631 293.984 407.355 278.759 426.979C270.734 437.403 261.134 449.328 248.609 458.577C241.359 463.927 234.284 467.502 227.009 469.502C218.634 471.827 209.334 471.577 200.859 468.802C192.884 466.127 185.384 460.852 179.684 453.927C174.909 448.253 171.034 441.503 167.934 433.303C165.034 425.454 163.284 417.929 162.684 410.83L161.559 400.105L161.659 389.181C162.359 373.231 165.184 358.732 170.059 345.883L171.884 340.583L174.009 335.783C174.534 334.633 175.009 333.558 175.509 332.483C176.459 330.359 177.434 328.159 178.509 325.984L178.659 325.684C179.459 324.259 180.259 322.834 181.059 321.409C183.659 316.709 186.359 311.86 189.684 307.26C204.409 285.036 224.834 264.987 250.359 247.638L250.584 247.488L260.984 241.088C262.009 240.463 263.034 239.813 264.084 239.238L268.859 236.738C269.959 236.163 271.034 235.613 272.084 235.038C274.159 233.938 276.234 232.838 278.334 231.839L288.009 227.564C293.334 225.364 298.784 223.314 304.284 221.389C300.784 215.939 296.859 210.965 292.534 206.54C283.884 197.665 273.634 191.191 262.909 187.791C256.509 185.766 249.734 184.716 242.884 184.716C238.009 184.716 233.109 185.241 228.234 186.266C217.259 188.691 206.184 193.765 195.384 201.365C185.759 208.14 176.409 216.814 167.609 227.189C152.734 244.588 140.259 266.012 128.334 294.635C118.109 319.584 110.609 345.183 106.084 370.682C101.459 397.23 99.6341 423.829 100.609 449.778C101.409 467.177 103.259 483.951 106.159 499.9H311.309C317.434 490.776 323.284 481.151 328.809 471.077L337.734 453.402C339.434 449.603 341.059 445.678 342.634 441.853C343.559 439.603 344.509 437.328 345.459 435.078L345.534 435.203Z" fill="#03DAC5"/>
<path d="M412.209 219.889C404.709 220.539 396.109 221.314 387.234 222.389C388.409 227.689 389.259 232.363 389.884 236.813L391.634 246.888C392.109 249.288 392.334 251.737 392.534 254.087C392.634 255.237 392.734 256.387 392.884 257.537C393.109 260.112 393.359 262.487 393.609 264.862C394.084 269.362 394.559 274.011 394.834 278.661L395.409 299.635C395.584 302.76 395.434 305.935 395.309 309.009L394.784 320.859C392.959 352.007 388.559 379.206 381.334 404.105C380.034 409.804 378.159 415.254 376.359 420.554L375.084 424.354C374.609 425.754 374.159 427.104 373.709 428.479C371.959 433.753 370.134 439.203 367.734 444.503C366.859 446.578 365.934 448.803 365.009 451.027C363.284 455.177 361.509 459.452 359.609 463.652L359.484 463.902L350.059 482.451C346.759 488.451 343.334 494.3 339.834 500H460.259C482.359 500 500.284 482.101 500.284 460.002V216.364C498.034 216.414 495.784 216.464 493.484 216.514C468.309 217.064 439.759 217.664 412.159 219.864L412.209 219.889Z" fill="#03DAC5"/>
<path d="M107.085 285.886C109.685 279.636 112.56 273.461 115.335 267.512L115.86 266.412C116.96 264.312 118.01 262.212 119.06 260.112C121.11 256.037 123.21 251.812 125.66 247.687C132.885 234.988 141.16 223.089 150.21 212.464C160.31 200.64 171.11 190.64 182.335 182.766C195.735 173.391 209.61 167.142 223.535 164.142C239.16 160.892 255.16 161.692 269.81 166.417C284.035 170.991 297.46 179.516 308.61 191.09C315.335 198.115 321.235 206.04 326.185 214.764C326.885 214.564 327.61 214.389 328.31 214.214C332.935 212.889 337.81 211.839 342.535 210.814C344.535 210.389 346.56 209.939 348.56 209.489L348.885 209.414C350.91 209.064 352.935 208.689 354.96 208.314C356.085 208.114 357.235 207.889 358.36 207.689C357.885 205.89 357.41 204.065 356.96 202.265L349.035 178.891L343.185 165.267C332.235 139.018 318.435 117.044 302.185 99.9199C293.335 90.7203 283.435 83.0207 272.86 77.071C262.235 71.1713 250.46 66.5965 237.91 63.4967C213.76 57.722 187.485 57.472 162.035 62.7718C137.285 67.7965 112.71 77.921 90.9352 92.0953C80.4852 98.8949 70.3352 106.995 60.7352 116.169C51.7352 125.044 43.2102 134.968 35.4602 145.568C21.8102 164.592 9.98516 186.891 0.285156 211.764V459.952C0.285156 482.051 18.1852 499.95 40.2852 499.95H82.4852C79.8352 484.276 78.1352 468.001 77.3602 450.752C76.3352 423.129 78.3352 394.855 83.3102 366.682C88.1602 339.533 96.1852 312.334 107.11 285.836L107.085 285.886Z" fill="#03DAC5"/>
<path d="M313.208 238.588C307.208 240.638 301.283 242.888 295.583 245.263L286.508 249.313C284.808 250.138 283.008 251.113 281.183 252.088C280.108 252.663 279.008 253.263 277.908 253.838L273.508 256.187C272.808 256.587 271.958 257.112 271.133 257.637L261.133 263.837C237.808 279.886 219.308 298.235 206.158 318.359L205.983 318.609C203.258 322.359 201.008 326.484 198.633 330.809C197.833 332.259 197.058 333.684 196.258 335.108C195.383 336.883 194.583 338.683 193.808 340.508C193.308 341.633 192.808 342.758 192.308 343.883L190.458 348.108L188.958 352.558C184.808 363.682 182.458 376.131 181.908 389.756L181.858 399.08L182.908 408.58C183.383 414.18 184.733 419.854 187.058 426.054C191.533 437.978 198.933 446.428 207.383 449.203C212.058 450.678 216.958 450.778 221.533 449.478C226.233 448.153 231.158 445.578 236.208 441.828C245.508 434.853 253.283 425.704 262.108 414.105C275.708 396.38 292.858 372.782 304.908 347.108C310.733 334.733 315.083 322.484 317.833 310.71C321.008 297.035 322.158 284.811 321.308 273.362C320.458 261.437 317.658 249.513 313.183 238.538L313.208 238.588Z" fill="#03DAC5"/>
<path d="M43.8852 98.8451C54.6352 88.5206 65.9852 79.446 77.6852 71.8214C102.31 55.7222 129.035 44.6478 157.135 38.898C186.06 32.8484 216.01 33.1233 243.71 39.673C258.46 43.2728 272.31 48.6476 284.91 55.6222C297.635 62.7469 309.46 71.9214 320.01 82.8708C338.285 102.12 353.66 126.569 365.76 155.592L372.035 170.391L380.485 195.54C381.11 198.015 381.76 200.49 382.41 202.965C382.51 203.34 382.61 203.74 382.71 204.115C391.085 203.115 400.135 202.24 410.76 201.44C438.935 199.44 467.76 199.09 493.185 198.79C495.585 198.765 497.935 198.74 500.285 198.715C500.285 186.191 500.285 39.998 500.285 39.998C500.285 17.8991 482.385 0 460.285 0H40.2852C18.1852 0 0.285156 17.9241 0.285156 39.998V155.892C5.21016 147.318 10.4102 139.143 15.8852 131.468C24.4352 119.694 33.8602 108.72 43.8852 98.8201V98.8451Z" fill="#03DAC5"/>
</svg>
