<?xml version="1.0" encoding="UTF-8"?>
<svg width="428px" height="266px" viewBox="0 0 428 266" version="1.1" xmlns="http://www.w3.org/2000/svg" xmlns:xlink="http://www.w3.org/1999/xlink">
    <title>Group</title>
    <g id="Page-1" stroke="none" stroke-width="1" fill="none" fill-rule="evenodd">
        <g id="Home-Copy" transform="translate(-746.000000, -195.000000)">
            <g id="Group" transform="translate(746.500000, 195.000000)">
                <g id="KV">
                    <g id="Group-2-Copy-2" transform="translate(0.000000, 19.037494)">
                        <path d="M365.956796,0 C374.706869,0 381.846094,7.03410295 382.014836,15.7445601 L382.01789,16.0601165 L382.01789,211.233881 C382.01789,217.13579 378.813887,222.298602 374.056043,225.089613 L373.75667,225.260948 L421.662362,225.260948 L421.662362,233.535852 L421.451238,233.809532 C418.790462,237.26949 414.638543,239.374117 410.284423,239.488371 L409.910748,239.493275 L16.6387538,239.493275 C12.2741313,239.493275 8.07488344,237.484758 5.32995173,234.102766 L5.09826352,233.809532 L4.88713911,233.535852 L4.88713911,225.260948 L52.7918541,225.260948 C47.9709407,222.569471 44.668552,217.472178 44.5357685,211.601774 L44.5316115,211.233881 L44.5316115,16.0601165 C44.5316115,7.31004304 51.5657145,0.17177255 60.2771146,0.00305381879 L60.5927055,0 L365.956796,0 Z M180.136038,227.293998 L6.92018898,227.293998 L6.92018898,232.836991 C9.20785879,235.64734 12.6650773,237.350517 16.2876952,237.454221 L16.6387538,237.459247 L409.910748,237.459247 C413.542991,237.459247 417.041311,235.843894 419.404222,233.105488 L419.629312,232.836991 L419.629312,227.293998 L246.413464,227.293998 L246.413464,228.717133 C246.413464,231.001554 244.608739,232.873467 242.350559,232.981603 L242.144059,232.986538 L184.405443,232.986538 C182.120073,232.986538 180.249052,231.181813 180.140969,228.923633 L180.136038,228.717133 L180.136038,227.293998 Z M245.193634,227.293998 L181.355868,227.293998 L181.355868,228.717133 C181.355868,230.339209 182.628269,231.668633 184.226561,231.761523 L184.405443,231.766708 L242.144059,231.766708 C243.766135,231.766708 245.095559,230.495215 245.188449,228.896111 L245.193634,228.717133 L245.193634,227.293998 Z M365.956796,2.03304987 L60.5927055,2.03304987 C52.9618737,2.03304987 46.7349973,8.15680688 46.5680969,15.7473621 L46.5646614,16.0601165 L46.5646614,211.233881 C46.5646614,218.864713 52.6884184,225.090638 60.279912,225.257513 L60.5927055,225.260948 L365.956796,225.260948 C373.586663,225.260948 379.813527,219.138142 379.980427,211.546674 L379.983862,211.233881 L379.983862,16.0601165 C379.983862,8.32573018 373.691182,2.03304987 365.956796,2.03304987 Z M366.769723,15.450788 L366.769723,215.503873 L59.7791923,215.503873 L59.7791923,15.450788 L366.769723,15.450788 Z M365.549893,16.670618 L60.9990223,16.670618 L60.9990223,214.284043 L365.549893,214.284043 L365.549893,16.670618 Z" id="Laptop-whole" fill="#FCFF75"></path>
                        <path d="M361.069657,0 C369.81973,0 376.958955,7.03410295 377.127696,15.7445601 L377.130751,16.0601165 L377.130751,211.233881 C377.130751,217.13579 373.926748,222.298602 369.168904,225.089613 L368.869531,225.260948 L416.775223,225.260948 L416.775223,233.535852 L416.564099,233.809532 C413.903323,237.26949 409.751404,239.374117 405.397284,239.488371 L405.023608,239.493275 L11.7516147,239.493275 C7.38699221,239.493275 3.18774433,237.484758 0.442812618,234.102766 L0.21112441,233.809532 L7.36690708e-10,233.535852 L7.36690708e-10,225.260948 L47.904715,225.260948 C43.0838016,222.569471 39.7814129,217.472178 39.6486294,211.601774 L39.6444724,211.233881 L39.6444724,16.0601165 C39.6444724,7.31004304 46.6785754,0.17177255 55.3899755,0.00305381879 L55.7055664,0 L361.069657,0 Z M175.248899,227.293998 L2.03304987,227.293998 L2.03304987,232.836991 C4.32071969,235.64734 7.77793821,237.350517 11.4005561,237.454221 L11.7516147,237.459247 L405.023608,237.459247 C408.655852,237.459247 412.154172,235.843894 414.517083,233.105488 L414.742173,232.836991 L414.742173,227.293998 L241.526324,227.293998 L241.526324,228.717133 C241.526324,231.001554 239.7216,232.873467 237.46342,232.981603 L237.25692,232.986538 L179.518303,232.986538 C177.232933,232.986538 175.361913,231.181813 175.25383,228.923633 L175.248899,228.717133 L175.248899,227.293998 Z M240.306494,227.293998 L176.468729,227.293998 L176.468729,228.717133 C176.468729,230.339209 177.74113,231.668633 179.339422,231.761523 L179.518303,231.766708 L237.25692,231.766708 C238.878996,231.766708 240.20842,230.495215 240.30131,228.896111 L240.306494,228.717133 L240.306494,227.293998 Z M361.069657,2.03304987 L55.7055664,2.03304987 C48.0747346,2.03304987 41.8478582,8.15680688 41.6809578,15.7473621 L41.6775223,16.0601165 L41.6775223,211.233881 C41.6775223,218.864713 47.8012793,225.090638 55.3927729,225.257513 L55.7055664,225.260948 L361.069657,225.260948 C368.699524,225.260948 374.926388,219.138142 375.093288,211.546674 L375.096723,211.233881 L375.096723,16.0601165 C375.096723,8.32573018 368.804043,2.03304987 361.069657,2.03304987 Z M361.882583,15.450788 L361.882583,215.503873 L54.8920532,215.503873 L54.8920532,15.450788 L361.882583,15.450788 Z M360.662753,16.670618 L56.1118832,16.670618 L56.1118832,214.284043 L360.662753,214.284043 L360.662753,16.670618 Z" id="Laptop-whole" fill="#FF9475"></path>
                        <path d="M365.956796,0 C374.706869,0 381.846094,7.03410295 382.014836,15.7445601 L382.01789,16.0601165 L382.017318,21.014 L379.983318,21.014 L379.983862,16.0601165 C379.983862,8.32573018 373.691182,2.03304987 365.956796,2.03304987 L60.5927055,2.03304987 C52.9618737,2.03304987 46.7349973,8.15680688 46.5680969,15.7473621 L46.5646614,16.0601165 L46.5643183,21.014 L44.5313183,21.014 L44.5316115,16.0601165 C44.5316115,7.31004304 51.5657145,0.17177255 60.2771146,0.00305381879 L60.5927055,0 L365.956796,0 Z M366.769723,15.450788 L366.769318,21.014 L365.549318,21.014 L365.549893,16.670618 L60.9990223,16.670618 L60.9983183,21.014 L59.7783183,21.014 L59.7791923,15.450788 L366.769723,15.450788 Z" id="Combined-Shape" fill="#67FFD2"></path>
                        <path d="M386.904278,205.283022 L386.905029,211.233881 C386.905029,217.13579 383.701026,222.298602 378.943182,225.089613 L378.643809,225.260948 L426.549501,225.260948 L426.549501,233.535852 L426.338377,233.809532 C423.677601,237.26949 419.525682,239.374117 415.171562,239.488371 L414.797887,239.493275 L21.5258929,239.493275 C17.1612704,239.493275 12.9620226,237.484758 10.2170908,234.102766 L9.98540263,233.809532 L9.77427822,233.535852 L9.77427822,225.260948 L57.6789932,225.260948 C52.8580798,222.569471 49.5556911,217.472178 49.4229076,211.601774 L49.4187507,211.233881 L49.4182782,205.283022 L51.4512782,205.283022 L51.4518005,211.233881 C51.4518005,218.864713 57.5755575,225.090638 65.1670511,225.257513 L65.4798446,225.260948 L370.843935,225.260948 C378.473803,225.260948 384.700666,219.138142 384.867566,211.546674 L384.871002,211.233881 L384.870278,205.283022 L386.904278,205.283022 Z M185.023177,227.293998 L11.8073281,227.293998 L11.8073281,232.836991 C14.0949979,235.64734 17.5522164,237.350517 21.1748344,237.454221 L21.5258929,237.459247 L414.797887,237.459247 C418.430131,237.459247 421.92845,235.843894 424.291361,233.105488 L424.516451,232.836991 L424.516451,227.293998 L251.300603,227.293998 L251.300603,228.717133 C251.300603,231.001554 249.495879,232.873467 247.237699,232.981603 L247.031198,232.986538 L189.292582,232.986538 C187.007212,232.986538 185.136192,231.181813 185.028109,228.923633 L185.023177,228.717133 L185.023177,227.293998 Z M250.080773,227.293998 L186.243007,227.293998 L186.243007,228.717133 C186.243007,230.339209 187.515408,231.668633 189.113701,231.761523 L189.292582,231.766708 L247.031198,231.766708 C248.653274,231.766708 249.982698,230.495215 250.075588,228.896111 L250.080773,228.717133 L250.080773,227.293998 Z M371.656278,205.283022 L371.656862,215.503873 L64.6663314,215.503873 L64.6662782,205.283022 L65.8852782,205.283022 L65.8861614,214.284043 L370.437032,214.284043 L370.436278,205.283022 L371.656278,205.283022 Z" id="Combined-Shape" fill="#67FFD2"></path>
                        <path d="M31.9031942,174.958603 L31.9031942,205.258603 L29.8701942,205.258603 L29.8701942,174.958603 L31.9031942,174.958603 Z M46.3371942,174.958603 L46.3371942,205.258603 L45.1171942,205.258603 L45.1171942,174.958603 L46.3371942,174.958603 Z M352.108194,174.958603 L352.108194,205.258603 L350.888194,205.258603 L350.888194,174.958603 L352.108194,174.958603 Z M367.356194,174.958603 L367.356194,205.258603 L365.322194,205.258603 L365.322194,174.958603 L367.356194,174.958603 Z" id="Combined-Shape" fill="#67FFD2"></path>
                        <path d="M51.4517507,106.538655 L51.4517507,174.958655 L49.4187507,174.958655 L49.4187507,106.538655 L51.4517507,106.538655 Z M65.8857507,106.538655 L65.8857507,174.958655 L64.6657507,174.958655 L64.6657507,106.538655 L65.8857507,106.538655 Z M371.656751,106.538655 L371.656751,174.958655 L370.436751,174.958655 L370.436751,106.538655 L371.656751,106.538655 Z M386.904751,106.538655 L386.904751,174.958655 L384.870751,174.958655 L384.870751,106.538655 L386.904751,106.538655 Z" id="Combined-Shape" fill="#67FFD2"></path>
                        <path d="M46.5646115,76.2383927 L46.5646115,106.538393 L44.5316115,106.538393 L44.5316115,76.2383927 L46.5646115,76.2383927 Z M60.9986115,76.2383927 L60.9986115,106.538393 L59.7786115,106.538393 L59.7786115,76.2383927 L60.9986115,76.2383927 Z M366.769612,76.2383927 L366.769612,106.538393 L365.549612,106.538393 L365.549612,76.2383927 L366.769612,76.2383927 Z M382.017612,76.2383927 L382.017612,106.538393 L379.983612,106.538393 L379.983612,76.2383927 L382.017612,76.2383927 Z" id="Combined-Shape" fill="#67FFD2"></path>
                        <path d="M36.7903333,21.0137207 L36.7903333,76.2387207 L34.7573333,76.2387207 L34.7573333,21.0137207 L36.7903333,21.0137207 Z M51.2243333,21.0137207 L51.2243333,76.2387207 L50.0043333,76.2387207 L50.0043333,21.0137207 L51.2243333,21.0137207 Z M356.995333,21.0137207 L356.995333,76.2387207 L355.775333,76.2387207 L355.775333,21.0137207 L356.995333,21.0137207 Z M372.243333,21.0137207 L372.243333,76.2387207 L370.209333,76.2387207 L370.209333,21.0137207 L372.243333,21.0137207 Z" id="Combined-Shape" fill="#67FFD2"></path>
                    </g>
                    <rect id="Rectangle-Copy-16" fill="#67FFD2" x="73.3463853" y="42.1690289" width="287.36378" height="179.358005"></rect>
                    <rect id="Rectangle-Copy-17" fill="#FCFF75" style="mix-blend-mode: lighten;" x="68.4592462" y="47.056168" width="287.36378" height="179.358005"></rect>
                    <path d="M116.714858,53.2921575 L116.714858,48.7568924 L114.163771,48.7568924 C112.349665,48.7568924 110.979637,48.3411598 110.053687,47.5096945 C109.127737,46.6782292 108.702556,45.4688252 108.778144,43.8814824 L108.778144,43.8814824 L109.345052,34.584189 C109.458434,32.4677319 109.014356,30.7008682 108.012818,29.2835979 C107.01128,27.8663276 105.565664,26.9876199 103.675971,26.6474751 C105.565664,26.3073302 107.01128,25.438071 108.012818,24.0396976 C109.014356,22.6413242 109.458434,20.8650121 109.345052,18.7107612 L109.345052,18.7107612 L108.778144,9.41346772 C108.702556,7.82612493 109.127737,6.61672091 110.053687,5.78525564 C110.979637,4.95379038 112.349665,4.53805774 114.163771,4.53805774 L114.163771,4.53805774 L116.714858,4.53805774 L116.714858,0.00279265092 L114.163771,0.00279265092 C110.800116,0.00279265092 108.173442,0.834257918 106.283748,2.49718845 C104.394054,4.16011899 103.524795,6.46554541 103.675971,9.41346772 L103.675971,9.41346772 L104.242879,18.7107612 C104.318466,20.1469284 104.214533,21.2618478 103.931079,22.0555192 C103.647625,22.8491906 103.090165,23.4349956 102.2587,23.8129344 C101.427235,24.1908731 100.198934,24.3798425 98.5737973,24.3798425 L98.5737973,24.3798425 L92.3378078,24.3798425 L92.3378078,28.9151076 L98.5737973,28.9151076 C100.198934,28.9151076 101.427235,29.104077 102.2587,29.4820157 C103.090165,29.8599545 103.647625,30.455208 103.931079,31.2677764 C104.214533,32.0803447 104.318466,33.1858156 104.242879,34.584189 L104.242879,34.584189 L103.675971,43.8814824 C103.524795,46.8294047 104.394054,49.1348311 106.283748,50.7977617 C108.173442,52.4606922 110.800116,53.2921575 114.163771,53.2921575 L114.163771,53.2921575 L116.714858,53.2921575 Z" id="{" fill="#67FFD2" fill-rule="nonzero"></path>
                    <path d="M328.463914,265.744381 C331.827569,265.744381 334.454243,264.912916 336.343937,263.249986 C338.233631,261.587055 339.10289,259.281629 338.951715,256.333706 L338.951715,256.333706 L338.384806,247.036413 C338.309219,245.63804 338.413152,244.532569 338.696606,243.72 C338.98006,242.907432 339.53752,242.312178 340.368985,241.93424 C341.20045,241.556301 342.428751,241.367332 344.053888,241.367332 L344.053888,241.367332 L350.289877,241.367332 L350.289877,236.832067 L344.053888,236.832067 C342.428751,236.832067 341.20045,236.643097 340.368985,236.265158 C339.53752,235.88722 338.98006,235.301415 338.696606,234.507743 C338.413152,233.714072 338.309219,232.599152 338.384806,231.162985 L338.384806,231.162985 L338.951715,221.865692 C339.10289,218.917769 338.233631,216.612343 336.343937,214.949412 C334.454243,213.286482 331.827569,212.455017 328.463914,212.455017 L328.463914,212.455017 L325.912827,212.455017 L325.912827,216.990282 L328.463914,216.990282 C330.27802,216.990282 331.648048,217.406014 332.573998,218.23748 C333.499948,219.068945 333.925129,220.278349 333.849541,221.865692 L333.849541,221.865692 L333.282633,231.162985 C333.169252,233.317236 333.61333,235.093548 334.614867,236.491922 C335.616405,237.890295 337.062021,238.759554 338.951715,239.099699 C337.062021,239.439844 335.616405,240.318552 334.614867,241.735822 C333.61333,243.153092 333.169252,244.919956 333.282633,247.036413 L333.282633,247.036413 L333.849541,256.333706 C333.925129,257.921049 333.499948,259.130453 332.573998,259.961918 C331.648048,260.793384 330.27802,261.209116 328.463914,261.209116 L328.463914,261.209116 L325.912827,261.209116 L325.912827,265.744381 L328.463914,265.744381 Z" id="}" fill="#67FFD2" fill-rule="nonzero"></path>
                </g>
                <path d="M203.5,158.5 L233.5,136 L203.5,113.5 L203.5,158.5 Z M213.5,86 C185.9,86 163.5,108.4 163.5,136 C163.5,163.6 185.9,186 213.5,186 C241.1,186 263.5,163.6 263.5,136 C263.5,108.4 241.1,86 213.5,86 Z M213.5,176 C191.45,176 173.5,158.05 173.5,136 C173.5,113.95 191.45,96 213.5,96 C235.55,96 253.5,113.95 253.5,136 C253.5,158.05 235.55,176 213.5,176 Z" id="Shape" fill="#FF7575" fill-rule="nonzero"></path>
            </g>
        </g>
    </g>
</svg>