<?xml version="1.0" encoding="UTF-8"?>
<svg width="620px" height="382px" viewBox="0 0 620 382" version="1.1" xmlns="http://www.w3.org/2000/svg" xmlns:xlink="http://www.w3.org/1999/xlink">
    <title>Keyvisual</title>
    <g id="Page-1" stroke="none" stroke-width="1" fill="none" fill-rule="evenodd">
        <g id="Home-Copy-2" transform="translate(-969.000000, -355.000000)">
            <g id="Keyvisual" transform="translate(969.500000, 355.637901)">
                <g id="Group-2-Copy-2" transform="translate(7.100000, 27.330089)">
                    <path d="M524.1712,0 C536.72836,0 546.969348,10.1140439 547.172912,22.6235973 L547.176,23.0034 L547.176,302.5568 C547.176,311.042573 542.551685,318.461614 535.693818,322.448449 L535.3432,322.6482 L603.96,322.6482 L603.96,334.5006 L603.6576,334.8926 C599.821004,339.881545 593.819939,342.903155 587.537879,343.029476 L587.1278,343.0336 L23.8322,343.0336 C17.5388128,343.0336 11.4854751,340.118137 7.55566213,335.215167 L7.3024,334.8926 L7,334.5006 L7,322.6482 L75.6154,322.6482 C68.6838833,318.77839 63.9440429,311.436282 63.7879737,302.987349 L63.784,302.5568 L63.784,23.0034 C63.784,10.44624 73.8980439,0.20662446 86.4089558,0.0030878652 L86.7888,0 L524.1712,0 Z M258.0144,325.5602 L9.912,325.5602 L9.912,333.4996 C13.2119024,337.553454 18.2107936,339.998931 23.4396291,340.115811 L23.8322,340.1202 L587.1278,340.1202 C592.367215,340.1202 597.412078,337.773597 600.797247,333.800612 L601.048,333.4996 L601.048,325.5602 L352.9456,325.5602 L352.9456,327.5986 C352.9456,330.894884 350.3222,333.591535 347.054194,333.709758 L346.8304,333.7138 L264.1296,333.7138 C260.831947,333.7138 258.136604,331.0904 258.01844,327.822394 L258.0144,327.5986 L258.0144,325.5602 Z M351.1984,325.5602 L259.7616,325.5602 L259.7616,327.5986 C259.7616,329.937135 261.608001,331.850998 263.918331,331.961555 L264.1296,331.9666 L346.8304,331.9666 C349.168935,331.9666 351.082798,330.121517 351.193355,327.809986 L351.1984,327.5986 L351.1984,325.5602 Z M524.1712,2.912 L86.7888,2.912 C75.8246125,2.912 66.8839992,11.738403 66.6989261,22.6578863 L66.696,23.0034 L66.696,302.5568 C66.696,313.520987 75.522403,322.46023 86.443243,322.645274 L86.7888,322.6482 L524.1712,322.6482 C535.134002,322.6482 544.074601,313.823168 544.259674,302.902357 L544.2626,302.5568 L544.2626,23.0034 C544.2626,11.9252 535.2494,2.912 524.1712,2.912 Z M525.33558,22.13064 L525.33558,308.67284 L85.62358,308.67284 L85.62358,22.13064 L525.33558,22.13064 Z M523.58838,23.87784 L87.37078,23.87784 L87.37078,306.92564 L523.58838,306.92564 L523.58838,23.87784 Z" id="Laptop-whole" fill="#FCFF75"></path>
                    <path d="M517.1712,0 C529.72836,0 539.969348,10.1140439 540.172912,22.6235973 L540.176,23.0034 L540.176,302.5568 C540.176,311.042573 535.551685,318.461614 528.693818,322.448449 L528.3432,322.6482 L596.96,322.6482 L596.96,334.5006 L596.6576,334.8926 C592.821004,339.881545 586.819939,342.903155 580.537879,343.029476 L580.1278,343.0336 L16.8322,343.0336 C10.5388128,343.0336 4.48547515,340.118137 0.555662135,335.215167 L0.3024,334.8926 L1.86446414e-11,334.5006 L1.86446414e-11,322.6482 L68.6154,322.6482 C61.6838833,318.77839 56.9440429,311.436282 56.7879737,302.987349 L56.784,302.5568 L56.784,23.0034 C56.784,10.44624 66.8980439,0.20662446 79.4089558,0.0030878652 L79.7888,0 L517.1712,0 Z M251.0144,325.5602 L2.912,325.5602 L2.912,333.4996 C6.21190244,337.553454 11.2107936,339.998931 16.4396291,340.115811 L16.8322,340.1202 L580.1278,340.1202 C585.367215,340.1202 590.412078,337.773597 593.797247,333.800612 L594.048,333.4996 L594.048,325.5602 L345.9456,325.5602 L345.9456,327.5986 C345.9456,330.894884 343.3222,333.591535 340.054194,333.709758 L339.8304,333.7138 L257.1296,333.7138 C253.831947,333.7138 251.136604,331.0904 251.01844,327.822394 L251.0144,327.5986 L251.0144,325.5602 Z M344.1984,325.5602 L252.7616,325.5602 L252.7616,327.5986 C252.7616,329.937135 254.608001,331.850998 256.918331,331.961555 L257.1296,331.9666 L339.8304,331.9666 C342.168935,331.9666 344.082798,330.121517 344.193355,327.809986 L344.1984,327.5986 L344.1984,325.5602 Z M517.1712,2.912 L79.7888,2.912 C68.8246125,2.912 59.8839992,11.738403 59.6989261,22.6578863 L59.696,23.0034 L59.696,302.5568 C59.696,313.520987 68.522403,322.46023 79.443243,322.645274 L79.7888,322.6482 L517.1712,322.6482 C528.134002,322.6482 537.074601,313.823168 537.259674,302.902357 L537.2626,302.5568 L537.2626,23.0034 C537.2626,11.9252 528.2494,2.912 517.1712,2.912 Z M518.33558,22.13064 L518.33558,308.67284 L78.62358,308.67284 L78.62358,22.13064 L518.33558,22.13064 Z M516.58838,23.87784 L80.37078,23.87784 L80.37078,306.92564 L516.58838,306.92564 L516.58838,23.87784 Z" id="Laptop-whole" fill="#FF9475"></path>
                    <path d="M524.1712,0 C536.72836,0 546.969348,10.1140439 547.172912,22.6235973 L547.176,23.0034 L547.17558,30.099 L544.26258,30.099 L544.2626,23.0034 C544.2626,11.9252 535.2494,2.912 524.1712,2.912 L86.7888,2.912 C75.8246125,2.912 66.8839992,11.738403 66.6989261,22.6578863 L66.696,23.0034 L66.69558,30.099 L63.78358,30.099 L63.784,23.0034 C63.784,10.44624 73.8980439,0.20662446 86.4089558,0.0030878652 L86.7888,0 L524.1712,0 Z M525.33558,22.13064 L525.33558,30.099 L523.58758,30.099 L523.58838,23.87784 L87.37078,23.87784 L87.37058,30.099 L85.62358,30.099 L85.62358,22.13064 L525.33558,22.13064 Z" id="Combined-Shape" fill="#67FFD2"></path>
                    <path d="M554.176,294.0332 L554.176,302.5568 C554.176,311.042573 549.551685,318.461614 542.693818,322.448449 L542.3432,322.6482 L610.96,322.6482 L610.96,334.5006 L610.6576,334.8926 C606.821004,339.881545 600.819939,342.903155 594.537879,343.029476 L594.1278,343.0336 L30.8322,343.0336 C24.5388128,343.0336 18.4854751,340.118137 14.5556621,335.215167 L14.3024,334.8926 L14,334.5006 L14,322.6482 L82.6154,322.6482 C75.6838833,318.77839 70.9440429,311.436283 70.7879737,302.987349 L70.784,302.5568 L70.784,294.0332 L73.695,294.0332 L73.696,302.5568 C73.696,313.520988 82.522403,322.46023 93.443243,322.645274 L93.7888,322.6482 L531.1712,322.6482 C542.134002,322.6482 551.074601,313.823168 551.259674,302.902357 L551.2626,302.5568 L551.262,294.0332 L554.176,294.0332 Z M265.0144,325.5602 L16.912,325.5602 L16.912,333.4996 C20.2119024,337.553454 25.2107936,339.998931 30.4396291,340.115811 L30.8322,340.1202 L594.1278,340.1202 C599.367215,340.1202 604.412078,337.773597 607.797247,333.800612 L608.048,333.4996 L608.048,325.5602 L359.9456,325.5602 L359.9456,327.5986 C359.9456,330.894884 357.3222,333.591535 354.054194,333.709758 L353.8304,333.7138 L271.1296,333.7138 C267.831947,333.7138 265.136604,331.0904 265.01844,327.822394 L265.0144,327.5986 L265.0144,325.5602 Z M358.1984,325.5602 L266.7616,325.5602 L266.7616,327.5986 C266.7616,329.937135 268.608001,331.850998 270.918331,331.961555 L271.1296,331.9666 L353.8304,331.9666 C356.168935,331.9666 358.082798,330.121517 358.193355,327.809986 L358.1984,327.5986 L358.1984,325.5602 Z M532.335,294.0332 L532.33558,308.67284 L92.62358,308.67284 L92.623,294.0332 L94.37,294.0332 L94.37078,306.92564 L530.58838,306.92564 L530.588,294.0332 L532.335,294.0332 Z" id="Combined-Shape" fill="#67FFD2"></path>
                    <path d="M45.696,250.5986 L45.696,293.9986 L42.784,293.9986 L42.784,250.5986 L45.696,250.5986 Z M66.37,250.5986 L66.37,293.9986 L64.623,293.9986 L64.623,250.5986 L66.37,250.5986 Z M504.335,250.5986 L504.335,293.9986 L502.588,293.9986 L502.588,250.5986 L504.335,250.5986 Z M526.176,250.5986 L526.176,293.9986 L523.262,293.9986 L523.262,250.5986 L526.176,250.5986 Z" id="Combined-Shape" fill="#67FFD2"></path>
                    <path d="M73.696,152.5986 L73.696,250.5986 L70.784,250.5986 L70.784,152.5986 L73.696,152.5986 Z M94.37,152.5986 L94.37,250.5986 L92.623,250.5986 L92.623,152.5986 L94.37,152.5986 Z M532.335,152.5986 L532.335,250.5986 L530.588,250.5986 L530.588,152.5986 L532.335,152.5986 Z M554.176,152.5986 L554.176,250.5986 L551.262,250.5986 L551.262,152.5986 L554.176,152.5986 Z" id="Combined-Shape" fill="#67FFD2"></path>
                    <path d="M66.696,109.1986 L66.696,152.5986 L63.784,152.5986 L63.784,109.1986 L66.696,109.1986 Z M87.37,109.1986 L87.37,152.5986 L85.623,152.5986 L85.623,109.1986 L87.37,109.1986 Z M525.335,109.1986 L525.335,152.5986 L523.588,152.5986 L523.588,109.1986 L525.335,109.1986 Z M547.176,109.1986 L547.176,152.5986 L544.262,152.5986 L544.262,109.1986 L547.176,109.1986 Z" id="Combined-Shape" fill="#67FFD2"></path>
                    <path d="M52.696,30.0986 L52.696,109.1986 L49.784,109.1986 L49.784,30.0986 L52.696,30.0986 Z M73.37,30.0986 L73.37,109.1986 L71.623,109.1986 L71.623,30.0986 L73.37,30.0986 Z M511.335,30.0986 L511.335,109.1986 L509.588,109.1986 L509.588,30.0986 L511.335,30.0986 Z M533.176,30.0986 L533.176,109.1986 L530.262,109.1986 L530.262,30.0986 L533.176,30.0986 Z" id="Combined-Shape" fill="#67FFD2"></path>
                </g>
                <rect id="Rectangle-Copy-16" fill="#67FFD2" x="112.156289" y="60.4620994" width="411.6" height="256.9"></rect>
                <rect id="Rectangle-Copy-17" fill="#FCFF75" style="mix-blend-mode: lighten;" x="105.156289" y="67.4620994" width="411.6" height="256.9"></rect>
                <path d="M159.924,182.372099 L159.924,171.816099 L148.15,171.816099 L148.15,133.652099 L159.924,133.652099 L159.924,123.096099 L124.196,123.096099 L124.196,133.652099 L135.97,133.652099 L135.97,171.816099 L124.196,171.816099 L124.196,182.372099 L159.924,182.372099 Z M180.9548,182.372099 L180.9548,166.132099 C180.9548,160.556366 180.724733,154.574633 180.2646,148.186899 C179.804467,141.799166 179.222533,135.871566 178.5188,130.404099 L178.5188,130.404099 L185.6644,157.200099 L195.9768,157.200099 L202.7976,130.404099 C202.202133,136.088099 201.687867,142.137499 201.2548,148.552299 C200.821733,154.967099 200.6052,160.827033 200.6052,166.132099 L200.6052,166.132099 L200.6052,182.372099 L211.7296,182.372099 L211.7296,123.096099 L198.0068,123.096099 L192.6476,141.772099 C191.6732,145.182499 191.077733,147.916233 190.8612,149.973299 C190.590533,147.916233 189.968,145.182499 188.9936,141.772099 L188.9936,141.772099 L183.5532,123.096099 L169.8304,123.096099 L169.8304,182.372099 L180.9548,182.372099 Z M257.364,182.372099 L257.364,171.816099 L245.59,171.816099 L245.59,133.652099 L257.364,133.652099 L257.364,123.096099 L221.636,123.096099 L221.636,133.652099 L233.41,133.652099 L233.41,171.816099 L221.636,171.816099 L221.636,182.372099 L257.364,182.372099 Z M296.5836,175.713699 L305.1908,169.704899 L302.6736,165.969699 C300.670667,163.208899 296.9896,159.960899 291.6304,156.225699 L291.6304,156.225699 L291.7928,155.900899 C298.1264,155.900899 302.9172,155.305433 306.1652,154.114499 L306.1652,154.114499 L310.3876,152.571699 L306.7336,142.665299 L302.5112,144.208099 C299.209067,145.399033 295.149067,148.051566 290.3312,152.165699 L290.3312,152.165699 L290.0064,151.922099 C292.334133,145.534366 293.498,140.662366 293.498,137.306099 L293.498,137.306099 L293.498,132.840099 L282.942,132.840099 L282.942,137.306099 C282.942,140.662366 284.105867,145.534366 286.4336,151.922099 L286.4336,151.922099 L286.0276,152.246899 C281.101467,148.078633 277.041467,145.399033 273.8476,144.208099 L273.8476,144.208099 L269.6252,142.665299 L266.0524,152.571699 L270.1936,154.114499 C273.4416,155.305433 278.259467,155.900899 284.6472,155.900899 L284.6472,155.900899 L284.8096,156.225699 C279.396267,159.960899 275.7152,163.235966 273.7664,166.050899 L273.7664,166.050899 L271.2492,169.704899 L279.8564,175.713699 L282.4548,172.059699 C284.457733,169.244766 286.298267,164.589299 287.9764,158.093299 L287.9764,158.093299 L288.4636,158.093299 C290.141733,164.589299 291.982267,169.244766 293.9852,172.059699 L293.9852,172.059699 L296.5836,175.713699 Z M345.3036,175.713699 L353.9108,169.704899 L351.3936,165.969699 C349.390667,163.208899 345.7096,159.960899 340.3504,156.225699 L340.3504,156.225699 L340.5128,155.900899 C346.8464,155.900899 351.6372,155.305433 354.8852,154.114499 L354.8852,154.114499 L359.1076,152.571699 L355.4536,142.665299 L351.2312,144.208099 C347.929067,145.399033 343.869067,148.051566 339.0512,152.165699 L339.0512,152.165699 L338.7264,151.922099 C341.054133,145.534366 342.218,140.662366 342.218,137.306099 L342.218,137.306099 L342.218,132.840099 L331.662,132.840099 L331.662,137.306099 C331.662,140.662366 332.825867,145.534366 335.1536,151.922099 L335.1536,151.922099 L334.7476,152.246899 C329.821467,148.078633 325.761467,145.399033 322.5676,144.208099 L322.5676,144.208099 L318.3452,142.665299 L314.7724,152.571699 L318.9136,154.114499 C322.1616,155.305433 326.979467,155.900899 333.3672,155.900899 L333.3672,155.900899 L333.5296,156.225699 C328.116267,159.960899 324.4352,163.235966 322.4864,166.050899 L322.4864,166.050899 L319.9692,169.704899 L328.5764,175.713699 L331.1748,172.059699 C333.177733,169.244766 335.018267,164.589299 336.6964,158.093299 L336.6964,158.093299 L337.1836,158.093299 C338.861733,164.589299 340.702267,169.244766 342.7052,172.059699 L342.7052,172.059699 L345.3036,175.713699 Z M394.0236,175.713699 L402.6308,169.704899 L400.1136,165.969699 C398.110667,163.208899 394.4296,159.960899 389.0704,156.225699 L389.0704,156.225699 L389.2328,155.900899 C395.5664,155.900899 400.3572,155.305433 403.6052,154.114499 L403.6052,154.114499 L407.8276,152.571699 L404.1736,142.665299 L399.9512,144.208099 C396.649067,145.399033 392.589067,148.051566 387.7712,152.165699 L387.7712,152.165699 L387.4464,151.922099 C389.774133,145.534366 390.938,140.662366 390.938,137.306099 L390.938,137.306099 L390.938,132.840099 L380.382,132.840099 L380.382,137.306099 C380.382,140.662366 381.545867,145.534366 383.8736,151.922099 L383.8736,151.922099 L383.4676,152.246899 C378.541467,148.078633 374.481467,145.399033 371.2876,144.208099 L371.2876,144.208099 L367.0652,142.665299 L363.4924,152.571699 L367.6336,154.114499 C370.8816,155.305433 375.699467,155.900899 382.0872,155.900899 L382.0872,155.900899 L382.2496,156.225699 C376.836267,159.960899 373.1552,163.235966 371.2064,166.050899 L371.2064,166.050899 L368.6892,169.704899 L377.2964,175.713699 L379.8948,172.059699 C381.897733,169.244766 383.738267,164.589299 385.4164,158.093299 L385.4164,158.093299 L385.9036,158.093299 C387.581733,164.589299 389.422267,169.244766 391.4252,172.059699 L391.4252,172.059699 L394.0236,175.713699 Z M442.7436,175.713699 L451.3508,169.704899 L448.8336,165.969699 C446.830667,163.208899 443.1496,159.960899 437.7904,156.225699 L437.7904,156.225699 L437.9528,155.900899 C444.2864,155.900899 449.0772,155.305433 452.3252,154.114499 L452.3252,154.114499 L456.5476,152.571699 L452.8936,142.665299 L448.6712,144.208099 C445.369067,145.399033 441.309067,148.051566 436.4912,152.165699 L436.4912,152.165699 L436.1664,151.922099 C438.494133,145.534366 439.658,140.662366 439.658,137.306099 L439.658,137.306099 L439.658,132.840099 L429.102,132.840099 L429.102,137.306099 C429.102,140.662366 430.265867,145.534366 432.5936,151.922099 L432.5936,151.922099 L432.1876,152.246899 C427.261467,148.078633 423.201467,145.399033 420.0076,144.208099 L420.0076,144.208099 L415.7852,142.665299 L412.2124,152.571699 L416.3536,154.114499 C419.6016,155.305433 424.419467,155.900899 430.8072,155.900899 L430.8072,155.900899 L430.9696,156.225699 C425.556267,159.960899 421.8752,163.235966 419.9264,166.050899 L419.9264,166.050899 L417.4092,169.704899 L426.0164,175.713699 L428.6148,172.059699 C430.617733,169.244766 432.458267,164.589299 434.1364,158.093299 L434.1364,158.093299 L434.6236,158.093299 C436.301733,164.589299 438.142267,169.244766 440.1452,172.059699 L440.1452,172.059699 L442.7436,175.713699 Z M475.386,191.304099 L503.4,114.976099 L490.814,114.976099 L462.8,191.304099 L475.386,191.304099 Z M142.06,264.384099 C146.174133,264.384099 149.774,263.653299 152.8596,262.191699 C155.9452,260.730099 158.3406,258.673033 160.0458,256.020499 C161.751,253.367966 162.6036,250.309433 162.6036,246.844899 C162.6036,242.081166 161.250267,238.142966 158.5436,235.030299 C155.836933,231.917633 151.858133,229.738766 146.6072,228.493699 L146.6072,228.493699 L140.2736,227.032099 C138.433067,226.653166 137.012067,225.841166 136.0106,224.596099 C135.009133,223.351033 134.5084,221.862366 134.5084,220.130099 C134.5084,218.181299 135.130933,216.679099 136.376,215.623499 C137.621067,214.567899 139.407467,214.040099 141.7352,214.040099 C144.1712,214.040099 146.065867,214.581433 147.4192,215.664099 C148.772533,216.746766 149.4492,218.235433 149.4492,220.130099 L149.4492,220.130099 L161.6292,220.130099 C161.6292,215.041566 159.856333,210.995099 156.3106,207.990699 C152.764867,204.986299 147.960533,203.484099 141.8976,203.484099 C137.945867,203.484099 134.494867,204.187833 131.5446,205.595299 C128.594333,207.002766 126.320733,208.992166 124.7238,211.563499 C123.126867,214.134833 122.3284,217.152766 122.3284,220.617299 C122.3284,225.272766 123.722333,229.210966 126.5102,232.431899 C129.298067,235.652833 133.2092,237.858766 138.2436,239.049699 L138.2436,239.049699 L144.2524,240.430099 C146.2012,240.863166 147.716933,241.702233 148.7996,242.947299 C149.882267,244.192366 150.4236,245.681033 150.4236,247.413299 C150.4236,249.416233 149.706333,250.986099 148.2718,252.122899 C146.837267,253.259699 144.847867,253.828099 142.3036,253.828099 C139.651067,253.828099 137.5534,253.246166 136.0106,252.082299 C134.4678,250.918433 133.6964,249.335033 133.6964,247.332099 L133.6964,247.332099 L121.5164,247.332099 C121.5164,250.742499 122.355467,253.733366 124.0336,256.304699 C125.711733,258.876033 128.107133,260.865433 131.2198,262.272899 C134.332467,263.680366 137.945867,264.384099 142.06,264.384099 Z M183.9592,263.572099 L183.9592,238.400099 L197.6008,238.400099 L197.6008,263.572099 L209.7808,263.572099 L209.7808,204.296099 L197.6008,204.296099 L197.6008,227.032099 L183.9592,227.032099 L183.9592,204.296099 L171.7792,204.296099 L171.7792,263.572099 L183.9592,263.572099 Z M239.5,264.384099 C243.451733,264.384099 246.8892,263.639766 249.8124,262.151099 C252.7356,260.662433 254.995667,258.578299 256.5926,255.898699 C258.189533,253.219099 258.988,250.092899 258.988,246.520099 L258.988,246.520099 L258.988,221.348099 C258.988,217.775299 258.189533,214.649099 256.5926,211.969499 C254.995667,209.289899 252.7356,207.205766 249.8124,205.717099 C246.8892,204.228433 243.451733,203.484099 239.5,203.484099 C235.548267,203.484099 232.1108,204.228433 229.1876,205.717099 C226.2644,207.205766 224.004333,209.289899 222.4074,211.969499 C220.810467,214.649099 220.012,217.775299 220.012,221.348099 L220.012,221.348099 L220.012,246.520099 C220.012,250.092899 220.810467,253.219099 222.4074,255.898699 C224.004333,258.578299 226.2644,260.662433 229.1876,262.151099 C232.1108,263.639766 235.548267,264.384099 239.5,264.384099 Z M239.5,253.828099 C237.064,253.828099 235.237,253.205566 234.019,251.960499 C232.801,250.715433 232.192,248.901966 232.192,246.520099 L232.192,246.520099 L232.192,221.348099 C232.192,216.476099 234.628,214.040099 239.5,214.040099 C244.372,214.040099 246.808,216.476099 246.808,221.348099 L246.808,221.348099 L246.808,246.520099 C246.808,248.901966 246.199,250.715433 244.981,251.960499 C243.763,253.205566 241.936,253.828099 239.5,253.828099 Z M282.942,263.572099 L287.3268,224.190099 C287.597467,221.754099 287.8952,217.558766 288.22,211.604099 C288.598933,217.558766 288.923733,221.754099 289.1944,224.190099 L289.1944,224.190099 L293.1732,263.572099 L305.8404,263.572099 L311.768,204.296099 L301.6992,204.296099 L298.9384,243.921699 C298.776,245.978766 298.6136,249.822233 298.4512,255.452099 L298.4512,255.452099 L297.152,243.921699 L292.9296,204.296099 L283.6728,204.296099 L279.288,243.921699 L278.1512,255.452099 C277.9888,249.822233 277.8264,245.978766 277.664,243.921699 L277.664,243.921699 L274.6596,204.296099 L264.672,204.296099 L270.1936,263.572099 L282.942,263.572099 Z M343.03,263.572099 L343.03,215.664099 L358.052,215.664099 L358.052,204.296099 L315.828,204.296099 L315.828,215.664099 L330.85,215.664099 L330.85,263.572099 L343.03,263.572099 Z M403.524,263.572099 L403.524,253.016099 L391.75,253.016099 L391.75,214.852099 L403.524,214.852099 L403.524,204.296099 L367.796,204.296099 L367.796,214.852099 L379.57,214.852099 L379.57,253.016099 L367.796,253.016099 L367.796,263.572099 L403.524,263.572099 Z M424.5548,263.572099 L424.5548,247.332099 C424.5548,241.756366 424.324733,235.774633 423.8646,229.386899 C423.404467,222.999166 422.822533,217.071566 422.1188,211.604099 L422.1188,211.604099 L429.2644,238.400099 L439.5768,238.400099 L446.3976,211.604099 C445.802133,217.288099 445.287867,223.337499 444.8548,229.752299 C444.421733,236.167099 444.2052,242.027033 444.2052,247.332099 L444.2052,247.332099 L444.2052,263.572099 L455.3296,263.572099 L455.3296,204.296099 L441.6068,204.296099 L436.2476,222.972099 C435.2732,226.382499 434.677733,229.116233 434.4612,231.173299 C434.190533,229.116233 433.568,226.382499 432.5936,222.972099 L432.5936,222.972099 L427.1532,204.296099 L413.4304,204.296099 L413.4304,263.572099 L424.5548,263.572099 Z M501.776,263.572099 L501.776,253.178499 L477.1724,253.178499 L477.1724,238.400099 L498.934,238.400099 L498.934,228.006499 L477.1724,228.006499 L477.1724,214.689699 L501.776,214.689699 L501.776,204.296099 L465.236,204.296099 L465.236,263.572099 L501.776,263.572099 Z" id="IMI****/SHOWTIME" fill="#FF7575" fill-rule="nonzero"></path>
                <path d="M142.312289,299.503969 L144.370289,297.445969 L137.118289,290.193969 L144.419289,282.892969 L142.410289,280.834969 L135.060289,288.135969 L127.808289,280.932969 L125.799289,282.941969 L133.002289,290.193969 L125.799289,297.445969 L127.808289,299.503969 L135.060289,292.251969 L142.312289,299.503969 Z M171.712289,299.503969 L173.770289,297.445969 L166.518289,290.193969 L173.819289,282.892969 L171.810289,280.834969 L164.460289,288.135969 L157.208289,280.932969 L155.199289,282.941969 L162.402289,290.193969 L155.199289,297.445969 L157.208289,299.503969 L164.460289,292.251969 L171.712289,299.503969 Z M201.112289,299.503969 L203.170289,297.445969 L195.918289,290.193969 L203.219289,282.892969 L201.210289,280.834969 L193.860289,288.135969 L186.608289,280.932969 L184.599289,282.941969 L191.802289,290.193969 L184.599289,297.445969 L186.608289,299.503969 L193.860289,292.251969 L201.112289,299.503969 Z M230.512289,299.503969 L232.570289,297.445969 L225.318289,290.193969 L232.619289,282.892969 L230.610289,280.834969 L223.260289,288.135969 L216.008289,280.932969 L213.999289,282.941969 L221.202289,290.193969 L213.999289,297.445969 L216.008289,299.503969 L223.260289,292.251969 L230.512289,299.503969 Z M259.912289,299.503969 L261.970289,297.445969 L254.718289,290.193969 L262.019289,282.892969 L260.010289,280.834969 L252.660289,288.135969 L245.408289,280.932969 L243.399289,282.941969 L250.602289,290.193969 L243.399289,297.445969 L245.408289,299.503969 L252.660289,292.251969 L259.912289,299.503969 Z M289.312289,299.503969 L291.370289,297.445969 L284.118289,290.193969 L291.419289,282.892969 L289.410289,280.834969 L282.060289,288.135969 L274.808289,280.932969 L272.799289,282.941969 L280.002289,290.193969 L272.799289,297.445969 L274.808289,299.503969 L282.060289,292.251969 L289.312289,299.503969 Z M318.712289,299.503969 L320.770289,297.445969 L313.518289,290.193969 L320.819289,282.892969 L318.810289,280.834969 L311.460289,288.135969 L304.208289,280.932969 L302.199289,282.941969 L309.402289,290.193969 L302.199289,297.445969 L304.208289,299.503969 L311.460289,292.251969 L318.712289,299.503969 Z M348.112289,299.503969 L350.170289,297.445969 L342.918289,290.193969 L350.219289,282.892969 L348.210289,280.834969 L340.860289,288.135969 L333.608289,280.932969 L331.599289,282.941969 L338.802289,290.193969 L331.599289,297.445969 L333.608289,299.503969 L340.860289,292.251969 L348.112289,299.503969 Z M377.512289,299.503969 L379.570289,297.445969 L372.318289,290.193969 L379.619289,282.892969 L377.610289,280.834969 L370.260289,288.135969 L363.008289,280.932969 L360.999289,282.941969 L368.202289,290.193969 L360.999289,297.445969 L363.008289,299.503969 L370.260289,292.251969 L377.512289,299.503969 Z M406.912289,299.503969 L408.970289,297.445969 L401.718289,290.193969 L409.019289,282.892969 L407.010289,280.834969 L399.660289,288.135969 L392.408289,280.932969 L390.399289,282.941969 L397.602289,290.193969 L390.399289,297.445969 L392.408289,299.503969 L399.660289,292.251969 L406.912289,299.503969 Z M436.312289,299.503969 L438.370289,297.445969 L431.118289,290.193969 L438.419289,282.892969 L436.410289,280.834969 L429.060289,288.135969 L421.808289,280.932969 L419.799289,282.941969 L427.002289,290.193969 L419.799289,297.445969 L421.808289,299.503969 L429.060289,292.251969 L436.312289,299.503969 Z M465.712289,299.503969 L467.770289,297.445969 L460.518289,290.193969 L467.819289,282.892969 L465.810289,280.834969 L458.460289,288.135969 L451.208289,280.932969 L449.199289,282.941969 L456.402289,290.193969 L449.199289,297.445969 L451.208289,299.503969 L458.460289,292.251969 L465.712289,299.503969 Z M495.112289,299.503969 L497.170289,297.445969 L489.918289,290.193969 L497.219289,282.892969 L495.210289,280.834969 L487.860289,288.135969 L480.608289,280.932969 L478.599289,282.941969 L485.802289,290.193969 L478.599289,297.445969 L480.608289,299.503969 L487.860289,292.251969 L495.112289,299.503969 Z" id="×××××××××××××" fill="#FF7575" fill-rule="nonzero"></path>
                <path d="M142.312289,106.270089 L144.370289,104.212089 L137.118289,96.9600891 L144.419289,89.6590891 L142.410289,87.6010891 L135.060289,94.9020891 L127.808289,87.6990891 L125.799289,89.7080891 L133.002289,96.9600891 L125.799289,104.212089 L127.808289,106.270089 L135.060289,99.0180891 L142.312289,106.270089 Z M171.712289,106.270089 L173.770289,104.212089 L166.518289,96.9600891 L173.819289,89.6590891 L171.810289,87.6010891 L164.460289,94.9020891 L157.208289,87.6990891 L155.199289,89.7080891 L162.402289,96.9600891 L155.199289,104.212089 L157.208289,106.270089 L164.460289,99.0180891 L171.712289,106.270089 Z M201.112289,106.270089 L203.170289,104.212089 L195.918289,96.9600891 L203.219289,89.6590891 L201.210289,87.6010891 L193.860289,94.9020891 L186.608289,87.6990891 L184.599289,89.7080891 L191.802289,96.9600891 L184.599289,104.212089 L186.608289,106.270089 L193.860289,99.0180891 L201.112289,106.270089 Z M230.512289,106.270089 L232.570289,104.212089 L225.318289,96.9600891 L232.619289,89.6590891 L230.610289,87.6010891 L223.260289,94.9020891 L216.008289,87.6990891 L213.999289,89.7080891 L221.202289,96.9600891 L213.999289,104.212089 L216.008289,106.270089 L223.260289,99.0180891 L230.512289,106.270089 Z M259.912289,106.270089 L261.970289,104.212089 L254.718289,96.9600891 L262.019289,89.6590891 L260.010289,87.6010891 L252.660289,94.9020891 L245.408289,87.6990891 L243.399289,89.7080891 L250.602289,96.9600891 L243.399289,104.212089 L245.408289,106.270089 L252.660289,99.0180891 L259.912289,106.270089 Z M289.312289,106.270089 L291.370289,104.212089 L284.118289,96.9600891 L291.419289,89.6590891 L289.410289,87.6010891 L282.060289,94.9020891 L274.808289,87.6990891 L272.799289,89.7080891 L280.002289,96.9600891 L272.799289,104.212089 L274.808289,106.270089 L282.060289,99.0180891 L289.312289,106.270089 Z M318.712289,106.270089 L320.770289,104.212089 L313.518289,96.9600891 L320.819289,89.6590891 L318.810289,87.6010891 L311.460289,94.9020891 L304.208289,87.6990891 L302.199289,89.7080891 L309.402289,96.9600891 L302.199289,104.212089 L304.208289,106.270089 L311.460289,99.0180891 L318.712289,106.270089 Z M348.112289,106.270089 L350.170289,104.212089 L342.918289,96.9600891 L350.219289,89.6590891 L348.210289,87.6010891 L340.860289,94.9020891 L333.608289,87.6990891 L331.599289,89.7080891 L338.802289,96.9600891 L331.599289,104.212089 L333.608289,106.270089 L340.860289,99.0180891 L348.112289,106.270089 Z M377.512289,106.270089 L379.570289,104.212089 L372.318289,96.9600891 L379.619289,89.6590891 L377.610289,87.6010891 L370.260289,94.9020891 L363.008289,87.6990891 L360.999289,89.7080891 L368.202289,96.9600891 L360.999289,104.212089 L363.008289,106.270089 L370.260289,99.0180891 L377.512289,106.270089 Z M406.912289,106.270089 L408.970289,104.212089 L401.718289,96.9600891 L409.019289,89.6590891 L407.010289,87.6010891 L399.660289,94.9020891 L392.408289,87.6990891 L390.399289,89.7080891 L397.602289,96.9600891 L390.399289,104.212089 L392.408289,106.270089 L399.660289,99.0180891 L406.912289,106.270089 Z M436.312289,106.270089 L438.370289,104.212089 L431.118289,96.9600891 L438.419289,89.6590891 L436.410289,87.6010891 L429.060289,94.9020891 L421.808289,87.6990891 L419.799289,89.7080891 L427.002289,96.9600891 L419.799289,104.212089 L421.808289,106.270089 L429.060289,99.0180891 L436.312289,106.270089 Z M465.712289,106.270089 L467.770289,104.212089 L460.518289,96.9600891 L467.819289,89.6590891 L465.810289,87.6010891 L458.460289,94.9020891 L451.208289,87.6990891 L449.199289,89.7080891 L456.402289,96.9600891 L449.199289,104.212089 L451.208289,106.270089 L458.460289,99.0180891 L465.712289,106.270089 Z M495.112289,106.270089 L497.170289,104.212089 L489.918289,96.9600891 L497.219289,89.6590891 L495.210289,87.6010891 L487.860289,94.9020891 L480.608289,87.6990891 L478.599289,89.7080891 L485.802289,96.9600891 L478.599289,104.212089 L480.608289,106.270089 L487.860289,99.0180891 L495.112289,106.270089 Z" id="×××××××××××××" fill="#FF7575" fill-rule="nonzero"></path>
                <path d="M174.274289,76.3940994 L174.274289,69.8980994 L170.620289,69.8980994 C168.021889,69.8980994 166.059555,69.3026327 164.733289,68.1116994 C163.407022,66.920766 162.798022,65.1884994 162.906289,62.9148994 L162.906289,62.9148994 L163.718289,49.5980994 C163.880689,46.5666327 163.244622,44.0358994 161.810089,42.0058994 C160.375555,39.9758994 158.304955,38.7172994 155.598289,38.2300994 C158.304955,37.7428994 160.375555,36.4978327 161.810089,34.4948994 C163.244622,32.491966 163.880689,29.9476994 163.718289,26.8620994 L163.718289,26.8620994 L162.906289,13.5452994 C162.798022,11.2716994 163.407022,9.53943271 164.733289,8.34849938 C166.059555,7.15756605 168.021889,6.56209938 170.620289,6.56209938 L170.620289,6.56209938 L174.274289,6.56209938 L174.274289,0.0660993814 L170.620289,0.0660993814 C165.802422,0.0660993814 162.040155,1.25703271 159.333489,3.63889938 C156.626822,6.02076605 155.381755,9.32289938 155.598289,13.5452994 L155.598289,13.5452994 L156.410289,26.8620994 C156.518555,28.919166 156.369689,30.5160994 155.963689,31.6528994 C155.557689,32.7896994 154.759222,33.628766 153.568289,34.1700994 C152.377355,34.7114327 150.618022,34.9820994 148.290289,34.9820994 L148.290289,34.9820994 L139.358289,34.9820994 L139.358289,41.4780994 L148.290289,41.4780994 C150.618022,41.4780994 152.377355,41.748766 153.568289,42.2900994 C154.759222,42.8314327 155.557689,43.6840327 155.963689,44.8478994 C156.369689,46.011766 156.518555,47.595166 156.410289,49.5980994 L156.410289,49.5980994 L155.598289,62.9148994 C155.381755,67.1372994 156.626822,70.4394327 159.333489,72.8212994 C162.040155,75.203166 165.802422,76.3940994 170.620289,76.3940994 L170.620289,76.3940994 L174.274289,76.3940994 Z" id="{" fill="#67FFD2" fill-rule="nonzero"></path>
                <path d="M477.56899,380.695969 C482.386856,380.695969 486.149123,379.505036 488.85579,377.123169 C491.562456,374.741302 492.807523,371.439169 492.59099,367.216769 L492.59099,367.216769 L491.77899,353.899969 C491.670723,351.897036 491.81959,350.313636 492.22559,349.149769 C492.63159,347.985902 493.430056,347.133302 494.62099,346.591969 C495.811923,346.050636 497.571256,345.779969 499.89899,345.779969 L499.89899,345.779969 L508.83099,345.779969 L508.83099,339.283969 L499.89899,339.283969 C497.571256,339.283969 495.811923,339.013302 494.62099,338.471969 C493.430056,337.930636 492.63159,337.091569 492.22559,335.954769 C491.81959,334.817969 491.670723,333.221036 491.77899,331.163969 L491.77899,331.163969 L492.59099,317.847169 C492.807523,313.624769 491.562456,310.322636 488.85579,307.940769 C486.149123,305.558902 482.386856,304.367969 477.56899,304.367969 L477.56899,304.367969 L473.91499,304.367969 L473.91499,310.863969 L477.56899,310.863969 C480.16739,310.863969 482.129723,311.459436 483.45599,312.650369 C484.782256,313.841302 485.391256,315.573569 485.28299,317.847169 L485.28299,317.847169 L484.47099,331.163969 C484.30859,334.249569 484.944656,336.793836 486.37919,338.796769 C487.813723,340.799702 489.884323,342.044769 492.59099,342.531969 C489.884323,343.019169 487.813723,344.277769 486.37919,346.307769 C484.944656,348.337769 484.30859,350.868502 484.47099,353.899969 L484.47099,353.899969 L485.28299,367.216769 C485.391256,369.490369 484.782256,371.222636 483.45599,372.413569 C482.129723,373.604502 480.16739,374.199969 477.56899,374.199969 L477.56899,374.199969 L473.91499,374.199969 L473.91499,380.695969 L477.56899,380.695969 Z" id="}" fill="#67FFD2" fill-rule="nonzero"></path>
                <rect id="Rectangle" fill="#67FFD2" x="602.548" y="0" width="16" height="130"></rect>
                <rect id="Rectangle" fill="#FCFF75" style="mix-blend-mode: lighten;" x="595.548" y="7" width="16" height="130"></rect>
                <rect id="Rectangle" fill="#67FFD2" x="7" y="212" width="16" height="80"></rect>
                <rect id="Rectangle" fill="#FCFF75" style="mix-blend-mode: lighten;" x="0" y="219" width="16" height="80"></rect>
            </g>
        </g>
    </g>
</svg>