<?xml version="1.0" encoding="UTF-8"?>
<svg width="1920px" height="985px" viewBox="0 0 1920 985" version="1.1" xmlns="http://www.w3.org/2000/svg" xmlns:xlink="http://www.w3.org/1999/xlink">
    <title>Home Copy 3</title>
    <g id="Home-Copy-3" stroke="none" stroke-width="1" fill="none" fill-rule="evenodd">
        <g id="bgimsge" transform="translate(58.000000, 48.517901)" fill="#FF9475" fill-rule="nonzero">
            <polygon id="×" points="192.296 658.957901 195.824 655.429901 183.392 642.997901 195.908 630.481901 192.464 626.953901 179.864 639.469901 167.432 627.121901 163.988 630.565901 176.336 642.997901 163.988 655.429901 167.432 658.957901 179.864 646.525901"></polygon>
            <polygon id="×" points="29.296 246.282099 32.824 242.754099 20.392 230.322099 32.908 217.806099 29.464 214.278099 16.864 226.794099 4.432 214.446099 0.988 217.890099 13.336 230.322099 0.988 242.754099 4.432 246.282099 16.864 233.850099"></polygon>
            <polygon id="×" points="1635.344 252.722099 1638.872 249.194099 1626.44 236.762099 1638.956 224.246099 1635.512 220.718099 1622.912 233.234099 1610.48 220.886099 1607.036 224.330099 1619.384 236.762099 1607.036 249.194099 1610.48 252.722099 1622.912 240.290099"></polygon>
            <polygon id="×" points="1798.296 826.722099 1801.824 823.194099 1789.392 810.762099 1801.908 798.246099 1798.464 794.718099 1785.864 807.234099 1773.432 794.886099 1769.988 798.330099 1782.336 810.762099 1769.988 823.194099 1773.432 826.722099 1785.864 814.290099"></polygon>
            <polygon id="×" points="359.796 32.8 363.324 29.272 350.892 16.84 363.408 4.324 359.964 0.796 347.364 13.312 334.932 0.964 331.488 4.408 343.836 16.84 331.488 29.272 334.932 32.8 347.364 20.368"></polygon>
            <polygon id="×" points="513.796 760.782099 517.324 757.254099 504.892 744.822099 517.408 732.306099 513.964 728.778099 501.364 741.294099 488.932 728.946099 485.488 732.390099 497.836 744.822099 485.488 757.254099 488.932 760.782099 501.364 748.350099"></polygon>
            <polygon id="×" points="1152.296 108.782099 1155.824 105.254099 1143.392 92.8220994 1155.908 80.3060994 1152.464 76.7780994 1139.864 89.2940994 1127.432 76.9460994 1123.988 80.3900994 1136.336 92.8220994 1123.988 105.254099 1127.432 108.782099 1139.864 96.3500994"></polygon>
            <polygon id="×" points="837.296 396.8 840.824 393.272 828.392 380.84 840.908 368.324 837.464 364.796 824.864 377.312 812.432 364.964 808.988 368.408 821.336 380.84 808.988 393.272 812.432 396.8 824.864 384.368"></polygon>
            <polygon id="×" points="1007.296 906.8 1010.824 903.272 998.392 890.84 1010.908 878.324 1007.464 874.796 994.864 887.312 982.432 874.964 978.988 878.408 991.336 890.84 978.988 903.272 982.432 906.8 994.864 894.368"></polygon>
        </g>
    </g>
</svg>