<?xml version="1.0" encoding="UTF-8"?>
<svg width="752pt" height="752pt" version="1.1" viewBox="0 0 752 752" xmlns="http://www.w3.org/2000/svg">
 <g>
  <path d="m542.89 218.13c-0.007813-0.015624-0.027344-0.027343-0.039063-0.046874-8.1992-13.555-19.535-25.941-33.699-36.82-27.5-21.133-62.871-33.75-94.617-33.75h-72.875c-31.742 0-67.117 12.617-94.625 33.742-21.965 16.867-36.891 37.047-43.812 58.941-56.078 122.92-9.4492 343.12-7.3086 353.01 0.67188 3.1055 3.4258 5.3242 6.5859 5.3242 0.0625 0 0.11719 0 0.17578-0.003906 3.2422-0.09375 5.9609-2.4609 6.4844-5.6602 3.8633-23.711 40.527-31.176 54.129-33.145 30.551 27.391 70.887 44.082 115.05 44.082 44.25 0 84.648-16.762 115.22-44.246 12.492 1.6953 51.297 8.9023 55.277 33.312 0.51172 3.2109 3.2422 5.5781 6.4805 5.6602 0.0625 0.003906 0.11719 0.003906 0.17578 0.003906 3.1641 0 5.9102-2.2148 6.5938-5.3242 2.2695-10.512 54.855-258.77-19.199-375.08zm-165.13-35.609c16.902 18.195 77.895 78.992 150.48 94.41v60.492c-15.277-21.445-45.062-56.332-82.848-66.402-1.8438-0.49219-3.832-0.17578-5.4258 0.875l-61.473 40.273-61.473-40.273c-1.6016-1.0508-3.5742-1.3672-5.4336-0.875-38.453 10.25-68.613 46.184-83.633 67.508l0.003906-61.734c72.281-15.645 132.95-76.133 149.8-94.273zm0.57812 398.86c-82.793 0-150.15-67.363-150.15-150.15 0-0.80078-0.082031-1.5859-0.24219-2.3398v-65.957c0.50781-0.46875 0.97266-0.99609 1.332-1.6289 0.35938-0.625 35.332-61.734 82.934-76.438l62.508 40.945c0.007812 0.003906 0.019531 0.007812 0.027344 0.019531l0.046875 0.03125c0.097656 0.066407 0.21484 0.10547 0.31641 0.16406 0.26953 0.15625 0.53906 0.3125 0.82422 0.42969 0.21484 0.089844 0.4375 0.13672 0.65234 0.19922 0.19922 0.0625 0.38672 0.12891 0.59375 0.17188 0.24219 0.046875 0.48437 0.058594 0.72266 0.082031 0.19531 0.019532 0.37891 0.046875 0.57812 0.046875 0.23828 0 0.46875-0.03125 0.69531-0.058593 0.19922-0.019532 0.39844-0.027344 0.59766-0.066407 0.25-0.046875 0.49219-0.13281 0.73437-0.20703 0.17188-0.050781 0.33594-0.089844 0.50391-0.15625 0.35156-0.14062 0.6875-0.32031 1.0078-0.51953 0.050781-0.03125 0.097657-0.046875 0.15625-0.082031l0.019531-0.015626c0.027344-0.015624 0.058594-0.03125 0.082032-0.046874l62.484-40.93c47.602 14.699 82.582 75.812 82.934 76.438 0.14844 0.26953 0.35938 0.48438 0.54297 0.72266v69.199c0 0.78125 0.082031 1.5391 0.23047 2.2695-1.2148 81.75-68.094 147.88-150.13 147.88z"/>
  <path d="m392.2 504.5c-39.98 0-48.48-14.266-49.871-17.438l12.352-5.4219s-0.042969-0.13672-0.17969-0.37109c0.074219 0.125 8.168 12.664 52.664 9.0938 3.6953-0.30859 6.957 2.4727 7.2539 6.1914 0.29297 3.7109-2.4688 6.9648-6.1914 7.2656-5.832 0.46484-11.176 0.67969-16.027 0.67969z"/>
  <path d="m405.59 238.31c-0.45312-1.3867-1.7422-2.3281-3.2109-2.3281h-16.051l-4.9648-15.27c-0.45312-1.3906-1.7422-2.3359-3.207-2.3359s-2.7578 0.94141-3.207 2.3359l-4.957 15.27h-16.055c-1.457 0-2.7578 0.9375-3.207 2.3281-0.44922 1.3867 0.042969 2.9141 1.2266 3.7656l12.984 9.4375-4.9648 15.262c-0.44922 1.3867 0.046876 2.9141 1.2266 3.7695 1.1836 0.85547 2.7812 0.85547 3.9648 0l12.984-9.4336 12.992 9.4336c0.58594 0.42969 1.2852 0.64453 1.9766 0.64453s1.3906-0.21484 1.9844-0.64453c1.1797-0.85547 1.6758-2.3828 1.2266-3.7695l-4.9648-15.262 12.984-9.4375c1.1914-0.85547 1.6953-2.3789 1.2383-3.7656z"/>
 </g>
</svg>
