<?xml version="1.0" standalone="no"?>
<!DOCTYPE svg PUBLIC "-//W3C//DTD SVG 20010904//EN"
 "http://www.w3.org/TR/2001/REC-SVG-20010904/DTD/svg10.dtd">
<svg version="1.0" xmlns="http://www.w3.org/2000/svg"
 width="1068.000000pt" height="552.000000pt" viewBox="0 0 1068.000000 552.000000"
 preserveAspectRatio="xMidYMid meet">
<metadata>
Created by potrace 1.14, written by Peter Selinger 2001-2017
</metadata>
<g transform="translate(0.000000,552.000000) scale(0.100000,-0.100000)"
fill="#000000" stroke="none">
<path d="M4830 5513 c-267 -28 -553 -133 -790 -290 -160 -106 -357 -303 -463
-463 -408 -615 -390 -1400 45 -1992 81 -111 272 -298 388 -380 175 -125 437
-238 650 -282 693 -142 1401 154 1793 749 110 168 205 401 248 613 29 142 37
413 15 560 -44 294 -142 539 -314 782 -72 101 -257 294 -336 349 l-48 33 7
-173 c4 -97 12 -183 19 -195 6 -12 38 -57 72 -101 244 -321 314 -753 183
-1134 -72 -211 -227 -426 -404 -560 -465 -353 -1110 -352 -1583 0 -613 458
-691 1329 -167 1857 96 97 197 169 325 234 83 41 238 97 322 114 18 4 60 45
135 134 60 70 112 133 117 140 5 9 -14 12 -86 10 -51 0 -109 -3 -128 -5z"/>
<path d="M5461 5313 c-41 -49 -152 -187 -543 -672 -226 -281 -262 -337 -293
-456 -50 -195 24 -396 185 -503 218 -146 482 -126 643 48 64 69 100 140 129
253 20 78 20 91 9 476 -6 218 -14 502 -17 631 -4 129 -11 243 -16 253 -16 32
-54 20 -97 -30z"/>
<path d="M143 1380 c-39 -3 -73 -7 -75 -10 -5 -5 -59 -1244 -58 -1317 l0 -41
66 -7 c68 -8 194 1 205 13 4 4 12 224 20 489 7 266 15 481 17 478 3 -3 69
-155 146 -338 l141 -332 116 -3 c85 -2 119 1 126 10 6 7 79 159 162 338 83
179 151 316 151 305 3 -157 40 -949 45 -953 9 -9 282 -9 290 0 8 8 -62 1348
-71 1357 -10 10 -151 18 -225 12 l-74 -6 -185 -368 -186 -368 -174 361 c-96
199 -181 365 -189 369 -22 11 -162 18 -248 11z"/>
<path d="M2696 1120 c-215 -276 -217 -280 -110 -280 l64 0 0 -272 c0 -338 12
-393 96 -468 52 -45 108 -68 199 -81 86 -12 253 3 268 24 10 15 1 141 -13 183
l-11 30 -63 -9 c-86 -13 -142 4 -171 53 -18 32 -20 55 -23 288 l-4 252 120 0
c100 0 121 3 126 16 3 9 6 51 6 94 0 43 -3 85 -6 94 -5 13 -26 16 -125 16
l-119 0 0 150 0 150 -24 0 c-18 0 -60 -48 -210 -240z"/>
<path d="M3597 1318 c-190 -235 -337 -433 -337 -454 0 -23 3 -24 64 -24 l64 0
4 -282 c5 -306 12 -349 63 -418 34 -46 96 -87 164 -107 61 -19 250 -22 306 -5
29 8 30 11 33 75 2 37 -2 84 -8 106 l-10 39 -89 -1 c-77 -2 -93 1 -118 19 -47
35 -52 67 -52 332 l-1 242 119 0 120 0 6 55 c4 30 4 80 0 110 l-6 55 -119 0
-119 0 -3 148 c-3 142 -4 147 -24 150 -16 2 -32 -9 -57 -40z"/>
<path d="M9488 1121 c-215 -275 -217 -281 -113 -281 l63 0 4 -292 c5 -338 9
-360 88 -439 68 -68 150 -93 295 -92 61 1 126 6 145 10 l35 9 -2 85 c0 46 -6
96 -11 110 -10 26 -12 26 -63 17 -70 -13 -131 -3 -156 25 -46 50 -48 61 -51
319 l-4 247 124 3 123 3 0 105 0 105 -122 3 -123 3 0 149 c0 149 0 150 -22
150 -18 0 -65 -54 -210 -239z"/>
<path d="M1840 1065 c-41 -8 -93 -21 -115 -28 -39 -14 -40 -15 -38 -60 3 -57
40 -157 58 -157 8 0 40 7 72 15 82 21 248 20 292 -3 44 -22 68 -56 76 -107 l6
-40 -118 0 c-220 0 -359 -60 -428 -186 -28 -50 -30 -62 -30 -154 0 -116 18
-167 80 -230 124 -123 407 -148 723 -64 l42 12 0 352 c0 325 -2 358 -20 418
-36 115 -129 196 -267 232 -71 18 -230 18 -333 0z m298 -561 l52 -7 0 -127 c0
-107 -3 -129 -16 -134 -33 -13 -195 -6 -224 9 -46 24 -70 62 -70 112 0 80 37
121 127 142 49 12 67 12 131 5z"/>
<path d="M4378 1066 c-178 -51 -303 -190 -343 -381 -31 -149 -11 -324 50 -446
51 -100 158 -180 286 -215 129 -34 334 -26 477 18 l65 20 -7 54 c-9 76 -44
167 -62 160 -68 -26 -152 -40 -249 -40 -94 -1 -117 2 -160 22 -27 12 -58 30
-68 40 -24 21 -52 77 -62 119 l-7 33 331 0 330 0 7 36 c11 61 -2 224 -25 294
-39 124 -133 225 -251 272 -69 27 -240 34 -312 14z m239 -232 c36 -27 70 -88
79 -142 l7 -42 -202 0 -201 0 6 28 c19 86 48 133 102 162 51 28 168 24 209 -6z"/>
<path d="M6271 1064 c-60 -21 -115 -59 -148 -102 l-27 -36 -16 64 c-13 54 -19
65 -40 71 -33 9 -139 11 -179 3 l-31 -6 0 -518 0 -517 70 -7 c39 -3 101 -3
139 0 l69 7 5 321 c3 202 9 335 16 359 27 85 106 136 194 124 44 -6 62 -19 85
-61 15 -27 18 -78 22 -386 l5 -355 74 -8 c40 -4 103 -4 140 0 l66 8 5 335 c5
334 5 335 30 380 61 110 221 122 266 19 16 -40 19 -79 22 -390 l4 -346 69 -7
c38 -3 101 -3 140 0 l70 7 -3 406 c-3 400 -3 407 -27 465 -48 120 -132 176
-277 184 -126 7 -182 -14 -264 -97 l-66 -67 -28 44 c-35 54 -100 97 -167 111
-70 15 -166 13 -218 -5z"/>
<path d="M7753 1065 c-133 -36 -231 -117 -289 -238 -134 -284 -43 -658 188
-771 203 -100 470 -60 608 91 90 98 130 218 130 394 0 115 -22 225 -61 300
-54 107 -183 202 -307 228 -72 15 -206 13 -269 -4z m200 -216 c64 -17 104 -62
128 -141 18 -59 21 -88 17 -197 -3 -114 -6 -133 -31 -183 -33 -67 -73 -96
-146 -105 -63 -7 -130 16 -165 58 -73 87 -86 351 -23 477 42 84 124 118 220
91z"/>
<path d="M8771 1065 c-170 -48 -251 -148 -251 -310 0 -160 60 -227 255 -286
186 -56 205 -69 205 -134 0 -39 -4 -47 -37 -72 -33 -25 -45 -28 -134 -31 -75
-3 -114 1 -174 17 -42 12 -80 19 -84 16 -11 -6 -49 -133 -53 -175 l-3 -35 80
-24 c66 -19 104 -24 215 -25 117 -1 145 2 208 23 127 42 224 130 252 229 15
54 12 162 -5 213 -33 97 -107 150 -280 199 -144 41 -176 68 -159 135 15 62
154 79 293 36 40 -12 74 -21 76 -19 8 8 45 130 51 165 l6 40 -83 23 c-108 30
-298 37 -378 15z"/>
<path d="M5100 1062 l-25 -8 0 -514 0 -515 60 -8 c33 -4 97 -5 142 -2 l81 7 4
306 3 307 28 58 c43 87 85 111 203 115 l92 4 6 45 c11 79 7 178 -7 198 -12 15
-24 17 -88 13 -90 -6 -144 -31 -209 -99 l-48 -48 -11 57 c-6 31 -15 63 -20 71
-10 15 -170 25 -211 13z"/>
</g>
</svg>
