<svg width="1501" height="875" viewBox="0 0 1501 875" fill="none" xmlns="http://www.w3.org/2000/svg">
<g clip-path="url(#clip0)">
<rect width="1501" height="875" fill="url(#paint0_radial)"/>
<g filter="url(#filter0_d)">
<rect width="411" height="731" transform="translate(545 72)" fill="white"/>
<circle cx="750.5" cy="148.5" r="51" stroke="#F2F2F2" stroke-width="7"/>
<g filter="url(#filter1_i)">
<path d="M608.5 516L691.5 358L896 516H608.5Z" stroke="#E1E1E1" stroke-opacity="0.43" stroke-width="18"/>
<circle cx="691" cy="357" r="31" fill="#F2F2F2"/>
<circle cx="609" cy="515" r="31" fill="#F2F2F2"/>
<circle cx="896" cy="515" r="31" fill="#F2F2F2"/>
</g>
<g filter="url(#filter2_d)">
<circle cx="902" cy="745" r="25" fill="white"/>
</g>
<g filter="url(#filter3_d)">
<circle cx="829" cy="745" r="25" fill="white"/>
</g>
<path d="M906.125 756.375H908.542V753.958H906.125V756.375ZM910.958 741.875H913.375V739.458H910.958V741.875ZM891.625 737.042V753.958C891.625 755.288 892.712 756.375 894.042 756.375H898.875V753.958H894.042V737.042H898.875V734.625H894.042C892.712 734.625 891.625 735.713 891.625 737.042ZM910.958 734.625V737.042H913.375C913.375 735.713 912.288 734.625 910.958 734.625ZM901.292 758.792H903.708V732.208H901.292V758.792ZM910.958 751.542H913.375V749.125H910.958V751.542ZM906.125 737.042H908.542V734.625H906.125V737.042ZM910.958 746.708H913.375V744.292H910.958V746.708ZM910.958 756.375C912.288 756.375 913.375 755.288 913.375 753.958H910.958V756.375Z" fill="#444444"/>
<path d="M818.625 749.125V751.542H821.042V749.125H818.625ZM833.125 753.958V756.375H835.542V753.958H833.125ZM837.958 734.625H821.042C819.713 734.625 818.625 735.712 818.625 737.042V741.875H821.042V737.042H837.958V741.875H840.375V737.042C840.375 735.712 839.288 734.625 837.958 734.625ZM840.375 753.958H837.958V756.375C839.288 756.375 840.375 755.288 840.375 753.958ZM816.208 744.292V746.708H842.792V744.292H816.208ZM823.458 753.958V756.375H825.875V753.958H823.458ZM837.958 749.125V751.542H840.375V749.125H837.958ZM828.292 753.958V756.375H830.708V753.958H828.292ZM818.625 753.958C818.625 755.288 819.713 756.375 821.042 756.375V753.958H818.625Z" fill="#444444"/>
<g filter="url(#filter4_d)">
<path d="M672.5 551.5L723 330.5L829 551.5H672.5Z" stroke="#43C0B9" stroke-width="13"/>
<circle cx="676" cy="549" r="26" fill="white" stroke="#6200EE" stroke-width="6"/>
<circle cx="722" cy="329" r="26" fill="white" stroke="#43C0B9" stroke-width="6"/>
<circle cx="833" cy="549" r="26" fill="white" stroke="#43C0B9" stroke-width="6"/>
</g>
<path fill-rule="evenodd" clip-rule="evenodd" d="M751 99.0231C751 100.12 751.885 101.007 752.981 101.064C778.061 102.354 798 123.099 798 148.5C798 174.734 776.734 196 750.5 196C735.73 196 722.534 189.259 713.822 178.685C713.132 177.847 711.908 177.659 711.027 178.294L708.587 180.052C707.678 180.707 707.482 181.984 708.189 182.854C718.181 195.146 733.424 203 750.5 203C780.6 203 805 178.6 805 148.5C805 119.245 781.95 95.3741 753.02 94.0573C751.91 94.0067 751 94.9087 751 96.0203V99.0231Z" fill="#6200EE"/>
<path d="M730.398 149.816C730.398 152.27 729.938 154.121 729.016 155.371C728.102 156.613 726.707 157.234 724.832 157.234C722.988 157.234 721.598 156.629 720.66 155.418C719.73 154.199 719.254 152.398 719.23 150.016V147.062C719.23 144.609 719.688 142.77 720.602 141.543C721.523 140.316 722.926 139.703 724.809 139.703C726.676 139.703 728.066 140.301 728.98 141.496C729.902 142.691 730.375 144.48 730.398 146.863V149.816ZM727.551 146.629C727.551 145.027 727.332 143.855 726.895 143.113C726.457 142.363 725.762 141.988 724.809 141.988C723.879 141.988 723.195 142.344 722.758 143.055C722.32 143.758 722.09 144.859 722.066 146.359V150.227C722.066 151.82 722.289 153.008 722.734 153.789C723.18 154.57 723.879 154.961 724.832 154.961C725.746 154.961 726.422 154.602 726.859 153.883C727.297 153.156 727.527 152.023 727.551 150.484V146.629ZM745.289 149.816C745.289 152.27 744.828 154.121 743.906 155.371C742.992 156.613 741.598 157.234 739.723 157.234C737.879 157.234 736.488 156.629 735.551 155.418C734.621 154.199 734.145 152.398 734.121 150.016V147.062C734.121 144.609 734.578 142.77 735.492 141.543C736.414 140.316 737.816 139.703 739.699 139.703C741.566 139.703 742.957 140.301 743.871 141.496C744.793 142.691 745.266 144.48 745.289 146.863V149.816ZM742.441 146.629C742.441 145.027 742.223 143.855 741.785 143.113C741.348 142.363 740.652 141.988 739.699 141.988C738.77 141.988 738.086 142.344 737.648 143.055C737.211 143.758 736.98 144.859 736.957 146.359V150.227C736.957 151.82 737.18 153.008 737.625 153.789C738.07 154.57 738.77 154.961 739.723 154.961C740.637 154.961 741.312 154.602 741.75 153.883C742.188 153.156 742.418 152.023 742.441 150.484V146.629ZM750.957 154C751.488 154 751.898 154.152 752.188 154.457C752.477 154.754 752.621 155.129 752.621 155.582C752.621 156.027 752.477 156.398 752.188 156.695C751.898 156.984 751.488 157.129 750.957 157.129C750.449 157.129 750.047 156.984 749.75 156.695C749.453 156.406 749.305 156.035 749.305 155.582C749.305 155.129 749.449 154.754 749.738 154.457C750.027 154.152 750.434 154 750.957 154ZM750.957 144.051C751.488 144.051 751.898 144.203 752.188 144.508C752.477 144.805 752.621 145.18 752.621 145.633C752.621 146.078 752.477 146.449 752.188 146.746C751.898 147.035 751.488 147.18 750.957 147.18C750.449 147.18 750.047 147.035 749.75 146.746C749.453 146.457 749.305 146.086 749.305 145.633C749.305 145.18 749.449 144.805 749.738 144.508C750.027 144.203 750.434 144.051 750.957 144.051ZM759.977 147.168H761.711C762.586 147.16 763.277 146.934 763.785 146.488C764.301 146.043 764.559 145.398 764.559 144.555C764.559 143.742 764.344 143.113 763.914 142.668C763.492 142.215 762.844 141.988 761.969 141.988C761.203 141.988 760.574 142.211 760.082 142.656C759.59 143.094 759.344 143.668 759.344 144.379H756.496C756.496 143.504 756.727 142.707 757.188 141.988C757.656 141.27 758.305 140.711 759.133 140.312C759.969 139.906 760.902 139.703 761.934 139.703C763.637 139.703 764.973 140.133 765.941 140.992C766.918 141.844 767.406 143.031 767.406 144.555C767.406 145.32 767.16 146.043 766.668 146.723C766.184 147.395 765.555 147.902 764.781 148.246C765.719 148.566 766.43 149.07 766.914 149.758C767.406 150.445 767.652 151.266 767.652 152.219C767.652 153.75 767.125 154.969 766.07 155.875C765.023 156.781 763.645 157.234 761.934 157.234C760.293 157.234 758.949 156.797 757.902 155.922C756.855 155.047 756.332 153.883 756.332 152.43H759.18C759.18 153.18 759.43 153.789 759.93 154.258C760.438 154.727 761.117 154.961 761.969 154.961C762.852 154.961 763.547 154.727 764.055 154.258C764.562 153.789 764.816 153.109 764.816 152.219C764.816 151.32 764.551 150.629 764.02 150.145C763.488 149.66 762.699 149.418 761.652 149.418H759.977V147.168ZM782.93 141.52L776.109 157H773.121L779.93 142.223H771.105V139.938H782.93V141.52Z" fill="#525252"/>
</g>
</g>
<defs>
<filter id="filter0_d" x="402" y="-67" width="697" height="1017" filterUnits="userSpaceOnUse" color-interpolation-filters="sRGB">
<feFlood flood-opacity="0" result="BackgroundImageFix"/>
<feColorMatrix in="SourceAlpha" type="matrix" values="0 0 0 0 0 0 0 0 0 0 0 0 0 0 0 0 0 0 127 0"/>
<feOffset dy="4"/>
<feGaussianBlur stdDeviation="71.5"/>
<feColorMatrix type="matrix" values="0 0 0 0 0 0 0 0 0 0 0 0 0 0 0 0 0 0 0.2 0"/>
<feBlend mode="normal" in2="BackgroundImageFix" result="effect1_dropShadow"/>
<feBlend mode="normal" in="SourceGraphic" in2="effect1_dropShadow" result="shape"/>
</filter>
<filter id="filter1_i" x="578" y="326" width="349" height="222" filterUnits="userSpaceOnUse" color-interpolation-filters="sRGB">
<feFlood flood-opacity="0" result="BackgroundImageFix"/>
<feBlend mode="normal" in="SourceGraphic" in2="BackgroundImageFix" result="shape"/>
<feColorMatrix in="SourceAlpha" type="matrix" values="0 0 0 0 0 0 0 0 0 0 0 0 0 0 0 0 0 0 127 0" result="hardAlpha"/>
<feOffset dy="2"/>
<feGaussianBlur stdDeviation="2.5"/>
<feComposite in2="hardAlpha" operator="arithmetic" k2="-1" k3="1"/>
<feColorMatrix type="matrix" values="0 0 0 0 0 0 0 0 0 0 0 0 0 0 0 0 0 0 0.15 0"/>
<feBlend mode="normal" in2="shape" result="effect1_innerShadow"/>
</filter>
<filter id="filter2_d" x="871" y="715" width="62" height="62" filterUnits="userSpaceOnUse" color-interpolation-filters="sRGB">
<feFlood flood-opacity="0" result="BackgroundImageFix"/>
<feColorMatrix in="SourceAlpha" type="matrix" values="0 0 0 0 0 0 0 0 0 0 0 0 0 0 0 0 0 0 127 0"/>
<feOffset dy="1"/>
<feGaussianBlur stdDeviation="3"/>
<feColorMatrix type="matrix" values="0 0 0 0 0 0 0 0 0 0 0 0 0 0 0 0 0 0 0.25 0"/>
<feBlend mode="normal" in2="BackgroundImageFix" result="effect1_dropShadow"/>
<feBlend mode="normal" in="SourceGraphic" in2="effect1_dropShadow" result="shape"/>
</filter>
<filter id="filter3_d" x="798" y="715" width="62" height="62" filterUnits="userSpaceOnUse" color-interpolation-filters="sRGB">
<feFlood flood-opacity="0" result="BackgroundImageFix"/>
<feColorMatrix in="SourceAlpha" type="matrix" values="0 0 0 0 0 0 0 0 0 0 0 0 0 0 0 0 0 0 127 0"/>
<feOffset dy="1"/>
<feGaussianBlur stdDeviation="3"/>
<feColorMatrix type="matrix" values="0 0 0 0 0 0 0 0 0 0 0 0 0 0 0 0 0 0 0.25 0"/>
<feBlend mode="normal" in2="BackgroundImageFix" result="effect1_dropShadow"/>
<feBlend mode="normal" in="SourceGraphic" in2="effect1_dropShadow" result="shape"/>
</filter>
<filter id="filter4_d" x="643" y="300" width="223" height="286" filterUnits="userSpaceOnUse" color-interpolation-filters="sRGB">
<feFlood flood-opacity="0" result="BackgroundImageFix"/>
<feColorMatrix in="SourceAlpha" type="matrix" values="0 0 0 0 0 0 0 0 0 0 0 0 0 0 0 0 0 0 127 0"/>
<feOffset dy="4"/>
<feGaussianBlur stdDeviation="2"/>
<feColorMatrix type="matrix" values="0 0 0 0 0 0 0 0 0 0 0 0 0 0 0 0 0 0 0.09 0"/>
<feBlend mode="normal" in2="BackgroundImageFix" result="effect1_dropShadow"/>
<feBlend mode="normal" in="SourceGraphic" in2="effect1_dropShadow" result="shape"/>
</filter>
<radialGradient id="paint0_radial" cx="0" cy="0" r="1" gradientUnits="userSpaceOnUse" gradientTransform="translate(750.5 437.5) rotate(43.5061) scale(908.587 1558.62)">
<stop stop-color="#FAFAFA"/>
<stop offset="1" stop-color="#EFEFEF"/>
</radialGradient>
<clipPath id="clip0">
<rect width="1501" height="875" fill="white"/>
</clipPath>
</defs>
</svg>
