<svg width="1188" height="350" viewBox="0 0 1188 350" fill="none" xmlns="http://www.w3.org/2000/svg">
<path d="M1067.06 276.061C1067.65 275.475 1067.65 274.525 1067.06 273.939L1057.51 264.393C1056.93 263.808 1055.98 263.808 1055.39 264.393C1054.81 264.979 1054.81 265.929 1055.39 266.515L1063.88 275L1055.39 283.485C1054.81 284.071 1054.81 285.021 1055.39 285.607C1055.98 286.192 1056.93 286.192 1057.51 285.607L1067.06 276.061ZM711 276.5H1066V273.5H711V276.5Z" fill="#3E2D4A" fill-opacity="0.28"/>
<path d="M712.061 73.9393C711.475 73.3535 710.525 73.3535 709.939 73.9393L700.393 83.4853C699.808 84.0711 699.808 85.0208 700.393 85.6066C700.979 86.1924 701.929 86.1924 702.515 85.6066L711 77.1213L719.485 85.6066C720.071 86.1924 721.021 86.1924 721.607 85.6066C722.192 85.0208 722.192 84.0711 721.607 83.4853L712.061 73.9393ZM712.5 275L712.5 75L709.5 75L709.5 275L712.5 275Z" fill="#3E2D4A" fill-opacity="0.28"/>
<path d="M669.539 322.093L670.975 327H674.622L667.796 305.672H664.676L657.732 327H661.395L662.845 322.093H669.539ZM663.738 319.075L666.229 310.638L668.675 319.075H663.738ZM680.145 318.328V318.577C680.145 319.974 680.252 321.282 680.467 322.503C680.682 323.714 680.97 324.837 681.331 325.872C681.692 326.917 682.112 327.864 682.591 328.714C683.079 329.573 683.592 330.335 684.129 330.999C684.666 331.663 685.213 332.225 685.77 332.684C686.326 333.152 686.863 333.514 687.381 333.768L688.084 331.805C687.693 331.502 687.303 331.126 686.912 330.677C686.521 330.228 686.146 329.71 685.784 329.124C685.433 328.548 685.105 327.884 684.803 327.132C684.5 326.38 684.231 325.564 683.997 324.686C683.812 323.953 683.65 323.064 683.514 322.02C683.377 320.965 683.309 319.827 683.309 318.606V318.299C683.309 317.049 683.377 315.887 683.514 314.812C683.66 313.738 683.855 312.757 684.1 311.868C684.363 310.921 684.676 310.047 685.037 309.246C685.408 308.445 685.804 307.747 686.224 307.151C686.526 306.731 686.834 306.355 687.146 306.023C687.459 305.691 687.771 305.408 688.084 305.174L687.381 303.138C686.863 303.392 686.326 303.753 685.77 304.222C685.213 304.681 684.671 305.242 684.144 305.906C683.606 306.57 683.094 307.332 682.605 308.191C682.127 309.051 681.702 309.993 681.331 311.019C680.97 312.063 680.682 313.201 680.467 314.432C680.252 315.652 680.145 316.951 680.145 318.328ZM708.987 318.87V313.816C708.987 312.449 708.826 311.243 708.504 310.198C708.182 309.144 707.728 308.255 707.142 307.532C706.536 306.819 705.804 306.282 704.944 305.921C704.095 305.55 703.128 305.364 702.044 305.364C700.97 305.364 700.003 305.55 699.144 305.921C698.294 306.282 697.571 306.819 696.976 307.532C696.38 308.255 695.921 309.144 695.599 310.198C695.286 311.243 695.13 312.449 695.13 313.816V318.87C695.13 320.237 695.286 321.448 695.599 322.503C695.921 323.548 696.385 324.427 696.99 325.14C697.586 325.853 698.313 326.395 699.173 326.766C700.032 327.127 700.999 327.308 702.073 327.308C703.157 327.308 704.124 327.127 704.974 326.766C705.833 326.395 706.556 325.853 707.142 325.14C707.737 324.427 708.191 323.548 708.504 322.503C708.826 321.448 708.987 320.237 708.987 318.87ZM698.646 317.625C698.646 317.342 698.646 317.103 698.646 316.907C698.646 316.712 698.646 316.429 698.646 316.058V313.187C698.646 312.308 698.724 311.546 698.88 310.901C699.036 310.247 699.275 309.715 699.598 309.305C699.871 308.943 700.213 308.67 700.623 308.484C701.033 308.299 701.507 308.206 702.044 308.206C702.552 308.206 703.001 308.284 703.392 308.44C703.782 308.597 704.114 308.831 704.388 309.144C704.7 309.495 704.939 309.949 705.105 310.506C705.281 311.062 705.389 311.722 705.428 312.483L698.646 317.625ZM705.457 319.456C705.457 320.354 705.379 321.136 705.223 321.8C705.066 322.464 704.822 323.001 704.49 323.411C704.207 323.763 703.865 324.031 703.465 324.217C703.064 324.393 702.601 324.48 702.073 324.48C701.536 324.48 701.062 324.388 700.652 324.202C700.252 324.017 699.915 323.738 699.642 323.367C699.368 323.025 699.148 322.596 698.982 322.078C698.826 321.561 698.724 320.965 698.675 320.291L705.457 315.179C705.457 315.462 705.457 315.735 705.457 315.999C705.457 316.253 705.457 316.507 705.457 316.761V319.456ZM721.043 326.546V323.587H717.601V326.678C717.601 327.645 717.483 328.514 717.249 329.285C717.024 330.057 716.702 330.789 716.282 331.482L718.245 332.522C719.085 331.771 719.759 330.848 720.267 329.754C720.784 328.67 721.043 327.601 721.043 326.546ZM745.022 318.87V313.816C745.022 312.449 744.861 311.243 744.539 310.198C744.217 309.144 743.763 308.255 743.177 307.532C742.571 306.819 741.839 306.282 740.979 305.921C740.13 305.55 739.163 305.364 738.079 305.364C737.005 305.364 736.038 305.55 735.179 305.921C734.329 306.282 733.606 306.819 733.011 307.532C732.415 308.255 731.956 309.144 731.634 310.198C731.321 311.243 731.165 312.449 731.165 313.816V318.87C731.165 320.237 731.321 321.448 731.634 322.503C731.956 323.548 732.42 324.427 733.025 325.14C733.621 325.853 734.349 326.395 735.208 326.766C736.067 327.127 737.034 327.308 738.108 327.308C739.192 327.308 740.159 327.127 741.009 326.766C741.868 326.395 742.591 325.853 743.177 325.14C743.772 324.427 744.227 323.548 744.539 322.503C744.861 321.448 745.022 320.237 745.022 318.87ZM734.681 317.625C734.681 317.342 734.681 317.103 734.681 316.907C734.681 316.712 734.681 316.429 734.681 316.058V313.187C734.681 312.308 734.759 311.546 734.915 310.901C735.071 310.247 735.311 309.715 735.633 309.305C735.906 308.943 736.248 308.67 736.658 308.484C737.068 308.299 737.542 308.206 738.079 308.206C738.587 308.206 739.036 308.284 739.427 308.44C739.817 308.597 740.149 308.831 740.423 309.144C740.735 309.495 740.975 309.949 741.141 310.506C741.316 311.062 741.424 311.722 741.463 312.483L734.681 317.625ZM741.492 319.456C741.492 320.354 741.414 321.136 741.258 321.8C741.102 322.464 740.857 323.001 740.525 323.411C740.242 323.763 739.9 324.031 739.5 324.217C739.1 324.393 738.636 324.48 738.108 324.48C737.571 324.48 737.098 324.388 736.688 324.202C736.287 324.017 735.95 323.738 735.677 323.367C735.403 323.025 735.184 322.596 735.018 322.078C734.861 321.561 734.759 320.965 734.71 320.291L741.492 315.179C741.492 315.462 741.492 315.735 741.492 315.999C741.492 316.253 741.492 316.507 741.492 316.761V319.456ZM759.803 318.577V318.328C759.803 316.932 759.69 315.638 759.466 314.446C759.241 313.245 758.948 312.127 758.587 311.092C758.226 310.047 757.801 309.1 757.312 308.25C756.824 307.391 756.302 306.619 755.745 305.936C755.208 305.271 754.651 304.705 754.075 304.236C753.509 303.758 752.962 303.392 752.435 303.138L751.746 305.101C752.049 305.335 752.356 305.628 752.669 305.979C752.991 306.321 753.299 306.712 753.592 307.151C754.012 307.767 754.412 308.494 754.793 309.334C755.184 310.174 755.516 311.121 755.789 312.176C755.994 312.986 756.165 313.904 756.302 314.93C756.438 315.955 756.507 317.078 756.507 318.299V318.606C756.507 319.788 756.443 320.887 756.316 321.902C756.199 322.918 756.033 323.855 755.818 324.715C755.594 325.643 755.315 326.487 754.983 327.249C754.661 328.021 754.314 328.709 753.943 329.314C753.592 329.861 753.23 330.345 752.859 330.765C752.488 331.185 752.117 331.531 751.746 331.805L752.435 333.768C752.962 333.514 753.509 333.152 754.075 332.684C754.642 332.215 755.198 331.639 755.745 330.955C756.292 330.291 756.81 329.529 757.298 328.67C757.786 327.811 758.216 326.858 758.587 325.813C758.958 324.778 759.251 323.655 759.466 322.444C759.69 321.233 759.803 319.944 759.803 318.577Z" fill="#FF7D7C"/>
<path d="M957.153 327H964.536C965.591 327 966.567 326.868 967.466 326.604C968.374 326.331 969.155 325.931 969.81 325.403C970.464 324.886 970.977 324.241 971.348 323.47C971.719 322.698 971.899 321.805 971.89 320.789C971.89 320.213 971.807 319.666 971.641 319.148C971.484 318.621 971.25 318.143 970.938 317.713C970.635 317.312 970.259 316.956 969.81 316.644C969.36 316.321 968.818 316.077 968.184 315.911V315.882C968.613 315.706 968.989 315.511 969.312 315.296C969.644 315.071 969.941 314.812 970.205 314.52C970.576 314.119 970.859 313.66 971.055 313.143C971.26 312.615 971.367 312.049 971.377 311.443C971.377 310.447 971.187 309.588 970.806 308.865C970.435 308.133 969.917 307.532 969.253 307.063C968.589 306.595 967.803 306.248 966.895 306.023C965.986 305.789 965.015 305.672 963.979 305.672H957.153V327ZM960.698 317.361H964.741C965.317 317.371 965.83 317.459 966.279 317.625C966.729 317.781 967.109 318.006 967.422 318.299C967.734 318.592 967.969 318.948 968.125 319.368C968.281 319.778 968.359 320.252 968.359 320.789C968.359 321.297 968.262 321.761 968.066 322.181C967.881 322.591 967.612 322.938 967.261 323.221C966.938 323.494 966.548 323.709 966.089 323.865C965.63 324.021 965.122 324.1 964.565 324.1H960.698V317.361ZM960.698 314.681V308.587H964.023C964.629 308.597 965.181 308.67 965.679 308.807C966.177 308.934 966.592 309.144 966.924 309.437C967.217 309.671 967.441 309.974 967.598 310.345C967.764 310.706 967.847 311.136 967.847 311.634C967.847 312.103 967.759 312.518 967.583 312.879C967.407 313.24 967.168 313.548 966.865 313.802C966.533 314.085 966.123 314.3 965.635 314.446C965.156 314.593 964.629 314.671 964.053 314.681H960.698ZM978.145 318.328V318.577C978.145 319.974 978.252 321.282 978.467 322.503C978.682 323.714 978.97 324.837 979.331 325.872C979.692 326.917 980.112 327.864 980.591 328.714C981.079 329.573 981.592 330.335 982.129 330.999C982.666 331.663 983.213 332.225 983.77 332.684C984.326 333.152 984.863 333.514 985.381 333.768L986.084 331.805C985.693 331.502 985.303 331.126 984.912 330.677C984.521 330.228 984.146 329.71 983.784 329.124C983.433 328.548 983.105 327.884 982.803 327.132C982.5 326.38 982.231 325.564 981.997 324.686C981.812 323.953 981.65 323.064 981.514 322.02C981.377 320.965 981.309 319.827 981.309 318.606V318.299C981.309 317.049 981.377 315.887 981.514 314.812C981.66 313.738 981.855 312.757 982.1 311.868C982.363 310.921 982.676 310.047 983.037 309.246C983.408 308.445 983.804 307.747 984.224 307.151C984.526 306.731 984.834 306.355 985.146 306.023C985.459 305.691 985.771 305.408 986.084 305.174L985.381 303.138C984.863 303.392 984.326 303.753 983.77 304.222C983.213 304.681 982.671 305.242 982.144 305.906C981.606 306.57 981.094 307.332 980.605 308.191C980.127 309.051 979.702 309.993 979.331 311.019C978.97 312.063 978.682 313.201 978.467 314.432C978.252 315.652 978.145 316.951 978.145 318.328ZM1006.88 327V324.173H996.953L1001.7 319.104C1002.32 318.44 1002.9 317.796 1003.43 317.171C1003.96 316.546 1004.43 315.926 1004.82 315.311C1005.2 314.695 1005.5 314.075 1005.71 313.45C1005.94 312.815 1006.05 312.161 1006.05 311.487C1006.05 310.589 1005.9 309.769 1005.61 309.026C1005.32 308.274 1004.89 307.63 1004.34 307.093C1003.77 306.556 1003.07 306.136 1002.24 305.833C1001.42 305.53 1000.49 305.379 999.443 305.379C998.33 305.379 997.319 305.56 996.411 305.921C995.513 306.282 994.751 306.771 994.126 307.386C993.491 308.001 993.003 308.724 992.661 309.554C992.319 310.374 992.148 311.248 992.148 312.176H995.664C995.664 311.561 995.742 311.014 995.898 310.535C996.055 310.047 996.289 309.637 996.602 309.305C996.904 308.973 997.285 308.719 997.744 308.543C998.203 308.367 998.745 308.279 999.37 308.279C999.858 308.279 1000.3 308.362 1000.69 308.528C1001.09 308.694 1001.43 308.924 1001.71 309.217C1002 309.51 1002.21 309.861 1002.36 310.271C1002.5 310.682 1002.58 311.136 1002.58 311.634C1002.58 312.005 1002.52 312.376 1002.42 312.747C1002.32 313.108 1002.15 313.499 1001.92 313.919C1001.67 314.339 1001.36 314.803 1000.97 315.311C1000.58 315.809 1000.09 316.375 999.517 317.01L992.573 324.568V327H1006.88ZM1019.04 326.546V323.587H1015.6V326.678C1015.6 327.645 1015.48 328.514 1015.25 329.285C1015.02 330.057 1014.7 330.789 1014.28 331.482L1016.25 332.522C1017.08 331.771 1017.76 330.848 1018.27 329.754C1018.78 328.67 1019.04 327.601 1019.04 326.546ZM1043.02 318.87V313.816C1043.02 312.449 1042.86 311.243 1042.54 310.198C1042.22 309.144 1041.76 308.255 1041.18 307.532C1040.57 306.819 1039.84 306.282 1038.98 305.921C1038.13 305.55 1037.16 305.364 1036.08 305.364C1035 305.364 1034.04 305.55 1033.18 305.921C1032.33 306.282 1031.61 306.819 1031.01 307.532C1030.42 308.255 1029.96 309.144 1029.63 310.198C1029.32 311.243 1029.17 312.449 1029.17 313.816V318.87C1029.17 320.237 1029.32 321.448 1029.63 322.503C1029.96 323.548 1030.42 324.427 1031.03 325.14C1031.62 325.853 1032.35 326.395 1033.21 326.766C1034.07 327.127 1035.03 327.308 1036.11 327.308C1037.19 327.308 1038.16 327.127 1039.01 326.766C1039.87 326.395 1040.59 325.853 1041.18 325.14C1041.77 324.427 1042.23 323.548 1042.54 322.503C1042.86 321.448 1043.02 320.237 1043.02 318.87ZM1032.68 317.625C1032.68 317.342 1032.68 317.103 1032.68 316.907C1032.68 316.712 1032.68 316.429 1032.68 316.058V313.187C1032.68 312.308 1032.76 311.546 1032.92 310.901C1033.07 310.247 1033.31 309.715 1033.63 309.305C1033.91 308.943 1034.25 308.67 1034.66 308.484C1035.07 308.299 1035.54 308.206 1036.08 308.206C1036.59 308.206 1037.04 308.284 1037.43 308.44C1037.82 308.597 1038.15 308.831 1038.42 309.144C1038.74 309.495 1038.97 309.949 1039.14 310.506C1039.32 311.062 1039.42 311.722 1039.46 312.483L1032.68 317.625ZM1039.49 319.456C1039.49 320.354 1039.41 321.136 1039.26 321.8C1039.1 322.464 1038.86 323.001 1038.53 323.411C1038.24 323.763 1037.9 324.031 1037.5 324.217C1037.1 324.393 1036.64 324.48 1036.11 324.48C1035.57 324.48 1035.1 324.388 1034.69 324.202C1034.29 324.017 1033.95 323.738 1033.68 323.367C1033.4 323.025 1033.18 322.596 1033.02 322.078C1032.86 321.561 1032.76 320.965 1032.71 320.291L1039.49 315.179C1039.49 315.462 1039.49 315.735 1039.49 315.999C1039.49 316.253 1039.49 316.507 1039.49 316.761V319.456ZM1057.8 318.577V318.328C1057.8 316.932 1057.69 315.638 1057.47 314.446C1057.24 313.245 1056.95 312.127 1056.59 311.092C1056.23 310.047 1055.8 309.1 1055.31 308.25C1054.82 307.391 1054.3 306.619 1053.75 305.936C1053.21 305.271 1052.65 304.705 1052.08 304.236C1051.51 303.758 1050.96 303.392 1050.43 303.138L1049.75 305.101C1050.05 305.335 1050.36 305.628 1050.67 305.979C1050.99 306.321 1051.3 306.712 1051.59 307.151C1052.01 307.767 1052.41 308.494 1052.79 309.334C1053.18 310.174 1053.52 311.121 1053.79 312.176C1053.99 312.986 1054.17 313.904 1054.3 314.93C1054.44 315.955 1054.51 317.078 1054.51 318.299V318.606C1054.51 319.788 1054.44 320.887 1054.32 321.902C1054.2 322.918 1054.03 323.855 1053.82 324.715C1053.59 325.643 1053.32 326.487 1052.98 327.249C1052.66 328.021 1052.31 328.709 1051.94 329.314C1051.59 329.861 1051.23 330.345 1050.86 330.765C1050.49 331.185 1050.12 331.531 1049.75 331.805L1050.43 333.768C1050.96 333.514 1051.51 333.152 1052.08 332.684C1052.64 332.215 1053.2 331.639 1053.75 330.955C1054.29 330.291 1054.81 329.529 1055.3 328.67C1055.79 327.811 1056.22 326.858 1056.59 325.813C1056.96 324.778 1057.25 323.655 1057.47 322.444C1057.69 321.233 1057.8 319.944 1057.8 318.577Z" fill="#FF7D7C"/>
<path d="M822.582 75.4375H819.052C818.993 76.082 818.866 76.6533 818.671 77.1514C818.476 77.6494 818.217 78.0645 817.895 78.3965C817.562 78.7383 817.162 78.9971 816.693 79.1729C816.225 79.3486 815.688 79.4365 815.082 79.4365C814.574 79.4365 814.12 79.3682 813.72 79.2314C813.329 79.085 812.982 78.875 812.68 78.6016C812.387 78.3477 812.133 78.0449 811.918 77.6934C811.713 77.3418 811.542 76.9512 811.405 76.5215C811.229 76.0039 811.098 75.4326 811.01 74.8076C810.932 74.1826 810.893 73.5137 810.893 72.8008V69.8564C810.893 69.2803 810.922 68.7188 810.98 68.1719C811.049 67.6152 811.146 67.0928 811.273 66.6045C811.439 66.0479 811.649 65.5449 811.903 65.0957C812.167 64.6367 812.489 64.2607 812.87 63.9678C813.163 63.7432 813.49 63.5674 813.852 63.4404C814.223 63.3135 814.638 63.25 815.097 63.25C815.751 63.25 816.312 63.3477 816.781 63.543C817.25 63.7285 817.646 64.002 817.968 64.3633C818.28 64.7246 818.524 65.1641 818.7 65.6816C818.886 66.1895 819.008 66.7607 819.066 67.3955H822.582C822.475 66.3311 822.235 65.3643 821.864 64.4951C821.503 63.626 821.005 62.8838 820.37 62.2686C819.745 61.6631 818.988 61.1943 818.1 60.8623C817.221 60.5303 816.22 60.3643 815.097 60.3643C814.267 60.3643 813.5 60.4766 812.797 60.7012C812.104 60.9258 811.469 61.2383 810.893 61.6387C810.287 62.0781 809.75 62.6104 809.281 63.2354C808.822 63.8506 808.446 64.5391 808.153 65.3008C807.88 65.9844 807.675 66.7119 807.538 67.4834C807.401 68.2549 807.333 69.0557 807.333 69.8857V72.8008C807.333 73.6699 807.406 74.5049 807.553 75.3057C807.699 76.1064 807.909 76.8486 808.183 77.5322C808.466 78.2256 808.812 78.8652 809.223 79.4512C809.643 80.0273 810.131 80.5205 810.688 80.9307C811.264 81.3701 811.918 81.7119 812.65 81.9561C813.393 82.1904 814.203 82.3076 815.082 82.3076C816.156 82.3076 817.133 82.1465 818.012 81.8242C818.9 81.4922 819.667 81.0234 820.312 80.418C820.946 79.8223 821.459 79.1045 821.85 78.2646C822.24 77.415 822.484 76.4727 822.582 75.4375ZM829.145 73.3281V73.5771C829.145 74.9736 829.252 76.2822 829.467 77.5029C829.682 78.7139 829.97 79.8369 830.331 80.8721C830.692 81.917 831.112 82.8643 831.591 83.7139C832.079 84.5732 832.592 85.335 833.129 85.999C833.666 86.6631 834.213 87.2246 834.77 87.6836C835.326 88.1523 835.863 88.5137 836.381 88.7676L837.084 86.8047C836.693 86.502 836.303 86.126 835.912 85.6768C835.521 85.2275 835.146 84.71 834.784 84.124C834.433 83.5479 834.105 82.8838 833.803 82.1318C833.5 81.3799 833.231 80.5645 832.997 79.6855C832.812 78.9531 832.65 78.0645 832.514 77.0195C832.377 75.9648 832.309 74.8271 832.309 73.6064V73.2988C832.309 72.0488 832.377 70.8867 832.514 69.8125C832.66 68.7383 832.855 67.7568 833.1 66.8682C833.363 65.9209 833.676 65.0469 834.037 64.2461C834.408 63.4453 834.804 62.7471 835.224 62.1514C835.526 61.7314 835.834 61.3555 836.146 61.0234C836.459 60.6914 836.771 60.4082 837.084 60.1738L836.381 58.1377C835.863 58.3916 835.326 58.7529 834.77 59.2217C834.213 59.6807 833.671 60.2422 833.144 60.9062C832.606 61.5703 832.094 62.332 831.605 63.1914C831.127 64.0508 830.702 64.9932 830.331 66.0186C829.97 67.0635 829.682 68.2012 829.467 69.4316C829.252 70.6523 829.145 71.9512 829.145 73.3281ZM853.783 82V60.6719H853.563L844.789 63.9238V67.0146L850.253 65.0078V82H853.783ZM870.043 81.5459V78.5869H866.601V81.6777C866.601 82.6445 866.483 83.5137 866.249 84.2852C866.024 85.0566 865.702 85.7891 865.282 86.4824L867.245 87.5225C868.085 86.7705 868.759 85.8477 869.267 84.7539C869.784 83.6699 870.043 82.6006 870.043 81.5459ZM889.818 82V60.6719H889.599L880.824 63.9238V67.0146L886.288 65.0078V82H889.818ZM902.724 79.8906C902.724 80.5645 902.943 81.1357 903.383 81.6045C903.832 82.0635 904.457 82.293 905.258 82.293C906.049 82.293 906.669 82.0635 907.118 81.6045C907.577 81.1455 907.807 80.5742 907.807 79.8906C907.807 79.207 907.582 78.6309 907.133 78.1621C906.684 77.6836 906.059 77.4443 905.258 77.4443C904.447 77.4443 903.822 77.6836 903.383 78.1621C902.943 78.6406 902.724 79.2168 902.724 79.8906ZM925.854 82V60.6719H925.634L916.859 63.9238V67.0146L922.323 65.0078V82H925.854ZM944.838 73.5771V73.3281C944.838 71.9316 944.726 70.6377 944.501 69.4463C944.276 68.2451 943.983 67.127 943.622 66.0918C943.261 65.0469 942.836 64.0996 942.348 63.25C941.859 62.3906 941.337 61.6191 940.78 60.9355C940.243 60.2715 939.687 59.7051 939.11 59.2363C938.544 58.7578 937.997 58.3916 937.47 58.1377L936.781 60.1006C937.084 60.335 937.392 60.6279 937.704 60.9795C938.026 61.3213 938.334 61.7119 938.627 62.1514C939.047 62.7666 939.447 63.4941 939.828 64.334C940.219 65.1738 940.551 66.1211 940.824 67.1758C941.029 67.9863 941.2 68.9043 941.337 69.9297C941.474 70.9551 941.542 72.0781 941.542 73.2988V73.6064C941.542 74.7881 941.479 75.8867 941.352 76.9023C941.234 77.918 941.068 78.8555 940.854 79.7148C940.629 80.6426 940.351 81.4873 940.019 82.249C939.696 83.0205 939.35 83.709 938.979 84.3145C938.627 84.8613 938.266 85.3447 937.895 85.7646C937.523 86.1846 937.152 86.5312 936.781 86.8047L937.47 88.7676C937.997 88.5137 938.544 88.1523 939.11 87.6836C939.677 87.2148 940.233 86.6387 940.78 85.9551C941.327 85.291 941.845 84.5293 942.333 83.6699C942.821 82.8105 943.251 81.8584 943.622 80.8135C943.993 79.7783 944.286 78.6553 944.501 77.4443C944.726 76.2334 944.838 74.9443 944.838 73.5771Z" fill="#FF7D7C"/>
<line x1="861" y1="268" x2="861" y2="283" stroke="#C9BEC6" stroke-width="2"/>
<path d="M862.07 308V290.938H861.895L855.438 293.422V295.402L859.902 293.703V308H862.07Z" fill="#C9BEC6"/>
<path d="M286.898 29.125H282.662C282.592 29.8984 282.439 30.584 282.205 31.1816C281.971 31.7793 281.66 32.2773 281.273 32.6758C280.875 33.0859 280.395 33.3965 279.832 33.6074C279.27 33.8184 278.625 33.9238 277.898 33.9238C277.289 33.9238 276.744 33.8418 276.264 33.6777C275.795 33.502 275.379 33.25 275.016 32.9219C274.664 32.6172 274.359 32.2539 274.102 31.832C273.855 31.4102 273.65 30.9414 273.486 30.4258C273.275 29.8047 273.117 29.1191 273.012 28.3691C272.918 27.6191 272.871 26.8164 272.871 25.9609V22.4277C272.871 21.7363 272.906 21.0625 272.977 20.4062C273.059 19.7383 273.176 19.1113 273.328 18.5254C273.527 17.8574 273.779 17.2539 274.084 16.7148C274.4 16.1641 274.787 15.7129 275.244 15.3613C275.596 15.0918 275.988 14.8809 276.422 14.7285C276.867 14.5762 277.365 14.5 277.916 14.5C278.701 14.5 279.375 14.6172 279.938 14.8516C280.5 15.0742 280.975 15.4023 281.361 15.8359C281.736 16.2695 282.029 16.7969 282.24 17.418C282.463 18.0273 282.609 18.7129 282.68 19.4746H286.898C286.77 18.1973 286.482 17.0371 286.037 15.9941C285.604 14.9512 285.006 14.0605 284.244 13.3223C283.494 12.5957 282.586 12.0332 281.52 11.6348C280.465 11.2363 279.264 11.0371 277.916 11.0371C276.92 11.0371 276 11.1719 275.156 11.4414C274.324 11.7109 273.562 12.0859 272.871 12.5664C272.145 13.0938 271.5 13.7324 270.938 14.4824C270.387 15.2207 269.936 16.0469 269.584 16.9609C269.256 17.7812 269.01 18.6543 268.846 19.5801C268.682 20.5059 268.6 21.4668 268.6 22.4629V25.9609C268.6 27.0039 268.688 28.0059 268.863 28.9668C269.039 29.9277 269.291 30.8184 269.619 31.6387C269.959 32.4707 270.375 33.2383 270.867 33.9414C271.371 34.6328 271.957 35.2246 272.625 35.7168C273.316 36.2441 274.102 36.6543 274.98 36.9473C275.871 37.2285 276.844 37.3691 277.898 37.3691C279.188 37.3691 280.359 37.1758 281.414 36.7891C282.48 36.3906 283.4 35.8281 284.174 35.1016C284.936 34.3867 285.551 33.5254 286.02 32.5176C286.488 31.498 286.781 30.3672 286.898 29.125Z" fill="#FF7D7C"/>
<path d="M138.047 318.111L139.77 324H144.146L135.955 298.406H132.211L123.879 324H128.273L130.014 318.111H138.047ZM131.086 314.49L134.074 304.365L137.01 314.49H131.086Z" fill="#FF7D7C"/>
<path d="M281.871 324H286.16V323.701C285.926 323.209 285.744 322.623 285.615 321.943C285.498 321.252 285.439 320.479 285.439 319.623V311.168C285.439 310.09 285.24 309.141 284.842 308.32C284.443 307.488 283.893 306.803 283.189 306.264C282.486 305.725 281.648 305.32 280.676 305.051C279.715 304.77 278.678 304.629 277.564 304.629C276.322 304.629 275.215 304.793 274.242 305.121C273.281 305.438 272.467 305.871 271.799 306.422C271.131 306.961 270.621 307.582 270.27 308.285C269.918 308.988 269.736 309.721 269.725 310.482H273.943C273.943 310.119 274.008 309.779 274.137 309.463C274.277 309.135 274.488 308.859 274.77 308.637C275.051 308.391 275.402 308.197 275.824 308.057C276.258 307.916 276.762 307.846 277.336 307.846C277.969 307.846 278.525 307.928 279.006 308.092C279.498 308.244 279.914 308.467 280.254 308.76C280.57 309.053 280.811 309.398 280.975 309.797C281.15 310.195 281.238 310.641 281.238 311.133V312.416H278.18C276.809 312.416 275.578 312.545 274.488 312.803C273.41 313.061 272.502 313.436 271.764 313.928C270.967 314.455 270.357 315.123 269.936 315.932C269.525 316.729 269.32 317.648 269.32 318.691C269.32 319.5 269.479 320.256 269.795 320.959C270.123 321.65 270.574 322.242 271.148 322.734C271.734 323.238 272.432 323.637 273.24 323.93C274.061 324.211 274.963 324.352 275.947 324.352C276.557 324.352 277.125 324.293 277.652 324.176C278.18 324.059 278.672 323.895 279.129 323.684C279.586 323.484 279.996 323.25 280.359 322.98C280.734 322.699 281.068 322.406 281.361 322.102C281.42 322.465 281.484 322.816 281.555 323.156C281.637 323.484 281.742 323.766 281.871 324ZM276.756 320.977C276.217 320.977 275.748 320.912 275.35 320.783C274.951 320.643 274.617 320.455 274.348 320.221C274.078 319.986 273.873 319.705 273.732 319.377C273.592 319.037 273.521 318.674 273.521 318.287C273.521 317.818 273.604 317.396 273.768 317.021C273.943 316.646 274.207 316.324 274.559 316.055C274.957 315.738 275.49 315.498 276.158 315.334C276.826 315.158 277.617 315.07 278.531 315.07H281.238V318.586C281.086 318.891 280.869 319.184 280.588 319.465C280.307 319.746 279.973 319.998 279.586 320.221C279.199 320.443 278.766 320.625 278.285 320.766C277.816 320.906 277.307 320.977 276.756 320.977Z" fill="#C9BEC6"/>
<path d="M387.441 162.684V162.314C387.441 161.236 387.342 160.217 387.143 159.256C386.955 158.295 386.674 157.422 386.299 156.637C386.018 156.074 385.689 155.559 385.314 155.09C384.951 154.609 384.535 154.205 384.066 153.877C383.516 153.479 382.895 153.174 382.203 152.963C381.523 152.74 380.773 152.629 379.953 152.629C379.332 152.629 378.752 152.693 378.213 152.822C377.686 152.939 377.199 153.121 376.754 153.367C376.414 153.555 376.098 153.771 375.805 154.018C375.512 154.264 375.242 154.539 374.996 154.844V145H370.795V172H374.592L374.785 169.926C374.996 170.184 375.213 170.424 375.436 170.646C375.67 170.857 375.916 171.057 376.174 171.244C376.678 171.607 377.246 171.883 377.879 172.07C378.512 172.258 379.215 172.352 379.988 172.352C380.75 172.352 381.453 172.252 382.098 172.053C382.754 171.865 383.346 171.596 383.873 171.244C384.529 170.811 385.092 170.266 385.561 169.609C386.029 168.953 386.404 168.221 386.686 167.412C386.932 166.732 387.119 165.994 387.248 165.197C387.377 164.4 387.441 163.562 387.441 162.684ZM383.24 162.314V162.684C383.24 163.211 383.211 163.721 383.152 164.213C383.094 164.705 383.006 165.162 382.889 165.584C382.748 166.146 382.543 166.656 382.273 167.113C382.016 167.559 381.682 167.928 381.271 168.221C380.967 168.432 380.621 168.602 380.234 168.73C379.848 168.848 379.414 168.906 378.934 168.906C378.406 168.906 377.926 168.842 377.492 168.713C377.07 168.572 376.695 168.385 376.367 168.15C376.074 167.928 375.811 167.676 375.576 167.395C375.354 167.102 375.16 166.779 374.996 166.428V158.553C375.137 158.248 375.301 157.967 375.488 157.709C375.688 157.439 375.91 157.205 376.156 157.006C376.496 156.713 376.895 156.49 377.352 156.338C377.809 156.174 378.324 156.092 378.898 156.092C379.367 156.092 379.789 156.145 380.164 156.25C380.539 156.355 380.873 156.514 381.166 156.725C381.611 157.029 381.963 157.404 382.221 157.85C382.49 158.283 382.707 158.77 382.871 159.309C382.988 159.754 383.076 160.234 383.135 160.75C383.205 161.254 383.24 161.775 383.24 162.314Z" fill="#C9BEC6"/>
<path d="M174.004 167.977C173.125 167.977 172.393 167.801 171.807 167.449C171.221 167.098 170.758 166.635 170.418 166.061C170.066 165.486 169.814 164.83 169.662 164.092C169.521 163.342 169.451 162.58 169.451 161.807V161.191C169.451 160.43 169.521 159.68 169.662 158.941C169.814 158.203 170.066 157.547 170.418 156.973C170.77 156.398 171.232 155.936 171.807 155.584C172.393 155.221 173.125 155.039 174.004 155.039C174.578 155.039 175.111 155.139 175.604 155.338C176.107 155.537 176.541 155.807 176.904 156.146C177.256 156.486 177.525 156.885 177.713 157.342C177.912 157.799 178.012 158.285 178.012 158.801H181.967C181.979 157.746 181.785 156.779 181.387 155.9C181 155.021 180.455 154.266 179.752 153.633C179.049 153 178.205 152.508 177.221 152.156C176.248 151.805 175.188 151.629 174.039 151.629C172.586 151.629 171.309 151.887 170.207 152.402C169.117 152.906 168.203 153.592 167.465 154.459C166.727 155.326 166.17 156.34 165.795 157.5C165.432 158.66 165.25 159.891 165.25 161.191V161.807C165.25 163.119 165.438 164.355 165.812 165.516C166.188 166.664 166.738 167.672 167.465 168.539C168.203 169.406 169.117 170.098 170.207 170.613C171.309 171.117 172.592 171.369 174.057 171.369C175.111 171.369 176.113 171.199 177.062 170.859C178.023 170.508 178.873 170.033 179.611 169.436C180.338 168.838 180.912 168.135 181.334 167.326C181.768 166.506 181.979 165.633 181.967 164.707H178.012C178.012 165.188 177.9 165.627 177.678 166.025C177.467 166.424 177.18 166.77 176.816 167.062C176.441 167.355 176.008 167.584 175.516 167.748C175.035 167.9 174.531 167.977 174.004 167.977Z" fill="#C9BEC6"/>
<path d="M416.584 324H425.443C426.709 324 427.881 323.842 428.959 323.525C430.049 323.197 430.986 322.717 431.771 322.084C432.557 321.463 433.172 320.689 433.617 319.764C434.062 318.838 434.279 317.766 434.268 316.547C434.268 315.855 434.168 315.199 433.969 314.578C433.781 313.945 433.5 313.371 433.125 312.855C432.762 312.375 432.311 311.947 431.771 311.572C431.232 311.186 430.582 310.893 429.82 310.693V310.658C430.336 310.447 430.787 310.213 431.174 309.955C431.572 309.686 431.93 309.375 432.246 309.023C432.691 308.543 433.031 307.992 433.266 307.371C433.512 306.738 433.641 306.059 433.652 305.332C433.652 304.137 433.424 303.105 432.967 302.238C432.521 301.359 431.9 300.639 431.104 300.076C430.307 299.514 429.363 299.098 428.273 298.828C427.184 298.547 426.018 298.406 424.775 298.406H416.584V324ZM420.838 312.434H425.689C426.381 312.445 426.996 312.551 427.535 312.75C428.074 312.938 428.531 313.207 428.906 313.559C429.281 313.91 429.562 314.338 429.75 314.842C429.938 315.334 430.031 315.902 430.031 316.547C430.031 317.156 429.914 317.713 429.68 318.217C429.457 318.709 429.135 319.125 428.713 319.465C428.326 319.793 427.857 320.051 427.307 320.238C426.756 320.426 426.146 320.52 425.479 320.52H420.838V312.434ZM420.838 309.217V301.904H424.828C425.555 301.916 426.217 302.004 426.814 302.168C427.412 302.32 427.91 302.572 428.309 302.924C428.66 303.205 428.93 303.568 429.117 304.014C429.316 304.447 429.416 304.963 429.416 305.561C429.416 306.123 429.311 306.621 429.1 307.055C428.889 307.488 428.602 307.857 428.238 308.162C427.84 308.502 427.348 308.76 426.762 308.936C426.188 309.111 425.555 309.205 424.863 309.217H420.838Z" fill="#FF7D7C"/>
<path d="M157.024 275L280 62L402.976 275H157.024Z" stroke="#C9BEC6" stroke-width="4"/>
<path d="M186 226.5C194.333 232.667 211.3 250.9 212.5 274.5" stroke="#C9BEC6" stroke-width="3"/>
<line x1="704" y1="123" x2="718" y2="123" stroke="#C9BEC6" stroke-width="2"/>
<path d="M695.07 132V114.938H694.895L688.438 117.422V119.402L692.902 117.703V132H695.07Z" fill="#C9BEC6"/>
<path d="M711 275L860 109.5" stroke="#5A4867" stroke-width="4"/>
<path d="M711 275L1009 274.5" stroke="#5A4867" stroke-width="4"/>
<path d="M860 109L1009 275" stroke="#5A4867" stroke-width="4"/>
<path d="M859.916 107.029L854.889 99.9805H851.127L858.211 109.385L850.934 119H854.73L859.986 111.758L865.242 119H869.004L861.727 109.385L868.811 99.9805H864.996L859.916 107.029Z" fill="#FF7D7C"/>
<path d="M710.916 273.029L705.889 265.98H702.127L709.211 275.385L701.934 285H705.73L710.986 277.758L716.242 285H720.004L712.727 275.385L719.811 265.98H715.996L710.916 273.029Z" fill="#FF7D7C"/>
<path d="M1008.92 273.029L1003.89 265.98H1000.13L1007.21 275.385L999.934 285H1003.73L1008.99 277.758L1014.24 285H1018L1010.73 275.385L1017.81 265.98H1014L1008.92 273.029Z" fill="#FF7D7C"/>
<path d="M185.284 263.159C185.623 263.159 185.978 263.083 186.351 262.931C186.723 262.778 187.1 262.546 187.48 262.232C187.87 261.919 188.251 261.526 188.623 261.052C189.004 260.578 189.368 260.019 189.715 259.376C189.546 258.53 189.368 257.806 189.182 257.205C188.995 256.604 188.797 256.101 188.585 255.694C188.382 255.28 188.17 254.95 187.95 254.704C187.73 254.459 187.51 254.272 187.29 254.146C187.07 254.01 186.85 253.925 186.63 253.892C186.41 253.849 186.194 253.828 185.982 253.828C185.525 253.828 185.094 253.955 184.688 254.209C184.29 254.463 183.938 254.823 183.634 255.288C183.338 255.745 183.105 256.295 182.936 256.938C182.766 257.573 182.682 258.271 182.682 259.033C182.682 259.617 182.737 260.163 182.847 260.671C182.965 261.17 183.134 261.606 183.354 261.979C183.583 262.342 183.858 262.63 184.18 262.842C184.501 263.053 184.869 263.159 185.284 263.159ZM180.333 259.414C180.333 258.745 180.392 258.094 180.511 257.459C180.629 256.816 180.803 256.211 181.031 255.644C181.26 255.076 181.543 254.56 181.882 254.095C182.22 253.621 182.605 253.215 183.037 252.876C183.469 252.529 183.947 252.262 184.472 252.076C184.996 251.89 185.563 251.797 186.173 251.797C186.731 251.797 187.248 251.873 187.722 252.025C188.196 252.178 188.627 252.432 189.017 252.787C189.414 253.143 189.77 253.621 190.083 254.222C190.405 254.814 190.684 255.559 190.921 256.456C191.124 255.813 191.306 255.127 191.467 254.399C191.636 253.672 191.78 252.889 191.898 252.051H193.993C193.621 253.583 193.231 254.971 192.825 256.215C192.419 257.451 191.987 258.559 191.53 259.541C191.666 260.269 191.81 260.866 191.962 261.331C192.114 261.797 192.288 262.165 192.482 262.436C192.686 262.706 192.91 262.897 193.155 263.007C193.409 263.108 193.705 263.159 194.044 263.159V265.19C193.562 265.19 193.13 265.157 192.749 265.089C192.377 265.03 192.042 264.886 191.746 264.657C191.45 264.429 191.183 264.094 190.946 263.654C190.709 263.214 190.485 262.622 190.273 261.877C189.503 263.053 188.695 263.921 187.849 264.479C187.002 265.038 186.105 265.317 185.157 265.317C184.506 265.317 183.888 265.203 183.304 264.975C182.72 264.746 182.208 264.395 181.768 263.921C181.327 263.438 180.976 262.825 180.714 262.08C180.46 261.335 180.333 260.447 180.333 259.414Z" fill="#3E2D4A"/>
</svg>
