<svg width="2292" height="787" viewBox="0 0 2292 787" fill="none" xmlns="http://www.w3.org/2000/svg">
<path d="M491.193 172.875L493.185 180H500.123L489.154 145.875H483.177L471.998 180H478.935L480.951 172.875H491.193ZM482.568 167.273L486.154 154.711L489.646 167.273H482.568ZM505.394 180H511.933V161.977C512.152 161.633 512.394 161.32 512.66 161.039C512.926 160.758 513.222 160.516 513.551 160.312C513.957 160.031 514.418 159.82 514.933 159.68C515.465 159.539 516.043 159.469 516.668 159.469C517.418 159.469 518.09 159.547 518.683 159.703C519.277 159.844 519.785 160.102 520.207 160.477C520.629 160.852 520.949 161.367 521.168 162.023C521.402 162.664 521.519 163.484 521.519 164.484V180H528.035V164.391C528.035 162.547 527.816 160.984 527.379 159.703C526.957 158.406 526.363 157.344 525.597 156.516C524.816 155.703 523.894 155.109 522.832 154.734C521.769 154.359 520.597 154.172 519.316 154.172C518.316 154.172 517.371 154.312 516.48 154.594C515.59 154.875 514.769 155.281 514.019 155.812C513.582 156.125 513.168 156.477 512.777 156.867C512.387 157.258 512.027 157.688 511.699 158.156L511.301 154.641H505.394V180ZM535.463 167.133V167.625C535.463 169.469 535.689 171.18 536.142 172.758C536.596 174.32 537.252 175.672 538.111 176.812C538.955 177.953 539.986 178.852 541.205 179.508C542.439 180.148 543.83 180.469 545.377 180.469C546.799 180.469 548.049 180.195 549.127 179.648C550.205 179.102 551.142 178.336 551.939 177.352L552.267 180H558.15V144H551.611V156.914C550.83 156.039 549.932 155.367 548.916 154.898C547.916 154.414 546.752 154.172 545.424 154.172C543.846 154.172 542.439 154.484 541.205 155.109C539.986 155.734 538.947 156.617 538.088 157.758C537.228 158.898 536.572 160.266 536.119 161.859C535.682 163.453 535.463 165.211 535.463 167.133ZM541.978 167.625V167.133C541.978 166.07 542.072 165.078 542.26 164.156C542.447 163.219 542.744 162.398 543.15 161.695C543.557 161.008 544.08 160.469 544.721 160.078C545.377 159.672 546.166 159.469 547.088 159.469C548.197 159.469 549.119 159.711 549.853 160.195C550.588 160.664 551.174 161.328 551.611 162.188V172.453C551.174 173.297 550.58 173.961 549.83 174.445C549.096 174.93 548.166 175.172 547.041 175.172C546.119 175.172 545.338 174.977 544.697 174.586C544.057 174.195 543.533 173.656 543.127 172.969C542.721 172.297 542.424 171.508 542.236 170.602C542.064 169.68 541.978 168.688 541.978 167.625ZM585.102 154.172C583.398 154.172 581.828 154.586 580.391 155.414C578.953 156.227 577.719 157.352 576.688 158.789L576.641 158.227L576.383 154.641H570.312V180H576.828V164.766C577.125 164.047 577.5 163.422 577.953 162.891C578.406 162.359 578.953 161.922 579.594 161.578C580.125 161.281 580.727 161.062 581.398 160.922C582.086 160.766 582.852 160.688 583.695 160.688C584.508 160.688 585.359 160.742 586.25 160.852C587.156 160.945 588.039 161.094 588.898 161.297L589.859 154.805C589.344 154.648 588.664 154.508 587.82 154.383C586.992 154.242 586.086 154.172 585.102 154.172ZM596.748 167.086V167.578C596.748 169.438 597.014 171.156 597.545 172.734C598.076 174.297 598.857 175.656 599.889 176.812C600.904 177.969 602.154 178.875 603.639 179.531C605.139 180.172 606.842 180.492 608.748 180.492C610.639 180.492 612.326 180.172 613.811 179.531C615.295 178.875 616.545 177.969 617.561 176.812C618.576 175.656 619.35 174.297 619.881 172.734C620.412 171.156 620.678 169.438 620.678 167.578V167.086C620.678 165.242 620.412 163.539 619.881 161.977C619.35 160.398 618.576 159.031 617.561 157.875C616.529 156.719 615.272 155.812 613.787 155.156C612.303 154.5 610.607 154.172 608.701 154.172C606.795 154.172 605.1 154.5 603.615 155.156C602.147 155.812 600.904 156.719 599.889 157.875C598.857 159.031 598.076 160.398 597.545 161.977C597.014 163.539 596.748 165.242 596.748 167.086ZM603.264 167.578V167.086C603.264 166.055 603.365 165.078 603.568 164.156C603.772 163.234 604.092 162.422 604.529 161.719C604.967 161.016 605.529 160.461 606.217 160.055C606.904 159.648 607.732 159.445 608.701 159.445C609.686 159.445 610.522 159.648 611.209 160.055C611.897 160.461 612.459 161.016 612.897 161.719C613.318 162.422 613.631 163.234 613.834 164.156C614.037 165.078 614.139 166.055 614.139 167.086V167.578C614.139 168.641 614.037 169.641 613.834 170.578C613.631 171.5 613.318 172.305 612.897 172.992C612.459 173.695 611.897 174.25 611.209 174.656C610.522 175.062 609.701 175.266 608.748 175.266C607.764 175.266 606.92 175.062 606.217 174.656C605.529 174.25 604.967 173.695 604.529 172.992C604.092 172.305 603.772 171.5 603.568 170.578C603.365 169.641 603.264 168.641 603.264 167.578ZM630.121 154.641V159.961H637.34V174.703H630.121V180H650.793V174.703H643.926V154.641H630.121ZM636.871 148.148C636.871 148.648 636.957 149.117 637.129 149.555C637.317 149.977 637.574 150.336 637.902 150.633C638.231 150.945 638.621 151.188 639.074 151.359C639.543 151.531 640.059 151.617 640.621 151.617C641.777 151.617 642.692 151.297 643.363 150.656C644.051 150 644.395 149.164 644.395 148.148C644.395 147.133 644.051 146.305 643.363 145.664C642.692 145.008 641.777 144.68 640.621 144.68C640.059 144.68 639.543 144.766 639.074 144.938C638.621 145.109 638.231 145.344 637.902 145.641C637.574 145.953 637.317 146.328 637.129 146.766C636.957 147.188 636.871 147.648 636.871 148.148ZM658.455 167.133V167.625C658.455 169.469 658.682 171.18 659.135 172.758C659.588 174.32 660.244 175.672 661.104 176.812C661.948 177.953 662.979 178.852 664.198 179.508C665.432 180.148 666.823 180.469 668.369 180.469C669.791 180.469 671.041 180.195 672.119 179.648C673.198 179.102 674.135 178.336 674.932 177.352L675.26 180H681.143V144H674.604V156.914C673.823 156.039 672.924 155.367 671.908 154.898C670.908 154.414 669.744 154.172 668.416 154.172C666.838 154.172 665.432 154.484 664.198 155.109C662.979 155.734 661.94 156.617 661.08 157.758C660.221 158.898 659.565 160.266 659.112 161.859C658.674 163.453 658.455 165.211 658.455 167.133ZM664.971 167.625V167.133C664.971 166.07 665.065 165.078 665.252 164.156C665.44 163.219 665.737 162.398 666.143 161.695C666.549 161.008 667.073 160.469 667.713 160.078C668.369 159.672 669.158 159.469 670.08 159.469C671.19 159.469 672.112 159.711 672.846 160.195C673.58 160.664 674.166 161.328 674.604 162.188V172.453C674.166 173.297 673.573 173.961 672.823 174.445C672.088 174.93 671.158 175.172 670.033 175.172C669.112 175.172 668.33 174.977 667.69 174.586C667.049 174.195 666.526 173.656 666.119 172.969C665.713 172.297 665.416 171.508 665.229 170.602C665.057 169.68 664.971 168.688 664.971 167.625Z" fill="#3E2D4A"/>
<path d="M483 423C483 409.745 472.255 399 459 399C445.745 399 435 409.745 435 423V508C435 521.255 445.745 532 459 532C472.255 532 483 521.255 483 508V423Z" fill="#A4C639" stroke="white" stroke-width="7.2"/>
<path d="M721 423C721 409.745 710.255 399 697 399C683.745 399 673 409.745 673 423V508C673 521.255 683.745 532 697 532C710.255 532 721 521.255 721 508V423Z" fill="#A4C639" stroke="white" stroke-width="7.2"/>
<path d="M570.6 522.556C570.6 508.196 559.223 496.4 545 496.4C530.777 496.4 519.4 508.196 519.4 522.556V602.444C519.4 616.804 530.777 628.6 545 628.6C559.223 628.6 570.6 616.804 570.6 602.444V522.556Z" fill="#A4C639" stroke="white" stroke-width="7.2"/>
<path d="M635.6 522.556C635.6 508.196 624.223 496.4 610 496.4C595.777 496.4 584.4 508.196 584.4 522.556V602.444C584.4 616.804 595.777 628.6 610 628.6C624.223 628.6 635.6 616.804 635.6 602.444V522.556Z" fill="#A4C639" stroke="white" stroke-width="7.2"/>
<path d="M647 374.5H509C494.917 374.5 483.5 385.917 483.5 400V538C483.5 552.083 494.917 563.5 509 563.5H647C661.083 563.5 672.5 552.083 672.5 538V400C672.5 385.917 661.083 374.5 647 374.5Z" fill="#A4C639" stroke="white" stroke-width="7"/>
<path d="M567 522.556C567 510.099 557.15 500 545 500C532.85 500 523 510.099 523 522.556V602.444C523 614.901 532.85 625 545 625C557.15 625 567 614.901 567 602.444V522.556Z" fill="#A4C639"/>
<path d="M632 522.556C632 510.099 622.15 500 610 500C597.85 500 588 510.099 588 522.556V602.444C588 614.901 597.85 625 610 625C622.15 625 632 614.901 632 602.444V522.556Z" fill="#A4C639"/>
<path d="M641.157 301.558C642.898 298.418 641.763 294.462 638.623 292.722C635.484 290.981 631.527 292.116 629.787 295.255L594.396 359.103C592.656 362.242 593.79 366.198 596.93 367.939C600.07 369.679 604.026 368.545 605.766 365.405L641.157 301.558Z" fill="#A4C639" stroke="white" stroke-width="7.2"/>
<path d="M515.151 300.988C513.411 297.848 514.545 293.892 517.685 292.151C520.825 290.411 524.781 291.545 526.521 294.685L561.912 358.532C563.653 361.672 562.518 365.628 559.379 367.369C556.239 369.109 552.283 367.975 550.542 364.835L515.151 300.988Z" fill="#A4C639" stroke="white" stroke-width="7.2"/>
<mask id="path-11-outside-1" maskUnits="userSpaceOnUse" x="480" y="308" width="196" height="99" fill="black">
<rect fill="white" x="480" y="308" width="196" height="99"/>
<path fill-rule="evenodd" clip-rule="evenodd" d="M487.006 400H668.994C668.998 399.667 669 399.334 669 399C669 352.608 628.258 315 578 315C527.742 315 487 352.608 487 399C487 399.334 487.002 399.667 487.006 400Z"/>
</mask>
<path fill-rule="evenodd" clip-rule="evenodd" d="M487.006 400H668.994C668.998 399.667 669 399.334 669 399C669 352.608 628.258 315 578 315C527.742 315 487 352.608 487 399C487 399.334 487.002 399.667 487.006 400Z" fill="#A4C639"/>
<path d="M487.006 400L480.007 400.088L480.094 407H487.006V400ZM668.994 400V407H675.906L675.993 400.089L668.994 400ZM487.006 407H668.994V393H487.006V407ZM675.993 400.089C675.998 399.726 676 399.363 676 399H662C662 399.304 661.998 399.608 661.994 399.911L675.993 400.089ZM676 399C676 348.225 631.586 308 578 308V322C624.93 322 662 356.991 662 399H676ZM578 308C524.414 308 480 348.225 480 399H494C494 356.991 531.07 322 578 322V308ZM480 399C480 399.363 480.002 399.726 480.007 400.088L494.006 399.912C494.002 399.608 494 399.304 494 399H480Z" fill="white" mask="url(#path-11-outside-1)"/>
<path d="M483 402.5H673H483Z" fill="white"/>
<path d="M483 402.5H673" stroke="white" stroke-width="7.2"/>
<path d="M536 362C538.209 362 540 360.209 540 358C540 355.791 538.209 354 536 354C533.791 354 532 355.791 532 358C532 360.209 533.791 362 536 362Z" fill="white" stroke="white" stroke-width="7.2"/>
<path d="M620 362C622.209 362 624 360.209 624 358C624 355.791 622.209 354 620 354C617.791 354 616 355.791 616 358C616 360.209 617.791 362 620 362Z" fill="white" stroke="white" stroke-width="7.2"/>
<path d="M641.157 301.558C642.897 298.418 641.763 294.462 638.623 292.722C635.484 290.981 631.527 292.116 629.787 295.255L594.396 359.103C592.656 362.242 593.79 366.198 596.93 367.939C600.069 369.679 604.026 368.545 605.766 365.405L641.157 301.558Z" fill="#A4C639"/>
<path d="M515.151 300.988C513.411 297.848 514.545 293.892 517.685 292.151C520.825 290.411 524.781 291.545 526.521 294.685L561.912 358.532C563.653 361.672 562.518 365.628 559.379 367.369C556.239 369.109 552.283 367.975 550.542 364.835L515.151 300.988Z" fill="#A4C639"/>
<path d="M1081.96 165.984L1090.4 180H1098.22L1086.32 160.969L1097.8 145.875H1089.74L1081.44 157.336L1078.35 161.508V145.875H1071.74V180H1078.35V169.945L1081.96 165.984ZM1101.88 167.086V167.578C1101.88 169.438 1102.14 171.156 1102.67 172.734C1103.21 174.297 1103.99 175.656 1105.02 176.812C1106.03 177.969 1107.28 178.875 1108.77 179.531C1110.27 180.172 1111.97 180.492 1113.88 180.492C1115.77 180.492 1117.46 180.172 1118.94 179.531C1120.42 178.875 1121.67 177.969 1122.69 176.812C1123.71 175.656 1124.48 174.297 1125.01 172.734C1125.54 171.156 1125.81 169.438 1125.81 167.578V167.086C1125.81 165.242 1125.54 163.539 1125.01 161.977C1124.48 160.398 1123.71 159.031 1122.69 157.875C1121.66 156.719 1120.4 155.812 1118.92 155.156C1117.43 154.5 1115.74 154.172 1113.83 154.172C1111.92 154.172 1110.23 154.5 1108.74 155.156C1107.28 155.812 1106.03 156.719 1105.02 157.875C1103.99 159.031 1103.21 160.398 1102.67 161.977C1102.14 163.539 1101.88 165.242 1101.88 167.086ZM1108.39 167.578V167.086C1108.39 166.055 1108.49 165.078 1108.7 164.156C1108.9 163.234 1109.22 162.422 1109.66 161.719C1110.1 161.016 1110.66 160.461 1111.35 160.055C1112.03 159.648 1112.86 159.445 1113.83 159.445C1114.82 159.445 1115.65 159.648 1116.34 160.055C1117.03 160.461 1117.59 161.016 1118.03 161.719C1118.45 162.422 1118.76 163.234 1118.96 164.156C1119.17 165.078 1119.27 166.055 1119.27 167.086V167.578C1119.27 168.641 1119.17 169.641 1118.96 170.578C1118.76 171.5 1118.45 172.305 1118.03 172.992C1117.59 173.695 1117.03 174.25 1116.34 174.656C1115.65 175.062 1114.83 175.266 1113.88 175.266C1112.89 175.266 1112.05 175.062 1111.35 174.656C1110.66 174.25 1110.1 173.695 1109.66 172.992C1109.22 172.305 1108.9 171.5 1108.7 170.578C1108.49 169.641 1108.39 168.641 1108.39 167.578ZM1145.47 148.43H1138.95V154.641H1133.16V159.445H1138.95V170.977C1138.95 172.648 1139.17 174.086 1139.61 175.289C1140.05 176.477 1140.67 177.453 1141.49 178.219C1142.28 179 1143.24 179.578 1144.37 179.953C1145.51 180.312 1146.77 180.492 1148.16 180.492C1148.88 180.492 1149.61 180.453 1150.34 180.375C1151.09 180.312 1151.81 180.219 1152.5 180.094C1153.19 179.969 1153.84 179.812 1154.45 179.625C1155.06 179.422 1155.59 179.188 1156.04 178.922L1155.41 174.445C1155.11 174.523 1154.75 174.602 1154.33 174.68C1153.92 174.758 1153.49 174.828 1153.02 174.891C1152.53 174.969 1152.02 175.031 1151.49 175.078C1150.98 175.125 1150.47 175.148 1149.97 175.148C1149.28 175.148 1148.66 175.07 1148.09 174.914C1147.55 174.758 1147.08 174.492 1146.69 174.117C1146.3 173.758 1145.99 173.273 1145.77 172.664C1145.57 172.039 1145.47 171.266 1145.47 170.344V159.445H1154.94V154.641H1145.47V148.43ZM1165.62 144V149.32H1173.22V174.703H1165.62V180H1187.07V174.703H1179.8V144H1165.62ZM1196.75 154.641V159.961H1203.97V174.703H1196.75V180H1217.42V174.703H1210.55V154.641H1196.75ZM1203.5 148.148C1203.5 148.648 1203.58 149.117 1203.76 149.555C1203.94 149.977 1204.2 150.336 1204.53 150.633C1204.86 150.945 1205.25 151.188 1205.7 151.359C1206.17 151.531 1206.68 151.617 1207.25 151.617C1208.4 151.617 1209.32 151.297 1209.99 150.656C1210.68 150 1211.02 149.164 1211.02 148.148C1211.02 147.133 1210.68 146.305 1209.99 145.664C1209.32 145.008 1208.4 144.68 1207.25 144.68C1206.68 144.68 1206.17 144.766 1205.7 144.938C1205.25 145.109 1204.86 145.344 1204.53 145.641C1204.2 145.953 1203.94 146.328 1203.76 146.766C1203.58 147.188 1203.5 147.648 1203.5 148.148ZM1225.76 180H1232.3V161.977C1232.52 161.633 1232.76 161.32 1233.03 161.039C1233.29 160.758 1233.59 160.516 1233.92 160.312C1234.32 160.031 1234.78 159.82 1235.3 159.68C1235.83 159.539 1236.41 159.469 1237.03 159.469C1237.78 159.469 1238.46 159.547 1239.05 159.703C1239.64 159.844 1240.15 160.102 1240.57 160.477C1241 160.852 1241.32 161.367 1241.53 162.023C1241.77 162.664 1241.89 163.484 1241.89 164.484V180H1248.4V164.391C1248.4 162.547 1248.18 160.984 1247.75 159.703C1247.32 158.406 1246.73 157.344 1245.96 156.516C1245.18 155.703 1244.26 155.109 1243.2 154.734C1242.14 154.359 1240.96 154.172 1239.68 154.172C1238.68 154.172 1237.74 154.312 1236.85 154.594C1235.96 154.875 1235.14 155.281 1234.39 155.812C1233.95 156.125 1233.53 156.477 1233.14 156.867C1232.75 157.258 1232.39 157.688 1232.07 158.156L1231.67 154.641H1225.76V180Z" fill="#3E2D4A"/>
<path d="M1041 588L1160.4 468.603L1279 588H1041Z" fill="url(#paint0_linear)"/>
<path d="M1041 350H1160.4L1041 478.917V350Z" fill="url(#paint1_linear)"/>
<path d="M1160.4 350L1041 475.743V588L1160.4 468.603L1279 350H1160.4Z" fill="url(#paint2_linear)"/>
<path d="M1554.16 180H1566.6C1568.48 180 1570.16 179.789 1571.66 179.367C1573.16 178.945 1574.44 178.312 1575.49 177.469C1576.53 176.625 1577.34 175.578 1577.9 174.328C1578.46 173.078 1578.74 171.633 1578.74 169.992C1578.74 169.133 1578.63 168.305 1578.39 167.508C1578.17 166.695 1577.83 165.945 1577.36 165.258C1576.91 164.617 1576.34 164.055 1575.67 163.57C1575.02 163.086 1574.13 162.688 1573 162.375V162.352C1573.58 162.133 1574.1 161.867 1574.57 161.555C1575.06 161.242 1575.49 160.898 1575.86 160.523C1576.55 159.836 1577.06 159.039 1577.41 158.133C1577.77 157.211 1577.95 156.234 1577.97 155.203C1577.97 153.609 1577.67 152.227 1577.08 151.055C1576.5 149.883 1575.67 148.914 1574.59 148.148C1573.52 147.383 1572.21 146.812 1570.68 146.438C1569.16 146.062 1567.48 145.875 1565.62 145.875H1554.16V180ZM1560.77 164.953H1566.91C1567.83 164.969 1568.63 165.094 1569.3 165.328C1569.97 165.562 1570.52 165.898 1570.94 166.336C1571.36 166.758 1571.66 167.273 1571.85 167.883C1572.06 168.492 1572.16 169.18 1572.16 169.945C1572.16 170.68 1572.02 171.344 1571.76 171.938C1571.51 172.531 1571.13 173.039 1570.63 173.461C1570.18 173.836 1569.61 174.133 1568.92 174.352C1568.25 174.57 1567.49 174.68 1566.63 174.68H1560.77V164.953ZM1560.77 160.195V151.242H1565.64C1566.7 151.258 1567.63 151.375 1568.41 151.594C1569.2 151.812 1569.84 152.164 1570.31 152.648C1570.66 152.992 1570.93 153.422 1571.1 153.938C1571.29 154.453 1571.38 155.055 1571.38 155.742C1571.38 156.398 1571.27 156.984 1571.06 157.5C1570.85 158.016 1570.56 158.453 1570.16 158.812C1569.7 159.266 1569.08 159.609 1568.31 159.844C1567.55 160.062 1566.66 160.18 1565.66 160.195H1560.77ZM1586.55 144V149.32H1594.14V174.703H1586.55V180H1607.99V174.703H1600.73V144H1586.55ZM1632.48 180H1638.39V154.641H1631.85V172.43C1631.65 172.836 1631.4 173.203 1631.12 173.531C1630.84 173.859 1630.52 174.141 1630.16 174.375C1629.74 174.641 1629.25 174.844 1628.68 174.984C1628.14 175.125 1627.52 175.195 1626.83 175.195C1626.07 175.195 1625.42 175.102 1624.89 174.914C1624.36 174.727 1623.93 174.414 1623.6 173.977C1623.27 173.555 1623.03 172.992 1622.87 172.289C1622.73 171.586 1622.66 170.719 1622.66 169.688V154.641H1616.15V169.641C1616.15 171.562 1616.36 173.211 1616.78 174.586C1617.22 175.945 1617.82 177.062 1618.61 177.938C1619.39 178.828 1620.32 179.477 1621.42 179.883C1622.51 180.289 1623.72 180.492 1625.03 180.492C1626.47 180.492 1627.79 180.133 1628.99 179.414C1630.21 178.695 1631.25 177.703 1632.11 176.438L1632.48 180ZM1658.99 180.469C1661.44 180.469 1663.57 179.992 1665.36 179.039C1667.16 178.086 1668.47 177.023 1669.3 175.852L1666.04 172.336C1665.29 173.305 1664.32 174.031 1663.11 174.516C1661.91 175 1660.67 175.242 1659.39 175.242C1658.48 175.242 1657.64 175.102 1656.88 174.82C1656.11 174.539 1655.43 174.141 1654.84 173.625C1654.26 173.125 1653.8 172.57 1653.46 171.961C1653.11 171.336 1652.83 170.516 1652.61 169.5V169.43H1669.82V166.664C1669.82 164.805 1669.56 163.109 1669.04 161.578C1668.53 160.031 1667.78 158.711 1666.79 157.617C1665.79 156.523 1664.57 155.68 1663.14 155.086C1661.71 154.477 1660.09 154.172 1658.26 154.172C1656.5 154.172 1654.86 154.492 1653.36 155.133C1651.86 155.773 1650.57 156.672 1649.47 157.828C1648.38 158.984 1647.53 160.367 1646.92 161.977C1646.31 163.57 1646 165.336 1646 167.273V168.211C1646 169.914 1646.31 171.516 1646.92 173.016C1647.54 174.5 1648.42 175.789 1649.57 176.883C1650.71 177.992 1652.07 178.867 1653.67 179.508C1655.26 180.148 1657.03 180.469 1658.99 180.469ZM1658.21 159.445C1659.04 159.445 1659.77 159.578 1660.39 159.844C1661.03 160.094 1661.57 160.438 1662.01 160.875C1662.45 161.328 1662.79 161.859 1663.04 162.469C1663.29 163.078 1663.42 163.727 1663.42 164.414V164.93H1652.73C1652.89 164.102 1653.12 163.352 1653.43 162.68C1653.75 162.008 1654.14 161.43 1654.6 160.945C1655.06 160.461 1655.59 160.094 1656.2 159.844C1656.81 159.578 1657.48 159.445 1658.21 159.445ZM1689.38 148.43H1682.87V154.641H1677.08V159.445H1682.87V170.977C1682.87 172.648 1683.09 174.086 1683.52 175.289C1683.96 176.477 1684.59 177.453 1685.4 178.219C1686.2 179 1687.16 179.578 1688.28 179.953C1689.42 180.312 1690.69 180.492 1692.08 180.492C1692.8 180.492 1693.52 180.453 1694.26 180.375C1695.01 180.312 1695.73 180.219 1696.42 180.094C1697.1 179.969 1697.75 179.812 1698.36 179.625C1698.97 179.422 1699.5 179.188 1699.95 178.922L1699.32 174.445C1699.02 174.523 1698.67 174.602 1698.24 174.68C1697.84 174.758 1697.4 174.828 1696.93 174.891C1696.45 174.969 1695.94 175.031 1695.41 175.078C1694.89 175.125 1694.38 175.148 1693.88 175.148C1693.2 175.148 1692.57 175.07 1692.01 174.914C1691.46 174.758 1690.99 174.492 1690.6 174.117C1690.21 173.758 1689.91 173.273 1689.69 172.664C1689.49 172.039 1689.38 171.266 1689.38 170.344V159.445H1698.85V154.641H1689.38V148.43ZM1707.29 167.086V167.578C1707.29 169.438 1707.55 171.156 1708.09 172.734C1708.62 174.297 1709.4 175.656 1710.43 176.812C1711.44 177.969 1712.69 178.875 1714.18 179.531C1715.68 180.172 1717.38 180.492 1719.29 180.492C1721.18 180.492 1722.87 180.172 1724.35 179.531C1725.84 178.875 1727.09 177.969 1728.1 176.812C1729.12 175.656 1729.89 174.297 1730.42 172.734C1730.95 171.156 1731.22 169.438 1731.22 167.578V167.086C1731.22 165.242 1730.95 163.539 1730.42 161.977C1729.89 160.398 1729.12 159.031 1728.1 157.875C1727.07 156.719 1725.81 155.812 1724.33 155.156C1722.84 154.5 1721.15 154.172 1719.24 154.172C1717.34 154.172 1715.64 154.5 1714.16 155.156C1712.69 155.812 1711.44 156.719 1710.43 157.875C1709.4 159.031 1708.62 160.398 1708.09 161.977C1707.55 163.539 1707.29 165.242 1707.29 167.086ZM1713.8 167.578V167.086C1713.8 166.055 1713.91 165.078 1714.11 164.156C1714.31 163.234 1714.63 162.422 1715.07 161.719C1715.51 161.016 1716.07 160.461 1716.76 160.055C1717.44 159.648 1718.27 159.445 1719.24 159.445C1720.23 159.445 1721.06 159.648 1721.75 160.055C1722.44 160.461 1723 161.016 1723.44 161.719C1723.86 162.422 1724.17 163.234 1724.37 164.156C1724.58 165.078 1724.68 166.055 1724.68 167.086V167.578C1724.68 168.641 1724.58 169.641 1724.37 170.578C1724.17 171.5 1723.86 172.305 1723.44 172.992C1723 173.695 1722.44 174.25 1721.75 174.656C1721.06 175.062 1720.24 175.266 1719.29 175.266C1718.3 175.266 1717.46 175.062 1716.76 174.656C1716.07 174.25 1715.51 173.695 1715.07 172.992C1714.63 172.305 1714.31 171.5 1714.11 170.578C1713.91 169.641 1713.8 168.641 1713.8 167.578ZM1738.04 167.086V167.578C1738.04 169.438 1738.3 171.156 1738.83 172.734C1739.36 174.297 1740.15 175.656 1741.18 176.812C1742.19 177.969 1743.44 178.875 1744.93 179.531C1746.43 180.172 1748.13 180.492 1750.04 180.492C1751.93 180.492 1753.61 180.172 1755.1 179.531C1756.58 178.875 1757.83 177.969 1758.85 176.812C1759.86 175.656 1760.64 174.297 1761.17 172.734C1761.7 171.156 1761.97 169.438 1761.97 167.578V167.086C1761.97 165.242 1761.7 163.539 1761.17 161.977C1760.64 160.398 1759.86 159.031 1758.85 157.875C1757.82 156.719 1756.56 155.812 1755.08 155.156C1753.59 154.5 1751.9 154.172 1749.99 154.172C1748.08 154.172 1746.39 154.5 1744.9 155.156C1743.43 155.812 1742.19 156.719 1741.18 157.875C1740.15 159.031 1739.36 160.398 1738.83 161.977C1738.3 163.539 1738.04 165.242 1738.04 167.086ZM1744.55 167.578V167.086C1744.55 166.055 1744.65 165.078 1744.86 164.156C1745.06 163.234 1745.38 162.422 1745.82 161.719C1746.26 161.016 1746.82 160.461 1747.51 160.055C1748.19 159.648 1749.02 159.445 1749.99 159.445C1750.97 159.445 1751.81 159.648 1752.5 160.055C1753.18 160.461 1753.75 161.016 1754.18 161.719C1754.61 162.422 1754.92 163.234 1755.12 164.156C1755.33 165.078 1755.43 166.055 1755.43 167.086V167.578C1755.43 168.641 1755.33 169.641 1755.12 170.578C1754.92 171.5 1754.61 172.305 1754.18 172.992C1753.75 173.695 1753.18 174.25 1752.5 174.656C1751.81 175.062 1750.99 175.266 1750.04 175.266C1749.05 175.266 1748.21 175.062 1747.51 174.656C1746.82 174.25 1746.26 173.695 1745.82 172.992C1745.38 172.305 1745.06 171.5 1744.86 170.578C1744.65 169.641 1744.55 168.641 1744.55 167.578ZM1781.63 148.43H1775.11V154.641H1769.32V159.445H1775.11V170.977C1775.11 172.648 1775.33 174.086 1775.77 175.289C1776.21 176.477 1776.83 177.453 1777.64 178.219C1778.44 179 1779.4 179.578 1780.53 179.953C1781.67 180.312 1782.93 180.492 1784.32 180.492C1785.04 180.492 1785.77 180.453 1786.5 180.375C1787.25 180.312 1787.97 180.219 1788.66 180.094C1789.35 179.969 1790 179.812 1790.6 179.625C1791.21 179.422 1791.75 179.188 1792.2 178.922L1791.57 174.445C1791.27 174.523 1790.91 174.602 1790.49 174.68C1790.08 174.758 1789.64 174.828 1789.18 174.891C1788.69 174.969 1788.18 175.031 1787.65 175.078C1787.14 175.125 1786.63 175.148 1786.13 175.148C1785.44 175.148 1784.82 175.07 1784.25 174.914C1783.71 174.758 1783.24 174.492 1782.85 174.117C1782.46 173.758 1782.15 173.273 1781.93 172.664C1781.73 172.039 1781.63 171.266 1781.63 170.344V159.445H1791.1V154.641H1781.63V148.43ZM1806.94 158.133V144H1800.42V180H1806.94V161.695C1807.19 161.367 1807.46 161.07 1807.76 160.805C1808.07 160.539 1808.42 160.312 1808.79 160.125C1809.2 159.906 1809.65 159.742 1810.15 159.633C1810.65 159.523 1811.19 159.469 1811.77 159.469C1812.52 159.469 1813.19 159.57 1813.78 159.773C1814.38 159.961 1814.88 160.258 1815.31 160.664C1815.73 161.07 1816.05 161.602 1816.27 162.258C1816.5 162.914 1816.62 163.695 1816.62 164.602V180H1823.13V164.648C1823.13 162.789 1822.91 161.203 1822.45 159.891C1822.02 158.562 1821.4 157.477 1820.6 156.633C1819.81 155.789 1818.85 155.172 1817.74 154.781C1816.63 154.375 1815.42 154.172 1814.09 154.172C1813.18 154.172 1812.32 154.305 1811.51 154.57C1810.7 154.836 1809.95 155.211 1809.28 155.695C1808.85 156.008 1808.42 156.375 1808.02 156.797C1807.63 157.203 1807.27 157.648 1806.94 158.133ZM1546.84 237.68V208.875H1540.24V243H1562.83V237.68H1546.84ZM1569.88 230.086V230.578C1569.88 232.438 1570.15 234.156 1570.68 235.734C1571.21 237.297 1571.99 238.656 1573.02 239.812C1574.04 240.969 1575.29 241.875 1576.77 242.531C1578.27 243.172 1579.98 243.492 1581.88 243.492C1583.77 243.492 1585.46 243.172 1586.94 242.531C1588.43 241.875 1589.68 240.969 1590.69 239.812C1591.71 238.656 1592.48 237.297 1593.01 235.734C1593.55 234.156 1593.81 232.438 1593.81 230.578V230.086C1593.81 228.242 1593.55 226.539 1593.01 224.977C1592.48 223.398 1591.71 222.031 1590.69 220.875C1589.66 219.719 1588.4 218.812 1586.92 218.156C1585.44 217.5 1583.74 217.172 1581.83 217.172C1579.93 217.172 1578.23 217.5 1576.75 218.156C1575.28 218.812 1574.04 219.719 1573.02 220.875C1571.99 222.031 1571.21 223.398 1570.68 224.977C1570.15 226.539 1569.88 228.242 1569.88 230.086ZM1576.4 230.578V230.086C1576.4 229.055 1576.5 228.078 1576.7 227.156C1576.9 226.234 1577.23 225.422 1577.66 224.719C1578.1 224.016 1578.66 223.461 1579.35 223.055C1580.04 222.648 1580.87 222.445 1581.83 222.445C1582.82 222.445 1583.65 222.648 1584.34 223.055C1585.03 223.461 1585.59 224.016 1586.03 224.719C1586.45 225.422 1586.76 226.234 1586.97 227.156C1587.17 228.078 1587.27 229.055 1587.27 230.086V230.578C1587.27 231.641 1587.17 232.641 1586.97 233.578C1586.76 234.5 1586.45 235.305 1586.03 235.992C1585.59 236.695 1585.03 237.25 1584.34 237.656C1583.65 238.062 1582.83 238.266 1581.88 238.266C1580.9 238.266 1580.05 238.062 1579.35 237.656C1578.66 237.25 1578.1 236.695 1577.66 235.992C1577.23 235.305 1576.9 234.5 1576.7 233.578C1576.5 232.641 1576.4 231.641 1576.4 230.578ZM1603.4 243H1609.11L1611.81 229.453L1612.32 226.875L1612.86 229.453L1615.65 243H1621.37L1625.92 217.641H1619.94L1618.07 232.594L1617.74 235.055L1617.29 232.641L1614.55 217.641H1610.19L1607.45 232.711L1607 235.125L1606.7 232.711L1604.8 217.641H1598.85L1603.4 243ZM1683.78 228.047V222.844H1669.77V214.242H1686.08V208.875H1663.16V243H1686.15V237.68H1669.77V228.047H1683.78ZM1693.76 243H1700.3V224.977C1700.52 224.633 1700.76 224.32 1701.03 224.039C1701.3 223.758 1701.59 223.516 1701.92 223.312C1702.33 223.031 1702.79 222.82 1703.3 222.68C1703.84 222.539 1704.41 222.469 1705.04 222.469C1705.79 222.469 1706.46 222.547 1707.05 222.703C1707.65 222.844 1708.16 223.102 1708.58 223.477C1709 223.852 1709.32 224.367 1709.54 225.023C1709.77 225.664 1709.89 226.484 1709.89 227.484V243H1716.41V227.391C1716.41 225.547 1716.19 223.984 1715.75 222.703C1715.33 221.406 1714.73 220.344 1713.97 219.516C1713.19 218.703 1712.26 218.109 1711.2 217.734C1710.14 217.359 1708.97 217.172 1707.69 217.172C1706.69 217.172 1705.74 217.312 1704.85 217.594C1703.96 217.875 1703.14 218.281 1702.39 218.812C1701.95 219.125 1701.54 219.477 1701.15 219.867C1700.76 220.258 1700.4 220.688 1700.07 221.156L1699.67 217.641H1693.76V243ZM1736.82 243.469C1739.27 243.469 1741.4 242.992 1743.19 242.039C1744.99 241.086 1746.3 240.023 1747.13 238.852L1743.87 235.336C1743.12 236.305 1742.15 237.031 1740.94 237.516C1739.74 238 1738.5 238.242 1737.22 238.242C1736.31 238.242 1735.47 238.102 1734.71 237.82C1733.94 237.539 1733.26 237.141 1732.67 236.625C1732.09 236.125 1731.63 235.57 1731.29 234.961C1730.94 234.336 1730.66 233.516 1730.44 232.5V232.43H1747.65V229.664C1747.65 227.805 1747.39 226.109 1746.87 224.578C1746.36 223.031 1745.61 221.711 1744.62 220.617C1743.62 219.523 1742.4 218.68 1740.97 218.086C1739.54 217.477 1737.92 217.172 1736.09 217.172C1734.33 217.172 1732.69 217.492 1731.19 218.133C1729.69 218.773 1728.4 219.672 1727.3 220.828C1726.21 221.984 1725.36 223.367 1724.75 224.977C1724.14 226.57 1723.83 228.336 1723.83 230.273V231.211C1723.83 232.914 1724.14 234.516 1724.75 236.016C1725.37 237.5 1726.26 238.789 1727.4 239.883C1728.54 240.992 1729.9 241.867 1731.5 242.508C1733.09 243.148 1734.86 243.469 1736.82 243.469ZM1736.04 222.445C1736.87 222.445 1737.6 222.578 1738.22 222.844C1738.86 223.094 1739.4 223.438 1739.84 223.875C1740.28 224.328 1740.62 224.859 1740.87 225.469C1741.12 226.078 1741.25 226.727 1741.25 227.414V227.93H1730.56C1730.72 227.102 1730.95 226.352 1731.26 225.68C1731.58 225.008 1731.97 224.43 1732.43 223.945C1732.89 223.461 1733.42 223.094 1734.03 222.844C1734.64 222.578 1735.31 222.445 1736.04 222.445ZM1773.47 217.172C1771.77 217.172 1770.2 217.586 1768.76 218.414C1767.32 219.227 1766.09 220.352 1765.06 221.789L1765.01 221.227L1764.75 217.641H1758.68V243H1765.2V227.766C1765.5 227.047 1765.87 226.422 1766.32 225.891C1766.78 225.359 1767.32 224.922 1767.96 224.578C1768.5 224.281 1769.1 224.062 1769.77 223.922C1770.46 223.766 1771.22 223.688 1772.07 223.688C1772.88 223.688 1773.73 223.742 1774.62 223.852C1775.53 223.945 1776.41 224.094 1777.27 224.297L1778.23 217.805C1777.71 217.648 1777.03 217.508 1776.19 217.383C1775.36 217.242 1774.46 217.172 1773.47 217.172ZM1785.35 230.133V230.625C1785.35 232.469 1785.59 234.18 1786.06 235.758C1786.54 237.32 1787.23 238.672 1788.12 239.812C1789.01 240.953 1790.08 241.852 1791.33 242.508C1792.6 243.148 1794.02 243.469 1795.6 243.469C1796.39 243.469 1797.13 243.383 1797.82 243.211C1798.52 243.039 1799.17 242.797 1799.74 242.484C1800.13 242.266 1800.5 242.016 1800.85 241.734C1801.19 241.453 1801.52 241.141 1801.83 240.797V242.25C1801.83 243.109 1801.7 243.883 1801.45 244.57C1801.22 245.258 1800.88 245.836 1800.42 246.305C1799.92 246.82 1799.3 247.211 1798.55 247.477C1797.81 247.742 1796.97 247.875 1796.02 247.875C1795.42 247.875 1794.85 247.812 1794.28 247.688C1793.74 247.578 1793.2 247.406 1792.69 247.172C1792.16 246.938 1791.65 246.633 1791.17 246.258C1790.68 245.898 1790.23 245.477 1789.81 244.992L1786.88 248.953C1787.42 249.656 1788.08 250.258 1788.85 250.758C1789.61 251.273 1790.42 251.695 1791.28 252.023C1792.14 252.352 1793.01 252.594 1793.88 252.75C1794.76 252.906 1795.58 252.984 1796.35 252.984C1798.13 252.984 1799.75 252.742 1801.22 252.258C1802.7 251.789 1803.98 251.094 1805.04 250.172C1806.09 249.25 1806.9 248.117 1807.48 246.773C1808.07 245.43 1808.37 243.898 1808.37 242.18V217.641H1802.44L1802.18 220.055C1801.87 219.664 1801.52 219.312 1801.15 219C1800.77 218.672 1800.37 218.391 1799.93 218.156C1799.35 217.828 1798.7 217.586 1797.99 217.43C1797.28 217.258 1796.5 217.172 1795.64 217.172C1794.05 217.172 1792.62 217.484 1791.35 218.109C1790.09 218.734 1789.01 219.617 1788.12 220.758C1787.23 221.898 1786.54 223.266 1786.06 224.859C1785.59 226.453 1785.35 228.211 1785.35 230.133ZM1791.89 230.625V230.133C1791.89 229.07 1792 228.078 1792.22 227.156C1792.44 226.219 1792.77 225.398 1793.23 224.695C1793.67 224.008 1794.22 223.469 1794.89 223.078C1795.56 222.672 1796.36 222.469 1797.28 222.469C1797.78 222.469 1798.24 222.516 1798.67 222.609C1799.1 222.703 1799.5 222.836 1799.86 223.008C1800.28 223.211 1800.66 223.477 1800.99 223.805C1801.31 224.133 1801.6 224.516 1801.83 224.953V235.688C1801.61 236.078 1801.35 236.43 1801.06 236.742C1800.76 237.055 1800.42 237.32 1800.02 237.539C1799.65 237.742 1799.23 237.898 1798.76 238.008C1798.31 238.117 1797.8 238.172 1797.24 238.172C1796.31 238.172 1795.52 237.977 1794.85 237.586C1794.17 237.195 1793.62 236.656 1793.18 235.969C1792.74 235.297 1792.42 234.508 1792.2 233.602C1791.99 232.68 1791.89 231.688 1791.89 230.625ZM1820.77 253.242C1822.08 253.242 1823.21 253.023 1824.16 252.586C1825.13 252.148 1825.95 251.609 1826.62 250.969C1827.3 250.328 1827.85 249.633 1828.29 248.883C1828.74 248.133 1829.11 247.438 1829.39 246.797L1842.26 217.641H1835.06L1829.27 232.547L1828.31 235.078L1827.61 232.5L1821.8 217.641H1814.67L1825.41 241.922L1823.91 244.711C1823.72 245.055 1823.55 245.32 1823.41 245.508C1823.29 245.695 1823.09 245.977 1822.8 246.352C1822.52 246.727 1822.18 247.07 1821.77 247.383C1821.38 247.711 1820.93 247.875 1820.41 247.875C1820.16 247.875 1819.83 247.859 1819.41 247.828C1819 247.812 1818.66 247.805 1818.4 247.805L1817.6 252.773C1818.16 252.93 1818.67 253.047 1819.12 253.125C1819.59 253.203 1820.14 253.242 1820.77 253.242Z" fill="#3E2D4A"/>
<path d="M1699.92 306H1680.65C1627.27 306 1584 349.384 1584 402.901V534.099C1584 587.616 1627.27 631 1680.65 631H1699.92C1753.3 631 1796.57 587.616 1796.57 534.099V402.901C1796.57 349.384 1753.3 306 1699.92 306Z" fill="#0A3D91"/>
<path d="M1635.82 415.99L1737.72 518.173L1688.61 577.419V365.73L1737.72 422.314L1635.82 521.834" stroke="white" stroke-width="13"/>
<defs>
<linearGradient id="paint0_linear" x1="1104.31" y1="643.59" x2="1216.75" y2="531.145" gradientUnits="userSpaceOnUse">
<stop offset="0.09677" stop-color="#0095D5"/>
<stop offset="0.3007" stop-color="#238AD9"/>
<stop offset="0.6211" stop-color="#557BDE"/>
<stop offset="0.8643" stop-color="#7472E2"/>
<stop offset="1" stop-color="#806EE3"/>
</linearGradient>
<linearGradient id="paint1_linear" x1="1057.7" y1="397.834" x2="1123" y2="332.527" gradientUnits="userSpaceOnUse">
<stop offset="0.1183" stop-color="#0095D5"/>
<stop offset="0.4178" stop-color="#3C83DC"/>
<stop offset="0.6962" stop-color="#6D74E1"/>
<stop offset="0.8333" stop-color="#806EE3"/>
</linearGradient>
<linearGradient id="paint2_linear" x1="1000.93" y1="568.816" x2="1222.4" y2="347.345" gradientUnits="userSpaceOnUse">
<stop offset="0.1075" stop-color="#C757BC"/>
<stop offset="0.2138" stop-color="#D0609A"/>
<stop offset="0.4254" stop-color="#E1725C"/>
<stop offset="0.6048" stop-color="#EE7E2F"/>
<stop offset="0.743" stop-color="#F58613"/>
<stop offset="0.8232" stop-color="#F88909"/>
</linearGradient>
</defs>
</svg>
