<svg xmlns="http://www.w3.org/2000/svg" xmlns:xlink="http://www.w3.org/1999/xlink" viewBox="0 0 426.22 429.3"><defs><style>.cls-1,.cls-4{fill:none;}.cls-2{fill:#fff;}.cls-3{clip-path:url(#clip-path);}.cls-4{stroke:#80c342;stroke-miterlimit:10;stroke-width:26.76px;}</style><clipPath id="clip-path"><circle class="cls-1" cx="164" cy="164" r="164"/></clipPath></defs><g id="Layer_2" data-name="Layer 2"><g id="content"><circle class="cls-2" cx="164" cy="164" r="164"/><g class="cls-3"><path class="cls-4" d="M171.17,255.16c44.53-12.82,78-39.86,96-86.72"/><path class="cls-4" d="M248.33,178.57q9.1-5.4,18.84-10.13l143.61,159c-18,46.86-51.47,73.9-96,86.72l-143.61-159q5.29-9,11.28-17.17"/><path class="cls-4" d="M185.76,242l-72.15-79.87c-20.82-23-22.43-63.42-22.43-63.42s53-33.95,93.33,9.13S256,186.92,256,186.92"/><path class="cls-4" d="M91.18,98.69s15.76,36,47.08,39.76S187.07,119,173,97.74"/></g></g></g></svg>