<?xml version="1.0" encoding="utf-8"?>
<!-- Generator: Adobe Illustrator 14.0.0, SVG Export Plug-In . SVG Version: 6.00 Build 43363)  -->
<!DOCTYPE svg PUBLIC "-//W3C//DTD SVG 1.1//EN" "http://www.w3.org/Graphics/SVG/1.1/DTD/svg11.dtd">
<svg version="1.1" id="Ebene_1" xmlns="http://www.w3.org/2000/svg" xmlns:xlink="http://www.w3.org/1999/xlink" x="0px" y="0px"
	 width="282px" height="51px" viewBox="0 0 282 51" enable-background="new 0 0 282 51" xml:space="preserve">
<path fill="#D10019" d="M83.39,18.51c-0.164,0.254-0.332,0.436-0.501,0.547c-0.172,0.111-0.407,0.168-0.705,0.168
	c-0.298,0-0.604-0.075-0.916-0.225c-0.312-0.148-0.664-0.309-1.049-0.479c-0.388-0.17-0.833-0.332-1.331-0.479
	c-0.499-0.148-1.076-0.225-1.73-0.225c-1,0-1.773,0.205-2.325,0.614c-0.55,0.41-0.826,0.948-0.826,1.62
	c0,0.461,0.157,0.849,0.47,1.162c0.313,0.312,0.727,0.585,1.24,0.813c0.513,0.233,1.099,0.447,1.754,0.649
	c0.655,0.201,1.328,0.42,2.022,0.658c0.692,0.238,1.365,0.515,2.021,0.826c0.655,0.313,1.241,0.705,1.755,1.172
	c0.512,0.471,0.926,1.037,1.239,1.699c0.312,0.664,0.469,1.465,0.469,2.4c0,1.119-0.205,2.148-0.615,3.098
	c-0.41,0.944-1.009,1.758-1.798,2.443c-0.789,0.686-1.773,1.223-2.949,1.607c-1.177,0.388-2.533,0.582-4.065,0.582
	c-0.79,0-1.572-0.07-2.348-0.213c-0.773-0.14-1.512-0.343-2.21-0.604c-0.701-0.26-1.356-0.563-1.967-0.904
	c-0.61-0.342-1.139-0.715-1.586-1.117l1.431-2.303c0.163-0.268,0.368-0.477,0.612-0.625c0.247-0.148,0.563-0.224,0.95-0.224
	c0.374,0,0.716,0.094,1.028,0.278c0.313,0.188,0.664,0.389,1.05,0.604c0.386,0.217,0.845,0.418,1.374,0.604
	c0.53,0.187,1.188,0.278,1.977,0.278c0.596,0,1.11-0.067,1.542-0.202c0.431-0.135,0.782-0.313,1.049-0.547
	c0.268-0.23,0.465-0.492,0.592-0.783c0.127-0.289,0.19-0.592,0.19-0.904c0-0.504-0.161-0.918-0.48-1.237
	c-0.32-0.319-0.738-0.603-1.252-0.839c-0.514-0.238-1.105-0.454-1.775-0.646c-0.671-0.193-1.352-0.412-2.045-0.647
	c-0.693-0.239-1.371-0.522-2.033-0.851c-0.664-0.328-1.251-0.74-1.765-1.24s-0.932-1.113-1.251-1.844
	c-0.321-0.729-0.481-1.615-0.481-2.658c0-0.951,0.187-1.855,0.559-2.715c0.374-0.855,0.931-1.61,1.675-2.268
	c0.744-0.654,1.672-1.175,2.782-1.563c1.111-0.387,2.394-0.58,3.854-0.58c1.638,0,3.128,0.268,4.468,0.803
	c1.34,0.537,2.441,1.238,3.308,2.104L83.39,18.51z"/>
<path fill="#D10019" d="M93.756,26.24c0.194,2.158,0.808,3.737,1.843,4.734c1.036,1,2.387,1.497,4.054,1.497
	c0.85,0,1.583-0.101,2.201-0.302c0.616-0.2,1.162-0.424,1.631-0.67c0.469-0.246,0.894-0.469,1.273-0.672
	c0.379-0.201,0.755-0.302,1.128-0.302c0.476,0,0.849,0.179,1.116,0.536l1.788,2.234c-0.656,0.759-1.378,1.39-2.168,1.888
	c-0.79,0.499-1.608,0.894-2.458,1.185c-0.85,0.293-1.705,0.492-2.57,0.604c-0.863,0.11-1.697,0.167-2.502,0.167
	c-1.608,0-3.109-0.266-4.5-0.794c-1.393-0.526-2.607-1.31-3.643-2.347c-1.036-1.033-1.851-2.318-2.445-3.854
	c-0.597-1.533-0.895-3.314-0.895-5.339c0-1.563,0.257-3.038,0.771-4.423c0.514-1.385,1.255-2.592,2.224-3.619
	c0.968-1.027,2.144-1.842,3.53-2.445c1.385-0.604,2.948-0.906,4.691-0.906c1.476,0,2.834,0.234,4.076,0.705
	c1.245,0.47,2.317,1.15,3.219,2.043c0.9,0.895,1.6,1.994,2.1,3.295c0.498,1.305,0.75,2.791,0.75,4.457
	c0,0.463-0.022,0.842-0.068,1.142c-0.043,0.297-0.119,0.534-0.222,0.715c-0.104,0.179-0.246,0.304-0.424,0.367
	c-0.179,0.067-0.411,0.103-0.693,0.103H93.756L93.756,26.24z M103.451,22.576c0-0.642-0.085-1.25-0.256-1.832
	c-0.171-0.58-0.443-1.097-0.816-1.543c-0.373-0.447-0.841-0.801-1.408-1.062c-0.566-0.261-1.244-0.39-2.034-0.39
	c-1.474,0-2.627,0.416-3.463,1.25c-0.834,0.834-1.377,2.026-1.631,3.576H103.451L103.451,22.576z"/>
<path fill="#D10019" d="M111.918,33.567c0-0.491,0.094-0.959,0.281-1.396c0.186-0.439,0.443-0.82,0.77-1.141
	c0.328-0.32,0.712-0.572,1.151-0.76c0.438-0.186,0.918-0.279,1.44-0.279c0.506,0,0.984,0.094,1.429,0.279
	c0.448,0.188,0.834,0.439,1.162,0.76c0.328,0.319,0.583,0.7,0.771,1.141c0.187,0.438,0.278,0.904,0.278,1.396
	c0,0.505-0.091,0.976-0.278,1.407c-0.188,0.432-0.444,0.811-0.771,1.128c-0.328,0.321-0.715,0.57-1.162,0.749
	c-0.445,0.18-0.923,0.27-1.429,0.27c-0.522,0-1.002-0.09-1.44-0.27c-0.439-0.177-0.823-0.427-1.151-0.749
	c-0.327-0.317-0.584-0.696-0.77-1.128C112.011,34.543,111.918,34.072,111.918,33.567z"/>
<path fill="#D10019" d="M137.744,18.51c-0.164,0.254-0.332,0.436-0.502,0.547c-0.171,0.111-0.406,0.168-0.704,0.168
	c-0.299,0-0.604-0.075-0.916-0.225c-0.313-0.148-0.665-0.309-1.049-0.479c-0.388-0.17-0.831-0.332-1.33-0.479
	c-0.499-0.148-1.076-0.225-1.733-0.225c-0.998,0-1.773,0.205-2.323,0.614c-0.552,0.41-0.827,0.948-0.827,1.62
	c0,0.461,0.157,0.849,0.469,1.162c0.313,0.312,0.727,0.585,1.241,0.813c0.513,0.233,1.098,0.447,1.752,0.649
	c0.656,0.201,1.33,0.42,2.021,0.658c0.693,0.238,1.367,0.515,2.022,0.826c0.655,0.313,1.239,0.705,1.753,1.172
	c0.514,0.471,0.928,1.037,1.24,1.699c0.313,0.664,0.469,1.465,0.469,2.4c0,1.119-0.205,2.148-0.613,3.098
	c-0.41,0.945-1.01,1.758-1.801,2.443c-0.789,0.686-1.771,1.223-2.949,1.607c-1.176,0.388-2.532,0.582-4.063,0.582
	c-0.792,0-1.572-0.07-2.347-0.213c-0.775-0.14-1.512-0.343-2.212-0.604c-0.702-0.26-1.355-0.563-1.965-0.904
	c-0.612-0.344-1.14-0.715-1.588-1.117l1.43-2.303c0.166-0.268,0.37-0.477,0.614-0.625c0.246-0.148,0.563-0.224,0.951-0.224
	c0.372,0,0.715,0.094,1.028,0.278c0.313,0.188,0.662,0.389,1.049,0.604c0.386,0.217,0.846,0.418,1.375,0.604
	c0.529,0.186,1.187,0.278,1.977,0.278c0.597,0,1.11-0.067,1.542-0.202c0.431-0.135,0.781-0.313,1.049-0.547
	c0.269-0.23,0.465-0.492,0.593-0.783c0.126-0.289,0.19-0.592,0.19-0.904c0-0.504-0.162-0.918-0.48-1.237
	c-0.321-0.319-0.737-0.603-1.251-0.839c-0.514-0.238-1.106-0.454-1.777-0.646c-0.67-0.193-1.35-0.412-2.043-0.647
	c-0.692-0.239-1.371-0.522-2.034-0.851c-0.663-0.328-1.251-0.74-1.765-1.24s-0.932-1.113-1.25-1.844
	c-0.32-0.729-0.482-1.615-0.482-2.658c0-0.951,0.187-1.855,0.56-2.715c0.373-0.855,0.931-1.61,1.674-2.268
	c0.746-0.654,1.672-1.175,2.783-1.563c1.109-0.387,2.395-0.58,3.853-0.58c1.638,0,3.128,0.268,4.468,0.803
	c1.342,0.537,2.442,1.238,3.308,2.104L137.744,18.51z"/>
<path fill="#D10019" d="M148.111,26.24c0.193,2.158,0.809,3.737,1.844,4.734c1.035,1,2.387,1.497,4.055,1.497
	c0.85,0,1.584-0.101,2.199-0.302c0.617-0.2,1.161-0.424,1.631-0.67c0.469-0.246,0.894-0.469,1.273-0.672
	c0.381-0.201,0.755-0.302,1.129-0.302c0.477,0,0.85,0.179,1.117,0.536l1.787,2.234c-0.657,0.759-1.377,1.39-2.168,1.888
	c-0.789,0.499-1.607,0.894-2.457,1.185c-0.852,0.293-1.706,0.492-2.568,0.604c-0.865,0.11-1.699,0.167-2.505,0.167
	c-1.608,0-3.106-0.266-4.499-0.794c-1.395-0.526-2.607-1.31-3.645-2.347c-1.035-1.033-1.849-2.318-2.443-3.854
	c-0.598-1.533-0.895-3.314-0.895-5.339c0-1.563,0.256-3.038,0.77-4.423c0.516-1.385,1.256-2.592,2.223-3.619
	c0.969-1.027,2.146-1.842,3.53-2.445c1.384-0.604,2.949-0.906,4.69-0.906c1.477,0,2.834,0.234,4.078,0.705
	c1.244,0.47,2.315,1.15,3.217,2.043c0.897,0.895,1.6,1.994,2.101,3.295c0.497,1.305,0.749,2.791,0.749,4.457
	c0,0.463-0.021,0.842-0.066,1.142c-0.045,0.297-0.121,0.534-0.223,0.715c-0.104,0.179-0.248,0.304-0.427,0.367
	c-0.179,0.067-0.41,0.103-0.69,0.103H148.111L148.111,26.24z M157.807,22.576c0-0.642-0.088-1.25-0.258-1.832
	c-0.17-0.58-0.443-1.097-0.814-1.543c-0.373-0.447-0.842-0.801-1.407-1.062c-0.567-0.261-1.244-0.39-2.032-0.39
	c-1.478,0-2.632,0.416-3.465,1.25s-1.378,2.026-1.632,3.576H157.807L157.807,22.576z"/>
<path fill="#D10019" d="M172.93,17.572c0.73-1.312,1.57-2.345,2.525-3.105c0.953-0.76,2.07-1.141,3.352-1.141
	c1.043,0,1.891,0.248,2.547,0.739l-0.401,4.558c-0.073,0.299-0.19,0.502-0.346,0.613c-0.158,0.113-0.369,0.168-0.64,0.168
	c-0.238,0-0.58-0.035-1.026-0.102c-0.445-0.066-0.863-0.1-1.252-0.1c-0.563,0-1.068,0.082-1.507,0.246
	c-0.439,0.164-0.83,0.395-1.174,0.691c-0.345,0.299-0.65,0.663-0.927,1.095c-0.276,0.433-0.534,0.925-0.771,1.476v14.096h-6.168
	V13.773h3.644c0.626,0,1.058,0.112,1.296,0.335c0.238,0.224,0.409,0.609,0.516,1.161L172.93,17.572z"/>
<path fill="#D10019" d="M205.19,13.773l-9.046,23.033h-5.586l-9.051-23.033h5.116c0.448,0,0.821,0.104,1.118,0.313
	c0.297,0.207,0.507,0.478,0.625,0.804l3.865,11.394c0.254,0.774,0.477,1.531,0.671,2.268c0.192,0.736,0.364,1.479,0.515,2.223
	c0.164-0.744,0.346-1.486,0.547-2.223s0.437-1.493,0.703-2.268l4-11.394c0.104-0.327,0.305-0.597,0.604-0.804
	c0.298-0.209,0.646-0.313,1.05-0.313H205.19z"/>
<path fill="#D10019" d="M214.887,7.229c0,0.522-0.104,1.006-0.313,1.452c-0.207,0.447-0.487,0.841-0.836,1.183
	c-0.351,0.343-0.761,0.611-1.229,0.804s-0.972,0.291-1.508,0.291c-0.506,0-0.986-0.098-1.441-0.291s-0.854-0.46-1.194-0.804
	c-0.343-0.342-0.614-0.736-0.815-1.183c-0.201-0.448-0.302-0.931-0.302-1.452c0-0.522,0.101-1.009,0.302-1.464
	s0.474-0.852,0.815-1.195c0.343-0.342,0.739-0.61,1.194-0.804s0.937-0.291,1.441-0.291c0.536,0,1.039,0.097,1.508,0.291
	s0.879,0.462,1.229,0.804c0.349,0.343,0.629,0.741,0.836,1.195C214.781,6.219,214.887,6.707,214.887,7.229z M214.148,13.773v23.033
	h-6.166V13.773H214.148z"/>
<path fill="#D10019" d="M236.133,18.912c-0.18,0.237-0.356,0.422-0.535,0.547c-0.18,0.127-0.435,0.188-0.76,0.188
	c-0.3,0-0.586-0.084-0.861-0.256c-0.276-0.17-0.592-0.356-0.949-0.558s-0.782-0.387-1.271-0.56
	c-0.492-0.171-1.104-0.256-1.832-0.256c-0.927,0-1.727,0.167-2.404,0.502c-0.676,0.335-1.237,0.813-1.684,1.44
	c-0.449,0.625-0.779,1.386-0.996,2.279s-0.324,1.898-0.324,3.016c0,2.354,0.473,4.156,1.418,5.406
	c0.945,1.254,2.24,1.877,3.877,1.877c0.566,0,1.055-0.047,1.464-0.145c0.409-0.097,0.769-0.22,1.073-0.369
	c0.304-0.148,0.567-0.312,0.793-0.49c0.224-0.18,0.436-0.345,0.637-0.492c0.202-0.149,0.4-0.273,0.604-0.369
	c0.2-0.096,0.428-0.146,0.683-0.146c0.478,0,0.85,0.178,1.116,0.535l1.766,2.234c-0.654,0.76-1.355,1.39-2.1,1.888
	c-0.746,0.499-1.517,0.896-2.313,1.187c-0.798,0.291-1.605,0.489-2.425,0.604c-0.82,0.11-1.632,0.166-2.437,0.166
	c-1.414,0-2.756-0.265-4.021-0.794c-1.266-0.527-2.375-1.298-3.328-2.311c-0.953-1.014-1.709-2.256-2.266-3.73
	c-0.56-1.475-0.84-3.158-0.84-5.05c0-1.683,0.246-3.247,0.737-4.691c0.492-1.444,1.214-2.694,2.168-3.754
	c0.953-1.056,2.134-1.886,3.541-2.489c1.406-0.604,3.033-0.906,4.882-0.906c1.758,0,3.299,0.283,4.625,0.85
	c1.323,0.566,2.516,1.385,3.573,2.459L236.133,18.912z"/>
<path fill="#D10019" d="M245.563,26.24c0.191,2.158,0.807,3.737,1.842,4.734c1.036,1,2.387,1.497,4.055,1.497
	c0.85,0,1.584-0.101,2.201-0.302c0.615-0.2,1.161-0.424,1.629-0.67c0.471-0.246,0.895-0.469,1.273-0.672
	c0.382-0.201,0.757-0.302,1.13-0.302c0.478,0,0.849,0.179,1.118,0.536l1.785,2.234c-0.654,0.759-1.377,1.39-2.166,1.888
	c-0.791,0.499-1.61,0.894-2.459,1.185c-0.85,0.293-1.703,0.492-2.568,0.604c-0.863,0.11-1.697,0.167-2.503,0.167
	c-1.608,0-3.108-0.266-4.5-0.794c-1.394-0.526-2.606-1.31-3.644-2.347c-1.035-1.033-1.852-2.318-2.445-3.854
	c-0.596-1.533-0.895-3.314-0.895-5.339c0-1.563,0.258-3.038,0.771-4.423s1.254-2.592,2.223-3.619s2.145-1.842,3.529-2.445
	c1.385-0.604,2.949-0.906,4.691-0.906c1.477,0,2.834,0.234,4.078,0.705c1.243,0.47,2.314,1.15,3.217,2.043
	c0.899,0.895,1.6,1.994,2.1,3.295c0.5,1.305,0.75,2.791,0.75,4.457c0,0.463-0.023,0.842-0.066,1.142
	c-0.046,0.297-0.121,0.534-0.226,0.715c-0.104,0.179-0.245,0.304-0.425,0.367c-0.178,0.067-0.409,0.103-0.691,0.103H245.563
	L245.563,26.24z M255.256,22.576c0-0.642-0.086-1.25-0.256-1.832c-0.172-0.58-0.443-1.097-0.816-1.543
	c-0.373-0.447-0.842-0.801-1.406-1.062c-0.566-0.261-1.245-0.39-2.034-0.39c-1.476,0-2.628,0.416-3.465,1.25
	c-0.832,0.834-1.376,2.026-1.63,3.576H255.256L255.256,22.576z"/>
<path fill="#D10019" d="M278.913,18.51c-0.163,0.254-0.331,0.436-0.5,0.547c-0.173,0.111-0.405,0.168-0.704,0.168
	s-0.605-0.075-0.916-0.225c-0.313-0.148-0.664-0.309-1.05-0.479c-0.388-0.17-0.831-0.332-1.33-0.479
	c-0.497-0.148-1.077-0.225-1.731-0.225c-0.998,0-1.772,0.205-2.322,0.614c-0.553,0.41-0.826,0.948-0.826,1.62
	c0,0.461,0.155,0.849,0.469,1.162c0.313,0.312,0.725,0.585,1.239,0.813c0.515,0.233,1.099,0.447,1.754,0.649
	c0.654,0.201,1.328,0.42,2.022,0.658c0.691,0.238,1.365,0.515,2.021,0.826c0.654,0.313,1.24,0.705,1.753,1.172
	c0.514,0.471,0.928,1.037,1.24,1.699c0.313,0.664,0.469,1.465,0.469,2.4c0,1.119-0.205,2.148-0.613,3.098
	c-0.41,0.945-1.008,1.758-1.799,2.443c-0.789,0.686-1.773,1.223-2.949,1.607c-1.176,0.388-2.531,0.582-4.065,0.582
	c-0.789,0-1.571-0.07-2.347-0.213c-0.774-0.14-1.512-0.343-2.213-0.604c-0.699-0.26-1.354-0.563-1.965-0.904
	c-0.608-0.344-1.14-0.715-1.586-1.117l1.43-2.303c0.164-0.268,0.369-0.477,0.613-0.625c0.246-0.148,0.563-0.224,0.95-0.224
	c0.371,0,0.716,0.094,1.027,0.278c0.312,0.188,0.663,0.389,1.05,0.604c0.387,0.217,0.846,0.418,1.375,0.604
	c0.527,0.187,1.188,0.278,1.977,0.278c0.596,0,1.109-0.067,1.543-0.202c0.43-0.135,0.781-0.313,1.049-0.547
	c0.268-0.23,0.465-0.492,0.593-0.783c0.127-0.289,0.19-0.592,0.19-0.904c0-0.504-0.162-0.918-0.481-1.237
	c-0.321-0.319-0.737-0.603-1.25-0.839c-0.515-0.238-1.108-0.454-1.776-0.646c-0.671-0.193-1.353-0.412-2.045-0.647
	c-0.693-0.239-1.369-0.522-2.033-0.851c-0.662-0.328-1.25-0.74-1.766-1.24c-0.514-0.5-0.932-1.113-1.251-1.844
	c-0.319-0.729-0.479-1.615-0.479-2.658c0-0.951,0.187-1.855,0.559-2.715c0.373-0.855,0.932-1.61,1.675-2.268
	c0.744-0.654,1.672-1.175,2.781-1.563c1.11-0.387,2.396-0.58,3.854-0.58c1.639,0,3.129,0.268,4.467,0.803
	c1.343,0.537,2.443,1.238,3.309,2.104L278.913,18.51z"/>
<radialGradient id="SVGID_1_" cx="525.2402" cy="533.9629" r="23.8986" gradientTransform="matrix(1 0 0 1 -501.6406 -508.7314)" gradientUnits="userSpaceOnUse">
	<stop  offset="0" style="stop-color:#C6C7C8"/>
	<stop  offset="0.448" style="stop-color:#C4C5C7"/>
	<stop  offset="0.6093" style="stop-color:#BFC0C2"/>
	<stop  offset="0.7243" style="stop-color:#B5B7B8"/>
	<stop  offset="0.8173" style="stop-color:#A8A9AB"/>
	<stop  offset="0.897" style="stop-color:#959798"/>
	<stop  offset="0.9662" style="stop-color:#7E7F81"/>
	<stop  offset="1" style="stop-color:#707173"/>
</radialGradient>
<path fill="url(#SVGID_1_)" d="M20.104,18.928c12.46-10.618,28.647,0.074,26.383-6.029c-1.508-2.324-1.604-2.48-2.421-3.494
	c-6.879-8.334-16.479-8.844-16.479-8.844s-4.173,2.043,1.231,6.014c5.404,3.971-10.478,8.934-17.647,10.699
	C6.232,18.49-0.381,23.42,0.598,30.988c0.621,2.603,1.65,5.045,3.018,7.258c0.971,1.558,1.838,2.795,3.805,4.504
	c1.341,1.164,2.501,2.324,3.726,3.228c3.814,2.372,8.575,3.925,13.592,3.925c0.41,0,0.819-0.011,1.224-0.031
	c6.341-1.424,8.119-6.863-0.124-5.576C11.722,46.5,7.421,29.735,20.104,18.928z"/>
<radialGradient id="SVGID_2_" cx="528.3076" cy="533.749" r="23.5269" gradientTransform="matrix(1 0 0 1 -501.6406 -508.7314)" gradientUnits="userSpaceOnUse">
	<stop  offset="0" style="stop-color:#E53527"/>
	<stop  offset="1" style="stop-color:#8B0E13"/>
</radialGradient>
<path fill="url(#SVGID_2_)" d="M4.156,39.11C4.156,39.11,4.164,39.119,4.156,39.11c4.498,6.3,11.874,10.408,20.206,10.408
	c13.706,0,24.816-11.11,24.816-24.815c0-6.229-35.044-7.272-27.628-14.098c6.284-5.783,18.296-4.825,23.48,0.137
	c0.028,0.028,0.059,0.053,0.088,0.082C40.59,4.813,32.944,0.517,24.363,0.517c-3.922,0-7.806,0.815-11.487,2.979
	c-5.105,3.369-9.923,14.182,8.621,21.316C42.769,33,21.196,52.158,4.156,39.11z"/>
<radialGradient id="SVGID_3_" cx="528.6816" cy="533.8887" r="23.6916" gradientTransform="matrix(1 0 0 1 -501.6406 -508.7314)" gradientUnits="userSpaceOnUse">
	<stop  offset="0" style="stop-color:#D10019"/>
	<stop  offset="1" style="stop-color:#A60B16"/>
</radialGradient>
<path fill="url(#SVGID_3_)" d="M4.531,39.564c0,0,0.009,0.01-0.001-0.002c4.5,6.301,11.875,10.41,20.207,10.41
	c13.705,0,24.816-11.111,24.816-24.816c-0.497-7.968-35.293-8.492-28.125-14.889c7.167-6.396,17.954-5.139,23.138-0.176
	c0.027,0.027,0.058,0.054,0.087,0.08c-4.528-6.009-11.336-9.829-19.916-9.829c-4.58,0-8.869,1.241-12.551,3.405
	c-5.106,3.369-9.044,14.881,9.683,21.52C42.714,32.656,22.177,53.793,4.531,39.564z"/>
<g>
	<g>
		<defs>
			<path id="SVGID_4_" d="M4.531,39.564c0,0,0.009,0.01-0.001-0.002c4.5,6.301,11.875,10.41,20.207,10.41
				c13.705,0,24.816-11.111,24.816-24.816c-0.497-7.968-35.293-8.492-28.125-14.889c7.167-6.396,17.907-5.205,23.091-0.242
				c0.027,0.027,0.058,0.055,0.088,0.081c-4.49-6.088-11.686-9.795-19.87-9.765c-4.58,0.018-8.869,1.241-12.551,3.405
				c-5.106,3.369-9.044,14.882,9.683,21.52C42.714,32.656,22.177,53.793,4.531,39.564z"/>
		</defs>
		<clipPath id="SVGID_5_">
			<use xlink:href="#SVGID_4_"  overflow="visible"/>
		</clipPath>
		
			<radialGradient id="SVGID_6_" cx="525.7461" cy="526.5313" r="33.2002" gradientTransform="matrix(1 0 0 1 -501.6406 -508.7314)" gradientUnits="userSpaceOnUse">
			<stop  offset="0" style="stop-color:#E2001A"/>
			<stop  offset="1" style="stop-color:#D10019;stop-opacity:0"/>
		</radialGradient>
		<circle clip-path="url(#SVGID_5_)" fill="url(#SVGID_6_)" cx="24.106" cy="17.8" r="33.2"/>
	</g>
</g>
<g>
	<g>
		<defs>
			<path id="SVGID_7_" d="M4.531,39.564c0,0,0.009,0.01-0.001-0.002c4.5,6.301,11.875,10.41,20.207,10.41
				c13.705,0,24.816-11.111,24.816-24.816c-0.497-7.968-35.293-8.492-28.125-14.889c7.167-6.396,17.939-5.162,23.124-0.199
				c0.027,0.028,0.058,0.054,0.088,0.081c-4.566-6.165-11.665-9.816-19.903-9.807c-4.581,0.004-8.355,0.907-12.551,3.405
				C7.08,7.117,3.142,18.629,21.87,25.268C42.714,32.656,22.177,53.793,4.531,39.564z"/>
		</defs>
		<clipPath id="SVGID_8_">
			<use xlink:href="#SVGID_7_"  overflow="visible"/>
		</clipPath>
		
			<radialGradient id="SVGID_9_" cx="518.5293" cy="524.5313" r="19.2202" gradientTransform="matrix(1 0 0 1 -501.6406 -508.7314)" gradientUnits="userSpaceOnUse">
			<stop  offset="0" style="stop-color:#E53527"/>
			<stop  offset="1" style="stop-color:#D43225;stop-opacity:0"/>
		</radialGradient>
		<circle clip-path="url(#SVGID_8_)" fill="url(#SVGID_9_)" cx="16.889" cy="15.8" r="19.22"/>
	</g>
</g>
<linearGradient id="SVGID_10_" gradientUnits="userSpaceOnUse" x1="527.8203" y1="527.418" x2="514.8666" y2="511.9804" gradientTransform="matrix(1 0 0 1 -501.6406 -508.7314)">
	<stop  offset="0" style="stop-color:#C00418;stop-opacity:0.1"/>
	<stop  offset="0.3726" style="stop-color:#C10A19;stop-opacity:0.4354"/>
	<stop  offset="0.5069" style="stop-color:#C2191C;stop-opacity:0.5562"/>
	<stop  offset="0.6026" style="stop-color:#C32A20;stop-opacity:0.6423"/>
	<stop  offset="0.68" style="stop-color:#C63B28;stop-opacity:0.712"/>
	<stop  offset="0.7463" style="stop-color:#CA4F35;stop-opacity:0.7716"/>
	<stop  offset="0.805" style="stop-color:#CF6649;stop-opacity:0.8245"/>
	<stop  offset="0.8581" style="stop-color:#D58265;stop-opacity:0.8723"/>
	<stop  offset="0.9069" style="stop-color:#DCA189;stop-opacity:0.9162"/>
	<stop  offset="0.9523" style="stop-color:#E4C3B4;stop-opacity:0.9571"/>
	<stop  offset="0.9926" style="stop-color:#EBE6E4;stop-opacity:0.9934"/>
	<stop  offset="1" style="stop-color:#ECEDED"/>
</linearGradient>
<path fill="url(#SVGID_10_)" d="M25.889,0.612c0,0-16.577-0.418-17.582,10.146c-0.855,8.986,11.465,13.306,11.465,13.306
	s-10.683-6.116-8.9-14.118C13.018,0.314,25.889,0.612,25.889,0.612z"/>
<linearGradient id="SVGID_11_" gradientUnits="userSpaceOnUse" x1="535.834" y1="542.7725" x2="544.1723" y2="528.3302" gradientTransform="matrix(1 0 0 1 -501.6406 -508.7314)">
	<stop  offset="0" style="stop-color:#C00418;stop-opacity:0.1"/>
	<stop  offset="0.3726" style="stop-color:#C10A19;stop-opacity:0.4354"/>
	<stop  offset="0.5069" style="stop-color:#C2191C;stop-opacity:0.5562"/>
	<stop  offset="0.6026" style="stop-color:#C32A20;stop-opacity:0.6423"/>
	<stop  offset="0.68" style="stop-color:#C63B28;stop-opacity:0.712"/>
	<stop  offset="0.7463" style="stop-color:#CA4F35;stop-opacity:0.7716"/>
	<stop  offset="0.805" style="stop-color:#CF6649;stop-opacity:0.8245"/>
	<stop  offset="0.8581" style="stop-color:#D58265;stop-opacity:0.8723"/>
	<stop  offset="0.9069" style="stop-color:#DCA189;stop-opacity:0.9162"/>
	<stop  offset="0.9523" style="stop-color:#E4C3B4;stop-opacity:0.9571"/>
	<stop  offset="0.9926" style="stop-color:#EBE6E4;stop-opacity:0.9934"/>
	<stop  offset="1" style="stop-color:#ECEDED"/>
</linearGradient>
<path fill="url(#SVGID_11_)" d="M44.411,39.939c3.01-4.107,4.791-9.171,4.791-14.652c-0.267-4.299-10.517-6.432-18.776-8.487
	C28.714,16.857,55.053,19.716,44.411,39.939z"/>
</svg>
