<svg width="203" height="42" viewBox="0 0 203 42" fill="none" xmlns="http://www.w3.org/2000/svg">
<path d="M0.35354 41V4.08763H4.5111V37.4605H20.8042V41H0.35354ZM39.3697 41.6742C36.5605 41.6742 34.4818 40.7753 33.1334 38.9774C31.785 37.1795 31.1108 34.5389 31.1108 31.0556V13.7511H35.156V30.5499C35.156 33.1718 35.5867 35.1008 36.4482 36.3368C37.3097 37.5354 38.6955 38.1347 40.6057 38.1347C42.029 38.1347 43.3213 37.7601 44.4824 37.011C45.6435 36.2244 46.8983 34.9884 48.2466 33.3029V13.7511H52.348V41H48.9208L48.5837 36.6739H48.4152C47.1417 38.1721 45.7933 39.3894 44.37 40.3258C42.9467 41.2247 41.2799 41.6742 39.3697 41.6742ZM66.3398 41V13.7511H69.7108L70.0479 17.7963H70.2165C71.5274 16.4479 72.9133 15.3243 74.374 14.4253C75.8723 13.5264 77.539 13.0769 79.3743 13.0769C82.2584 13.0769 84.3559 13.9759 85.6669 15.7737C87.0153 17.5716 87.6895 20.2122 87.6895 23.6956V41H83.5881V24.2012C83.5881 21.5793 83.1573 19.6691 82.2959 18.4705C81.4718 17.272 80.1047 16.6727 78.1945 16.6727C76.7712 16.6727 75.479 17.0472 74.3179 17.7963C73.1567 18.508 71.8458 19.5942 70.385 21.055V41H66.3398ZM107.52 41.6742C106.022 41.6742 104.674 41.3746 103.475 40.7753C102.277 40.176 101.321 39.3145 100.61 38.1908C99.8982 37.0297 99.5424 35.6251 99.5424 33.9771C99.5424 31.0181 100.891 28.7521 103.588 27.1789C106.322 25.5683 110.629 24.4447 116.51 23.8079C116.51 22.5719 116.341 21.3921 116.004 20.2684C115.704 19.1447 115.124 18.2458 114.262 17.5716C113.438 16.8599 112.24 16.5041 110.667 16.5041C109.019 16.5041 107.483 16.8225 106.06 17.4592C104.674 18.096 103.456 18.7702 102.408 19.4818L100.778 16.6727C101.565 16.1483 102.501 15.6052 103.588 15.0434C104.674 14.4815 105.872 14.0133 107.183 13.6388C108.494 13.2642 109.88 13.0769 111.341 13.0769C113.551 13.0769 115.33 13.5451 116.678 14.4815C118.027 15.4179 119 16.7101 119.6 18.3582C120.237 20.0062 120.555 21.9352 120.555 24.145V41H117.184L116.847 37.6852H116.678C115.367 38.7714 113.944 39.7078 112.408 40.4944C110.873 41.2809 109.243 41.6742 107.52 41.6742ZM108.588 38.3594C110.011 38.3594 111.322 38.041 112.521 37.4043C113.757 36.7301 115.086 35.775 116.51 34.5389V26.5609C113.289 26.9355 110.742 27.4598 108.869 28.134C106.996 28.7708 105.648 29.5574 104.824 30.4937C104 31.4301 103.588 32.5163 103.588 33.7524C103.588 35.363 104.074 36.5428 105.048 37.2919C106.06 38.0036 107.239 38.3594 108.588 38.3594ZM133.644 41V4.36855H156.455V10.8296H141.341V19.9313H154.263V26.3924H141.341V41H133.644ZM166.654 41V13.1893H174.351V41H166.654ZM170.53 8.91939C169.294 8.91939 168.264 8.52611 167.44 7.73954C166.616 6.95298 166.204 5.96041 166.204 4.76183C166.204 3.56326 166.616 2.58941 167.44 1.8403C168.264 1.05374 169.294 0.660456 170.53 0.660456C171.804 0.660456 172.834 1.05374 173.62 1.8403C174.444 2.58941 174.856 3.56326 174.856 4.76183C174.856 5.96041 174.444 6.95298 173.62 7.73954C172.834 8.52611 171.804 8.91939 170.53 8.91939ZM196.906 41.6742C193.535 41.6742 191.119 40.7004 189.658 38.7527C188.235 36.805 187.523 34.258 187.523 31.1118V19.2571H183.703V13.5264L187.973 13.1893L188.872 5.77313H195.221V13.1893H202.019V19.2571H195.221V31.0556C195.221 32.6287 195.539 33.7898 196.176 34.5389C196.85 35.2506 197.768 35.6064 198.929 35.6064C199.416 35.6064 199.903 35.5502 200.389 35.4379C200.876 35.3255 201.307 35.1944 201.682 35.0446L202.918 40.6629C202.169 40.8876 201.288 41.1124 200.277 41.3371C199.266 41.5618 198.142 41.6742 196.906 41.6742Z" fill="#50C1BA"/>
</svg>
