<?xml version="1.0" encoding="UTF-8" standalone="no"?>
<!DOCTYPE svg PUBLIC "-//W3C//DTD SVG 1.1//EN" "http://www.w3.org/Graphics/SVG/1.1/DTD/svg11.dtd">
<svg width="100%" height="100%" viewBox="0 0 1920 1080" version="1.1" xmlns="http://www.w3.org/2000/svg" xmlns:xlink="http://www.w3.org/1999/xlink" xml:space="preserve" xmlns:serif="http://www.serif.com/" style="fill-rule:evenodd;clip-rule:evenodd;stroke-linejoin:round;stroke-miterlimit:2;">
    <g transform="matrix(2.04241,0,0,2.04241,-1478.55,-802.576)">
        <g transform="matrix(0.216414,0.298953,-0.699927,0.506681,1515,-172.621)">
            <rect x="1515.66" y="497.931" width="97.714" height="581.143" style="fill:rgb(0,167,238);"/>
        </g>
        <g transform="matrix(0.340034,-0.143473,0.260079,0.616394,288.676,395.549)">
            <rect x="1515.66" y="497.931" width="97.714" height="581.143" style="fill:rgb(0,167,238);"/>
        </g>
        <g transform="matrix(-0.06018,0.364124,-0.936272,-0.154741,2056.01,58.3692)">
            <rect x="1515.66" y="497.931" width="97.714" height="581.143" style="fill:rgb(0,167,238);"/>
        </g>
    </g>
    <g>
        <g transform="matrix(2.74241,0,0,2.74241,-294.634,-945.436)">
            <path d="M407.251,578.495L454.918,502.568L454.787,493.323L394.269,493.323L394.269,503.682L440.952,503.682L393.416,579.347L393.547,588.789L456.689,588.789L456.689,578.495L407.251,578.495Z" style="fill:white;fill-rule:nonzero;stroke:black;stroke-width:3.65px;"/>
            <path d="M520.653,588.789L531.669,588.789L531.669,517.845L519.473,517.845L519.473,568.725C518.817,570.255 517.998,571.665 517.014,572.954C516.031,574.244 514.883,575.347 513.572,576.265C511.998,577.402 510.141,578.287 507.999,578.921C505.857,579.555 503.431,579.871 500.721,579.871C498.404,579.871 496.361,579.565 494.59,578.953C492.82,578.342 491.323,577.271 490.099,575.741C488.875,574.255 487.957,572.244 487.345,569.709C486.733,567.173 486.427,563.982 486.427,560.136L486.427,517.845L474.297,517.845L474.297,560.005C474.297,565.294 474.876,569.829 476.035,573.61C477.193,577.391 478.843,580.505 480.985,582.953C483.127,585.401 485.706,587.204 488.722,588.362C491.738,589.521 495.104,590.1 498.819,590.1C503.453,590.1 507.54,589.127 511.08,587.182C514.621,585.237 517.572,582.516 519.932,579.019L520.653,588.789Z" style="fill:white;fill-rule:nonzero;stroke:black;stroke-width:3.65px;"/>
        </g>
        <g transform="matrix(2.74241,0,0,2.74241,201.103,-945.197)">
            <path d="M410.66,493.323L395.646,493.323L395.646,588.789L407.448,588.789L407.448,550.694L406.464,512.206L422.659,562.234L429.609,562.234L447.247,510.829L446.263,550.694L446.263,588.789L458.065,588.789L458.065,493.323L442.985,493.323L426.2,541.056L410.66,493.323Z" style="fill:white;fill-rule:nonzero;stroke:black;stroke-width:3.65px;"/>
            <path d="M475.805,517.845L475.805,528.401L499.934,528.401L499.934,578.298L475.805,578.298L475.805,588.789L535.209,588.789L535.209,578.298L512.064,578.298L512.064,517.845L475.805,517.845Z" style="fill:white;fill-rule:nonzero;stroke:black;stroke-width:3.65px;"/>
        </g>
        <g transform="matrix(2.74241,0,0,2.74241,-802.965,-948.809)">
            <path d="M459.115,576.265L458.918,541.252L427.97,541.252L427.97,551.481L447.378,551.481L447.247,572.921C440.453,582.67 422.337,581.591 414.529,574.298C407.208,567.461 404.868,556.205 404.694,546.629L404.694,535.417C404.694,526.161 406.525,514.631 413.48,507.813C426.626,494.927 444.26,505.717 446.985,521.32L458.983,521.32C456.788,496.442 427.451,482.763 407.382,498.568C396.483,507.152 392.661,522.343 392.498,535.548L392.498,546.629C392.661,560.012 397.341,575.062 408.431,583.478C424.002,595.293 446.967,590.556 459.115,576.265Z" style="fill:white;fill-rule:nonzero;stroke:black;stroke-width:3.65px;"/>
            <path d="M533.242,576.396L525.833,570.626C517.317,581.647 499.959,583.853 489.968,573.315C485.759,568.876 484.005,563.215 483.477,557.251L483.477,556.792L534.16,556.792L534.16,551.35C534.16,544.75 533.002,537.614 529.939,531.63C521.805,515.739 500.507,512.217 486.288,522.058C476.186,529.049 471.347,541.043 471.347,553.054L471.347,555.808C471.347,564.829 474.418,573.867 480.788,580.396C494.638,594.591 522.034,593.416 533.242,576.396ZM522.03,546.235L522.03,546.826L483.87,546.826C484.85,540.143 487.794,533.334 493.607,529.491C495.574,528.191 497.782,527.284 500.098,526.836C512.265,524.483 522.03,534.225 522.03,546.235Z" style="fill:white;fill-rule:nonzero;stroke:black;stroke-width:3.65px;"/>
        </g>
    </g>
    <g transform="matrix(0.917916,0,0,0.917916,1141.71,18.8886)">
        <circle cx="471.227" cy="341.503" r="102.429" style="fill:rgb(255,168,0);stroke:black;stroke-width:10.89px;stroke-linecap:round;stroke-miterlimit:1.5;"/>
    </g>
    <g transform="matrix(1.21485,0,0,1.21485,-102.788,-264.229)">
        <circle cx="471.227" cy="341.503" r="102.429" style="fill:rgb(0,167,238);stroke:black;stroke-width:8.23px;stroke-linecap:round;stroke-miterlimit:1.5;"/>
    </g>
    <g transform="matrix(1.21485,0,0,1.21485,201.608,515.691)">
        <circle cx="471.227" cy="341.503" r="102.429" style="fill:rgb(0,167,238);stroke:black;stroke-width:8.23px;stroke-linecap:round;stroke-miterlimit:1.5;"/>
    </g>
</svg>
