<svg width="343" height="253" viewBox="0 0 343 253" fill="none" xmlns="http://www.w3.org/2000/svg">
<g clip-path="url(#clip0)">
<rect width="343" height="253" fill="#1B1B1B"/>
<rect x="-29" y="-46" width="425" height="343" fill="#1B1B1B"/>
<path d="M106.529 52L271.029 93L153.029 193L106.529 52Z" stroke="#00A7EE" stroke-width="9"/>
<mask id="path-3-outside-1" maskUnits="userSpaceOnUse" x="54" y="105.361" width="233" height="47" fill="black">
<rect fill="white" x="54" y="105.361" width="233" height="47"/>
<path fill-rule="evenodd" clip-rule="evenodd" d="M84.688 128.234L84.7417 143.193C84.2046 143.837 83.5511 144.464 82.7812 145.073C82.0114 145.664 81.1431 146.192 80.1763 146.657C78.9588 147.248 77.634 147.705 76.2017 148.027C74.7694 148.367 73.2386 148.537 71.6094 148.537C70.1055 148.537 68.7 148.34 67.3931 147.946C66.0861 147.552 64.9045 146.997 63.8481 146.281C62.7918 145.565 61.8429 144.697 61.0015 143.676C60.1779 142.656 59.4886 141.519 58.9336 140.266C58.307 138.959 57.8325 137.517 57.5103 135.942C57.188 134.366 57.0179 132.71 57 130.974V125.979C57.0179 124.296 57.1701 122.684 57.4565 121.145C57.7609 119.605 58.1995 118.181 58.7725 116.875C59.3275 115.639 59.9899 114.511 60.7598 113.491C61.5296 112.47 62.4069 111.584 63.3916 110.832C64.4658 110.044 65.6475 109.436 66.9365 109.006C68.2435 108.576 69.6579 108.361 71.1797 108.361C73.2386 108.361 75.0648 108.639 76.6582 109.194C78.2516 109.749 79.6123 110.546 80.7402 111.584C81.8861 112.64 82.7902 113.92 83.4526 115.424C84.1151 116.91 84.5358 118.584 84.7148 120.446H78.377C78.2158 119.426 77.9741 118.504 77.6519 117.68C77.3296 116.839 76.8999 116.132 76.3628 115.559C75.7899 114.95 75.0827 114.484 74.2412 114.162C73.4176 113.84 72.4419 113.679 71.314 113.679C70.4904 113.679 69.7295 113.822 69.0312 114.108C68.333 114.377 67.7064 114.744 67.1514 115.209C66.5068 115.782 65.9429 116.481 65.4595 117.304C64.994 118.11 64.609 119.014 64.3047 120.017C64.0361 120.894 63.8392 121.834 63.7139 122.836C63.5885 123.839 63.5259 124.868 63.5259 125.925V130.974C63.5259 132.209 63.6064 133.382 63.7676 134.492C63.9466 135.602 64.2062 136.631 64.5464 137.58C64.8149 138.296 65.1283 138.968 65.4863 139.594C65.8623 140.221 66.3009 140.776 66.8022 141.259C67.4289 141.886 68.154 142.369 68.9775 142.709C69.819 143.05 70.7679 143.229 71.8242 143.247C72.4508 143.247 73.0864 143.211 73.731 143.139C74.3755 143.05 74.9932 142.915 75.584 142.736C76.1569 142.557 76.6851 142.333 77.1685 142.065C77.6519 141.778 78.0368 141.447 78.3232 141.071L78.3501 133.256H71.2603V128.234H84.688ZM113.61 146.872C111.623 147.982 109.215 148.537 106.386 148.537C104.238 148.537 102.268 148.179 100.478 147.463C98.7055 146.747 97.1837 145.753 95.9125 144.482C94.6413 143.229 93.6566 141.752 92.9584 140.051C92.2781 138.332 91.9379 136.479 91.9379 134.492V133.391C91.9379 131.117 92.296 129.058 93.0121 127.214C93.7283 125.37 94.713 123.794 95.9662 122.487C97.2195 121.18 98.6697 120.178 100.317 119.479C101.982 118.763 103.754 118.405 105.634 118.405C107.729 118.405 109.582 118.763 111.193 119.479C112.805 120.178 114.156 121.153 115.248 122.407C116.341 123.678 117.164 125.191 117.719 126.945C118.274 128.7 118.552 130.616 118.552 132.692V135.458H98.4101V135.593C98.607 136.864 98.9114 137.929 99.3231 138.789C99.7349 139.648 100.299 140.418 101.015 141.098C101.731 141.814 102.573 142.369 103.539 142.763C104.524 143.157 105.598 143.354 106.762 143.354C108.356 143.354 109.842 143.05 111.22 142.441C112.599 141.814 113.736 140.928 114.631 139.782L118.068 143.112C117.101 144.509 115.615 145.762 113.61 146.872ZM108.427 124.179C107.621 123.803 106.682 123.615 105.607 123.615C104.694 123.615 103.844 123.785 103.056 124.125C102.286 124.448 101.597 124.913 100.988 125.522C100.379 126.149 99.8692 126.901 99.4574 127.778C99.0456 128.655 98.7413 129.649 98.5443 130.759H112.214V130.329C112.214 129.488 112.062 128.655 111.757 127.832C111.453 126.99 111.023 126.256 110.468 125.629C109.931 125.021 109.251 124.537 108.427 124.179ZM165.319 113.088L146.117 142.683H165.883V148H138.437V143.703L157.584 114.243H138.598V108.898H165.265L165.319 113.088ZM198.914 148H193.086L192.71 143.945C191.726 145.395 190.526 146.532 189.112 147.355C187.697 148.161 186.122 148.564 184.385 148.564C182.863 148.564 181.476 148.331 180.223 147.866C178.987 147.382 177.922 146.639 177.027 145.637C176.149 144.634 175.469 143.354 174.986 141.796C174.502 140.221 174.261 138.341 174.261 136.157V118.942H180.679V136.21C180.679 137.553 180.778 138.681 180.975 139.594C181.171 140.489 181.485 141.206 181.914 141.743C182.344 142.298 182.89 142.692 183.553 142.924C184.215 143.157 184.994 143.273 185.889 143.273C186.82 143.273 187.653 143.175 188.387 142.978C189.121 142.763 189.765 142.477 190.32 142.119C190.786 141.796 191.197 141.42 191.556 140.991C191.914 140.543 192.218 140.051 192.469 139.514V118.942H198.914V148ZM223.925 108.898H231.928L236.762 125.629L242.106 108.898H250.136V148H244.067V134.733L244.443 117.277L238.427 135.942H235.07L229.618 117.922L229.967 134.733V148H223.925V108.898ZM260.045 124.287V118.942H275.46V142.683H284V148H260.045V142.683H268.987V124.287H260.045Z"/>
</mask>
<path fill-rule="evenodd" clip-rule="evenodd" d="M84.688 128.234L84.7417 143.193C84.2046 143.837 83.5511 144.464 82.7812 145.073C82.0114 145.664 81.1431 146.192 80.1763 146.657C78.9588 147.248 77.634 147.705 76.2017 148.027C74.7694 148.367 73.2386 148.537 71.6094 148.537C70.1055 148.537 68.7 148.34 67.3931 147.946C66.0861 147.552 64.9045 146.997 63.8481 146.281C62.7918 145.565 61.8429 144.697 61.0015 143.676C60.1779 142.656 59.4886 141.519 58.9336 140.266C58.307 138.959 57.8325 137.517 57.5103 135.942C57.188 134.366 57.0179 132.71 57 130.974V125.979C57.0179 124.296 57.1701 122.684 57.4565 121.145C57.7609 119.605 58.1995 118.181 58.7725 116.875C59.3275 115.639 59.9899 114.511 60.7598 113.491C61.5296 112.47 62.4069 111.584 63.3916 110.832C64.4658 110.044 65.6475 109.436 66.9365 109.006C68.2435 108.576 69.6579 108.361 71.1797 108.361C73.2386 108.361 75.0648 108.639 76.6582 109.194C78.2516 109.749 79.6123 110.546 80.7402 111.584C81.8861 112.64 82.7902 113.92 83.4526 115.424C84.1151 116.91 84.5358 118.584 84.7148 120.446H78.377C78.2158 119.426 77.9741 118.504 77.6519 117.68C77.3296 116.839 76.8999 116.132 76.3628 115.559C75.7899 114.95 75.0827 114.484 74.2412 114.162C73.4176 113.84 72.4419 113.679 71.314 113.679C70.4904 113.679 69.7295 113.822 69.0312 114.108C68.333 114.377 67.7064 114.744 67.1514 115.209C66.5068 115.782 65.9429 116.481 65.4595 117.304C64.994 118.11 64.609 119.014 64.3047 120.017C64.0361 120.894 63.8392 121.834 63.7139 122.836C63.5885 123.839 63.5259 124.868 63.5259 125.925V130.974C63.5259 132.209 63.6064 133.382 63.7676 134.492C63.9466 135.602 64.2062 136.631 64.5464 137.58C64.8149 138.296 65.1283 138.968 65.4863 139.594C65.8623 140.221 66.3009 140.776 66.8022 141.259C67.4289 141.886 68.154 142.369 68.9775 142.709C69.819 143.05 70.7679 143.229 71.8242 143.247C72.4508 143.247 73.0864 143.211 73.731 143.139C74.3755 143.05 74.9932 142.915 75.584 142.736C76.1569 142.557 76.6851 142.333 77.1685 142.065C77.6519 141.778 78.0368 141.447 78.3232 141.071L78.3501 133.256H71.2603V128.234H84.688ZM113.61 146.872C111.623 147.982 109.215 148.537 106.386 148.537C104.238 148.537 102.268 148.179 100.478 147.463C98.7055 146.747 97.1837 145.753 95.9125 144.482C94.6413 143.229 93.6566 141.752 92.9584 140.051C92.2781 138.332 91.9379 136.479 91.9379 134.492V133.391C91.9379 131.117 92.296 129.058 93.0121 127.214C93.7283 125.37 94.713 123.794 95.9662 122.487C97.2195 121.18 98.6697 120.178 100.317 119.479C101.982 118.763 103.754 118.405 105.634 118.405C107.729 118.405 109.582 118.763 111.193 119.479C112.805 120.178 114.156 121.153 115.248 122.407C116.341 123.678 117.164 125.191 117.719 126.945C118.274 128.7 118.552 130.616 118.552 132.692V135.458H98.4101V135.593C98.607 136.864 98.9114 137.929 99.3231 138.789C99.7349 139.648 100.299 140.418 101.015 141.098C101.731 141.814 102.573 142.369 103.539 142.763C104.524 143.157 105.598 143.354 106.762 143.354C108.356 143.354 109.842 143.05 111.22 142.441C112.599 141.814 113.736 140.928 114.631 139.782L118.068 143.112C117.101 144.509 115.615 145.762 113.61 146.872ZM108.427 124.179C107.621 123.803 106.682 123.615 105.607 123.615C104.694 123.615 103.844 123.785 103.056 124.125C102.286 124.448 101.597 124.913 100.988 125.522C100.379 126.149 99.8692 126.901 99.4574 127.778C99.0456 128.655 98.7413 129.649 98.5443 130.759H112.214V130.329C112.214 129.488 112.062 128.655 111.757 127.832C111.453 126.99 111.023 126.256 110.468 125.629C109.931 125.021 109.251 124.537 108.427 124.179ZM165.319 113.088L146.117 142.683H165.883V148H138.437V143.703L157.584 114.243H138.598V108.898H165.265L165.319 113.088ZM198.914 148H193.086L192.71 143.945C191.726 145.395 190.526 146.532 189.112 147.355C187.697 148.161 186.122 148.564 184.385 148.564C182.863 148.564 181.476 148.331 180.223 147.866C178.987 147.382 177.922 146.639 177.027 145.637C176.149 144.634 175.469 143.354 174.986 141.796C174.502 140.221 174.261 138.341 174.261 136.157V118.942H180.679V136.21C180.679 137.553 180.778 138.681 180.975 139.594C181.171 140.489 181.485 141.206 181.914 141.743C182.344 142.298 182.89 142.692 183.553 142.924C184.215 143.157 184.994 143.273 185.889 143.273C186.82 143.273 187.653 143.175 188.387 142.978C189.121 142.763 189.765 142.477 190.32 142.119C190.786 141.796 191.197 141.42 191.556 140.991C191.914 140.543 192.218 140.051 192.469 139.514V118.942H198.914V148ZM223.925 108.898H231.928L236.762 125.629L242.106 108.898H250.136V148H244.067V134.733L244.443 117.277L238.427 135.942H235.07L229.618 117.922L229.967 134.733V148H223.925V108.898ZM260.045 124.287V118.942H275.46V142.683H284V148H260.045V142.683H268.987V124.287H260.045Z" fill="white"/>
<path d="M84.7417 143.193L87.0464 145.113L87.7456 144.274L87.7417 143.182L84.7417 143.193ZM84.688 128.234L87.688 128.224L87.6772 125.234H84.688V128.234ZM82.7812 145.073L84.6077 147.453L84.6249 147.439L84.642 147.426L82.7812 145.073ZM80.1763 146.657L78.8748 143.954L78.8665 143.958L80.1763 146.657ZM76.2017 148.027L75.5431 145.1L75.5258 145.104L75.5084 145.108L76.2017 148.027ZM61.0015 143.676L58.6669 145.56L58.6768 145.573L58.6868 145.585L61.0015 143.676ZM58.9336 140.266L61.6766 139.051L61.6583 139.009L61.6387 138.969L58.9336 140.266ZM57 130.974H54V130.989L54.0002 131.005L57 130.974ZM57 125.979L54.0002 125.947L54 125.963V125.979H57ZM57.4565 121.145L54.5135 120.563L54.5102 120.579L54.5072 120.596L57.4565 121.145ZM58.7725 116.875L56.036 115.645L56.0303 115.658L56.0249 115.67L58.7725 116.875ZM60.7598 113.491L58.3648 111.684L58.3648 111.684L60.7598 113.491ZM63.3916 110.832L61.6175 108.413L61.594 108.43L61.5709 108.448L63.3916 110.832ZM66.9365 109.006L65.9996 106.156L65.9878 106.16L66.9365 109.006ZM76.6582 109.194L77.645 106.361L76.6582 109.194ZM80.7402 111.584L82.7736 109.378L82.7722 109.377L80.7402 111.584ZM83.4526 115.424L80.7071 116.634L80.7126 116.646L83.4526 115.424ZM84.7148 120.446V123.446H88.0171L87.7011 120.159L84.7148 120.446ZM78.377 120.446L75.4137 120.914L75.8135 123.446H78.377V120.446ZM77.6519 117.68L74.8503 118.753L74.8542 118.763L74.8581 118.773L77.6519 117.68ZM76.3628 115.559L78.5514 113.507L78.5474 113.503L76.3628 115.559ZM74.2412 114.162L73.148 116.956L73.1581 116.96L73.1683 116.964L74.2412 114.162ZM69.0312 114.108L70.1082 116.908L70.1392 116.897L70.1699 116.884L69.0312 114.108ZM67.1514 115.209L65.2235 112.911L65.1905 112.939L65.1583 112.967L67.1514 115.209ZM65.4595 117.304L62.8722 115.786L62.867 115.794L62.8619 115.803L65.4595 117.304ZM64.3047 120.017L67.1733 120.895L67.1753 120.888L64.3047 120.017ZM63.7676 134.492L60.7987 134.923L60.8021 134.946L60.8059 134.969L63.7676 134.492ZM64.5464 137.58L61.7224 138.592L61.7297 138.613L61.7374 138.633L64.5464 137.58ZM65.4863 139.594L62.8816 141.083L62.8974 141.11L62.9138 141.138L65.4863 139.594ZM66.8022 141.259L68.9236 139.138L68.9043 139.119L68.8847 139.1L66.8022 141.259ZM68.9775 142.709L67.8323 145.482L67.8427 145.487L67.8532 145.491L68.9775 142.709ZM71.8242 143.247L71.7734 146.246L71.7988 146.247H71.8242V143.247ZM73.731 143.139L74.0622 146.121L74.103 146.116L74.1437 146.111L73.731 143.139ZM75.584 142.736L76.454 145.607L76.4664 145.604L76.4788 145.6L75.584 142.736ZM77.1685 142.065L78.6254 144.687L78.6619 144.667L78.6979 144.646L77.1685 142.065ZM78.3232 141.071L80.7095 142.889L81.3198 142.088L81.3232 141.082L78.3232 141.071ZM78.3501 133.256L81.3501 133.267L81.3604 130.256H78.3501V133.256ZM71.2603 133.256H68.2603V136.256H71.2603V133.256ZM71.2603 128.234V125.234H68.2603V128.234H71.2603ZM113.61 146.872L112.157 144.247L112.147 144.253L113.61 146.872ZM100.478 147.463L99.3541 150.244L99.3638 150.248L100.478 147.463ZM95.9125 144.482L98.0338 142.361L98.0263 142.353L98.0187 142.346L95.9125 144.482ZM92.9584 140.051L90.169 141.155L90.176 141.173L90.1832 141.19L92.9584 140.051ZM100.317 119.479L101.488 122.242L101.495 122.238L101.502 122.235L100.317 119.479ZM111.193 119.479L109.975 122.221L109.988 122.227L110 122.232L111.193 119.479ZM115.248 122.407L117.524 120.452L117.517 120.444L117.51 120.436L115.248 122.407ZM118.552 135.458V138.458H121.552V135.458H118.552ZM98.4101 135.458V132.458H95.4101V135.458H98.4101ZM98.4101 135.593H95.4101V135.824L95.4454 136.052L98.4101 135.593ZM101.015 141.098L103.136 138.977L103.109 138.95L103.081 138.923L101.015 141.098ZM103.539 142.763L102.408 145.541L102.416 145.545L102.425 145.549L103.539 142.763ZM111.22 142.441L112.432 145.185L112.447 145.179L112.462 145.172L111.22 142.441ZM114.631 139.782L116.718 137.628L114.321 135.305L112.267 137.935L114.631 139.782ZM118.068 143.112L120.535 144.82L121.983 142.728L120.156 140.958L118.068 143.112ZM108.427 124.179L107.158 126.898L107.195 126.915L107.231 126.93L108.427 124.179ZM103.056 124.125L104.214 126.893L104.23 126.886L104.245 126.88L103.056 124.125ZM100.988 125.522L98.8669 123.401L98.8515 123.416L98.8363 123.432L100.988 125.522ZM98.5443 130.759L95.5905 130.235L94.9652 133.759H98.5443V130.759ZM112.214 130.759V133.759H115.214V130.759H112.214ZM111.757 127.832L108.936 128.852L108.94 128.862L108.943 128.871L111.757 127.832ZM110.468 125.629L108.219 127.614L108.222 127.618L110.468 125.629ZM146.117 142.683L143.601 141.05L140.595 145.683H146.117V142.683ZM165.319 113.088L167.836 114.721L168.33 113.958L168.319 113.049L165.319 113.088ZM165.883 142.683H168.883V139.683H165.883V142.683ZM165.883 148V151H168.883V148H165.883ZM138.437 148H135.437V151H138.437V148ZM138.437 143.703L135.921 142.068L135.437 142.814V143.703H138.437ZM157.584 114.243L160.1 115.878L163.112 111.243H157.584V114.243ZM138.598 114.243H135.598V117.243H138.598V114.243ZM138.598 108.898V105.898H135.598V108.898H138.598ZM165.265 108.898L168.265 108.86L168.227 105.898H165.265V108.898ZM193.086 148L190.099 148.277L190.352 151H193.086V148ZM198.914 148V151H201.914V148H198.914ZM192.71 143.945L195.698 143.668L194.926 135.342L190.228 142.26L192.71 143.945ZM189.112 147.355L190.597 149.962L190.609 149.955L190.621 149.948L189.112 147.355ZM180.223 147.866L179.129 150.659L179.154 150.669L179.178 150.678L180.223 147.866ZM177.027 145.637L174.769 147.612L174.779 147.624L174.789 147.635L177.027 145.637ZM174.986 141.796L172.118 142.676L172.121 142.686L174.986 141.796ZM174.261 118.942V115.942H171.261V118.942H174.261ZM180.679 118.942H183.679V115.942H180.679V118.942ZM180.975 139.594L178.042 140.227L178.045 140.239L180.975 139.594ZM181.914 141.743L184.287 139.906L184.272 139.887L184.257 139.869L181.914 141.743ZM188.387 142.978L189.164 145.876L189.197 145.867L189.229 145.857L188.387 142.978ZM190.32 142.119L191.947 144.64L191.988 144.613L192.028 144.585L190.32 142.119ZM191.556 140.991L193.86 142.911L193.879 142.888L193.898 142.865L191.556 140.991ZM192.469 139.514L195.187 140.782L195.469 140.179V139.514H192.469ZM192.469 118.942V115.942H189.469V118.942H192.469ZM198.914 118.942H201.914V115.942H198.914V118.942ZM231.928 108.898L234.81 108.066L234.184 105.898H231.928V108.898ZM223.925 108.898V105.898H220.925V108.898H223.925ZM236.762 125.629L233.88 126.462L236.618 135.939L239.62 126.542L236.762 125.629ZM242.106 108.898V105.898H239.915L239.248 107.986L242.106 108.898ZM250.136 108.898H253.136V105.898H250.136V108.898ZM250.136 148V151H253.136V148H250.136ZM244.067 148H241.067V151H244.067V148ZM244.067 134.733L241.067 134.669L241.067 134.701V134.733H244.067ZM244.443 117.277L247.442 117.342L241.587 116.357L244.443 117.277ZM238.427 135.942V138.942H240.612L241.282 136.862L238.427 135.942ZM235.07 135.942L232.199 136.811L232.843 138.942H235.07V135.942ZM229.618 117.922L232.49 117.053L226.619 117.984L229.618 117.922ZM229.967 134.733H232.967V134.702L232.967 134.671L229.967 134.733ZM229.967 148V151H232.967V148H229.967ZM223.925 148H220.925V151H223.925V148ZM260.045 118.942V115.942H257.045V118.942H260.045ZM260.045 124.287H257.045V127.287H260.045V124.287ZM275.46 118.942H278.46V115.942H275.46V118.942ZM275.46 142.683H272.46V145.683H275.46V142.683ZM284 142.683H287V139.683H284V142.683ZM284 148V151H287V148H284ZM260.045 148H257.045V151H260.045V148ZM260.045 142.683V139.683H257.045V142.683H260.045ZM268.987 142.683V145.683H271.987V142.683H268.987ZM268.987 124.287H271.987V121.287H268.987V124.287ZM87.7417 143.182L87.688 128.224L81.688 128.245L81.7417 143.204L87.7417 143.182ZM84.642 147.426C85.5477 146.71 86.3565 145.941 87.0464 145.113L82.437 141.272C82.0527 141.734 81.5545 142.218 80.9205 142.72L84.642 147.426ZM81.4777 149.36C82.6109 148.815 83.6583 148.181 84.6077 147.453L80.9548 142.693C80.3645 143.146 79.6752 143.569 78.8748 143.954L81.4777 149.36ZM76.8602 150.954C78.4987 150.585 80.0443 150.056 81.4861 149.356L78.8665 143.958C77.8734 144.44 76.7692 144.824 75.5431 145.1L76.8602 150.954ZM71.6094 151.537C73.4476 151.537 75.2128 151.345 76.8949 150.946L75.5084 145.108C74.3259 145.389 73.0297 145.537 71.6094 145.537V151.537ZM66.5274 150.819C68.1421 151.305 69.8418 151.537 71.6094 151.537V145.537C70.3692 145.537 69.258 145.375 68.2587 145.074L66.5274 150.819ZM62.1647 148.764C63.4892 149.662 64.9499 150.343 66.5274 150.819L68.2587 145.074C67.2223 144.762 66.3197 144.332 65.5316 143.798L62.1647 148.764ZM58.6868 145.585C59.7036 146.818 60.8631 147.882 62.1647 148.764L65.5316 143.798C64.7205 143.248 63.9823 142.576 63.3161 141.768L58.6868 145.585ZM56.1905 141.48C56.847 142.963 57.6712 144.327 58.6669 145.56L63.3361 141.792C62.6846 140.985 62.1302 140.075 61.6766 139.051L56.1905 141.48ZM54.5711 136.543C54.9373 138.333 55.4848 140.012 56.2284 141.563L61.6387 138.969C61.1292 137.906 60.7277 136.702 60.4494 135.341L54.5711 136.543ZM54.0002 131.005C54.0199 132.918 54.2075 134.766 54.5711 136.543L60.4494 135.341C60.1684 133.967 60.0159 132.503 59.9998 130.943L54.0002 131.005ZM54 125.979V130.974H60V125.979H54ZM54.5072 120.596C54.1867 122.318 54.0198 124.103 54.0002 125.947L59.9998 126.01C60.016 124.488 60.1534 123.05 60.4059 121.693L54.5072 120.596ZM56.0249 115.67C55.3561 117.196 54.856 118.83 54.5135 120.563L60.3996 121.726C60.6658 120.38 61.043 119.167 61.5201 118.079L56.0249 115.67ZM58.3648 111.684C57.4521 112.894 56.6775 114.217 56.036 115.645L61.509 118.104C61.9775 117.061 62.5277 116.129 63.1547 115.297L58.3648 111.684ZM61.5709 108.448C60.3626 109.37 59.2937 110.453 58.3648 111.684L63.1547 115.297C63.7656 114.488 64.4512 113.798 65.2123 113.216L61.5709 108.448ZM65.9878 106.16C64.4091 106.686 62.9481 107.437 61.6175 108.413L65.1657 113.251C65.9836 112.651 66.8858 112.185 67.8852 111.852L65.9878 106.16ZM71.1797 105.361C69.3731 105.361 67.6392 105.617 65.9996 106.156L67.8735 111.856C68.8478 111.535 69.9427 111.361 71.1797 111.361V105.361ZM77.645 106.361C75.6732 105.674 73.5031 105.361 71.1797 105.361V111.361C72.9741 111.361 74.4563 111.604 75.6714 112.027L77.645 106.361ZM82.7722 109.377C81.3132 108.034 79.5867 107.037 77.645 106.361L75.6714 112.027C76.9165 112.461 77.9114 113.057 78.7083 113.791L82.7722 109.377ZM86.1981 114.215C85.3786 112.354 84.2392 110.729 82.7736 109.378L78.7068 113.79C79.5329 114.551 80.2018 115.486 80.7072 116.634L86.1981 114.215ZM87.7011 120.159C87.4956 118.022 87.0052 116.026 86.1927 114.203L80.7126 116.646C81.2249 117.795 81.576 119.147 81.7286 120.733L87.7011 120.159ZM78.377 123.446H84.7148V117.446H78.377V123.446ZM74.8581 118.773C75.0896 119.365 75.2808 120.073 75.4137 120.914L81.3402 119.978C81.1508 118.779 80.8587 117.643 80.4456 116.587L74.8581 118.773ZM74.1742 117.61C74.4093 117.861 74.6467 118.222 74.8503 118.753L80.4534 116.607C80.0125 115.456 79.3906 114.402 78.5514 113.507L74.1742 117.61ZM73.1683 116.964C73.6213 117.137 73.9386 117.36 74.1782 117.615L78.5474 113.503C77.6411 112.54 76.5441 111.832 75.3142 111.361L73.1683 116.964ZM71.314 116.679C72.1664 116.679 72.7541 116.802 73.148 116.956L75.3344 111.368C74.0812 110.878 72.7174 110.679 71.314 110.679V116.679ZM70.1699 116.884C70.4751 116.759 70.8451 116.679 71.314 116.679V110.679C70.1357 110.679 68.9839 110.885 67.8926 111.333L70.1699 116.884ZM69.0792 117.508C69.3719 117.263 69.7091 117.062 70.1082 116.908L67.9543 111.308C66.9569 111.692 66.0408 112.225 65.2235 112.911L69.0792 117.508ZM68.0467 118.823C68.3881 118.241 68.7584 117.795 69.1445 117.452L65.1583 112.967C64.2553 113.77 63.4977 114.72 62.8722 115.786L68.0467 118.823ZM67.1753 120.888C67.4213 120.078 67.7197 119.389 68.0571 118.805L62.8619 115.803C62.2683 116.831 61.7968 117.95 61.434 119.145L67.1753 120.888ZM66.6907 123.209C66.7967 122.36 66.9601 121.591 67.1733 120.895L61.4361 119.138C61.1122 120.197 60.8817 121.307 60.737 122.464L66.6907 123.209ZM66.5259 125.925C66.5259 124.987 66.5815 124.082 66.6907 123.209L60.737 122.464C60.5956 123.596 60.5259 124.75 60.5259 125.925H66.5259ZM66.5259 130.974V125.925H60.5259V130.974H66.5259ZM66.7365 134.061C66.598 133.107 66.5259 132.079 66.5259 130.974H60.5259C60.5259 132.339 60.6149 133.656 60.7987 134.923L66.7365 134.061ZM67.3704 136.568C67.0991 135.811 66.8823 134.962 66.7293 134.014L60.8059 134.969C61.0109 136.241 61.3133 137.451 61.7224 138.592L67.3704 136.568ZM68.0911 138.106C67.8172 137.627 67.5709 137.101 67.3554 136.527L61.7374 138.633C62.059 139.491 62.4393 140.309 62.8816 141.083L68.0911 138.106ZM68.8847 139.1C68.5822 138.808 68.3059 138.463 68.0588 138.051L62.9138 141.138C63.4187 141.979 64.0197 142.744 64.7198 143.419L68.8847 139.1ZM70.1228 139.937C69.6622 139.746 69.2693 139.484 68.9236 139.138L64.6809 143.381C65.5884 144.288 66.6457 144.992 67.8323 145.482L70.1228 139.937ZM71.8751 140.247C71.1275 140.234 70.5509 140.11 70.1019 139.928L67.8532 145.491C69.0871 145.99 70.4083 146.223 71.7734 146.246L71.8751 140.247ZM73.3997 140.158C72.8613 140.217 72.3364 140.247 71.8242 140.247V146.247C72.5653 146.247 73.3115 146.204 74.0622 146.121L73.3997 140.158ZM74.714 139.865C74.2805 139.997 73.8163 140.099 73.3182 140.168L74.1437 146.111C74.9347 146.001 75.7058 145.834 76.454 145.607L74.714 139.865ZM75.7115 139.442C75.4213 139.604 75.0834 139.75 74.6892 139.873L76.4788 145.6C77.2304 145.365 77.9489 145.063 78.6254 144.687L75.7115 139.442ZM75.9369 139.253C75.9241 139.27 75.8518 139.358 75.6391 139.484L78.6979 144.646C79.4519 144.199 80.1495 143.624 80.7095 142.889L75.9369 139.253ZM75.3501 133.246L75.3233 141.061L81.3232 141.082L81.3501 133.267L75.3501 133.246ZM71.2603 136.256H78.3501V130.256H71.2603V136.256ZM68.2603 128.234V133.256H74.2603V128.234H68.2603ZM84.688 125.234H71.2603V131.234H84.688V125.234ZM106.386 151.537C109.604 151.537 112.543 150.905 115.073 149.491L112.147 144.253C110.703 145.06 108.825 145.537 106.386 145.537V151.537ZM99.3638 150.248C101.547 151.122 103.9 151.537 106.386 151.537V145.537C104.576 145.537 102.99 145.237 101.592 144.677L99.3638 150.248ZM93.7912 146.603C95.3649 148.177 97.2322 149.387 99.3541 150.244L101.602 144.681C100.179 144.106 99.0024 143.329 98.0338 142.361L93.7912 146.603ZM90.1832 141.19C91.0302 143.253 92.2385 145.073 93.8063 146.618L98.0187 142.346C97.0442 141.385 96.283 140.25 95.7336 138.911L90.1832 141.19ZM88.9379 134.492C88.9379 136.828 89.3393 139.059 90.169 141.155L95.7478 138.947C95.2168 137.605 94.9379 136.13 94.9379 134.492H88.9379ZM88.9379 133.391V134.492H94.9379V133.391H88.9379ZM90.2156 126.128C89.3464 128.366 88.9379 130.8 88.9379 133.391H94.9379C94.9379 131.434 95.2455 129.75 95.8086 128.3L90.2156 126.128ZM93.8009 120.411C92.2497 122.029 91.0615 123.95 90.2156 126.128L95.8086 128.3C96.395 126.79 97.1762 125.56 98.1316 124.564L93.8009 120.411ZM99.1459 116.717C97.1196 117.576 95.3322 118.814 93.8009 120.411L98.1316 124.564C99.1068 123.547 100.22 122.779 101.488 122.242L99.1459 116.717ZM105.634 115.405C103.362 115.405 101.185 115.84 99.1315 116.724L101.502 122.235C102.779 121.686 104.146 121.405 105.634 121.405V115.405ZM112.412 116.738C110.352 115.822 108.071 115.405 105.634 115.405V121.405C107.387 121.405 108.812 121.704 109.975 122.221L112.412 116.738ZM117.51 120.436C116.108 118.827 114.384 117.593 112.386 116.727L110 122.232C111.225 122.763 112.205 123.48 112.987 124.378L117.51 120.436ZM120.579 126.041C119.914 123.938 118.905 122.059 117.524 120.452L112.973 124.362C113.776 125.297 114.414 126.443 114.859 127.85L120.579 126.041ZM121.552 132.692C121.552 130.347 121.238 128.123 120.579 126.041L114.859 127.85C115.31 129.277 115.552 130.884 115.552 132.692H121.552ZM121.552 135.458V132.692H115.552V135.458H121.552ZM98.4101 138.458H118.552V132.458H98.4101V138.458ZM101.41 135.593V135.458H95.4101V135.593H101.41ZM102.029 137.492C101.779 136.972 101.541 136.209 101.375 135.133L95.4454 136.052C95.6727 137.519 96.0435 138.887 96.6177 140.085L102.029 137.492ZM103.081 138.923C102.62 138.485 102.277 138.01 102.029 137.492L96.6177 140.085C97.1931 141.286 97.9777 142.351 98.9488 143.273L103.081 138.923ZM104.671 139.985C104.063 139.737 103.561 139.401 103.136 138.977L98.8937 143.219C99.9014 144.227 101.082 145.001 102.408 145.541L104.671 139.985ZM106.762 140.354C105.943 140.354 105.251 140.217 104.654 139.978L102.425 145.549C103.797 146.097 105.254 146.354 106.762 146.354V140.354ZM110.008 139.697C109.033 140.127 107.963 140.354 106.762 140.354V146.354C108.748 146.354 110.65 145.972 112.432 145.185L110.008 139.697ZM112.267 137.935C111.682 138.684 110.936 139.275 109.979 139.71L112.462 145.172C114.261 144.354 115.79 143.172 116.995 141.629L112.267 137.935ZM120.156 140.958L116.718 137.628L112.543 141.937L115.981 145.267L120.156 140.958ZM115.063 149.497C117.338 148.237 119.23 146.705 120.535 144.82L115.602 141.405C114.973 142.313 113.893 143.287 112.157 144.247L115.063 149.497ZM105.607 126.615C106.333 126.615 106.824 126.742 107.158 126.898L109.696 121.461C108.419 120.865 107.03 120.615 105.607 120.615V126.615ZM104.245 126.88C104.634 126.712 105.077 126.615 105.607 126.615V120.615C104.312 120.615 103.054 120.859 101.867 121.371L104.245 126.88ZM103.11 127.643C103.451 127.302 103.816 127.06 104.214 126.893L101.898 121.358C100.756 121.836 99.7426 122.525 98.8669 123.401L103.11 127.643ZM102.173 129.053C102.459 128.444 102.787 127.976 103.14 127.612L98.8363 123.432C97.9718 124.322 97.2796 125.357 96.7417 126.503L102.173 129.053ZM101.498 131.283C101.656 130.391 101.89 129.656 102.173 129.053L96.7417 126.503C96.2014 127.654 95.8262 128.906 95.5905 130.235L101.498 131.283ZM112.214 127.759H98.5443V133.759H112.214V127.759ZM109.214 130.329V130.759H115.214V130.329H109.214ZM108.943 128.871C109.13 129.377 109.214 129.858 109.214 130.329H115.214C115.214 129.117 114.993 127.933 114.571 126.792L108.943 128.871ZM108.222 127.618C108.509 127.942 108.752 128.342 108.936 128.852L114.578 126.811C114.154 125.638 113.537 124.57 112.714 123.64L108.222 127.618ZM107.231 126.93C107.695 127.132 108.002 127.369 108.219 127.614L112.718 123.645C111.86 122.673 110.807 121.942 109.623 121.428L107.231 126.93ZM148.634 144.315L167.836 114.721L162.802 111.455L143.601 141.05L148.634 144.315ZM165.883 139.683H146.117V145.683H165.883V139.683ZM168.883 148V142.683H162.883V148H168.883ZM138.437 151H165.883V145H138.437V151ZM135.437 143.703V148H141.437V143.703H135.437ZM155.069 112.608L135.921 142.068L140.952 145.338L160.1 115.878L155.069 112.608ZM138.598 117.243H157.584V111.243H138.598V117.243ZM135.598 108.898V114.243H141.598V108.898H135.598ZM165.265 105.898H138.598V111.898H165.265V105.898ZM168.319 113.049L168.265 108.86L162.265 108.937L162.319 113.126L168.319 113.049ZM193.086 151H198.914V145H193.086V151ZM189.723 144.222L190.099 148.277L196.074 147.723L195.698 143.668L189.723 144.222ZM190.621 149.948C192.451 148.883 193.974 147.425 195.192 145.63L190.228 142.26C189.478 143.365 188.601 144.181 187.602 144.763L190.621 149.948ZM184.385 151.564C186.606 151.564 188.699 151.043 190.597 149.962L187.627 144.749C186.695 145.279 185.637 145.564 184.385 145.564V151.564ZM179.178 150.678C180.808 151.284 182.556 151.564 184.385 151.564V145.564C183.171 145.564 182.143 145.379 181.267 145.053L179.178 150.678ZM174.789 147.635C175.994 148.984 177.449 150.002 179.129 150.659L181.316 145.072C180.525 144.763 179.85 144.295 179.265 143.639L174.789 147.635ZM172.121 142.686C172.701 144.556 173.561 146.232 174.769 147.612L179.284 143.661C178.738 143.037 178.237 142.152 177.851 140.907L172.121 142.686ZM171.261 136.157C171.261 138.548 171.524 140.74 172.118 142.676L177.854 140.916C177.481 139.701 177.261 138.134 177.261 136.157H171.261ZM171.261 118.942V136.157H177.261V118.942H171.261ZM180.679 115.942H174.261V121.942H180.679V115.942ZM183.679 136.21V118.942H177.679V136.21H183.679ZM183.907 138.962C183.77 138.325 183.679 137.424 183.679 136.21H177.679C177.679 137.682 177.785 139.037 178.042 140.227L183.907 138.962ZM184.257 139.869C184.194 139.79 184.034 139.538 183.904 138.95L178.045 140.239C178.309 141.441 178.775 142.621 179.572 143.617L184.257 139.869ZM184.547 140.094C184.43 140.053 184.362 140.004 184.287 139.906L179.542 143.579C180.326 144.591 181.351 145.33 182.558 145.755L184.547 140.094ZM185.889 140.273C185.244 140.273 184.816 140.188 184.547 140.094L182.558 145.755C183.614 146.126 184.744 146.273 185.889 146.273V140.273ZM187.609 140.08C187.178 140.196 186.614 140.273 185.889 140.273V146.273C187.026 146.273 188.127 146.154 189.164 145.876L187.609 140.08ZM188.694 139.598C188.416 139.777 188.044 139.953 187.544 140.099L189.229 145.857C190.198 145.574 191.114 145.177 191.947 144.64L188.694 139.598ZM189.251 139.07C189.068 139.289 188.858 139.482 188.613 139.652L192.028 144.585C192.713 144.111 193.327 143.552 193.86 142.911L189.251 139.07ZM189.75 138.245C189.597 138.573 189.417 138.861 189.213 139.117L193.898 142.865C194.41 142.225 194.839 141.528 195.187 140.782L189.75 138.245ZM189.469 118.942V139.514H195.469V118.942H189.469ZM198.914 115.942H192.469V121.942H198.914V115.942ZM201.914 148V118.942H195.914V148H201.914ZM231.928 105.898H223.925V111.898H231.928V105.898ZM239.644 124.797L234.81 108.066L229.046 109.731L233.88 126.462L239.644 124.797ZM239.248 107.986L233.904 124.717L239.62 126.542L244.964 109.811L239.248 107.986ZM250.136 105.898H242.106V111.898H250.136V105.898ZM253.136 148V108.898H247.136V148H253.136ZM244.067 151H250.136V145H244.067V151ZM241.067 134.733V148H247.067V134.733H241.067ZM241.443 117.213L241.067 134.669L247.066 134.798L247.442 117.342L241.443 117.213ZM241.282 136.862L247.298 118.198L241.587 116.357L235.572 135.022L241.282 136.862ZM235.07 138.942H238.427V132.942H235.07V138.942ZM226.747 118.791L232.199 136.811L237.941 135.073L232.49 117.053L226.747 118.791ZM232.967 134.671L232.618 117.86L226.619 117.984L226.968 134.796L232.967 134.671ZM232.967 148V134.733H226.967V148H232.967ZM223.925 151H229.967V145H223.925V151ZM220.925 108.898V148H226.925V108.898H220.925ZM257.045 118.942V124.287H263.045V118.942H257.045ZM275.46 115.942H260.045V121.942H275.46V115.942ZM278.46 142.683V118.942H272.46V142.683H278.46ZM284 139.683H275.46V145.683H284V139.683ZM287 148V142.683H281V148H287ZM260.045 151H284V145H260.045V151ZM257.045 142.683V148H263.045V142.683H257.045ZM268.987 139.683H260.045V145.683H268.987V139.683ZM265.987 124.287V142.683H271.987V124.287H265.987ZM260.045 127.287H268.987V121.287H260.045V127.287Z" fill="#1B1B1B" mask="url(#path-3-outside-1)"/>
<mask id="path-5-outside-2" maskUnits="userSpaceOnUse" x="54" y="105.361" width="233" height="47" fill="black">
<rect fill="white" x="54" y="105.361" width="233" height="47"/>
<path fill-rule="evenodd" clip-rule="evenodd" d="M84.688 128.234L84.7417 143.193C84.2046 143.837 83.5511 144.464 82.7812 145.073C82.0114 145.664 81.1431 146.192 80.1763 146.657C78.9588 147.248 77.634 147.705 76.2017 148.027C74.7694 148.367 73.2386 148.537 71.6094 148.537C70.1055 148.537 68.7 148.34 67.3931 147.946C66.0861 147.552 64.9045 146.997 63.8481 146.281C62.7918 145.565 61.8429 144.697 61.0015 143.676C60.1779 142.656 59.4886 141.519 58.9336 140.266C58.307 138.959 57.8325 137.517 57.5103 135.942C57.188 134.366 57.0179 132.71 57 130.974V125.979C57.0179 124.296 57.1701 122.684 57.4565 121.145C57.7609 119.605 58.1995 118.181 58.7725 116.875C59.3275 115.639 59.9899 114.511 60.7598 113.491C61.5296 112.47 62.4069 111.584 63.3916 110.832C64.4658 110.044 65.6475 109.436 66.9365 109.006C68.2435 108.576 69.6579 108.361 71.1797 108.361C73.2386 108.361 75.0648 108.639 76.6582 109.194C78.2516 109.749 79.6123 110.546 80.7402 111.584C81.8861 112.64 82.7902 113.92 83.4526 115.424C84.1151 116.91 84.5358 118.584 84.7148 120.446H78.377C78.2158 119.426 77.9741 118.504 77.6519 117.68C77.3296 116.839 76.8999 116.132 76.3628 115.559C75.7899 114.95 75.0827 114.484 74.2412 114.162C73.4176 113.84 72.4419 113.679 71.314 113.679C70.4904 113.679 69.7295 113.822 69.0312 114.108C68.333 114.377 67.7064 114.744 67.1514 115.209C66.5068 115.782 65.9429 116.481 65.4595 117.304C64.994 118.11 64.609 119.014 64.3047 120.017C64.0361 120.894 63.8392 121.834 63.7139 122.836C63.5885 123.839 63.5259 124.868 63.5259 125.925V130.974C63.5259 132.209 63.6064 133.382 63.7676 134.492C63.9466 135.602 64.2062 136.631 64.5464 137.58C64.8149 138.296 65.1283 138.968 65.4863 139.594C65.8623 140.221 66.3009 140.776 66.8022 141.259C67.4289 141.886 68.154 142.369 68.9775 142.709C69.819 143.05 70.7679 143.229 71.8242 143.247C72.4508 143.247 73.0864 143.211 73.731 143.139C74.3755 143.05 74.9932 142.915 75.584 142.736C76.1569 142.557 76.6851 142.333 77.1685 142.065C77.6519 141.778 78.0368 141.447 78.3232 141.071L78.3501 133.256H71.2603V128.234H84.688ZM113.61 146.872C111.623 147.982 109.215 148.537 106.386 148.537C104.238 148.537 102.268 148.179 100.478 147.463C98.7055 146.747 97.1837 145.753 95.9125 144.482C94.6413 143.229 93.6566 141.752 92.9584 140.051C92.2781 138.332 91.9379 136.479 91.9379 134.492V133.391C91.9379 131.117 92.296 129.058 93.0121 127.214C93.7283 125.37 94.713 123.794 95.9662 122.487C97.2195 121.18 98.6697 120.178 100.317 119.479C101.982 118.763 103.754 118.405 105.634 118.405C107.729 118.405 109.582 118.763 111.193 119.479C112.805 120.178 114.156 121.153 115.248 122.407C116.341 123.678 117.164 125.191 117.719 126.945C118.274 128.7 118.552 130.616 118.552 132.692V135.458H98.4101V135.593C98.607 136.864 98.9114 137.929 99.3231 138.789C99.7349 139.648 100.299 140.418 101.015 141.098C101.731 141.814 102.573 142.369 103.539 142.763C104.524 143.157 105.598 143.354 106.762 143.354C108.356 143.354 109.842 143.05 111.22 142.441C112.599 141.814 113.736 140.928 114.631 139.782L118.068 143.112C117.101 144.509 115.615 145.762 113.61 146.872ZM108.427 124.179C107.621 123.803 106.682 123.615 105.607 123.615C104.694 123.615 103.844 123.785 103.056 124.125C102.286 124.448 101.597 124.913 100.988 125.522C100.379 126.149 99.8692 126.901 99.4574 127.778C99.0456 128.655 98.7413 129.649 98.5443 130.759H112.214V130.329C112.214 129.488 112.062 128.655 111.757 127.832C111.453 126.99 111.023 126.256 110.468 125.629C109.931 125.021 109.251 124.537 108.427 124.179ZM165.319 113.088L146.117 142.683H165.883V148H138.437V143.703L157.584 114.243H138.598V108.898H165.265L165.319 113.088ZM198.914 148H193.086L192.71 143.945C191.726 145.395 190.526 146.532 189.112 147.355C187.697 148.161 186.122 148.564 184.385 148.564C182.863 148.564 181.476 148.331 180.223 147.866C178.987 147.382 177.922 146.639 177.027 145.637C176.149 144.634 175.469 143.354 174.986 141.796C174.502 140.221 174.261 138.341 174.261 136.157V118.942H180.679V136.21C180.679 137.553 180.778 138.681 180.975 139.594C181.171 140.489 181.485 141.206 181.914 141.743C182.344 142.298 182.89 142.692 183.553 142.924C184.215 143.157 184.994 143.273 185.889 143.273C186.82 143.273 187.653 143.175 188.387 142.978C189.121 142.763 189.765 142.477 190.32 142.119C190.786 141.796 191.197 141.42 191.556 140.991C191.914 140.543 192.218 140.051 192.469 139.514V118.942H198.914V148ZM223.925 108.898H231.928L236.762 125.629L242.106 108.898H250.136V148H244.067V134.733L244.443 117.277L238.427 135.942H235.07L229.618 117.922L229.967 134.733V148H223.925V108.898ZM260.045 124.287V118.942H275.46V142.683H284V148H260.045V142.683H268.987V124.287H260.045Z"/>
</mask>
<path fill-rule="evenodd" clip-rule="evenodd" d="M84.688 128.234L84.7417 143.193C84.2046 143.837 83.5511 144.464 82.7812 145.073C82.0114 145.664 81.1431 146.192 80.1763 146.657C78.9588 147.248 77.634 147.705 76.2017 148.027C74.7694 148.367 73.2386 148.537 71.6094 148.537C70.1055 148.537 68.7 148.34 67.3931 147.946C66.0861 147.552 64.9045 146.997 63.8481 146.281C62.7918 145.565 61.8429 144.697 61.0015 143.676C60.1779 142.656 59.4886 141.519 58.9336 140.266C58.307 138.959 57.8325 137.517 57.5103 135.942C57.188 134.366 57.0179 132.71 57 130.974V125.979C57.0179 124.296 57.1701 122.684 57.4565 121.145C57.7609 119.605 58.1995 118.181 58.7725 116.875C59.3275 115.639 59.9899 114.511 60.7598 113.491C61.5296 112.47 62.4069 111.584 63.3916 110.832C64.4658 110.044 65.6475 109.436 66.9365 109.006C68.2435 108.576 69.6579 108.361 71.1797 108.361C73.2386 108.361 75.0648 108.639 76.6582 109.194C78.2516 109.749 79.6123 110.546 80.7402 111.584C81.8861 112.64 82.7902 113.92 83.4526 115.424C84.1151 116.91 84.5358 118.584 84.7148 120.446H78.377C78.2158 119.426 77.9741 118.504 77.6519 117.68C77.3296 116.839 76.8999 116.132 76.3628 115.559C75.7899 114.95 75.0827 114.484 74.2412 114.162C73.4176 113.84 72.4419 113.679 71.314 113.679C70.4904 113.679 69.7295 113.822 69.0312 114.108C68.333 114.377 67.7064 114.744 67.1514 115.209C66.5068 115.782 65.9429 116.481 65.4595 117.304C64.994 118.11 64.609 119.014 64.3047 120.017C64.0361 120.894 63.8392 121.834 63.7139 122.836C63.5885 123.839 63.5259 124.868 63.5259 125.925V130.974C63.5259 132.209 63.6064 133.382 63.7676 134.492C63.9466 135.602 64.2062 136.631 64.5464 137.58C64.8149 138.296 65.1283 138.968 65.4863 139.594C65.8623 140.221 66.3009 140.776 66.8022 141.259C67.4289 141.886 68.154 142.369 68.9775 142.709C69.819 143.05 70.7679 143.229 71.8242 143.247C72.4508 143.247 73.0864 143.211 73.731 143.139C74.3755 143.05 74.9932 142.915 75.584 142.736C76.1569 142.557 76.6851 142.333 77.1685 142.065C77.6519 141.778 78.0368 141.447 78.3232 141.071L78.3501 133.256H71.2603V128.234H84.688ZM113.61 146.872C111.623 147.982 109.215 148.537 106.386 148.537C104.238 148.537 102.268 148.179 100.478 147.463C98.7055 146.747 97.1837 145.753 95.9125 144.482C94.6413 143.229 93.6566 141.752 92.9584 140.051C92.2781 138.332 91.9379 136.479 91.9379 134.492V133.391C91.9379 131.117 92.296 129.058 93.0121 127.214C93.7283 125.37 94.713 123.794 95.9662 122.487C97.2195 121.18 98.6697 120.178 100.317 119.479C101.982 118.763 103.754 118.405 105.634 118.405C107.729 118.405 109.582 118.763 111.193 119.479C112.805 120.178 114.156 121.153 115.248 122.407C116.341 123.678 117.164 125.191 117.719 126.945C118.274 128.7 118.552 130.616 118.552 132.692V135.458H98.4101V135.593C98.607 136.864 98.9114 137.929 99.3231 138.789C99.7349 139.648 100.299 140.418 101.015 141.098C101.731 141.814 102.573 142.369 103.539 142.763C104.524 143.157 105.598 143.354 106.762 143.354C108.356 143.354 109.842 143.05 111.22 142.441C112.599 141.814 113.736 140.928 114.631 139.782L118.068 143.112C117.101 144.509 115.615 145.762 113.61 146.872ZM108.427 124.179C107.621 123.803 106.682 123.615 105.607 123.615C104.694 123.615 103.844 123.785 103.056 124.125C102.286 124.448 101.597 124.913 100.988 125.522C100.379 126.149 99.8692 126.901 99.4574 127.778C99.0456 128.655 98.7413 129.649 98.5443 130.759H112.214V130.329C112.214 129.488 112.062 128.655 111.757 127.832C111.453 126.99 111.023 126.256 110.468 125.629C109.931 125.021 109.251 124.537 108.427 124.179ZM165.319 113.088L146.117 142.683H165.883V148H138.437V143.703L157.584 114.243H138.598V108.898H165.265L165.319 113.088ZM198.914 148H193.086L192.71 143.945C191.726 145.395 190.526 146.532 189.112 147.355C187.697 148.161 186.122 148.564 184.385 148.564C182.863 148.564 181.476 148.331 180.223 147.866C178.987 147.382 177.922 146.639 177.027 145.637C176.149 144.634 175.469 143.354 174.986 141.796C174.502 140.221 174.261 138.341 174.261 136.157V118.942H180.679V136.21C180.679 137.553 180.778 138.681 180.975 139.594C181.171 140.489 181.485 141.206 181.914 141.743C182.344 142.298 182.89 142.692 183.553 142.924C184.215 143.157 184.994 143.273 185.889 143.273C186.82 143.273 187.653 143.175 188.387 142.978C189.121 142.763 189.765 142.477 190.32 142.119C190.786 141.796 191.197 141.42 191.556 140.991C191.914 140.543 192.218 140.051 192.469 139.514V118.942H198.914V148ZM223.925 108.898H231.928L236.762 125.629L242.106 108.898H250.136V148H244.067V134.733L244.443 117.277L238.427 135.942H235.07L229.618 117.922L229.967 134.733V148H223.925V108.898ZM260.045 124.287V118.942H275.46V142.683H284V148H260.045V142.683H268.987V124.287H260.045Z" fill="white"/>
<path d="M84.7417 143.193L87.0464 145.113L87.7456 144.274L87.7417 143.182L84.7417 143.193ZM84.688 128.234L87.688 128.224L87.6772 125.234H84.688V128.234ZM82.7812 145.073L84.6077 147.453L84.6249 147.439L84.642 147.426L82.7812 145.073ZM80.1763 146.657L78.8748 143.954L78.8665 143.958L80.1763 146.657ZM76.2017 148.027L75.5431 145.1L75.5258 145.104L75.5084 145.108L76.2017 148.027ZM61.0015 143.676L58.6669 145.56L58.6768 145.573L58.6868 145.585L61.0015 143.676ZM58.9336 140.266L61.6766 139.051L61.6583 139.009L61.6387 138.969L58.9336 140.266ZM57 130.974H54V130.989L54.0002 131.005L57 130.974ZM57 125.979L54.0002 125.947L54 125.963V125.979H57ZM57.4565 121.145L54.5135 120.563L54.5102 120.579L54.5072 120.596L57.4565 121.145ZM58.7725 116.875L56.036 115.645L56.0303 115.658L56.0249 115.67L58.7725 116.875ZM60.7598 113.491L58.3648 111.684L58.3648 111.684L60.7598 113.491ZM63.3916 110.832L61.6175 108.413L61.594 108.43L61.5709 108.448L63.3916 110.832ZM66.9365 109.006L65.9996 106.156L65.9878 106.16L66.9365 109.006ZM76.6582 109.194L77.645 106.361L76.6582 109.194ZM80.7402 111.584L82.7736 109.378L82.7722 109.377L80.7402 111.584ZM83.4526 115.424L80.7071 116.634L80.7126 116.646L83.4526 115.424ZM84.7148 120.446V123.446H88.0171L87.7011 120.159L84.7148 120.446ZM78.377 120.446L75.4137 120.914L75.8135 123.446H78.377V120.446ZM77.6519 117.68L74.8503 118.753L74.8542 118.763L74.8581 118.773L77.6519 117.68ZM76.3628 115.559L78.5514 113.507L78.5474 113.503L76.3628 115.559ZM74.2412 114.162L73.148 116.956L73.1581 116.96L73.1683 116.964L74.2412 114.162ZM69.0312 114.108L70.1082 116.908L70.1392 116.897L70.1699 116.884L69.0312 114.108ZM67.1514 115.209L65.2235 112.911L65.1905 112.939L65.1583 112.967L67.1514 115.209ZM65.4595 117.304L62.8722 115.786L62.867 115.794L62.8619 115.803L65.4595 117.304ZM64.3047 120.017L67.1733 120.895L67.1753 120.888L64.3047 120.017ZM63.7676 134.492L60.7987 134.923L60.8021 134.946L60.8059 134.969L63.7676 134.492ZM64.5464 137.58L61.7224 138.592L61.7297 138.613L61.7374 138.633L64.5464 137.58ZM65.4863 139.594L62.8816 141.083L62.8974 141.11L62.9138 141.138L65.4863 139.594ZM66.8022 141.259L68.9236 139.138L68.9043 139.119L68.8847 139.1L66.8022 141.259ZM68.9775 142.709L67.8323 145.482L67.8427 145.487L67.8532 145.491L68.9775 142.709ZM71.8242 143.247L71.7734 146.246L71.7988 146.247H71.8242V143.247ZM73.731 143.139L74.0622 146.121L74.103 146.116L74.1437 146.111L73.731 143.139ZM75.584 142.736L76.454 145.607L76.4664 145.604L76.4788 145.6L75.584 142.736ZM77.1685 142.065L78.6254 144.687L78.6619 144.667L78.6979 144.646L77.1685 142.065ZM78.3232 141.071L80.7095 142.889L81.3198 142.088L81.3232 141.082L78.3232 141.071ZM78.3501 133.256L81.3501 133.267L81.3604 130.256H78.3501V133.256ZM71.2603 133.256H68.2603V136.256H71.2603V133.256ZM71.2603 128.234V125.234H68.2603V128.234H71.2603ZM113.61 146.872L112.157 144.247L112.147 144.253L113.61 146.872ZM100.478 147.463L99.3541 150.244L99.3638 150.248L100.478 147.463ZM95.9125 144.482L98.0338 142.361L98.0263 142.353L98.0187 142.346L95.9125 144.482ZM92.9584 140.051L90.169 141.155L90.176 141.173L90.1832 141.19L92.9584 140.051ZM100.317 119.479L101.488 122.242L101.495 122.238L101.502 122.235L100.317 119.479ZM111.193 119.479L109.975 122.221L109.988 122.227L110 122.232L111.193 119.479ZM115.248 122.407L117.524 120.452L117.517 120.444L117.51 120.436L115.248 122.407ZM118.552 135.458V138.458H121.552V135.458H118.552ZM98.4101 135.458V132.458H95.4101V135.458H98.4101ZM98.4101 135.593H95.4101V135.824L95.4454 136.052L98.4101 135.593ZM101.015 141.098L103.136 138.977L103.109 138.95L103.081 138.923L101.015 141.098ZM103.539 142.763L102.408 145.541L102.416 145.545L102.425 145.549L103.539 142.763ZM111.22 142.441L112.432 145.185L112.447 145.179L112.462 145.172L111.22 142.441ZM114.631 139.782L116.718 137.628L114.321 135.305L112.267 137.935L114.631 139.782ZM118.068 143.112L120.535 144.82L121.983 142.728L120.156 140.958L118.068 143.112ZM108.427 124.179L107.158 126.898L107.195 126.915L107.231 126.93L108.427 124.179ZM103.056 124.125L104.214 126.893L104.23 126.886L104.245 126.88L103.056 124.125ZM100.988 125.522L98.8669 123.401L98.8515 123.416L98.8363 123.432L100.988 125.522ZM98.5443 130.759L95.5905 130.235L94.9652 133.759H98.5443V130.759ZM112.214 130.759V133.759H115.214V130.759H112.214ZM111.757 127.832L108.936 128.852L108.94 128.862L108.943 128.871L111.757 127.832ZM110.468 125.629L108.219 127.614L108.222 127.618L110.468 125.629ZM146.117 142.683L143.601 141.05L140.595 145.683H146.117V142.683ZM165.319 113.088L167.836 114.721L168.33 113.958L168.319 113.049L165.319 113.088ZM165.883 142.683H168.883V139.683H165.883V142.683ZM165.883 148V151H168.883V148H165.883ZM138.437 148H135.437V151H138.437V148ZM138.437 143.703L135.921 142.068L135.437 142.814V143.703H138.437ZM157.584 114.243L160.1 115.878L163.112 111.243H157.584V114.243ZM138.598 114.243H135.598V117.243H138.598V114.243ZM138.598 108.898V105.898H135.598V108.898H138.598ZM165.265 108.898L168.265 108.86L168.227 105.898H165.265V108.898ZM193.086 148L190.099 148.277L190.352 151H193.086V148ZM198.914 148V151H201.914V148H198.914ZM192.71 143.945L195.698 143.668L194.926 135.342L190.228 142.26L192.71 143.945ZM189.112 147.355L190.597 149.962L190.609 149.955L190.621 149.948L189.112 147.355ZM180.223 147.866L179.129 150.659L179.154 150.669L179.178 150.678L180.223 147.866ZM177.027 145.637L174.769 147.612L174.779 147.624L174.789 147.635L177.027 145.637ZM174.986 141.796L172.118 142.676L172.121 142.686L174.986 141.796ZM174.261 118.942V115.942H171.261V118.942H174.261ZM180.679 118.942H183.679V115.942H180.679V118.942ZM180.975 139.594L178.042 140.227L178.045 140.239L180.975 139.594ZM181.914 141.743L184.287 139.906L184.272 139.887L184.257 139.869L181.914 141.743ZM188.387 142.978L189.164 145.876L189.197 145.867L189.229 145.857L188.387 142.978ZM190.32 142.119L191.947 144.64L191.988 144.613L192.028 144.585L190.32 142.119ZM191.556 140.991L193.86 142.911L193.879 142.888L193.898 142.865L191.556 140.991ZM192.469 139.514L195.187 140.782L195.469 140.179V139.514H192.469ZM192.469 118.942V115.942H189.469V118.942H192.469ZM198.914 118.942H201.914V115.942H198.914V118.942ZM231.928 108.898L234.81 108.066L234.184 105.898H231.928V108.898ZM223.925 108.898V105.898H220.925V108.898H223.925ZM236.762 125.629L233.88 126.462L236.618 135.939L239.62 126.542L236.762 125.629ZM242.106 108.898V105.898H239.915L239.248 107.986L242.106 108.898ZM250.136 108.898H253.136V105.898H250.136V108.898ZM250.136 148V151H253.136V148H250.136ZM244.067 148H241.067V151H244.067V148ZM244.067 134.733L241.067 134.669L241.067 134.701V134.733H244.067ZM244.443 117.277L247.442 117.342L241.587 116.357L244.443 117.277ZM238.427 135.942V138.942H240.612L241.282 136.862L238.427 135.942ZM235.07 135.942L232.199 136.811L232.843 138.942H235.07V135.942ZM229.618 117.922L232.49 117.053L226.619 117.984L229.618 117.922ZM229.967 134.733H232.967V134.702L232.967 134.671L229.967 134.733ZM229.967 148V151H232.967V148H229.967ZM223.925 148H220.925V151H223.925V148ZM260.045 118.942V115.942H257.045V118.942H260.045ZM260.045 124.287H257.045V127.287H260.045V124.287ZM275.46 118.942H278.46V115.942H275.46V118.942ZM275.46 142.683H272.46V145.683H275.46V142.683ZM284 142.683H287V139.683H284V142.683ZM284 148V151H287V148H284ZM260.045 148H257.045V151H260.045V148ZM260.045 142.683V139.683H257.045V142.683H260.045ZM268.987 142.683V145.683H271.987V142.683H268.987ZM268.987 124.287H271.987V121.287H268.987V124.287ZM87.7417 143.182L87.688 128.224L81.688 128.245L81.7417 143.204L87.7417 143.182ZM84.642 147.426C85.5477 146.71 86.3565 145.941 87.0464 145.113L82.437 141.272C82.0527 141.734 81.5545 142.218 80.9205 142.72L84.642 147.426ZM81.4777 149.36C82.6109 148.815 83.6583 148.181 84.6077 147.453L80.9548 142.693C80.3645 143.146 79.6752 143.569 78.8748 143.954L81.4777 149.36ZM76.8602 150.954C78.4987 150.585 80.0443 150.056 81.4861 149.356L78.8665 143.958C77.8734 144.44 76.7692 144.824 75.5431 145.1L76.8602 150.954ZM71.6094 151.537C73.4476 151.537 75.2128 151.345 76.8949 150.946L75.5084 145.108C74.3259 145.389 73.0297 145.537 71.6094 145.537V151.537ZM66.5274 150.819C68.1421 151.305 69.8418 151.537 71.6094 151.537V145.537C70.3692 145.537 69.258 145.375 68.2587 145.074L66.5274 150.819ZM62.1647 148.764C63.4892 149.662 64.9499 150.343 66.5274 150.819L68.2587 145.074C67.2223 144.762 66.3197 144.332 65.5316 143.798L62.1647 148.764ZM58.6868 145.585C59.7036 146.818 60.8631 147.882 62.1647 148.764L65.5316 143.798C64.7205 143.248 63.9823 142.576 63.3161 141.768L58.6868 145.585ZM56.1905 141.48C56.847 142.963 57.6712 144.327 58.6669 145.56L63.3361 141.792C62.6846 140.985 62.1302 140.075 61.6766 139.051L56.1905 141.48ZM54.5711 136.543C54.9373 138.333 55.4848 140.012 56.2284 141.563L61.6387 138.969C61.1292 137.906 60.7277 136.702 60.4494 135.341L54.5711 136.543ZM54.0002 131.005C54.0199 132.918 54.2075 134.766 54.5711 136.543L60.4494 135.341C60.1684 133.967 60.0159 132.503 59.9998 130.943L54.0002 131.005ZM54 125.979V130.974H60V125.979H54ZM54.5072 120.596C54.1867 122.318 54.0198 124.103 54.0002 125.947L59.9998 126.01C60.016 124.488 60.1534 123.05 60.4059 121.693L54.5072 120.596ZM56.0249 115.67C55.3561 117.196 54.856 118.83 54.5135 120.563L60.3996 121.726C60.6658 120.38 61.043 119.167 61.5201 118.079L56.0249 115.67ZM58.3648 111.684C57.4521 112.894 56.6775 114.217 56.036 115.645L61.509 118.104C61.9775 117.061 62.5277 116.129 63.1547 115.297L58.3648 111.684ZM61.5709 108.448C60.3626 109.37 59.2937 110.453 58.3648 111.684L63.1547 115.297C63.7656 114.488 64.4512 113.798 65.2123 113.216L61.5709 108.448ZM65.9878 106.16C64.4091 106.686 62.9481 107.437 61.6175 108.413L65.1657 113.251C65.9836 112.651 66.8858 112.185 67.8852 111.852L65.9878 106.16ZM71.1797 105.361C69.3731 105.361 67.6392 105.617 65.9996 106.156L67.8735 111.856C68.8478 111.535 69.9427 111.361 71.1797 111.361V105.361ZM77.645 106.361C75.6732 105.674 73.5031 105.361 71.1797 105.361V111.361C72.9741 111.361 74.4563 111.604 75.6714 112.027L77.645 106.361ZM82.7722 109.377C81.3132 108.034 79.5867 107.037 77.645 106.361L75.6714 112.027C76.9165 112.461 77.9114 113.057 78.7083 113.791L82.7722 109.377ZM86.1981 114.215C85.3786 112.354 84.2392 110.729 82.7736 109.378L78.7068 113.79C79.5329 114.551 80.2018 115.486 80.7072 116.634L86.1981 114.215ZM87.7011 120.159C87.4956 118.022 87.0052 116.026 86.1927 114.203L80.7126 116.646C81.2249 117.795 81.576 119.147 81.7286 120.733L87.7011 120.159ZM78.377 123.446H84.7148V117.446H78.377V123.446ZM74.8581 118.773C75.0896 119.365 75.2808 120.073 75.4137 120.914L81.3402 119.978C81.1508 118.779 80.8587 117.643 80.4456 116.587L74.8581 118.773ZM74.1742 117.61C74.4093 117.861 74.6467 118.222 74.8503 118.753L80.4534 116.607C80.0125 115.456 79.3906 114.402 78.5514 113.507L74.1742 117.61ZM73.1683 116.964C73.6213 117.137 73.9386 117.36 74.1782 117.615L78.5474 113.503C77.6411 112.54 76.5441 111.832 75.3142 111.361L73.1683 116.964ZM71.314 116.679C72.1664 116.679 72.7541 116.802 73.148 116.956L75.3344 111.368C74.0812 110.878 72.7174 110.679 71.314 110.679V116.679ZM70.1699 116.884C70.4751 116.759 70.8451 116.679 71.314 116.679V110.679C70.1357 110.679 68.9839 110.885 67.8926 111.333L70.1699 116.884ZM69.0792 117.508C69.3719 117.263 69.7091 117.062 70.1082 116.908L67.9543 111.308C66.9569 111.692 66.0408 112.225 65.2235 112.911L69.0792 117.508ZM68.0467 118.823C68.3881 118.241 68.7584 117.795 69.1445 117.452L65.1583 112.967C64.2553 113.77 63.4977 114.72 62.8722 115.786L68.0467 118.823ZM67.1753 120.888C67.4213 120.078 67.7197 119.389 68.0571 118.805L62.8619 115.803C62.2683 116.831 61.7968 117.95 61.434 119.145L67.1753 120.888ZM66.6907 123.209C66.7967 122.36 66.9601 121.591 67.1733 120.895L61.4361 119.138C61.1122 120.197 60.8817 121.307 60.737 122.464L66.6907 123.209ZM66.5259 125.925C66.5259 124.987 66.5815 124.082 66.6907 123.209L60.737 122.464C60.5956 123.596 60.5259 124.75 60.5259 125.925H66.5259ZM66.5259 130.974V125.925H60.5259V130.974H66.5259ZM66.7365 134.061C66.598 133.107 66.5259 132.079 66.5259 130.974H60.5259C60.5259 132.339 60.6149 133.656 60.7987 134.923L66.7365 134.061ZM67.3704 136.568C67.0991 135.811 66.8823 134.962 66.7293 134.014L60.8059 134.969C61.0109 136.241 61.3133 137.451 61.7224 138.592L67.3704 136.568ZM68.0911 138.106C67.8172 137.627 67.5709 137.101 67.3554 136.527L61.7374 138.633C62.059 139.491 62.4393 140.309 62.8816 141.083L68.0911 138.106ZM68.8847 139.1C68.5822 138.808 68.3059 138.463 68.0588 138.051L62.9138 141.138C63.4187 141.979 64.0197 142.744 64.7198 143.419L68.8847 139.1ZM70.1228 139.937C69.6622 139.746 69.2693 139.484 68.9236 139.138L64.6809 143.381C65.5884 144.288 66.6457 144.992 67.8323 145.482L70.1228 139.937ZM71.8751 140.247C71.1275 140.234 70.5509 140.11 70.1019 139.928L67.8532 145.491C69.0871 145.99 70.4083 146.223 71.7734 146.246L71.8751 140.247ZM73.3997 140.158C72.8613 140.217 72.3364 140.247 71.8242 140.247V146.247C72.5653 146.247 73.3115 146.204 74.0622 146.121L73.3997 140.158ZM74.714 139.865C74.2805 139.997 73.8163 140.099 73.3182 140.168L74.1437 146.111C74.9347 146.001 75.7058 145.834 76.454 145.607L74.714 139.865ZM75.7115 139.442C75.4213 139.604 75.0834 139.75 74.6892 139.873L76.4788 145.6C77.2304 145.365 77.9489 145.063 78.6254 144.687L75.7115 139.442ZM75.9369 139.253C75.9241 139.27 75.8518 139.358 75.6391 139.484L78.6979 144.646C79.4519 144.199 80.1495 143.624 80.7095 142.889L75.9369 139.253ZM75.3501 133.246L75.3233 141.061L81.3232 141.082L81.3501 133.267L75.3501 133.246ZM71.2603 136.256H78.3501V130.256H71.2603V136.256ZM68.2603 128.234V133.256H74.2603V128.234H68.2603ZM84.688 125.234H71.2603V131.234H84.688V125.234ZM106.386 151.537C109.604 151.537 112.543 150.905 115.073 149.491L112.147 144.253C110.703 145.06 108.825 145.537 106.386 145.537V151.537ZM99.3638 150.248C101.547 151.122 103.9 151.537 106.386 151.537V145.537C104.576 145.537 102.99 145.237 101.592 144.677L99.3638 150.248ZM93.7912 146.603C95.3649 148.177 97.2322 149.387 99.3541 150.244L101.602 144.681C100.179 144.106 99.0024 143.329 98.0338 142.361L93.7912 146.603ZM90.1832 141.19C91.0302 143.253 92.2385 145.073 93.8063 146.618L98.0187 142.346C97.0442 141.385 96.283 140.25 95.7336 138.911L90.1832 141.19ZM88.9379 134.492C88.9379 136.828 89.3393 139.059 90.169 141.155L95.7478 138.947C95.2168 137.605 94.9379 136.13 94.9379 134.492H88.9379ZM88.9379 133.391V134.492H94.9379V133.391H88.9379ZM90.2156 126.128C89.3464 128.366 88.9379 130.8 88.9379 133.391H94.9379C94.9379 131.434 95.2455 129.75 95.8086 128.3L90.2156 126.128ZM93.8009 120.411C92.2497 122.029 91.0615 123.95 90.2156 126.128L95.8086 128.3C96.395 126.79 97.1762 125.56 98.1316 124.564L93.8009 120.411ZM99.1459 116.717C97.1196 117.576 95.3322 118.814 93.8009 120.411L98.1316 124.564C99.1068 123.547 100.22 122.779 101.488 122.242L99.1459 116.717ZM105.634 115.405C103.362 115.405 101.185 115.84 99.1315 116.724L101.502 122.235C102.779 121.686 104.146 121.405 105.634 121.405V115.405ZM112.412 116.738C110.352 115.822 108.071 115.405 105.634 115.405V121.405C107.387 121.405 108.812 121.704 109.975 122.221L112.412 116.738ZM117.51 120.436C116.108 118.827 114.384 117.593 112.386 116.727L110 122.232C111.225 122.763 112.205 123.48 112.987 124.378L117.51 120.436ZM120.579 126.041C119.914 123.938 118.905 122.059 117.524 120.452L112.973 124.362C113.776 125.297 114.414 126.443 114.859 127.85L120.579 126.041ZM121.552 132.692C121.552 130.347 121.238 128.123 120.579 126.041L114.859 127.85C115.31 129.277 115.552 130.884 115.552 132.692H121.552ZM121.552 135.458V132.692H115.552V135.458H121.552ZM98.4101 138.458H118.552V132.458H98.4101V138.458ZM101.41 135.593V135.458H95.4101V135.593H101.41ZM102.029 137.492C101.779 136.972 101.541 136.209 101.375 135.133L95.4454 136.052C95.6727 137.519 96.0435 138.887 96.6177 140.085L102.029 137.492ZM103.081 138.923C102.62 138.485 102.277 138.01 102.029 137.492L96.6177 140.085C97.1931 141.286 97.9777 142.351 98.9488 143.273L103.081 138.923ZM104.671 139.985C104.063 139.737 103.561 139.401 103.136 138.977L98.8937 143.219C99.9014 144.227 101.082 145.001 102.408 145.541L104.671 139.985ZM106.762 140.354C105.943 140.354 105.251 140.217 104.654 139.978L102.425 145.549C103.797 146.097 105.254 146.354 106.762 146.354V140.354ZM110.008 139.697C109.033 140.127 107.963 140.354 106.762 140.354V146.354C108.748 146.354 110.65 145.972 112.432 145.185L110.008 139.697ZM112.267 137.935C111.682 138.684 110.936 139.275 109.979 139.71L112.462 145.172C114.261 144.354 115.79 143.172 116.995 141.629L112.267 137.935ZM120.156 140.958L116.718 137.628L112.543 141.937L115.981 145.267L120.156 140.958ZM115.063 149.497C117.338 148.237 119.23 146.705 120.535 144.82L115.602 141.405C114.973 142.313 113.893 143.287 112.157 144.247L115.063 149.497ZM105.607 126.615C106.333 126.615 106.824 126.742 107.158 126.898L109.696 121.461C108.419 120.865 107.03 120.615 105.607 120.615V126.615ZM104.245 126.88C104.634 126.712 105.077 126.615 105.607 126.615V120.615C104.312 120.615 103.054 120.859 101.867 121.371L104.245 126.88ZM103.11 127.643C103.451 127.302 103.816 127.06 104.214 126.893L101.898 121.358C100.756 121.836 99.7426 122.525 98.8669 123.401L103.11 127.643ZM102.173 129.053C102.459 128.444 102.787 127.976 103.14 127.612L98.8363 123.432C97.9718 124.322 97.2796 125.357 96.7417 126.503L102.173 129.053ZM101.498 131.283C101.656 130.391 101.89 129.656 102.173 129.053L96.7417 126.503C96.2014 127.654 95.8262 128.906 95.5905 130.235L101.498 131.283ZM112.214 127.759H98.5443V133.759H112.214V127.759ZM109.214 130.329V130.759H115.214V130.329H109.214ZM108.943 128.871C109.13 129.377 109.214 129.858 109.214 130.329H115.214C115.214 129.117 114.993 127.933 114.571 126.792L108.943 128.871ZM108.222 127.618C108.509 127.942 108.752 128.342 108.936 128.852L114.578 126.811C114.154 125.638 113.537 124.57 112.714 123.64L108.222 127.618ZM107.231 126.93C107.695 127.132 108.002 127.369 108.219 127.614L112.718 123.645C111.86 122.673 110.807 121.942 109.623 121.428L107.231 126.93ZM148.634 144.315L167.836 114.721L162.802 111.455L143.601 141.05L148.634 144.315ZM165.883 139.683H146.117V145.683H165.883V139.683ZM168.883 148V142.683H162.883V148H168.883ZM138.437 151H165.883V145H138.437V151ZM135.437 143.703V148H141.437V143.703H135.437ZM155.069 112.608L135.921 142.068L140.952 145.338L160.1 115.878L155.069 112.608ZM138.598 117.243H157.584V111.243H138.598V117.243ZM135.598 108.898V114.243H141.598V108.898H135.598ZM165.265 105.898H138.598V111.898H165.265V105.898ZM168.319 113.049L168.265 108.86L162.265 108.937L162.319 113.126L168.319 113.049ZM193.086 151H198.914V145H193.086V151ZM189.723 144.222L190.099 148.277L196.074 147.723L195.698 143.668L189.723 144.222ZM190.621 149.948C192.451 148.883 193.974 147.425 195.192 145.63L190.228 142.26C189.478 143.365 188.601 144.181 187.602 144.763L190.621 149.948ZM184.385 151.564C186.606 151.564 188.699 151.043 190.597 149.962L187.627 144.749C186.695 145.279 185.637 145.564 184.385 145.564V151.564ZM179.178 150.678C180.808 151.284 182.556 151.564 184.385 151.564V145.564C183.171 145.564 182.143 145.379 181.267 145.053L179.178 150.678ZM174.789 147.635C175.994 148.984 177.449 150.002 179.129 150.659L181.316 145.072C180.525 144.763 179.85 144.295 179.265 143.639L174.789 147.635ZM172.121 142.686C172.701 144.556 173.561 146.232 174.769 147.612L179.284 143.661C178.738 143.037 178.237 142.152 177.851 140.907L172.121 142.686ZM171.261 136.157C171.261 138.548 171.524 140.74 172.118 142.676L177.854 140.916C177.481 139.701 177.261 138.134 177.261 136.157H171.261ZM171.261 118.942V136.157H177.261V118.942H171.261ZM180.679 115.942H174.261V121.942H180.679V115.942ZM183.679 136.21V118.942H177.679V136.21H183.679ZM183.907 138.962C183.77 138.325 183.679 137.424 183.679 136.21H177.679C177.679 137.682 177.785 139.037 178.042 140.227L183.907 138.962ZM184.257 139.869C184.194 139.79 184.034 139.538 183.904 138.95L178.045 140.239C178.309 141.441 178.775 142.621 179.572 143.617L184.257 139.869ZM184.547 140.094C184.43 140.053 184.362 140.004 184.287 139.906L179.542 143.579C180.326 144.591 181.351 145.33 182.558 145.755L184.547 140.094ZM185.889 140.273C185.244 140.273 184.816 140.188 184.547 140.094L182.558 145.755C183.614 146.126 184.744 146.273 185.889 146.273V140.273ZM187.609 140.08C187.178 140.196 186.614 140.273 185.889 140.273V146.273C187.026 146.273 188.127 146.154 189.164 145.876L187.609 140.08ZM188.694 139.598C188.416 139.777 188.044 139.953 187.544 140.099L189.229 145.857C190.198 145.574 191.114 145.177 191.947 144.64L188.694 139.598ZM189.251 139.07C189.068 139.289 188.858 139.482 188.613 139.652L192.028 144.585C192.713 144.111 193.327 143.552 193.86 142.911L189.251 139.07ZM189.75 138.245C189.597 138.573 189.417 138.861 189.213 139.117L193.898 142.865C194.41 142.225 194.839 141.528 195.187 140.782L189.75 138.245ZM189.469 118.942V139.514H195.469V118.942H189.469ZM198.914 115.942H192.469V121.942H198.914V115.942ZM201.914 148V118.942H195.914V148H201.914ZM231.928 105.898H223.925V111.898H231.928V105.898ZM239.644 124.797L234.81 108.066L229.046 109.731L233.88 126.462L239.644 124.797ZM239.248 107.986L233.904 124.717L239.62 126.542L244.964 109.811L239.248 107.986ZM250.136 105.898H242.106V111.898H250.136V105.898ZM253.136 148V108.898H247.136V148H253.136ZM244.067 151H250.136V145H244.067V151ZM241.067 134.733V148H247.067V134.733H241.067ZM241.443 117.213L241.067 134.669L247.066 134.798L247.442 117.342L241.443 117.213ZM241.282 136.862L247.298 118.198L241.587 116.357L235.572 135.022L241.282 136.862ZM235.07 138.942H238.427V132.942H235.07V138.942ZM226.747 118.791L232.199 136.811L237.941 135.073L232.49 117.053L226.747 118.791ZM232.967 134.671L232.618 117.86L226.619 117.984L226.968 134.796L232.967 134.671ZM232.967 148V134.733H226.967V148H232.967ZM223.925 151H229.967V145H223.925V151ZM220.925 108.898V148H226.925V108.898H220.925ZM257.045 118.942V124.287H263.045V118.942H257.045ZM275.46 115.942H260.045V121.942H275.46V115.942ZM278.46 142.683V118.942H272.46V142.683H278.46ZM284 139.683H275.46V145.683H284V139.683ZM287 148V142.683H281V148H287ZM260.045 151H284V145H260.045V151ZM257.045 142.683V148H263.045V142.683H257.045ZM268.987 139.683H260.045V145.683H268.987V139.683ZM265.987 124.287V142.683H271.987V124.287H265.987ZM260.045 127.287H268.987V121.287H260.045V127.287Z" fill="#1B1B1B" mask="url(#path-5-outside-2)"/>
<circle cx="271.529" cy="91" r="17" fill="#FFA800" stroke="#1B1B1B" stroke-width="4"/>
<circle cx="108.529" cy="54" r="24.5" fill="#00A7EE" stroke="#1B1B1B" stroke-width="5"/>
<circle cx="152.529" cy="200" r="24.5" fill="#00A7EE" stroke="#1B1B1B" stroke-width="5"/>
</g>
<defs>
<clipPath id="clip0">
<rect width="343" height="253" fill="white"/>
</clipPath>
</defs>
</svg>
