<svg width="1980" height="487" viewBox="0 0 1980 487" fill="none" xmlns="http://www.w3.org/2000/svg">
<path d="M62.5659 293.75H66.9019V281.562C67.2144 281.906 67.5503 282.227 67.9097 282.523C68.2691 282.805 68.6519 283.062 69.0581 283.297C69.73 283.672 70.48 283.961 71.3081 284.164C72.1519 284.367 73.0581 284.469 74.0269 284.469C75.6206 284.469 77.0347 284.141 78.2691 283.484C79.5191 282.828 80.5659 281.922 81.4097 280.766C82.2534 279.609 82.8941 278.25 83.3316 276.688C83.7691 275.109 83.9878 273.414 83.9878 271.602V271.109C83.9878 269.219 83.7691 267.484 83.3316 265.906C82.8941 264.312 82.2534 262.945 81.4097 261.805C80.5659 260.664 79.5191 259.773 78.2691 259.133C77.0191 258.492 75.5816 258.172 73.9566 258.172C73.0347 258.172 72.1675 258.273 71.355 258.477C70.5581 258.664 69.8316 258.945 69.1753 259.32C68.7066 259.57 68.2691 259.875 67.8628 260.234C67.4566 260.578 67.0816 260.969 66.7378 261.406L66.5269 258.641H62.5659V293.75ZM79.6519 271.109V271.602C79.6519 272.836 79.5112 274.016 79.23 275.141C78.9644 276.266 78.5503 277.258 77.9878 278.117C77.4253 278.977 76.7066 279.664 75.8316 280.18C74.9566 280.68 73.9175 280.93 72.7144 280.93C71.9644 280.93 71.2769 280.836 70.6519 280.648C70.0425 280.461 69.4878 280.203 68.9878 279.875C68.5503 279.594 68.1597 279.25 67.8159 278.844C67.4722 278.438 67.1675 278 66.9019 277.531V265.32C67.1987 264.789 67.5425 264.305 67.9331 263.867C68.3237 263.43 68.7691 263.062 69.2691 262.766C69.7222 262.469 70.23 262.242 70.7925 262.086C71.3706 261.93 71.9956 261.852 72.6675 261.852C73.8862 261.852 74.9331 262.102 75.8081 262.602C76.6831 263.102 77.4097 263.773 77.9878 264.617C78.5503 265.477 78.9644 266.469 79.23 267.594C79.5112 268.703 79.6519 269.875 79.6519 271.109ZM110.048 284H113.986V258.641H109.627V276.828C109.392 277.375 109.095 277.883 108.736 278.352C108.392 278.805 107.986 279.195 107.517 279.523C106.955 279.93 106.291 280.25 105.525 280.484C104.759 280.703 103.892 280.812 102.923 280.812C102.095 280.812 101.361 280.703 100.72 280.484C100.095 280.266 99.5641 279.883 99.1266 279.336C98.6891 278.805 98.3609 278.086 98.1422 277.18C97.9234 276.273 97.8141 275.133 97.8141 273.758V258.641H93.4781V273.711C93.4781 275.602 93.6812 277.227 94.0875 278.586C94.5094 279.93 95.1031 281.039 95.8687 281.914C96.6344 282.789 97.5562 283.438 98.6344 283.859C99.7125 284.266 100.916 284.469 102.244 284.469C103.9 284.469 105.361 284.125 106.627 283.438C107.892 282.734 108.947 281.758 109.791 280.508L110.048 284ZM140.937 277.273C140.937 277.68 140.859 278.062 140.703 278.422C140.547 278.781 140.32 279.109 140.023 279.406C139.539 279.891 138.867 280.273 138.007 280.555C137.148 280.82 136.14 280.953 134.984 280.953C134.25 280.953 133.507 280.875 132.757 280.719C132.007 280.562 131.328 280.297 130.718 279.922C130.093 279.547 129.57 279.055 129.148 278.445C128.742 277.836 128.507 277.086 128.445 276.195H124.109C124.109 277.273 124.351 278.312 124.836 279.312C125.336 280.312 126.054 281.188 126.992 281.938C127.914 282.703 129.047 283.32 130.39 283.789C131.734 284.242 133.265 284.469 134.984 284.469C136.484 284.469 137.867 284.289 139.132 283.93C140.398 283.57 141.484 283.062 142.39 282.406C143.297 281.75 144 280.961 144.5 280.039C145.015 279.117 145.273 278.094 145.273 276.969C145.273 275.922 145.047 275 144.593 274.203C144.156 273.406 143.515 272.703 142.672 272.094C141.828 271.5 140.789 270.992 139.554 270.57C138.32 270.133 136.922 269.75 135.359 269.422C134.172 269.188 133.187 268.945 132.406 268.695C131.64 268.445 131.031 268.164 130.578 267.852C130.109 267.539 129.781 267.188 129.593 266.797C129.406 266.406 129.312 265.961 129.312 265.461C129.312 264.977 129.429 264.508 129.664 264.055C129.898 263.602 130.25 263.203 130.718 262.859C131.172 262.516 131.742 262.242 132.429 262.039C133.132 261.836 133.945 261.734 134.867 261.734C135.757 261.734 136.554 261.859 137.257 262.109C137.976 262.359 138.586 262.688 139.086 263.094C139.586 263.5 139.976 263.969 140.257 264.5C140.539 265.016 140.679 265.547 140.679 266.094H145.015C145.015 264.984 144.773 263.953 144.289 263C143.82 262.031 143.148 261.188 142.273 260.469C141.398 259.75 140.336 259.188 139.086 258.781C137.836 258.375 136.429 258.172 134.867 258.172C133.414 258.172 132.078 258.367 130.859 258.758C129.656 259.148 128.617 259.68 127.742 260.352C126.867 261.023 126.187 261.812 125.703 262.719C125.218 263.609 124.976 264.57 124.976 265.602C124.976 266.648 125.211 267.57 125.679 268.367C126.148 269.148 126.812 269.828 127.672 270.406C128.515 271 129.531 271.508 130.718 271.93C131.922 272.352 133.25 272.711 134.703 273.008C135.89 273.242 136.882 273.508 137.679 273.805C138.476 274.086 139.117 274.398 139.601 274.742C140.086 275.086 140.429 275.469 140.632 275.891C140.836 276.297 140.937 276.758 140.937 277.273ZM159.17 262.414V248H154.834V284H159.17V265.578C159.482 265.078 159.834 264.625 160.224 264.219C160.631 263.797 161.068 263.43 161.537 263.117C162.131 262.711 162.779 262.398 163.482 262.18C164.185 261.961 164.927 261.852 165.709 261.852C166.662 261.836 167.506 261.969 168.24 262.25C168.974 262.516 169.584 262.922 170.068 263.469C170.521 263.969 170.865 264.602 171.099 265.367C171.334 266.117 171.451 266.992 171.451 267.992V284H175.787V268.039C175.787 266.336 175.576 264.867 175.154 263.633C174.748 262.383 174.162 261.352 173.396 260.539C172.631 259.727 171.701 259.133 170.607 258.758C169.529 258.367 168.326 258.172 166.998 258.172C165.982 258.188 165.021 258.336 164.115 258.617C163.224 258.898 162.404 259.312 161.654 259.859C161.185 260.188 160.74 260.57 160.318 261.008C159.896 261.43 159.513 261.898 159.17 262.414ZM227.135 280.953C225.775 280.953 224.635 280.688 223.713 280.156C222.807 279.609 222.08 278.898 221.533 278.023C220.971 277.164 220.564 276.195 220.314 275.117C220.08 274.023 219.963 272.922 219.963 271.812V270.828C219.963 269.734 220.08 268.648 220.314 267.57C220.564 266.492 220.971 265.516 221.533 264.641C222.096 263.781 222.83 263.086 223.736 262.555C224.658 262.008 225.791 261.734 227.135 261.734C228.01 261.734 228.822 261.883 229.572 262.18C230.338 262.477 230.994 262.883 231.541 263.398C232.088 263.914 232.518 264.516 232.83 265.203C233.158 265.875 233.33 266.594 233.346 267.359H237.447C237.447 266.078 237.189 264.875 236.674 263.75C236.158 262.625 235.447 261.648 234.541 260.82C233.619 260.008 232.525 259.367 231.26 258.898C230.01 258.414 228.635 258.172 227.135 258.172C225.213 258.172 223.533 258.516 222.096 259.203C220.658 259.891 219.463 260.812 218.51 261.969C217.541 263.141 216.814 264.492 216.33 266.023C215.846 267.555 215.603 269.156 215.603 270.828V271.812C215.603 273.5 215.846 275.109 216.33 276.641C216.814 278.156 217.541 279.492 218.51 280.648C219.463 281.82 220.658 282.75 222.096 283.438C223.533 284.125 225.213 284.469 227.135 284.469C228.478 284.469 229.768 284.242 231.002 283.789C232.236 283.32 233.33 282.695 234.283 281.914C235.236 281.148 235.994 280.258 236.557 279.242C237.135 278.211 237.432 277.133 237.447 276.008H233.346C233.33 276.711 233.143 277.367 232.783 277.977C232.439 278.57 231.978 279.086 231.4 279.523C230.822 279.977 230.158 280.328 229.408 280.578C228.674 280.828 227.916 280.953 227.135 280.953ZM245.859 271.086V271.602C245.859 273.43 246.125 275.125 246.656 276.688C247.188 278.25 247.953 279.609 248.953 280.766C249.938 281.922 251.141 282.828 252.562 283.484C254 284.141 255.617 284.469 257.414 284.469C259.195 284.469 260.797 284.141 262.219 283.484C263.641 282.828 264.852 281.922 265.852 280.766C266.836 279.609 267.594 278.25 268.125 276.688C268.656 275.125 268.922 273.43 268.922 271.602V271.086C268.922 269.258 268.656 267.562 268.125 266C267.594 264.422 266.836 263.055 265.852 261.898C264.852 260.742 263.633 259.836 262.195 259.18C260.773 258.508 259.164 258.172 257.367 258.172C255.586 258.172 253.984 258.508 252.562 259.18C251.141 259.836 249.938 260.742 248.953 261.898C247.953 263.055 247.188 264.422 246.656 266C246.125 267.562 245.859 269.258 245.859 271.086ZM250.195 271.602V271.086C250.195 269.852 250.344 268.672 250.641 267.547C250.938 266.406 251.391 265.406 252 264.547C252.594 263.688 253.336 263.008 254.227 262.508C255.117 261.992 256.164 261.734 257.367 261.734C258.57 261.734 259.617 261.992 260.508 262.508C261.414 263.008 262.172 263.688 262.781 264.547C263.375 265.406 263.82 266.406 264.117 267.547C264.43 268.672 264.586 269.852 264.586 271.086V271.602C264.586 272.852 264.438 274.047 264.141 275.188C263.844 276.312 263.398 277.305 262.805 278.164C262.195 279.023 261.438 279.703 260.531 280.203C259.641 280.703 258.602 280.953 257.414 280.953C256.211 280.953 255.156 280.703 254.25 280.203C253.344 279.703 252.594 279.023 252 278.164C251.391 277.305 250.938 276.312 250.641 275.188C250.344 274.047 250.195 272.852 250.195 271.602ZM277.006 271.109V271.602C277.006 273.414 277.248 275.109 277.732 276.688C278.217 278.25 278.897 279.609 279.772 280.766C280.647 281.922 281.701 282.828 282.936 283.484C284.186 284.141 285.576 284.469 287.107 284.469C288.67 284.469 290.037 284.203 291.209 283.672C292.381 283.141 293.389 282.359 294.232 281.328L294.42 284H298.404V248H294.068V261.148C293.24 260.18 292.256 259.445 291.115 258.945C289.99 258.43 288.67 258.172 287.154 258.172C285.607 258.172 284.209 258.492 282.959 259.133C281.709 259.773 280.647 260.664 279.772 261.805C278.881 262.945 278.193 264.312 277.709 265.906C277.24 267.484 277.006 269.219 277.006 271.109ZM281.342 271.602V271.109C281.342 269.875 281.475 268.703 281.74 267.594C282.006 266.469 282.42 265.477 282.982 264.617C283.529 263.773 284.232 263.102 285.092 262.602C285.967 262.102 287.014 261.852 288.232 261.852C289.654 261.852 290.842 262.188 291.795 262.859C292.748 263.516 293.506 264.359 294.068 265.391V277.156C293.506 278.266 292.748 279.148 291.795 279.805C290.842 280.461 289.639 280.789 288.186 280.789C286.982 280.789 285.951 280.547 285.092 280.062C284.232 279.562 283.529 278.891 282.982 278.047C282.42 277.203 282.006 276.227 281.74 275.117C281.475 274.008 281.342 272.836 281.342 271.602ZM319.777 284.469C322.246 284.469 324.317 283.977 325.988 282.992C327.676 281.992 328.942 280.852 329.785 279.57L327.137 277.508C326.34 278.539 325.34 279.367 324.137 279.992C322.934 280.617 321.559 280.93 320.012 280.93C318.84 280.93 317.77 280.711 316.801 280.273C315.832 279.836 315.004 279.234 314.317 278.469C313.645 277.75 313.113 276.922 312.723 275.984C312.348 275.047 312.106 273.961 311.996 272.727V272.562H330.113V270.617C330.113 268.852 329.887 267.211 329.434 265.695C328.996 264.18 328.324 262.859 327.418 261.734C326.512 260.625 325.371 259.758 323.996 259.133C322.637 258.492 321.043 258.172 319.215 258.172C317.762 258.172 316.34 258.469 314.949 259.062C313.574 259.656 312.348 260.508 311.27 261.617C310.176 262.742 309.301 264.117 308.645 265.742C307.988 267.352 307.66 269.18 307.66 271.227V272.211C307.66 273.977 307.957 275.609 308.551 277.109C309.145 278.609 309.973 279.906 311.035 281C312.098 282.094 313.371 282.945 314.856 283.555C316.356 284.164 317.996 284.469 319.777 284.469ZM319.215 261.734C320.324 261.734 321.277 261.938 322.074 262.344C322.887 262.75 323.559 263.281 324.09 263.938C324.621 264.594 325.035 265.375 325.332 266.281C325.629 267.172 325.777 268.008 325.777 268.789V269H312.137C312.309 267.828 312.606 266.797 313.027 265.906C313.465 265 313.996 264.234 314.621 263.609C315.246 263 315.949 262.539 316.731 262.227C317.512 261.898 318.34 261.734 319.215 261.734ZM380.336 252.5H375.977V258.641H369.321V261.992H375.977V275.773C375.977 277.336 376.18 278.672 376.586 279.781C377.008 280.875 377.578 281.766 378.297 282.453C379.016 283.156 379.86 283.672 380.828 284C381.813 284.312 382.867 284.469 383.992 284.469C384.664 284.469 385.336 284.438 386.008 284.375C386.696 284.312 387.344 284.219 387.953 284.094C388.563 283.984 389.125 283.852 389.641 283.695C390.157 283.523 390.594 283.328 390.953 283.109L390.344 280.039C390.078 280.102 389.735 280.18 389.313 280.273C388.907 280.352 388.469 280.43 388 280.508C387.516 280.586 387.024 280.656 386.524 280.719C386.024 280.766 385.539 280.789 385.071 280.789C384.43 280.789 383.821 280.711 383.242 280.555C382.68 280.398 382.18 280.125 381.742 279.734C381.305 279.359 380.961 278.852 380.711 278.211C380.461 277.57 380.336 276.758 380.336 275.773V261.992H389.992V258.641H380.336V252.5ZM399.6 271.086V271.602C399.6 273.43 399.866 275.125 400.397 276.688C400.928 278.25 401.694 279.609 402.694 280.766C403.678 281.922 404.881 282.828 406.303 283.484C407.741 284.141 409.358 284.469 411.155 284.469C412.936 284.469 414.537 284.141 415.959 283.484C417.381 282.828 418.592 281.922 419.592 280.766C420.577 279.609 421.334 278.25 421.866 276.688C422.397 275.125 422.662 273.43 422.662 271.602V271.086C422.662 269.258 422.397 267.562 421.866 266C421.334 264.422 420.577 263.055 419.592 261.898C418.592 260.742 417.373 259.836 415.936 259.18C414.514 258.508 412.905 258.172 411.108 258.172C409.327 258.172 407.725 258.508 406.303 259.18C404.881 259.836 403.678 260.742 402.694 261.898C401.694 263.055 400.928 264.422 400.397 266C399.866 267.562 399.6 269.258 399.6 271.086ZM403.936 271.602V271.086C403.936 269.852 404.084 268.672 404.381 267.547C404.678 266.406 405.131 265.406 405.741 264.547C406.334 263.688 407.077 263.008 407.967 262.508C408.858 261.992 409.905 261.734 411.108 261.734C412.311 261.734 413.358 261.992 414.248 262.508C415.155 263.008 415.912 263.688 416.522 264.547C417.116 265.406 417.561 266.406 417.858 267.547C418.17 268.672 418.327 269.852 418.327 271.086V271.602C418.327 272.852 418.178 274.047 417.881 275.188C417.584 276.312 417.139 277.305 416.545 278.164C415.936 279.023 415.178 279.703 414.272 280.203C413.381 280.703 412.342 280.953 411.155 280.953C409.952 280.953 408.897 280.703 407.991 280.203C407.084 279.703 406.334 279.023 405.741 278.164C405.131 277.305 404.678 276.312 404.381 275.188C404.084 274.047 403.936 272.852 403.936 271.602ZM177.872 342.523L177.802 330.008H166.739V333.664H173.677L173.63 341.328C173.27 341.844 172.825 342.266 172.294 342.594C171.762 342.906 171.192 343.156 170.583 343.344C169.973 343.531 169.341 343.656 168.684 343.719C168.044 343.781 167.427 343.805 166.833 343.789C165.802 343.773 164.88 343.594 164.067 343.25C163.255 342.891 162.544 342.414 161.934 341.82C161.309 341.227 160.778 340.539 160.341 339.758C159.903 338.977 159.544 338.148 159.262 337.273C158.981 336.398 158.77 335.508 158.63 334.602C158.505 333.68 158.434 332.789 158.419 331.93V327.922C158.419 327.078 158.473 326.203 158.583 325.297C158.692 324.391 158.872 323.5 159.122 322.625C159.372 321.75 159.692 320.922 160.083 320.141C160.473 319.344 160.966 318.648 161.559 318.055C162.153 317.461 162.848 316.992 163.645 316.648C164.442 316.289 165.356 316.109 166.387 316.109C167.466 316.109 168.411 316.281 169.223 316.625C170.036 316.953 170.739 317.414 171.333 318.008C171.911 318.602 172.38 319.32 172.739 320.164C173.098 320.992 173.364 321.898 173.536 322.883H177.825C177.684 321.289 177.309 319.852 176.7 318.57C176.091 317.273 175.286 316.164 174.286 315.242C173.286 314.336 172.114 313.641 170.77 313.156C169.427 312.656 167.958 312.406 166.364 312.406C164.927 312.406 163.63 312.617 162.473 313.039C161.317 313.461 160.286 314.031 159.38 314.75C158.458 315.484 157.669 316.352 157.012 317.352C156.356 318.336 155.809 319.406 155.372 320.562C154.934 321.719 154.606 322.93 154.387 324.195C154.184 325.445 154.075 326.703 154.059 327.969V331.93C154.075 333.211 154.2 334.484 154.434 335.75C154.684 337 155.052 338.195 155.536 339.336C156.005 340.492 156.591 341.562 157.294 342.547C157.997 343.531 158.817 344.383 159.755 345.102C160.692 345.836 161.747 346.414 162.919 346.836C164.106 347.242 165.403 347.453 166.809 347.469C168.2 347.484 169.528 347.328 170.794 347C172.059 346.688 173.239 346.203 174.333 345.547C174.973 345.172 175.591 344.734 176.184 344.234C176.778 343.719 177.341 343.148 177.872 342.523ZM187.222 321.641V325.414H195.847V343.25H187.222V347H208.456V343.25H200.182V321.641H187.222ZM195.284 314.984C195.284 315.688 195.495 316.273 195.917 316.742C196.354 317.211 197.011 317.445 197.886 317.445C198.745 317.445 199.393 317.211 199.831 316.742C200.268 316.273 200.487 315.688 200.487 314.984C200.487 314.594 200.425 314.234 200.3 313.906C200.175 313.578 199.987 313.305 199.737 313.086C199.534 312.883 199.276 312.727 198.964 312.617C198.651 312.492 198.292 312.43 197.886 312.43C197.479 312.43 197.112 312.492 196.784 312.617C196.472 312.727 196.214 312.883 196.011 313.086C195.761 313.32 195.573 313.602 195.448 313.93C195.339 314.258 195.284 314.609 195.284 314.984ZM227.556 315.5H223.196V321.641H216.54V324.992H223.196V338.773C223.196 340.336 223.399 341.672 223.806 342.781C224.227 343.875 224.798 344.766 225.517 345.453C226.235 346.156 227.079 346.672 228.048 347C229.032 347.312 230.087 347.469 231.212 347.469C231.884 347.469 232.556 347.438 233.227 347.375C233.915 347.312 234.563 347.219 235.173 347.094C235.782 346.984 236.345 346.852 236.86 346.695C237.376 346.523 237.813 346.328 238.173 346.109L237.563 343.039C237.298 343.102 236.954 343.18 236.532 343.273C236.126 343.352 235.688 343.43 235.22 343.508C234.735 343.586 234.243 343.656 233.743 343.719C233.243 343.766 232.759 343.789 232.29 343.789C231.649 343.789 231.04 343.711 230.462 343.555C229.899 343.398 229.399 343.125 228.962 342.734C228.524 342.359 228.181 341.852 227.931 341.211C227.681 340.57 227.556 339.758 227.556 338.773V324.992H237.212V321.641H227.556V315.5ZM252.374 325.414V311H248.038V347H252.374V328.578C252.687 328.078 253.038 327.625 253.429 327.219C253.835 326.797 254.272 326.43 254.741 326.117C255.335 325.711 255.983 325.398 256.687 325.18C257.39 324.961 258.132 324.852 258.913 324.852C259.866 324.836 260.71 324.969 261.444 325.25C262.179 325.516 262.788 325.922 263.272 326.469C263.726 326.969 264.069 327.602 264.304 328.367C264.538 329.117 264.655 329.992 264.655 330.992V347H268.991V331.039C268.991 329.336 268.78 327.867 268.358 326.633C267.952 325.383 267.366 324.352 266.601 323.539C265.835 322.727 264.905 322.133 263.812 321.758C262.733 321.367 261.53 321.172 260.202 321.172C259.187 321.188 258.226 321.336 257.319 321.617C256.429 321.898 255.608 322.312 254.858 322.859C254.39 323.188 253.944 323.57 253.522 324.008C253.101 324.43 252.718 324.898 252.374 325.414ZM295.497 347H299.435V321.641H295.075V339.828C294.841 340.375 294.544 340.883 294.185 341.352C293.841 341.805 293.435 342.195 292.966 342.523C292.403 342.93 291.739 343.25 290.974 343.484C290.208 343.703 289.341 343.812 288.372 343.812C287.544 343.812 286.81 343.703 286.169 343.484C285.544 343.266 285.013 342.883 284.575 342.336C284.138 341.805 283.81 341.086 283.591 340.18C283.372 339.273 283.263 338.133 283.263 336.758V321.641H278.927V336.711C278.927 338.602 279.13 340.227 279.536 341.586C279.958 342.93 280.552 344.039 281.318 344.914C282.083 345.789 283.005 346.438 284.083 346.859C285.161 347.266 286.364 347.469 287.693 347.469C289.349 347.469 290.81 347.125 292.075 346.438C293.341 345.734 294.396 344.758 295.239 343.508L295.497 347ZM331.027 334.602V334.109C331.027 332.781 330.917 331.523 330.698 330.336C330.48 329.133 330.159 328.039 329.737 327.055C329.331 326.18 328.862 325.391 328.331 324.688C327.8 323.969 327.198 323.359 326.527 322.859C325.777 322.328 324.941 321.914 324.019 321.617C323.097 321.32 322.089 321.172 320.995 321.172C320.12 321.172 319.308 321.258 318.558 321.43C317.808 321.602 317.12 321.852 316.495 322.18C315.995 322.445 315.527 322.766 315.089 323.141C314.652 323.5 314.253 323.906 313.894 324.359V311H309.558V347H313.542L313.753 344.117C314.034 344.477 314.331 344.805 314.644 345.102C314.956 345.398 315.284 345.672 315.628 345.922C316.347 346.422 317.152 346.805 318.042 347.07C318.948 347.336 319.948 347.469 321.042 347.469C321.995 347.469 322.878 347.352 323.691 347.117C324.519 346.883 325.277 346.555 325.964 346.133C326.917 345.523 327.73 344.758 328.402 343.836C329.089 342.898 329.644 341.844 330.066 340.672C330.378 339.781 330.612 338.828 330.769 337.812C330.941 336.781 331.027 335.711 331.027 334.602ZM326.691 334.109V334.602C326.691 335.352 326.644 336.086 326.55 336.805C326.456 337.523 326.308 338.195 326.105 338.82C325.855 339.648 325.519 340.398 325.097 341.07C324.675 341.742 324.152 342.297 323.527 342.734C323.058 343.078 322.527 343.344 321.933 343.531C321.339 343.703 320.683 343.789 319.964 343.789C319.214 343.789 318.527 343.695 317.902 343.508C317.277 343.305 316.714 343.023 316.214 342.664C315.714 342.305 315.269 341.891 314.878 341.422C314.503 340.938 314.175 340.414 313.894 339.852V328.766C314.159 328.203 314.48 327.688 314.855 327.219C315.245 326.734 315.691 326.312 316.191 325.953C316.675 325.609 317.23 325.344 317.855 325.156C318.48 324.953 319.167 324.852 319.917 324.852C320.605 324.852 321.23 324.93 321.792 325.086C322.355 325.242 322.862 325.461 323.316 325.742C323.972 326.133 324.527 326.672 324.98 327.359C325.433 328.047 325.8 328.805 326.081 329.633C326.284 330.305 326.433 331.023 326.527 331.789C326.636 332.539 326.691 333.312 326.691 334.109Z" fill="#3E2D4A"/>
<path d="M749.336 258.172C747.492 258.172 745.844 258.578 744.391 259.391C742.953 260.188 741.719 261.281 740.688 262.672L740.664 262.039L740.477 258.641H736.352V284H740.711V267.734C740.992 266.953 741.344 266.25 741.766 265.625C742.203 264.984 742.711 264.445 743.289 264.008C743.93 263.508 744.68 263.133 745.539 262.883C746.399 262.617 747.36 262.484 748.422 262.484C749.25 262.484 750.039 262.531 750.789 262.625C751.555 262.703 752.36 262.836 753.203 263.023L753.789 258.781C753.352 258.594 752.696 258.445 751.821 258.336C750.961 258.227 750.133 258.172 749.336 258.172ZM780.178 284H784.116V258.641H779.756V276.828C779.522 277.375 779.225 277.883 778.866 278.352C778.522 278.805 778.116 279.195 777.647 279.523C777.084 279.93 776.42 280.25 775.655 280.484C774.889 280.703 774.022 280.812 773.053 280.812C772.225 280.812 771.491 280.703 770.85 280.484C770.225 280.266 769.694 279.883 769.256 279.336C768.819 278.805 768.491 278.086 768.272 277.18C768.053 276.273 767.944 275.133 767.944 273.758V258.641H763.608V273.711C763.608 275.602 763.811 277.227 764.217 278.586C764.639 279.93 765.233 281.039 765.998 281.914C766.764 282.789 767.686 283.438 768.764 283.859C769.842 284.266 771.045 284.469 772.373 284.469C774.03 284.469 775.491 284.125 776.756 283.438C778.022 282.734 779.077 281.758 779.92 280.508L780.178 284ZM794.215 284H798.551V265.812C798.848 265.266 799.192 264.766 799.582 264.312C799.989 263.859 800.426 263.461 800.895 263.117C801.473 262.727 802.106 262.422 802.793 262.203C803.481 261.969 804.223 261.852 805.02 261.852C805.942 261.852 806.754 261.961 807.457 262.18C808.176 262.398 808.786 262.75 809.286 263.234C809.77 263.719 810.137 264.352 810.387 265.133C810.637 265.914 810.762 266.867 810.762 267.992V284H815.098V267.898C815.098 266.211 814.887 264.758 814.465 263.539C814.059 262.305 813.473 261.289 812.707 260.492C811.942 259.695 811.012 259.109 809.918 258.734C808.84 258.359 807.637 258.172 806.309 258.172C805.325 258.188 804.387 258.336 803.497 258.617C802.622 258.883 801.809 259.266 801.059 259.766C800.559 260.094 800.082 260.484 799.629 260.938C799.192 261.375 798.786 261.859 798.411 262.391L798.106 258.641H794.215V284ZM866.516 280.953C865.157 280.953 864.016 280.688 863.094 280.156C862.188 279.609 861.462 278.898 860.915 278.023C860.352 277.164 859.946 276.195 859.696 275.117C859.462 274.023 859.344 272.922 859.344 271.812V270.828C859.344 269.734 859.462 268.648 859.696 267.57C859.946 266.492 860.352 265.516 860.915 264.641C861.477 263.781 862.212 263.086 863.118 262.555C864.04 262.008 865.172 261.734 866.516 261.734C867.391 261.734 868.204 261.883 868.954 262.18C869.719 262.477 870.376 262.883 870.922 263.398C871.469 263.914 871.899 264.516 872.212 265.203C872.54 265.875 872.712 266.594 872.727 267.359H876.829C876.829 266.078 876.571 264.875 876.055 263.75C875.54 262.625 874.829 261.648 873.922 260.82C873.001 260.008 871.907 259.367 870.641 258.898C869.391 258.414 868.016 258.172 866.516 258.172C864.594 258.172 862.915 258.516 861.477 259.203C860.04 259.891 858.844 260.812 857.891 261.969C856.922 263.141 856.196 264.492 855.712 266.023C855.227 267.555 854.985 269.156 854.985 270.828V271.812C854.985 273.5 855.227 275.109 855.712 276.641C856.196 278.156 856.922 279.492 857.891 280.648C858.844 281.82 860.04 282.75 861.477 283.438C862.915 284.125 864.594 284.469 866.516 284.469C867.86 284.469 869.149 284.242 870.383 283.789C871.618 283.32 872.712 282.695 873.665 281.914C874.618 281.148 875.376 280.258 875.938 279.242C876.516 278.211 876.813 277.133 876.829 276.008H872.727C872.712 276.711 872.524 277.367 872.165 277.977C871.821 278.57 871.36 279.086 870.782 279.523C870.204 279.977 869.54 280.328 868.79 280.578C868.055 280.828 867.297 280.953 866.516 280.953ZM885.241 271.086V271.602C885.241 273.43 885.507 275.125 886.038 276.688C886.569 278.25 887.335 279.609 888.335 280.766C889.319 281.922 890.522 282.828 891.944 283.484C893.382 284.141 894.999 284.469 896.796 284.469C898.577 284.469 900.178 284.141 901.6 283.484C903.022 282.828 904.233 281.922 905.233 280.766C906.217 279.609 906.975 278.25 907.507 276.688C908.038 275.125 908.303 273.43 908.303 271.602V271.086C908.303 269.258 908.038 267.562 907.507 266C906.975 264.422 906.217 263.055 905.233 261.898C904.233 260.742 903.014 259.836 901.577 259.18C900.155 258.508 898.546 258.172 896.749 258.172C894.967 258.172 893.366 258.508 891.944 259.18C890.522 259.836 889.319 260.742 888.335 261.898C887.335 263.055 886.569 264.422 886.038 266C885.507 267.562 885.241 269.258 885.241 271.086ZM889.577 271.602V271.086C889.577 269.852 889.725 268.672 890.022 267.547C890.319 266.406 890.772 265.406 891.382 264.547C891.975 263.688 892.717 263.008 893.608 262.508C894.499 261.992 895.546 261.734 896.749 261.734C897.952 261.734 898.999 261.992 899.889 262.508C900.796 263.008 901.553 263.688 902.163 264.547C902.757 265.406 903.202 266.406 903.499 267.547C903.811 268.672 903.967 269.852 903.967 271.086V271.602C903.967 272.852 903.819 274.047 903.522 275.188C903.225 276.312 902.78 277.305 902.186 278.164C901.577 279.023 900.819 279.703 899.913 280.203C899.022 280.703 897.983 280.953 896.796 280.953C895.592 280.953 894.538 280.703 893.632 280.203C892.725 279.703 891.975 279.023 891.382 278.164C890.772 277.305 890.319 276.312 890.022 275.188C889.725 274.047 889.577 272.852 889.577 271.602ZM916.387 271.109V271.602C916.387 273.414 916.63 275.109 917.114 276.688C917.598 278.25 918.278 279.609 919.153 280.766C920.028 281.922 921.083 282.828 922.317 283.484C923.567 284.141 924.958 284.469 926.489 284.469C928.052 284.469 929.419 284.203 930.591 283.672C931.762 283.141 932.77 282.359 933.614 281.328L933.802 284H937.786V248H933.45V261.148C932.622 260.18 931.637 259.445 930.497 258.945C929.372 258.43 928.052 258.172 926.536 258.172C924.989 258.172 923.591 258.492 922.341 259.133C921.091 259.773 920.028 260.664 919.153 261.805C918.262 262.945 917.575 264.312 917.091 265.906C916.622 267.484 916.387 269.219 916.387 271.109ZM920.723 271.602V271.109C920.723 269.875 920.856 268.703 921.122 267.594C921.387 266.469 921.802 265.477 922.364 264.617C922.911 263.773 923.614 263.102 924.473 262.602C925.348 262.102 926.395 261.852 927.614 261.852C929.036 261.852 930.223 262.188 931.177 262.859C932.13 263.516 932.887 264.359 933.45 265.391V277.156C932.887 278.266 932.13 279.148 931.177 279.805C930.223 280.461 929.02 280.789 927.567 280.789C926.364 280.789 925.333 280.547 924.473 280.062C923.614 279.562 922.911 278.891 922.364 278.047C921.802 277.203 921.387 276.227 921.122 275.117C920.856 274.008 920.723 272.836 920.723 271.602ZM959.159 284.469C961.628 284.469 963.698 283.977 965.37 282.992C967.057 281.992 968.323 280.852 969.167 279.57L966.518 277.508C965.722 278.539 964.722 279.367 963.518 279.992C962.315 280.617 960.94 280.93 959.393 280.93C958.222 280.93 957.151 280.711 956.182 280.273C955.214 279.836 954.386 279.234 953.698 278.469C953.026 277.75 952.495 276.922 952.104 275.984C951.729 275.047 951.487 273.961 951.378 272.727V272.562H969.495V270.617C969.495 268.852 969.268 267.211 968.815 265.695C968.378 264.18 967.706 262.859 966.8 261.734C965.893 260.625 964.753 259.758 963.378 259.133C962.018 258.492 960.425 258.172 958.597 258.172C957.143 258.172 955.722 258.469 954.331 259.062C952.956 259.656 951.729 260.508 950.651 261.617C949.557 262.742 948.682 264.117 948.026 265.742C947.37 267.352 947.042 269.18 947.042 271.227V272.211C947.042 273.977 947.339 275.609 947.932 277.109C948.526 278.609 949.354 279.906 950.417 281C951.479 282.094 952.753 282.945 954.237 283.555C955.737 284.164 957.378 284.469 959.159 284.469ZM958.597 261.734C959.706 261.734 960.659 261.938 961.456 262.344C962.268 262.75 962.94 263.281 963.472 263.938C964.003 264.594 964.417 265.375 964.714 266.281C965.011 267.172 965.159 268.008 965.159 268.789V269H951.518C951.69 267.828 951.987 266.797 952.409 265.906C952.847 265 953.378 264.234 954.003 263.609C954.628 263 955.331 262.539 956.112 262.227C956.893 261.898 957.722 261.734 958.597 261.734ZM1026.12 284H1030.64V283.625C1030.36 282.922 1030.14 282.102 1029.98 281.164C1029.83 280.211 1029.75 279.312 1029.75 278.469V266.68C1029.75 265.258 1029.49 264.016 1028.98 262.953C1028.46 261.891 1027.76 261 1026.87 260.281C1025.96 259.578 1024.89 259.055 1023.66 258.711C1022.42 258.352 1021.08 258.172 1019.65 258.172C1018.07 258.172 1016.66 258.391 1015.41 258.828C1014.17 259.266 1013.12 259.836 1012.26 260.539C1011.39 261.258 1010.72 262.062 1010.25 262.953C1009.8 263.844 1009.56 264.75 1009.55 265.672H1013.91C1013.91 265.141 1014.03 264.633 1014.28 264.148C1014.55 263.648 1014.91 263.219 1015.38 262.859C1015.85 262.5 1016.42 262.211 1017.09 261.992C1017.78 261.773 1018.55 261.664 1019.41 261.664C1020.33 261.664 1021.16 261.781 1021.9 262.016C1022.65 262.25 1023.28 262.578 1023.8 263C1024.31 263.438 1024.71 263.961 1024.99 264.57C1025.27 265.18 1025.41 265.867 1025.41 266.633V268.625H1020.68C1018.91 268.625 1017.31 268.797 1015.87 269.141C1014.45 269.484 1013.23 270 1012.22 270.688C1011.2 271.391 1010.41 272.266 1009.85 273.312C1009.3 274.359 1009.03 275.578 1009.03 276.969C1009.03 278.031 1009.23 279.023 1009.64 279.945C1010.06 280.852 1010.66 281.633 1011.42 282.289C1012.17 282.961 1013.08 283.492 1014.16 283.883C1015.26 284.273 1016.48 284.469 1017.82 284.469C1018.65 284.469 1019.43 284.383 1020.16 284.211C1020.9 284.039 1021.59 283.805 1022.25 283.508C1022.89 283.211 1023.48 282.867 1024.01 282.477C1024.55 282.086 1025.05 281.672 1025.48 281.234C1025.53 281.766 1025.6 282.281 1025.69 282.781C1025.8 283.266 1025.94 283.672 1026.12 284ZM1018.45 280.695C1017.61 280.695 1016.87 280.586 1016.23 280.367C1015.58 280.148 1015.05 279.844 1014.63 279.453C1014.21 279.078 1013.89 278.625 1013.67 278.094C1013.47 277.562 1013.37 276.984 1013.37 276.359C1013.37 275.703 1013.48 275.117 1013.72 274.602C1013.97 274.086 1014.33 273.641 1014.8 273.266C1015.45 272.734 1016.33 272.344 1017.44 272.094C1018.57 271.828 1019.88 271.695 1021.38 271.695H1025.41V276.828C1025.16 277.328 1024.82 277.812 1024.38 278.281C1023.94 278.734 1023.43 279.141 1022.83 279.5C1022.23 279.859 1021.55 280.148 1020.82 280.367C1020.08 280.586 1019.3 280.695 1018.45 280.695ZM1040.2 284H1044.54V265.812C1044.83 265.266 1045.18 264.766 1045.57 264.312C1045.97 263.859 1046.41 263.461 1046.88 263.117C1047.46 262.727 1048.09 262.422 1048.78 262.203C1049.47 261.969 1050.21 261.852 1051.01 261.852C1051.93 261.852 1052.74 261.961 1053.44 262.18C1054.16 262.398 1054.77 262.75 1055.27 263.234C1055.76 263.719 1056.12 264.352 1056.37 265.133C1056.62 265.914 1056.75 266.867 1056.75 267.992V284H1061.08V267.898C1061.08 266.211 1060.87 264.758 1060.45 263.539C1060.04 262.305 1059.46 261.289 1058.69 260.492C1057.93 259.695 1057 259.109 1055.9 258.734C1054.83 258.359 1053.62 258.172 1052.29 258.172C1051.31 258.188 1050.37 258.336 1049.48 258.617C1048.61 258.883 1047.79 259.266 1047.04 259.766C1046.54 260.094 1046.07 260.484 1045.61 260.938C1045.18 261.375 1044.77 261.859 1044.4 262.391L1044.09 258.641H1040.2V284ZM1087.61 284H1092.14V283.625C1091.85 282.922 1091.64 282.102 1091.48 281.164C1091.32 280.211 1091.25 279.312 1091.25 278.469V266.68C1091.25 265.258 1090.99 264.016 1090.47 262.953C1089.96 261.891 1089.25 261 1088.36 260.281C1087.46 259.578 1086.39 259.055 1085.15 258.711C1083.92 258.352 1082.58 258.172 1081.14 258.172C1079.57 258.172 1078.15 258.391 1076.9 258.828C1075.67 259.266 1074.62 259.836 1073.76 260.539C1072.89 261.258 1072.21 262.062 1071.75 262.953C1071.29 263.844 1071.06 264.75 1071.04 265.672H1075.4C1075.4 265.141 1075.53 264.633 1075.78 264.148C1076.04 263.648 1076.41 263.219 1076.88 262.859C1077.35 262.5 1077.92 262.211 1078.59 261.992C1079.28 261.773 1080.05 261.664 1080.91 261.664C1081.83 261.664 1082.66 261.781 1083.39 262.016C1084.14 262.25 1084.78 262.578 1085.29 263C1085.81 263.438 1086.21 263.961 1086.49 264.57C1086.77 265.18 1086.91 265.867 1086.91 266.633V268.625H1082.17C1080.41 268.625 1078.81 268.797 1077.37 269.141C1075.95 269.484 1074.73 270 1073.71 270.688C1072.7 271.391 1071.91 272.266 1071.35 273.312C1070.8 274.359 1070.53 275.578 1070.53 276.969C1070.53 278.031 1070.73 279.023 1071.14 279.945C1071.56 280.852 1072.15 281.633 1072.92 282.289C1073.67 282.961 1074.58 283.492 1075.66 283.883C1076.75 284.273 1077.97 284.469 1079.32 284.469C1080.14 284.469 1080.92 284.383 1081.66 284.211C1082.39 284.039 1083.09 283.805 1083.75 283.508C1084.39 283.211 1084.97 282.867 1085.5 282.477C1086.05 282.086 1086.54 281.672 1086.98 281.234C1087.03 281.766 1087.1 282.281 1087.19 282.781C1087.3 283.266 1087.44 283.672 1087.61 284ZM1079.95 280.695C1079.1 280.695 1078.36 280.586 1077.72 280.367C1077.08 280.148 1076.55 279.844 1076.13 279.453C1075.71 279.078 1075.39 278.625 1075.17 278.094C1074.96 277.562 1074.86 276.984 1074.86 276.359C1074.86 275.703 1074.98 275.117 1075.21 274.602C1075.46 274.086 1075.82 273.641 1076.29 273.266C1076.95 272.734 1077.83 272.344 1078.94 272.094C1080.07 271.828 1081.38 271.695 1082.88 271.695H1086.91V276.828C1086.66 277.328 1086.32 277.812 1085.88 278.281C1085.44 278.734 1084.92 279.141 1084.33 279.5C1083.72 279.859 1083.05 280.148 1082.32 280.367C1081.58 280.586 1080.79 280.695 1079.95 280.695ZM1102.38 248V251.773H1111V280.25H1102.38V284H1123.61V280.25H1115.34V248H1102.38ZM1134.48 294.242C1135.62 294.242 1136.63 294.031 1137.51 293.609C1138.38 293.188 1139.15 292.664 1139.8 292.039C1140.46 291.414 1141.01 290.734 1141.47 290C1141.94 289.266 1142.32 288.57 1142.62 287.914L1155.48 258.641H1150.63L1144.09 275.094L1142.9 278.07L1141.77 275L1134.81 258.641H1129.96L1140.88 282.805L1139.15 286.18C1138.99 286.492 1138.77 286.891 1138.49 287.375C1138.23 287.859 1137.91 288.328 1137.53 288.781C1137.14 289.234 1136.69 289.625 1136.19 289.953C1135.71 290.281 1135.17 290.445 1134.58 290.445C1134.36 290.445 1134.05 290.43 1133.66 290.398C1133.29 290.383 1132.91 290.359 1132.51 290.328L1131.81 293.867C1132.09 293.93 1132.51 294.008 1133.05 294.102C1133.6 294.195 1134.08 294.242 1134.48 294.242ZM1180.04 277.273C1180.04 277.68 1179.97 278.062 1179.81 278.422C1179.65 278.781 1179.43 279.109 1179.13 279.406C1178.65 279.891 1177.97 280.273 1177.11 280.555C1176.26 280.82 1175.25 280.953 1174.09 280.953C1173.36 280.953 1172.61 280.875 1171.86 280.719C1171.11 280.562 1170.43 280.297 1169.83 279.922C1169.2 279.547 1168.68 279.055 1168.26 278.445C1167.85 277.836 1167.61 277.086 1167.55 276.195H1163.22C1163.22 277.273 1163.46 278.312 1163.94 279.312C1164.44 280.312 1165.16 281.188 1166.1 281.938C1167.02 282.703 1168.15 283.32 1169.5 283.789C1170.84 284.242 1172.37 284.469 1174.09 284.469C1175.59 284.469 1176.97 284.289 1178.24 283.93C1179.51 283.57 1180.59 283.062 1181.5 282.406C1182.4 281.75 1183.11 280.961 1183.61 280.039C1184.12 279.117 1184.38 278.094 1184.38 276.969C1184.38 275.922 1184.15 275 1183.7 274.203C1183.26 273.406 1182.62 272.703 1181.78 272.094C1180.93 271.5 1179.9 270.992 1178.66 270.57C1177.43 270.133 1176.03 269.75 1174.47 269.422C1173.28 269.188 1172.29 268.945 1171.51 268.695C1170.75 268.445 1170.14 268.164 1169.68 267.852C1169.22 267.539 1168.89 267.188 1168.7 266.797C1168.51 266.406 1168.42 265.961 1168.42 265.461C1168.42 264.977 1168.54 264.508 1168.77 264.055C1169.01 263.602 1169.36 263.203 1169.83 262.859C1170.28 262.516 1170.85 262.242 1171.54 262.039C1172.24 261.836 1173.05 261.734 1173.97 261.734C1174.86 261.734 1175.66 261.859 1176.36 262.109C1177.08 262.359 1177.69 262.688 1178.19 263.094C1178.69 263.5 1179.08 263.969 1179.36 264.5C1179.65 265.016 1179.79 265.547 1179.79 266.094H1184.12C1184.12 264.984 1183.88 263.953 1183.4 263C1182.93 262.031 1182.26 261.188 1181.38 260.469C1180.51 259.75 1179.44 259.188 1178.19 258.781C1176.94 258.375 1175.54 258.172 1173.97 258.172C1172.52 258.172 1171.18 258.367 1169.97 258.758C1168.76 259.148 1167.72 259.68 1166.85 260.352C1165.97 261.023 1165.29 261.812 1164.81 262.719C1164.33 263.609 1164.08 264.57 1164.08 265.602C1164.08 266.648 1164.32 267.57 1164.79 268.367C1165.26 269.148 1165.92 269.828 1166.78 270.406C1167.62 271 1168.64 271.508 1169.83 271.93C1171.03 272.352 1172.36 272.711 1173.81 273.008C1175 273.242 1175.99 273.508 1176.79 273.805C1177.58 274.086 1178.22 274.398 1178.71 274.742C1179.19 275.086 1179.54 275.469 1179.74 275.891C1179.94 276.297 1180.04 276.758 1180.04 277.273ZM1194.62 258.641V262.414H1203.25V280.25H1194.62V284H1215.85V280.25H1207.58V258.641H1194.62ZM1202.68 251.984C1202.68 252.688 1202.89 253.273 1203.32 253.742C1203.75 254.211 1204.41 254.445 1205.28 254.445C1206.14 254.445 1206.79 254.211 1207.23 253.742C1207.67 253.273 1207.89 252.688 1207.89 251.984C1207.89 251.594 1207.82 251.234 1207.7 250.906C1207.57 250.578 1207.39 250.305 1207.14 250.086C1206.93 249.883 1206.68 249.727 1206.36 249.617C1206.05 249.492 1205.69 249.43 1205.28 249.43C1204.88 249.43 1204.51 249.492 1204.18 249.617C1203.87 249.727 1203.61 249.883 1203.41 250.086C1203.16 250.32 1202.97 250.602 1202.85 250.93C1202.74 251.258 1202.68 251.609 1202.68 251.984ZM1241.54 277.273C1241.54 277.68 1241.46 278.062 1241.31 278.422C1241.15 278.781 1240.92 279.109 1240.63 279.406C1240.14 279.891 1239.47 280.273 1238.61 280.555C1237.75 280.82 1236.74 280.953 1235.59 280.953C1234.85 280.953 1234.11 280.875 1233.36 280.719C1232.61 280.562 1231.93 280.297 1231.32 279.922C1230.7 279.547 1230.17 279.055 1229.75 278.445C1229.35 277.836 1229.11 277.086 1229.05 276.195H1224.71C1224.71 277.273 1224.95 278.312 1225.44 279.312C1225.94 280.312 1226.66 281.188 1227.6 281.938C1228.52 282.703 1229.65 283.32 1230.99 283.789C1232.34 284.242 1233.87 284.469 1235.59 284.469C1237.09 284.469 1238.47 284.289 1239.74 283.93C1241 283.57 1242.09 283.062 1242.99 282.406C1243.9 281.75 1244.6 280.961 1245.1 280.039C1245.62 279.117 1245.88 278.094 1245.88 276.969C1245.88 275.922 1245.65 275 1245.2 274.203C1244.76 273.406 1244.12 272.703 1243.27 272.094C1242.43 271.5 1241.39 270.992 1240.16 270.57C1238.92 270.133 1237.52 269.75 1235.96 269.422C1234.77 269.188 1233.79 268.945 1233.01 268.695C1232.24 268.445 1231.63 268.164 1231.18 267.852C1230.71 267.539 1230.38 267.188 1230.2 266.797C1230.01 266.406 1229.92 265.961 1229.92 265.461C1229.92 264.977 1230.03 264.508 1230.27 264.055C1230.5 263.602 1230.85 263.203 1231.32 262.859C1231.77 262.516 1232.35 262.242 1233.03 262.039C1233.74 261.836 1234.55 261.734 1235.47 261.734C1236.36 261.734 1237.16 261.859 1237.86 262.109C1238.58 262.359 1239.19 262.688 1239.69 263.094C1240.19 263.5 1240.58 263.969 1240.86 264.5C1241.14 265.016 1241.28 265.547 1241.28 266.094H1245.62C1245.62 264.984 1245.38 263.953 1244.89 263C1244.42 262.031 1243.75 261.188 1242.88 260.469C1242 259.75 1240.94 259.188 1239.69 258.781C1238.44 258.375 1237.03 258.172 1235.47 258.172C1234.02 258.172 1232.68 258.367 1231.46 258.758C1230.26 259.148 1229.22 259.68 1228.35 260.352C1227.47 261.023 1226.79 261.812 1226.31 262.719C1225.82 263.609 1225.58 264.57 1225.58 265.602C1225.58 266.648 1225.81 267.57 1226.28 268.367C1226.75 269.148 1227.42 269.828 1228.27 270.406C1229.12 271 1230.13 271.508 1231.32 271.93C1232.52 272.352 1233.85 272.711 1235.31 273.008C1236.49 273.242 1237.49 273.508 1238.28 273.805C1239.08 274.086 1239.72 274.398 1240.2 274.742C1240.69 275.086 1241.03 275.469 1241.24 275.891C1241.44 276.297 1241.54 276.758 1241.54 277.273ZM826.3 347H830.238V321.641H825.878V339.828C825.644 340.375 825.347 340.883 824.988 341.352C824.644 341.805 824.238 342.195 823.769 342.523C823.207 342.93 822.542 343.25 821.777 343.484C821.011 343.703 820.144 343.812 819.175 343.812C818.347 343.812 817.613 343.703 816.972 343.484C816.347 343.266 815.816 342.883 815.378 342.336C814.941 341.805 814.613 341.086 814.394 340.18C814.175 339.273 814.066 338.133 814.066 336.758V321.641H809.73V336.711C809.73 338.602 809.933 340.227 810.339 341.586C810.761 342.93 811.355 344.039 812.121 344.914C812.886 345.789 813.808 346.438 814.886 346.859C815.964 347.266 817.167 347.469 818.496 347.469C820.152 347.469 821.613 347.125 822.878 346.438C824.144 345.734 825.199 344.758 826.042 343.508L826.3 347ZM857.189 340.273C857.189 340.68 857.111 341.062 856.955 341.422C856.798 341.781 856.572 342.109 856.275 342.406C855.791 342.891 855.119 343.273 854.259 343.555C853.4 343.82 852.392 343.953 851.236 343.953C850.502 343.953 849.759 343.875 849.009 343.719C848.259 343.562 847.58 343.297 846.97 342.922C846.345 342.547 845.822 342.055 845.4 341.445C844.994 340.836 844.759 340.086 844.697 339.195H840.361C840.361 340.273 840.603 341.312 841.087 342.312C841.587 343.312 842.306 344.188 843.244 344.938C844.166 345.703 845.298 346.32 846.642 346.789C847.986 347.242 849.517 347.469 851.236 347.469C852.736 347.469 854.119 347.289 855.384 346.93C856.65 346.57 857.736 346.062 858.642 345.406C859.548 344.75 860.252 343.961 860.752 343.039C861.267 342.117 861.525 341.094 861.525 339.969C861.525 338.922 861.298 338 860.845 337.203C860.408 336.406 859.767 335.703 858.923 335.094C858.08 334.5 857.041 333.992 855.806 333.57C854.572 333.133 853.173 332.75 851.611 332.422C850.423 332.188 849.439 331.945 848.658 331.695C847.892 331.445 847.283 331.164 846.83 330.852C846.361 330.539 846.033 330.188 845.845 329.797C845.658 329.406 845.564 328.961 845.564 328.461C845.564 327.977 845.681 327.508 845.916 327.055C846.15 326.602 846.502 326.203 846.97 325.859C847.423 325.516 847.994 325.242 848.681 325.039C849.384 324.836 850.197 324.734 851.119 324.734C852.009 324.734 852.806 324.859 853.509 325.109C854.228 325.359 854.837 325.688 855.337 326.094C855.837 326.5 856.228 326.969 856.509 327.5C856.791 328.016 856.931 328.547 856.931 329.094H861.267C861.267 327.984 861.025 326.953 860.541 326C860.072 325.031 859.4 324.188 858.525 323.469C857.65 322.75 856.587 322.188 855.337 321.781C854.087 321.375 852.681 321.172 851.119 321.172C849.666 321.172 848.33 321.367 847.111 321.758C845.908 322.148 844.869 322.68 843.994 323.352C843.119 324.023 842.439 324.812 841.955 325.719C841.47 326.609 841.228 327.57 841.228 328.602C841.228 329.648 841.462 330.57 841.931 331.367C842.4 332.148 843.064 332.828 843.923 333.406C844.767 334 845.783 334.508 846.97 334.93C848.173 335.352 849.502 335.711 850.955 336.008C852.142 336.242 853.134 336.508 853.931 336.805C854.728 337.086 855.369 337.398 855.853 337.742C856.337 338.086 856.681 338.469 856.884 338.891C857.087 339.297 857.189 339.758 857.189 340.273ZM871.765 321.641V325.414H880.39V343.25H871.765V347H893V343.25H884.726V321.641H871.765ZM879.828 314.984C879.828 315.688 880.039 316.273 880.461 316.742C880.898 317.211 881.554 317.445 882.429 317.445C883.289 317.445 883.937 317.211 884.375 316.742C884.812 316.273 885.031 315.688 885.031 314.984C885.031 314.594 884.968 314.234 884.843 313.906C884.718 313.578 884.531 313.305 884.281 313.086C884.078 312.883 883.82 312.727 883.507 312.617C883.195 312.492 882.836 312.43 882.429 312.43C882.023 312.43 881.656 312.492 881.328 312.617C881.015 312.727 880.757 312.883 880.554 313.086C880.304 313.32 880.117 313.602 879.992 313.93C879.882 314.258 879.828 314.609 879.828 314.984ZM901.834 347H906.17V328.812C906.467 328.266 906.81 327.766 907.201 327.312C907.607 326.859 908.045 326.461 908.513 326.117C909.092 325.727 909.724 325.422 910.412 325.203C911.099 324.969 911.842 324.852 912.638 324.852C913.56 324.852 914.373 324.961 915.076 325.18C915.795 325.398 916.404 325.75 916.904 326.234C917.388 326.719 917.756 327.352 918.006 328.133C918.256 328.914 918.381 329.867 918.381 330.992V347H922.717V330.898C922.717 329.211 922.506 327.758 922.084 326.539C921.677 325.305 921.092 324.289 920.326 323.492C919.56 322.695 918.631 322.109 917.537 321.734C916.459 321.359 915.256 321.172 913.927 321.172C912.943 321.188 912.006 321.336 911.115 321.617C910.24 321.883 909.427 322.266 908.677 322.766C908.177 323.094 907.701 323.484 907.248 323.938C906.81 324.375 906.404 324.859 906.029 325.391L905.724 321.641H901.834V347ZM931.785 334.109V334.602C931.785 336.414 932.019 338.109 932.488 339.688C932.957 341.25 933.629 342.609 934.504 343.766C935.363 344.922 936.418 345.828 937.668 346.484C938.918 347.141 940.316 347.469 941.863 347.469C942.785 347.469 943.644 347.367 944.441 347.164C945.238 346.977 945.965 346.703 946.621 346.344C947.043 346.109 947.433 345.836 947.793 345.523C948.168 345.211 948.519 344.867 948.848 344.492V346.672C948.848 347.766 948.691 348.734 948.379 349.578C948.066 350.422 947.621 351.125 947.043 351.688C946.449 352.266 945.738 352.703 944.91 353C944.082 353.297 943.152 353.445 942.121 353.445C941.543 353.445 940.965 353.383 940.387 353.258C939.808 353.148 939.23 352.961 938.652 352.695C938.074 352.43 937.504 352.07 936.941 351.617C936.379 351.18 935.832 350.641 935.301 350L933.051 352.602C933.629 353.43 934.316 354.125 935.113 354.688C935.926 355.25 936.769 355.695 937.644 356.023C938.504 356.367 939.355 356.609 940.199 356.75C941.043 356.906 941.793 356.984 942.449 356.984C944.043 356.984 945.496 356.75 946.808 356.281C948.121 355.812 949.254 355.125 950.207 354.219C951.144 353.312 951.871 352.211 952.387 350.914C952.918 349.617 953.183 348.133 953.183 346.461V321.641H949.246L949.035 324.406C948.738 324.031 948.418 323.688 948.074 323.375C947.746 323.062 947.394 322.789 947.019 322.555C946.332 322.102 945.558 321.758 944.699 321.523C943.855 321.289 942.926 321.172 941.91 321.172C940.332 321.172 938.918 321.492 937.668 322.133C936.418 322.773 935.355 323.664 934.48 324.805C933.605 325.945 932.933 327.312 932.465 328.906C932.012 330.484 931.785 332.219 931.785 334.109ZM936.121 334.602V334.109C936.121 332.875 936.246 331.703 936.496 330.594C936.762 329.469 937.176 328.477 937.738 327.617C938.285 326.773 938.988 326.102 939.848 325.602C940.723 325.102 941.769 324.852 942.988 324.852C943.707 324.852 944.363 324.945 944.957 325.133C945.551 325.305 946.09 325.547 946.574 325.859C947.058 326.188 947.488 326.57 947.863 327.008C948.238 327.445 948.566 327.93 948.848 328.461V340.086C948.566 340.633 948.238 341.133 947.863 341.586C947.488 342.039 947.066 342.43 946.598 342.758C946.113 343.086 945.566 343.344 944.957 343.531C944.363 343.703 943.691 343.789 942.941 343.789C941.738 343.789 940.707 343.547 939.848 343.062C938.988 342.562 938.285 341.891 937.738 341.047C937.176 340.203 936.762 339.227 936.496 338.117C936.246 337.008 936.121 335.836 936.121 334.602ZM1016.16 342.523L1016.09 330.008H1005.02V333.664H1011.96L1011.91 341.328C1011.55 341.844 1011.11 342.266 1010.58 342.594C1010.05 342.906 1009.48 343.156 1008.87 343.344C1008.26 343.531 1007.62 343.656 1006.97 343.719C1006.33 343.781 1005.71 343.805 1005.12 343.789C1004.09 343.773 1003.16 343.594 1002.35 343.25C1001.54 342.891 1000.83 342.414 1000.22 341.82C999.594 341.227 999.062 340.539 998.625 339.758C998.188 338.977 997.828 338.148 997.547 337.273C997.266 336.398 997.055 335.508 996.914 334.602C996.789 333.68 996.719 332.789 996.703 331.93V327.922C996.703 327.078 996.758 326.203 996.867 325.297C996.977 324.391 997.156 323.5 997.406 322.625C997.656 321.75 997.977 320.922 998.367 320.141C998.758 319.344 999.25 318.648 999.844 318.055C1000.44 317.461 1001.13 316.992 1001.93 316.648C1002.73 316.289 1003.64 316.109 1004.67 316.109C1005.75 316.109 1006.7 316.281 1007.51 316.625C1008.32 316.953 1009.02 317.414 1009.62 318.008C1010.2 318.602 1010.66 319.32 1011.02 320.164C1011.38 320.992 1011.65 321.898 1011.82 322.883H1016.11C1015.97 321.289 1015.59 319.852 1014.98 318.57C1014.38 317.273 1013.57 316.164 1012.57 315.242C1011.57 314.336 1010.4 313.641 1009.05 313.156C1007.71 312.656 1006.24 312.406 1004.65 312.406C1003.21 312.406 1001.91 312.617 1000.76 313.039C999.602 313.461 998.57 314.031 997.664 314.75C996.742 315.484 995.953 316.352 995.297 317.352C994.641 318.336 994.094 319.406 993.656 320.562C993.219 321.719 992.891 322.93 992.672 324.195C992.469 325.445 992.359 326.703 992.344 327.969V331.93C992.359 333.211 992.484 334.484 992.719 335.75C992.969 337 993.336 338.195 993.82 339.336C994.289 340.492 994.875 341.562 995.578 342.547C996.281 343.531 997.102 344.383 998.039 345.102C998.977 345.836 1000.03 346.414 1001.2 346.836C1002.39 347.242 1003.69 347.453 1005.09 347.469C1006.48 347.484 1007.81 347.328 1009.08 347C1010.34 346.688 1011.52 346.203 1012.62 345.547C1013.26 345.172 1013.88 344.734 1014.47 344.234C1015.06 343.719 1015.62 343.148 1016.16 342.523ZM1025.51 321.641V325.414H1034.13V343.25H1025.51V347H1046.74V343.25H1038.47V321.641H1025.51ZM1033.57 314.984C1033.57 315.688 1033.78 316.273 1034.2 316.742C1034.64 317.211 1035.29 317.445 1036.17 317.445C1037.03 317.445 1037.68 317.211 1038.12 316.742C1038.55 316.273 1038.77 315.688 1038.77 314.984C1038.77 314.594 1038.71 314.234 1038.58 313.906C1038.46 313.578 1038.27 313.305 1038.02 313.086C1037.82 312.883 1037.56 312.727 1037.25 312.617C1036.94 312.492 1036.58 312.43 1036.17 312.43C1035.76 312.43 1035.4 312.492 1035.07 312.617C1034.76 312.727 1034.5 312.883 1034.29 313.086C1034.04 313.32 1033.86 313.602 1033.73 313.93C1033.62 314.258 1033.57 314.609 1033.57 314.984ZM1065.84 315.5H1061.48V321.641H1054.82V324.992H1061.48V338.773C1061.48 340.336 1061.68 341.672 1062.09 342.781C1062.51 343.875 1063.08 344.766 1063.8 345.453C1064.52 346.156 1065.36 346.672 1066.33 347C1067.32 347.312 1068.37 347.469 1069.5 347.469C1070.17 347.469 1070.84 347.438 1071.51 347.375C1072.2 347.312 1072.85 347.219 1073.46 347.094C1074.07 346.984 1074.63 346.852 1075.14 346.695C1075.66 346.523 1076.1 346.328 1076.46 346.109L1075.85 343.039C1075.58 343.102 1075.24 343.18 1074.82 343.273C1074.41 343.352 1073.97 343.43 1073.5 343.508C1073.02 343.586 1072.53 343.656 1072.03 343.719C1071.53 343.766 1071.04 343.789 1070.57 343.789C1069.93 343.789 1069.32 343.711 1068.75 343.555C1068.18 343.398 1067.68 343.125 1067.25 342.734C1066.81 342.359 1066.46 341.852 1066.21 341.211C1065.96 340.57 1065.84 339.758 1065.84 338.773V324.992H1075.5V321.641H1065.84V315.5ZM1090.66 325.414V311H1086.32V347H1090.66V328.578C1090.97 328.078 1091.32 327.625 1091.71 327.219C1092.12 326.797 1092.56 326.43 1093.03 326.117C1093.62 325.711 1094.27 325.398 1094.97 325.18C1095.67 324.961 1096.42 324.852 1097.2 324.852C1098.15 324.836 1098.99 324.969 1099.73 325.25C1100.46 325.516 1101.07 325.922 1101.56 326.469C1102.01 326.969 1102.35 327.602 1102.59 328.367C1102.82 329.117 1102.94 329.992 1102.94 330.992V347H1107.28V331.039C1107.28 329.336 1107.06 327.867 1106.64 326.633C1106.24 325.383 1105.65 324.352 1104.89 323.539C1104.12 322.727 1103.19 322.133 1102.1 321.758C1101.02 321.367 1099.81 321.172 1098.49 321.172C1097.47 321.188 1096.51 321.336 1095.6 321.617C1094.71 321.898 1093.89 322.312 1093.14 322.859C1092.67 323.188 1092.23 323.57 1091.81 324.008C1091.39 324.43 1091 324.898 1090.66 325.414ZM1133.78 347H1137.72V321.641H1133.36V339.828C1133.13 340.375 1132.83 340.883 1132.47 341.352C1132.13 341.805 1131.72 342.195 1131.25 342.523C1130.69 342.93 1130.02 343.25 1129.26 343.484C1128.49 343.703 1127.63 343.812 1126.66 343.812C1125.83 343.812 1125.09 343.703 1124.45 343.484C1123.83 343.266 1123.3 342.883 1122.86 342.336C1122.42 341.805 1122.09 341.086 1121.88 340.18C1121.66 339.273 1121.55 338.133 1121.55 336.758V321.641H1117.21V336.711C1117.21 338.602 1117.41 340.227 1117.82 341.586C1118.24 342.93 1118.84 344.039 1119.6 344.914C1120.37 345.789 1121.29 346.438 1122.37 346.859C1123.45 347.266 1124.65 347.469 1125.98 347.469C1127.63 347.469 1129.09 347.125 1130.36 346.438C1131.63 345.734 1132.68 344.758 1133.52 343.508L1133.78 347ZM1169.31 334.602V334.109C1169.31 332.781 1169.2 331.523 1168.98 330.336C1168.76 329.133 1168.44 328.039 1168.02 327.055C1167.62 326.18 1167.15 325.391 1166.62 324.688C1166.08 323.969 1165.48 323.359 1164.81 322.859C1164.06 322.328 1163.22 321.914 1162.3 321.617C1161.38 321.32 1160.37 321.172 1159.28 321.172C1158.4 321.172 1157.59 321.258 1156.84 321.43C1156.09 321.602 1155.4 321.852 1154.78 322.18C1154.28 322.445 1153.81 322.766 1153.37 323.141C1152.94 323.5 1152.54 323.906 1152.18 324.359V311H1147.84V347H1151.83L1152.04 344.117C1152.32 344.477 1152.62 344.805 1152.93 345.102C1153.24 345.398 1153.57 345.672 1153.91 345.922C1154.63 346.422 1155.44 346.805 1156.33 347.07C1157.23 347.336 1158.23 347.469 1159.33 347.469C1160.28 347.469 1161.16 347.352 1161.97 347.117C1162.8 346.883 1163.56 346.555 1164.25 346.133C1165.2 345.523 1166.01 344.758 1166.69 343.836C1167.37 342.898 1167.93 341.844 1168.35 340.672C1168.66 339.781 1168.9 338.828 1169.05 337.812C1169.22 336.781 1169.31 335.711 1169.31 334.602ZM1164.97 334.109V334.602C1164.97 335.352 1164.93 336.086 1164.83 336.805C1164.74 337.523 1164.59 338.195 1164.39 338.82C1164.14 339.648 1163.8 340.398 1163.38 341.07C1162.96 341.742 1162.44 342.297 1161.81 342.734C1161.34 343.078 1160.81 343.344 1160.22 343.531C1159.62 343.703 1158.97 343.789 1158.25 343.789C1157.5 343.789 1156.81 343.695 1156.19 343.508C1155.56 343.305 1155 343.023 1154.5 342.664C1154 342.305 1153.55 341.891 1153.16 341.422C1152.79 340.938 1152.46 340.414 1152.18 339.852V328.766C1152.44 328.203 1152.76 327.688 1153.14 327.219C1153.53 326.734 1153.97 326.312 1154.47 325.953C1154.96 325.609 1155.51 325.344 1156.14 325.156C1156.76 324.953 1157.45 324.852 1158.2 324.852C1158.89 324.852 1159.51 324.93 1160.08 325.086C1160.64 325.242 1161.15 325.461 1161.6 325.742C1162.26 326.133 1162.81 326.672 1163.26 327.359C1163.72 328.047 1164.08 328.805 1164.37 329.633C1164.57 330.305 1164.72 331.023 1164.81 331.789C1164.92 332.539 1164.97 333.312 1164.97 334.109ZM903.709 401.164L906.404 410H910.717L899.888 375.875H896.256L885.24 410H889.576L892.318 401.164H903.709ZM893.49 397.391L898.06 382.578L902.56 397.391H893.49ZM928.972 406.953C927.613 406.953 926.472 406.688 925.551 406.156C924.644 405.609 923.918 404.898 923.371 404.023C922.808 403.164 922.402 402.195 922.152 401.117C921.918 400.023 921.801 398.922 921.801 397.812V396.828C921.801 395.734 921.918 394.648 922.152 393.57C922.402 392.492 922.808 391.516 923.371 390.641C923.933 389.781 924.668 389.086 925.574 388.555C926.496 388.008 927.629 387.734 928.972 387.734C929.847 387.734 930.66 387.883 931.41 388.18C932.176 388.477 932.832 388.883 933.379 389.398C933.926 389.914 934.355 390.516 934.668 391.203C934.996 391.875 935.168 392.594 935.183 393.359H939.285C939.285 392.078 939.027 390.875 938.512 389.75C937.996 388.625 937.285 387.648 936.379 386.82C935.457 386.008 934.363 385.367 933.097 384.898C931.847 384.414 930.472 384.172 928.972 384.172C927.051 384.172 925.371 384.516 923.933 385.203C922.496 385.891 921.301 386.812 920.347 387.969C919.379 389.141 918.652 390.492 918.168 392.023C917.683 393.555 917.441 395.156 917.441 396.828V397.812C917.441 399.5 917.683 401.109 918.168 402.641C918.652 404.156 919.379 405.492 920.347 406.648C921.301 407.82 922.496 408.75 923.933 409.438C925.371 410.125 927.051 410.469 928.972 410.469C930.316 410.469 931.605 410.242 932.84 409.789C934.074 409.32 935.168 408.695 936.121 407.914C937.074 407.148 937.832 406.258 938.394 405.242C938.972 404.211 939.269 403.133 939.285 402.008H935.183C935.168 402.711 934.98 403.367 934.621 403.977C934.277 404.57 933.816 405.086 933.238 405.523C932.66 405.977 931.996 406.328 931.246 406.578C930.512 406.828 929.754 406.953 928.972 406.953ZM959.182 378.5H954.822V384.641H948.166V387.992H954.822V401.773C954.822 403.336 955.025 404.672 955.432 405.781C955.853 406.875 956.424 407.766 957.142 408.453C957.861 409.156 958.705 409.672 959.674 410C960.658 410.312 961.713 410.469 962.838 410.469C963.51 410.469 964.182 410.438 964.853 410.375C965.541 410.312 966.189 410.219 966.799 410.094C967.408 409.984 967.971 409.852 968.486 409.695C969.002 409.523 969.439 409.328 969.799 409.109L969.189 406.039C968.924 406.102 968.58 406.18 968.158 406.273C967.752 406.352 967.314 406.43 966.846 406.508C966.361 406.586 965.869 406.656 965.369 406.719C964.869 406.766 964.385 406.789 963.916 406.789C963.275 406.789 962.666 406.711 962.088 406.555C961.525 406.398 961.025 406.125 960.588 405.734C960.15 405.359 959.807 404.852 959.557 404.211C959.307 403.57 959.182 402.758 959.182 401.773V387.992H968.838V384.641H959.182V378.5ZM980.344 384.641V388.414H988.969V406.25H980.344V410H1001.58V406.25H993.305V384.641H980.344ZM988.406 377.984C988.406 378.688 988.617 379.273 989.039 379.742C989.477 380.211 990.133 380.445 991.008 380.445C991.867 380.445 992.516 380.211 992.953 379.742C993.391 379.273 993.609 378.688 993.609 377.984C993.609 377.594 993.547 377.234 993.422 376.906C993.297 376.578 993.109 376.305 992.859 376.086C992.656 375.883 992.398 375.727 992.086 375.617C991.773 375.492 991.414 375.43 991.008 375.43C990.602 375.43 990.234 375.492 989.906 375.617C989.594 375.727 989.336 375.883 989.133 376.086C988.883 376.32 988.695 376.602 988.57 376.93C988.461 377.258 988.406 377.609 988.406 377.984ZM1009.19 397.086V397.602C1009.19 399.43 1009.46 401.125 1009.99 402.688C1010.52 404.25 1011.29 405.609 1012.29 406.766C1013.27 407.922 1014.47 408.828 1015.9 409.484C1017.33 410.141 1018.95 410.469 1020.75 410.469C1022.53 410.469 1024.13 410.141 1025.55 409.484C1026.97 408.828 1028.19 407.922 1029.19 406.766C1030.17 405.609 1030.93 404.25 1031.46 402.688C1031.99 401.125 1032.26 399.43 1032.26 397.602V397.086C1032.26 395.258 1031.99 393.562 1031.46 392C1030.93 390.422 1030.17 389.055 1029.19 387.898C1028.19 386.742 1026.97 385.836 1025.53 385.18C1024.11 384.508 1022.5 384.172 1020.7 384.172C1018.92 384.172 1017.32 384.508 1015.9 385.18C1014.47 385.836 1013.27 386.742 1012.29 387.898C1011.29 389.055 1010.52 390.422 1009.99 392C1009.46 393.562 1009.19 395.258 1009.19 397.086ZM1013.53 397.602V397.086C1013.53 395.852 1013.68 394.672 1013.97 393.547C1014.27 392.406 1014.72 391.406 1015.33 390.547C1015.93 389.688 1016.67 389.008 1017.56 388.508C1018.45 387.992 1019.5 387.734 1020.7 387.734C1021.9 387.734 1022.95 387.992 1023.84 388.508C1024.75 389.008 1025.51 389.688 1026.12 390.547C1026.71 391.406 1027.15 392.406 1027.45 393.547C1027.76 394.672 1027.92 395.852 1027.92 397.086V397.602C1027.92 398.852 1027.77 400.047 1027.47 401.188C1027.18 402.312 1026.73 403.305 1026.14 404.164C1025.53 405.023 1024.77 405.703 1023.87 406.203C1022.97 406.703 1021.94 406.953 1020.75 406.953C1019.54 406.953 1018.49 406.703 1017.58 406.203C1016.68 405.703 1015.93 405.023 1015.33 404.164C1014.72 403.305 1014.27 402.312 1013.97 401.188C1013.68 400.047 1013.53 398.852 1013.53 397.602ZM1041.16 410H1045.5V391.812C1045.79 391.266 1046.14 390.766 1046.53 390.312C1046.93 389.859 1047.37 389.461 1047.84 389.117C1048.42 388.727 1049.05 388.422 1049.74 388.203C1050.43 387.969 1051.17 387.852 1051.96 387.852C1052.89 387.852 1053.7 387.961 1054.4 388.18C1055.12 388.398 1055.73 388.75 1056.23 389.234C1056.71 389.719 1057.08 390.352 1057.33 391.133C1057.58 391.914 1057.71 392.867 1057.71 393.992V410H1062.04V393.898C1062.04 392.211 1061.83 390.758 1061.41 389.539C1061 388.305 1060.42 387.289 1059.65 386.492C1058.89 385.695 1057.96 385.109 1056.86 384.734C1055.79 384.359 1054.58 384.172 1053.25 384.172C1052.27 384.188 1051.33 384.336 1050.44 384.617C1049.57 384.883 1048.75 385.266 1048 385.766C1047.5 386.094 1047.03 386.484 1046.57 386.938C1046.14 387.375 1045.73 387.859 1045.36 388.391L1045.05 384.641H1041.16V410ZM1088.76 403.273C1088.76 403.68 1088.68 404.062 1088.53 404.422C1088.37 404.781 1088.14 405.109 1087.85 405.406C1087.36 405.891 1086.69 406.273 1085.83 406.555C1084.97 406.82 1083.96 406.953 1082.81 406.953C1082.07 406.953 1081.33 406.875 1080.58 406.719C1079.83 406.562 1079.15 406.297 1078.54 405.922C1077.92 405.547 1077.39 405.055 1076.97 404.445C1076.56 403.836 1076.33 403.086 1076.27 402.195H1071.93C1071.93 403.273 1072.17 404.312 1072.66 405.312C1073.16 406.312 1073.88 407.188 1074.81 407.938C1075.74 408.703 1076.87 409.32 1078.21 409.789C1079.56 410.242 1081.09 410.469 1082.81 410.469C1084.31 410.469 1085.69 410.289 1086.96 409.93C1088.22 409.57 1089.31 409.062 1090.21 408.406C1091.12 407.75 1091.82 406.961 1092.32 406.039C1092.84 405.117 1093.1 404.094 1093.1 402.969C1093.1 401.922 1092.87 401 1092.42 400.203C1091.98 399.406 1091.34 398.703 1090.49 398.094C1089.65 397.5 1088.61 396.992 1087.38 396.57C1086.14 396.133 1084.74 395.75 1083.18 395.422C1081.99 395.188 1081.01 394.945 1080.23 394.695C1079.46 394.445 1078.85 394.164 1078.4 393.852C1077.93 393.539 1077.6 393.188 1077.42 392.797C1077.23 392.406 1077.14 391.961 1077.14 391.461C1077.14 390.977 1077.25 390.508 1077.49 390.055C1077.72 389.602 1078.07 389.203 1078.54 388.859C1078.99 388.516 1079.56 388.242 1080.25 388.039C1080.96 387.836 1081.77 387.734 1082.69 387.734C1083.58 387.734 1084.38 387.859 1085.08 388.109C1085.8 388.359 1086.41 388.688 1086.91 389.094C1087.41 389.5 1087.8 389.969 1088.08 390.5C1088.36 391.016 1088.5 391.547 1088.5 392.094H1092.84C1092.84 390.984 1092.6 389.953 1092.11 389C1091.64 388.031 1090.97 387.188 1090.1 386.469C1089.22 385.75 1088.16 385.188 1086.91 384.781C1085.66 384.375 1084.25 384.172 1082.69 384.172C1081.24 384.172 1079.9 384.367 1078.68 384.758C1077.48 385.148 1076.44 385.68 1075.56 386.352C1074.69 387.023 1074.01 387.812 1073.53 388.719C1073.04 389.609 1072.8 390.57 1072.8 391.602C1072.8 392.648 1073.03 393.57 1073.5 394.367C1073.97 395.148 1074.64 395.828 1075.49 396.406C1076.34 397 1077.35 397.508 1078.54 397.93C1079.74 398.352 1081.07 398.711 1082.53 399.008C1083.71 399.242 1084.71 399.508 1085.5 399.805C1086.3 400.086 1086.94 400.398 1087.42 400.742C1087.91 401.086 1088.25 401.469 1088.46 401.891C1088.66 402.297 1088.76 402.758 1088.76 403.273Z" fill="#3E2D4A"/>
<path d="M1384.97 249.875H1379.6V284H1383.82V270.383L1383.47 256.625L1389.25 274.508H1391.74L1398.04 256.133L1397.69 270.383V284H1401.91V249.875H1396.52L1390.52 266.938L1384.97 249.875ZM1422.16 284.469C1424.63 284.469 1426.7 283.977 1428.37 282.992C1430.06 281.992 1431.32 280.852 1432.17 279.57L1429.52 277.508C1428.72 278.539 1427.72 279.367 1426.52 279.992C1425.32 280.617 1423.94 280.93 1422.39 280.93C1421.22 280.93 1420.15 280.711 1419.18 280.273C1418.21 279.836 1417.39 279.234 1416.7 278.469C1416.03 277.75 1415.49 276.922 1415.1 275.984C1414.73 275.047 1414.49 273.961 1414.38 272.727V272.562H1432.49V270.617C1432.49 268.852 1432.27 267.211 1431.82 265.695C1431.38 264.18 1430.71 262.859 1429.8 261.734C1428.89 260.625 1427.75 259.758 1426.38 259.133C1425.02 258.492 1423.42 258.172 1421.6 258.172C1420.14 258.172 1418.72 258.469 1417.33 259.062C1415.96 259.656 1414.73 260.508 1413.65 261.617C1412.56 262.742 1411.68 264.117 1411.03 265.742C1410.37 267.352 1410.04 269.18 1410.04 271.227V272.211C1410.04 273.977 1410.34 275.609 1410.93 277.109C1411.53 278.609 1412.35 279.906 1413.42 281C1414.48 282.094 1415.75 282.945 1417.24 283.555C1418.74 284.164 1420.38 284.469 1422.16 284.469ZM1421.6 261.734C1422.71 261.734 1423.66 261.938 1424.46 262.344C1425.27 262.75 1425.94 263.281 1426.47 263.938C1427 264.594 1427.42 265.375 1427.71 266.281C1428.01 267.172 1428.16 268.008 1428.16 268.789V269H1414.52C1414.69 267.828 1414.99 266.797 1415.41 265.906C1415.85 265 1416.38 264.234 1417 263.609C1417.63 263 1418.33 262.539 1419.11 262.227C1419.89 261.898 1420.72 261.734 1421.6 261.734ZM1458.32 258.172C1456.48 258.172 1454.83 258.578 1453.38 259.391C1451.94 260.188 1450.7 261.281 1449.67 262.672L1449.65 262.039L1449.46 258.641H1445.34V284H1449.7V267.734C1449.98 266.953 1450.33 266.25 1450.75 265.625C1451.19 264.984 1451.7 264.445 1452.27 264.008C1452.91 263.508 1453.66 263.133 1454.52 262.883C1455.38 262.617 1456.34 262.484 1457.41 262.484C1458.24 262.484 1459.02 262.531 1459.77 262.625C1460.54 262.703 1461.34 262.836 1462.19 263.023L1462.77 258.781C1462.34 258.594 1461.68 258.445 1460.81 258.336C1459.95 258.227 1459.12 258.172 1458.32 258.172ZM1471.66 271.109V271.602C1471.66 273.414 1471.89 275.109 1472.36 276.688C1472.83 278.25 1473.5 279.609 1474.37 280.766C1475.23 281.922 1476.29 282.828 1477.54 283.484C1478.79 284.141 1480.19 284.469 1481.73 284.469C1482.66 284.469 1483.51 284.367 1484.31 284.164C1485.11 283.977 1485.83 283.703 1486.49 283.344C1486.91 283.109 1487.3 282.836 1487.66 282.523C1488.04 282.211 1488.39 281.867 1488.72 281.492V283.672C1488.72 284.766 1488.56 285.734 1488.25 286.578C1487.94 287.422 1487.49 288.125 1486.91 288.688C1486.32 289.266 1485.61 289.703 1484.78 290C1483.95 290.297 1483.02 290.445 1481.99 290.445C1481.41 290.445 1480.83 290.383 1480.26 290.258C1479.68 290.148 1479.1 289.961 1478.52 289.695C1477.94 289.43 1477.37 289.07 1476.81 288.617C1476.25 288.18 1475.7 287.641 1475.17 287L1472.92 289.602C1473.5 290.43 1474.19 291.125 1474.98 291.688C1475.8 292.25 1476.64 292.695 1477.51 293.023C1478.37 293.367 1479.23 293.609 1480.07 293.75C1480.91 293.906 1481.66 293.984 1482.32 293.984C1483.91 293.984 1485.37 293.75 1486.68 293.281C1487.99 292.812 1489.12 292.125 1490.08 291.219C1491.01 290.312 1491.74 289.211 1492.26 287.914C1492.79 286.617 1493.05 285.133 1493.05 283.461V258.641H1489.12L1488.91 261.406C1488.61 261.031 1488.29 260.688 1487.94 260.375C1487.62 260.062 1487.26 259.789 1486.89 259.555C1486.2 259.102 1485.43 258.758 1484.57 258.523C1483.73 258.289 1482.8 258.172 1481.78 258.172C1480.2 258.172 1478.79 258.492 1477.54 259.133C1476.29 259.773 1475.23 260.664 1474.35 261.805C1473.48 262.945 1472.8 264.312 1472.33 265.906C1471.88 267.484 1471.66 269.219 1471.66 271.109ZM1475.99 271.602V271.109C1475.99 269.875 1476.12 268.703 1476.37 267.594C1476.63 266.469 1477.05 265.477 1477.61 264.617C1478.16 263.773 1478.86 263.102 1479.72 262.602C1480.59 262.102 1481.64 261.852 1482.86 261.852C1483.58 261.852 1484.23 261.945 1484.83 262.133C1485.42 262.305 1485.96 262.547 1486.44 262.859C1486.93 263.188 1487.36 263.57 1487.73 264.008C1488.11 264.445 1488.44 264.93 1488.72 265.461V277.086C1488.44 277.633 1488.11 278.133 1487.73 278.586C1487.36 279.039 1486.94 279.43 1486.47 279.758C1485.98 280.086 1485.44 280.344 1484.83 280.531C1484.23 280.703 1483.56 280.789 1482.81 280.789C1481.61 280.789 1480.58 280.547 1479.72 280.062C1478.86 279.562 1478.16 278.891 1477.61 278.047C1477.05 277.203 1476.63 276.227 1476.37 275.117C1476.12 274.008 1475.99 272.836 1475.99 271.602ZM1514.4 284.469C1516.87 284.469 1518.94 283.977 1520.61 282.992C1522.3 281.992 1523.57 280.852 1524.41 279.57L1521.76 277.508C1520.97 278.539 1519.97 279.367 1518.76 279.992C1517.56 280.617 1516.18 280.93 1514.64 280.93C1513.47 280.93 1512.4 280.711 1511.43 280.273C1510.46 279.836 1509.63 279.234 1508.94 278.469C1508.27 277.75 1507.74 276.922 1507.35 275.984C1506.97 275.047 1506.73 273.961 1506.62 272.727V272.562H1524.74V270.617C1524.74 268.852 1524.51 267.211 1524.06 265.695C1523.62 264.18 1522.95 262.859 1522.04 261.734C1521.14 260.625 1520 259.758 1518.62 259.133C1517.26 258.492 1515.67 258.172 1513.84 258.172C1512.39 258.172 1510.97 258.469 1509.58 259.062C1508.2 259.656 1506.97 260.508 1505.9 261.617C1504.8 262.742 1503.93 264.117 1503.27 265.742C1502.61 267.352 1502.29 269.18 1502.29 271.227V272.211C1502.29 273.977 1502.58 275.609 1503.18 277.109C1503.77 278.609 1504.6 279.906 1505.66 281C1506.72 282.094 1508 282.945 1509.48 283.555C1510.98 284.164 1512.62 284.469 1514.4 284.469ZM1513.84 261.734C1514.95 261.734 1515.9 261.938 1516.7 262.344C1517.51 262.75 1518.18 263.281 1518.72 263.938C1519.25 264.594 1519.66 265.375 1519.96 266.281C1520.25 267.172 1520.4 268.008 1520.4 268.789V269H1506.76C1506.93 267.828 1507.23 266.797 1507.65 265.906C1508.09 265 1508.62 264.234 1509.25 263.609C1509.87 263 1510.58 262.539 1511.36 262.227C1512.14 261.898 1512.97 261.734 1513.84 261.734Z" fill="#877395"/>
<rect x="124" y="18" width="238" height="149" rx="23" fill="#5F4A6D"/>
<rect x="139" y="34" width="69" height="12" rx="6" fill="#FF7578"/>
<rect x="217" y="34" width="27" height="12" rx="6" fill="#FF7578"/>
<rect x="253" y="34" width="42" height="12" rx="6" fill="#FFC4C4"/>
<rect x="139" y="60" width="40" height="12" rx="6" fill="#FFF6F6"/>
<rect x="186" y="60" width="31" height="12" rx="6" fill="#FF7578"/>
<rect x="139" y="86" width="88" height="12" rx="6" fill="white"/>
<rect x="233" y="86" width="28" height="12" rx="6" fill="#FFC4C4"/>
<rect x="139" y="112" width="56" height="12" rx="6" fill="#FFC4C4"/>
<rect x="251" y="112" width="56" height="12" rx="6" fill="#FF7578"/>
<rect x="202" y="112" width="42" height="12" rx="6" fill="#FFF6F6"/>
<rect x="139" y="138" width="21" height="12" rx="6" fill="#FF7578"/>
<rect x="168" y="138" width="54" height="12" rx="6" fill="#FF7578"/>
<rect x="230" y="138" width="42" height="12" rx="6" fill="#FFF6F6"/>
<path d="M1701.08 258.172C1699.23 258.172 1697.58 258.578 1696.13 259.391C1694.69 260.188 1693.46 261.281 1692.43 262.672L1692.4 262.039L1692.22 258.641H1688.09V284H1692.45V267.734C1692.73 266.953 1693.08 266.25 1693.51 265.625C1693.94 264.984 1694.45 264.445 1695.03 264.008C1695.67 263.508 1696.42 263.133 1697.28 262.883C1698.14 262.617 1699.1 262.484 1700.16 262.484C1700.99 262.484 1701.78 262.531 1702.53 262.625C1703.3 262.703 1704.1 262.836 1704.94 263.023L1705.53 258.781C1705.09 258.594 1704.44 258.445 1703.56 258.336C1702.7 258.227 1701.87 258.172 1701.08 258.172ZM1726.41 284.469C1728.88 284.469 1730.95 283.977 1732.62 282.992C1734.31 281.992 1735.57 280.852 1736.42 279.57L1733.77 277.508C1732.97 278.539 1731.97 279.367 1730.77 279.992C1729.57 280.617 1728.19 280.93 1726.65 280.93C1725.47 280.93 1724.4 280.711 1723.43 280.273C1722.47 279.836 1721.64 279.234 1720.95 278.469C1720.28 277.75 1719.75 276.922 1719.36 275.984C1718.98 275.047 1718.74 273.961 1718.63 272.727V272.562H1736.75V270.617C1736.75 268.852 1736.52 267.211 1736.07 265.695C1735.63 264.18 1734.96 262.859 1734.05 261.734C1733.15 260.625 1732 259.758 1730.63 259.133C1729.27 258.492 1727.68 258.172 1725.85 258.172C1724.4 258.172 1722.97 258.469 1721.58 259.062C1720.21 259.656 1718.98 260.508 1717.9 261.617C1716.81 262.742 1715.93 264.117 1715.28 265.742C1714.62 267.352 1714.29 269.18 1714.29 271.227V272.211C1714.29 273.977 1714.59 275.609 1715.18 277.109C1715.78 278.609 1716.61 279.906 1717.67 281C1718.73 282.094 1720 282.945 1721.49 283.555C1722.99 284.164 1724.63 284.469 1726.41 284.469ZM1725.85 261.734C1726.96 261.734 1727.91 261.938 1728.71 262.344C1729.52 262.75 1730.19 263.281 1730.72 263.938C1731.25 264.594 1731.67 265.375 1731.97 266.281C1732.26 267.172 1732.41 268.008 1732.41 268.789V269H1718.77C1718.94 267.828 1719.24 266.797 1719.66 265.906C1720.1 265 1720.63 264.234 1721.25 263.609C1721.88 263 1722.58 262.539 1723.36 262.227C1724.15 261.898 1724.97 261.734 1725.85 261.734ZM1746.64 248V251.773H1755.26V280.25H1746.64V284H1767.87V280.25H1759.6V248H1746.64ZM1787.91 284.469C1790.38 284.469 1792.45 283.977 1794.12 282.992C1795.81 281.992 1797.07 280.852 1797.92 279.57L1795.27 277.508C1794.47 278.539 1793.47 279.367 1792.27 279.992C1791.06 280.617 1789.69 280.93 1788.14 280.93C1786.97 280.93 1785.9 280.711 1784.93 280.273C1783.96 279.836 1783.13 279.234 1782.45 278.469C1781.77 277.75 1781.24 276.922 1780.85 275.984C1780.48 275.047 1780.24 273.961 1780.13 272.727V272.562H1798.24V270.617C1798.24 268.852 1798.02 267.211 1797.56 265.695C1797.13 264.18 1796.45 262.859 1795.55 261.734C1794.64 260.625 1793.5 259.758 1792.13 259.133C1790.77 258.492 1789.17 258.172 1787.34 258.172C1785.89 258.172 1784.47 258.469 1783.08 259.062C1781.7 259.656 1780.48 260.508 1779.4 261.617C1778.31 262.742 1777.43 264.117 1776.77 265.742C1776.12 267.352 1775.79 269.18 1775.79 271.227V272.211C1775.79 273.977 1776.09 275.609 1776.68 277.109C1777.27 278.609 1778.1 279.906 1779.17 281C1780.23 282.094 1781.5 282.945 1782.99 283.555C1784.49 284.164 1786.13 284.469 1787.91 284.469ZM1787.34 261.734C1788.45 261.734 1789.41 261.938 1790.2 262.344C1791.02 262.75 1791.69 263.281 1792.22 263.938C1792.75 264.594 1793.17 265.375 1793.46 266.281C1793.76 267.172 1793.91 268.008 1793.91 268.789V269H1780.27C1780.44 267.828 1780.74 266.797 1781.16 265.906C1781.59 265 1782.13 264.234 1782.75 263.609C1783.38 263 1784.08 262.539 1784.86 262.227C1785.64 261.898 1786.47 261.734 1787.34 261.734ZM1824.12 284H1828.64V283.625C1828.36 282.922 1828.14 282.102 1827.98 281.164C1827.83 280.211 1827.75 279.312 1827.75 278.469V266.68C1827.75 265.258 1827.49 264.016 1826.98 262.953C1826.46 261.891 1825.76 261 1824.87 260.281C1823.96 259.578 1822.89 259.055 1821.66 258.711C1820.42 258.352 1819.08 258.172 1817.65 258.172C1816.07 258.172 1814.66 258.391 1813.41 258.828C1812.17 259.266 1811.12 259.836 1810.26 260.539C1809.39 261.258 1808.72 262.062 1808.25 262.953C1807.8 263.844 1807.56 264.75 1807.55 265.672H1811.91C1811.91 265.141 1812.03 264.633 1812.28 264.148C1812.55 263.648 1812.91 263.219 1813.38 262.859C1813.85 262.5 1814.42 262.211 1815.09 261.992C1815.78 261.773 1816.55 261.664 1817.41 261.664C1818.33 261.664 1819.16 261.781 1819.9 262.016C1820.65 262.25 1821.28 262.578 1821.8 263C1822.31 263.438 1822.71 263.961 1822.99 264.57C1823.27 265.18 1823.41 265.867 1823.41 266.633V268.625H1818.68C1816.91 268.625 1815.31 268.797 1813.87 269.141C1812.45 269.484 1811.23 270 1810.22 270.688C1809.2 271.391 1808.41 272.266 1807.85 273.312C1807.3 274.359 1807.03 275.578 1807.03 276.969C1807.03 278.031 1807.23 279.023 1807.64 279.945C1808.06 280.852 1808.66 281.633 1809.42 282.289C1810.17 282.961 1811.08 283.492 1812.16 283.883C1813.26 284.273 1814.48 284.469 1815.82 284.469C1816.65 284.469 1817.43 284.383 1818.16 284.211C1818.9 284.039 1819.59 283.805 1820.25 283.508C1820.89 283.211 1821.48 282.867 1822.01 282.477C1822.55 282.086 1823.05 281.672 1823.48 281.234C1823.53 281.766 1823.6 282.281 1823.69 282.781C1823.8 283.266 1823.94 283.672 1824.12 284ZM1816.45 280.695C1815.61 280.695 1814.87 280.586 1814.23 280.367C1813.58 280.148 1813.05 279.844 1812.63 279.453C1812.21 279.078 1811.89 278.625 1811.67 278.094C1811.47 277.562 1811.37 276.984 1811.37 276.359C1811.37 275.703 1811.48 275.117 1811.72 274.602C1811.97 274.086 1812.33 273.641 1812.8 273.266C1813.45 272.734 1814.33 272.344 1815.44 272.094C1816.57 271.828 1817.88 271.695 1819.38 271.695H1823.41V276.828C1823.16 277.328 1822.82 277.812 1822.38 278.281C1821.94 278.734 1821.43 279.141 1820.83 279.5C1820.23 279.859 1819.55 280.148 1818.82 280.367C1818.08 280.586 1817.3 280.695 1816.45 280.695ZM1855.05 277.273C1855.05 277.68 1854.97 278.062 1854.82 278.422C1854.66 278.781 1854.43 279.109 1854.14 279.406C1853.65 279.891 1852.98 280.273 1852.12 280.555C1851.26 280.82 1850.26 280.953 1849.1 280.953C1848.36 280.953 1847.62 280.875 1846.87 280.719C1846.12 280.562 1845.44 280.297 1844.83 279.922C1844.21 279.547 1843.68 279.055 1843.26 278.445C1842.86 277.836 1842.62 277.086 1842.56 276.195H1838.22C1838.22 277.273 1838.47 278.312 1838.95 279.312C1839.45 280.312 1840.17 281.188 1841.11 281.938C1842.03 282.703 1843.16 283.32 1844.51 283.789C1845.85 284.242 1847.38 284.469 1849.1 284.469C1850.6 284.469 1851.98 284.289 1853.25 283.93C1854.51 283.57 1855.6 283.062 1856.51 282.406C1857.41 281.75 1858.11 280.961 1858.61 280.039C1859.13 279.117 1859.39 278.094 1859.39 276.969C1859.39 275.922 1859.16 275 1858.71 274.203C1858.27 273.406 1857.63 272.703 1856.79 272.094C1855.94 271.5 1854.9 270.992 1853.67 270.57C1852.43 270.133 1851.04 269.75 1849.47 269.422C1848.29 269.188 1847.3 268.945 1846.52 268.695C1845.76 268.445 1845.15 268.164 1844.69 267.852C1844.22 267.539 1843.9 267.188 1843.71 266.797C1843.52 266.406 1843.43 265.961 1843.43 265.461C1843.43 264.977 1843.54 264.508 1843.78 264.055C1844.01 263.602 1844.36 263.203 1844.83 262.859C1845.29 262.516 1845.86 262.242 1846.54 262.039C1847.25 261.836 1848.06 261.734 1848.98 261.734C1849.87 261.734 1850.67 261.859 1851.37 262.109C1852.09 262.359 1852.7 262.688 1853.2 263.094C1853.7 263.5 1854.09 263.969 1854.37 264.5C1854.65 265.016 1854.79 265.547 1854.79 266.094H1859.13C1859.13 264.984 1858.89 263.953 1858.4 263C1857.93 262.031 1857.26 261.188 1856.39 260.469C1855.51 259.75 1854.45 259.188 1853.2 258.781C1851.95 258.375 1850.54 258.172 1848.98 258.172C1847.53 258.172 1846.19 258.367 1844.97 258.758C1843.77 259.148 1842.73 259.68 1841.86 260.352C1840.98 261.023 1840.3 261.812 1839.82 262.719C1839.33 263.609 1839.09 264.57 1839.09 265.602C1839.09 266.648 1839.33 267.57 1839.79 268.367C1840.26 269.148 1840.93 269.828 1841.79 270.406C1842.63 271 1843.65 271.508 1844.83 271.93C1846.04 272.352 1847.36 272.711 1848.82 273.008C1850.01 273.242 1851 273.508 1851.79 273.805C1852.59 274.086 1853.23 274.398 1853.72 274.742C1854.2 275.086 1854.54 275.469 1854.75 275.891C1854.95 276.297 1855.05 276.758 1855.05 277.273ZM1880.15 284.469C1882.62 284.469 1884.69 283.977 1886.36 282.992C1888.05 281.992 1889.32 280.852 1890.16 279.57L1887.51 277.508C1886.71 278.539 1885.71 279.367 1884.51 279.992C1883.31 280.617 1881.93 280.93 1880.39 280.93C1879.21 280.93 1878.14 280.711 1877.17 280.273C1876.21 279.836 1875.38 279.234 1874.69 278.469C1874.02 277.75 1873.49 276.922 1873.1 275.984C1872.72 275.047 1872.48 273.961 1872.37 272.727V272.562H1890.49V270.617C1890.49 268.852 1890.26 267.211 1889.81 265.695C1889.37 264.18 1888.7 262.859 1887.79 261.734C1886.89 260.625 1885.75 259.758 1884.37 259.133C1883.01 258.492 1881.42 258.172 1879.59 258.172C1878.14 258.172 1876.71 258.469 1875.32 259.062C1873.95 259.656 1872.72 260.508 1871.64 261.617C1870.55 262.742 1869.67 264.117 1869.02 265.742C1868.36 267.352 1868.03 269.18 1868.03 271.227V272.211C1868.03 273.977 1868.33 275.609 1868.92 277.109C1869.52 278.609 1870.35 279.906 1871.41 281C1872.47 282.094 1873.75 282.945 1875.23 283.555C1876.73 284.164 1878.37 284.469 1880.15 284.469ZM1879.59 261.734C1880.7 261.734 1881.65 261.938 1882.45 262.344C1883.26 262.75 1883.93 263.281 1884.46 263.938C1885 264.594 1885.41 265.375 1885.71 266.281C1886 267.172 1886.15 268.008 1886.15 268.789V269H1872.51C1872.68 267.828 1872.98 266.797 1873.4 265.906C1873.84 265 1874.37 264.234 1875 263.609C1875.62 263 1876.32 262.539 1877.1 262.227C1877.89 261.898 1878.71 261.734 1879.59 261.734ZM1702.08 347H1706.61V346.625C1706.33 345.922 1706.11 345.102 1705.95 344.164C1705.79 343.211 1705.72 342.312 1705.72 341.469V329.68C1705.72 328.258 1705.46 327.016 1704.94 325.953C1704.43 324.891 1703.72 324 1702.83 323.281C1701.93 322.578 1700.86 322.055 1699.62 321.711C1698.39 321.352 1697.05 321.172 1695.61 321.172C1694.04 321.172 1692.62 321.391 1691.37 321.828C1690.14 322.266 1689.09 322.836 1688.23 323.539C1687.36 324.258 1686.69 325.062 1686.22 325.953C1685.76 326.844 1685.53 327.75 1685.51 328.672H1689.87C1689.87 328.141 1690 327.633 1690.25 327.148C1690.51 326.648 1690.88 326.219 1691.35 325.859C1691.82 325.5 1692.39 325.211 1693.06 324.992C1693.75 324.773 1694.52 324.664 1695.38 324.664C1696.3 324.664 1697.13 324.781 1697.86 325.016C1698.61 325.25 1699.25 325.578 1699.76 326C1700.28 326.438 1700.68 326.961 1700.96 327.57C1701.24 328.18 1701.38 328.867 1701.38 329.633V331.625H1696.65C1694.88 331.625 1693.28 331.797 1691.84 332.141C1690.42 332.484 1689.2 333 1688.19 333.688C1687.17 334.391 1686.38 335.266 1685.82 336.312C1685.27 337.359 1685 338.578 1685 339.969C1685 341.031 1685.2 342.023 1685.61 342.945C1686.03 343.852 1686.62 344.633 1687.39 345.289C1688.14 345.961 1689.05 346.492 1690.13 346.883C1691.22 347.273 1692.44 347.469 1693.79 347.469C1694.61 347.469 1695.4 347.383 1696.13 347.211C1696.86 347.039 1697.56 346.805 1698.22 346.508C1698.86 346.211 1699.44 345.867 1699.97 345.477C1700.52 345.086 1701.01 344.672 1701.45 344.234C1701.5 344.766 1701.57 345.281 1701.66 345.781C1701.77 346.266 1701.91 346.672 1702.08 347ZM1694.42 343.695C1693.58 343.695 1692.83 343.586 1692.19 343.367C1691.55 343.148 1691.02 342.844 1690.6 342.453C1690.18 342.078 1689.86 341.625 1689.64 341.094C1689.44 340.562 1689.33 339.984 1689.33 339.359C1689.33 338.703 1689.45 338.117 1689.69 337.602C1689.94 337.086 1690.29 336.641 1690.76 336.266C1691.42 335.734 1692.3 335.344 1693.41 335.094C1694.54 334.828 1695.85 334.695 1697.35 334.695H1701.38V339.828C1701.13 340.328 1700.79 340.812 1700.35 341.281C1699.91 341.734 1699.4 342.141 1698.8 342.5C1698.19 342.859 1697.52 343.148 1696.79 343.367C1696.05 343.586 1695.26 343.695 1694.42 343.695ZM1716.17 347H1720.5V328.812C1720.8 328.266 1721.14 327.766 1721.53 327.312C1721.94 326.859 1722.38 326.461 1722.85 326.117C1723.43 325.727 1724.06 325.422 1724.75 325.203C1725.43 324.969 1726.18 324.852 1726.97 324.852C1727.89 324.852 1728.71 324.961 1729.41 325.18C1730.13 325.398 1730.74 325.75 1731.24 326.234C1731.72 326.719 1732.09 327.352 1732.34 328.133C1732.59 328.914 1732.71 329.867 1732.71 330.992V347H1737.05V330.898C1737.05 329.211 1736.84 327.758 1736.42 326.539C1736.01 325.305 1735.43 324.289 1734.66 323.492C1733.89 322.695 1732.96 322.109 1731.87 321.734C1730.79 321.359 1729.59 321.172 1728.26 321.172C1727.28 321.188 1726.34 321.336 1725.45 321.617C1724.57 321.883 1723.76 322.266 1723.01 322.766C1722.51 323.094 1722.03 323.484 1721.58 323.938C1721.14 324.375 1720.74 324.859 1720.36 325.391L1720.06 321.641H1716.17V347ZM1746.1 334.109V334.602C1746.1 336.414 1746.34 338.109 1746.82 339.688C1747.31 341.25 1747.99 342.609 1748.86 343.766C1749.74 344.922 1750.79 345.828 1752.03 346.484C1753.28 347.141 1754.67 347.469 1756.2 347.469C1757.76 347.469 1759.13 347.203 1760.3 346.672C1761.47 346.141 1762.48 345.359 1763.32 344.328L1763.51 347H1767.49V311H1763.16V324.148C1762.33 323.18 1761.35 322.445 1760.21 321.945C1759.08 321.43 1757.76 321.172 1756.24 321.172C1754.7 321.172 1753.3 321.492 1752.05 322.133C1750.8 322.773 1749.74 323.664 1748.86 324.805C1747.97 325.945 1747.28 327.312 1746.8 328.906C1746.33 330.484 1746.1 332.219 1746.1 334.109ZM1750.43 334.602V334.109C1750.43 332.875 1750.56 331.703 1750.83 330.594C1751.1 329.469 1751.51 328.477 1752.07 327.617C1752.62 326.773 1753.32 326.102 1754.18 325.602C1755.06 325.102 1756.1 324.852 1757.32 324.852C1758.74 324.852 1759.93 325.188 1760.88 325.859C1761.84 326.516 1762.6 327.359 1763.16 328.391V340.156C1762.6 341.266 1761.84 342.148 1760.88 342.805C1759.93 343.461 1758.73 343.789 1757.28 343.789C1756.07 343.789 1755.04 343.547 1754.18 343.062C1753.32 342.562 1752.62 341.891 1752.07 341.047C1751.51 340.203 1751.1 339.227 1750.83 338.117C1750.56 337.008 1750.43 335.836 1750.43 334.602ZM1794.28 321.172C1792.44 321.172 1790.79 321.578 1789.34 322.391C1787.9 323.188 1786.66 324.281 1785.63 325.672L1785.61 325.039L1785.42 321.641H1781.3V347H1785.66V330.734C1785.94 329.953 1786.29 329.25 1786.71 328.625C1787.15 327.984 1787.66 327.445 1788.23 327.008C1788.88 326.508 1789.62 326.133 1790.48 325.883C1791.34 325.617 1792.3 325.484 1793.37 325.484C1794.2 325.484 1794.98 325.531 1795.73 325.625C1796.5 325.703 1797.3 325.836 1798.15 326.023L1798.73 321.781C1798.3 321.594 1797.64 321.445 1796.77 321.336C1795.91 321.227 1795.08 321.172 1794.28 321.172ZM1807.19 334.086V334.602C1807.19 336.43 1807.46 338.125 1807.99 339.688C1808.52 341.25 1809.29 342.609 1810.29 343.766C1811.27 344.922 1812.47 345.828 1813.9 346.484C1815.33 347.141 1816.95 347.469 1818.75 347.469C1820.53 347.469 1822.13 347.141 1823.55 346.484C1824.97 345.828 1826.19 344.922 1827.19 343.766C1828.17 342.609 1828.93 341.25 1829.46 339.688C1829.99 338.125 1830.26 336.43 1830.26 334.602V334.086C1830.26 332.258 1829.99 330.562 1829.46 329C1828.93 327.422 1828.17 326.055 1827.19 324.898C1826.19 323.742 1824.97 322.836 1823.53 322.18C1822.11 321.508 1820.5 321.172 1818.7 321.172C1816.92 321.172 1815.32 321.508 1813.9 322.18C1812.47 322.836 1811.27 323.742 1810.29 324.898C1809.29 326.055 1808.52 327.422 1807.99 329C1807.46 330.562 1807.19 332.258 1807.19 334.086ZM1811.53 334.602V334.086C1811.53 332.852 1811.68 331.672 1811.97 330.547C1812.27 329.406 1812.72 328.406 1813.33 327.547C1813.93 326.688 1814.67 326.008 1815.56 325.508C1816.45 324.992 1817.5 324.734 1818.7 324.734C1819.9 324.734 1820.95 324.992 1821.84 325.508C1822.75 326.008 1823.51 326.688 1824.12 327.547C1824.71 328.406 1825.15 329.406 1825.45 330.547C1825.76 331.672 1825.92 332.852 1825.92 334.086V334.602C1825.92 335.852 1825.77 337.047 1825.47 338.188C1825.18 339.312 1824.73 340.305 1824.14 341.164C1823.53 342.023 1822.77 342.703 1821.87 343.203C1820.97 343.703 1819.94 343.953 1818.75 343.953C1817.54 343.953 1816.49 343.703 1815.58 343.203C1814.68 342.703 1813.93 342.023 1813.33 341.164C1812.72 340.305 1812.27 339.312 1811.97 338.188C1811.68 337.047 1811.53 335.852 1811.53 334.602ZM1839.84 321.641V325.414H1848.46V343.25H1839.84V347H1861.07V343.25H1852.8V321.641H1839.84ZM1847.9 314.984C1847.9 315.688 1848.11 316.273 1848.54 316.742C1848.97 317.211 1849.63 317.445 1850.5 317.445C1851.36 317.445 1852.01 317.211 1852.45 316.742C1852.89 316.273 1853.11 315.688 1853.11 314.984C1853.11 314.594 1853.04 314.234 1852.92 313.906C1852.79 313.578 1852.61 313.305 1852.36 313.086C1852.15 312.883 1851.89 312.727 1851.58 312.617C1851.27 312.492 1850.91 312.43 1850.5 312.43C1850.1 312.43 1849.73 312.492 1849.4 312.617C1849.09 312.727 1848.83 312.883 1848.63 313.086C1848.38 313.32 1848.19 313.602 1848.07 313.93C1847.96 314.258 1847.9 314.609 1847.9 314.984ZM1869.09 334.109V334.602C1869.09 336.414 1869.33 338.109 1869.81 339.688C1870.3 341.25 1870.98 342.609 1871.85 343.766C1872.73 344.922 1873.78 345.828 1875.02 346.484C1876.27 347.141 1877.66 347.469 1879.19 347.469C1880.75 347.469 1882.12 347.203 1883.29 346.672C1884.46 346.141 1885.47 345.359 1886.31 344.328L1886.5 347H1890.49V311H1886.15V324.148C1885.32 323.18 1884.34 322.445 1883.2 321.945C1882.07 321.43 1880.75 321.172 1879.24 321.172C1877.69 321.172 1876.29 321.492 1875.04 322.133C1873.79 322.773 1872.73 323.664 1871.85 324.805C1870.96 325.945 1870.28 327.312 1869.79 328.906C1869.32 330.484 1869.09 332.219 1869.09 334.109ZM1873.42 334.602V334.109C1873.42 332.875 1873.56 331.703 1873.82 330.594C1874.09 329.469 1874.5 328.477 1875.06 327.617C1875.61 326.773 1876.31 326.102 1877.17 325.602C1878.05 325.102 1879.1 324.852 1880.31 324.852C1881.74 324.852 1882.92 325.188 1883.88 325.859C1884.83 326.516 1885.59 327.359 1886.15 328.391V340.156C1885.59 341.266 1884.83 342.148 1883.88 342.805C1882.92 343.461 1881.72 343.789 1880.27 343.789C1879.06 343.789 1878.03 343.547 1877.17 343.062C1876.31 342.562 1875.61 341.891 1875.06 341.047C1874.5 340.203 1874.09 339.227 1873.82 338.117C1873.56 337.008 1873.42 335.836 1873.42 334.602ZM1763.58 410H1768.1V409.625C1767.82 408.922 1767.6 408.102 1767.45 407.164C1767.29 406.211 1767.21 405.312 1767.21 404.469V392.68C1767.21 391.258 1766.96 390.016 1766.44 388.953C1765.92 387.891 1765.22 387 1764.33 386.281C1763.42 385.578 1762.35 385.055 1761.12 384.711C1759.88 384.352 1758.55 384.172 1757.11 384.172C1755.53 384.172 1754.12 384.391 1752.87 384.828C1751.63 385.266 1750.59 385.836 1749.73 386.539C1748.85 387.258 1748.18 388.062 1747.71 388.953C1747.26 389.844 1747.03 390.75 1747.01 391.672H1751.37C1751.37 391.141 1751.49 390.633 1751.74 390.148C1752.01 389.648 1752.38 389.219 1752.85 388.859C1753.31 388.5 1753.88 388.211 1754.56 387.992C1755.24 387.773 1756.02 387.664 1756.88 387.664C1757.8 387.664 1758.63 387.781 1759.36 388.016C1760.11 388.25 1760.74 388.578 1761.26 389C1761.78 389.438 1762.17 389.961 1762.46 390.57C1762.74 391.18 1762.88 391.867 1762.88 392.633V394.625H1758.14C1756.38 394.625 1754.78 394.797 1753.34 395.141C1751.92 395.484 1750.7 396 1749.68 396.688C1748.67 397.391 1747.88 398.266 1747.31 399.312C1746.77 400.359 1746.49 401.578 1746.49 402.969C1746.49 404.031 1746.7 405.023 1747.1 405.945C1747.53 406.852 1748.12 407.633 1748.88 408.289C1749.63 408.961 1750.55 409.492 1751.63 409.883C1752.72 410.273 1753.94 410.469 1755.28 410.469C1756.11 410.469 1756.89 410.383 1757.63 410.211C1758.36 410.039 1759.06 409.805 1759.71 409.508C1760.35 409.211 1760.94 408.867 1761.47 408.477C1762.02 408.086 1762.51 407.672 1762.95 407.234C1762.99 407.766 1763.06 408.281 1763.16 408.781C1763.27 409.266 1763.41 409.672 1763.58 410ZM1755.92 406.695C1755.07 406.695 1754.33 406.586 1753.69 406.367C1753.05 406.148 1752.52 405.844 1752.1 405.453C1751.67 405.078 1751.35 404.625 1751.13 404.094C1750.93 403.562 1750.83 402.984 1750.83 402.359C1750.83 401.703 1750.95 401.117 1751.18 400.602C1751.43 400.086 1751.79 399.641 1752.26 399.266C1752.92 398.734 1753.8 398.344 1754.91 398.094C1756.03 397.828 1757.35 397.695 1758.85 397.695H1762.88V402.828C1762.63 403.328 1762.28 403.812 1761.85 404.281C1761.41 404.734 1760.89 405.141 1760.3 405.5C1759.69 405.859 1759.02 406.148 1758.28 406.367C1757.55 406.586 1756.76 406.695 1755.92 406.695ZM1777.64 419.75H1781.98V407.562C1782.29 407.906 1782.62 408.227 1782.98 408.523C1783.34 408.805 1783.73 409.062 1784.13 409.297C1784.8 409.672 1785.55 409.961 1786.38 410.164C1787.23 410.367 1788.13 410.469 1789.1 410.469C1790.7 410.469 1792.11 410.141 1793.34 409.484C1794.59 408.828 1795.64 407.922 1796.48 406.766C1797.33 405.609 1797.97 404.25 1798.41 402.688C1798.84 401.109 1799.06 399.414 1799.06 397.602V397.109C1799.06 395.219 1798.84 393.484 1798.41 391.906C1797.97 390.312 1797.33 388.945 1796.48 387.805C1795.64 386.664 1794.59 385.773 1793.34 385.133C1792.09 384.492 1790.66 384.172 1789.03 384.172C1788.11 384.172 1787.24 384.273 1786.43 384.477C1785.63 384.664 1784.91 384.945 1784.25 385.32C1783.78 385.57 1783.34 385.875 1782.94 386.234C1782.53 386.578 1782.16 386.969 1781.81 387.406L1781.6 384.641H1777.64V419.75ZM1794.73 397.109V397.602C1794.73 398.836 1794.59 400.016 1794.3 401.141C1794.04 402.266 1793.62 403.258 1793.06 404.117C1792.5 404.977 1791.78 405.664 1790.91 406.18C1790.03 406.68 1788.99 406.93 1787.79 406.93C1787.04 406.93 1786.35 406.836 1785.73 406.648C1785.12 406.461 1784.56 406.203 1784.06 405.875C1783.62 405.594 1783.23 405.25 1782.89 404.844C1782.55 404.438 1782.24 404 1781.98 403.531V391.32C1782.27 390.789 1782.62 390.305 1783.01 389.867C1783.4 389.43 1783.84 389.062 1784.34 388.766C1784.8 388.469 1785.3 388.242 1785.87 388.086C1786.45 387.93 1787.07 387.852 1787.74 387.852C1788.96 387.852 1790.01 388.102 1790.88 388.602C1791.76 389.102 1792.48 389.773 1793.06 390.617C1793.62 391.477 1794.04 392.469 1794.3 393.594C1794.59 394.703 1794.73 395.875 1794.73 397.109ZM1808.39 419.75H1812.72V407.562C1813.04 407.906 1813.37 408.227 1813.73 408.523C1814.09 408.805 1814.47 409.062 1814.88 409.297C1815.55 409.672 1816.3 409.961 1817.13 410.164C1817.97 410.367 1818.88 410.469 1819.85 410.469C1821.44 410.469 1822.86 410.141 1824.09 409.484C1825.34 408.828 1826.39 407.922 1827.23 406.766C1828.08 405.609 1828.72 404.25 1829.15 402.688C1829.59 401.109 1829.81 399.414 1829.81 397.602V397.109C1829.81 395.219 1829.59 393.484 1829.15 391.906C1828.72 390.312 1828.08 388.945 1827.23 387.805C1826.39 386.664 1825.34 385.773 1824.09 385.133C1822.84 384.492 1821.4 384.172 1819.78 384.172C1818.86 384.172 1817.99 384.273 1817.18 384.477C1816.38 384.664 1815.65 384.945 1815 385.32C1814.53 385.57 1814.09 385.875 1813.69 386.234C1813.28 386.578 1812.9 386.969 1812.56 387.406L1812.35 384.641H1808.39V419.75ZM1825.47 397.109V397.602C1825.47 398.836 1825.33 400.016 1825.05 401.141C1824.79 402.266 1824.37 403.258 1823.81 404.117C1823.25 404.977 1822.53 405.664 1821.65 406.18C1820.78 406.68 1819.74 406.93 1818.54 406.93C1817.79 406.93 1817.1 406.836 1816.47 406.648C1815.87 406.461 1815.31 406.203 1814.81 405.875C1814.37 405.594 1813.98 405.25 1813.64 404.844C1813.29 404.438 1812.99 404 1812.72 403.531V391.32C1813.02 390.789 1813.37 390.305 1813.76 389.867C1814.15 389.43 1814.59 389.062 1815.09 388.766C1815.54 388.469 1816.05 388.242 1816.62 388.086C1817.19 387.93 1817.82 387.852 1818.49 387.852C1819.71 387.852 1820.76 388.102 1821.63 388.602C1822.51 389.102 1823.23 389.773 1823.81 390.617C1824.37 391.477 1824.79 392.469 1825.05 393.594C1825.33 394.703 1825.47 395.875 1825.47 397.109Z" fill="#3E2D4A"/>
<path d="M553 67L599.284 99.217C601.57 100.809 601.57 104.191 599.284 105.783L553 138" stroke="#3E2D4A" stroke-width="16" stroke-linecap="round"/>
<path d="M1428 67L1474.28 99.217C1476.57 100.809 1476.57 104.191 1474.28 105.783L1428 138" stroke="#3E2D4A" stroke-width="16" stroke-linecap="round"/>
<path d="M1778.37 126.852L1720.51 91.3644L1702 121.555L1720.51 132.683L1759.28 155.983L1778.37 126.852Z" fill="#FF7578"/>
<path d="M1837.38 91.3644L1778.37 126.852L1793.99 155.453L1837.38 128.581L1853 118.907L1837.38 91.3644Z" fill="#FF7578"/>
<path d="M1759.28 67L1720.51 91.3644M1720.51 91.3644L1778.37 126.852M1720.51 91.3644L1702 121.555L1720.51 132.683M1778.37 126.852L1837.38 91.3644M1778.37 126.852V192M1778.37 126.852L1759.28 155.983L1720.51 132.683M1778.37 126.852L1793.99 155.453L1837.38 128.581M1837.38 91.3644L1796.88 67M1837.38 91.3644L1853 118.907L1837.38 128.581M1778.37 192L1837.38 155.983V128.581M1778.37 192L1720.51 155.453V132.683" stroke="#5F4A6D" stroke-width="9" stroke-linecap="round" stroke-linejoin="round"/>
<path d="M1776 100V34M1776 34L1762 48.0177M1776 34L1790 48.0177" stroke="#5F4A6D" stroke-width="8" stroke-linecap="round" stroke-linejoin="round"/>
<path fill-rule="evenodd" clip-rule="evenodd" d="M989.5 0C937.289 0 895 42.2113 895 94.327C895 136.067 922.051 171.321 959.614 183.82C964.339 184.645 966.111 181.815 966.111 179.339C966.111 177.099 965.993 169.671 965.993 161.771C942.25 166.133 936.107 155.993 934.217 150.687C933.154 147.976 928.548 139.604 924.531 137.364C921.224 135.595 916.499 131.232 924.413 131.115C931.855 130.997 937.171 137.953 938.943 140.783C947.448 155.05 961.032 151.041 966.466 148.565C967.293 142.434 969.773 138.307 972.49 135.949C951.464 133.591 929.493 125.455 929.493 89.3749C929.493 79.1168 933.154 70.6274 939.179 64.0245C938.234 61.6663 934.926 51.9978 940.124 39.0278C940.124 39.0278 948.038 36.5517 966.111 48.6963C973.671 46.574 981.704 45.5128 989.736 45.5128C997.769 45.5128 1005.8 46.574 1013.36 48.6963C1031.43 36.4338 1039.35 39.0278 1039.35 39.0278C1044.55 51.9978 1041.24 61.6663 1040.29 64.0245C1046.32 70.6274 1049.98 78.9989 1049.98 89.3749C1049.98 125.573 1027.89 133.591 1006.86 135.949C1010.29 138.897 1013.24 144.556 1013.24 153.399C1013.24 166.016 1013.12 176.156 1013.12 179.339C1013.12 181.815 1014.9 184.763 1019.62 183.82C1056.95 171.321 1084 135.949 1084 94.327C1084 42.2113 1041.71 0 989.5 0Z" fill="#1B1F23"/>
</svg>
