<svg width="1188" height="610" viewBox="0 0 1188 610" fill="none" xmlns="http://www.w3.org/2000/svg">
<g clip-path="url(#clip0)">
<path d="M293.869 472.376L404.72 280.376L515.571 472.376H293.869Z" stroke="#3E2D4A" stroke-width="11"/>
<path d="M203.82 282.293L398.851 348.455L365.707 551.719L203.82 282.293Z" stroke="#FF7D7C" stroke-width="11"/>
<path d="M426.973 372.111L428.696 378H433.073L424.881 352.406H421.137L412.805 378H417.2L418.94 372.111H426.973ZM420.012 368.49L423 358.365L425.936 368.49H420.012Z" fill="#FF7D7C"/>
<path d="M406.024 259V233.406H405.76L395.231 237.309V241.018L401.788 238.609V259H406.024Z" fill="#3E2D4A"/>
<path d="M274.946 515V511.607H263.028L268.723 505.525C269.473 504.729 270.165 503.955 270.797 503.205C271.442 502.455 271.999 501.711 272.467 500.973C272.924 500.234 273.282 499.49 273.54 498.74C273.809 497.979 273.944 497.193 273.944 496.385C273.944 495.307 273.768 494.322 273.417 493.432C273.065 492.529 272.555 491.756 271.887 491.111C271.208 490.467 270.37 489.963 269.374 489.6C268.389 489.236 267.27 489.055 266.016 489.055C264.68 489.055 263.467 489.271 262.377 489.705C261.299 490.139 260.385 490.725 259.635 491.463C258.874 492.201 258.288 493.068 257.877 494.064C257.467 495.049 257.262 496.098 257.262 497.211H261.481C261.481 496.473 261.575 495.816 261.762 495.242C261.95 494.656 262.231 494.164 262.606 493.766C262.969 493.367 263.426 493.062 263.977 492.852C264.528 492.641 265.178 492.535 265.928 492.535C266.514 492.535 267.042 492.635 267.51 492.834C267.991 493.033 268.401 493.309 268.741 493.66C269.081 494.012 269.338 494.434 269.514 494.926C269.69 495.418 269.778 495.963 269.778 496.561C269.778 497.006 269.713 497.451 269.584 497.896C269.467 498.33 269.268 498.799 268.987 499.303C268.694 499.807 268.313 500.363 267.844 500.973C267.375 501.57 266.795 502.25 266.104 503.012L257.772 512.082V515H274.946Z" fill="#3E2D4A"/>
<path d="M538.098 500.305V503.609H540.612C541.338 503.609 541.995 503.697 542.581 503.873C543.178 504.037 543.688 504.289 544.11 504.629C544.532 504.98 544.854 505.42 545.077 505.947C545.299 506.475 545.411 507.107 545.411 507.846C545.411 508.502 545.311 509.088 545.112 509.604C544.924 510.107 544.649 510.529 544.286 510.869C543.911 511.232 543.448 511.508 542.897 511.695C542.358 511.871 541.749 511.959 541.069 511.959C540.436 511.959 539.856 511.865 539.329 511.678C538.813 511.49 538.368 511.227 537.993 510.887C537.606 510.559 537.307 510.16 537.096 509.691C536.897 509.211 536.797 508.689 536.797 508.127H532.596C532.596 509.322 532.825 510.371 533.282 511.273C533.75 512.164 534.372 512.914 535.145 513.523C535.918 514.133 536.815 514.59 537.834 514.895C538.854 515.199 539.915 515.352 541.016 515.352C542.235 515.352 543.366 515.188 544.409 514.859C545.463 514.52 546.377 514.027 547.151 513.383C547.913 512.75 548.51 511.971 548.944 511.045C549.389 510.107 549.612 509.041 549.612 507.846C549.612 507.201 549.536 506.58 549.383 505.982C549.231 505.373 548.985 504.805 548.645 504.277C548.305 503.762 547.866 503.299 547.327 502.889C546.799 502.467 546.155 502.127 545.393 501.869C546.038 501.576 546.6 501.219 547.081 500.797C547.561 500.375 547.959 499.924 548.276 499.443C548.592 498.951 548.827 498.441 548.979 497.914C549.143 497.387 549.225 496.859 549.225 496.332C549.225 495.137 549.026 494.088 548.627 493.186C548.229 492.283 547.667 491.521 546.94 490.9C546.225 490.291 545.358 489.834 544.338 489.529C543.331 489.213 542.223 489.055 541.016 489.055C539.833 489.055 538.743 489.23 537.747 489.582C536.762 489.934 535.907 490.42 535.18 491.041C534.454 491.674 533.885 492.418 533.475 493.273C533.065 494.129 532.86 495.066 532.86 496.086H537.061C537.061 495.535 537.161 495.037 537.36 494.592C537.571 494.146 537.858 493.766 538.221 493.449C538.573 493.133 538.989 492.893 539.469 492.729C539.961 492.553 540.495 492.465 541.069 492.465C541.713 492.465 542.282 492.553 542.774 492.729C543.278 492.904 543.694 493.15 544.022 493.467C544.35 493.807 544.596 494.217 544.76 494.697C544.936 495.178 545.024 495.723 545.024 496.332C545.024 496.895 544.93 497.422 544.743 497.914C544.567 498.395 544.309 498.799 543.969 499.127C543.606 499.502 543.143 499.795 542.581 500.006C542.018 500.205 541.362 500.305 540.612 500.305H538.098Z" fill="#3E2D4A"/>
<path d="M398.825 592.125H394.588C394.518 592.898 394.366 593.584 394.131 594.182C393.897 594.779 393.586 595.277 393.2 595.676C392.801 596.086 392.321 596.396 391.758 596.607C391.196 596.818 390.551 596.924 389.825 596.924C389.215 596.924 388.67 596.842 388.19 596.678C387.721 596.502 387.305 596.25 386.942 595.922C386.59 595.617 386.286 595.254 386.028 594.832C385.782 594.41 385.577 593.941 385.413 593.426C385.202 592.805 385.043 592.119 384.938 591.369C384.844 590.619 384.797 589.816 384.797 588.961V585.428C384.797 584.736 384.833 584.062 384.903 583.406C384.985 582.738 385.102 582.111 385.254 581.525C385.454 580.857 385.706 580.254 386.01 579.715C386.327 579.164 386.713 578.713 387.17 578.361C387.522 578.092 387.915 577.881 388.348 577.729C388.793 577.576 389.292 577.5 389.842 577.5C390.627 577.5 391.301 577.617 391.864 577.852C392.426 578.074 392.901 578.402 393.288 578.836C393.663 579.27 393.956 579.797 394.167 580.418C394.389 581.027 394.536 581.713 394.606 582.475H398.825C398.696 581.197 398.409 580.037 397.963 578.994C397.53 577.951 396.932 577.061 396.17 576.322C395.42 575.596 394.512 575.033 393.446 574.635C392.391 574.236 391.19 574.037 389.842 574.037C388.846 574.037 387.926 574.172 387.083 574.441C386.25 574.711 385.489 575.086 384.797 575.566C384.071 576.094 383.426 576.732 382.864 577.482C382.313 578.221 381.862 579.047 381.51 579.961C381.182 580.781 380.936 581.654 380.772 582.58C380.608 583.506 380.526 584.467 380.526 585.463V588.961C380.526 590.004 380.614 591.006 380.79 591.967C380.965 592.928 381.217 593.818 381.545 594.639C381.885 595.471 382.301 596.238 382.793 596.941C383.297 597.633 383.883 598.225 384.551 598.717C385.243 599.244 386.028 599.654 386.907 599.947C387.797 600.229 388.77 600.369 389.825 600.369C391.114 600.369 392.286 600.176 393.34 599.789C394.407 599.391 395.327 598.828 396.1 598.102C396.862 597.387 397.477 596.525 397.946 595.518C398.415 594.498 398.708 593.367 398.825 592.125Z" fill="#FF7D7C"/>
<path d="M169.51 266H178.37C179.635 266 180.807 265.842 181.885 265.525C182.975 265.197 183.913 264.717 184.698 264.084C185.483 263.463 186.098 262.689 186.543 261.764C186.989 260.838 187.206 259.766 187.194 258.547C187.194 257.855 187.094 257.199 186.895 256.578C186.708 255.945 186.426 255.371 186.051 254.855C185.688 254.375 185.237 253.947 184.698 253.572C184.159 253.186 183.508 252.893 182.747 252.693V252.658C183.262 252.447 183.713 252.213 184.1 251.955C184.499 251.686 184.856 251.375 185.172 251.023C185.618 250.543 185.958 249.992 186.192 249.371C186.438 248.738 186.567 248.059 186.579 247.332C186.579 246.137 186.35 245.105 185.893 244.238C185.448 243.359 184.827 242.639 184.03 242.076C183.233 241.514 182.29 241.098 181.2 240.828C180.11 240.547 178.944 240.406 177.702 240.406H169.51V266ZM173.764 254.434H178.616C179.307 254.445 179.922 254.551 180.461 254.75C181 254.938 181.458 255.207 181.833 255.559C182.208 255.91 182.489 256.338 182.676 256.842C182.864 257.334 182.958 257.902 182.958 258.547C182.958 259.156 182.84 259.713 182.606 260.217C182.383 260.709 182.061 261.125 181.639 261.465C181.252 261.793 180.784 262.051 180.233 262.238C179.682 262.426 179.073 262.52 178.405 262.52H173.764V254.434ZM173.764 251.217V243.904H177.754C178.481 243.916 179.143 244.004 179.741 244.168C180.338 244.32 180.836 244.572 181.235 244.924C181.586 245.205 181.856 245.568 182.043 246.014C182.243 246.447 182.342 246.963 182.342 247.561C182.342 248.123 182.237 248.621 182.026 249.055C181.815 249.488 181.528 249.857 181.165 250.162C180.766 250.502 180.274 250.76 179.688 250.936C179.114 251.111 178.481 251.205 177.79 251.217H173.764Z" fill="#FF7D7C"/>
<path d="M788.869 472.376L899.721 280.376L1010.57 472.376H788.869Z" stroke="#3E2D4A" stroke-width="11"/>
<path d="M700.819 209.293L895.851 275.455L862.707 478.719L700.819 209.293Z" stroke="#FF7D7C" stroke-width="11"/>
<path d="M923.974 269.111L925.696 275H930.073L921.882 249.406H918.138L909.806 275H914.2L915.94 269.111H923.974ZM917.013 265.49L920.001 255.365L922.937 265.49H917.013Z" fill="#FF7D7C"/>
<path d="M901.024 259V233.406H900.761L890.231 237.309V241.018L896.788 238.609V259H901.024Z" fill="#3E2D4A"/>
<path d="M769.946 515V511.607H758.028L763.724 505.525C764.474 504.729 765.165 503.955 765.798 503.205C766.442 502.455 766.999 501.711 767.468 500.973C767.925 500.234 768.282 499.49 768.54 498.74C768.81 497.979 768.944 497.193 768.944 496.385C768.944 495.307 768.769 494.322 768.417 493.432C768.065 492.529 767.556 491.756 766.888 491.111C766.208 490.467 765.37 489.963 764.374 489.6C763.39 489.236 762.271 489.055 761.017 489.055C759.681 489.055 758.468 489.271 757.378 489.705C756.3 490.139 755.386 490.725 754.636 491.463C753.874 492.201 753.288 493.068 752.878 494.064C752.468 495.049 752.263 496.098 752.263 497.211H756.481C756.481 496.473 756.575 495.816 756.763 495.242C756.95 494.656 757.231 494.164 757.606 493.766C757.97 493.367 758.427 493.062 758.978 492.852C759.528 492.641 760.179 492.535 760.929 492.535C761.515 492.535 762.042 492.635 762.511 492.834C762.991 493.033 763.401 493.309 763.741 493.66C764.081 494.012 764.339 494.434 764.515 494.926C764.69 495.418 764.778 495.963 764.778 496.561C764.778 497.006 764.714 497.451 764.585 497.896C764.468 498.33 764.269 498.799 763.987 499.303C763.694 499.807 763.313 500.363 762.845 500.973C762.376 501.57 761.796 502.25 761.104 503.012L752.772 512.082V515H769.946Z" fill="#3E2D4A"/>
<path d="M1033.1 500.305V503.609H1035.61C1036.34 503.609 1037 503.697 1037.58 503.873C1038.18 504.037 1038.69 504.289 1039.11 504.629C1039.53 504.98 1039.85 505.42 1040.08 505.947C1040.3 506.475 1040.41 507.107 1040.41 507.846C1040.41 508.502 1040.31 509.088 1040.11 509.604C1039.92 510.107 1039.65 510.529 1039.29 510.869C1038.91 511.232 1038.45 511.508 1037.9 511.695C1037.36 511.871 1036.75 511.959 1036.07 511.959C1035.44 511.959 1034.86 511.865 1034.33 511.678C1033.81 511.49 1033.37 511.227 1032.99 510.887C1032.61 510.559 1032.31 510.16 1032.1 509.691C1031.9 509.211 1031.8 508.689 1031.8 508.127H1027.6C1027.6 509.322 1027.83 510.371 1028.28 511.273C1028.75 512.164 1029.37 512.914 1030.15 513.523C1030.92 514.133 1031.82 514.59 1032.83 514.895C1033.85 515.199 1034.92 515.352 1036.02 515.352C1037.24 515.352 1038.37 515.188 1039.41 514.859C1040.46 514.52 1041.38 514.027 1042.15 513.383C1042.91 512.75 1043.51 511.971 1043.94 511.045C1044.39 510.107 1044.61 509.041 1044.61 507.846C1044.61 507.201 1044.54 506.58 1044.38 505.982C1044.23 505.373 1043.99 504.805 1043.65 504.277C1043.31 503.762 1042.87 503.299 1042.33 502.889C1041.8 502.467 1041.16 502.127 1040.39 501.869C1041.04 501.576 1041.6 501.219 1042.08 500.797C1042.56 500.375 1042.96 499.924 1043.28 499.443C1043.59 498.951 1043.83 498.441 1043.98 497.914C1044.14 497.387 1044.23 496.859 1044.23 496.332C1044.23 495.137 1044.03 494.088 1043.63 493.186C1043.23 492.283 1042.67 491.521 1041.94 490.9C1041.23 490.291 1040.36 489.834 1039.34 489.529C1038.33 489.213 1037.22 489.055 1036.02 489.055C1034.83 489.055 1033.74 489.23 1032.75 489.582C1031.76 489.934 1030.91 490.42 1030.18 491.041C1029.45 491.674 1028.89 492.418 1028.48 493.273C1028.07 494.129 1027.86 495.066 1027.86 496.086H1032.06C1032.06 495.535 1032.16 495.037 1032.36 494.592C1032.57 494.146 1032.86 493.766 1033.22 493.449C1033.57 493.133 1033.99 492.893 1034.47 492.729C1034.96 492.553 1035.5 492.465 1036.07 492.465C1036.71 492.465 1037.28 492.553 1037.77 492.729C1038.28 492.904 1038.69 493.15 1039.02 493.467C1039.35 493.807 1039.6 494.217 1039.76 494.697C1039.94 495.178 1040.02 495.723 1040.02 496.332C1040.02 496.895 1039.93 497.422 1039.74 497.914C1039.57 498.395 1039.31 498.799 1038.97 499.127C1038.61 499.502 1038.14 499.795 1037.58 500.006C1037.02 500.205 1036.36 500.305 1035.61 500.305H1033.1Z" fill="#3E2D4A"/>
<path d="M893.825 514.125H889.589C889.519 514.898 889.366 515.584 889.132 516.182C888.897 516.779 888.587 517.277 888.2 517.676C887.802 518.086 887.321 518.396 886.759 518.607C886.196 518.818 885.552 518.924 884.825 518.924C884.216 518.924 883.671 518.842 883.19 518.678C882.722 518.502 882.306 518.25 881.942 517.922C881.591 517.617 881.286 517.254 881.028 516.832C880.782 516.41 880.577 515.941 880.413 515.426C880.202 514.805 880.044 514.119 879.938 513.369C879.845 512.619 879.798 511.816 879.798 510.961V507.428C879.798 506.736 879.833 506.062 879.903 505.406C879.985 504.738 880.103 504.111 880.255 503.525C880.454 502.857 880.706 502.254 881.011 501.715C881.327 501.164 881.714 500.713 882.171 500.361C882.522 500.092 882.915 499.881 883.349 499.729C883.794 499.576 884.292 499.5 884.843 499.5C885.628 499.5 886.302 499.617 886.864 499.852C887.427 500.074 887.901 500.402 888.288 500.836C888.663 501.27 888.956 501.797 889.167 502.418C889.39 503.027 889.536 503.713 889.606 504.475H893.825C893.696 503.197 893.409 502.037 892.964 500.994C892.53 499.951 891.933 499.061 891.171 498.322C890.421 497.596 889.513 497.033 888.446 496.635C887.392 496.236 886.19 496.037 884.843 496.037C883.847 496.037 882.927 496.172 882.083 496.441C881.251 496.711 880.489 497.086 879.798 497.566C879.071 498.094 878.427 498.732 877.864 499.482C877.313 500.221 876.862 501.047 876.511 501.961C876.183 502.781 875.937 503.654 875.772 504.58C875.608 505.506 875.526 506.467 875.526 507.463V510.961C875.526 512.004 875.614 513.006 875.79 513.967C875.966 514.928 876.218 515.818 876.546 516.639C876.886 517.471 877.302 518.238 877.794 518.941C878.298 519.633 878.884 520.225 879.552 520.717C880.243 521.244 881.028 521.654 881.907 521.947C882.798 522.229 883.771 522.369 884.825 522.369C886.114 522.369 887.286 522.176 888.341 521.789C889.407 521.391 890.327 520.828 891.101 520.102C891.862 519.387 892.478 518.525 892.946 517.518C893.415 516.498 893.708 515.367 893.825 514.125Z" fill="#FF7D7C"/>
<path d="M666.511 249H675.37C676.636 249 677.808 248.842 678.886 248.525C679.976 248.197 680.913 247.717 681.698 247.084C682.483 246.463 683.099 245.689 683.544 244.764C683.989 243.838 684.206 242.766 684.194 241.547C684.194 240.855 684.095 240.199 683.896 239.578C683.708 238.945 683.427 238.371 683.052 237.855C682.688 237.375 682.237 236.947 681.698 236.572C681.159 236.186 680.509 235.893 679.747 235.693V235.658C680.263 235.447 680.714 235.213 681.101 234.955C681.499 234.686 681.856 234.375 682.173 234.023C682.618 233.543 682.958 232.992 683.192 232.371C683.438 231.738 683.567 231.059 683.579 230.332C683.579 229.137 683.351 228.105 682.894 227.238C682.448 226.359 681.827 225.639 681.03 225.076C680.233 224.514 679.29 224.098 678.2 223.828C677.11 223.547 675.944 223.406 674.702 223.406H666.511V249ZM670.765 237.434H675.616C676.308 237.445 676.923 237.551 677.462 237.75C678.001 237.938 678.458 238.207 678.833 238.559C679.208 238.91 679.489 239.338 679.677 239.842C679.864 240.334 679.958 240.902 679.958 241.547C679.958 242.156 679.841 242.713 679.606 243.217C679.384 243.709 679.062 244.125 678.64 244.465C678.253 244.793 677.784 245.051 677.233 245.238C676.683 245.426 676.073 245.52 675.405 245.52H670.765V237.434ZM670.765 234.217V226.904H674.755C675.481 226.916 676.144 227.004 676.741 227.168C677.339 227.32 677.837 227.572 678.235 227.924C678.587 228.205 678.856 228.568 679.044 229.014C679.243 229.447 679.343 229.963 679.343 230.561C679.343 231.123 679.237 231.621 679.026 232.055C678.815 232.488 678.528 232.857 678.165 233.162C677.767 233.502 677.274 233.76 676.688 233.936C676.114 234.111 675.481 234.205 674.79 234.217H670.765Z" fill="#FF7D7C"/>
<path d="M303.336 154.359V156.798H306.311V167.572H303.336V170H312.381V167.572H309.33V156.798H312.381V154.359H303.336ZM316.87 170H319.867V161.739C319.967 161.582 320.078 161.438 320.2 161.31C320.322 161.181 320.458 161.07 320.608 160.977C320.795 160.848 321.006 160.751 321.242 160.687C321.486 160.622 321.751 160.59 322.037 160.59C322.381 160.59 322.689 160.626 322.961 160.697C323.233 160.762 323.466 160.88 323.659 161.052C323.852 161.224 323.999 161.46 324.1 161.761C324.207 162.054 324.261 162.43 324.261 162.889V170H327.247V162.846C327.247 162.001 327.147 161.285 326.946 160.697C326.753 160.103 326.481 159.616 326.13 159.236C325.772 158.864 325.349 158.592 324.862 158.42C324.375 158.248 323.838 158.162 323.251 158.162C322.793 158.162 322.359 158.227 321.951 158.355C321.543 158.484 321.167 158.671 320.823 158.914C320.623 159.057 320.433 159.218 320.254 159.397C320.075 159.576 319.91 159.773 319.76 159.988L319.577 158.377H316.87V170ZM331.758 158.377V160.815H335.066V167.572H331.758V170H341.232V167.572H338.085V158.377H331.758ZM334.852 155.401C334.852 155.631 334.891 155.845 334.97 156.046C335.056 156.239 335.174 156.404 335.324 156.54C335.475 156.683 335.654 156.794 335.861 156.873C336.076 156.952 336.313 156.991 336.57 156.991C337.1 156.991 337.519 156.844 337.827 156.551C338.142 156.25 338.3 155.867 338.3 155.401C338.3 154.936 338.142 154.556 337.827 154.263C337.519 153.962 337.1 153.812 336.57 153.812C336.313 153.812 336.076 153.851 335.861 153.93C335.654 154.008 335.475 154.116 335.324 154.252C335.174 154.395 335.056 154.567 334.97 154.768C334.891 154.961 334.852 155.172 334.852 155.401ZM350.534 155.53H347.548V158.377H344.895V160.579H347.548V165.864C347.548 166.631 347.648 167.289 347.849 167.841C348.049 168.385 348.336 168.833 348.708 169.184C349.073 169.542 349.514 169.807 350.029 169.979C350.552 170.143 351.132 170.226 351.77 170.226C352.099 170.226 352.432 170.208 352.769 170.172C353.112 170.143 353.442 170.1 353.757 170.043C354.072 169.986 354.369 169.914 354.649 169.828C354.928 169.735 355.171 169.628 355.379 169.506L355.089 167.454C354.953 167.49 354.788 167.526 354.595 167.562C354.409 167.597 354.208 167.63 353.993 167.658C353.771 167.694 353.539 167.723 353.295 167.744C353.059 167.766 352.826 167.776 352.597 167.776C352.282 167.776 351.995 167.741 351.737 167.669C351.487 167.597 351.272 167.476 351.093 167.304C350.914 167.139 350.774 166.917 350.674 166.638C350.581 166.351 350.534 165.997 350.534 165.574V160.579H354.874V158.377H350.534V155.53ZM359.944 158.377V160.815H363.252V167.572H359.944V170H369.418V167.572H366.271V158.377H359.944ZM363.037 155.401C363.037 155.631 363.077 155.845 363.156 156.046C363.241 156.239 363.36 156.404 363.51 156.54C363.66 156.683 363.839 156.794 364.047 156.873C364.262 156.952 364.498 156.991 364.756 156.991C365.286 156.991 365.705 156.844 366.013 156.551C366.328 156.25 366.486 155.867 366.486 155.401C366.486 154.936 366.328 154.556 366.013 154.263C365.705 153.962 365.286 153.812 364.756 153.812C364.498 153.812 364.262 153.851 364.047 153.93C363.839 154.008 363.66 154.116 363.51 154.252C363.36 154.395 363.241 154.567 363.156 154.768C363.077 154.961 363.037 155.172 363.037 155.401ZM380.503 170H383.533V169.817C383.382 169.524 383.268 169.173 383.189 168.765C383.11 168.356 383.071 167.841 383.071 167.218V162.233C383.071 161.56 382.945 160.969 382.695 160.461C382.444 159.945 382.097 159.519 381.653 159.183C381.209 158.846 380.682 158.592 380.074 158.42C379.472 158.248 378.82 158.162 378.119 158.162C377.338 158.162 376.643 158.262 376.035 158.463C375.433 158.656 374.925 158.921 374.509 159.258C374.087 159.594 373.764 159.985 373.542 160.429C373.328 160.873 373.22 161.342 373.22 161.836H376.206C376.206 161.628 376.235 161.438 376.292 161.267C376.357 161.095 376.453 160.948 376.582 160.826C376.726 160.69 376.912 160.586 377.141 160.515C377.37 160.436 377.642 160.396 377.957 160.396C378.315 160.396 378.627 160.443 378.892 160.536C379.164 160.622 379.39 160.747 379.569 160.912C379.741 161.07 379.87 161.259 379.955 161.481C380.041 161.696 380.084 161.94 380.084 162.212V162.899H378.419C377.56 162.899 376.797 162.978 376.131 163.136C375.472 163.286 374.917 163.508 374.466 163.802C373.965 164.124 373.589 164.536 373.338 165.037C373.088 165.531 372.962 166.101 372.962 166.745C372.962 167.246 373.063 167.712 373.263 168.142C373.464 168.564 373.743 168.929 374.101 169.237C374.459 169.545 374.885 169.785 375.379 169.957C375.881 170.129 376.428 170.215 377.023 170.215C377.388 170.215 377.728 170.179 378.043 170.107C378.358 170.043 378.648 169.95 378.913 169.828C379.171 169.714 379.408 169.577 379.622 169.42C379.837 169.262 380.027 169.094 380.192 168.915C380.228 169.123 380.271 169.32 380.321 169.506C380.371 169.692 380.432 169.857 380.503 170ZM377.657 167.905C377.377 167.905 377.13 167.873 376.915 167.809C376.708 167.737 376.532 167.644 376.389 167.529C376.246 167.408 376.135 167.261 376.056 167.089C375.984 166.91 375.949 166.716 375.949 166.509C375.949 166.244 375.999 166 376.099 165.778C376.199 165.549 376.353 165.352 376.561 165.188C376.769 165.03 377.037 164.908 377.367 164.822C377.696 164.729 378.093 164.683 378.559 164.683H380.084V166.681C379.998 166.831 379.88 166.981 379.73 167.132C379.579 167.275 379.4 167.404 379.193 167.519C378.985 167.633 378.752 167.726 378.495 167.798C378.237 167.869 377.957 167.905 377.657 167.905ZM387.958 153.5V155.938H391.438V167.572H387.958V170H397.787V167.572H394.457V153.5H387.958ZM423.534 165.918C423.534 166.197 423.477 166.455 423.362 166.691C423.247 166.921 423.083 167.118 422.868 167.282C422.653 167.447 422.388 167.576 422.073 167.669C421.765 167.762 421.411 167.809 421.01 167.809C420.558 167.809 420.143 167.758 419.763 167.658C419.391 167.558 419.072 167.4 418.807 167.186C418.535 166.971 418.324 166.695 418.174 166.358C418.023 166.022 417.941 165.617 417.927 165.145H414.962C414.962 165.954 415.116 166.659 415.424 167.261C415.739 167.862 416.165 168.385 416.702 168.829C417.268 169.28 417.93 169.624 418.689 169.86C419.455 170.09 420.229 170.204 421.01 170.204C421.804 170.204 422.538 170.111 423.212 169.925C423.885 169.731 424.465 169.449 424.952 169.076C425.439 168.711 425.818 168.263 426.091 167.733C426.37 167.196 426.51 166.584 426.51 165.896C426.51 165.102 426.327 164.4 425.962 163.791C425.596 163.182 425.106 162.649 424.49 162.19C424.082 161.911 423.634 161.664 423.147 161.449C422.66 161.234 422.148 161.052 421.611 160.901C421.11 160.765 420.659 160.618 420.258 160.461C419.864 160.303 419.527 160.128 419.248 159.935C418.968 159.748 418.754 159.537 418.603 159.301C418.46 159.064 418.388 158.799 418.388 158.506C418.388 158.227 418.442 157.969 418.55 157.732C418.664 157.489 418.829 157.278 419.044 157.099C419.259 156.927 419.52 156.794 419.828 156.701C420.143 156.601 420.501 156.551 420.902 156.551C421.339 156.551 421.718 156.612 422.041 156.733C422.37 156.848 422.646 157.009 422.868 157.217C423.083 157.432 423.244 157.686 423.351 157.979C423.466 158.273 423.53 158.595 423.545 158.946H426.488C426.488 158.244 426.352 157.6 426.08 157.013C425.808 156.425 425.428 155.917 424.941 155.487C424.454 155.065 423.871 154.735 423.19 154.499C422.517 154.263 421.772 154.145 420.956 154.145C420.168 154.145 419.438 154.248 418.764 154.456C418.091 154.657 417.508 154.947 417.013 155.326C416.519 155.706 416.133 156.164 415.853 156.701C415.574 157.238 415.434 157.836 415.434 158.495C415.434 159.068 415.538 159.598 415.746 160.085C415.961 160.572 416.276 161.016 416.691 161.417C417.107 161.818 417.64 162.187 418.292 162.523C418.951 162.86 419.713 163.146 420.58 163.383C421.138 163.533 421.604 163.698 421.976 163.877C422.356 164.049 422.664 164.239 422.9 164.446C423.129 164.661 423.29 164.89 423.384 165.134C423.484 165.377 423.534 165.639 423.534 165.918ZM435.092 155.53H432.105V158.377H429.452V160.579H432.105V165.864C432.105 166.631 432.206 167.289 432.406 167.841C432.607 168.385 432.893 168.833 433.265 169.184C433.631 169.542 434.071 169.807 434.587 169.979C435.11 170.143 435.69 170.226 436.327 170.226C436.656 170.226 436.989 170.208 437.326 170.172C437.67 170.143 437.999 170.1 438.314 170.043C438.629 169.986 438.927 169.914 439.206 169.828C439.485 169.735 439.729 169.628 439.936 169.506L439.646 167.454C439.51 167.49 439.346 167.526 439.152 167.562C438.966 167.597 438.765 167.63 438.551 167.658C438.329 167.694 438.096 167.723 437.852 167.744C437.616 167.766 437.383 167.776 437.154 167.776C436.839 167.776 436.553 167.741 436.295 167.669C436.044 167.597 435.829 167.476 435.65 167.304C435.471 167.139 435.332 166.917 435.231 166.638C435.138 166.351 435.092 165.997 435.092 165.574V160.579H439.432V158.377H435.092V155.53ZM450.968 170H453.997V169.817C453.847 169.524 453.732 169.173 453.653 168.765C453.575 168.356 453.535 167.841 453.535 167.218V162.233C453.535 161.56 453.41 160.969 453.159 160.461C452.909 159.945 452.561 159.519 452.117 159.183C451.673 158.846 451.147 158.592 450.538 158.42C449.937 158.248 449.285 158.162 448.583 158.162C447.802 158.162 447.108 158.262 446.499 158.463C445.897 158.656 445.389 158.921 444.974 159.258C444.551 159.594 444.229 159.985 444.007 160.429C443.792 160.873 443.685 161.342 443.685 161.836H446.671C446.671 161.628 446.7 161.438 446.757 161.267C446.821 161.095 446.918 160.948 447.047 160.826C447.19 160.69 447.376 160.586 447.605 160.515C447.835 160.436 448.107 160.396 448.422 160.396C448.78 160.396 449.091 160.443 449.356 160.536C449.629 160.622 449.854 160.747 450.033 160.912C450.205 161.07 450.334 161.259 450.42 161.481C450.506 161.696 450.549 161.94 450.549 162.212V162.899H448.884C448.024 162.899 447.262 162.978 446.596 163.136C445.937 163.286 445.382 163.508 444.931 163.802C444.429 164.124 444.053 164.536 443.803 165.037C443.552 165.531 443.427 166.101 443.427 166.745C443.427 167.246 443.527 167.712 443.728 168.142C443.928 168.564 444.207 168.929 444.565 169.237C444.923 169.545 445.35 169.785 445.844 169.957C446.345 170.129 446.893 170.215 447.487 170.215C447.853 170.215 448.193 170.179 448.508 170.107C448.823 170.043 449.113 169.95 449.378 169.828C449.636 169.714 449.872 169.577 450.087 169.42C450.302 169.262 450.492 169.094 450.656 168.915C450.692 169.123 450.735 169.32 450.785 169.506C450.835 169.692 450.896 169.857 450.968 170ZM448.121 167.905C447.842 167.905 447.595 167.873 447.38 167.809C447.172 167.737 446.997 167.644 446.854 167.529C446.71 167.408 446.599 167.261 446.52 167.089C446.449 166.91 446.413 166.716 446.413 166.509C446.413 166.244 446.463 166 446.563 165.778C446.664 165.549 446.818 165.352 447.025 165.188C447.233 165.03 447.502 164.908 447.831 164.822C448.16 164.729 448.558 164.683 449.023 164.683H450.549V166.681C450.463 166.831 450.345 166.981 450.194 167.132C450.044 167.275 449.865 167.404 449.657 167.519C449.45 167.633 449.217 167.726 448.959 167.798C448.701 167.869 448.422 167.905 448.121 167.905ZM463.277 155.53H460.291V158.377H457.638V160.579H460.291V165.864C460.291 166.631 460.391 167.289 460.592 167.841C460.792 168.385 461.079 168.833 461.451 169.184C461.816 169.542 462.257 169.807 462.773 169.979C463.295 170.143 463.875 170.226 464.513 170.226C464.842 170.226 465.175 170.208 465.512 170.172C465.856 170.143 466.185 170.1 466.5 170.043C466.815 169.986 467.112 169.914 467.392 169.828C467.671 169.735 467.914 169.628 468.122 169.506L467.832 167.454C467.696 167.49 467.531 167.526 467.338 167.562C467.152 167.597 466.951 167.63 466.736 167.658C466.514 167.694 466.282 167.723 466.038 167.744C465.802 167.766 465.569 167.776 465.34 167.776C465.025 167.776 464.738 167.741 464.481 167.669C464.23 167.597 464.015 167.476 463.836 167.304C463.657 167.139 463.517 166.917 463.417 166.638C463.324 166.351 463.277 165.997 463.277 165.574V160.579H467.617V158.377H463.277V155.53ZM477.531 170.215C478.656 170.215 479.63 169.996 480.453 169.56C481.277 169.123 481.878 168.636 482.258 168.099L480.765 166.487C480.421 166.931 479.974 167.264 479.422 167.486C478.871 167.708 478.301 167.819 477.714 167.819C477.299 167.819 476.916 167.755 476.565 167.626C476.214 167.497 475.902 167.314 475.63 167.078C475.365 166.849 475.154 166.595 474.996 166.315C474.839 166.029 474.71 165.653 474.61 165.188V165.155H482.494V163.888C482.494 163.035 482.376 162.258 482.14 161.557C481.904 160.848 481.56 160.243 481.109 159.741C480.65 159.24 480.092 158.853 479.433 158.581C478.781 158.302 478.036 158.162 477.198 158.162C476.389 158.162 475.641 158.309 474.953 158.603C474.266 158.896 473.671 159.308 473.17 159.838C472.669 160.368 472.279 161.002 471.999 161.739C471.72 162.47 471.58 163.279 471.58 164.167V164.597C471.58 165.377 471.72 166.111 471.999 166.799C472.286 167.479 472.69 168.07 473.213 168.571C473.736 169.08 474.363 169.481 475.093 169.774C475.823 170.068 476.636 170.215 477.531 170.215ZM477.177 160.579C477.557 160.579 477.89 160.64 478.176 160.762C478.47 160.876 478.717 161.034 478.917 161.234C479.118 161.442 479.275 161.686 479.39 161.965C479.504 162.244 479.562 162.541 479.562 162.856V163.093H474.663C474.735 162.713 474.842 162.369 474.986 162.062C475.129 161.754 475.308 161.489 475.523 161.267C475.73 161.045 475.974 160.876 476.253 160.762C476.532 160.64 476.84 160.579 477.177 160.579Z" fill="#3E2D4A"/>
<path d="M854.616 165.918C854.616 166.197 854.559 166.455 854.445 166.691C854.33 166.921 854.165 167.118 853.95 167.282C853.736 167.447 853.471 167.576 853.155 167.669C852.848 167.762 852.493 167.809 852.092 167.809C851.641 167.809 851.225 167.758 850.846 167.658C850.474 167.558 850.155 167.4 849.89 167.186C849.618 166.971 849.406 166.695 849.256 166.358C849.106 166.022 849.023 165.617 849.009 165.145H846.044C846.044 165.954 846.198 166.659 846.506 167.261C846.821 167.862 847.247 168.385 847.784 168.829C848.35 169.28 849.013 169.624 849.772 169.86C850.538 170.09 851.311 170.204 852.092 170.204C852.887 170.204 853.621 170.111 854.294 169.925C854.967 169.731 855.547 169.449 856.034 169.076C856.521 168.711 856.901 168.263 857.173 167.733C857.452 167.196 857.592 166.584 857.592 165.896C857.592 165.102 857.409 164.4 857.044 163.791C856.679 163.182 856.188 162.649 855.572 162.19C855.164 161.911 854.717 161.664 854.23 161.449C853.743 161.234 853.231 161.052 852.694 160.901C852.192 160.765 851.741 160.618 851.34 160.461C850.946 160.303 850.61 160.128 850.33 159.935C850.051 159.748 849.836 159.537 849.686 159.301C849.543 159.064 849.471 158.799 849.471 158.506C849.471 158.227 849.525 157.969 849.632 157.732C849.747 157.489 849.911 157.278 850.126 157.099C850.341 156.927 850.602 156.794 850.91 156.701C851.225 156.601 851.584 156.551 851.985 156.551C852.421 156.551 852.801 156.612 853.123 156.733C853.453 156.848 853.728 157.009 853.95 157.217C854.165 157.432 854.326 157.686 854.434 157.979C854.548 158.273 854.613 158.595 854.627 158.946H857.571C857.571 158.244 857.434 157.6 857.162 157.013C856.89 156.425 856.511 155.917 856.024 155.487C855.537 155.065 854.953 154.735 854.273 154.499C853.599 154.263 852.855 154.145 852.038 154.145C851.251 154.145 850.52 154.248 849.847 154.456C849.174 154.657 848.59 154.947 848.096 155.326C847.602 155.706 847.215 156.164 846.936 156.701C846.656 157.238 846.517 157.836 846.517 158.495C846.517 159.068 846.621 159.598 846.828 160.085C847.043 160.572 847.358 161.016 847.774 161.417C848.189 161.818 848.723 162.187 849.374 162.523C850.033 162.86 850.796 163.146 851.662 163.383C852.221 163.533 852.686 163.698 853.059 163.877C853.438 164.049 853.746 164.239 853.983 164.446C854.212 164.661 854.373 164.89 854.466 165.134C854.566 165.377 854.616 165.639 854.616 165.918ZM866.174 155.53H863.188V158.377H860.534V160.579H863.188V165.864C863.188 166.631 863.288 167.289 863.489 167.841C863.689 168.385 863.976 168.833 864.348 169.184C864.713 169.542 865.154 169.807 865.669 169.979C866.192 170.143 866.772 170.226 867.409 170.226C867.739 170.226 868.072 170.208 868.409 170.172C868.752 170.143 869.082 170.1 869.397 170.043C869.712 169.986 870.009 169.914 870.288 169.828C870.568 169.735 870.811 169.628 871.019 169.506L870.729 167.454C870.593 167.49 870.428 167.526 870.235 167.562C870.048 167.597 869.848 167.63 869.633 167.658C869.411 167.694 869.178 167.723 868.935 167.744C868.699 167.766 868.466 167.776 868.237 167.776C867.922 167.776 867.635 167.741 867.377 167.669C867.127 167.597 866.912 167.476 866.733 167.304C866.554 167.139 866.414 166.917 866.314 166.638C866.221 166.351 866.174 165.997 866.174 165.574V160.579H870.514V158.377H866.174V155.53ZM880.428 170.215C881.553 170.215 882.526 169.996 883.35 169.56C884.174 169.123 884.775 168.636 885.155 168.099L883.662 166.487C883.318 166.931 882.87 167.264 882.319 167.486C881.767 167.708 881.198 167.819 880.611 167.819C880.195 167.819 879.812 167.755 879.461 167.626C879.11 167.497 878.799 167.314 878.527 167.078C878.262 166.849 878.051 166.595 877.893 166.315C877.735 166.029 877.607 165.653 877.506 165.188V165.155H885.391V163.888C885.391 163.035 885.273 162.258 885.037 161.557C884.8 160.848 884.456 160.243 884.005 159.741C883.547 159.24 882.988 158.853 882.33 158.581C881.678 158.302 880.933 158.162 880.095 158.162C879.286 158.162 878.538 158.309 877.85 158.603C877.163 158.896 876.568 159.308 876.067 159.838C875.566 160.368 875.175 161.002 874.896 161.739C874.617 162.47 874.477 163.279 874.477 164.167V164.597C874.477 165.377 874.617 166.111 874.896 166.799C875.182 167.479 875.587 168.07 876.11 168.571C876.633 169.08 877.259 169.481 877.99 169.774C878.72 170.068 879.533 170.215 880.428 170.215ZM880.074 160.579C880.453 160.579 880.786 160.64 881.073 160.762C881.366 160.876 881.613 161.034 881.814 161.234C882.014 161.442 882.172 161.686 882.287 161.965C882.401 162.244 882.458 162.541 882.458 162.856V163.093H877.56C877.632 162.713 877.739 162.369 877.882 162.062C878.025 161.754 878.205 161.489 878.419 161.267C878.627 161.045 878.871 160.876 879.15 160.762C879.429 160.64 879.737 160.579 880.074 160.579ZM888.924 174.469H891.911V168.99C892.047 169.141 892.19 169.277 892.34 169.398C892.491 169.52 892.648 169.631 892.813 169.731C893.092 169.889 893.393 170.007 893.715 170.086C894.045 170.172 894.403 170.215 894.79 170.215C895.52 170.215 896.168 170.064 896.734 169.764C897.3 169.463 897.776 169.048 898.163 168.518C898.542 167.995 898.829 167.372 899.022 166.648C899.223 165.925 899.323 165.141 899.323 164.296V164.07C899.323 163.189 899.223 162.387 899.022 161.664C898.829 160.934 898.539 160.307 898.152 159.784C897.765 159.269 897.289 158.871 896.723 158.592C896.157 158.305 895.506 158.162 894.768 158.162C894.41 158.162 894.073 158.201 893.758 158.28C893.45 158.352 893.168 158.456 892.91 158.592C892.695 158.706 892.494 158.842 892.308 159C892.122 159.15 891.95 159.322 891.793 159.516L891.685 158.377H888.924V174.469ZM896.336 164.07V164.296C896.336 164.776 896.294 165.23 896.208 165.66C896.122 166.083 895.986 166.455 895.799 166.777C895.613 167.1 895.37 167.354 895.069 167.54C894.775 167.726 894.417 167.819 893.995 167.819C893.73 167.819 893.49 167.794 893.275 167.744C893.06 167.687 892.87 167.608 892.706 167.508C892.534 167.4 892.38 167.271 892.244 167.121C892.115 166.971 892.004 166.802 891.911 166.616V161.761C892.011 161.56 892.129 161.385 892.265 161.234C892.408 161.084 892.573 160.959 892.759 160.858C892.924 160.772 893.107 160.708 893.307 160.665C893.508 160.615 893.73 160.59 893.973 160.59C894.396 160.59 894.754 160.679 895.047 160.858C895.348 161.037 895.595 161.281 895.789 161.589C895.975 161.904 896.111 162.276 896.197 162.706C896.29 163.129 896.336 163.583 896.336 164.07ZM924.383 170V154.359H924.221L917.411 156.819V159.419L921.364 158.001V170H924.383Z" fill="#3E2D4A"/>
<path d="M441.779 15.3066H443.687C444.384 15.3066 445.014 15.207 445.576 15.0078C446.139 14.8086 446.619 14.5303 447.018 14.1729C447.41 13.8213 447.712 13.4023 447.923 12.916C448.14 12.4297 448.248 11.8994 448.248 11.3252C448.248 10.71 448.14 10.1504 447.923 9.64648C447.712 9.14258 447.41 8.70898 447.018 8.3457C446.619 7.98828 446.139 7.70996 445.576 7.51074C445.014 7.30566 444.384 7.20312 443.687 7.20312H439.31V20H441.779V15.3066ZM441.779 13.3027V9.20703H443.687C444.038 9.20703 444.343 9.2627 444.601 9.37402C444.858 9.48535 445.075 9.6377 445.251 9.83105C445.421 10.0244 445.547 10.25 445.629 10.5078C445.717 10.7656 445.761 11.0439 445.761 11.3428C445.761 11.6006 445.717 11.8496 445.629 12.0898C445.547 12.3242 445.421 12.5322 445.251 12.7139C445.075 12.8955 444.858 13.0391 444.601 13.1445C444.343 13.25 444.038 13.3027 443.687 13.3027H441.779ZM451.28 6.5V8.49512H454.127V18.0137H451.28V20H459.322V18.0137H456.597V6.5H451.28ZM468.242 20H470.72V19.8506C470.597 19.6104 470.503 19.3232 470.439 18.9893C470.375 18.6553 470.342 18.2334 470.342 17.7236V13.6455C470.342 13.0947 470.24 12.6113 470.035 12.1953C469.83 11.7734 469.545 11.4248 469.182 11.1494C468.819 10.874 468.388 10.666 467.89 10.5254C467.398 10.3848 466.865 10.3145 466.291 10.3145C465.652 10.3145 465.084 10.3965 464.586 10.5605C464.093 10.7188 463.677 10.9355 463.337 11.2109C462.992 11.4863 462.728 11.8057 462.546 12.1689C462.371 12.5322 462.283 12.916 462.283 13.3203H464.726C464.726 13.1504 464.75 12.9951 464.796 12.8545C464.849 12.7139 464.928 12.5938 465.034 12.4941C465.151 12.3828 465.303 12.2979 465.491 12.2393C465.678 12.1748 465.901 12.1426 466.159 12.1426C466.452 12.1426 466.707 12.1807 466.923 12.2568C467.146 12.3271 467.331 12.4297 467.477 12.5645C467.618 12.6934 467.723 12.8486 467.794 13.0303C467.864 13.2061 467.899 13.4053 467.899 13.6279V14.1904H466.537C465.834 14.1904 465.21 14.2549 464.665 14.3838C464.126 14.5068 463.671 14.6885 463.302 14.9287C462.892 15.1924 462.585 15.5293 462.379 15.9395C462.174 16.3438 462.072 16.8096 462.072 17.3369C462.072 17.7471 462.154 18.1279 462.318 18.4795C462.482 18.8252 462.711 19.124 463.003 19.376C463.296 19.6279 463.645 19.8242 464.049 19.9648C464.46 20.1055 464.908 20.1758 465.394 20.1758C465.693 20.1758 465.971 20.1465 466.229 20.0879C466.487 20.0352 466.724 19.959 466.941 19.8594C467.152 19.7656 467.345 19.6543 467.521 19.5254C467.697 19.3965 467.852 19.2588 467.987 19.1123C468.016 19.2822 468.051 19.4434 468.092 19.5957C468.133 19.748 468.183 19.8828 468.242 20ZM465.913 18.2861C465.684 18.2861 465.482 18.2598 465.306 18.207C465.136 18.1484 464.993 18.0723 464.876 17.9785C464.758 17.8789 464.668 17.7588 464.603 17.6182C464.544 17.4717 464.515 17.3135 464.515 17.1436C464.515 16.9268 464.556 16.7275 464.638 16.5459C464.72 16.3584 464.846 16.1973 465.016 16.0625C465.186 15.9336 465.406 15.834 465.675 15.7637C465.945 15.6875 466.27 15.6494 466.651 15.6494H467.899V17.2842C467.829 17.4072 467.732 17.5303 467.609 17.6533C467.486 17.7705 467.339 17.876 467.169 17.9697C467 18.0635 466.809 18.1396 466.598 18.1982C466.387 18.2568 466.159 18.2861 465.913 18.2861ZM475.334 23.8408C475.826 23.8408 476.251 23.7588 476.608 23.5947C476.972 23.4307 477.279 23.2285 477.531 22.9883C477.783 22.748 477.991 22.4873 478.155 22.2061C478.325 21.9248 478.463 21.6641 478.568 21.4238L483.393 10.4902H480.695L478.524 16.0801L478.164 17.0293L477.9 16.0625L475.721 10.4902H473.049L477.074 19.5957L476.512 20.6416C476.441 20.7705 476.38 20.8701 476.327 20.9404C476.28 21.0107 476.204 21.1162 476.098 21.2568C475.993 21.3975 475.864 21.5264 475.712 21.6436C475.565 21.7666 475.395 21.8281 475.202 21.8281C475.108 21.8281 474.982 21.8223 474.824 21.8105C474.672 21.8047 474.546 21.8018 474.446 21.8018L474.147 23.665C474.358 23.7236 474.549 23.7676 474.719 23.7969C474.894 23.8262 475.099 23.8408 475.334 23.8408ZM489.976 20.1758C490.896 20.1758 491.693 19.9971 492.366 19.6396C493.04 19.2822 493.532 18.8838 493.843 18.4443L492.621 17.126C492.34 17.4893 491.974 17.7617 491.523 17.9434C491.071 18.125 490.606 18.2158 490.125 18.2158C489.785 18.2158 489.472 18.1631 489.185 18.0576C488.898 17.9521 488.643 17.8027 488.42 17.6094C488.203 17.4219 488.03 17.2139 487.901 16.9854C487.773 16.751 487.667 16.4434 487.585 16.0625V16.0361H494.036V14.999C494.036 14.3018 493.94 13.666 493.746 13.0918C493.553 12.5117 493.272 12.0166 492.902 11.6064C492.527 11.1963 492.07 10.8799 491.531 10.6572C490.998 10.4287 490.389 10.3145 489.703 10.3145C489.041 10.3145 488.429 10.4346 487.866 10.6748C487.304 10.915 486.818 11.252 486.407 11.6855C485.997 12.1191 485.678 12.6377 485.449 13.2412C485.221 13.8389 485.107 14.501 485.107 15.2275V15.5791C485.107 16.2178 485.221 16.8184 485.449 17.3809C485.684 17.9375 486.015 18.4209 486.443 18.8311C486.87 19.2471 487.383 19.5752 487.981 19.8154C488.578 20.0557 489.243 20.1758 489.976 20.1758ZM489.686 12.292C489.996 12.292 490.269 12.3418 490.503 12.4414C490.743 12.5352 490.945 12.6641 491.109 12.8281C491.274 12.998 491.402 13.1973 491.496 13.4258C491.59 13.6543 491.637 13.8975 491.637 14.1553V14.3486H487.629C487.688 14.0381 487.776 13.7568 487.893 13.5049C488.01 13.2529 488.156 13.0361 488.332 12.8545C488.502 12.6729 488.701 12.5352 488.93 12.4414C489.158 12.3418 489.41 12.292 489.686 12.292ZM503.721 10.3145C503.082 10.3145 502.494 10.4697 501.954 10.7803C501.415 11.085 500.953 11.5068 500.566 12.0459L500.548 11.835L500.452 10.4902H498.175V20H500.619V14.2871C500.73 14.0176 500.871 13.7832 501.04 13.584C501.21 13.3848 501.415 13.2207 501.656 13.0918C501.855 12.9805 502.08 12.8984 502.332 12.8457C502.59 12.7871 502.877 12.7578 503.194 12.7578C503.498 12.7578 503.818 12.7783 504.152 12.8193C504.492 12.8545 504.823 12.9102 505.145 12.9863L505.505 10.5518C505.312 10.4932 505.057 10.4404 504.741 10.3936C504.43 10.3408 504.09 10.3145 503.721 10.3145ZM526.088 17.3896C526.088 17.5361 526.05 17.6709 525.974 17.7939C525.903 17.917 525.795 18.0254 525.648 18.1191C525.496 18.2129 525.3 18.2891 525.06 18.3477C524.825 18.4004 524.55 18.4268 524.233 18.4268C523.97 18.4268 523.712 18.4004 523.46 18.3477C523.214 18.2949 522.994 18.21 522.801 18.0928C522.607 17.9814 522.449 17.835 522.326 17.6533C522.203 17.4658 522.133 17.2432 522.115 16.9854H519.786C519.786 17.3721 519.88 17.7588 520.067 18.1455C520.261 18.5264 520.542 18.8662 520.911 19.165C521.28 19.4697 521.737 19.7158 522.282 19.9033C522.833 20.0908 523.466 20.1846 524.181 20.1846C524.831 20.1846 525.42 20.1143 525.947 19.9736C526.475 19.8271 526.926 19.625 527.301 19.3672C527.67 19.1094 527.954 18.8047 528.153 18.4531C528.358 18.0957 528.461 17.7061 528.461 17.2842C528.461 16.8271 528.358 16.4346 528.153 16.1064C527.954 15.7725 527.676 15.4883 527.318 15.2539C526.961 15.0254 526.536 14.8379 526.044 14.6914C525.552 14.5449 525.019 14.4248 524.444 14.3311C524.046 14.2725 523.718 14.2051 523.46 14.1289C523.202 14.0469 523 13.9561 522.853 13.8564C522.701 13.7627 522.596 13.6572 522.537 13.54C522.478 13.417 522.449 13.2852 522.449 13.1445C522.449 13.0039 522.481 12.8721 522.546 12.749C522.616 12.6201 522.716 12.5088 522.845 12.415C522.985 12.3096 523.167 12.2275 523.39 12.1689C523.612 12.1104 523.873 12.0811 524.172 12.0811C524.523 12.0811 524.822 12.125 525.068 12.2129C525.32 12.3008 525.519 12.418 525.666 12.5645C525.771 12.6758 525.851 12.8018 525.903 12.9424C525.956 13.0771 525.982 13.2236 525.982 13.3818H528.426C528.426 12.9424 528.329 12.5352 528.136 12.1602C527.942 11.7852 527.664 11.46 527.301 11.1846C526.932 10.915 526.483 10.7041 525.956 10.5518C525.429 10.3936 524.834 10.3145 524.172 10.3145C523.539 10.3145 522.971 10.3936 522.467 10.5518C521.963 10.71 521.535 10.9238 521.184 11.1934C520.832 11.4629 520.562 11.7764 520.375 12.1338C520.187 12.4912 520.094 12.8662 520.094 13.2588C520.094 13.6631 520.185 14.0205 520.366 14.3311C520.554 14.6416 520.811 14.9141 521.14 15.1484C521.468 15.3887 521.86 15.5938 522.317 15.7637C522.78 15.9277 523.29 16.0654 523.847 16.1768C524.286 16.2588 524.649 16.3408 524.936 16.4229C525.224 16.5049 525.455 16.5928 525.631 16.6865C525.801 16.7861 525.918 16.8916 525.982 17.0029C526.053 17.1143 526.088 17.2432 526.088 17.3896ZM533.927 11.7998V6.5H531.484V20H533.927V13.1357C534.021 13.0127 534.123 12.9014 534.235 12.8018C534.352 12.7021 534.481 12.6172 534.621 12.5469C534.774 12.4648 534.944 12.4033 535.131 12.3623C535.319 12.3213 535.521 12.3008 535.738 12.3008C536.019 12.3008 536.271 12.3389 536.493 12.415C536.716 12.4854 536.906 12.5967 537.065 12.749C537.223 12.9014 537.343 13.1006 537.425 13.3467C537.513 13.5928 537.557 13.8857 537.557 14.2256V20H540V14.2432C540 13.5459 539.915 12.9512 539.745 12.459C539.581 11.9609 539.35 11.5537 539.051 11.2373C538.752 10.9209 538.395 10.6895 537.979 10.543C537.563 10.3906 537.106 10.3145 536.608 10.3145C536.268 10.3145 535.946 10.3643 535.641 10.4639C535.336 10.5635 535.058 10.7041 534.806 10.8857C534.642 11.0029 534.484 11.1406 534.331 11.2988C534.185 11.4512 534.05 11.6182 533.927 11.7998ZM548.956 20H551.434V19.8506C551.311 19.6104 551.217 19.3232 551.153 18.9893C551.088 18.6553 551.056 18.2334 551.056 17.7236V13.6455C551.056 13.0947 550.954 12.6113 550.749 12.1953C550.543 11.7734 550.259 11.4248 549.896 11.1494C549.533 10.874 549.102 10.666 548.604 10.5254C548.112 10.3848 547.579 10.3145 547.004 10.3145C546.366 10.3145 545.797 10.3965 545.299 10.5605C544.807 10.7188 544.391 10.9355 544.051 11.2109C543.706 11.4863 543.442 11.8057 543.26 12.1689C543.084 12.5322 542.997 12.916 542.997 13.3203H545.44C545.44 13.1504 545.463 12.9951 545.51 12.8545C545.563 12.7139 545.642 12.5938 545.748 12.4941C545.865 12.3828 546.017 12.2979 546.205 12.2393C546.392 12.1748 546.615 12.1426 546.873 12.1426C547.166 12.1426 547.42 12.1807 547.637 12.2568C547.86 12.3271 548.044 12.4297 548.191 12.5645C548.332 12.6934 548.437 12.8486 548.507 13.0303C548.578 13.2061 548.613 13.4053 548.613 13.6279V14.1904H547.251C546.547 14.1904 545.923 14.2549 545.378 14.3838C544.839 14.5068 544.385 14.6885 544.016 14.9287C543.606 15.1924 543.298 15.5293 543.093 15.9395C542.888 16.3438 542.786 16.8096 542.786 17.3369C542.786 17.7471 542.868 18.1279 543.032 18.4795C543.196 18.8252 543.424 19.124 543.717 19.376C544.01 19.6279 544.359 19.8242 544.763 19.9648C545.173 20.1055 545.622 20.1758 546.108 20.1758C546.407 20.1758 546.685 20.1465 546.943 20.0879C547.201 20.0352 547.438 19.959 547.655 19.8594C547.866 19.7656 548.059 19.6543 548.235 19.5254C548.411 19.3965 548.566 19.2588 548.701 19.1123C548.73 19.2822 548.765 19.4434 548.806 19.5957C548.847 19.748 548.897 19.8828 548.956 20ZM546.626 18.2861C546.398 18.2861 546.196 18.2598 546.02 18.207C545.85 18.1484 545.707 18.0723 545.589 17.9785C545.472 17.8789 545.381 17.7588 545.317 17.6182C545.258 17.4717 545.229 17.3135 545.229 17.1436C545.229 16.9268 545.27 16.7275 545.352 16.5459C545.434 16.3584 545.56 16.1973 545.73 16.0625C545.9 15.9336 546.12 15.834 546.389 15.7637C546.659 15.6875 546.984 15.6494 547.365 15.6494H548.613V17.2842C548.543 17.4072 548.446 17.5303 548.323 17.6533C548.2 17.7705 548.053 17.876 547.883 17.9697C547.713 18.0635 547.523 18.1396 547.312 18.1982C547.101 18.2568 546.873 18.2861 546.626 18.2861ZM554.58 23.6562H557.023V19.1738C557.135 19.2969 557.252 19.4082 557.375 19.5078C557.498 19.6074 557.627 19.6982 557.762 19.7803C557.99 19.9092 558.236 20.0059 558.5 20.0703C558.769 20.1406 559.062 20.1758 559.379 20.1758C559.976 20.1758 560.507 20.0527 560.97 19.8066C561.432 19.5605 561.822 19.2207 562.138 18.7871C562.449 18.3594 562.683 17.8496 562.842 17.2578C563.006 16.666 563.088 16.0244 563.088 15.333V15.1484C563.088 14.4277 563.006 13.7715 562.842 13.1797C562.683 12.582 562.446 12.0693 562.13 11.6416C561.813 11.2197 561.424 10.8945 560.961 10.666C560.498 10.4316 559.965 10.3145 559.361 10.3145C559.068 10.3145 558.793 10.3467 558.535 10.4111C558.283 10.4697 558.052 10.5547 557.841 10.666C557.665 10.7598 557.501 10.8711 557.348 11C557.196 11.123 557.055 11.2637 556.927 11.4219L556.839 10.4902H554.58V23.6562ZM560.644 15.1484V15.333C560.644 15.7256 560.609 16.0977 560.539 16.4492C560.469 16.7949 560.357 17.0996 560.205 17.3633C560.053 17.627 559.853 17.835 559.607 17.9873C559.367 18.1396 559.074 18.2158 558.728 18.2158C558.512 18.2158 558.315 18.1953 558.139 18.1543C557.964 18.1074 557.808 18.043 557.674 17.9609C557.533 17.873 557.407 17.7676 557.296 17.6445C557.19 17.5215 557.099 17.3838 557.023 17.2314V13.2588C557.105 13.0947 557.202 12.9512 557.313 12.8281C557.43 12.7051 557.565 12.6025 557.718 12.5205C557.852 12.4502 558.002 12.3975 558.166 12.3623C558.33 12.3213 558.512 12.3008 558.711 12.3008C559.056 12.3008 559.349 12.374 559.59 12.5205C559.836 12.667 560.038 12.8662 560.196 13.1182C560.348 13.376 560.46 13.6807 560.53 14.0322C560.606 14.3779 560.644 14.75 560.644 15.1484ZM570.69 20.1758C571.609 20.1758 572.406 19.9971 573.08 19.6396C573.754 19.2822 574.246 18.8838 574.557 18.4443L573.335 17.126C573.054 17.4893 572.688 17.7617 572.236 17.9434C571.785 18.125 571.319 18.2158 570.839 18.2158C570.499 18.2158 570.186 18.1631 569.899 18.0576C569.611 17.9521 569.357 17.8027 569.134 17.6094C568.917 17.4219 568.744 17.2139 568.615 16.9854C568.486 16.751 568.381 16.4434 568.299 16.0625V16.0361H574.75V14.999C574.75 14.3018 574.653 13.666 574.46 13.0918C574.267 12.5117 573.985 12.0166 573.616 11.6064C573.241 11.1963 572.784 10.8799 572.245 10.6572C571.712 10.4287 571.103 10.3145 570.417 10.3145C569.755 10.3145 569.143 10.4346 568.58 10.6748C568.018 10.915 567.531 11.252 567.121 11.6855C566.711 12.1191 566.392 12.6377 566.163 13.2412C565.935 13.8389 565.82 14.501 565.82 15.2275V15.5791C565.82 16.2178 565.935 16.8184 566.163 17.3809C566.398 17.9375 566.729 18.4209 567.156 18.8311C567.584 19.2471 568.097 19.5752 568.694 19.8154C569.292 20.0557 569.957 20.1758 570.69 20.1758ZM570.399 12.292C570.71 12.292 570.982 12.3418 571.217 12.4414C571.457 12.5352 571.659 12.6641 571.823 12.8281C571.987 12.998 572.116 13.1973 572.21 13.4258C572.304 13.6543 572.351 13.8975 572.351 14.1553V14.3486H568.343C568.401 14.0381 568.489 13.7568 568.607 13.5049C568.724 13.2529 568.87 13.0361 569.046 12.8545C569.216 12.6729 569.415 12.5352 569.644 12.4414C569.872 12.3418 570.124 12.292 570.399 12.292Z" fill="#877395"/>
<rect x="403" width="26" height="26" rx="4" fill="#FF7D7C"/>
<path d="M656.556 8.21582V6.20312H646.237V8.21582H650.131V19H652.609V8.21582H656.556ZM664.711 19H667.19V18.8506C667.067 18.6104 666.973 18.3232 666.908 17.9893C666.844 17.6553 666.812 17.2334 666.812 16.7236V12.6455C666.812 12.0947 666.709 11.6113 666.504 11.1953C666.299 10.7734 666.015 10.4248 665.652 10.1494C665.288 9.87402 664.858 9.66602 664.36 9.52539C663.867 9.38477 663.334 9.31445 662.76 9.31445C662.121 9.31445 661.553 9.39648 661.055 9.56055C660.563 9.71875 660.147 9.93555 659.807 10.2109C659.461 10.4863 659.198 10.8057 659.016 11.1689C658.84 11.5322 658.752 11.916 658.752 12.3203H661.196C661.196 12.1504 661.219 11.9951 661.266 11.8545C661.319 11.7139 661.398 11.5938 661.503 11.4941C661.62 11.3828 661.773 11.2979 661.96 11.2393C662.148 11.1748 662.37 11.1426 662.628 11.1426C662.921 11.1426 663.176 11.1807 663.393 11.2568C663.616 11.3271 663.8 11.4297 663.947 11.5645C664.087 11.6934 664.193 11.8486 664.263 12.0303C664.333 12.2061 664.368 12.4053 664.368 12.6279V13.1904H663.006C662.303 13.1904 661.679 13.2549 661.134 13.3838C660.595 13.5068 660.141 13.6885 659.772 13.9287C659.362 14.1924 659.054 14.5293 658.849 14.9395C658.644 15.3438 658.541 15.8096 658.541 16.3369C658.541 16.7471 658.623 17.1279 658.787 17.4795C658.951 17.8252 659.18 18.124 659.473 18.376C659.766 18.6279 660.115 18.8242 660.519 18.9648C660.929 19.1055 661.377 19.1758 661.864 19.1758C662.162 19.1758 662.441 19.1465 662.699 19.0879C662.956 19.0352 663.194 18.959 663.41 18.8594C663.621 18.7656 663.815 18.6543 663.991 18.5254C664.166 18.3965 664.322 18.2588 664.456 18.1123C664.486 18.2822 664.521 18.4434 664.562 18.5957C664.603 18.748 664.653 18.8828 664.711 19ZM662.382 17.2861C662.154 17.2861 661.951 17.2598 661.776 17.207C661.606 17.1484 661.462 17.0723 661.345 16.9785C661.228 16.8789 661.137 16.7588 661.073 16.6182C661.014 16.4717 660.985 16.3135 660.985 16.1436C660.985 15.9268 661.026 15.7275 661.108 15.5459C661.19 15.3584 661.316 15.1973 661.486 15.0625C661.656 14.9336 661.875 14.834 662.145 14.7637C662.414 14.6875 662.74 14.6494 663.12 14.6494H664.368V16.2842C664.298 16.4072 664.201 16.5303 664.078 16.6533C663.955 16.7705 663.809 16.876 663.639 16.9697C663.469 17.0635 663.279 17.1396 663.068 17.1982C662.857 17.2568 662.628 17.2861 662.382 17.2861ZM677.129 9.31445C676.491 9.31445 675.902 9.46973 675.363 9.78027C674.824 10.085 674.361 10.5068 673.974 11.0459L673.957 10.835L673.86 9.49023H671.584V19H674.027V13.2871C674.138 13.0176 674.279 12.7832 674.449 12.584C674.619 12.3848 674.824 12.2207 675.064 12.0918C675.263 11.9805 675.489 11.8984 675.741 11.8457C675.999 11.7871 676.286 11.7578 676.602 11.7578C676.907 11.7578 677.226 11.7783 677.56 11.8193C677.9 11.8545 678.231 11.9102 678.553 11.9863L678.914 9.55176C678.72 9.49316 678.465 9.44043 678.149 9.39355C677.838 9.34082 677.499 9.31445 677.129 9.31445ZM681.585 14.1748V14.3594C681.585 15.0508 681.673 15.6924 681.848 16.2842C682.03 16.8701 682.288 17.377 682.622 17.8047C682.956 18.2324 683.357 18.5693 683.826 18.8154C684.301 19.0557 684.834 19.1758 685.426 19.1758C685.724 19.1758 686.003 19.1436 686.261 19.0791C686.524 19.0146 686.764 18.9238 686.981 18.8066C687.128 18.7246 687.265 18.6309 687.394 18.5254C687.523 18.4199 687.646 18.3027 687.764 18.1738V18.7188C687.764 19.041 687.717 19.3311 687.623 19.5889C687.535 19.8467 687.406 20.0635 687.236 20.2393C687.049 20.4326 686.814 20.5791 686.533 20.6787C686.258 20.7783 685.941 20.8281 685.584 20.8281C685.361 20.8281 685.144 20.8047 684.933 20.7578C684.728 20.7168 684.529 20.6523 684.336 20.5645C684.137 20.4766 683.946 20.3623 683.764 20.2217C683.583 20.0869 683.413 19.9287 683.255 19.7471L682.156 21.2324C682.361 21.4961 682.607 21.7217 682.894 21.9092C683.181 22.1025 683.486 22.2607 683.808 22.3838C684.131 22.5068 684.456 22.5977 684.784 22.6562C685.112 22.7148 685.42 22.7441 685.707 22.7441C686.375 22.7441 686.984 22.6533 687.535 22.4717C688.092 22.2959 688.569 22.0352 688.968 21.6895C689.36 21.3438 689.665 20.9189 689.882 20.415C690.104 19.9111 690.216 19.3369 690.216 18.6924V9.49023H687.992L687.895 10.3955C687.778 10.249 687.649 10.1172 687.509 10C687.368 9.87695 687.216 9.77148 687.052 9.68359C686.835 9.56055 686.592 9.46973 686.322 9.41113C686.058 9.34668 685.765 9.31445 685.443 9.31445C684.846 9.31445 684.309 9.43164 683.835 9.66602C683.36 9.90039 682.956 10.2314 682.622 10.6592C682.288 11.0869 682.03 11.5996 681.848 12.1973C681.673 12.7949 681.585 13.4541 681.585 14.1748ZM684.037 14.3594V14.1748C684.037 13.7764 684.078 13.4043 684.16 13.0586C684.242 12.707 684.368 12.3994 684.538 12.1357C684.702 11.8779 684.91 11.6758 685.162 11.5293C685.414 11.377 685.713 11.3008 686.058 11.3008C686.246 11.3008 686.419 11.3184 686.577 11.3535C686.741 11.3887 686.89 11.4385 687.025 11.5029C687.183 11.5791 687.324 11.6787 687.447 11.8018C687.57 11.9248 687.676 12.0684 687.764 12.2324V16.2578C687.681 16.4043 687.585 16.5361 687.473 16.6533C687.362 16.7705 687.233 16.8701 687.087 16.9521C686.946 17.0283 686.788 17.0869 686.612 17.1279C686.442 17.1689 686.252 17.1895 686.041 17.1895C685.695 17.1895 685.396 17.1162 685.144 16.9697C684.892 16.8232 684.684 16.6211 684.52 16.3633C684.356 16.1113 684.233 15.8154 684.151 15.4756C684.075 15.1299 684.037 14.7578 684.037 14.3594ZM697.976 19.1758C698.896 19.1758 699.693 18.9971 700.366 18.6396C701.04 18.2822 701.532 17.8838 701.843 17.4443L700.621 16.126C700.34 16.4893 699.974 16.7617 699.523 16.9434C699.071 17.125 698.606 17.2158 698.125 17.2158C697.785 17.2158 697.472 17.1631 697.185 17.0576C696.898 16.9521 696.643 16.8027 696.42 16.6094C696.203 16.4219 696.03 16.2139 695.901 15.9854C695.773 15.751 695.667 15.4434 695.585 15.0625V15.0361H702.036V13.999C702.036 13.3018 701.94 12.666 701.746 12.0918C701.553 11.5117 701.272 11.0166 700.902 10.6064C700.527 10.1963 700.07 9.87988 699.531 9.65723C698.998 9.42871 698.389 9.31445 697.703 9.31445C697.041 9.31445 696.429 9.43457 695.866 9.6748C695.304 9.91504 694.818 10.252 694.407 10.6855C693.997 11.1191 693.678 11.6377 693.449 12.2412C693.221 12.8389 693.107 13.501 693.107 14.2275V14.5791C693.107 15.2178 693.221 15.8184 693.449 16.3809C693.684 16.9375 694.015 17.4209 694.443 17.8311C694.87 18.2471 695.383 18.5752 695.981 18.8154C696.578 19.0557 697.243 19.1758 697.976 19.1758ZM697.686 11.292C697.996 11.292 698.269 11.3418 698.503 11.4414C698.743 11.5352 698.945 11.6641 699.109 11.8281C699.274 11.998 699.402 12.1973 699.496 12.4258C699.59 12.6543 699.637 12.8975 699.637 13.1553V13.3486H695.629C695.688 13.0381 695.776 12.7568 695.893 12.5049C696.01 12.2529 696.156 12.0361 696.332 11.8545C696.502 11.6729 696.701 11.5352 696.93 11.4414C697.158 11.3418 697.41 11.292 697.686 11.292ZM709.374 7.16113H706.931V9.49023H704.76V11.292H706.931V15.6162C706.931 16.2432 707.013 16.7822 707.177 17.2334C707.341 17.6787 707.576 18.0449 707.88 18.332C708.179 18.625 708.539 18.8418 708.961 18.9824C709.389 19.1172 709.864 19.1846 710.385 19.1846C710.655 19.1846 710.927 19.1699 711.203 19.1406C711.484 19.1172 711.753 19.082 712.011 19.0352C712.269 18.9883 712.512 18.9297 712.741 18.8594C712.969 18.7832 713.168 18.6953 713.338 18.5957L713.101 16.917C712.99 16.9463 712.855 16.9756 712.697 17.0049C712.544 17.0342 712.38 17.0605 712.204 17.084C712.023 17.1133 711.832 17.1367 711.633 17.1543C711.44 17.1719 711.249 17.1807 711.062 17.1807C710.804 17.1807 710.57 17.1514 710.359 17.0928C710.154 17.0342 709.978 16.9346 709.831 16.7939C709.685 16.6592 709.571 16.4775 709.489 16.249C709.412 16.0146 709.374 15.7246 709.374 15.3789V11.292H712.925V9.49023H709.374V7.16113ZM734.088 16.3896C734.088 16.5361 734.05 16.6709 733.974 16.7939C733.903 16.917 733.795 17.0254 733.648 17.1191C733.496 17.2129 733.3 17.2891 733.06 17.3477C732.825 17.4004 732.55 17.4268 732.233 17.4268C731.97 17.4268 731.712 17.4004 731.46 17.3477C731.214 17.2949 730.994 17.21 730.801 17.0928C730.607 16.9814 730.449 16.835 730.326 16.6533C730.203 16.4658 730.133 16.2432 730.115 15.9854H727.786C727.786 16.3721 727.88 16.7588 728.067 17.1455C728.261 17.5264 728.542 17.8662 728.911 18.165C729.28 18.4697 729.737 18.7158 730.282 18.9033C730.833 19.0908 731.466 19.1846 732.181 19.1846C732.831 19.1846 733.42 19.1143 733.947 18.9736C734.475 18.8271 734.926 18.625 735.301 18.3672C735.67 18.1094 735.954 17.8047 736.153 17.4531C736.358 17.0957 736.461 16.7061 736.461 16.2842C736.461 15.8271 736.358 15.4346 736.153 15.1064C735.954 14.7725 735.676 14.4883 735.318 14.2539C734.961 14.0254 734.536 13.8379 734.044 13.6914C733.552 13.5449 733.019 13.4248 732.444 13.3311C732.046 13.2725 731.718 13.2051 731.46 13.1289C731.202 13.0469 731 12.9561 730.853 12.8564C730.701 12.7627 730.596 12.6572 730.537 12.54C730.478 12.417 730.449 12.2852 730.449 12.1445C730.449 12.0039 730.481 11.8721 730.546 11.749C730.616 11.6201 730.716 11.5088 730.845 11.415C730.985 11.3096 731.167 11.2275 731.39 11.1689C731.612 11.1104 731.873 11.0811 732.172 11.0811C732.523 11.0811 732.822 11.125 733.068 11.2129C733.32 11.3008 733.519 11.418 733.666 11.5645C733.771 11.6758 733.851 11.8018 733.903 11.9424C733.956 12.0771 733.982 12.2236 733.982 12.3818H736.426C736.426 11.9424 736.329 11.5352 736.136 11.1602C735.942 10.7852 735.664 10.46 735.301 10.1846C734.932 9.91504 734.483 9.7041 733.956 9.55176C733.429 9.39355 732.834 9.31445 732.172 9.31445C731.539 9.31445 730.971 9.39355 730.467 9.55176C729.963 9.70996 729.535 9.92383 729.184 10.1934C728.832 10.4629 728.562 10.7764 728.375 11.1338C728.187 11.4912 728.094 11.8662 728.094 12.2588C728.094 12.6631 728.185 13.0205 728.366 13.3311C728.554 13.6416 728.811 13.9141 729.14 14.1484C729.468 14.3887 729.86 14.5938 730.317 14.7637C730.78 14.9277 731.29 15.0654 731.847 15.1768C732.286 15.2588 732.649 15.3408 732.936 15.4229C733.224 15.5049 733.455 15.5928 733.631 15.6865C733.801 15.7861 733.918 15.8916 733.982 16.0029C734.053 16.1143 734.088 16.2432 734.088 16.3896ZM741.927 10.7998V5.5H739.484V19H741.927V12.1357C742.021 12.0127 742.123 11.9014 742.235 11.8018C742.352 11.7021 742.481 11.6172 742.621 11.5469C742.774 11.4648 742.944 11.4033 743.131 11.3623C743.319 11.3213 743.521 11.3008 743.738 11.3008C744.019 11.3008 744.271 11.3389 744.493 11.415C744.716 11.4854 744.906 11.5967 745.065 11.749C745.223 11.9014 745.343 12.1006 745.425 12.3467C745.513 12.5928 745.557 12.8857 745.557 13.2256V19H748V13.2432C748 12.5459 747.915 11.9512 747.745 11.459C747.581 10.9609 747.35 10.5537 747.051 10.2373C746.752 9.9209 746.395 9.68945 745.979 9.54297C745.563 9.39062 745.106 9.31445 744.608 9.31445C744.268 9.31445 743.946 9.36426 743.641 9.46387C743.336 9.56348 743.058 9.7041 742.806 9.88574C742.642 10.0029 742.484 10.1406 742.331 10.2988C742.185 10.4512 742.05 10.6182 741.927 10.7998ZM756.956 19H759.434V18.8506C759.311 18.6104 759.217 18.3232 759.153 17.9893C759.088 17.6553 759.056 17.2334 759.056 16.7236V12.6455C759.056 12.0947 758.954 11.6113 758.749 11.1953C758.543 10.7734 758.259 10.4248 757.896 10.1494C757.533 9.87402 757.102 9.66602 756.604 9.52539C756.112 9.38477 755.579 9.31445 755.004 9.31445C754.366 9.31445 753.797 9.39648 753.299 9.56055C752.807 9.71875 752.391 9.93555 752.051 10.2109C751.706 10.4863 751.442 10.8057 751.26 11.1689C751.084 11.5322 750.997 11.916 750.997 12.3203H753.44C753.44 12.1504 753.463 11.9951 753.51 11.8545C753.563 11.7139 753.642 11.5938 753.748 11.4941C753.865 11.3828 754.017 11.2979 754.205 11.2393C754.392 11.1748 754.615 11.1426 754.873 11.1426C755.166 11.1426 755.42 11.1807 755.637 11.2568C755.86 11.3271 756.044 11.4297 756.191 11.5645C756.332 11.6934 756.437 11.8486 756.507 12.0303C756.578 12.2061 756.613 12.4053 756.613 12.6279V13.1904H755.251C754.547 13.1904 753.923 13.2549 753.378 13.3838C752.839 13.5068 752.385 13.6885 752.016 13.9287C751.606 14.1924 751.298 14.5293 751.093 14.9395C750.888 15.3438 750.786 15.8096 750.786 16.3369C750.786 16.7471 750.868 17.1279 751.032 17.4795C751.196 17.8252 751.424 18.124 751.717 18.376C752.01 18.6279 752.359 18.8242 752.763 18.9648C753.173 19.1055 753.622 19.1758 754.108 19.1758C754.407 19.1758 754.685 19.1465 754.943 19.0879C755.201 19.0352 755.438 18.959 755.655 18.8594C755.866 18.7656 756.059 18.6543 756.235 18.5254C756.411 18.3965 756.566 18.2588 756.701 18.1123C756.73 18.2822 756.765 18.4434 756.806 18.5957C756.847 18.748 756.897 18.8828 756.956 19ZM754.626 17.2861C754.398 17.2861 754.196 17.2598 754.02 17.207C753.85 17.1484 753.707 17.0723 753.589 16.9785C753.472 16.8789 753.381 16.7588 753.317 16.6182C753.258 16.4717 753.229 16.3135 753.229 16.1436C753.229 15.9268 753.27 15.7275 753.352 15.5459C753.434 15.3584 753.56 15.1973 753.73 15.0625C753.9 14.9336 754.12 14.834 754.389 14.7637C754.659 14.6875 754.984 14.6494 755.365 14.6494H756.613V16.2842C756.543 16.4072 756.446 16.5303 756.323 16.6533C756.2 16.7705 756.053 16.876 755.883 16.9697C755.713 17.0635 755.523 17.1396 755.312 17.1982C755.101 17.2568 754.873 17.2861 754.626 17.2861ZM762.58 22.6562H765.023V18.1738C765.135 18.2969 765.252 18.4082 765.375 18.5078C765.498 18.6074 765.627 18.6982 765.762 18.7803C765.99 18.9092 766.236 19.0059 766.5 19.0703C766.769 19.1406 767.062 19.1758 767.379 19.1758C767.976 19.1758 768.507 19.0527 768.97 18.8066C769.432 18.5605 769.822 18.2207 770.138 17.7871C770.449 17.3594 770.683 16.8496 770.842 16.2578C771.006 15.666 771.088 15.0244 771.088 14.333V14.1484C771.088 13.4277 771.006 12.7715 770.842 12.1797C770.683 11.582 770.446 11.0693 770.13 10.6416C769.813 10.2197 769.424 9.89453 768.961 9.66602C768.498 9.43164 767.965 9.31445 767.361 9.31445C767.068 9.31445 766.793 9.34668 766.535 9.41113C766.283 9.46973 766.052 9.55469 765.841 9.66602C765.665 9.75977 765.501 9.87109 765.348 10C765.196 10.123 765.055 10.2637 764.927 10.4219L764.839 9.49023H762.58V22.6562ZM768.644 14.1484V14.333C768.644 14.7256 768.609 15.0977 768.539 15.4492C768.469 15.7949 768.357 16.0996 768.205 16.3633C768.053 16.627 767.853 16.835 767.607 16.9873C767.367 17.1396 767.074 17.2158 766.728 17.2158C766.512 17.2158 766.315 17.1953 766.139 17.1543C765.964 17.1074 765.808 17.043 765.674 16.9609C765.533 16.873 765.407 16.7676 765.296 16.6445C765.19 16.5215 765.099 16.3838 765.023 16.2314V12.2588C765.105 12.0947 765.202 11.9512 765.313 11.8281C765.43 11.7051 765.565 11.6025 765.718 11.5205C765.852 11.4502 766.002 11.3975 766.166 11.3623C766.33 11.3213 766.512 11.3008 766.711 11.3008C767.056 11.3008 767.349 11.374 767.59 11.5205C767.836 11.667 768.038 11.8662 768.196 12.1182C768.348 12.376 768.46 12.6807 768.53 13.0322C768.606 13.3779 768.644 13.75 768.644 14.1484ZM778.69 19.1758C779.609 19.1758 780.406 18.9971 781.08 18.6396C781.754 18.2822 782.246 17.8838 782.557 17.4443L781.335 16.126C781.054 16.4893 780.688 16.7617 780.236 16.9434C779.785 17.125 779.319 17.2158 778.839 17.2158C778.499 17.2158 778.186 17.1631 777.899 17.0576C777.611 16.9521 777.357 16.8027 777.134 16.6094C776.917 16.4219 776.744 16.2139 776.615 15.9854C776.486 15.751 776.381 15.4434 776.299 15.0625V15.0361H782.75V13.999C782.75 13.3018 782.653 12.666 782.46 12.0918C782.267 11.5117 781.985 11.0166 781.616 10.6064C781.241 10.1963 780.784 9.87988 780.245 9.65723C779.712 9.42871 779.103 9.31445 778.417 9.31445C777.755 9.31445 777.143 9.43457 776.58 9.6748C776.018 9.91504 775.531 10.252 775.121 10.6855C774.711 11.1191 774.392 11.6377 774.163 12.2412C773.935 12.8389 773.82 13.501 773.82 14.2275V14.5791C773.82 15.2178 773.935 15.8184 774.163 16.3809C774.398 16.9375 774.729 17.4209 775.156 17.8311C775.584 18.2471 776.097 18.5752 776.694 18.8154C777.292 19.0557 777.957 19.1758 778.69 19.1758ZM778.399 11.292C778.71 11.292 778.982 11.3418 779.217 11.4414C779.457 11.5352 779.659 11.6641 779.823 11.8281C779.987 11.998 780.116 12.1973 780.21 12.4258C780.304 12.6543 780.351 12.8975 780.351 13.1553V13.3486H776.343C776.401 13.0381 776.489 12.7568 776.607 12.5049C776.724 12.2529 776.87 12.0361 777.046 11.8545C777.216 11.6729 777.415 11.5352 777.644 11.4414C777.872 11.3418 778.124 11.292 778.399 11.292Z" fill="#877395"/>
<rect x="613" width="26" height="26" rx="4" fill="#3E2D4A"/>
</g>
<defs>
<clipPath id="clip0">
<rect width="1188" height="610" fill="white"/>
</clipPath>
</defs>
</svg>
