<svg width="2210" height="787" viewBox="0 0 2210 787" fill="none" xmlns="http://www.w3.org/2000/svg">
<path d="M866.62 222.875H858.44V257H864.487V246.898L864.206 231.57L868.214 245.75H871.472L875.948 230.938L875.667 246.898V257H881.714V222.875H873.534L869.854 235.695L866.62 222.875ZM891.251 231.641V236.961H898.47V251.703H891.251V257H911.923V251.703H905.056V231.641H891.251ZM898.001 225.148C898.001 225.648 898.087 226.117 898.259 226.555C898.446 226.977 898.704 227.336 899.032 227.633C899.36 227.945 899.751 228.188 900.204 228.359C900.673 228.531 901.188 228.617 901.751 228.617C902.907 228.617 903.821 228.297 904.493 227.656C905.181 227 905.524 226.164 905.524 225.148C905.524 224.133 905.181 223.305 904.493 222.664C903.821 222.008 902.907 221.68 901.751 221.68C901.188 221.68 900.673 221.766 900.204 221.938C899.751 222.109 899.36 222.344 899.032 222.641C898.704 222.953 898.446 223.328 898.259 223.766C898.087 224.188 898.001 224.648 898.001 225.148ZM938.476 231.172C936.772 231.172 935.202 231.586 933.765 232.414C932.327 233.227 931.093 234.352 930.062 235.789L930.015 235.227L929.757 231.641H923.687V257H930.202V241.766C930.499 241.047 930.874 240.422 931.327 239.891C931.78 239.359 932.327 238.922 932.968 238.578C933.499 238.281 934.101 238.062 934.772 237.922C935.46 237.766 936.226 237.688 937.069 237.688C937.882 237.688 938.733 237.742 939.624 237.852C940.53 237.945 941.413 238.094 942.272 238.297L943.233 231.805C942.718 231.648 942.038 231.508 941.194 231.383C940.366 231.242 939.46 231.172 938.476 231.172ZM950.122 244.086V244.578C950.122 246.438 950.388 248.156 950.919 249.734C951.45 251.297 952.232 252.656 953.263 253.812C954.278 254.969 955.528 255.875 957.013 256.531C958.513 257.172 960.216 257.492 962.122 257.492C964.013 257.492 965.7 257.172 967.185 256.531C968.669 255.875 969.919 254.969 970.935 253.812C971.95 252.656 972.724 251.297 973.255 249.734C973.786 248.156 974.052 246.438 974.052 244.578V244.086C974.052 242.242 973.786 240.539 973.255 238.977C972.724 237.398 971.95 236.031 970.935 234.875C969.903 233.719 968.646 232.812 967.161 232.156C965.677 231.5 963.982 231.172 962.075 231.172C960.169 231.172 958.474 231.5 956.989 232.156C955.521 232.812 954.278 233.719 953.263 234.875C952.232 236.031 951.45 237.398 950.919 238.977C950.388 240.539 950.122 242.242 950.122 244.086ZM956.638 244.578V244.086C956.638 243.055 956.739 242.078 956.943 241.156C957.146 240.234 957.466 239.422 957.903 238.719C958.341 238.016 958.903 237.461 959.591 237.055C960.278 236.648 961.107 236.445 962.075 236.445C963.06 236.445 963.896 236.648 964.583 237.055C965.271 237.461 965.833 238.016 966.271 238.719C966.693 239.422 967.005 240.234 967.208 241.156C967.411 242.078 967.513 243.055 967.513 244.086V244.578C967.513 245.641 967.411 246.641 967.208 247.578C967.005 248.5 966.693 249.305 966.271 249.992C965.833 250.695 965.271 251.25 964.583 251.656C963.896 252.062 963.075 252.266 962.122 252.266C961.138 252.266 960.294 252.062 959.591 251.656C958.903 251.25 958.341 250.695 957.903 249.992C957.466 249.305 957.146 248.5 956.943 247.578C956.739 246.641 956.638 245.641 956.638 244.578Z" fill="#3E2D4A"/>
<path d="M797 354H1041V598H797V354Z" fill="#FFD02F"/>
<path d="M963.266 386.533H937.219L960.343 422.371L911.456 386.533H885.409L908.534 433.493L859.647 386.533H833.6L856.343 447.157L833.6 565.466H859.647L908.534 438.612L885.409 565.466H911.456L960.343 427.495L937.219 565.466H963.266L1012.53 413.907L963.266 386.533Z" fill="#050038"/>
<path d="M320.247 253.016L320.223 239.562H308.012V244.484H313.661L313.637 250.672C313.466 250.875 313.208 251.07 312.864 251.258C312.536 251.43 312.153 251.586 311.716 251.727C311.278 251.867 310.809 251.977 310.309 252.055C309.809 252.133 309.302 252.172 308.786 252.172C307.942 252.156 307.184 252.023 306.512 251.773C305.856 251.508 305.278 251.125 304.778 250.625C304.481 250.328 304.208 249.992 303.958 249.617C303.723 249.227 303.512 248.805 303.325 248.352C303.028 247.57 302.794 246.672 302.622 245.656C302.466 244.641 302.387 243.516 302.387 242.281V237.594C302.387 236.609 302.442 235.695 302.552 234.852C302.677 234.008 302.848 233.242 303.067 232.555C303.348 231.664 303.7 230.891 304.122 230.234C304.559 229.578 305.044 229.047 305.575 228.641C305.981 228.344 306.419 228.117 306.887 227.961C307.356 227.805 307.841 227.727 308.341 227.727C309.262 227.727 310.052 227.852 310.708 228.102C311.38 228.336 311.934 228.695 312.372 229.18C312.762 229.617 313.067 230.156 313.286 230.797C313.52 231.438 313.692 232.172 313.802 233H320.223C320.052 231.359 319.684 229.883 319.122 228.57C318.575 227.258 317.809 226.141 316.825 225.219C315.841 224.312 314.63 223.617 313.192 223.133C311.77 222.648 310.098 222.406 308.177 222.406C306.927 222.406 305.739 222.578 304.614 222.922C303.489 223.266 302.45 223.773 301.497 224.445C300.684 225.039 299.934 225.742 299.247 226.555C298.575 227.367 297.981 228.281 297.466 229.297C296.919 230.438 296.497 231.711 296.2 233.117C295.903 234.508 295.755 236.016 295.755 237.641V242.281C295.755 243.984 295.903 245.562 296.2 247.016C296.512 248.469 296.966 249.773 297.559 250.93C298.075 251.977 298.7 252.906 299.434 253.719C300.184 254.531 301.012 255.219 301.919 255.781C302.841 256.328 303.848 256.742 304.942 257.023C306.052 257.32 307.231 257.469 308.481 257.469C309.919 257.469 311.262 257.336 312.512 257.07C313.762 256.805 314.895 256.453 315.911 256.016C316.911 255.594 317.778 255.117 318.512 254.586C319.247 254.055 319.825 253.531 320.247 253.016ZM329.503 231.641V236.961H336.722V251.703H329.503V257H350.175V251.703H343.307V231.641H329.503ZM336.253 225.148C336.253 225.648 336.339 226.117 336.511 226.555C336.698 226.977 336.956 227.336 337.284 227.633C337.612 227.945 338.003 228.188 338.456 228.359C338.925 228.531 339.44 228.617 340.003 228.617C341.159 228.617 342.073 228.297 342.745 227.656C343.432 227 343.776 226.164 343.776 225.148C343.776 224.133 343.432 223.305 342.745 222.664C342.073 222.008 341.159 221.68 340.003 221.68C339.44 221.68 338.925 221.766 338.456 221.938C338.003 222.109 337.612 222.344 337.284 222.641C336.956 222.953 336.698 223.328 336.511 223.766C336.339 224.188 336.253 224.648 336.253 225.148ZM370.47 225.43H363.954V231.641H358.165V236.445H363.954V247.977C363.954 249.648 364.173 251.086 364.61 252.289C365.048 253.477 365.673 254.453 366.485 255.219C367.282 256 368.243 256.578 369.368 256.953C370.509 257.312 371.774 257.492 373.165 257.492C373.884 257.492 374.61 257.453 375.345 257.375C376.095 257.312 376.813 257.219 377.501 257.094C378.188 256.969 378.837 256.812 379.446 256.625C380.056 256.422 380.587 256.188 381.04 255.922L380.407 251.445C380.11 251.523 379.751 251.602 379.329 251.68C378.923 251.758 378.485 251.828 378.017 251.891C377.532 251.969 377.024 252.031 376.493 252.078C375.977 252.125 375.47 252.148 374.97 252.148C374.282 252.148 373.657 252.07 373.095 251.914C372.548 251.758 372.079 251.492 371.688 251.117C371.298 250.758 370.993 250.273 370.774 249.664C370.571 249.039 370.47 248.266 370.47 247.344V236.445H379.938V231.641H370.47V225.43ZM395.78 235.133V221H389.265V257H395.78V238.695C396.03 238.367 396.304 238.07 396.601 237.805C396.913 237.539 397.257 237.312 397.632 237.125C398.038 236.906 398.491 236.742 398.991 236.633C399.491 236.523 400.03 236.469 400.608 236.469C401.358 236.469 402.03 236.57 402.624 236.773C403.218 236.961 403.726 237.258 404.147 237.664C404.569 238.07 404.89 238.602 405.108 239.258C405.343 239.914 405.46 240.695 405.46 241.602V257H411.976V241.648C411.976 239.789 411.749 238.203 411.296 236.891C410.858 235.562 410.241 234.477 409.444 233.633C408.647 232.789 407.694 232.172 406.585 231.781C405.476 231.375 404.257 231.172 402.929 231.172C402.022 231.172 401.163 231.305 400.351 231.57C399.538 231.836 398.796 232.211 398.124 232.695C397.687 233.008 397.265 233.375 396.858 233.797C396.468 234.203 396.108 234.648 395.78 235.133ZM436.56 257H442.466V231.641H435.927V249.43C435.724 249.836 435.482 250.203 435.2 250.531C434.919 250.859 434.599 251.141 434.239 251.375C433.818 251.641 433.325 251.844 432.763 251.984C432.216 252.125 431.599 252.195 430.911 252.195C430.146 252.195 429.497 252.102 428.966 251.914C428.435 251.727 428.005 251.414 427.677 250.977C427.349 250.555 427.107 249.992 426.95 249.289C426.81 248.586 426.739 247.719 426.739 246.688V231.641H420.224V246.641C420.224 248.562 420.435 250.211 420.857 251.586C421.294 252.945 421.903 254.062 422.685 254.938C423.466 255.828 424.403 256.477 425.497 256.883C426.591 257.289 427.794 257.492 429.107 257.492C430.544 257.492 431.864 257.133 433.068 256.414C434.286 255.695 435.325 254.703 436.185 253.438L436.56 257ZM473.613 244.578V244.086C473.613 242.555 473.472 241.117 473.191 239.773C472.925 238.43 472.511 237.219 471.948 236.141C471.589 235.469 471.175 234.852 470.706 234.289C470.238 233.711 469.714 233.219 469.136 232.812C468.417 232.281 467.597 231.875 466.675 231.594C465.769 231.312 464.769 231.172 463.675 231.172C462.878 231.172 462.136 231.258 461.448 231.43C460.777 231.586 460.152 231.828 459.573 232.156C459.167 232.375 458.784 232.641 458.425 232.953C458.066 233.25 457.73 233.578 457.417 233.938V221H450.902V257H456.761L457.066 254.305C457.331 254.648 457.613 254.969 457.909 255.266C458.206 255.547 458.527 255.805 458.87 256.039C459.511 256.508 460.23 256.859 461.027 257.094C461.839 257.344 462.738 257.469 463.722 257.469C464.8 257.469 465.784 257.328 466.675 257.047C467.581 256.781 468.394 256.391 469.113 255.875C469.909 255.328 470.597 254.641 471.175 253.812C471.769 252.984 472.245 252.062 472.605 251.047C472.933 250.125 473.183 249.125 473.355 248.047C473.527 246.953 473.613 245.797 473.613 244.578ZM467.097 244.086V244.578C467.097 245.234 467.066 245.867 467.003 246.477C466.956 247.086 466.87 247.648 466.745 248.164C466.589 248.867 466.355 249.5 466.042 250.062C465.745 250.609 465.355 251.055 464.87 251.398C464.527 251.648 464.12 251.844 463.652 251.984C463.183 252.125 462.659 252.195 462.081 252.195C461.409 252.195 460.808 252.117 460.277 251.961C459.761 251.805 459.308 251.578 458.917 251.281C458.589 251.047 458.3 250.773 458.05 250.461C457.816 250.133 457.605 249.773 457.417 249.383V239.281C457.558 238.984 457.714 238.711 457.886 238.461C458.058 238.195 458.245 237.961 458.448 237.758C458.87 237.336 459.378 237.016 459.972 236.797C460.566 236.578 461.253 236.469 462.034 236.469C462.613 236.469 463.128 236.539 463.581 236.68C464.034 236.805 464.441 237 464.8 237.266C465.347 237.688 465.753 238.156 466.019 238.672C466.3 239.172 466.527 239.742 466.698 240.383C466.839 240.93 466.941 241.516 467.003 242.141C467.066 242.766 467.097 243.414 467.097 244.086Z" fill="#3E2D4A"/>
<path fill-rule="evenodd" clip-rule="evenodd" d="M385.5 333C308.979 333 247 394.979 247 471.5C247 532.786 286.646 584.551 341.699 602.902C348.624 604.114 351.221 599.959 351.221 596.323C351.221 593.034 351.048 582.127 351.048 570.527C316.25 576.933 307.247 562.044 304.477 554.254C302.919 550.272 296.167 537.98 290.281 534.691C285.434 532.094 278.509 525.688 290.108 525.515C301.015 525.342 308.806 535.556 311.403 539.711C323.868 560.659 343.777 554.773 351.741 551.137C352.953 542.135 356.588 536.076 360.57 532.613C329.754 529.151 297.553 517.205 297.553 464.229C297.553 449.167 302.919 436.702 311.749 427.007C310.364 423.544 305.516 409.348 313.134 390.304C313.134 390.304 324.733 386.669 351.221 404.501C362.301 401.384 374.074 399.826 385.846 399.826C397.619 399.826 409.391 401.384 420.471 404.501C446.959 386.496 458.559 390.304 458.559 390.304C466.176 409.348 461.329 423.544 459.944 427.007C468.773 436.702 474.14 448.994 474.14 464.229C474.14 517.378 441.766 529.151 410.949 532.613C415.97 536.941 420.298 545.251 420.298 558.236C420.298 576.76 420.125 591.649 420.125 596.323C420.125 599.959 422.722 604.287 429.647 602.902C484.354 584.551 524 532.613 524 471.5C524 394.979 462.021 333 385.5 333Z" fill="#1B1F23"/>
<path d="M1343.82 242.867V237.523H1329.19V228.242H1345.64V222.875H1322.58V257H1329.19V242.867H1343.82ZM1354.88 231.641V236.961H1362.1V251.703H1354.88V257H1375.55V251.703H1368.68V231.641H1354.88ZM1361.63 225.148C1361.63 225.648 1361.71 226.117 1361.88 226.555C1362.07 226.977 1362.33 227.336 1362.66 227.633C1362.99 227.945 1363.38 228.188 1363.83 228.359C1364.3 228.531 1364.81 228.617 1365.38 228.617C1366.53 228.617 1367.45 228.297 1368.12 227.656C1368.81 227 1369.15 226.164 1369.15 225.148C1369.15 224.133 1368.81 223.305 1368.12 222.664C1367.45 222.008 1366.53 221.68 1365.38 221.68C1364.81 221.68 1364.3 221.766 1363.83 221.938C1363.38 222.109 1362.99 222.344 1362.66 222.641C1362.33 222.953 1362.07 223.328 1361.88 223.766C1361.71 224.188 1361.63 224.648 1361.63 225.148ZM1383.23 244.133V244.625C1383.23 246.469 1383.47 248.18 1383.94 249.758C1384.42 251.32 1385.11 252.672 1386 253.812C1386.89 254.953 1387.96 255.852 1389.21 256.508C1390.48 257.148 1391.9 257.469 1393.48 257.469C1394.27 257.469 1395.02 257.383 1395.7 257.211C1396.41 257.039 1397.05 256.797 1397.63 256.484C1398.02 256.266 1398.38 256.016 1398.73 255.734C1399.07 255.453 1399.4 255.141 1399.71 254.797V256.25C1399.71 257.109 1399.59 257.883 1399.34 258.57C1399.1 259.258 1398.76 259.836 1398.3 260.305C1397.8 260.82 1397.18 261.211 1396.43 261.477C1395.7 261.742 1394.85 261.875 1393.9 261.875C1393.3 261.875 1392.73 261.812 1392.16 261.688C1391.62 261.578 1391.09 261.406 1390.57 261.172C1390.04 260.938 1389.53 260.633 1389.05 260.258C1388.56 259.898 1388.11 259.477 1387.69 258.992L1384.76 262.953C1385.3 263.656 1385.96 264.258 1386.73 264.758C1387.49 265.273 1388.3 265.695 1389.16 266.023C1390.02 266.352 1390.89 266.594 1391.77 266.75C1392.64 266.906 1393.46 266.984 1394.23 266.984C1396.01 266.984 1397.63 266.742 1399.1 266.258C1400.59 265.789 1401.86 265.094 1402.92 264.172C1403.97 263.25 1404.78 262.117 1405.36 260.773C1405.95 259.43 1406.25 257.898 1406.25 256.18V231.641H1400.32L1400.06 234.055C1399.75 233.664 1399.41 233.312 1399.03 233C1398.66 232.672 1398.25 232.391 1397.81 232.156C1397.23 231.828 1396.59 231.586 1395.87 231.43C1395.16 231.258 1394.38 231.172 1393.52 231.172C1391.93 231.172 1390.5 231.484 1389.23 232.109C1387.97 232.734 1386.89 233.617 1386 234.758C1385.11 235.898 1384.42 237.266 1383.94 238.859C1383.47 240.453 1383.23 242.211 1383.23 244.133ZM1389.77 244.625V244.133C1389.77 243.07 1389.88 242.078 1390.1 241.156C1390.32 240.219 1390.66 239.398 1391.11 238.695C1391.55 238.008 1392.1 237.469 1392.77 237.078C1393.45 236.672 1394.24 236.469 1395.16 236.469C1395.66 236.469 1396.13 236.516 1396.55 236.609C1396.98 236.703 1397.38 236.836 1397.74 237.008C1398.16 237.211 1398.54 237.477 1398.87 237.805C1399.2 238.133 1399.48 238.516 1399.71 238.953V249.688C1399.49 250.078 1399.23 250.43 1398.94 250.742C1398.64 251.055 1398.3 251.32 1397.91 251.539C1397.53 251.742 1397.11 251.898 1396.64 252.008C1396.19 252.117 1395.68 252.172 1395.12 252.172C1394.2 252.172 1393.4 251.977 1392.73 251.586C1392.05 251.195 1391.5 250.656 1391.06 249.969C1390.63 249.297 1390.3 248.508 1390.08 247.602C1389.88 246.68 1389.77 245.688 1389.77 244.625ZM1418.69 231.641H1413.09V257H1419.02V238.016C1419.1 237.812 1419.19 237.625 1419.28 237.453C1419.37 237.281 1419.48 237.133 1419.61 237.008C1419.78 236.836 1419.97 236.703 1420.19 236.609C1420.41 236.516 1420.66 236.469 1420.94 236.469C1421.19 236.469 1421.43 236.508 1421.65 236.586C1421.87 236.648 1422.06 236.766 1422.23 236.938C1422.39 237.109 1422.51 237.352 1422.61 237.664C1422.7 237.977 1422.75 238.375 1422.75 238.859V257H1428.49V238.297C1428.49 238.109 1428.49 237.961 1428.49 237.852C1428.49 237.742 1428.49 237.672 1428.49 237.641C1428.57 237.469 1428.66 237.32 1428.77 237.195C1428.88 237.055 1429.01 236.93 1429.15 236.82C1429.32 236.711 1429.5 236.625 1429.69 236.562C1429.89 236.5 1430.12 236.469 1430.37 236.469C1430.6 236.469 1430.83 236.508 1431.05 236.586C1431.28 236.648 1431.48 236.766 1431.65 236.938C1431.83 237.125 1431.96 237.375 1432.05 237.688C1432.16 238 1432.22 238.398 1432.22 238.883V257H1438.15V238.906C1438.15 237.5 1438.01 236.312 1437.72 235.344C1437.46 234.359 1437.08 233.555 1436.6 232.93C1436.1 232.32 1435.51 231.875 1434.84 231.594C1434.19 231.312 1433.47 231.172 1432.71 231.172C1432.1 231.172 1431.54 231.25 1431.02 231.406C1430.51 231.562 1430.05 231.781 1429.64 232.062C1429.31 232.281 1429.01 232.547 1428.72 232.859C1428.46 233.156 1428.22 233.492 1428 233.867C1427.86 233.477 1427.69 233.133 1427.48 232.836C1427.3 232.523 1427.07 232.258 1426.8 232.039C1426.46 231.742 1426.05 231.523 1425.58 231.383C1425.12 231.242 1424.58 231.172 1423.99 231.172C1422.77 231.172 1421.73 231.492 1420.87 232.133C1420.03 232.758 1419.37 233.617 1418.88 234.711L1418.69 231.641ZM1461.23 257H1467.84V256.602C1467.51 255.961 1467.26 255.195 1467.09 254.305C1466.92 253.414 1466.83 252.289 1466.83 250.93V240.055C1466.83 238.586 1466.56 237.297 1466.01 236.188C1465.47 235.062 1464.71 234.133 1463.74 233.398C1462.77 232.664 1461.62 232.109 1460.29 231.734C1458.98 231.359 1457.56 231.172 1456.03 231.172C1454.32 231.172 1452.81 231.391 1451.48 231.828C1450.17 232.25 1449.06 232.828 1448.15 233.562C1447.23 234.297 1446.53 235.148 1446.04 236.117C1445.57 237.086 1445.34 238.109 1445.34 239.188H1451.86C1451.86 238.734 1451.92 238.32 1452.04 237.945C1452.18 237.57 1452.39 237.25 1452.68 236.984C1452.99 236.688 1453.39 236.461 1453.89 236.305C1454.39 236.133 1454.99 236.047 1455.68 236.047C1456.46 236.047 1457.14 236.148 1457.72 236.352C1458.31 236.539 1458.8 236.812 1459.19 237.172C1459.57 237.516 1459.85 237.93 1460.04 238.414C1460.22 238.883 1460.32 239.414 1460.32 240.008V241.508H1456.68C1454.81 241.508 1453.14 241.68 1451.69 242.023C1450.25 242.352 1449.04 242.836 1448.06 243.477C1446.97 244.18 1446.14 245.078 1445.6 246.172C1445.05 247.25 1444.78 248.492 1444.78 249.898C1444.78 250.992 1445 252.008 1445.43 252.945C1445.87 253.867 1446.48 254.664 1447.26 255.336C1448.04 256.008 1448.97 256.531 1450.05 256.906C1451.14 257.281 1452.34 257.469 1453.64 257.469C1454.43 257.469 1455.18 257.391 1455.86 257.234C1456.55 257.094 1457.18 256.891 1457.76 256.625C1458.32 256.375 1458.84 256.078 1459.31 255.734C1459.78 255.391 1460.19 255.023 1460.55 254.633C1460.63 255.086 1460.72 255.516 1460.83 255.922C1460.94 256.328 1461.07 256.688 1461.23 257ZM1455.02 252.43C1454.41 252.43 1453.87 252.359 1453.4 252.219C1452.95 252.062 1452.57 251.859 1452.25 251.609C1451.94 251.344 1451.7 251.023 1451.53 250.648C1451.37 250.258 1451.29 249.836 1451.29 249.383C1451.29 248.805 1451.4 248.273 1451.62 247.789C1451.84 247.289 1452.18 246.859 1452.63 246.5C1453.08 246.156 1453.67 245.891 1454.39 245.703C1455.11 245.5 1455.97 245.398 1456.99 245.398H1460.32V249.758C1460.13 250.086 1459.87 250.414 1459.54 250.742C1459.22 251.055 1458.82 251.336 1458.37 251.586C1457.92 251.836 1457.41 252.039 1456.85 252.195C1456.29 252.352 1455.68 252.43 1455.02 252.43Z" fill="#3E2D4A"/>
<path d="M1354.74 607C1377.23 607 1395.48 588.781 1395.48 566.333V525.667H1354.74C1332.25 525.667 1314 543.885 1314 566.333C1314 588.781 1332.25 607 1354.74 607Z" fill="#0ACF83"/>
<path d="M1314 485C1314 462.552 1332.25 444.333 1354.74 444.333H1395.48V525.666H1354.74C1332.25 525.666 1314 507.448 1314 485Z" fill="#A259FF"/>
<path d="M1314 403.667C1314 381.219 1332.25 363 1354.74 363H1395.48V444.333H1354.74C1332.25 444.333 1314 426.115 1314 403.667Z" fill="#F24E1E"/>
<path d="M1395.48 363H1436.23C1458.71 363 1476.97 381.219 1476.97 403.667C1476.97 426.115 1458.71 444.333 1436.23 444.333H1395.48V363Z" fill="#FF7262"/>
<path d="M1476.97 485C1476.97 507.448 1458.71 525.666 1436.23 525.666C1413.74 525.666 1395.48 507.448 1395.48 485C1395.48 462.552 1413.74 444.333 1436.23 444.333C1458.71 444.333 1476.97 462.552 1476.97 485Z" fill="#1ABCFE"/>
<path d="M1820.57 251.68L1837.09 226.789L1837.07 222.875H1812.6V228.242H1829.1L1812.55 252.969V257H1837.49V251.68H1820.57ZM1843.63 244.086V244.578C1843.63 246.438 1843.89 248.156 1844.42 249.734C1844.95 251.297 1845.74 252.656 1846.77 253.812C1847.78 254.969 1849.03 255.875 1850.52 256.531C1852.02 257.172 1853.72 257.492 1855.63 257.492C1857.52 257.492 1859.2 257.172 1860.69 256.531C1862.17 255.875 1863.42 254.969 1864.44 253.812C1865.45 252.656 1866.23 251.297 1866.76 249.734C1867.29 248.156 1867.56 246.438 1867.56 244.578V244.086C1867.56 242.242 1867.29 240.539 1866.76 238.977C1866.23 237.398 1865.45 236.031 1864.44 234.875C1863.41 233.719 1862.15 232.812 1860.66 232.156C1859.18 231.5 1857.49 231.172 1855.58 231.172C1853.67 231.172 1851.98 231.5 1850.49 232.156C1849.02 232.812 1847.78 233.719 1846.77 234.875C1845.74 236.031 1844.95 237.398 1844.42 238.977C1843.89 240.539 1843.63 242.242 1843.63 244.086ZM1850.14 244.578V244.086C1850.14 243.055 1850.24 242.078 1850.45 241.156C1850.65 240.234 1850.97 239.422 1851.41 238.719C1851.84 238.016 1852.41 237.461 1853.09 237.055C1853.78 236.648 1854.61 236.445 1855.58 236.445C1856.56 236.445 1857.4 236.648 1858.09 237.055C1858.77 237.461 1859.34 238.016 1859.77 238.719C1860.2 239.422 1860.51 240.234 1860.71 241.156C1860.91 242.078 1861.02 243.055 1861.02 244.086V244.578C1861.02 245.641 1860.91 246.641 1860.71 247.578C1860.51 248.5 1860.2 249.305 1859.77 249.992C1859.34 250.695 1858.77 251.25 1858.09 251.656C1857.4 252.062 1856.58 252.266 1855.63 252.266C1854.64 252.266 1853.8 252.062 1853.09 251.656C1852.41 251.25 1851.84 250.695 1851.41 249.992C1850.97 249.305 1850.65 248.5 1850.45 247.578C1850.24 246.641 1850.14 245.641 1850.14 244.578ZM1874.37 244.086V244.578C1874.37 246.438 1874.64 248.156 1875.17 249.734C1875.7 251.297 1876.48 252.656 1877.51 253.812C1878.53 254.969 1879.78 255.875 1881.26 256.531C1882.76 257.172 1884.47 257.492 1886.37 257.492C1888.26 257.492 1889.95 257.172 1891.44 256.531C1892.92 255.875 1894.17 254.969 1895.19 253.812C1896.2 252.656 1896.98 251.297 1897.51 249.734C1898.04 248.156 1898.3 246.438 1898.3 244.578V244.086C1898.3 242.242 1898.04 240.539 1897.51 238.977C1896.98 237.398 1896.2 236.031 1895.19 234.875C1894.16 233.719 1892.9 232.812 1891.41 232.156C1889.93 231.5 1888.23 231.172 1886.33 231.172C1884.42 231.172 1882.73 231.5 1881.24 232.156C1879.77 232.812 1878.53 233.719 1877.51 234.875C1876.48 236.031 1875.7 237.398 1875.17 238.977C1874.64 240.539 1874.37 242.242 1874.37 244.086ZM1880.89 244.578V244.086C1880.89 243.055 1880.99 242.078 1881.19 241.156C1881.4 240.234 1881.72 239.422 1882.16 238.719C1882.59 238.016 1883.16 237.461 1883.84 237.055C1884.53 236.648 1885.36 236.445 1886.33 236.445C1887.31 236.445 1888.15 236.648 1888.83 237.055C1889.52 237.461 1890.08 238.016 1890.52 238.719C1890.94 239.422 1891.26 240.234 1891.46 241.156C1891.66 242.078 1891.76 243.055 1891.76 244.086V244.578C1891.76 245.641 1891.66 246.641 1891.46 247.578C1891.26 248.5 1890.94 249.305 1890.52 249.992C1890.08 250.695 1889.52 251.25 1888.83 251.656C1888.15 252.062 1887.33 252.266 1886.37 252.266C1885.39 252.266 1884.55 252.062 1883.84 251.656C1883.16 251.25 1882.59 250.695 1882.16 249.992C1881.72 249.305 1881.4 248.5 1881.19 247.578C1880.99 246.641 1880.89 245.641 1880.89 244.578ZM1910.07 231.641H1904.47V257H1910.4V238.016C1910.47 237.812 1910.56 237.625 1910.65 237.453C1910.75 237.281 1910.86 237.133 1910.98 237.008C1911.15 236.836 1911.35 236.703 1911.57 236.609C1911.79 236.516 1912.04 236.469 1912.32 236.469C1912.57 236.469 1912.8 236.508 1913.02 236.586C1913.24 236.648 1913.43 236.766 1913.61 236.938C1913.76 237.109 1913.89 237.352 1913.98 237.664C1914.08 237.977 1914.12 238.375 1914.12 238.859V257H1919.86V238.297C1919.86 238.109 1919.86 237.961 1919.86 237.852C1919.86 237.742 1919.86 237.672 1919.86 237.641C1919.94 237.469 1920.04 237.32 1920.15 237.195C1920.26 237.055 1920.38 236.93 1920.52 236.82C1920.69 236.711 1920.87 236.625 1921.06 236.562C1921.26 236.5 1921.49 236.469 1921.74 236.469C1921.97 236.469 1922.2 236.508 1922.42 236.586C1922.65 236.648 1922.86 236.766 1923.03 236.938C1923.2 237.125 1923.33 237.375 1923.43 237.688C1923.54 238 1923.59 238.398 1923.59 238.883V257H1929.52V238.906C1929.52 237.5 1929.38 236.312 1929.1 235.344C1928.83 234.359 1928.46 233.555 1927.97 232.93C1927.47 232.32 1926.89 231.875 1926.22 231.594C1925.56 231.312 1924.85 231.172 1924.08 231.172C1923.47 231.172 1922.91 231.25 1922.4 231.406C1921.88 231.562 1921.42 231.781 1921.01 232.062C1920.68 232.281 1920.38 232.547 1920.1 232.859C1919.83 233.156 1919.59 233.492 1919.37 233.867C1919.23 233.477 1919.06 233.133 1918.86 232.836C1918.67 232.523 1918.44 232.258 1918.18 232.039C1917.83 231.742 1917.43 231.523 1916.96 231.383C1916.49 231.242 1915.96 231.172 1915.36 231.172C1914.15 231.172 1913.11 231.492 1912.25 232.133C1911.4 232.758 1910.74 233.617 1910.26 234.711L1910.07 231.641Z" fill="#3E2D4A"/>
<path d="M1870.83 597.667C1937.57 597.667 1991.67 543.568 1991.67 476.833C1991.67 410.099 1937.57 356 1870.83 356C1804.1 356 1750 410.099 1750 476.833C1750 543.568 1804.1 597.667 1870.83 597.667Z" fill="#2196F3"/>
<path d="M1901.04 519.125H1810.42C1800.41 519.125 1792.29 511.011 1792.29 501V434.542H1882.92C1892.93 434.542 1901.04 442.656 1901.04 452.667V519.125Z" fill="white"/>
<path d="M1949.37 519.125L1913.12 494.959V458.709L1949.37 434.542V519.125Z" fill="white"/>
</svg>
