<?xml version="1.0" encoding="UTF-8"?><svg id="Ebene_2" xmlns="http://www.w3.org/2000/svg" viewBox="0 0 263.26 49.02"><defs><style>.cls-1{fill:none;stroke:#02b4e1;stroke-linecap:round;stroke-miterlimit:10;stroke-width:3px;}.cls-2{fill:#02b4e1;}</style></defs><g id="Layer_1"><path d="m80.4,40.67c-4.11,0-7.28-1.04-9.52-3.13-2.24-2.08-3.36-4.97-3.36-8.65v-10.49c0-3.68,1.12-6.56,3.36-8.65,2.24-2.08,5.41-3.13,9.52-3.13s7.28,1.04,9.5,3.13c2.22,2.09,3.33,4.97,3.33,8.65v10.49c0,3.19-.84,5.77-2.53,7.73l3.13,3.68c.28.34.41.61.41.83,0,.28-.18.57-.55.87l-1.33,1.1c-.31.28-.58.41-.83.41s-.54-.18-.87-.55l-3.27-3.86c-1.9,1.04-4.23,1.56-6.99,1.56Zm-6.28-6.12c1.46,1.32,3.55,1.98,6.28,1.98s4.78-.66,6.23-1.98c1.46-1.32,2.19-3.2,2.19-5.66v-10.49c0-2.45-.73-4.34-2.19-5.66-1.46-1.32-3.53-1.98-6.23-1.98s-4.82.66-6.28,1.98c-1.46,1.32-2.18,3.21-2.18,5.66v10.49c0,2.45.73,4.34,2.18,5.66Z"/><path d="m100.98,38.3c-1.55-1.58-2.32-3.83-2.32-6.74v-14.21c0-.43.08-.72.25-.87.17-.15.45-.23.85-.23h1.93c.4,0,.67.08.83.23.15.15.23.44.23.87v14.08c0,1.84.48,3.21,1.43,4.12.95.9,2.42,1.36,4.42,1.36s3.69-.26,5.2-.78c.25-.12.41-.26.51-.41.09-.15.14-.37.14-.64v-17.71c0-.43.08-.72.25-.87.17-.15.45-.23.85-.23h1.93c.4,0,.67.08.83.25.15.17.23.45.23.85v19.18c0,.74-.12,1.27-.34,1.61-.23.34-.7.66-1.4.97-1.2.46-2.48.84-3.86,1.13s-3.02.44-4.92.44c-3.13,0-5.47-.79-7.01-2.37Z"/><path d="m124.01,8.93c0-.86.15-1.43.44-1.7.29-.28.87-.41,1.73-.41h.32c.83,0,1.39.15,1.7.44.31.29.46.85.46,1.68v.32c0,.83-.15,1.39-.46,1.68s-.87.44-1.7.44h-.32c-.86,0-1.43-.14-1.73-.41-.29-.28-.44-.84-.44-1.7v-.32Zm.53,30.8c-.17-.17-.25-.45-.25-.85v-21.53c0-.43.08-.72.25-.87.17-.15.45-.23.85-.23h1.89c.43,0,.72.08.87.23.15.15.23.44.23.87v21.53c0,.4-.08.68-.23.85-.15.17-.44.25-.87.25h-1.89c-.4,0-.68-.08-.85-.25Z"/><path d="m132.93,39.72c-.15-.17-.23-.45-.23-.85v-1.52c0-.28.02-.48.07-.62.05-.14.15-.31.3-.53l12.6-16.28h-11.68c-.43,0-.72-.08-.87-.23-.15-.15-.23-.43-.23-.83v-1.52c0-.43.08-.72.25-.87.17-.15.45-.23.85-.23h15.87c.43,0,.72.08.87.23.15.15.23.44.23.87v1.52c0,.28-.03.49-.09.64-.06.15-.17.34-.32.55l-12.65,16.19h12.19c.43,0,.72.08.87.23.15.15.23.44.23.87v1.52c0,.4-.08.68-.23.85-.15.17-.45.25-.87.25h-16.33c-.4,0-.67-.08-.83-.25Z"/><path d="m154.23,39.72c-.15-.17-.23-.45-.23-.85v-1.52c0-.28.02-.48.07-.62.05-.14.15-.31.3-.53l12.6-16.28h-11.68c-.43,0-.72-.08-.87-.23-.15-.15-.23-.43-.23-.83v-1.52c0-.43.08-.72.25-.87.17-.15.45-.23.85-.23h15.87c.43,0,.72.08.87.23.15.15.23.44.23.87v1.52c0,.28-.03.49-.09.64-.06.15-.17.34-.32.55l-12.65,16.19h12.19c.43,0,.72.08.87.23.15.15.23.44.23.87v1.52c0,.4-.08.68-.23.85-.15.17-.45.25-.87.25h-16.33c-.4,0-.67-.08-.83-.25Z"/><path d="m178.33,38.09c-1.69-1.72-2.53-4.05-2.53-6.99v-5.7c0-3.13.9-5.55,2.69-7.27,1.79-1.72,4.36-2.58,7.71-2.58s5.99.87,7.75,2.62c1.76,1.75,2.65,4.05,2.65,6.9v2.67c0,1.07-.55,1.61-1.66,1.61h-15.04v2.21c0,1.75.53,3.11,1.59,4.09,1.06.98,2.58,1.47,4.58,1.47,3,0,5.15-1.07,6.44-3.22.34-.46.67-.69,1.01-.69.21,0,.47.09.78.28l1.24.64c.46.21.69.54.69.97,0,.21-.09.49-.28.83-1.87,3.16-5.17,4.74-9.89,4.74-3.47,0-6.04-.86-7.73-2.58Zm14.17-11.91v-1.33c0-1.84-.54-3.27-1.61-4.28-1.07-1.01-2.64-1.52-4.69-1.52s-3.62.51-4.69,1.52c-1.07,1.01-1.61,2.44-1.61,4.28v1.33h12.6Z"/><path d="m201.4,39.72c-.17-.17-.25-.45-.25-.85v-18.68c0-.74.12-1.27.35-1.61.23-.34.7-.64,1.4-.92,2.33-.95,5.14-1.43,8.42-1.43h1.47c.43,0,.72.08.87.23.15.15.23.44.23.87v1.52c0,.4-.08.68-.23.85-.15.17-.45.25-.87.25h-1.56c-2.05,0-3.83.26-5.34.78-.28.09-.45.21-.53.37-.08.15-.11.34-.11.55v17.2c0,.4-.08.68-.23.85-.15.17-.44.25-.87.25h-1.89c-.4,0-.68-.08-.85-.25Z"/><path d="m225.24,39.38c0-.18.05-.38.14-.6l11.91-30.54c.15-.4.34-.67.55-.8.21-.14.54-.21.97-.21h1.89c.43,0,.75.07.97.21.21.14.38.39.51.76l11.96,30.59c.09.21.14.41.14.6,0,.4-.31.6-.92.6h-1.84c-.74,0-1.25-.07-1.54-.21s-.5-.42-.62-.85l-2.85-7.5h-13.66l-2.85,7.5c-.15.43-.38.71-.67.85-.29.14-.81.21-1.54.21h-1.61c-.61,0-.92-.2-.92-.6Zm19.96-11.59l-4.6-12.14c-.31-.92-.52-1.79-.64-2.62-.12-.83-.18-1.38-.18-1.66h-.28c0,.34-.05.9-.16,1.7-.11.8-.31,1.64-.62,2.53l-4.65,12.19h11.13Z"/><path d="m257.3,8.93c0-.86.15-1.43.44-1.7.29-.28.87-.41,1.73-.41h.32c.83,0,1.39.15,1.7.44.31.29.46.85.46,1.68v.32c0,.83-.15,1.39-.46,1.68s-.87.44-1.7.44h-.32c-.86,0-1.43-.14-1.73-.41-.29-.28-.44-.84-.44-1.7v-.32Zm.53,30.8c-.17-.17-.25-.45-.25-.85v-21.53c0-.43.08-.72.25-.87.17-.15.45-.23.85-.23h1.89c.43,0,.72.08.87.23.15.15.23.44.23.87v21.53c0,.4-.08.68-.23.85-.15.17-.44.25-.87.25h-1.89c-.4,0-.68-.08-.85-.25Z"/><path class="cls-2" d="m19.98,48.57L1.71,38.02c-1.06-.61-1.71-1.74-1.71-2.96V13.96c0-1.22.65-2.35,1.71-2.96L19.98.46c1.06-.61,2.36-.61,3.42,0l18.27,10.55c1.06.61,1.71,1.74,1.71,2.96v21.1c0,1.22-.65,2.35-1.71,2.96l-18.27,10.55c-1.06.61-2.36.61-3.42,0Zm-14.63-12.57l14.56,8.41c1.1.63,2.45.63,3.55,0l14.56-8.41c1.1-.63,1.78-1.81,1.78-3.08v-16.81c0-1.27-.68-2.44-1.78-3.08l-14.56-8.41c-1.1-.63-2.45-.63-3.55,0L5.35,13.03c-1.1.63-1.78,1.81-1.78,3.08v16.81c0,1.27.68,2.44,1.78,3.08Z"/><polyline class="cls-1" points="35.52 16.96 21.68 25.07 7.85 16.96"/><line class="cls-1" x1="21.68" y1="25.07" x2="21.68" y2="39.28"/><path class="cls-2" d="m129.67,6.15l-3.06-1.77c-.18-.1-.39-.1-.57,0l-3.06,1.77c-.18.1-.29.29-.29.5v3.53c0,.2.11.39.29.5l3.06,1.77c.18.1.39.1.57,0l3.06-1.77c.18-.1.29-.29.29-.5v-3.53c0-.2-.11-.39-.29-.5Z"/><path class="cls-2" d="m262.97,6.15l-3.06-1.77c-.18-.1-.39-.1-.57,0l-3.06,1.77c-.18.1-.29.29-.29.5v3.53c0,.2.11.39.29.5l3.06,1.77c.18.1.39.1.57,0l3.06-1.77c.18-.1.29-.29.29-.5v-3.53c0-.2-.11-.39-.29-.5Z"/></g></svg>