<?xml version="1.0" encoding="UTF-8"?><svg id="Ebene_2" xmlns="http://www.w3.org/2000/svg" viewBox="0 0 570.13 51.09"><defs><style>.cls-1{fill:#010101;}.cls-2{fill:#02b4e1;}</style></defs><g id="Layer_1"><path class="cls-2" d="m98.83,10.99L81.35.9c-1.35-.78-3.01-.78-4.36,0l-17.48,10.09h0c-.2-.16-.4-.31-.62-.44L41.68.62c-1.44-.83-3.2-.83-4.64,0l-17.2,9.93-.17.11h0L3.16,1.13c-1.03-.54-2.31-.14-2.85.9-.51.97-.19,2.17.74,2.75l15.55,9c.58.34.94.96.94,1.63v18.18c0,.67-.36,1.3-.94,1.64L1.05,44.23c-1.01.59-1.35,1.89-.76,2.9.18.31.45.58.76.76.65.38,1.46.38,2.11,0l16.51-9.53h0l.17.11,17.2,9.93c.71.4,1.51.62,2.32.62.81,0,1.61-.21,2.32-.62l17.21-9.93c1.24-.72,2.22-3.05,2.26-3.15.08-.16.13-.33.17-.51,0-.12,0-.24.05-.37.11-.59.18-1.19.19-1.79v-15.57c0-1.48.79-2.85,2.07-3.59l13.47-7.79c1.28-.74,2.86-.74,4.14,0l13.48,7.78c1.28.74,2.08,2.11,2.08,3.59v18.04h0c.06.66.43,1.25,1,1.59.47.3,1.04.41,1.59.29.55-.12,1.02-.45,1.32-.92.2-.3.31-.64.32-1h0V14.77c-.01-1.56-.85-3-2.2-3.78Zm-41.85,5.89v15.25c0,1.58-.84,3.04-2.21,3.83l-13.21,7.62c-1.36.79-3.05.79-4.41,0l-13.21-7.62c-1.37-.79-2.21-2.25-2.21-3.83v-15.25c0-1.58.84-3.03,2.21-3.82l13.21-7.63c1.37-.79,3.04-.79,4.41,0l13.21,7.63c1.37.79,2.21,2.24,2.21,3.82Z"/><path class="cls-2" d="m24.93,33.04c-.97,0-1.76-.79-1.76-1.76h0v-13.45c0-.97.78-1.76,1.76-1.76.97,0,1.76.78,1.76,1.76h0v13.46c0,.97-.79,1.76-1.76,1.76Z"/><path class="cls-2" d="m52.31,17.15c-.31,0-.61-.08-.88-.24l-11.65-6.72c-.84-.49-1.13-1.57-.64-2.41.49-.84,1.57-1.13,2.41-.64l11.64,6.72c.84.48,1.14,1.55.66,2.4-.31.55-.9.89-1.54.89Z"/><path class="cls-2" d="m40.67,42.13c-.97,0-1.76-.78-1.77-1.75,0-.64.34-1.23.89-1.54l11.62-6.72c.76-.61,1.87-.49,2.47.27s.49,1.87-.27,2.47c-.13.11-.28.19-.44.26l-11.65,6.72c-.26.17-.55.27-.86.29Z"/><path class="cls-1" d="m124.82,38.78V8.51c0-.87.32-1.19,1.24-1.19h1.57c1,0,1.29.18,1.7.92l10.59,18.81,10.53-18.77c.21-.69.9-1.12,1.61-1h1.76c.92,0,1.2.32,1.2,1.19v30.27c0,.88-.28,1.2-1.2,1.2h-1.8c-.92,0-1.24-.32-1.24-1.2v-16.65c.01-2.89.29-5.77.83-8.6h-.28c-1,2.65-2.21,5.22-3.63,7.68l-5.88,10.48c-.21.57-.77.93-1.38.88h-1.12c-.78,0-1-.19-1.43-.88l-6-10.49c-1.42-2.43-2.58-5-3.45-7.68h-.23c.46,2.86.69,5.75.69,8.65v16.65c0,.88-.27,1.2-1.19,1.2h-1.69c-.92,0-1.2-.33-1.2-1.2Z"/><path class="cls-1" d="m162.5,31.88v-7.54c0-5.43,3.82-8.79,10.3-8.79s10.35,3.36,10.35,8.79v7.54c0,5.43-3.72,8.79-10.35,8.79-6.48-.02-10.3-3.36-10.3-8.79Zm16.56,0v-7.54c0-3.22-2.3-5.06-6.26-5.06s-6.21,1.84-6.21,5.06v7.54c0,3.18,2.4,5.06,6.21,5.06s6.26-1.88,6.26-5.06Z"/><path class="cls-1" d="m191.71,39.24c-1.47-.69-1.75-1.05-1.75-2.53V7.04c0-.83.28-1.1,1.1-1.1h1.89c.83,0,1.1.27,1.1,1.1v9.66c2.09-.72,4.28-1.11,6.49-1.15,6.44,0,9.29,3.41,9.29,9.11v6.44c0,6.17-3.26,9.57-10.12,9.57-2.73.04-5.45-.44-8-1.43Zm14-8.28v-6.16c0-3.54-1.89-5.52-5.75-5.52-2.03.04-4.05.44-5.94,1.19v14.82c0,.46.05.64.65.87,1.53.51,3.13.76,4.74.74,4.35,0,6.33-1.93,6.33-5.94h-.03Z"/><path class="cls-1" d="m216.95,9.25v-.32c0-1.71.46-2.12,2.17-2.12h.32c1.66,0,2.16.41,2.16,2.12v.32c0,1.7-.5,2.11-2.16,2.11h-.32c-1.71,0-2.17-.36-2.17-2.11Zm.28,29.63v-21.53c0-.83.28-1.11,1.11-1.11h1.88c.83,0,1.11.28,1.11,1.11v21.53c0,.82-.28,1.1-1.11,1.1h-1.88c-.83,0-1.11-.28-1.11-1.1h0Z"/><path class="cls-1" d="m230.02,38.88V7.04c0-.83.27-1.1,1.1-1.1h1.94c.78,0,1,.27,1,1.1v31.84c0,.82-.27,1.1-1,1.1h-1.94c-.83,0-1.1-.28-1.1-1.1Z"/><path class="cls-1" d="m241.06,31.1v-5.7c0-6.21,3.63-9.85,10.4-9.85s10.39,4.1,10.39,9.52v2.67c0,1-.41,1.61-1.65,1.61h-15v2.21c0,3.5,2.17,5.57,6.17,5.57,3.31,0,5.29-1.29,6.44-3.22.55-.74,1-.88,1.79-.42l1.24.65c.79.41.92,1,.42,1.79-1.66,2.81-4.6,4.74-9.89,4.74-7.23-.02-10.31-3.96-10.31-9.57Zm16.7-4.92v-1.34c0-3.63-2.12-5.79-6.3-5.79s-6.31,2.16-6.31,5.79v1.34h12.61Z"/><path class="cls-1" d="m279.82,38.78V8.51c0-.87.32-1.19,1.24-1.19h2c.87,0,1.19.32,1.19,1.19v27.33h14.5c.92,0,1.19.32,1.19,1.24v1.7c0,.88-.27,1.2-1.19,1.2h-17.73c-.92,0-1.2-.33-1.2-1.2Z"/><path class="cls-1" d="m301.82,31.1v-5.7c0-6.21,3.63-9.85,10.39-9.85,7.09,0,10.4,4.1,10.4,9.52v2.67c0,1-.41,1.61-1.66,1.61h-15v2.21c0,3.5,2.16,5.57,6.17,5.57,3.31,0,5.29-1.29,6.44-3.22.55-.74,1-.88,1.79-.42l1.24.65c.79.41.92,1,.42,1.79-1.66,2.81-4.6,4.74-9.89,4.74-7.3-.02-10.3-3.96-10.3-9.57Zm16.7-4.92v-1.34c0-3.63-2.12-5.79-6.31-5.79s-6.3,2.16-6.3,5.79v1.34h12.61Z"/><path class="cls-1" d="m327.82,33.35c0-5.38,3-7.17,10.26-7.17,2.3,0,4.46.27,5.29.32v-1.79c0-3.27-1.15-5.52-5.48-5.52-2.81,0-4.64,1-5.75,2.85-.46.69-.69.83-1.47.5l-1.47-.59c-.79-.33-1-.74-.6-1.57,1.61-3,4.65-4.83,9.38-4.83,7.41,0,9.48,4.1,9.48,9.29v12c0,1.61-.37,2.07-1.66,2.62-2.56.92-5.27,1.32-7.98,1.19-8,0-10-2.6-10-7.3Zm14.76,3.3c.6-.19.74-.37.74-1v-5.89c-.92-.09-3.45-.33-5.75-.33-4.33,0-5.66,1.29-5.66,3.87s1,4,5.56,4c1.73.06,3.45-.16,5.11-.65Z"/><path class="cls-1" d="m354.54,38.88v-18.68c-.2-1.18.58-2.3,1.75-2.53,2.69-1.02,5.55-1.51,8.42-1.43h1.47c.83,0,1.1.28,1.1,1.11v1.51c0,.83-.27,1.11-1.1,1.11h-1.57c-1.81-.04-3.61.23-5.33.78-.42.09-.71.49-.65.92v17.21c0,.82-.27,1.1-1.1,1.1h-1.89c-.82,0-1.1-.28-1.1-1.1Z"/><path class="cls-1" d="m371.1,38.88v-19.23c-.19-1.19.58-2.31,1.75-2.57,2.79-1.11,5.78-1.64,8.78-1.57,6.44,0,9.34,3.41,9.34,9.11v14.22c0,.82-.27,1.1-1.1,1.1h-1.89c-.83,0-1.1-.28-1.1-1.1v-14.04c0-3.64-1.84-5.52-5.8-5.52-1.82-.02-3.62.28-5.34.87-.36.1-.59.46-.55.83v17.9c0,.82-.27,1.1-1.1,1.1h-1.89c-.83,0-1.1-.28-1.1-1.1Z"/><path class="cls-1" d="m398.15,9.25v-.32c0-1.71.46-2.12,2.16-2.12h.32c1.66,0,2.16.41,2.16,2.12v.32c0,1.7-.5,2.11-2.16,2.11h-.32c-1.7,0-2.16-.36-2.16-2.11Zm.27,29.63v-21.53c0-.83.28-1.11,1.11-1.11h1.88c.83,0,1.11.28,1.11,1.11v21.53c0,.82-.28,1.1-1.11,1.1h-1.88c-.83,0-1.11-.28-1.11-1.1h0Z"/><path class="cls-1" d="m410.98,38.88v-19.23c-.19-1.19.58-2.31,1.75-2.57,2.79-1.11,5.78-1.64,8.78-1.57,6.44,0,9.34,3.41,9.34,9.11v14.22c0,.82-.27,1.1-1.1,1.1h-1.93c-.83,0-1.1-.28-1.1-1.1v-14.04c0-3.64-1.84-5.52-5.8-5.52-1.81-.02-3.62.28-5.33.87-.36.1-.6.45-.56.83v17.9c0,.82-.27,1.1-1.1,1.1h-1.89c-.79,0-1.06-.28-1.06-1.1Z"/><path class="cls-1" d="m438.11,46.37c-.51-.78-.37-1.33.46-1.74l1.33-.74c.88-.46,1.25-.28,1.8.46,1.12,2.07,3.36,3.28,5.7,3.08,4,0,5.89-2.25,5.89-6.12v-2.66c-2.09.73-4.28,1.12-6.49,1.15-6.39,0-9.29-3.4-9.29-9.11v-5.66c0-6.16,3.27-9.52,10.12-9.52,2.75-.06,5.49.42,8.05,1.43,1.48.64,1.71,1,1.71,2.53v21.62c0,6-2.81,10-9.9,10-4.96.02-7.77-1.86-9.38-4.72Zm15.18-11.31v-14.13c0-.55-.09-.69-.64-.92-1.53-.48-3.13-.73-4.74-.73-4.28,0-6.3,2-6.3,5.93v5.44c0,3.5,1.93,5.48,5.75,5.48,2.02-.02,4.03-.39,5.93-1.07h0Z"/><path class="cls-1" d="m476.81,38.78V8.51c0-.87.32-1.19,1.24-1.19h2c.87,0,1.19.32,1.19,1.19v27.33h14.5c.92,0,1.19.32,1.19,1.24v1.7c0,.88-.27,1.2-1.19,1.2h-17.73c-.92,0-1.2-.33-1.2-1.2Z"/><path class="cls-1" d="m499.24,33.35c0-5.38,3-7.17,10.26-7.17,2.3,0,4.46.27,5.29.32v-1.79c0-3.27-1.15-5.52-5.47-5.52-2.81,0-4.65,1-5.75,2.85-.46.69-.69.83-1.48.5l-1.47-.59c-.78-.33-1-.74-.6-1.57,1.61-3,4.65-4.83,9.39-4.83,7.41,0,9.48,4.1,9.48,9.29v12c0,1.61-.37,2.07-1.66,2.62-2.53.91-5.22,1.32-7.91,1.2-8.05,0-10.08-2.61-10.08-7.31Zm14.82,3.3c.59-.19.73-.37.73-1v-5.89c-.92-.09-3.45-.33-5.75-.33-4.32,0-5.66,1.29-5.66,3.87s1,4,5.57,4c1.73.06,3.45-.16,5.11-.65Z"/><path class="cls-1" d="m527.22,39.24c-1.47-.69-1.75-1.05-1.75-2.53V7.04c0-.83.28-1.1,1.11-1.1h1.88c.83,0,1.11.27,1.11,1.1v9.66c2.09-.72,4.27-1.11,6.48-1.15,6.44,0,9.3,3.41,9.3,9.11v6.44c0,6.17-3.27,9.57-10.13,9.57-2.73.04-5.45-.44-8-1.43Zm14-8.28v-6.16c0-3.54-1.88-5.52-5.75-5.52-2.03.04-4.04.44-5.93,1.19v14.82c0,.46,0,.64.64.87,1.53.51,3.13.76,4.74.74,4.35,0,6.33-1.93,6.33-5.94h-.03Z"/><path class="cls-1" d="m550.39,35.01c-.27-.48-.1-1.09.39-1.36.09-.05.2-.09.3-.11l1.61-.55c.69-.23,1.06-.14,1.43.69.92,2.44,3,3.36,6.21,3.36,3.91,0,5.8-1.25,5.8-3.55,0-2.76-2.3-3.26-6.17-3.63-4.6-.46-9.29-1.24-9.29-7.18,0-4.28,3.08-7.13,9.25-7.13,5.29,0,8.18,2,9.61,5,.42.83.19,1.29-.6,1.61l-1.56.64c-.78.33-1,.23-1.52-.5-.83-1.8-2.3-3-5.84-3s-5.29,1.15-5.29,3.36c0,2.94,2.44,3.31,6.25,3.68,5.25.46,9.16,1.61,9.16,7,0,4.37-3.27,7.36-9.71,7.36-5.2-.03-8.54-1.93-10.03-5.69Z"/></g></svg>