<?xml version="1.0" encoding="utf-8"?>
<!-- Generator: Adobe Illustrator 23.0.0, SVG Export Plug-In . SVG Version: 6.00 Build 0)  -->
<svg version="1.1" id="Ebene_1" xmlns="http://www.w3.org/2000/svg" xmlns:xlink="http://www.w3.org/1999/xlink" x="0px" y="0px"
	 viewBox="0 0 566.93 566.93" style="enable-background:new 0 0 566.93 566.93;" xml:space="preserve">
<style type="text/css">
	.st0{fill:#050E24;}
	.st1{fill:#FFFFFF;}
</style>
<g>
	<rect x="0.09" class="st0" width="566.93" height="566.93"/>
</g>
<path class="st1" d="M39.98,250.03l27.51,63.25l27.6-63.25h3.63v66.88h-2.48v-63.2l-27.74,63.2h-1.98l-27.6-62.88v62.88h-2.48
	v-66.88H39.98z"/>
<path class="st1" d="M153.16,296.92h-32.75l-7.44,19.98h-2.71l25.03-66.88h3.03l25.03,66.88h-2.71L153.16,296.92z M121.33,294.44
	h30.91l-15.43-41.43L121.33,294.44z"/>
<path class="st1" d="M222.28,316.9h-2.48l-43.18-62.65v62.65h-2.53v-66.88h2.53l43.18,62.51v-62.51h2.48V316.9z"/>
<path class="st1" d="M244.97,316.9h-2.48v-66.88h2.48V316.9z"/>
<path class="st1" d="M301.93,284.02h-34.26v32.89h-2.48v-66.88h41.43v2.48h-38.95v28.94h34.26V284.02z"/>
<path class="st1" d="M355.03,283.74H321.5v30.68h38.21v2.48h-40.7v-66.88h40.7v2.48H321.5v28.75h33.53V283.74z"/>
<path class="st1" d="M412.62,300.87c0-2.85-0.67-5.26-2-7.23s-3.43-3.72-6.29-5.24c-2.86-1.52-7.19-3.07-12.98-4.66
	c-5.79-1.59-10.13-3.2-13.02-4.82c-2.89-1.62-5.01-3.51-6.36-5.65c-1.35-2.14-2.02-4.75-2.02-7.81c0-4.87,2.05-8.81,6.15-11.83
	c4.1-3.02,9.45-4.52,16.03-4.52c4.29,0,8.14,0.83,11.55,2.5c3.41,1.67,6.05,4.01,7.92,7.03s2.8,6.42,2.8,10.22h-2.48
	c0-4.99-1.84-9.12-5.51-12.38c-3.67-3.26-8.44-4.89-14.29-4.89c-5.88,0-10.63,1.31-14.26,3.93s-5.44,5.9-5.44,9.85
	c0,4.01,1.58,7.24,4.73,9.69c3.15,2.45,8.36,4.62,15.62,6.5c7.26,1.88,12.57,4.06,15.94,6.55c4.29,3.15,6.43,7.38,6.43,12.68
	c0,3.37-0.95,6.35-2.85,8.93c-1.9,2.59-4.59,4.59-8.08,5.99c-3.49,1.41-7.41,2.11-11.76,2.11c-4.84,0-9.19-0.8-13.04-2.41
	c-3.86-1.61-6.76-3.9-8.7-6.87c-1.95-2.97-2.92-6.48-2.92-10.52h2.48c0,5.48,2.05,9.74,6.16,12.77c4.1,3.03,9.45,4.55,16.03,4.55
	c5.85,0,10.67-1.34,14.47-4.02C410.73,308.64,412.62,305.16,412.62,300.87z"/>
<path class="st1" d="M472.7,252.51h-24.34v64.4h-2.48v-64.4h-24.34v-2.48h51.17V252.51z"/>
<path class="st1" d="M530.48,288.47c0,5.79-1.03,10.91-3.1,15.36c-2.07,4.46-5.01,7.9-8.84,10.33c-3.83,2.43-8.24,3.65-13.23,3.65
	c-7.53,0-13.63-2.68-18.28-8.04c-4.66-5.36-6.98-12.59-6.98-21.68v-9.65c0-5.76,1.03-10.87,3.1-15.34
	c2.07-4.47,5.02-7.92,8.87-10.36c3.84-2.43,8.24-3.65,13.21-3.65c4.99,0,9.41,1.22,13.25,3.65c3.84,2.43,6.81,5.9,8.89,10.38
	c2.08,4.49,3.12,9.59,3.12,15.32V288.47z M528,278.37c0-8.08-2.05-14.57-6.16-19.45c-4.1-4.88-9.65-7.33-16.63-7.33
	c-6.89,0-12.39,2.43-16.49,7.28c-4.1,4.85-6.16,11.46-6.16,19.82v9.78c0,5.33,0.93,10.04,2.78,14.12c1.85,4.09,4.49,7.23,7.92,9.44
	s7.44,3.31,12.03,3.31c6.98,0,12.51-2.43,16.58-7.3S528,296.52,528,288.1V278.37z"/>
<path class="st1" d="M514.08,276.1c-0.83-1.78-2.02-3.17-3.55-4.14c-1.53-0.97-3.31-1.46-5.28-1.46c-1.97,0-3.74,0.49-5.27,1.46
	c-1.53,0.97-2.72,2.36-3.54,4.13c-0.81,1.75-1.22,3.78-1.22,6.02v3.66c0,3.55,0.93,6.43,2.77,8.54c1.85,2.13,4.31,3.21,7.3,3.21
	c1.98,0,3.75-0.49,5.28-1.46c1.52-0.97,2.71-2.36,3.53-4.13c0.81-1.75,1.22-3.78,1.22-6.03v-3.8
	C515.31,279.88,514.9,277.86,514.08,276.1z"/>
</svg>
