<svg xmlns="http://www.w3.org/2000/svg" xmlns:xlink="http://www.w3.org/1999/xlink" width="500" zoomAndPan="magnify" viewBox="0 0 375 374.999991" height="500" preserveAspectRatio="xMidYMid meet" version="1.0"><defs><clipPath id="12f8558df0"><path d="M 187.5 15.457031 L 328.5 15.457031 L 328.5 359.707031 L 187.5 359.707031 Z M 187.5 15.457031 " clip-rule="nonzero"/></clipPath><clipPath id="8d8eb9db63"><path d="M 47.292969 15.457031 L 188.265625 15.457031 L 188.265625 359.707031 L 47.292969 359.707031 Z M 47.292969 15.457031 " clip-rule="nonzero"/></clipPath><clipPath id="602cb340ce"><path d="M 59.304688 31 L 187.296875 31 L 187.296875 344.414062 L 59.304688 344.414062 Z M 59.304688 31 " clip-rule="nonzero"/></clipPath><clipPath id="6ba22d42bb"><path d="M 59.304688 30.914062 L 187.296875 30.914062 L 187.296875 344.414062 L 59.304688 344.414062 Z M 59.304688 30.914062 " clip-rule="nonzero"/></clipPath><clipPath id="ce4a10afc2"><path d="M 185.894531 31 L 314 31 L 314 344.417969 L 185.894531 344.417969 Z M 185.894531 31 " clip-rule="nonzero"/></clipPath><clipPath id="c5c2e16131"><path d="M 185.894531 30.917969 L 314.085938 30.917969 L 314.085938 344.417969 L 185.894531 344.417969 Z M 185.894531 30.917969 " clip-rule="nonzero"/></clipPath><clipPath id="3aecc50974"><path d="M 89.066406 0 L 188.066406 0 L 188.066406 363 L 89.066406 363 Z M 89.066406 0 " clip-rule="nonzero"/></clipPath><clipPath id="c05fa85577"><path d="M 444.753906 169.8125 C 436.644531 169.8125 429.792969 175.039062 427.214844 182.273438 L 357.546875 182.273438 L 357.546875 169.8125 L 388.691406 169.8125 C 391.378906 169.8125 393.75 168.101562 394.597656 165.550781 L 405.640625 132.4375 L 427.21875 132.4375 C 429.800781 139.671875 436.652344 144.894531 444.761719 144.894531 C 455.066406 144.894531 463.449219 136.511719 463.449219 126.207031 C 463.449219 115.90625 455.066406 107.519531 444.761719 107.519531 C 436.652344 107.519531 429.800781 112.746094 427.21875 119.980469 L 401.152344 119.980469 C 398.464844 119.980469 396.085938 121.691406 395.246094 124.238281 L 384.199219 157.355469 L 357.546875 157.355469 L 357.546875 139.671875 L 374.496094 88.832031 L 396.074219 88.832031 C 398.652344 96.066406 405.503906 101.292969 413.617188 101.292969 C 423.917969 101.292969 432.304688 92.90625 432.304688 82.605469 C 432.304688 72.300781 423.917969 63.917969 413.617188 63.917969 C 405.503906 63.917969 398.652344 69.144531 396.074219 76.375 L 370.003906 76.375 C 367.320312 76.375 364.941406 78.085938 364.097656 80.636719 L 353.757812 111.644531 C 349.3125 103.335938 341.3125 97.269531 331.71875 95.605469 L 313.847656 -5.683594 C 313.257812 -9.070312 310.003906 -11.34375 306.632812 -10.734375 C 303.246094 -10.136719 300.984375 -6.902344 301.582031 -3.515625 L 318.976562 95.0625 L 294.109375 95.0625 C 294.804688 93.105469 295.253906 91.027344 295.253906 88.832031 C 295.253906 78.53125 286.871094 70.144531 276.566406 70.144531 C 266.261719 70.144531 257.878906 78.53125 257.878906 88.832031 C 257.878906 91.027344 258.328125 93.105469 259.023438 95.0625 L 234.15625 95.0625 L 251.554688 -3.519531 C 252.152344 -6.910156 249.890625 -10.144531 246.503906 -10.742188 C 243.132812 -11.332031 239.882812 -9.070312 239.285156 -5.6875 L 221.414062 95.597656 C 206.859375 98.128906 195.742188 110.714844 195.617188 125.945312 L 149.582031 90.140625 C 148.480469 89.292969 147.136719 88.832031 145.753906 88.832031 L 125.917969 88.832031 C 123.339844 81.601562 116.488281 76.375 108.375 76.375 C 98.074219 76.375 89.6875 84.757812 89.6875 95.0625 C 89.6875 105.367188 98.074219 113.75 108.375 113.75 C 116.488281 113.75 123.339844 108.523438 125.917969 101.292969 L 143.617188 101.292969 L 195.585938 141.714844 L 195.585938 157.355469 L 175.753906 157.355469 C 173.171875 150.121094 166.320312 144.894531 158.210938 144.894531 C 147.90625 144.894531 139.523438 153.28125 139.523438 163.585938 C 139.523438 173.886719 147.90625 182.273438 158.210938 182.273438 C 166.320312 182.273438 173.171875 177.046875 175.753906 169.8125 L 195.585938 169.8125 L 195.585938 182.273438 L 189.355469 182.273438 C 188.230469 182.273438 187.121094 182.578125 186.148438 183.164062 L 156.484375 200.960938 L 125.917969 200.960938 C 123.339844 193.726562 116.488281 188.5 108.375 188.5 C 98.074219 188.5 89.6875 196.886719 89.6875 207.1875 C 89.6875 217.492188 98.074219 225.875 108.375 225.875 C 116.488281 225.875 123.339844 220.648438 125.917969 213.417969 L 158.210938 213.417969 C 159.339844 213.417969 160.445312 213.113281 161.417969 212.527344 L 191.082031 194.730469 L 195.585938 194.730469 L 195.585938 211.417969 L 167.460938 250.792969 L 150.828125 250.792969 C 148.25 243.5625 141.398438 238.335938 133.289062 238.335938 C 122.984375 238.335938 114.601562 246.71875 114.601562 257.023438 C 114.601562 267.324219 122.984375 275.710938 133.289062 275.710938 C 141.398438 275.710938 148.25 270.484375 150.828125 263.25 L 170.667969 263.25 C 172.679688 263.25 174.570312 262.28125 175.738281 260.640625 L 196.203125 231.992188 C 198.707031 244.527344 208.765625 254.292969 221.40625 256.488281 L 239.277344 357.773438 C 239.875 361.15625 243.101562 363.425781 246.496094 362.824219 C 249.886719 362.226562 252.148438 358.996094 251.550781 355.605469 L 234.15625 257.023438 L 259.023438 257.023438 C 258.328125 258.980469 257.878906 261.058594 257.878906 263.25 C 257.878906 273.554688 266.261719 281.941406 276.566406 281.941406 C 286.871094 281.941406 295.253906 273.554688 295.253906 263.25 C 295.253906 261.058594 294.804688 258.980469 294.109375 257.023438 L 318.976562 257.023438 L 301.582031 355.605469 C 300.976562 358.996094 303.246094 362.226562 306.632812 362.824219 C 306.996094 362.886719 307.355469 362.917969 307.71875 362.917969 C 310.691406 362.917969 313.3125 360.796875 313.839844 357.773438 L 331.714844 256.488281 C 346.351562 253.945312 357.546875 241.226562 357.546875 225.875 L 357.546875 219.648438 L 360.660156 219.648438 L 377.480469 242.074219 C 378.652344 243.640625 380.5 244.5625 382.464844 244.5625 L 402.296875 244.5625 C 404.875 251.796875 411.726562 257.023438 419.839844 257.023438 C 430.140625 257.023438 438.527344 248.636719 438.527344 238.335938 C 438.527344 228.03125 430.140625 219.648438 419.839844 219.648438 C 411.726562 219.648438 404.875 224.875 402.296875 232.105469 L 385.578125 232.105469 L 368.757812 209.679688 C 367.582031 208.109375 365.730469 207.1875 363.773438 207.1875 L 357.546875 207.1875 L 357.546875 194.730469 L 427.214844 194.730469 C 429.792969 201.960938 436.644531 207.1875 444.753906 207.1875 C 455.058594 207.1875 463.441406 198.804688 463.441406 188.5 C 463.441406 178.199219 455.058594 169.8125 444.753906 169.8125 Z M 444.753906 119.980469 C 448.195312 119.980469 450.984375 122.777344 450.984375 126.207031 C 450.984375 129.640625 448.195312 132.4375 444.753906 132.4375 C 441.316406 132.4375 438.527344 129.640625 438.527344 126.207031 C 438.527344 122.777344 441.316406 119.980469 444.753906 119.980469 Z M 413.609375 76.375 C 417.046875 76.375 419.839844 79.171875 419.839844 82.605469 C 419.839844 86.035156 417.046875 88.832031 413.609375 88.832031 C 410.171875 88.832031 407.378906 86.035156 407.378906 82.605469 C 407.378906 79.171875 410.171875 76.375 413.609375 76.375 Z M 108.375 101.292969 C 104.945312 101.292969 102.148438 98.496094 102.148438 95.0625 C 102.148438 91.628906 104.945312 88.832031 108.375 88.832031 C 111.808594 88.832031 114.605469 91.628906 114.605469 95.0625 C 114.605469 98.496094 111.808594 101.292969 108.375 101.292969 Z M 158.210938 169.8125 C 154.777344 169.8125 151.980469 167.015625 151.980469 163.585938 C 151.980469 160.152344 154.777344 157.355469 158.210938 157.355469 C 161.644531 157.355469 164.441406 160.152344 164.441406 163.585938 C 164.441406 167.015625 161.644531 169.8125 158.210938 169.8125 Z M 108.375 213.417969 C 104.945312 213.417969 102.148438 210.621094 102.148438 207.1875 C 102.148438 203.757812 104.945312 200.960938 108.375 200.960938 C 111.808594 200.960938 114.605469 203.757812 114.605469 207.1875 C 114.605469 210.621094 111.808594 213.417969 108.375 213.417969 Z M 133.292969 263.25 C 129.859375 263.25 127.0625 260.453125 127.0625 257.023438 C 127.0625 253.589844 129.859375 250.792969 133.292969 250.792969 C 136.726562 250.792969 139.523438 253.589844 139.523438 257.023438 C 139.523438 260.453125 136.726562 263.25 133.292969 263.25 Z M 419.839844 232.105469 C 423.277344 232.105469 426.066406 234.902344 426.066406 238.335938 C 426.066406 241.765625 423.277344 244.5625 419.839844 244.5625 C 416.398438 244.5625 413.609375 241.765625 413.609375 238.335938 C 413.609375 234.902344 416.398438 232.105469 419.839844 232.105469 Z M 345.085938 182.273438 L 332.628906 182.273438 L 332.628906 169.8125 L 345.085938 169.8125 Z M 270.335938 232.105469 L 270.335938 244.5625 L 251.648438 244.5625 L 251.648438 232.105469 Z M 282.796875 232.105469 L 301.484375 232.105469 L 301.484375 244.5625 L 282.796875 244.5625 Z M 239.191406 219.648438 C 235.757812 219.648438 232.960938 216.851562 232.960938 213.417969 L 232.960938 138.667969 C 232.960938 135.234375 235.757812 132.4375 239.191406 132.4375 L 313.941406 132.4375 C 317.378906 132.4375 320.171875 135.234375 320.171875 138.667969 L 320.171875 213.417969 C 320.171875 216.851562 317.378906 219.648438 313.941406 219.648438 Z M 282.796875 119.980469 L 282.796875 107.519531 L 301.484375 107.519531 L 301.484375 119.980469 Z M 270.335938 119.980469 L 251.648438 119.980469 L 251.648438 107.519531 L 270.335938 107.519531 Z M 332.628906 157.355469 L 332.628906 144.894531 L 345.085938 144.894531 L 345.085938 157.355469 Z M 326.398438 107.519531 C 336.703125 107.519531 345.085938 115.90625 345.085938 126.207031 L 345.085938 132.4375 L 331.484375 132.4375 C 328.902344 125.207031 322.050781 119.980469 313.941406 119.980469 L 313.941406 107.519531 Z M 270.335938 88.832031 C 270.335938 85.402344 273.132812 82.605469 276.566406 82.605469 C 280 82.605469 282.796875 85.402344 282.796875 88.832031 C 282.796875 92.265625 280 95.0625 276.566406 95.0625 C 273.132812 95.0625 270.335938 92.265625 270.335938 88.832031 Z M 226.730469 107.519531 L 239.191406 107.519531 L 239.191406 119.980469 C 231.082031 119.980469 224.226562 125.207031 221.648438 132.4375 L 208.042969 132.4375 L 208.042969 126.207031 C 208.042969 115.90625 216.429688 107.519531 226.730469 107.519531 Z M 208.042969 144.894531 L 220.503906 144.894531 L 220.503906 157.355469 L 208.042969 157.355469 Z M 208.042969 169.8125 L 220.503906 169.8125 L 220.503906 182.273438 L 208.042969 182.273438 Z M 220.503906 194.730469 L 220.503906 207.1875 L 208.042969 207.1875 L 208.042969 194.730469 Z M 226.730469 244.5625 C 216.429688 244.5625 208.042969 236.179688 208.042969 225.875 L 208.042969 219.648438 L 221.648438 219.648438 C 224.226562 226.878906 231.082031 232.105469 239.191406 232.105469 L 239.191406 244.5625 Z M 282.796875 263.25 C 282.796875 266.683594 280 269.480469 276.566406 269.480469 C 273.132812 269.480469 270.335938 266.683594 270.335938 263.25 C 270.335938 259.820312 273.132812 257.023438 276.566406 257.023438 C 280 257.023438 282.796875 259.820312 282.796875 263.25 Z M 345.085938 225.875 C 345.085938 236.179688 336.703125 244.5625 326.398438 244.5625 L 313.941406 244.5625 L 313.941406 232.105469 C 322.050781 232.105469 328.902344 226.878906 331.484375 219.648438 L 345.085938 219.648438 Z M 345.085938 207.1875 L 332.628906 207.1875 L 332.628906 194.730469 L 345.085938 194.730469 Z M 444.753906 194.730469 C 441.316406 194.730469 438.527344 191.933594 438.527344 188.5 C 438.527344 185.070312 441.316406 182.273438 444.753906 182.273438 C 448.195312 182.273438 450.984375 185.070312 450.984375 188.5 C 450.984375 191.933594 448.195312 194.730469 444.753906 194.730469 Z M 444.753906 194.730469 " clip-rule="nonzero"/></clipPath><clipPath id="59b68c0abb"><path d="M 187.5 49 L 301 49 L 301 326.417969 L 187.5 326.417969 Z M 187.5 49 " clip-rule="nonzero"/></clipPath><clipPath id="fc686ae636"><path d="M 187.5 48.917969 L 301.105469 48.917969 L 301.105469 326.417969 L 187.5 326.417969 Z M 187.5 48.917969 " clip-rule="nonzero"/></clipPath></defs><g clip-path="url(#12f8558df0)"><path stroke-linecap="butt" transform="matrix(0.188885, 0, 0, 0.189005, 47.253937, 15.396917)" fill-opacity="1" fill="#145da0" fill-rule="evenodd" stroke-linejoin="miter" d="M 745.492523 1.4961 L 752.006898 1.4961 L 780.008371 16.004624 C 798.662233 25.676973 811.008525 32.001201 817.005886 34.997976 C 823.003248 37.994751 843.414957 47.74977 878.241013 64.242365 C 913.08775 80.755628 931.079834 89.084596 932.258626 89.249935 C 933.416737 89.415274 942.660946 93.342083 959.991252 101.009693 C 977.342238 108.656636 990.660516 114.340174 1000.008128 117.998306 C 1009.335059 121.656438 1022.839462 126.657952 1040.500657 133.002848 C 1058.161852 139.327076 1069.329352 143.336554 1074.003158 144.989947 C 1078.676963 146.664008 1084.50888 148.668747 1091.498908 151.004165 C 1098.509617 153.339582 1107.505659 156.171018 1118.507714 159.498471 C 1129.50977 162.825925 1143.489826 166.835403 1160.509924 171.506238 C 1177.509341 176.156406 1193.991744 180.331223 1209.998495 184.010023 C 1226.005245 187.668155 1236.324843 190.003573 1240.998649 190.995608 C 1245.672454 192.008312 1260.500413 194.839747 1285.503205 199.489915 C 1310.505998 204.16075 1326.161179 206.992186 1332.51011 208.004889 C 1338.83836 208.996925 1354.328096 211.497682 1379 215.50716 C 1403.671903 219.495971 1416.162959 221.50071 1416.493848 221.50071 C 1416.824737 221.50071 1428.84014 223.836128 1452.498696 228.506963 C 1476.157253 233.157131 1488.089933 235.575218 1488.255378 235.740557 L 1488.503545 236.009234 L 1486.993864 310.49459 C 1486.001197 360.158383 1483.49885 424.3307 1479.507503 502.990873 C 1475.495475 581.671714 1472.33135 636.6677 1469.994447 667.999498 C 1467.657544 699.331296 1464.989752 726.157597 1461.991072 748.499071 C 1458.992391 770.840544 1455.497377 792.003975 1451.50603 812.010031 C 1447.494002 831.995419 1443.171765 852.166814 1438.49796 872.503548 C 1433.824154 892.840282 1429.667362 910.67626 1426.006904 925.990813 C 1422.325765 941.326033 1418.003529 957.839296 1412.998834 975.509934 C 1407.994139 993.159904 1404.995459 1003.824289 1404.002792 1007.503089 C 1403.010125 1011.161221 1401.500445 1015.832056 1399.494431 1021.494927 C 1397.509097 1027.157799 1395.172195 1034.164052 1392.504403 1042.493019 C 1389.836611 1050.842654 1385.659139 1062.829753 1379.992666 1078.495652 C 1374.326194 1094.161551 1369.673069 1106.665336 1365.99193 1116.007006 C 1362.331471 1125.32801 1357.82311 1136.50908 1352.508207 1149.508883 C 1347.172624 1162.508685 1340.32736 1178.174584 1331.993096 1196.50658 C 1323.658831 1214.838575 1318.674817 1225.50296 1316.999692 1228.499735 C 1315.324567 1231.49651 1309.244484 1242.408904 1298.759442 1261.257584 C 1288.253719 1280.085597 1281.925469 1291.246 1279.754011 1294.75946 C 1277.582552 1298.252253 1272.412413 1307.077239 1264.243594 1321.255084 C 1256.074774 1335.412262 1250.759871 1344.423254 1248.257524 1348.246725 C 1245.755176 1352.090864 1241.908593 1358.084414 1236.759135 1366.248042 C 1231.588995 1374.41167 1227.411523 1380.756565 1224.247398 1385.241394 C 1221.083273 1389.74689 1217.422815 1395.079083 1213.245342 1401.258639 C 1209.08855 1407.417528 1205.076523 1413.080399 1201.25062 1418.247252 C 1197.424717 1423.414106 1194.426036 1427.754262 1192.254578 1431.247055 C 1190.083119 1434.739848 1186.918994 1439.245344 1182.741522 1444.742876 C 1178.58473 1450.240408 1174.593383 1455.758607 1170.746799 1461.256139 C 1166.920896 1466.75367 1162.743424 1472.416542 1158.255743 1478.244752 C 1153.747382 1484.09363 1149.921479 1489.074476 1146.757354 1493.249294 C 1143.593229 1497.424111 1136.830687 1505.33973 1126.490409 1516.996151 C 1116.170812 1528.673239 1103.989964 1542.003721 1090.009908 1557.008262 C 1076.009172 1571.992137 1063.66288 1584.8266 1052.991713 1595.490985 C 1042.341226 1606.176038 1035.247795 1612.913614 1031.752781 1615.74505 C 1028.257767 1618.576485 1020.088948 1625.748078 1007.246322 1637.259827 C 994.424378 1648.750908 986.586447 1655.757161 983.753211 1658.257918 C 980.919974 1660.758675 973.909266 1666.917564 962.741766 1676.755253 C 951.574265 1686.592941 944.253348 1692.917169 940.758334 1695.748605 C 937.24264 1698.580041 933.251292 1701.907494 928.742931 1705.751633 C 924.255251 1709.575104 918.009723 1714.824627 910.006347 1721.500201 C 902.002972 1728.175776 895.922889 1733.073953 891.745416 1736.256734 C 887.588624 1739.418848 883.576597 1742.250284 879.750694 1744.751041 C 875.924791 1747.251798 868.914082 1751.591955 858.759929 1757.750844 C 848.585096 1763.909733 841.925957 1768.08455 838.741151 1770.254628 C 835.577026 1772.424707 831.99929 1774.656787 828.007942 1776.992205 C 823.995914 1779.327623 819.839123 1781.993719 815.496206 1784.990494 C 811.17397 1788.007936 808.009844 1790.157347 806.00383 1791.500729 C 803.997817 1792.823443 799.67558 1795.158861 792.995761 1798.506982 C 786.336622 1801.834435 778.333246 1805.657907 769.006316 1809.998063 C 759.658704 1814.33822 753.16501 1817.169656 749.504551 1818.49237 L 744.003523 1820.497109 L 738.006162 1819.009055 C 733.994134 1817.996352 729.671898 1816.342959 724.998092 1814.007542 C 720.324286 1811.672124 712.507036 1807.662646 701.50498 1801.999775 C 690.502924 1796.336904 684.174674 1792.823443 682.499549 1791.500729 C 680.824424 1790.157347 676.58491 1787.243242 669.760327 1782.758413 C 662.915062 1778.252917 657.744923 1774.925464 654.249909 1772.755385 C 650.754895 1770.585307 643.909631 1766.41049 633.755478 1760.251601 C 623.580645 1754.092712 616.590617 1749.752555 612.744033 1747.251798 C 608.91813 1744.751041 604.926783 1741.919605 600.749311 1738.757491 C 596.592519 1735.57471 591.835991 1731.833908 586.500408 1727.493751 C 581.164824 1723.174262 574.092074 1717.242714 565.240796 1709.740444 C 556.410198 1702.25884 548.758393 1695.748605 542.244017 1690.251073 C 535.750323 1684.753541 526.257947 1676.424574 513.746211 1665.243504 C 501.255155 1654.083101 493.25178 1647.076848 489.756766 1644.245412 C 486.241071 1641.413977 478.589266 1634.75907 466.759987 1624.260024 C 454.910029 1613.740311 448.333612 1607.829431 447.010056 1606.506716 C 445.66582 1605.163334 439.751181 1599.252454 429.245459 1588.753409 C 418.739736 1578.254363 411.418819 1570.752092 407.241347 1566.246596 C 403.084555 1561.7411 393.923069 1551.75874 379.756888 1536.25818 C 365.590707 1520.75762 357.090998 1511.25061 354.257762 1507.757818 C 351.424526 1504.244357 347.247053 1499.077504 341.746025 1492.257258 C 336.244998 1485.416344 331.922761 1479.918812 328.758636 1475.743995 C 325.573831 1471.589845 322.409705 1467.249688 319.24558 1462.744192 C 316.081455 1458.259364 312.751886 1453.588528 309.256872 1448.752354 C 305.741177 1443.916179 302.577052 1439.576022 299.743816 1435.752551 C 296.91058 1431.908412 294.490955 1428.498289 292.505621 1425.501514 C 290.499607 1422.504739 287.749093 1418.577931 284.254079 1413.741756 C 280.759065 1408.926249 277.739704 1404.586092 275.258037 1400.741954 C 272.75569 1396.918482 269.426121 1391.916968 265.248648 1385.758079 C 261.091856 1379.578523 257.907051 1374.742348 255.756273 1371.249556 C 253.584815 1367.756763 250.089801 1362.259231 245.25055 1354.75696 C 240.4113 1347.254689 237.247175 1342.087836 235.758175 1339.2564 C 234.248495 1336.424965 230.091703 1329.253373 223.246439 1317.741624 C 216.421855 1306.250542 211.913494 1298.748271 209.742036 1295.255478 C 207.591258 1291.742018 202.172952 1282.173006 193.507799 1266.507107 C 184.842646 1250.841208 178.328271 1238.998781 174.006035 1231.000492 C 169.663118 1223.002203 165.837215 1215.499932 162.507645 1208.493679 C 159.157395 1201.508094 154.50427 1191.009048 148.506909 1176.996542 C 142.509548 1163.004703 139.490186 1155.833111 139.490186 1155.502433 C 139.490186 1155.171754 136.491506 1147.504144 130.494144 1132.499602 C 124.496783 1117.49506 119.843658 1105.6733 116.493408 1096.992987 C 113.163838 1088.333341 108.490033 1075.168199 102.492671 1057.497561 C 96.49531 1039.826923 90.497949 1020.99891 84.500588 1000.992854 C 78.503226 981.007466 71.823407 956.661253 64.50249 927.995552 C 57.160892 899.32985 51.990753 878.00108 48.992073 864.009241 C 45.993392 849.996735 41.8366 829.660001 36.501017 802.999039 C 31.165433 776.338076 28.001308 758.832777 27.008641 750.50381 C 25.995294 742.174842 23.823836 716.671255 20.494266 673.993047 C 17.164697 631.335507 14.993238 599.177013 14.000572 577.496897 C 13.007905 555.837448 11.829113 532.834617 10.505558 508.509072 C 9.161321 484.16286 7.341433 444.336755 5.00453 389.010091 C 2.667627 333.66276 1.509516 294.498012 1.509516 271.495182 L 1.509516 237.00127 L 4.756363 235.244539 C 6.907141 234.087164 12.84246 232.661113 22.50028 231.00772 C 32.1581 229.333659 45.497059 227.163581 62.496476 224.497485 C 79.495893 221.831388 105.325908 217.491232 140.0072 211.497682 C 174.667812 205.504132 199.50516 201.163976 214.498563 198.497879 C 229.491967 195.831783 249.32462 191.656966 273.996524 185.994095 C 298.668427 180.331223 319.99008 174.999031 338.002845 169.997517 C 355.994929 164.996003 371.505346 160.325168 384.492735 156.005678 C 397.500805 151.665522 407.675638 148.338068 414.996555 146.002651 C 422.338153 143.667233 429.328181 141.331815 436.008 138.996398 C 442.667139 136.66098 456.006098 131.659466 476.004196 123.991856 C 496.002294 116.324246 514.759558 108.573966 532.255309 100.741016 C 549.751059 92.908067 559.07799 88.919256 560.256782 88.753917 C 561.414893 88.588578 569.831879 84.827109 585.507741 77.490177 C 601.162922 70.173913 615.329103 63.498338 628.006284 57.504789 C 640.662784 51.490572 653.174521 45.497022 665.500132 39.503472 C 677.825743 33.509922 693.170716 25.676973 711.493689 16.004624 L 738.998829 1.4961 Z M 745.492523 1.4961 " stroke="#000000" stroke-width="2" stroke-opacity="1" stroke-miterlimit="4"/></g><g clip-path="url(#8d8eb9db63)"><path stroke-linecap="butt" transform="matrix(-0.188885, 0, 0, 0.189005, 328.639085, 15.399907)" fill-opacity="1" fill="#145da0" fill-rule="evenodd" stroke-linejoin="miter" d="M 745.505213 1.500947 L 751.998908 1.500947 L 780.000381 16.009471 C 798.674923 25.661152 811.000534 32.006048 816.997896 35.002823 C 822.995257 37.999598 843.406966 47.754617 878.253703 64.247212 C 913.079759 80.739808 931.092524 89.089442 932.250635 89.254782 C 933.408746 89.420121 942.673635 93.326262 960.003941 100.993872 C 977.334247 108.661482 990.673206 114.324354 1000.000137 118.003153 C 1009.327068 121.661285 1022.831471 126.662799 1040.492666 133.007695 C 1058.174541 139.331923 1069.342042 143.341401 1073.995167 144.994794 C 1078.668973 146.668855 1084.500889 148.673594 1091.490917 151.009011 C 1098.501626 153.323762 1107.497668 156.175865 1118.499724 159.503318 C 1129.50178 162.830772 1143.502516 166.84025 1160.501933 171.490418 C 1177.50135 176.161253 1194.004434 180.33607 1209.990504 183.994202 C 1225.997255 187.673002 1236.337533 190.00842 1240.990658 191.000455 C 1245.664463 191.992491 1260.492422 194.823927 1285.495215 199.494762 C 1310.498007 204.165597 1326.173869 206.997033 1332.502119 208.009736 C 1338.830369 209.001772 1354.340786 211.502529 1378.992009 215.49134 C 1403.663912 219.500818 1416.175649 221.505557 1416.506538 221.505557 C 1416.837427 221.505557 1428.832149 223.840974 1452.490706 228.491142 C 1476.169942 233.161978 1488.081943 235.580065 1488.247387 235.745404 L 1488.495554 235.993413 L 1487.006554 310.499437 C 1485.993206 360.16323 1483.490859 424.335547 1479.499512 502.99572 C 1475.508165 581.676561 1472.323359 636.672547 1470.007137 668.004345 C 1467.670234 699.336142 1465.002442 726.162444 1462.003761 748.503918 C 1459.005081 770.824724 1455.510067 792.008822 1451.498039 811.99421 C 1447.506692 832.000266 1443.163775 852.171661 1438.489969 872.508395 C 1433.836844 892.824462 1429.659372 910.660439 1425.998913 925.995659 C 1422.338455 941.33088 1417.995538 957.823475 1412.990843 975.494113 C 1408.006829 993.164751 1405.008149 1003.829136 1403.994801 1007.507936 C 1403.002135 1011.166068 1401.492454 1015.836903 1399.507121 1021.499774 C 1397.501107 1027.162645 1395.164204 1034.168898 1392.496412 1042.497866 C 1389.82862 1050.826833 1385.671829 1062.8346 1380.005356 1078.500499 C 1374.338884 1094.166398 1369.665078 1106.670183 1366.00462 1115.991186 C 1362.323481 1125.332857 1357.8358 1136.49326 1352.500217 1149.493062 C 1347.164633 1162.492865 1340.34005 1178.158764 1332.005785 1196.490759 C 1323.671521 1214.843422 1318.666827 1225.507807 1316.991702 1228.504582 C 1315.337257 1231.501357 1309.257174 1242.413751 1298.751451 1261.241764 C 1288.245729 1280.090444 1281.917478 1291.250847 1279.74602 1294.74364 C 1277.574562 1298.2571 1272.425103 1307.082085 1264.256283 1321.259931 C 1256.087464 1335.417108 1250.75188 1344.407433 1248.249533 1348.251572 C 1245.747186 1352.075043 1241.921283 1358.08926 1236.751144 1366.252888 C 1231.581005 1374.416517 1227.424213 1380.740745 1224.260088 1385.246241 C 1221.075282 1389.751737 1217.414824 1395.083929 1213.258032 1401.242818 C 1209.08056 1407.422375 1205.089212 1413.085246 1201.242629 1418.252099 C 1197.416726 1423.418953 1194.418045 1427.759109 1192.246587 1431.251902 C 1190.075129 1434.744695 1186.911003 1439.250191 1182.754212 1444.747723 C 1178.576739 1450.245254 1174.585392 1455.742786 1170.759489 1461.240318 C 1166.912906 1466.758517 1162.756114 1472.421388 1158.247753 1478.249599 C 1153.760072 1484.077809 1149.913489 1489.079323 1146.749363 1493.254141 C 1143.585238 1497.408291 1136.843377 1505.32391 1126.503099 1517.000998 C 1116.162821 1528.657419 1104.002654 1542.008568 1090.001917 1556.992442 C 1076.001181 1571.996984 1063.675569 1584.831447 1053.004402 1595.495832 C 1042.333235 1606.160217 1035.239805 1612.918461 1031.744791 1615.749897 C 1028.249777 1618.581332 1020.080957 1625.752925 1007.259012 1637.244006 C 994.416387 1648.755755 986.578456 1655.741341 983.74522 1658.242098 C 980.911984 1660.742855 973.921956 1666.922411 962.754455 1676.7601 C 951.586955 1686.577121 944.245358 1692.922016 940.750344 1695.753452 C 937.25533 1698.584888 933.243302 1701.912341 928.755621 1705.75648 C 924.24726 1709.579951 918.001732 1714.829474 909.998357 1721.505048 C 901.994981 1728.159955 895.914898 1733.0788 891.758106 1736.240914 C 887.580634 1739.423695 883.589286 1742.255131 879.742703 1744.755888 C 875.9168 1747.256645 868.926772 1751.576134 858.751938 1757.755691 C 848.577105 1763.91458 841.917966 1768.089397 838.753841 1770.259475 C 835.589716 1772.408886 831.991299 1774.661634 827.999951 1776.997052 C 824.008604 1779.33247 819.831132 1781.998566 815.508896 1784.995341 C 811.165979 1787.992116 808.001854 1790.162194 805.99584 1791.505576 C 803.989826 1792.82829 799.66759 1795.163708 793.00845 1798.491161 C 786.328631 1801.839282 778.325256 1805.662754 768.998325 1810.00291 C 759.671394 1814.343067 753.157019 1817.174503 749.49656 1818.497217 L 743.995532 1820.501956 L 737.998171 1818.993235 C 734.006824 1818.001199 729.663907 1816.327139 724.990101 1813.991721 C 720.336976 1811.656303 712.499045 1807.667493 701.49699 1802.004622 C 690.494934 1796.34175 684.166683 1792.82829 682.491558 1791.505576 C 680.837114 1790.162194 676.576919 1787.248089 669.752336 1782.742593 C 662.907072 1778.257764 657.757613 1774.909643 654.241919 1772.760232 C 650.746905 1770.590154 643.922321 1766.415337 633.747488 1760.256448 C 623.593334 1754.076891 616.582626 1749.757402 612.756723 1747.256645 C 608.91014 1744.755888 604.918792 1741.924452 600.74132 1738.741671 C 596.584528 1735.579557 591.828 1731.838755 586.492417 1727.498598 C 581.156833 1723.158441 574.084083 1717.247561 565.253486 1709.74529 C 556.422888 1702.24302 548.750402 1695.753452 542.256707 1690.25592 C 535.742332 1684.758388 526.249957 1676.408754 513.758901 1665.248351 C 501.247164 1654.087948 493.243789 1647.081695 489.748775 1644.250259 C 486.253761 1641.418824 478.581275 1634.743249 466.751997 1624.244203 C 454.922719 1613.745158 448.325621 1607.834278 447.002066 1606.490896 C 445.657829 1605.168181 439.74319 1599.257301 429.258148 1588.758256 C 418.752426 1578.25921 411.410828 1570.756939 407.254037 1566.251443 C 403.076564 1561.745947 393.915078 1551.742919 379.748897 1536.242359 C 365.582716 1520.7418 357.083007 1511.255457 354.249771 1507.741997 C 351.416535 1504.249204 347.259743 1499.082351 341.758715 1492.241437 C 336.257687 1485.421191 331.914771 1479.923659 328.750645 1475.748842 C 325.58652 1471.574025 322.422395 1467.254535 319.25827 1462.749039 C 316.073465 1458.243543 312.743895 1453.593375 309.248881 1448.757201 C 305.753867 1443.921026 302.589742 1439.580869 299.756506 1435.757398 C 296.92327 1431.913259 294.503644 1428.503136 292.497631 1425.506361 C 290.491617 1422.509586 287.741103 1418.582778 284.246089 1413.746603 C 280.751075 1408.910429 277.752394 1404.590939 275.250047 1400.746801 C 272.747699 1396.923329 269.41813 1391.921815 265.240658 1385.742259 C 261.083866 1379.58337 257.919741 1374.747195 255.748282 1371.254402 C 253.576824 1367.740942 250.08181 1362.24341 245.24256 1354.74114 C 240.42399 1347.259536 237.259865 1342.092683 235.750184 1339.24058 C 234.240504 1336.409144 230.083712 1329.258219 223.259129 1317.74647 C 216.413864 1306.255389 211.926184 1298.753118 209.754725 1295.260325 C 207.583267 1291.746865 202.164961 1282.157186 193.499808 1266.491287 C 184.834655 1250.825388 178.340961 1239.003627 173.998044 1231.005339 C 169.675808 1223.00705 165.829224 1215.504779 162.499655 1208.498526 C 159.170085 1201.492273 154.496279 1190.993227 148.498918 1177.001389 C 142.501557 1163.00955 139.502876 1155.837958 139.502876 1155.507279 C 139.502876 1155.176601 136.504195 1147.508991 130.506834 1132.504449 C 124.509473 1117.499907 119.835667 1105.65748 116.506098 1096.997834 C 113.176528 1088.338188 108.502722 1075.173046 102.505361 1057.502408 C 96.508 1039.83177 90.489958 1021.003756 84.492597 1000.997701 C 78.495235 980.991645 71.836096 956.6661 64.494499 928.000398 C 57.173582 899.334697 52.003443 878.005927 49.004762 863.993421 C 46.006082 850.001582 41.828609 829.664848 36.493026 803.003885 C 31.157442 776.342923 27.993317 758.837624 27.000651 750.508657 C 26.007984 742.159022 23.836526 716.676102 20.506956 673.997894 C 17.156706 631.340354 15.005928 599.161192 13.992581 577.501744 C 12.999914 555.842295 11.841803 532.839464 10.497567 508.493252 C 9.174011 484.167707 7.333442 444.341602 4.996539 388.994271 C 2.659636 333.667606 1.501525 294.502859 1.501525 271.500029 L 1.501525 237.006116 L 4.748372 235.249386 C 6.919831 234.092011 12.83447 232.66596 22.492289 230.991899 C 32.17079 229.338506 45.509748 227.168428 62.509166 224.502332 C 79.508583 221.836235 105.338597 217.496079 139.999209 211.502529 C 174.659822 205.508979 199.49717 201.168822 214.490573 198.502726 C 229.504657 195.83663 249.33731 191.661813 274.009213 185.998941 C 298.660436 180.33607 320.00277 175.003878 337.994854 170.002364 C 356.007618 165.00085 371.497355 160.330015 384.505425 155.989858 C 397.492814 151.670369 407.667648 148.342915 415.009245 146.007498 C 422.330162 143.67208 429.340871 141.336662 436.00001 139.001245 C 442.659149 136.665827 455.998107 131.664313 475.996205 123.996703 C 495.994303 116.329093 514.751567 108.578813 532.247318 100.745863 C 549.743068 92.912914 559.09068 88.924103 560.248791 88.758764 C 561.406902 88.593425 569.823889 84.831955 585.49975 77.495024 C 601.175612 70.158092 615.341793 63.503185 627.998293 57.509636 C 640.675474 51.495418 653.16653 45.501869 665.492141 39.508319 C 677.838433 33.494102 693.162725 25.661152 711.506379 16.009471 L 738.990838 1.500947 Z M 745.505213 1.500947 " stroke="#000000" stroke-width="2" stroke-opacity="1" stroke-miterlimit="4"/></g><g clip-path="url(#602cb340ce)"><path fill="#ffffff" d="M 187.09375 31.121094 L 185.976562 31.121094 L 181.167969 33.617188 C 177.960938 35.28125 175.84375 36.371094 174.8125 36.886719 C 173.78125 37.402344 170.273438 39.082031 164.292969 41.921875 C 158.308594 44.761719 155.214844 46.195312 155.015625 46.226562 C 154.816406 46.253906 153.226562 46.929688 150.25 48.246094 C 147.273438 49.566406 144.984375 50.542969 143.378906 51.175781 C 141.777344 51.804688 139.457031 52.664062 136.421875 53.753906 C 133.390625 54.847656 131.472656 55.535156 130.667969 55.820312 C 129.867188 56.109375 128.867188 56.453125 127.664062 56.855469 C 126.460938 57.253906 124.914062 57.742188 123.027344 58.316406 C 121.136719 58.890625 118.730469 59.578125 115.8125 60.382812 C 112.890625 61.183594 110.058594 61.902344 107.308594 62.535156 C 104.5625 63.164062 102.789062 63.566406 101.984375 63.738281 C 101.183594 63.910156 98.636719 64.398438 94.34375 65.203125 C 90.046875 66.003906 87.359375 66.492188 86.269531 66.664062 C 85.183594 66.835938 82.519531 67.265625 78.28125 67.957031 C 74.046875 68.644531 71.898438 68.988281 71.84375 68.988281 C 71.785156 68.988281 69.722656 69.390625 65.660156 70.191406 C 61.59375 70.996094 59.546875 71.414062 59.519531 71.441406 L 59.476562 71.484375 L 59.734375 84.308594 C 59.90625 92.855469 60.332031 103.898438 61.019531 117.441406 C 61.707031 130.980469 62.25 140.445312 62.652344 145.839844 C 63.054688 151.234375 63.511719 155.851562 64.027344 159.695312 C 64.542969 163.539062 65.144531 167.183594 65.832031 170.625 C 66.515625 174.066406 67.261719 177.539062 68.0625 181.039062 C 68.863281 184.539062 69.582031 187.605469 70.210938 190.246094 C 70.839844 192.886719 71.585938 195.726562 72.441406 198.765625 C 73.300781 201.808594 73.816406 203.644531 73.988281 204.273438 C 74.160156 204.90625 74.417969 205.707031 74.761719 206.683594 C 75.105469 207.660156 75.507812 208.863281 75.964844 210.296875 C 76.421875 211.734375 77.136719 213.796875 78.109375 216.496094 C 79.085938 219.191406 79.886719 221.34375 80.515625 222.949219 C 81.144531 224.554688 81.917969 226.476562 82.835938 228.714844 C 83.75 230.953125 84.925781 233.648438 86.355469 236.804688 C 87.785156 239.960938 88.644531 241.796875 88.933594 242.3125 C 89.21875 242.828125 90.261719 244.707031 92.066406 247.949219 C 93.871094 251.191406 94.957031 253.113281 95.328125 253.714844 C 95.703125 254.316406 96.589844 255.839844 97.992188 258.277344 C 99.394531 260.714844 100.3125 262.265625 100.742188 262.921875 C 101.167969 263.582031 101.828125 264.617188 102.714844 266.023438 C 103.601562 267.425781 104.320312 268.515625 104.863281 269.292969 C 105.40625 270.066406 106.035156 270.984375 106.75 272.046875 C 107.46875 273.105469 108.15625 274.082031 108.8125 274.972656 C 109.472656 275.859375 109.988281 276.605469 110.359375 277.210938 C 110.730469 277.8125 111.273438 278.585938 111.992188 279.53125 C 112.707031 280.480469 113.394531 281.425781 114.050781 282.371094 C 114.710938 283.320312 115.425781 284.296875 116.199219 285.300781 C 116.972656 286.304688 117.628906 287.164062 118.175781 287.882812 C 118.71875 288.597656 119.878906 289.960938 121.652344 291.96875 C 123.425781 293.976562 125.515625 296.273438 127.921875 298.851562 C 130.324219 301.433594 132.445312 303.644531 134.277344 305.480469 C 136.109375 307.316406 137.324219 308.476562 137.925781 308.964844 C 138.527344 309.453125 139.929688 310.6875 142.132812 312.667969 C 144.339844 314.644531 145.683594 315.851562 146.171875 316.28125 C 146.65625 316.710938 147.859375 317.773438 149.777344 319.464844 C 151.695312 321.15625 152.957031 322.246094 153.554688 322.734375 C 154.15625 323.222656 154.84375 323.796875 155.617188 324.457031 C 156.390625 325.117188 157.464844 326.019531 158.839844 327.167969 C 160.210938 328.316406 161.257812 329.160156 161.972656 329.707031 C 162.6875 330.25 163.375 330.738281 164.035156 331.167969 C 164.691406 331.597656 165.894531 332.34375 167.640625 333.40625 C 169.386719 334.46875 170.53125 335.183594 171.074219 335.558594 C 171.621094 335.929688 172.234375 336.316406 172.921875 336.71875 C 173.609375 337.121094 174.324219 337.582031 175.070312 338.097656 C 175.8125 338.613281 176.359375 338.984375 176.699219 339.214844 C 177.042969 339.445312 177.789062 339.847656 178.933594 340.421875 C 180.078125 340.992188 181.453125 341.652344 183.054688 342.398438 C 184.660156 343.144531 185.777344 343.632812 186.40625 343.863281 L 187.351562 344.207031 L 188.378906 343.949219 C 189.066406 343.777344 189.8125 343.488281 190.613281 343.089844 C 191.414062 342.6875 192.761719 341.996094 194.648438 341.023438 C 196.539062 340.046875 197.628906 339.445312 197.914062 339.214844 C 198.199219 338.984375 198.929688 338.484375 200.101562 337.710938 C 201.277344 336.933594 202.164062 336.359375 202.765625 335.988281 C 203.367188 335.617188 204.539062 334.898438 206.285156 333.835938 C 208.03125 332.773438 209.234375 332.03125 209.894531 331.597656 C 210.550781 331.167969 211.238281 330.679688 211.953125 330.136719 C 212.671875 329.589844 213.484375 328.945312 214.402344 328.199219 C 215.316406 327.453125 216.535156 326.4375 218.050781 325.144531 C 219.570312 323.855469 220.886719 322.734375 222.003906 321.789062 C 223.117188 320.839844 224.75 319.40625 226.898438 317.484375 C 229.042969 315.5625 230.417969 314.359375 231.019531 313.871094 C 231.621094 313.382812 232.9375 312.234375 234.96875 310.429688 C 237.003906 308.621094 238.132812 307.601562 238.363281 307.375 C 238.589844 307.144531 239.609375 306.125 241.410156 304.316406 C 243.214844 302.511719 244.472656 301.21875 245.191406 300.445312 C 245.90625 299.671875 247.480469 297.949219 249.914062 295.28125 C 252.347656 292.613281 253.808594 290.980469 254.292969 290.375 C 254.78125 289.773438 255.496094 288.886719 256.441406 287.707031 C 257.386719 286.53125 258.128906 285.585938 258.671875 284.867188 C 259.21875 284.152344 259.761719 283.40625 260.304688 282.632812 C 260.847656 281.855469 261.421875 281.054688 262.023438 280.222656 C 262.625 279.390625 263.167969 278.644531 263.65625 277.984375 C 264.140625 277.324219 264.554688 276.734375 264.898438 276.21875 C 265.242188 275.703125 265.714844 275.027344 266.316406 274.199219 C 266.917969 273.367188 267.433594 272.621094 267.863281 271.960938 C 268.292969 271.300781 268.863281 270.4375 269.578125 269.378906 C 270.296875 268.316406 270.839844 267.484375 271.210938 266.882812 C 271.582031 266.28125 272.183594 265.332031 273.015625 264.042969 C 273.84375 262.75 274.390625 261.863281 274.648438 261.375 C 274.90625 260.886719 275.621094 259.652344 276.792969 257.675781 C 277.96875 255.695312 278.742188 254.402344 279.113281 253.800781 C 279.484375 253.199219 280.414062 251.550781 281.902344 248.851562 C 283.390625 246.15625 284.507812 244.121094 285.253906 242.742188 C 285.996094 241.367188 286.65625 240.074219 287.226562 238.871094 C 287.800781 237.664062 288.601562 235.859375 289.632812 233.449219 C 290.664062 231.039062 291.179688 229.804688 291.179688 229.746094 C 291.179688 229.691406 291.695312 228.371094 292.722656 225.789062 C 293.753906 223.207031 294.558594 221.171875 295.128906 219.679688 C 295.703125 218.1875 296.503906 215.921875 297.535156 212.878906 C 298.5625 209.839844 299.59375 206.597656 300.625 203.15625 C 301.65625 199.710938 302.800781 195.523438 304.0625 190.589844 C 305.320312 185.65625 306.207031 181.984375 306.722656 179.574219 C 307.238281 177.164062 307.953125 173.664062 308.871094 169.074219 C 309.785156 164.484375 310.328125 161.472656 310.5 160.039062 C 310.671875 158.605469 311.046875 154.214844 311.617188 146.871094 C 312.191406 139.527344 312.5625 133.992188 312.734375 130.261719 C 312.90625 126.535156 313.105469 122.574219 313.335938 118.386719 C 313.566406 114.199219 313.878906 107.34375 314.28125 97.816406 C 314.679688 88.292969 314.882812 81.554688 314.882812 77.59375 L 314.882812 71.65625 L 314.324219 71.355469 C 313.953125 71.152344 312.933594 70.910156 311.273438 70.625 C 309.613281 70.335938 307.324219 69.964844 304.402344 69.503906 C 301.484375 69.046875 297.046875 68.300781 291.09375 67.265625 C 285.136719 66.234375 280.875 65.488281 278.296875 65.03125 C 275.71875 64.570312 272.3125 63.851562 268.078125 62.878906 C 263.839844 61.902344 260.175781 60.984375 257.085938 60.125 C 253.992188 59.261719 251.332031 58.460938 249.097656 57.714844 C 246.863281 56.96875 245.117188 56.394531 243.859375 55.992188 C 242.597656 55.589844 241.398438 55.191406 240.253906 54.789062 C 239.105469 54.386719 236.816406 53.527344 233.382812 52.207031 C 229.945312 50.886719 226.726562 49.554688 223.71875 48.203125 C 220.714844 46.855469 219.109375 46.167969 218.910156 46.140625 C 218.710938 46.109375 217.265625 45.464844 214.574219 44.203125 C 211.882812 42.941406 209.449219 41.792969 207.273438 40.761719 C 205.097656 39.726562 202.953125 38.695312 200.832031 37.664062 C 198.714844 36.628906 196.082031 35.28125 192.933594 33.617188 L 188.207031 31.121094 Z M 187.09375 31.121094 " fill-opacity="1" fill-rule="evenodd"/></g><g clip-path="url(#6ba22d42bb)"><path stroke-linecap="butt" transform="matrix(-0.17176, 0, 0, 0.172119, 315.139232, 30.863758)" fill="none" stroke-linejoin="miter" d="M 745.492564 1.495103 L 751.996932 1.495103 L 779.993007 15.997219 C 798.664637 25.665297 810.991098 31.997207 816.99513 34.99295 C 822.999162 37.988692 843.421969 47.74755 878.240808 64.246828 C 913.082389 80.746106 931.094486 89.075178 932.254356 89.256738 C 933.414225 89.415603 942.670442 93.341841 960.000262 100.990062 C 977.330083 108.660979 990.657215 114.334733 1000.004402 118.011326 C 1009.328846 121.665224 1022.837918 126.658128 1040.508877 132.990038 C 1058.157093 139.344643 1069.323683 143.338966 1074.008648 144.995703 C 1078.67087 146.675134 1084.492962 148.672296 1091.497666 151.009882 C 1098.502371 153.324774 1107.508419 156.161652 1118.493069 159.497819 C 1129.500462 162.833987 1143.50987 166.82831 1160.498552 171.503484 C 1177.509977 176.155963 1193.998324 180.331846 1210.009076 184.008439 C 1225.997086 187.662337 1236.322203 189.999924 1241.007167 190.998504 C 1245.669389 191.997085 1260.49753 194.833963 1285.491588 199.509136 C 1310.508389 204.161615 1326.155261 206.998492 1332.500432 207.997073 C 1338.82286 208.995654 1354.333276 211.492106 1379.008939 215.509124 C 1403.66186 219.503447 1416.17026 221.500609 1416.488656 221.500609 C 1416.829794 221.500609 1428.837859 223.838196 1452.490107 228.490674 C 1476.165098 233.165848 1488.082193 235.594215 1488.24139 235.75308 L 1488.491558 236.002725 L 1486.99055 310.51047 C 1485.989878 360.16717 1483.510941 424.325986 1479.508253 503.009614 C 1475.505564 581.670547 1472.34435 636.660576 1470.001868 668.002396 C 1467.659386 699.344216 1464.998508 726.169727 1461.996492 748.501625 C 1458.994476 770.833523 1455.492123 792.007975 1451.489435 812.002286 C 1447.50949 831.996597 1443.165663 852.172468 1438.503441 872.507205 C 1433.841219 892.841941 1429.656591 910.65753 1425.995041 925.999362 C 1422.333491 941.341195 1417.989664 957.840473 1413.009046 975.497197 C 1408.005686 993.176616 1405.00367 1003.843275 1404.002998 1007.497172 C 1403.002326 1011.173765 1401.501318 1015.826244 1399.499974 1021.499999 C 1397.49863 1027.173753 1395.156147 1034.163819 1392.49527 1042.49289 C 1389.834392 1050.844657 1385.672506 1062.827627 1380.009611 1078.509884 C 1374.323975 1094.169447 1369.661753 1106.674402 1366.000203 1116.002054 C 1362.338653 1125.329707 1357.835629 1136.495656 1352.49113 1149.499901 C 1347.169374 1162.504146 1340.323868 1178.163709 1332.000096 1196.501284 C 1323.676324 1214.838858 1318.672964 1225.505517 1316.990015 1228.501259 C 1315.329809 1231.497002 1309.257549 1242.413305 1298.750493 1261.25017 C 1288.243436 1280.087036 1281.921008 1291.252984 1279.760466 1294.748017 C 1277.577182 1298.24305 1272.414624 1307.094107 1264.25005 1321.255798 C 1256.085476 1335.41749 1250.740977 1344.427412 1248.239297 1348.240175 C 1245.760359 1352.075633 1241.916869 1358.089813 1236.754311 1366.260019 C 1231.591753 1374.407531 1227.407124 1380.739441 1224.24591 1385.25575 C 1221.084696 1389.749363 1217.423146 1395.082692 1213.26126 1401.255737 C 1209.076632 1407.406087 1205.073944 1413.079842 1201.253196 1418.254306 C 1197.409705 1423.406075 1194.407689 1427.740824 1192.247147 1431.258551 C 1190.086606 1434.753584 1186.925392 1439.247198 1182.740763 1444.739392 C 1178.578877 1450.254282 1174.576189 1455.746476 1170.755441 1461.23867 C 1166.911951 1466.75356 1162.750065 1472.427314 1158.24704 1478.259934 C 1153.744016 1484.092554 1149.923268 1489.085458 1146.739312 1493.261341 C 1143.578098 1497.414529 1136.823562 1505.335091 1126.498445 1517.00033 C 1116.173329 1528.665569 1104.006067 1542.01024 1089.996658 1556.988952 C 1076.009992 1571.990359 1063.660789 1584.835739 1052.994535 1595.502398 C 1042.328281 1606.169056 1035.255349 1612.909477 1031.752997 1615.746354 C 1028.250644 1618.583231 1020.08607 1625.754857 1007.259274 1637.261231 C 994.409735 1648.74491 986.586299 1655.757671 983.743481 1658.254123 C 980.923405 1660.750575 973.918701 1666.92362 962.752111 1676.750563 C 951.58552 1686.577506 944.239678 1692.909416 940.760068 1695.746293 C 937.257716 1698.58317 933.255028 1701.919338 928.752003 1705.754796 C 924.248979 1709.590254 917.994779 1714.832803 909.989403 1721.505139 C 902.006769 1728.177474 895.911766 1733.079598 891.74988 1736.2569 C 887.587994 1739.411508 883.585306 1742.248385 879.741816 1744.744837 C 875.921068 1747.241289 868.916364 1751.576038 858.750445 1757.749083 C 848.584527 1763.922127 841.920961 1768.075316 838.759747 1770.254038 C 835.57579 1772.410064 832.005211 1774.656871 828.002522 1776.994458 C 823.999834 1779.332045 819.837948 1782.010057 815.494122 1785.005799 C 811.173038 1788.001542 807.989081 1790.157568 806.01048 1791.496575 C 804.009136 1792.835581 799.665309 1795.173167 793.001743 1798.509335 C 786.338177 1801.822808 778.332801 1805.658266 769.008357 1809.993014 C 759.66117 1814.327763 753.156802 1817.16464 749.495252 1818.503646 L 743.991556 1820.500808 L 738.010266 1819.002937 C 734.007578 1818.004356 729.663751 1816.324924 725.001529 1814.010033 C 720.339307 1811.672446 712.493129 1807.655427 701.508479 1802.004368 C 690.501086 1796.330613 684.155916 1792.835581 682.49571 1791.496575 C 680.835504 1790.157568 676.582648 1787.252606 669.759884 1782.758993 C 662.914377 1778.242684 657.751819 1774.906516 654.249467 1772.75049 C 650.747115 1770.594463 643.924351 1766.418579 633.758433 1760.245535 C 623.592514 1754.07249 616.58781 1749.760436 612.74432 1747.241289 C 608.923572 1744.744837 604.920884 1741.90796 600.758998 1738.753352 C 596.574369 1735.57605 591.843919 1731.831372 586.499421 1727.496623 C 581.177665 1723.161875 574.08199 1717.26117 565.257882 1709.749119 C 556.411032 1702.259763 548.746794 1695.746293 542.242425 1690.254099 C 535.7608 1684.739209 526.254415 1676.410137 513.746015 1665.244189 C 501.260357 1654.07824 493.25498 1647.088174 489.752628 1644.251297 C 486.250276 1641.41442 478.586038 1634.742084 466.759913 1624.256986 C 454.911047 1613.749192 448.338451 1607.825793 446.996641 1606.509482 C 445.677573 1605.170476 439.741768 1599.247076 429.257454 1588.739282 C 418.750398 1578.254184 411.427298 1570.742133 407.242669 1566.248519 C 403.080783 1561.754906 393.915537 1551.746403 379.74693 1536.245705 C 365.578324 1520.745008 357.072612 1511.25849 354.252536 1507.740763 C 351.409718 1504.24573 347.247832 1499.093961 341.744135 1492.240065 C 336.240439 1485.408865 331.919355 1479.91667 328.758141 1475.740787 C 325.574185 1471.587599 322.412971 1467.25285 319.251757 1462.759237 C 316.090543 1458.242928 312.747388 1453.590449 309.245036 1448.75641 C 305.742684 1443.922372 302.58147 1439.587623 299.738652 1435.752165 C 296.918576 1431.916707 294.507866 1428.489759 292.506522 1425.494017 C 290.505178 1422.498274 287.75333 1418.572036 284.250978 1413.760692 C 280.748625 1408.926654 277.746609 1404.591905 275.244929 1400.756447 C 272.743249 1396.920989 269.422837 1391.90539 265.260951 1385.75504 C 261.076323 1379.581995 257.915109 1374.747956 255.754567 1371.252923 C 253.594025 1367.757891 250.091673 1362.243001 245.24751 1354.753645 C 240.42609 1347.241594 237.242134 1342.089825 235.741126 1339.252948 C 234.240118 1336.416071 230.078232 1329.244445 223.255468 1317.760766 C 216.409961 1306.254391 211.906937 1298.74234 209.746395 1295.247308 C 207.585853 1291.752275 202.173127 1282.174977 193.508217 1266.49272 C 184.843307 1250.833157 178.338939 1239.009053 173.995112 1230.997711 C 169.674028 1223.009065 165.830538 1215.497014 162.510126 1208.506948 C 159.166972 1201.494188 154.50475 1191.009089 148.500717 1177.006263 C 142.496685 1163.003437 139.494669 1155.831811 139.494669 1155.491386 C 139.494669 1155.173656 136.492653 1147.502739 130.511363 1132.501332 C 124.507331 1117.499925 119.822366 1105.675821 116.501955 1097.006324 C 113.1588 1088.336827 108.496578 1075.173717 102.492546 1057.494297 C 96.511256 1039.837573 90.507224 1021.000708 84.503192 1001.006397 C 78.499159 980.989391 71.835593 956.660332 64.489751 927.996524 C 57.166651 899.332716 52.004093 877.999399 49.002076 863.996573 C 46.00006 849.993747 41.838174 829.65901 36.493676 802.992364 C 31.17192 776.325718 28.010706 758.827859 27.010034 750.498787 C 26.009362 742.169715 23.826077 716.660515 20.505666 673.993881 C 17.162511 631.327247 15.001969 599.168406 14.001297 577.494664 C 13.000625 555.843616 11.840755 532.830868 10.498945 508.501808 C 9.157135 484.172749 7.337731 444.342992 4.995249 388.989843 C 2.675509 333.659389 1.492897 294.510482 1.492897 271.497734 L 1.492897 237.001306 L 4.745081 235.25379 C 6.905623 234.073649 12.841427 232.666558 22.50701 231.009821 C 32.172592 229.33039 45.499724 227.174363 62.511149 224.496351 C 79.499831 221.841034 105.335364 217.506286 139.995005 211.492106 C 174.677389 205.500621 199.489507 201.165873 214.499587 198.510555 C 229.509668 195.832543 249.341169 191.65666 273.994089 186.0056 C 298.669752 180.331846 320.002261 174.998517 337.991615 170.005613 C 356.003712 164.990014 371.491386 160.337535 384.500123 156.002786 C 397.508859 151.668038 407.674778 148.33187 414.997878 145.994283 C 422.34372 143.656697 429.325682 141.341805 435.989248 139.004218 C 442.675557 136.666631 456.002689 131.673727 475.993387 124.002811 C 496.006828 116.331895 514.746687 108.592894 532.258447 100.740417 C 549.747466 92.910636 559.094652 88.916313 560.254522 88.757448 C 561.414392 88.575888 569.829134 84.83121 585.498749 77.500719 C 601.168363 70.170228 615.33697 63.497892 628.004568 57.506408 C 640.672167 51.492228 653.157825 45.500743 665.507027 39.509258 C 677.833488 33.495078 693.161964 25.665297 711.492457 15.997219 L 739.010938 1.495103 Z M 745.492564 1.495103 " stroke="#000000" stroke-width="2" stroke-opacity="1" stroke-miterlimit="4"/></g><g clip-path="url(#ce4a10afc2)"><path fill="#ffffff" d="M 186.296875 31.125 L 187.414062 31.125 L 192.222656 33.621094 C 195.429688 35.285156 197.546875 36.375 198.578125 36.890625 C 199.609375 37.40625 203.113281 39.085938 209.097656 41.925781 C 215.082031 44.765625 218.171875 46.199219 218.375 46.226562 C 218.574219 46.257812 220.164062 46.929688 223.140625 48.25 C 226.117188 49.570312 228.40625 50.546875 230.011719 51.175781 C 231.613281 51.808594 233.933594 52.667969 236.964844 53.757812 C 240 54.847656 241.917969 55.539062 242.71875 55.824219 C 243.523438 56.109375 244.523438 56.457031 245.726562 56.855469 C 246.929688 57.257812 248.472656 57.746094 250.363281 58.320312 C 252.253906 58.894531 254.65625 59.582031 257.578125 60.386719 C 260.496094 61.1875 263.332031 61.90625 266.078125 62.535156 C 268.828125 63.167969 270.601562 63.570312 271.402344 63.742188 C 272.207031 63.914062 274.753906 64.402344 279.046875 65.203125 C 283.339844 66.007812 286.03125 66.496094 287.121094 66.667969 C 288.207031 66.839844 290.871094 67.269531 295.105469 67.957031 C 299.34375 68.648438 301.492188 68.992188 301.546875 68.992188 C 301.605469 68.992188 303.667969 69.394531 307.730469 70.195312 C 311.796875 71 313.84375 71.414062 313.871094 71.445312 L 313.914062 71.488281 L 313.65625 84.308594 C 313.484375 92.859375 313.054688 103.902344 312.367188 117.441406 C 311.679688 130.984375 311.136719 140.449219 310.738281 145.84375 C 310.335938 151.234375 309.878906 155.855469 309.363281 159.699219 C 308.847656 163.542969 308.246094 167.183594 307.558594 170.628906 C 306.871094 174.070312 306.128906 177.542969 305.328125 181.039062 C 304.523438 184.539062 303.808594 187.609375 303.179688 190.25 C 302.550781 192.886719 301.804688 195.726562 300.945312 198.769531 C 300.085938 201.808594 299.574219 203.644531 299.402344 204.277344 C 299.230469 204.90625 298.972656 205.710938 298.628906 206.6875 C 298.285156 207.660156 297.882812 208.867188 297.425781 210.300781 C 296.96875 211.734375 296.25 213.800781 295.277344 216.496094 C 294.304688 219.195312 293.503906 221.34375 292.875 222.953125 C 292.242188 224.558594 291.472656 226.480469 290.554688 228.71875 C 289.640625 230.957031 288.464844 233.652344 287.035156 236.808594 C 285.601562 239.964844 284.742188 241.800781 284.457031 242.316406 C 284.171875 242.832031 283.125 244.710938 281.324219 247.953125 C 279.519531 251.195312 278.433594 253.117188 278.058594 253.71875 C 277.6875 254.320312 276.800781 255.839844 275.398438 258.28125 C 273.996094 260.71875 273.078125 262.265625 272.648438 262.925781 C 272.21875 263.585938 271.5625 264.617188 270.675781 266.023438 C 269.785156 267.429688 269.070312 268.519531 268.527344 269.296875 C 267.984375 270.070312 267.351562 270.988281 266.636719 272.050781 C 265.921875 273.109375 265.234375 274.085938 264.578125 274.976562 C 263.917969 275.863281 263.402344 276.609375 263.03125 277.210938 C 262.660156 277.816406 262.113281 278.589844 261.398438 279.535156 C 260.683594 280.484375 259.996094 281.429688 259.335938 282.375 C 258.679688 283.324219 257.964844 284.296875 257.191406 285.300781 C 256.417969 286.304688 255.757812 287.167969 255.214844 287.882812 C 254.671875 288.601562 253.511719 289.964844 251.738281 291.972656 C 249.960938 293.980469 247.871094 296.273438 245.46875 298.855469 C 243.0625 301.4375 240.945312 303.648438 239.113281 305.484375 C 237.28125 307.320312 236.0625 308.480469 235.464844 308.96875 C 234.863281 309.457031 233.460938 310.691406 231.253906 312.667969 C 229.050781 314.648438 227.707031 315.851562 227.21875 316.285156 C 226.730469 316.714844 225.53125 317.773438 223.613281 319.46875 C 221.695312 321.160156 220.433594 322.25 219.832031 322.738281 C 219.230469 323.226562 218.546875 323.800781 217.773438 324.460938 C 217 325.117188 215.925781 326.023438 214.550781 327.171875 C 213.175781 328.316406 212.132812 329.164062 211.417969 329.707031 C 210.703125 330.253906 210.015625 330.742188 209.355469 331.171875 C 208.699219 331.601562 207.496094 332.347656 205.75 333.410156 C 204.003906 334.472656 202.859375 335.1875 202.3125 335.5625 C 201.769531 335.933594 201.15625 336.320312 200.46875 336.722656 C 199.78125 337.125 199.066406 337.582031 198.320312 338.101562 C 197.574219 338.617188 197.03125 338.988281 196.6875 339.21875 C 196.34375 339.449219 195.601562 339.847656 194.457031 340.421875 C 193.3125 340.996094 191.9375 341.65625 190.332031 342.402344 C 188.730469 343.148438 187.613281 343.636719 186.984375 343.867188 L 186.039062 344.210938 L 185.007812 343.953125 C 184.320312 343.78125 183.578125 343.492188 182.777344 343.089844 C 181.972656 342.691406 180.628906 342 178.738281 341.027344 C 176.851562 340.050781 175.761719 339.449219 175.476562 339.21875 C 175.191406 338.988281 174.460938 338.488281 173.285156 337.710938 C 172.113281 336.9375 171.226562 336.363281 170.625 335.992188 C 170.023438 335.617188 168.847656 334.902344 167.101562 333.839844 C 165.355469 332.777344 164.15625 332.03125 163.496094 331.601562 C 162.835938 331.171875 162.152344 330.683594 161.433594 330.140625 C 160.71875 329.59375 159.902344 328.949219 158.988281 328.203125 C 158.070312 327.457031 156.855469 326.4375 155.335938 325.148438 C 153.820312 323.855469 152.503906 322.738281 151.386719 321.792969 C 150.269531 320.84375 148.640625 319.410156 146.492188 317.488281 C 144.34375 315.566406 142.972656 314.363281 142.371094 313.875 C 141.769531 313.386719 140.453125 312.238281 138.417969 310.429688 C 136.386719 308.625 135.257812 307.605469 135.027344 307.375 C 134.796875 307.148438 133.78125 306.128906 131.976562 304.320312 C 130.175781 302.515625 128.914062 301.222656 128.199219 300.449219 C 127.484375 299.675781 125.910156 297.953125 123.476562 295.285156 C 121.042969 292.617188 119.582031 290.980469 119.097656 290.378906 C 118.609375 289.777344 117.894531 288.886719 116.949219 287.710938 C 116.003906 286.535156 115.261719 285.589844 114.714844 284.871094 C 114.171875 284.15625 113.628906 283.410156 113.085938 282.632812 C 112.539062 281.859375 111.96875 281.054688 111.367188 280.222656 C 110.765625 279.394531 110.222656 278.648438 109.734375 277.988281 C 109.25 277.328125 108.832031 276.738281 108.488281 276.222656 C 108.148438 275.707031 107.675781 275.03125 107.074219 274.199219 C 106.472656 273.367188 105.957031 272.621094 105.527344 271.960938 C 105.097656 271.304688 104.523438 270.441406 103.808594 269.382812 C 103.09375 268.320312 102.550781 267.488281 102.179688 266.886719 C 101.804688 266.28125 101.203125 265.335938 100.375 264.046875 C 99.542969 262.753906 99 261.863281 98.742188 261.378906 C 98.484375 260.890625 97.769531 259.65625 96.59375 257.675781 C 95.421875 255.699219 94.648438 254.40625 94.277344 253.804688 C 93.90625 253.203125 92.972656 251.550781 91.484375 248.855469 C 89.996094 246.160156 88.878906 244.121094 88.136719 242.746094 C 87.390625 241.367188 86.734375 240.078125 86.160156 238.871094 C 85.589844 237.667969 84.789062 235.859375 83.757812 233.449219 C 82.726562 231.042969 82.210938 229.808594 82.210938 229.75 C 82.210938 229.691406 81.695312 228.375 80.664062 225.792969 C 79.632812 223.210938 78.832031 221.171875 78.261719 219.679688 C 77.6875 218.191406 76.886719 215.921875 75.855469 212.882812 C 74.824219 209.84375 73.792969 206.601562 72.765625 203.15625 C 71.734375 199.714844 70.589844 195.527344 69.328125 190.59375 C 68.070312 185.660156 67.183594 181.988281 66.667969 179.578125 C 66.152344 177.167969 65.4375 173.667969 64.519531 169.078125 C 63.601562 164.488281 63.058594 161.476562 62.886719 160.042969 C 62.714844 158.609375 62.34375 154.21875 61.769531 146.875 C 61.199219 139.53125 60.828125 133.996094 60.65625 130.265625 C 60.484375 126.535156 60.28125 122.578125 60.054688 118.390625 C 59.824219 114.199219 59.511719 107.34375 59.109375 97.820312 C 58.707031 88.296875 58.507812 81.554688 58.507812 77.597656 L 58.507812 71.660156 L 59.066406 71.359375 C 59.4375 71.15625 60.453125 70.914062 62.113281 70.625 C 63.773438 70.339844 66.066406 69.964844 68.984375 69.507812 C 71.90625 69.046875 76.34375 68.300781 82.296875 67.269531 C 88.25 66.238281 92.515625 65.492188 95.09375 65.03125 C 97.667969 64.574219 101.074219 63.855469 105.3125 62.882812 C 109.550781 61.90625 113.214844 60.988281 116.304688 60.128906 C 119.398438 59.265625 122.058594 58.464844 124.292969 57.71875 C 126.523438 56.972656 128.269531 56.398438 129.53125 55.996094 C 130.789062 55.59375 131.992188 55.191406 133.136719 54.792969 C 134.28125 54.390625 136.574219 53.527344 140.007812 52.210938 C 143.441406 50.890625 146.664062 49.554688 149.667969 48.207031 C 152.675781 46.859375 154.277344 46.171875 154.480469 46.140625 C 154.679688 46.113281 156.125 45.46875 158.816406 44.207031 C 161.507812 42.945312 163.941406 41.796875 166.117188 40.761719 C 168.289062 39.730469 170.4375 38.699219 172.554688 37.664062 C 174.675781 36.632812 177.308594 35.285156 180.457031 33.621094 L 185.179688 31.125 Z M 186.296875 31.125 " fill-opacity="1" fill-rule="evenodd"/></g><g clip-path="url(#c5c2e16131)"><path stroke-linecap="butt" transform="matrix(0.17176, 0, 0, 0.172119, 58.250336, 30.86675)" fill="none" stroke-linejoin="miter" d="M 745.498719 1.500416 L 752.003088 1.500416 L 779.999162 16.002532 C 798.670793 25.67061 810.997253 32.00252 817.001286 34.998262 C 823.005318 37.994005 843.405382 47.752863 878.246963 64.252141 C 913.088545 80.751419 931.077899 89.080491 932.260511 89.239356 C 933.420381 89.420916 942.676598 93.324459 960.006418 100.995375 C 977.336239 108.666291 990.663371 114.340046 1000.010558 117.993944 C 1009.335002 121.670537 1022.844074 126.663441 1040.49229 132.995351 C 1058.163249 139.327261 1069.329839 143.344279 1073.992061 145.001015 C 1078.677026 146.657752 1084.499118 148.677608 1091.503822 150.9925 C 1098.508526 153.330087 1107.491832 156.166964 1118.499225 159.503132 C 1129.506617 162.8393 1143.493284 166.833623 1160.504708 171.508796 C 1177.493391 176.161275 1194.004479 180.337159 1209.99249 183.991056 C 1226.003242 187.667649 1236.328358 190.005236 1240.99058 191.003817 C 1245.675545 192.002398 1260.503685 194.839275 1285.497744 199.491754 C 1310.491803 204.166928 1326.161417 207.003805 1332.506588 208.002386 C 1338.829016 209.000966 1354.339432 211.497418 1378.992353 215.491742 C 1403.668016 219.50876 1416.176416 221.505921 1416.494812 221.505921 C 1416.83595 221.505921 1428.844015 223.843508 1452.496263 228.495987 C 1476.171254 233.171161 1488.088348 235.576833 1488.247546 235.758393 L 1488.497714 236.008038 L 1486.996706 310.493088 C 1485.996034 360.172482 1483.494354 424.331299 1479.491666 502.992232 C 1475.488978 581.67586 1472.327764 636.665889 1470.008024 668.007709 C 1467.665542 699.326834 1465.004664 726.17504 1462.002648 748.506938 C 1459.000631 770.838836 1455.498279 791.990593 1451.495591 812.007599 C 1447.492903 832.00191 1443.171819 852.177781 1438.509597 872.489822 C 1433.824632 892.824558 1429.662746 910.662843 1426.001196 926.004675 C 1422.339646 941.323812 1417.99582 957.82309 1412.99246 975.50251 C 1407.9891 993.159234 1405.009826 1003.825892 1404.009154 1007.502485 C 1403.008482 1011.156383 1401.507474 1015.831557 1399.50613 1021.505311 C 1397.504786 1027.156371 1395.162303 1034.169131 1392.501425 1042.498203 C 1389.840547 1050.827275 1385.655919 1062.832939 1379.993025 1078.492502 C 1374.330131 1094.174759 1369.667909 1106.657019 1366.006359 1116.007367 C 1362.322066 1125.335019 1357.841784 1136.500968 1352.497286 1149.505214 C 1347.17553 1162.509459 1340.330024 1178.169022 1332.006252 1196.506596 C 1323.659737 1214.844171 1318.656377 1225.51083 1316.996171 1228.506572 C 1315.335965 1231.502314 1309.240963 1242.418618 1298.756649 1261.255483 C 1288.249592 1280.092348 1281.927164 1291.258297 1279.74388 1294.75333 C 1277.583338 1298.248363 1272.42078 1307.076725 1264.256206 1321.261111 C 1256.091631 1335.422802 1250.747133 1344.41003 1248.245453 1348.245488 C 1245.743773 1352.080946 1241.923025 1358.072431 1236.760467 1366.242637 C 1231.575166 1374.412844 1227.41328 1380.744754 1224.252066 1385.261062 C 1221.090852 1389.754676 1217.40656 1395.088005 1213.244674 1401.26105 C 1209.082788 1407.4114 1205.080099 1413.085155 1201.259352 1418.259619 C 1197.415861 1423.411388 1194.413845 1427.746136 1192.253303 1431.241169 C 1190.092761 1434.758897 1186.908805 1439.25251 1182.746919 1444.744705 C 1178.585033 1450.259594 1174.582345 1455.751789 1170.738854 1461.243983 C 1166.918106 1466.758872 1162.75622 1472.409932 1158.253196 1478.242552 C 1153.750172 1484.075171 1149.906682 1489.09077 1146.745468 1493.243959 C 1143.584254 1497.419842 1136.829717 1505.340403 1126.504601 1517.005643 C 1116.156743 1528.670882 1103.98948 1541.992858 1090.002814 1556.994265 C 1075.993405 1571.995672 1063.666945 1584.841052 1053.000691 1595.50771 C 1042.334437 1606.174369 1035.238762 1612.914789 1031.759152 1615.751667 C 1028.2568 1618.588544 1020.092226 1625.76017 1007.242687 1637.243849 C 994.415891 1648.750223 986.592455 1655.740289 983.749637 1658.259436 C 980.906818 1660.755888 973.924857 1666.906238 962.758266 1676.755875 C 951.591676 1686.582818 944.245833 1692.914728 940.743481 1695.751606 C 937.241129 1698.588483 933.261183 1701.924651 928.758159 1705.760109 C 924.255135 1709.572872 918.000935 1714.838116 909.995558 1721.510451 C 901.990182 1728.160092 895.917922 1733.08491 891.756036 1736.239518 C 887.59415 1739.416821 883.591462 1742.253698 879.747972 1744.75015 C 875.927224 1747.246602 868.922519 1751.58135 858.756601 1757.754395 C 848.590683 1763.92744 841.927117 1768.080628 838.74316 1770.25935 C 835.581946 1772.415377 832.011366 1774.662184 828.008678 1776.999771 C 824.00599 1779.337357 819.844104 1781.992675 815.500278 1785.011112 C 811.156451 1788.006854 807.995237 1790.162881 805.993893 1791.501887 C 803.992549 1792.840893 799.671465 1795.155785 793.007899 1798.491953 C 786.344333 1801.82812 778.338957 1805.663579 768.99177 1809.998327 C 759.667326 1814.333075 753.162958 1817.169953 749.501408 1818.508959 L 743.997711 1820.50612 L 737.993679 1819.008249 C 733.990991 1818.009668 729.669907 1816.330237 725.007685 1813.99265 C 720.32272 1811.677758 712.499284 1807.66074 701.491892 1802.009681 C 690.507242 1796.335926 684.162071 1792.840893 682.501866 1791.501887 C 680.84166 1790.162881 676.588803 1787.257919 669.743297 1782.74161 C 662.920533 1778.247997 657.757975 1774.911829 654.255623 1772.755802 C 650.753271 1770.57708 643.907764 1766.423892 633.741846 1760.250847 C 623.575928 1754.077802 616.593966 1749.743054 612.750475 1747.246602 C 608.906985 1744.75015 604.927039 1741.913273 600.742411 1738.758665 C 596.580525 1735.581362 591.827333 1731.836684 586.505577 1727.501936 C 581.161078 1723.167188 574.088146 1717.243788 565.241296 1709.754432 C 556.417188 1702.242381 548.752949 1695.751606 542.248581 1690.259411 C 535.744213 1684.744522 526.260571 1676.41545 513.75217 1665.249501 C 501.24377 1654.083552 493.261136 1647.093487 489.758784 1644.256609 C 486.256432 1641.419732 478.592193 1634.747397 466.743327 1624.239603 C 454.917203 1613.754505 448.344607 1607.831105 447.002796 1606.492099 C 445.660986 1605.175788 439.747924 1599.252388 429.240868 1588.744595 C 418.756554 1578.259497 411.410711 1570.747446 407.248825 1566.253832 C 403.086939 1561.760218 393.921693 1551.751715 379.753086 1536.251018 C 365.58448 1520.750321 357.078767 1511.241108 354.258692 1507.746075 C 351.415873 1504.251042 347.253987 1499.076578 341.750291 1492.245378 C 336.246595 1485.414177 331.925511 1479.921983 328.741554 1475.7461 C 325.58034 1471.592911 322.419127 1467.258163 319.257913 1462.741854 C 316.073956 1458.248241 312.753544 1453.573067 309.251192 1448.739028 C 305.74884 1443.927684 302.587626 1439.592936 299.744808 1435.757478 C 296.924732 1431.92202 294.491279 1428.495072 292.489935 1425.499329 C 290.511334 1422.503587 287.759486 1418.577349 284.257133 1413.74331 C 280.754781 1408.909271 277.752765 1404.574523 275.251085 1400.739065 C 272.749405 1396.926302 269.406251 1391.910703 265.244365 1385.760353 C 261.082479 1379.587308 257.921265 1374.753269 255.760723 1371.258236 C 253.577438 1367.740508 250.075086 1362.248314 245.253666 1354.758958 C 240.409504 1347.246907 237.24829 1342.072443 235.747282 1339.25826 C 234.246274 1336.421383 230.084388 1329.249757 223.238881 1317.743383 C 216.416117 1306.259704 211.913093 1298.747653 209.752551 1295.25262 C 207.592009 1291.757587 202.156541 1282.157595 193.49163 1266.498032 C 184.82672 1250.83847 178.322352 1238.99167 174.001268 1231.003024 C 169.657442 1222.991682 165.836694 1215.502327 162.493539 1208.489566 C 159.173128 1201.4995 154.510906 1190.991707 148.506873 1176.988881 C 142.502841 1163.00875 139.500825 1155.837124 139.500825 1155.496699 C 139.500825 1155.156273 136.498809 1147.508052 130.494776 1132.506645 C 124.490744 1117.505238 119.828522 1105.658439 116.50811 1096.988942 C 113.164956 1088.34214 108.502734 1075.156334 102.498702 1057.49961 C 96.494669 1039.842886 90.490637 1021.006021 84.509347 1000.989015 C 78.505315 980.994704 71.841749 956.665644 64.495906 928.001837 C 57.172806 899.338029 52.010248 878.004712 49.008232 864.001885 C 46.006216 849.999059 41.84433 829.664323 36.499832 802.997677 C 31.155333 776.33103 27.994119 758.833171 26.993447 750.5041 C 25.992775 742.175028 23.832233 716.665828 20.489079 673.999193 C 17.168667 631.332559 15.008125 599.173719 14.007453 577.499976 C 13.006781 555.826234 11.824169 532.83618 10.505101 508.507121 C 9.163291 484.155367 7.343887 444.32561 5.001405 388.995155 C 2.658922 333.664701 1.499053 294.4931 1.499053 271.503046 L 1.499053 237.006619 L 4.751237 235.259102 C 6.911779 234.078962 12.824841 232.67187 22.490423 230.992439 C 32.156005 229.335703 45.50588 227.156981 62.494562 224.501664 C 79.505987 221.823652 105.34152 217.488903 140.001161 211.497418 C 174.660802 205.505934 199.495663 201.171185 214.505743 198.493173 C 229.493081 195.837856 249.324582 191.661973 274.000245 186.010913 C 298.675908 180.337159 320.008417 175.003829 337.997771 170.010925 C 356.009868 164.995326 371.497542 160.342848 384.506279 156.008099 C 397.492273 151.673351 407.658191 148.337183 415.004033 145.999596 C 422.327133 143.662009 429.331838 141.324422 435.995404 139.009531 C 442.65897 136.671944 456.008845 131.656345 475.999543 124.008124 C 495.990242 116.337207 514.752842 108.575511 532.241861 100.74573 C 549.753622 92.915949 559.078066 88.921625 560.260678 88.740065 C 561.420548 88.5812 569.83529 84.836522 585.504905 77.506031 C 601.174519 70.17554 615.343126 63.503205 628.010724 57.489025 C 640.65558 51.497541 653.163981 45.506056 665.490441 39.491876 C 677.839644 33.500391 693.16812 25.67061 711.498612 16.002532 L 738.994351 1.500416 Z M 745.498719 1.500416 " stroke="#000000" stroke-width="2" stroke-opacity="1" stroke-miterlimit="4"/></g><g clip-path="url(#3aecc50974)"><g clip-path="url(#c05fa85577)"><path fill="#145da0" d="M 89.6875 0 L 89.6875 363.425781 L 188.066406 363.425781 L 188.066406 0 Z M 89.6875 0 " fill-opacity="1" fill-rule="nonzero"/></g></g><g clip-path="url(#59b68c0abb)"><path fill="#145da0" d="M 187.933594 49.109375 L 188.921875 49.109375 L 193.179688 51.316406 C 196.019531 52.789062 197.894531 53.753906 198.808594 54.210938 C 199.722656 54.667969 202.828125 56.152344 208.125 58.667969 C 213.425781 61.179688 216.164062 62.449219 216.339844 62.476562 C 216.519531 62.5 217.925781 63.097656 220.5625 64.265625 C 223.199219 65.433594 225.226562 66.296875 226.644531 66.855469 C 228.066406 67.414062 230.121094 68.175781 232.808594 69.140625 C 235.496094 70.105469 237.191406 70.714844 237.902344 70.96875 C 238.613281 71.222656 239.5 71.527344 240.566406 71.882812 C 241.628906 72.238281 243 72.671875 244.671875 73.179688 C 246.34375 73.6875 248.476562 74.296875 251.0625 75.007812 C 253.648438 75.71875 256.15625 76.351562 258.589844 76.910156 C 261.023438 77.46875 262.597656 77.824219 263.304688 77.976562 C 264.015625 78.128906 266.273438 78.5625 270.074219 79.273438 C 273.878906 79.984375 276.261719 80.414062 277.226562 80.566406 C 278.1875 80.71875 280.546875 81.101562 284.296875 81.710938 C 288.050781 82.320312 289.953125 82.625 290.003906 82.625 C 290.054688 82.625 291.878906 82.980469 295.480469 83.691406 C 299.078125 84.402344 300.890625 84.769531 300.917969 84.796875 L 300.953125 84.832031 L 300.726562 96.183594 C 300.574219 103.75 300.195312 113.527344 299.585938 125.511719 C 298.976562 137.496094 298.496094 145.875 298.140625 150.648438 C 297.785156 155.421875 297.378906 159.511719 296.921875 162.914062 C 296.46875 166.316406 295.933594 169.539062 295.328125 172.585938 C 294.71875 175.632812 294.058594 178.707031 293.347656 181.804688 C 292.640625 184.902344 292.003906 187.617188 291.449219 189.953125 C 290.890625 192.289062 290.230469 194.804688 289.46875 197.496094 C 288.710938 200.1875 288.253906 201.8125 288.101562 202.371094 C 287.949219 202.929688 287.71875 203.640625 287.417969 204.503906 C 287.113281 205.367188 286.757812 206.433594 286.351562 207.703125 C 285.945312 208.972656 285.3125 210.800781 284.449219 213.1875 C 283.589844 215.574219 282.878906 217.480469 282.320312 218.902344 C 281.761719 220.324219 281.078125 222.023438 280.265625 224.003906 C 279.457031 225.984375 278.417969 228.371094 277.148438 231.164062 C 275.882812 233.957031 275.121094 235.582031 274.867188 236.039062 C 274.613281 236.496094 273.6875 238.160156 272.089844 241.03125 C 270.492188 243.898438 269.53125 245.601562 269.199219 246.132812 C 268.871094 246.667969 268.085938 248.011719 266.84375 250.171875 C 265.601562 252.328125 264.789062 253.699219 264.410156 254.285156 C 264.027344 254.867188 263.445312 255.78125 262.660156 257.027344 C 261.875 258.269531 261.238281 259.234375 260.757812 259.921875 C 260.277344 260.605469 259.71875 261.417969 259.085938 262.359375 C 258.449219 263.296875 257.84375 264.160156 257.257812 264.949219 C 256.675781 265.734375 256.21875 266.394531 255.890625 266.929688 C 255.5625 267.460938 255.078125 268.148438 254.445312 268.984375 C 253.8125 269.824219 253.203125 270.660156 252.621094 271.5 C 252.035156 272.335938 251.402344 273.199219 250.71875 274.089844 C 250.035156 274.976562 249.449219 275.738281 248.96875 276.375 C 248.488281 277.007812 247.460938 278.214844 245.890625 279.992188 C 244.316406 281.769531 242.464844 283.800781 240.335938 286.085938 C 238.207031 288.371094 236.332031 290.328125 234.707031 291.953125 C 233.085938 293.578125 232.007812 294.605469 231.476562 295.039062 C 230.945312 295.46875 229.703125 296.5625 227.75 298.3125 C 225.796875 300.066406 224.605469 301.132812 224.175781 301.511719 C 223.742188 301.894531 222.679688 302.832031 220.980469 304.332031 C 219.28125 305.828125 218.164062 306.792969 217.632812 307.226562 C 217.101562 307.65625 216.492188 308.164062 215.808594 308.75 C 215.125 309.332031 214.171875 310.132812 212.957031 311.148438 C 211.738281 312.164062 210.8125 312.914062 210.179688 313.394531 C 209.546875 313.878906 208.9375 314.308594 208.355469 314.691406 C 207.769531 315.070312 206.707031 315.730469 205.160156 316.671875 C 203.613281 317.609375 202.597656 318.246094 202.117188 318.574219 C 201.636719 318.90625 201.089844 319.25 200.484375 319.605469 C 199.875 319.960938 199.238281 320.367188 198.582031 320.824219 C 197.921875 321.28125 197.441406 321.609375 197.136719 321.8125 C 196.832031 322.015625 196.171875 322.371094 195.160156 322.878906 C 194.144531 323.386719 192.925781 323.972656 191.507812 324.632812 C 190.085938 325.292969 189.097656 325.722656 188.542969 325.925781 L 187.703125 326.230469 L 186.792969 326.003906 C 186.183594 325.851562 185.523438 325.597656 184.816406 325.242188 C 184.105469 324.886719 182.914062 324.277344 181.238281 323.414062 C 179.566406 322.550781 178.601562 322.015625 178.351562 321.8125 C 178.097656 321.609375 177.449219 321.164062 176.410156 320.480469 C 175.371094 319.792969 174.585938 319.285156 174.050781 318.957031 C 173.519531 318.625 172.480469 317.992188 170.933594 317.050781 C 169.386719 316.113281 168.324219 315.453125 167.738281 315.070312 C 167.15625 314.691406 166.546875 314.257812 165.914062 313.777344 C 165.28125 313.292969 164.558594 312.722656 163.746094 312.0625 C 162.933594 311.402344 161.859375 310.5 160.515625 309.359375 C 159.171875 308.214844 158.003906 307.226562 157.015625 306.386719 C 156.027344 305.550781 154.582031 304.28125 152.679688 302.578125 C 150.777344 300.878906 149.5625 299.8125 149.03125 299.378906 C 148.496094 298.949219 147.332031 297.933594 145.53125 296.332031 C 143.730469 294.734375 142.730469 293.832031 142.527344 293.628906 C 142.324219 293.425781 141.421875 292.523438 139.828125 290.925781 C 138.230469 289.324219 137.113281 288.183594 136.480469 287.496094 C 135.847656 286.8125 134.453125 285.289062 132.296875 282.925781 C 130.140625 280.566406 128.847656 279.117188 128.417969 278.582031 C 127.988281 278.050781 127.351562 277.261719 126.515625 276.222656 C 125.679688 275.179688 125.019531 274.34375 124.539062 273.707031 C 124.058594 273.074219 123.574219 272.414062 123.09375 271.726562 C 122.613281 271.042969 122.105469 270.332031 121.574219 269.59375 C 121.039062 268.859375 120.558594 268.199219 120.128906 267.613281 C 119.695312 267.03125 119.328125 266.511719 119.023438 266.054688 C 118.71875 265.597656 118.300781 265 117.769531 264.261719 C 117.238281 263.527344 116.78125 262.867188 116.402344 262.28125 C 116.019531 261.699219 115.511719 260.9375 114.878906 259.996094 C 114.246094 259.058594 113.765625 258.320312 113.433594 257.789062 C 113.105469 257.253906 112.574219 256.417969 111.835938 255.273438 C 111.101562 254.132812 110.621094 253.34375 110.390625 252.914062 C 110.164062 252.480469 109.53125 251.390625 108.492188 249.636719 C 107.449219 247.886719 106.765625 246.742188 106.4375 246.210938 C 106.109375 245.675781 105.285156 244.214844 103.964844 241.828125 C 102.648438 239.441406 101.65625 237.640625 101 236.421875 C 100.339844 235.203125 99.757812 234.058594 99.25 232.992188 C 98.742188 231.925781 98.03125 230.328125 97.121094 228.195312 C 96.207031 226.0625 95.75 224.96875 95.75 224.917969 C 95.75 224.867188 95.292969 223.699219 94.382812 221.414062 C 93.46875 219.128906 92.757812 217.328125 92.253906 216.007812 C 91.746094 214.6875 91.035156 212.679688 90.121094 209.988281 C 89.210938 207.296875 88.296875 204.429688 87.382812 201.382812 C 86.472656 198.332031 85.457031 194.625 84.34375 190.257812 C 83.226562 185.890625 82.441406 182.640625 81.984375 180.507812 C 81.527344 178.375 80.894531 175.277344 80.082031 171.214844 C 79.273438 167.152344 78.789062 164.488281 78.636719 163.21875 C 78.484375 161.949219 78.15625 158.0625 77.648438 151.5625 C 77.140625 145.0625 76.8125 140.160156 76.660156 136.859375 C 76.507812 133.558594 76.332031 130.054688 76.128906 126.347656 C 75.925781 122.640625 75.644531 116.574219 75.292969 108.144531 C 74.9375 99.714844 74.757812 93.746094 74.757812 90.242188 L 74.757812 84.984375 L 75.253906 84.71875 C 75.582031 84.542969 76.484375 84.324219 77.953125 84.070312 C 79.425781 83.816406 81.453125 83.488281 84.039062 83.082031 C 86.625 82.675781 90.554688 82.015625 95.828125 81.101562 C 101.101562 80.1875 104.878906 79.527344 107.160156 79.121094 C 109.441406 78.714844 112.457031 78.078125 116.210938 77.214844 C 119.960938 76.351562 123.207031 75.539062 125.945312 74.777344 C 128.683594 74.015625 131.042969 73.304688 133.019531 72.644531 C 134.996094 71.984375 136.542969 71.476562 137.660156 71.121094 C 138.773438 70.765625 139.839844 70.410156 140.851562 70.054688 C 141.867188 69.699219 143.894531 68.9375 146.9375 67.769531 C 149.980469 66.601562 152.832031 65.421875 155.496094 64.226562 C 158.15625 63.035156 159.574219 62.425781 159.753906 62.398438 C 159.929688 62.375 161.210938 61.804688 163.59375 60.6875 C 165.976562 59.570312 168.132812 58.554688 170.058594 57.640625 C 171.984375 56.726562 173.886719 55.8125 175.761719 54.898438 C 177.640625 53.984375 179.972656 52.789062 182.761719 51.316406 L 186.945312 49.109375 Z M 187.933594 49.109375 " fill-opacity="1" fill-rule="evenodd"/></g><g clip-path="url(#fc686ae636)"><path stroke-linecap="butt" transform="matrix(0.152116, 0, 0, 0.152349, 74.530795, 48.87928)" fill="none" stroke-linejoin="miter" d="M 745.504554 1.510312 L 752.001468 1.510312 L 779.992123 15.996963 C 798.661119 25.663278 810.987279 31.99638 816.996282 34.996271 C 823.005285 37.996161 843.420488 47.739396 878.241889 64.251614 C 913.088971 80.738193 931.0903 89.071222 932.245878 89.250703 C 933.427135 89.404543 942.671755 93.327477 960.005417 100.993865 C 977.33908 108.660252 990.66674 114.326712 999.988399 117.993245 C 1009.335736 121.659778 1022.843153 126.659595 1040.510649 132.992698 C 1058.178145 139.3258 1069.323048 143.325654 1073.996717 144.99226 C 1078.670386 146.658866 1084.499633 148.658793 1091.510136 150.992042 C 1098.49496 153.32529 1107.508465 156.17134 1118.499291 159.504552 C 1129.490117 162.837764 1143.511124 166.837618 1160.510952 171.504114 C 1177.510781 176.170611 1193.99702 180.324306 1209.995349 183.990838 C 1225.993677 187.657371 1236.342516 189.99062 1240.990505 190.990583 C 1245.664174 191.990547 1260.506925 194.836597 1285.493079 199.503093 C 1310.504911 204.16959 1326.169406 206.99 1332.512243 207.989963 C 1338.8294 208.989927 1354.339818 211.502656 1378.992138 215.50251 C 1403.670137 219.502364 1416.176054 221.502291 1416.509887 221.502291 C 1416.843721 221.502291 1428.836047 223.83554 1452.512546 228.502036 C 1476.163365 233.168533 1488.078653 235.578701 1488.25841 235.758182 L 1488.489525 235.988943 L 1487.000114 310.499047 C 1485.998614 360.163902 1483.507702 424.34105 1479.5017 503.004848 C 1475.495698 581.668647 1472.33712 636.666642 1470.000285 667.998833 C 1467.663451 699.331024 1464.992783 726.176199 1461.988281 748.508718 C 1459.009459 770.841237 1455.491368 791.994312 1451.511045 811.993583 C 1447.505043 831.992854 1443.165208 852.171605 1438.491539 872.504197 C 1433.84355 892.836789 1429.657791 910.656652 1426.011302 925.989427 C 1422.339134 941.322201 1417.999298 957.834419 1412.991796 975.500442 C 1408.009973 993.166464 1405.005471 1003.832742 1404.003971 1007.499275 C 1403.00247 1011.165808 1401.48738 1015.832305 1399.510058 1021.498765 C 1397.507057 1027.165225 1395.170223 1034.16497 1392.499555 1042.497999 C 1389.828887 1050.831029 1385.668808 1062.830591 1379.993638 1078.496687 C 1374.344148 1094.162782 1369.670479 1106.675146 1365.998311 1116.00814 C 1362.326142 1125.341133 1357.83223 1136.494572 1352.490894 1149.494098 C 1347.175237 1162.493624 1340.34449 1178.15972 1331.998653 1196.492385 C 1323.678495 1214.82505 1318.670992 1225.491327 1317.001825 1228.491218 C 1315.332657 1231.491109 1309.246616 1242.413787 1298.7437 1261.259254 C 1288.240785 1280.079081 1281.923628 1291.25816 1279.740871 1294.745213 C 1277.583793 1298.257905 1272.422213 1307.078096 1264.256132 1321.257067 C 1256.090051 1335.410397 1250.748715 1344.410069 1248.257804 1348.256082 C 1245.741213 1352.076456 1241.914967 1358.076237 1236.753388 1366.255426 C 1231.591808 1374.408975 1227.40605 1380.742077 1224.247471 1385.254733 C 1221.088893 1389.741749 1217.416724 1395.074888 1213.256645 1401.25415 C 1209.070887 1407.407772 1205.090564 1413.074232 1201.238639 1418.25353 C 1197.412394 1423.407188 1194.407892 1427.740364 1192.250814 1431.253056 C 1190.093736 1434.740108 1186.909478 1439.252764 1182.749399 1444.739744 C 1178.58932 1450.252363 1174.583318 1455.739343 1170.757073 1461.251962 C 1166.905148 1466.738942 1162.745069 1472.405402 1158.251156 1478.251343 C 1153.757244 1484.071643 1149.905319 1489.071461 1146.746741 1493.250796 C 1143.588162 1497.40449 1136.834454 1505.327278 1126.511295 1516.99352 C 1116.162456 1528.659761 1103.990373 1541.992608 1089.995046 1556.992061 C 1075.999718 1571.991515 1063.673558 1584.8372 1052.990886 1595.503478 C 1042.333894 1606.169756 1035.246352 1612.9131 1031.75394 1615.75915 C 1028.261528 1618.57956 1020.095447 1625.758785 1007.255697 1637.245546 C 994.415947 1648.757946 986.5837 1655.757691 983.758955 1658.24478 C 980.90853 1660.757509 973.923706 1666.911131 962.753124 1676.756926 C 951.582541 1686.57708 944.238204 1692.910183 940.745792 1695.756233 C 937.25338 1698.576643 933.247378 1701.909855 928.753466 1705.755868 C 924.259553 1709.576242 917.993755 1714.83246 910.007431 1721.498884 C 901.995427 1728.165308 895.909385 1733.088205 891.749306 1736.241936 C 887.589227 1739.421308 883.583225 1742.241718 879.75698 1744.754446 C 875.905055 1747.241535 868.920231 1751.574711 858.751149 1757.753973 C 848.582067 1763.907594 841.905397 1768.086929 838.746819 1770.240697 C 835.58824 1772.420104 831.99311 1774.676432 828.012788 1777.009681 C 824.006786 1779.342929 819.821027 1782.009498 815.506871 1785.009389 C 811.167036 1788.00928 808.008457 1790.163047 806.005456 1791.496332 C 804.002455 1792.829617 799.66262 1795.162865 793.011629 1798.496077 C 786.334959 1801.829289 778.322955 1805.675302 769.001297 1810.008478 C 759.653959 1814.341653 753.157045 1817.162063 749.510556 1818.495348 L 743.989464 1820.495275 L 738.00614 1819.008149 C 734.000138 1818.008186 729.660303 1816.34158 725.012313 1814.008332 C 720.338644 1811.675083 712.506397 1807.675229 701.489892 1802.008769 C 690.499066 1796.342309 684.156229 1792.829617 682.512741 1791.496332 C 680.843574 1790.163047 676.580777 1787.240077 669.75003 1782.753061 C 662.919283 1778.240405 657.757703 1774.907193 654.239612 1772.753426 C 650.7472 1770.574018 643.916453 1766.420323 633.747371 1760.241061 C 623.578289 1754.08744 616.593465 1749.754264 612.74154 1747.241535 C 608.915294 1744.754446 604.909292 1741.908396 600.749213 1738.754665 C 596.589134 1735.575294 591.838427 1731.831841 586.497091 1727.498665 C 581.155755 1723.16549 574.093892 1717.242629 565.260144 1709.755723 C 556.426397 1702.243176 548.748226 1695.756233 542.251313 1690.243613 C 535.754399 1684.756634 526.252984 1676.423604 513.747068 1665.244525 C 501.241151 1654.091085 493.254827 1647.091341 489.762415 1644.24529 C 486.244323 1641.42488 478.591832 1634.758457 466.753583 1624.24602 C 454.915333 1613.759222 448.341381 1607.836362 447.006047 1606.503077 C 445.670713 1605.169792 439.738749 1599.246931 429.261513 1588.760134 C 418.758597 1578.247697 411.414261 1570.76079 407.254182 1566.248134 C 403.094103 1561.761118 393.926521 1551.761483 379.751437 1536.249228 C 365.576353 1520.762613 357.076439 1511.250139 354.251694 1507.737447 C 351.426949 1504.250395 347.24119 1499.071096 341.745777 1492.250832 C 336.250364 1485.404928 331.910529 1479.917948 328.75195 1475.738614 C 325.593372 1471.584919 322.409114 1467.251744 319.250535 1462.739088 C 316.091957 1458.252072 312.753622 1453.585575 309.26121 1448.739598 C 305.743118 1443.919261 302.58454 1439.586086 299.759795 1435.740072 C 296.90937 1431.919698 294.495497 1428.509566 292.492496 1425.509676 C 290.489495 1422.509785 287.741789 1418.586851 284.249377 1413.740874 C 280.756965 1408.920537 277.752463 1404.587362 275.261552 1400.741348 C 272.744961 1396.920974 269.406626 1391.921157 265.246547 1385.741895 C 261.086468 1379.588273 257.92789 1374.742296 255.745132 1371.255244 C 253.588054 1367.742551 250.095642 1362.255572 245.242217 1354.743025 C 240.414471 1347.256119 237.255892 1342.07682 235.740802 1339.25641 C 234.251391 1336.41036 230.091312 1329.256775 223.260565 1317.744374 C 216.404138 1306.257613 211.910226 1298.745067 209.753148 1295.258014 C 207.59607 1291.745322 202.177695 1282.155928 193.498024 1266.489833 C 184.844033 1250.823737 178.32144 1239.003655 174.007284 1231.003947 C 169.667448 1223.004239 165.841203 1215.491692 162.502868 1208.491947 C 159.164533 1201.492202 154.490864 1191.005405 148.50754 1177.005916 C 142.498537 1163.006426 139.494036 1155.827201 139.494036 1155.493879 C 139.494036 1155.160558 136.489534 1147.494171 130.506211 1132.494718 C 124.497208 1117.495265 119.823539 1105.675183 116.510884 1097.008832 C 113.172549 1088.342482 108.49888 1075.163475 102.489877 1057.497452 C 96.506553 1039.83143 90.49755 1021.011603 84.488547 1001.012332 C 78.505224 980.987421 71.828554 956.654975 64.509896 927.989354 C 57.165559 899.323732 52.00398 877.991177 48.999478 863.991687 C 45.994977 849.992197 41.834898 829.659605 36.493562 802.993911 C 31.177905 776.328216 27.993647 758.841675 26.992147 750.508645 C 25.990646 742.175615 23.833568 716.663725 20.495233 673.998614 C 17.156898 631.333503 14.99982 599.155189 13.99832 577.489312 C 12.996819 555.823435 11.841242 532.824274 10.505908 508.491828 C 9.170574 484.159382 7.32165 444.340321 5.010495 389.009005 C 2.67366 333.677689 1.492403 294.49963 1.492403 271.500468 L 1.492403 236.988906 L 4.7537 235.24538 C 6.910778 234.091576 12.842742 232.655731 22.498234 230.989125 C 32.179406 229.322519 45.507066 227.168751 62.506895 224.502182 C 79.506724 221.835613 105.340301 217.502437 140.007626 211.502656 C 174.674951 205.502875 199.507027 201.169699 214.503855 198.50313 C 229.500683 195.83656 249.325257 191.657226 274.003256 185.990766 C 298.655576 180.324306 319.995241 174.991167 337.99657 169.991349 C 355.9979 164.991531 371.508318 160.325035 384.502145 155.991859 C 397.495972 151.658684 407.665054 148.325472 415.009391 145.992224 C 422.328048 143.658976 429.338551 141.325727 435.989542 138.992479 C 442.666212 136.659231 455.993872 131.659413 475.998203 123.993026 C 496.002533 116.326639 514.748568 108.583331 532.261987 100.737464 C 549.749727 92.917236 559.071385 88.917382 560.252642 88.737901 C 561.40822 88.584061 569.831095 84.840607 585.49559 77.507541 C 601.160085 70.174475 615.335169 63.508052 627.995163 57.508271 C 640.655156 51.508489 653.161073 45.508708 665.487233 39.508927 C 677.839072 33.509146 693.169734 25.663278 711.504896 15.996963 L 739.007641 1.510312 Z M 745.504554 1.510312 " stroke="#000000" stroke-width="2" stroke-opacity="1" stroke-miterlimit="4"/></g></svg>