<?xml version="1.0" encoding="UTF-8"?>
<svg xmlns="http://www.w3.org/2000/svg" xmlns:xlink="http://www.w3.org/1999/xlink" width="500px" height="500px" viewBox="0 0 500 131" version="1.1">
<g id="surface1">
<path style=" stroke:none;fill-rule:nonzero;fill:rgb(0%,0%,0%);fill-opacity:1;" d="M 34.828125 0 C 15.480469 0 0 15.410156 0 34.675781 L 0 131 L 30.960938 131 L 30.960938 34.675781 C 30.960938 31.59375 34.828125 30.054688 37.539062 31.980469 L 118.730469 120.675781 C 141.175781 143.019531 178.328125 126.839844 178.328125 96.785156 L 178.328125 -0.308594 L 147.367188 -0.308594 L 147.367188 96.785156 C 147.367188 99.867188 143.5 101.410156 140.945312 99.484375 L 60.0625 10.867188 C 52.320312 3.160156 46.128906 0.078125 34.90625 0.078125 M 193.652344 0 L 193.652344 96.324219 C 193.652344 115.476562 209.246094 131 228.484375 131 L 358.359375 131 C 380.800781 131 398.992188 112.886719 398.992188 90.542969 C 398.992188 68.199219 380.800781 50.089844 358.359375 50.089844 L 276.933594 50.089844 C 271.589844 50.089844 267.261719 45.777344 267.261719 40.457031 C 267.261719 35.136719 271.589844 30.824219 276.933594 30.824219 L 414.320312 30.824219 L 414.320312 131 L 445.277344 131 L 445.277344 30.824219 L 499.457031 30.824219 L 499.457031 0 L 276.933594 0 C 254.492188 0 236.300781 18.113281 236.300781 40.457031 C 236.300781 62.800781 254.492188 80.910156 276.933594 80.910156 L 358.203125 80.910156 C 363.546875 80.910156 367.878906 85.222656 367.878906 90.542969 C 367.878906 95.863281 363.546875 100.175781 358.203125 100.175781 L 228.558594 100.175781 C 226.421875 100.175781 224.691406 98.453125 224.691406 96.324219 L 224.691406 0 Z M 193.652344 0 "/>
</g>
</svg>
