<svg clip-rule="evenodd" fill-rule="evenodd" stroke-linejoin="round" stroke-miterlimit="2" viewBox="0 0 560 400" xmlns="http://www.w3.org/2000/svg"><path d="m415 115c0-27.596-22.404-50-50-50h-170c-27.596 0-50 22.404-50 50v170c0 27.596 22.404 50 50 50h170c27.596 0 50-22.404 50-50z" fill="#3178c6"/><path d="m312.168 279.629v26.367c4.271 2.215 9.492 3.85 15.293 4.957 5.801 1.108 12.129 1.635 18.457 1.635s12.129-.58 17.93-1.793c5.8-1.213 10.547-3.217 14.765-5.801 4.272-2.795 7.91-6.328 10.02-11.074 2.109-4.746 3.744-10.02 3.744-16.875 0-4.799-.738-8.965-2.162-12.656-1.424-3.692-3.481-6.856-6.328-9.493-2.69-2.794-5.801-5.273-9.492-7.382-3.692-2.11-7.911-4.325-12.657-6.328-3.48-1.424-6.328-2.795-9.492-4.166-2.742-1.372-5.115-2.743-6.855-4.114-1.952-1.424-3.428-2.9-4.483-4.429-1.054-1.582-1.582-3.323-1.582-5.274 0-1.793.47-3.428 1.424-4.904.954-1.477 2.268-2.69 3.955-3.744 1.688-1.055 3.797-1.846 6.328-2.426 2.479-.58 5.221-.844 8.438-.844 2.215 0 4.535.164 6.855.496 2.426.332 4.904.844 7.383 1.529 2.479.686 4.904 1.529 7.383 2.584 2.32 1.055 4.482 2.268 6.328 3.639v-24.785c-4.008-1.53-8.438-2.69-13.184-3.428s-10.019-1.108-16.347-1.108-12.129.686-17.93 2.004c-5.801 1.319-10.547 3.428-14.766 6.329-4.271 2.847-7.382 6.328-10.019 11.074-2.479 4.429-3.692 9.492-3.692 15.82 0 7.91 2.268 14.766 6.856 20.039 4.535 5.801 11.601 10.02 20.566 14.238 3.639 1.477 6.856 2.954 10.02 4.377 3.164 1.424 5.801 2.901 7.91 4.43 2.268 1.529 4.061 3.217 5.273 5.01 1.319 1.793 2.004 3.902 2.004 6.328 0 1.687-.411 3.269-1.213 4.746-.801 1.477-2.056 2.742-3.744 3.797-1.687 1.055-3.744 1.898-6.328 2.531-2.478.58-5.273.897-8.965.897-5.8 0-11.601-1.002-16.875-3.006-5.8-2.004-11.074-5.01-15.82-8.965zm-44.297-64.863h33.75v-21.621h-94.394v21.621h33.75v96.504h26.894z" fill="#fff"/></svg>