<svg width="64" height="64" viewBox="0 0 64 64" fill="none" xmlns="http://www.w3.org/2000/svg">
<path fill-rule="evenodd" clip-rule="evenodd" d="M32 5.3335C17.28 5.3335 5.33334 17.2802 5.33334 32.0002C5.33334 46.7202 17.28 58.6668 32 58.6668C46.72 58.6668 58.6667 46.7202 58.6667 32.0002C58.6667 17.2802 46.72 5.3335 32 5.3335ZM26.6667 44.0002L42.6667 32.0002L26.6667 20.0002V44.0002ZM10.6667 32.0002C10.6667 43.7602 20.24 53.3335 32 53.3335C43.76 53.3335 53.3333 43.7602 53.3333 32.0002C53.3333 20.2402 43.76 10.6668 32 10.6668C20.24 10.6668 10.6667 20.2402 10.6667 32.0002Z" fill="#3E2D4A"/>
</svg>
